<svg width="32" height="32" viewBox="0 0 32 32" fill="none" xmlns="http://www.w3.org/2000/svg">
    <path
        d="M20.3999 11.3998C22.1999 12.5998 23.3999 14.5998 23.5999 16.9998C24.1999 16.9998 24.7999 17.1998 25.3999 17.3998C25.1999 14.1998 23.5999 11.3998 20.9999 9.7998C20.7999 10.1998 20.7999 10.7998 20.3999 11.3998Z"
        fill="white" />
    <path
        d="M19.2001 24.6001C18.2001 25.0001 17.2001 25.4001 16.0001 25.4001C14.8001 25.4001 13.8001 25.2001 12.8001 24.6001C12.4001 25.2001 12.0001 25.6001 11.6001 26.0001C13.0001 26.8001 14.4001 27.2001 16.0001 27.2001C17.6001 27.2001 19.2001 26.8001 20.4001 26.0001C20.0001 25.6001 19.6001 25.2001 19.2001 24.6001Z"
        fill="white" />
    <path
        d="M8.4001 17.0001C8.6001 14.6001 9.8001 12.6001 11.6001 11.4001C11.4001 10.8001 11.2001 10.2001 11.0001 9.6001C8.4001 11.2001 6.8001 14.2001 6.6001 17.4001C7.2001 17.2001 7.8001 17.0001 8.4001 17.0001Z"
        fill="white" />
    <path
        d="M8.6001 20C9.8001 20 10.6001 20.8 10.6001 22C10.6001 23.2 9.8001 24 8.6001 24C7.4001 24 6.6001 23.2 6.6001 22C6.6001 20.8 7.4001 20 8.6001 20ZM8.6001 18C6.4001 18 4.6001 19.8 4.6001 22C4.6001 24.2 6.4001 26 8.6001 26C10.8001 26 12.6001 24.2 12.6001 22C12.6001 19.8 10.8001 18 8.6001 18Z"
        fill="white" />
    <path
        d="M16 7C17.2 7 18 7.8 18 9C18 10.2 17.2 11 16 11C14.8 11 14 10.2 14 9C14 7.8 15 7 16 7ZM16 5C13.8 5 12 6.8 12 9C12 11.2 13.8 13 16 13C18.2 13 20 11.2 20 9C20 6.8 18.2 5 16 5Z"
        fill="white" />
    <path
        d="M23.3999 20C24.5999 20 25.3999 20.8 25.3999 22C25.3999 23.2 24.5999 24 23.3999 24C22.1999 24 21.3999 23.2 21.3999 22C21.3999 20.8 22.3999 20 23.3999 20ZM23.3999 18C21.1999 18 19.3999 19.8 19.3999 22C19.3999 24.2 21.1999 26 23.3999 26C25.5999 26 27.3999 24.2 27.3999 22C27.3999 19.8 25.5999 18 23.3999 18Z"
        fill="white" />
    <path
        d="M8.6001 20C9.8001 20 10.6001 20.8 10.6001 22C10.6001 23.2 9.8001 24 8.6001 24C7.4001 24 6.6001 23.2 6.6001 22C6.6001 20.8 7.4001 20 8.6001 20ZM8.6001 18C6.4001 18 4.6001 19.8 4.6001 22C4.6001 24.2 6.4001 26 8.6001 26C10.8001 26 12.6001 24.2 12.6001 22C12.6001 19.8 10.8001 18 8.6001 18Z"
        fill="white" />
</svg>