<svg width="90" height="55" viewBox="0 0 90 55" fill="none" xmlns="http://www.w3.org/2000/svg">
    <path
        d="M18.18 10.6299C32.66 -3.54006 56.13 -3.54006 70.61 10.6299L72.35 12.3399C73.07 13.0499 73.07 14.1999 72.35 14.9099L66.39 20.7399C66.03 21.0899 65.44 21.0899 65.08 20.7399L62.68 18.3899C52.58 8.50994 36.2 8.50994 26.1 18.3899L23.53 20.8999C23.17 21.2499 22.58 21.2499 22.22 20.8999L16.26 15.0699C15.54 14.3599 15.54 13.2099 16.26 12.4999L18.17 10.6299H18.18ZM82.94 22.6899L88.24 27.8799C88.96 28.5899 88.96 29.7399 88.24 30.4499L64.32 53.8599C63.6 54.5699 62.42 54.5699 61.7 53.8599L44.72 37.2499C44.54 37.0699 44.25 37.0699 44.06 37.2499L27.08 53.8599C26.36 54.5699 25.18 54.5699 24.46 53.8599L0.54 30.4499C-0.18 29.7399 -0.18 28.5899 0.54 27.8799L5.84 22.6899C6.56 21.9799 7.74 21.9799 8.46 22.6899L25.44 39.2999C25.62 39.4799 25.91 39.4799 26.1 39.2999L43.08 22.6899C43.8 21.9799 44.98 21.9799 45.7 22.6899L62.68 39.3099C62.86 39.4899 63.15 39.4899 63.34 39.3099L80.32 22.6999C81.04 21.9899 82.22 21.9899 82.94 22.6999V22.6899Z"
        fill="#5570FF"></path>
</svg>