<svg width="410" height="410" viewBox="0 0 410 410" fill="none" xmlns="http://www.w3.org/2000/svg">
    <path d="M268.86 154.315L214.195 143.828L213.965 145.026L268.63 155.513L268.86 154.315Z"
        fill="black" />
    <path
        d="M245.784 296.124L233.527 277.176L179.965 266.9C174.035 265.754 168.801 262.303 165.412 257.304C162.023 252.305 160.755 246.165 161.887 240.232L172.813 183.28L159.486 162.684L186.966 146.631C187.599 146.217 188.252 145.836 188.924 145.49L190.027 144.836L190.006 144.949C194.277 142.989 199.054 142.417 203.668 143.313L203.439 144.506C198.723 143.591 193.836 144.296 189.571 146.506L189.453 146.57C188.771 146.903 188.186 147.273 187.599 147.656L161.214 163.096L174.098 183.031L163.081 240.461C162.01 246.079 163.21 251.891 166.42 256.624C169.629 261.357 174.585 264.624 180.2 265.708L234.269 276.08L246.207 294.497L272.911 278.877L273.781 278.376C276.479 276.829 278.812 274.718 280.618 272.185C282.424 269.653 283.661 266.76 284.244 263.705L299.365 184.884C300.436 179.266 299.235 173.454 296.026 168.721C292.817 163.988 287.861 160.721 282.246 159.637L281.949 159.813L282.178 158.619L282.475 158.443C288.407 159.588 293.642 163.039 297.032 168.038C300.422 173.038 301.691 179.179 300.559 185.113L285.438 263.934C284.841 267.002 283.619 269.914 281.848 272.488C280.076 275.062 277.793 277.244 275.141 278.896L274.289 279.401L245.784 296.124Z"
        fill="black" />
    <path
        d="M257.535 173.49L178.464 158.321C166.398 156.006 154.74 163.912 152.425 175.978L137.256 255.048C134.941 267.115 142.846 278.773 154.913 281.088L233.983 296.257C246.049 298.571 257.708 290.666 260.022 278.6L275.191 199.53C277.506 187.463 269.601 175.805 257.535 173.49Z"
        fill="#EBDDFF" />
    <path
        d="M233.868 296.856L154.798 281.687C148.848 280.538 143.598 277.076 140.197 272.061C136.796 267.045 135.523 260.886 136.657 254.934L151.826 175.864C152.976 169.915 156.437 164.664 161.453 161.263C166.468 157.863 172.627 156.59 178.579 157.723L257.649 172.892C263.593 174.047 268.837 177.511 272.233 182.524C275.628 187.538 276.899 193.692 275.766 199.641L260.597 278.711C259.448 284.656 255.99 289.904 250.981 293.305C245.971 296.706 239.817 297.983 233.868 296.856ZM178.345 158.945C172.714 157.871 166.887 159.073 162.141 162.287C157.395 165.502 154.116 170.466 153.023 176.094L137.855 255.164C136.78 260.799 137.985 266.63 141.204 271.378C144.424 276.126 149.395 279.403 155.027 280.49L234.098 295.659C239.73 296.726 245.555 295.517 250.298 292.298C255.04 289.078 258.313 284.109 259.4 278.481L274.568 199.411C275.643 193.776 274.438 187.945 271.219 183.197C267.999 178.449 263.028 175.172 257.396 174.085L178.345 158.945Z"
        fill="black" />
    <path
        d="M218.732 221.563C219.113 219.593 218.958 217.558 218.283 215.669C217.609 213.779 216.439 212.106 214.898 210.823C213.356 209.54 211.498 208.694 209.517 208.374C207.537 208.054 205.507 208.272 203.64 209.004C201.772 209.736 200.136 210.956 198.901 212.537C197.665 214.117 196.877 216 196.618 217.989C196.359 219.979 196.639 222.001 197.428 223.845C198.217 225.689 199.487 227.287 201.105 228.473L197.678 246.334C197.445 247.569 197.709 248.846 198.415 249.887C199.12 250.927 200.209 251.646 201.443 251.886L201.569 251.91C202.804 252.144 204.081 251.879 205.121 251.173C206.162 250.468 206.88 249.379 207.12 248.145L210.547 230.285C212.597 229.755 214.455 228.654 215.904 227.11C217.353 225.566 218.334 223.642 218.732 221.563Z"
        fill="black" />
    <path
        d="M252.276 83.3127C275.297 87.7292 290.471 109.884 286.106 132.637L280.339 162.699L273.726 166.397L258.087 163.397C258.982 160.707 261.189 157.163 263.692 153.174C269.004 144.707 275.632 134.103 274.593 123.599C274.192 119.537 268.15 114.697 262.842 110.425C259.941 108.106 256.92 105.701 256.368 104.503C254.628 100.916 252.323 98.8227 249.491 98.2794L249.36 98.2541C242.426 97.0588 235.3 98.6297 229.512 102.63C223.723 106.63 219.734 112.739 218.4 119.648L212.633 149.711L206.02 153.408L190.291 150.391C190.468 149.469 190.65 148.523 190.834 147.559C194.489 128.023 199.497 101.272 217.825 91.714C218.405 91.4093 219.133 90.9779 219.967 90.48C225.475 87.2346 236.978 80.3779 252.276 83.3127ZM252.505 82.1152C234.405 78.6428 221.49 88.4628 217.241 90.6771C197.044 101.211 192.575 131.883 188.831 151.402L206.194 154.733L213.695 150.517L219.574 119.873C220.852 113.281 224.663 107.453 230.189 103.639C235.715 99.8244 242.516 98.328 249.132 99.4707L249.24 99.4914C251.803 99.983 253.757 101.997 255.232 105.048C257.009 108.729 272.784 117.882 273.375 123.732C274.927 139.493 258.161 156.024 256.555 164.394L273.918 167.725L281.413 163.508L287.292 132.864C291.819 109.267 276.138 86.6488 252.493 82.1129L252.505 82.1152Z"
        fill="black" />
    <path
        d="M279.219 136.976L273.455 167.024L257.269 163.919L262.944 134.337C265.708 119.933 256.236 105.628 241.758 103.105L241.757 103.105C234.986 101.936 228.026 103.467 222.37 107.37C216.715 111.274 212.815 117.238 211.507 123.984L211.507 123.985L205.746 154.016L189.561 150.911L195.214 121.443C199.641 98.3695 221.77 82.7223 244.896 86.9264C250.446 87.9394 255.74 90.0406 260.474 93.1091C265.208 96.1776 269.288 100.153 272.478 104.805C275.669 109.458 277.907 114.695 279.064 120.217C280.221 125.738 280.273 131.434 279.219 136.976Z"
        fill="#B27AFF" stroke="black" stroke-width="1.2" />
    <g clip-path="url(#clip0_932_28974)">
        <path
            d="M83.6953 162.483L126.484 210.334C124.279 217.014 124.341 224.237 126.661 230.879C128.981 237.522 133.429 243.214 139.314 247.07C145.199 250.927 152.193 252.732 159.209 252.207C166.224 251.682 172.87 248.856 178.114 244.166C183.358 239.477 186.907 233.187 188.21 226.273C189.513 219.359 188.497 212.208 185.32 205.93C182.143 199.652 176.982 194.599 170.639 191.554C164.296 188.508 157.125 187.642 150.24 189.09L144.469 182.635C142.981 180.966 140.891 179.955 138.659 179.825L130.455 179.368C129.733 179.328 129.057 179.002 128.575 178.464C128.093 177.925 127.845 177.217 127.885 176.495L128.226 170.433C128.266 169.712 128.018 169.004 127.536 168.465C127.054 167.926 126.378 167.601 125.656 167.56L120.212 167.258C119.855 167.238 119.505 167.148 119.183 166.993C118.861 166.838 118.572 166.621 118.334 166.354C118.095 166.088 117.912 165.777 117.793 165.439C117.675 165.102 117.625 164.744 117.645 164.387L117.966 158.62C117.986 158.263 117.936 157.905 117.818 157.568C117.699 157.23 117.516 156.919 117.277 156.653C117.039 156.386 116.75 156.169 116.428 156.014C116.106 155.859 115.756 155.769 115.399 155.749L109.904 155.442C109.547 155.422 109.197 155.332 108.875 155.177C108.552 155.022 108.264 154.805 108.025 154.538C107.787 154.271 107.604 153.96 107.485 153.623C107.367 153.285 107.317 152.928 107.337 152.571L107.6 147.853C107.683 146.351 92.4636 143.253 90.9545 143.176L84.7312 143.856L83.6953 162.483Z"
            fill="#DAC2FB" />
        <path
            d="M180.882 198.827C186.582 205.215 189.515 213.603 189.038 222.15C188.562 230.697 184.715 238.706 178.341 244.419C165.093 256.265 145.256 255.339 133.155 242.323C129.251 238.11 126.539 232.934 125.298 227.327C124.056 221.72 124.329 215.884 126.089 210.418L83.3373 162.609L84.4074 143.545L90.9686 142.835C91.7461 142.879 95.9517 143.679 99.9452 144.656C108 146.622 107.957 147.473 107.919 147.895L107.659 152.61C107.641 152.922 107.686 153.234 107.791 153.528C107.895 153.822 108.057 154.093 108.267 154.324C108.685 154.795 109.273 155.081 109.902 155.119L115.395 155.424C116.208 155.47 116.969 155.836 117.511 156.443C118.054 157.05 118.333 157.847 118.288 158.659L117.967 164.422C117.933 165.052 118.15 165.669 118.571 166.14C118.991 166.61 119.581 166.894 120.211 166.931L125.655 167.238C126.467 167.283 127.227 167.649 127.769 168.256C128.312 168.862 128.591 169.658 128.545 170.47L128.21 176.532C128.175 177.162 128.392 177.78 128.813 178.251C129.233 178.721 129.824 179.005 130.454 179.041L138.677 179.504C139.827 179.565 140.953 179.852 141.991 180.35C143.029 180.848 143.958 181.547 144.725 182.406L150.364 188.711C155.891 187.597 161.613 187.944 166.965 189.718C172.317 191.492 177.114 194.631 180.882 198.827ZM133.269 241.418C133.399 241.564 133.528 241.708 133.659 241.854C145.505 254.585 164.916 255.5 177.882 243.906C183.075 239.268 186.59 233.045 187.881 226.204C189.173 219.362 188.168 212.285 185.024 206.072C181.879 199.859 176.771 194.858 170.493 191.847C164.214 188.836 157.117 187.983 150.305 189.42L150.11 189.46L144.212 182.864C143.505 182.07 142.648 181.423 141.69 180.962C140.732 180.501 139.692 180.235 138.63 180.178L130.423 179.719C129.612 179.672 128.852 179.306 128.311 178.7C127.769 178.094 127.489 177.298 127.533 176.487L127.871 170.423C127.905 169.793 127.689 169.175 127.268 168.704C126.847 168.234 126.257 167.95 125.627 167.914L120.185 167.609C119.373 167.564 118.611 167.197 118.069 166.591C117.527 165.984 117.247 165.187 117.292 164.374L117.613 158.612C117.647 157.982 117.43 157.364 117.01 156.894C116.589 156.424 115.999 156.139 115.37 156.103L109.874 155.795C109.472 155.774 109.078 155.673 108.715 155.498C108.352 155.323 108.027 155.079 107.76 154.778C107.49 154.478 107.282 154.127 107.149 153.747C107.015 153.366 106.958 152.963 106.981 152.56L107.243 147.866C106.639 146.643 93.021 143.659 90.957 143.524L85.0721 144.17L84.0344 162.346L126.871 210.25L126.8 210.439C125.066 215.715 124.751 221.356 125.886 226.794C127.022 232.231 129.568 237.275 133.269 241.418Z"
            fill="black" />
        <path
            d="M89.9111 161.805L132.7 209.655C130.495 216.336 130.557 223.558 132.877 230.201C135.197 236.843 139.645 242.535 145.53 246.391C151.415 250.248 158.408 252.054 165.424 251.529C172.44 251.004 179.086 248.177 184.33 243.488C189.574 238.798 193.123 232.508 194.426 225.595C195.729 218.681 194.713 211.53 191.536 205.252C188.358 198.974 183.198 193.92 176.855 190.875C170.512 187.83 163.341 186.964 156.456 188.411L150.687 181.959C149.948 181.133 149.054 180.46 148.056 179.979C147.057 179.499 145.974 179.22 144.867 179.158L136.66 178.699C136.303 178.679 135.954 178.589 135.631 178.434C135.309 178.279 135.02 178.062 134.782 177.795C134.544 177.529 134.36 177.218 134.242 176.88C134.124 176.542 134.073 176.185 134.093 175.828L134.431 169.764C134.472 169.042 134.223 168.334 133.742 167.795C133.26 167.256 132.584 166.931 131.862 166.891L126.42 166.586C126.063 166.567 125.712 166.478 125.39 166.323C125.067 166.168 124.778 165.951 124.54 165.685C124.301 165.418 124.118 165.106 124 164.769C123.882 164.431 123.832 164.073 123.853 163.715L124.177 157.95C124.217 157.229 123.969 156.521 123.487 155.982C123.005 155.443 122.329 155.118 121.607 155.077L116.114 154.772C115.392 154.732 114.716 154.406 114.235 153.868C113.753 153.329 113.505 152.621 113.545 151.899L113.808 147.181C113.828 146.824 113.777 146.466 113.659 146.129C113.541 145.791 113.357 145.48 113.119 145.214C112.881 144.947 112.592 144.73 112.27 144.575C111.947 144.42 111.598 144.33 111.241 144.31L90.9519 143.178L89.9111 161.805Z"
            fill="#B27AFF" />
        <path
            d="M187.098 198.148C192.798 204.536 195.732 212.924 195.255 221.472C194.779 230.019 190.931 238.028 184.556 243.741C171.319 255.578 151.461 254.665 139.376 241.64C135.47 237.429 132.757 232.253 131.515 226.646C130.273 221.038 130.548 215.201 132.31 209.736L89.5582 161.926L90.6236 142.816L111.255 143.97C112.067 144.016 112.828 144.382 113.371 144.989C113.913 145.595 114.193 146.392 114.148 147.205L113.887 151.921C113.869 152.233 113.913 152.546 114.016 152.841C114.119 153.136 114.279 153.408 114.488 153.641C114.696 153.874 114.949 154.064 115.231 154.199C115.513 154.335 115.819 154.413 116.131 154.43L121.624 154.739C122.436 154.785 123.196 155.151 123.738 155.757C124.28 156.363 124.559 157.16 124.514 157.972L124.193 163.735C124.159 164.364 124.376 164.982 124.797 165.452C125.217 165.923 125.807 166.207 126.437 166.244L131.873 166.557C132.684 166.605 133.444 166.971 133.986 167.577C134.527 168.183 134.807 168.978 134.764 169.79L134.426 175.854C134.408 176.166 134.451 176.479 134.554 176.774C134.657 177.069 134.818 177.341 135.026 177.574C135.235 177.808 135.487 177.997 135.769 178.133C136.051 178.268 136.357 178.346 136.669 178.363L144.874 178.824C146.026 178.885 147.155 179.174 148.195 179.675C149.235 180.175 150.166 180.877 150.933 181.739L156.572 188.045C162.099 186.927 167.822 187.271 173.176 189.043C178.53 190.815 183.329 193.953 187.098 198.148ZM139.478 240.732L139.865 241.165C151.71 253.921 171.132 254.822 184.098 243.228C189.285 238.589 192.796 232.368 194.085 225.529C195.374 218.69 194.37 211.617 191.227 205.407C188.084 199.197 182.979 194.198 176.705 191.186C170.431 188.174 163.338 187.317 156.528 188.749L156.333 188.79L150.43 182.189C149.721 181.394 148.862 180.748 147.902 180.288C146.943 179.828 145.901 179.562 144.838 179.507L136.633 179.051C135.821 179.005 135.06 178.638 134.517 178.032C133.975 177.425 133.696 176.628 133.741 175.816L134.093 169.752C134.128 169.122 133.911 168.504 133.49 168.034C133.07 167.563 132.48 167.279 131.85 167.243L126.408 166.939C125.595 166.893 124.834 166.527 124.292 165.92C123.749 165.314 123.47 164.516 123.515 163.704L123.836 157.941C123.87 157.311 123.653 156.694 123.232 156.223C122.812 155.753 122.222 155.469 121.592 155.432L116.098 155.11C115.287 155.063 114.527 154.696 113.985 154.091C113.444 153.485 113.164 152.689 113.207 151.878L113.47 147.16C113.505 146.53 113.288 145.911 112.868 145.441C112.447 144.971 111.857 144.686 111.227 144.651L91.292 143.548L90.2616 161.681L133.089 209.574L133.028 209.763C131.292 215.039 130.976 220.679 132.109 226.117C133.243 231.554 135.787 236.598 139.487 240.742L139.478 240.732Z"
            fill="black" />
        <path
            d="M172.589 234.89C171.052 236.266 169.076 237.051 167.014 237.105C168.093 238.025 169.38 238.668 170.763 238.979C172.147 239.29 173.585 239.26 174.954 238.891C176.323 238.522 177.581 237.826 178.621 236.862C179.66 235.898 180.449 234.695 180.92 233.358C181.391 232.021 181.529 230.589 181.323 229.186C181.117 227.784 180.573 226.452 179.737 225.306C178.902 224.161 177.8 223.236 176.527 222.611C175.254 221.986 173.849 221.681 172.431 221.721C172.733 221.978 173.017 222.254 173.282 222.548C174.047 223.404 174.637 224.402 175.016 225.486C175.395 226.569 175.557 227.717 175.493 228.863C175.429 230.009 175.139 231.132 174.641 232.166C174.143 233.2 173.445 234.126 172.589 234.89Z"
            fill="#DAC2FB" />
        <path
            d="M179.447 224.404C180.976 226.121 181.797 228.353 181.744 230.652C181.692 232.95 180.77 235.142 179.165 236.787C177.559 238.432 175.389 239.407 173.093 239.515C170.797 239.622 168.545 238.855 166.792 237.368L166.113 236.789L167.009 236.759C168.608 236.715 170.161 236.214 171.485 235.316C172.809 234.418 173.849 233.16 174.481 231.69C175.114 230.22 175.313 228.601 175.055 227.021C174.797 225.442 174.093 223.97 173.025 222.777C172.773 222.5 172.503 222.239 172.216 221.996L171.534 221.415L172.433 221.387C173.751 221.35 175.061 221.601 176.272 222.122C177.484 222.643 178.567 223.422 179.447 224.404ZM167.927 237.373C168.99 238.101 170.205 238.575 171.48 238.758C172.755 238.942 174.055 238.829 175.279 238.429C176.503 238.029 177.619 237.353 178.539 236.453C179.46 235.553 180.162 234.453 180.589 233.238C181.016 232.023 181.159 230.726 181.004 229.447C180.85 228.169 180.404 226.943 179.7 225.864C178.996 224.786 178.053 223.883 176.945 223.228C175.837 222.572 174.592 222.18 173.308 222.082L173.521 222.32C174.622 223.553 175.365 225.062 175.672 226.685C175.978 228.309 175.836 229.985 175.261 231.533C174.685 233.082 173.698 234.444 172.406 235.473C171.114 236.502 169.565 237.159 167.927 237.373Z"
            fill="#DAC2FB" />
        <path
            d="M179.447 224.404C180.644 225.743 181.418 227.407 181.669 229.186C181.921 230.964 181.64 232.777 180.861 234.396C180.083 236.014 178.842 237.365 177.295 238.278C175.748 239.191 173.966 239.625 172.172 239.524C170.379 239.424 168.656 238.794 167.22 237.715C165.785 236.635 164.701 235.154 164.107 233.459C163.514 231.763 163.436 229.93 163.884 228.191C164.331 226.452 165.285 224.884 166.624 223.687C168.42 222.084 170.779 221.26 173.183 221.394C175.587 221.529 177.84 222.611 179.447 224.404ZM166.422 236.051C167.529 237.289 168.977 238.171 170.585 238.585C172.192 238.999 173.887 238.927 175.453 238.379C177.02 237.83 178.388 236.829 179.386 235.503C180.384 234.176 180.965 232.583 181.058 230.926C181.15 229.269 180.749 227.621 179.905 226.191C179.061 224.762 177.812 223.614 176.316 222.894C174.82 222.175 173.145 221.914 171.501 222.147C169.858 222.379 168.32 223.094 167.083 224.2C165.426 225.685 164.426 227.767 164.302 229.989C164.178 232.21 164.941 234.391 166.422 236.051Z"
            fill="black" />
    </g>
    <g clip-path="url(#clip1_932_28974)">
        <path d="M128.861 72.4443L126.308 81.2257H131.157L128.861 72.4443Z" fill="#FC774B" />
        <path
            d="M131.157 81.4256H126.306C126.245 81.4256 126.185 81.3957 126.147 81.3458C126.109 81.2959 126.098 81.23 126.115 81.1702L128.67 72.3888C128.694 72.303 128.773 72.2451 128.861 72.2451H128.863C128.952 72.2451 129.03 72.307 129.052 72.3948L131.35 81.1761C131.366 81.236 131.352 81.2999 131.314 81.3478C131.276 81.3977 131.218 81.4256 131.157 81.4256ZM126.573 81.0265H130.9L128.851 73.1911L126.573 81.0265Z"
            fill="#FC774B" />
        <path d="M128.861 101.634L126.308 92.8525H131.157L128.861 101.634Z" fill="#FC774B" />
        <path
            d="M128.861 101.834C128.773 101.834 128.694 101.776 128.67 101.69L126.117 92.9088C126.1 92.8489 126.111 92.783 126.149 92.7332C126.187 92.6833 126.245 92.6533 126.308 92.6533H131.159C131.22 92.6533 131.278 92.6813 131.316 92.7312C131.354 92.781 131.366 92.8429 131.352 92.9028L129.054 101.684C129.032 101.77 128.954 101.832 128.865 101.834H128.863H128.861ZM126.573 93.0525L128.851 100.888L130.9 93.0525H126.573Z"
            fill="#FC774B" />
        <path d="M143.328 87.2694L135.963 85.2656V89.1833L143.328 87.2694Z" fill="#FC774B" />
        <path
            d="M135.963 89.3831C135.919 89.3831 135.876 89.3692 135.842 89.3412C135.792 89.3033 135.764 89.2454 135.764 89.1835V85.2659C135.764 85.204 135.794 85.1441 135.842 85.1082C135.892 85.0703 135.955 85.0583 136.015 85.0743L143.38 87.078C143.467 87.102 143.527 87.1818 143.527 87.2716C143.527 87.3614 143.465 87.4412 143.378 87.4632L136.013 89.3771C135.997 89.3811 135.979 89.3831 135.963 89.3831ZM136.162 85.5253V88.9241L142.552 87.2636L136.162 85.5253Z"
            fill="#FC774B" />
        <path d="M114.137 87.2688L121.502 89.1408V85.1992L114.137 87.2688Z" fill="#FC774B" />
        <path
            d="M121.502 89.3406C121.486 89.3406 121.47 89.3406 121.452 89.3346L114.087 87.4626C114 87.4406 113.938 87.3628 113.938 87.271C113.938 87.1811 113.996 87.1013 114.083 87.0754L121.448 85.0078C121.508 84.9898 121.572 85.0038 121.621 85.0417C121.671 85.0796 121.701 85.1375 121.701 85.2014V89.143C121.701 89.2049 121.673 89.2627 121.623 89.3006C121.587 89.3286 121.546 89.3426 121.502 89.3426V89.3406ZM114.909 87.259L121.303 88.8855V85.4628L114.909 87.259Z"
            fill="#FC774B" />
    </g>
    <g clip-path="url(#clip2_932_28974)">
        <path
            d="M334.063 377.211C333.917 377.211 333.797 377.09 333.797 376.941C333.797 367.014 330.861 360.855 328.399 357.437C325.733 353.737 323.031 352.361 323.005 352.348C322.871 352.283 322.818 352.12 322.882 351.985C322.946 351.85 323.106 351.795 323.239 351.86C323.354 351.917 326.066 353.293 328.807 357.088C331.327 360.573 334.33 366.846 334.33 376.941C334.33 377.09 334.21 377.211 334.063 377.211Z"
            fill="#B27AFF" />
        <path
            d="M323.122 352.375C323.023 352.375 322.93 352.319 322.882 352.224C322.818 352.088 322.871 351.929 323.005 351.861C323.031 351.847 325.733 350.471 328.399 346.772C330.861 343.356 333.797 337.197 333.797 327.271C333.797 327.122 333.917 327 334.063 327C334.21 327 334.33 327.122 334.33 327.271C334.33 337.365 331.327 343.638 328.807 347.124C326.066 350.916 323.354 352.291 323.239 352.348C323.202 352.367 323.162 352.375 323.122 352.375Z"
            fill="#B27AFF" />
        <path
            d="M334.063 377.211C333.917 377.211 333.797 377.09 333.797 376.941C333.797 366.846 336.799 360.573 339.319 357.088C342.061 353.293 344.773 351.917 344.887 351.86C345.018 351.795 345.178 351.85 345.245 351.985C345.309 352.12 345.255 352.28 345.122 352.348C345.095 352.361 342.394 353.737 339.727 357.437C337.266 360.855 334.33 367.014 334.33 376.941C334.33 377.09 334.21 377.211 334.063 377.211Z"
            fill="#B27AFF" />
        <path
            d="M345.005 352.375C344.965 352.375 344.925 352.367 344.887 352.348C344.773 352.291 342.061 350.915 339.319 347.121C336.799 343.635 333.797 337.362 333.797 327.268C333.797 327.119 333.917 326.997 334.063 326.997C334.21 326.997 334.33 327.119 334.33 327.268C334.33 346.276 345.013 351.806 345.122 351.858C345.255 351.923 345.309 352.085 345.245 352.221C345.199 352.316 345.103 352.373 345.005 352.373V352.375Z"
            fill="#B27AFF" />
    </g>
    <g clip-path="url(#clip3_932_28974)">
        <path
            d="M313.957 62.203H306.089C305.96 62.203 305.849 62.1113 305.825 61.9846C305.8 61.8579 305.868 61.7311 305.987 61.6826C316.262 57.4629 317.197 46.6021 317.205 46.4942C317.216 46.3486 317.338 46.2327 317.484 46.2462C317.63 46.2516 317.743 46.3702 317.743 46.5158V56.085C317.743 56.2333 317.621 56.3547 317.473 56.3547C317.324 56.3547 317.203 56.2333 317.203 56.085V49.2984C316.27 52.7281 313.789 58.5063 307.346 61.6637H313.954C314.103 61.6637 314.224 61.7851 314.224 61.9334C314.224 62.0817 314.103 62.203 313.954 62.203H313.957Z"
            fill="#B27AFF" />
        <path
            d="M317.475 77.6255C317.475 77.6255 317.467 77.6255 317.465 77.6255C317.319 77.6201 317.205 77.5015 317.205 77.3559V67.7867C317.205 67.6384 317.327 67.517 317.475 67.517C317.624 67.517 317.746 67.6384 317.746 67.7867V74.5706C318.678 71.1409 321.159 65.3627 327.605 62.2053H320.997C320.848 62.2053 320.727 62.0839 320.727 61.9356C320.727 61.7873 320.848 61.666 320.997 61.666H328.864C328.994 61.666 329.105 61.7577 329.129 61.8844C329.153 62.0111 329.086 62.1379 328.967 62.1864C318.692 66.4088 317.757 77.2696 317.748 77.3775C317.738 77.5177 317.619 77.6255 317.478 77.6255H317.475Z"
            fill="#B27AFF" />
    </g>
    <g clip-path="url(#clip4_932_28974)">
        <path
            d="M235.648 34.5205L231.023 42.7395L235.294 50.4718L227.882 45.9448L219.974 50.7918L224.774 42.7185L220.283 34.8885L227.549 39.1317L235.648 34.5205Z"
            fill="#DAC2FB" />
        <path
            d="M219.974 50.9424C219.937 50.9424 219.899 50.9274 219.872 50.8973C219.825 50.8478 219.817 50.7727 219.851 50.7126L224.604 42.7159L220.158 34.9655C220.125 34.907 220.134 34.8319 220.178 34.7838C220.223 34.7357 220.296 34.7237 220.353 34.7583L227.55 38.9609L235.58 34.3888C235.638 34.3557 235.708 34.3677 235.754 34.4158C235.799 34.4639 235.808 34.5375 235.776 34.596L231.192 42.7399L235.421 50.3972C235.455 50.4557 235.444 50.5308 235.398 50.5789C235.352 50.627 235.279 50.636 235.223 50.6014L227.884 46.1194L220.05 50.9214C220.026 50.9349 220.002 50.9424 219.976 50.9424H219.974ZM220.683 35.296L224.897 42.6423C224.924 42.6904 224.924 42.7504 224.897 42.7985L220.404 50.3551L227.808 45.8175C227.853 45.7905 227.909 45.789 227.955 45.8175L234.897 50.0577L230.898 42.8165C230.872 42.77 230.872 42.7129 230.898 42.6663L235.261 34.916L227.618 39.2673C227.575 39.2928 227.521 39.2913 227.478 39.2673L220.683 35.296Z"
            fill="#DAC2FB" />
        <path
            d="M227.812 31.1504L230.139 40.3577L238.426 42.6903L230.101 44.9298L227.812 54.1612L225.705 44.9298L217.196 42.6903L225.225 40.3577L227.812 31.1504Z"
            fill="#DAC2FB" />
        <path
            d="M227.812 54.3127C227.746 54.3127 227.688 54.2646 227.673 54.197L225.588 45.0543L217.16 42.8358C217.097 42.8193 217.052 42.7607 217.052 42.6916C217.052 42.624 217.094 42.564 217.157 42.5444L225.109 40.2343L227.673 31.1081C227.691 31.0436 227.749 31 227.812 31H227.814C227.879 31 227.935 31.0466 227.951 31.1127L230.257 40.2358L238.464 42.5459C238.528 42.564 238.571 42.624 238.571 42.6916C238.571 42.7592 238.526 42.8193 238.463 42.8358L230.221 45.0528L227.953 54.1985C227.937 54.2646 227.879 54.3112 227.812 54.3112V54.3127ZM217.758 42.6826L225.742 44.7839C225.794 44.7974 225.834 44.841 225.847 44.8951L227.818 53.5361L229.962 44.8936C229.975 44.841 230.016 44.7989 230.066 44.7854L237.862 42.6886L230.101 40.5032C230.05 40.4897 230.013 40.4491 229.998 40.3966L227.803 31.7135L225.364 40.3996C225.35 40.4491 225.312 40.4882 225.264 40.5017L217.758 42.6826Z"
            fill="#DAC2FB" />
    </g>
    <g clip-path="url(#clip5_932_28974)">
        <path d="M228.357 356.632L226.423 363.284H230.096L228.357 356.632Z" fill="#FFB197" />
        <path
            d="M230.096 363.435H226.422C226.375 363.435 226.33 363.413 226.301 363.375C226.273 363.337 226.263 363.287 226.277 363.242L228.212 356.589C228.23 356.524 228.291 356.48 228.357 356.48H228.358C228.426 356.48 228.485 356.527 228.502 356.594L230.242 363.246C230.254 363.292 230.244 363.34 230.215 363.376C230.187 363.414 230.143 363.435 230.096 363.435ZM226.624 363.133H229.902L228.349 357.197L226.624 363.133Z"
            fill="#FFB197" />
        <path d="M228.357 378.745L226.423 372.093H230.096L228.357 378.745Z" fill="#FFB197" />
        <path
            d="M228.357 378.896C228.291 378.896 228.23 378.852 228.212 378.787L226.279 372.135C226.265 372.09 226.274 372.04 226.303 372.002C226.331 371.964 226.375 371.941 226.423 371.941H230.098C230.145 371.941 230.188 371.963 230.217 372C230.246 372.038 230.255 372.085 230.244 372.13L228.503 378.783C228.487 378.848 228.428 378.895 228.36 378.896H228.359H228.357ZM226.624 372.244L228.349 378.18L229.902 372.244H226.624Z"
            fill="#FFB197" />
        <path d="M239.317 367.863L233.738 366.345V369.313L239.317 367.863Z" fill="#FFB197" />
        <path
            d="M233.738 369.464C233.704 369.464 233.671 369.453 233.646 369.432C233.608 369.403 233.587 369.36 233.587 369.313V366.345C233.587 366.298 233.609 366.252 233.646 366.225C233.683 366.197 233.731 366.187 233.777 366.2L239.356 367.718C239.423 367.736 239.468 367.796 239.468 367.864C239.468 367.932 239.421 367.993 239.355 368.009L233.775 369.459C233.763 369.462 233.75 369.464 233.738 369.464ZM233.888 366.541V369.116L238.729 367.858L233.888 366.541Z"
            fill="#FFB197" />
        <path d="M217.203 367.863L222.782 369.281V366.295L217.203 367.863Z" fill="#FFB197" />
        <path
            d="M222.782 369.432C222.77 369.432 222.758 369.432 222.744 369.427L217.165 368.009C217.098 367.992 217.052 367.934 217.052 367.864C217.052 367.796 217.095 367.735 217.162 367.716L222.741 366.149C222.787 366.136 222.835 366.146 222.872 366.175C222.91 366.204 222.933 366.248 222.933 366.296V369.282C222.933 369.329 222.912 369.373 222.874 369.402C222.847 369.423 222.815 369.433 222.782 369.433V369.432ZM217.787 367.855L222.631 369.087V366.494L217.787 367.855Z"
            fill="#FFB197" />
    </g>
    <g clip-path="url(#clip6_932_28974)">
        <path
            d="M317.01 260.521L312.384 268.739L316.655 276.472L309.243 271.945L301.336 276.792L306.135 268.718L301.644 260.888L308.91 265.132L317.01 260.521Z"
            fill="#DAC2FB" />
        <path
            d="M301.336 276.942C301.298 276.942 301.26 276.927 301.233 276.897C301.187 276.848 301.178 276.773 301.213 276.713L305.966 268.716L301.519 260.966C301.486 260.907 301.495 260.832 301.54 260.784C301.585 260.736 301.657 260.724 301.715 260.758L308.912 264.961L316.942 260.389C317 260.356 317.069 260.368 317.115 260.416C317.16 260.464 317.169 260.537 317.137 260.596L312.553 268.74L316.783 276.397C316.816 276.456 316.806 276.531 316.759 276.579C316.713 276.627 316.641 276.636 316.584 276.601L309.246 272.119L301.411 276.921C301.388 276.935 301.363 276.942 301.337 276.942H301.336ZM302.045 261.296L306.258 268.642C306.285 268.69 306.285 268.75 306.258 268.799L301.765 276.355L309.169 271.818C309.214 271.791 309.27 271.789 309.317 271.818L316.259 276.058L312.26 268.817C312.234 268.77 312.234 268.713 312.26 268.666L316.622 260.916L308.98 265.267C308.936 265.293 308.883 265.291 308.839 265.267L302.045 261.296Z"
            fill="#DAC2FB" />
        <path
            d="M309.173 257.15L311.5 266.358L319.788 268.69L311.462 270.93L309.173 280.161L307.067 270.93L298.558 268.69L306.586 266.358L309.173 257.15Z"
            fill="#DAC2FB" />
        <path
            d="M309.174 280.313C309.107 280.313 309.049 280.265 309.035 280.197L306.95 271.054L298.522 268.836C298.458 268.819 298.413 268.761 298.413 268.692C298.413 268.624 298.455 268.564 298.519 268.544L306.471 266.234L309.035 257.108C309.052 257.044 309.11 257 309.174 257H309.175C309.24 257 309.296 257.047 309.312 257.113L311.619 266.236L319.825 268.546C319.889 268.564 319.932 268.624 319.932 268.692C319.932 268.759 319.888 268.819 319.824 268.836L311.583 271.053L309.314 280.199C309.298 280.265 309.24 280.311 309.174 280.311V280.313ZM299.119 268.683L307.103 270.784C307.155 270.797 307.196 270.841 307.209 270.895L309.179 279.536L311.324 270.894C311.337 270.841 311.377 270.799 311.428 270.785L319.224 268.689L311.462 266.503C311.412 266.49 311.374 266.449 311.36 266.397L309.165 257.713L306.725 266.4C306.711 266.449 306.673 266.488 306.626 266.502L299.119 268.683Z"
            fill="#DAC2FB" />
    </g>
    <g clip-path="url(#clip7_932_28974)">
        <path
            d="M339.283 185.041L339.049 184.423C339.033 184.377 337.287 179.835 332.829 175.354C328.722 171.225 321.401 166.302 309.85 166.302H309.413L309.615 165.907C317.579 150.373 313.094 141.813 310.414 136.698C310.124 136.144 309.85 135.62 309.613 135.131L309.424 134.742H309.85C321.414 134.742 328.738 129.811 332.845 125.674C337.298 121.191 339.033 116.664 339.049 116.618L339.281 116L339.541 116.608C344.031 127.1 351.042 131.615 356.133 133.554C361.645 135.655 366.138 135.274 366.183 135.269L366.795 135.212L366.418 135.704C366.388 135.742 363.527 139.498 362.111 145.01C360.81 150.079 360.498 157.719 366.418 165.335L366.801 165.826L366.186 165.77C366.141 165.764 361.627 165.389 356.112 167.495C351.029 169.437 344.029 173.953 339.544 184.434L339.283 185.041ZM310.286 165.764C321.781 165.886 329.095 170.831 333.22 174.987C336.813 178.606 338.674 182.268 339.299 183.653C343.872 173.391 350.85 168.924 355.944 166.982C360.402 165.284 364.227 165.176 365.646 165.208C359.953 157.565 360.288 149.947 361.6 144.856C362.758 140.362 364.861 137.014 365.667 135.833C364.27 135.866 360.426 135.766 355.944 134.059C350.85 132.117 343.872 127.65 339.299 117.388C338.674 118.774 336.813 122.436 333.22 126.054C329.092 130.211 321.776 135.158 310.281 135.277C310.467 135.647 310.669 136.036 310.882 136.441C313.589 141.607 318.103 150.222 310.286 165.762V165.764Z"
            fill="#979797" />
    </g>
    <g clip-path="url(#clip8_932_28974)">
        <path
            d="M187.413 322.81C191.721 322.81 193.035 326.449 193.035 326.449C194.709 322.375 198.173 322.705 198.173 322.705C195.959 319.736 198.173 316.744 198.173 316.744C198.173 316.744 194.709 317.074 193.035 313C193.035 313 191.721 316.639 187.413 316.639C187.88 317.645 189.108 319.364 187.413 322.81Z"
            fill="#DAC2FB" />
    </g>
    <g clip-path="url(#clip9_932_28974)">
        <path d="M68.024 234.125L63.3274 232.697V235.489L68.024 234.125Z" fill="#E8E8E8" />
        <path
            d="M63.3274 235.675C63.2885 235.675 63.2477 235.662 63.2162 235.638C63.1699 235.603 63.1421 235.547 63.1421 235.489V232.697C63.1421 232.638 63.1699 232.584 63.2162 232.548C63.2625 232.513 63.3237 232.502 63.3811 232.521L68.0777 233.948C68.1555 233.972 68.2092 234.045 68.2092 234.127C68.2092 234.208 68.1537 234.281 68.0758 234.305L63.3792 235.669C63.3626 235.675 63.344 235.677 63.3274 235.677V235.675ZM63.5126 232.948V235.242L67.3718 234.121L63.5126 232.948Z"
            fill="#E8E8E8" />
        <path d="M44.1852 234.125L49.1301 235.531V232.575L44.1852 234.125Z" fill="#E8E8E8" />
        <path
            d="M49.1301 235.716C49.1134 235.716 49.0967 235.715 49.08 235.709L44.1352 234.304C44.0555 234.281 44.0018 234.209 43.9999 234.127C43.9981 234.045 44.0518 233.971 44.1296 233.947L49.0745 232.397C49.1301 232.378 49.1912 232.389 49.2394 232.424C49.2875 232.46 49.3153 232.516 49.3153 232.575V235.531C49.3153 235.588 49.2875 235.644 49.2412 235.679C49.2079 235.703 49.169 235.716 49.1301 235.716ZM44.8355 234.116L48.9448 235.283V232.826L44.8355 234.116Z"
            fill="#E8E8E8" />
        <path
            d="M58.4436 231.709L58.0212 229.902L56.2111 222.171L54.2009 229.902L53.7304 231.709L50.9717 232.575V235.53L54.1917 236.445L54.4362 237.61L56.2111 246.008L58.1398 237.61L58.4084 236.445L61.697 235.489V232.697L58.4436 231.709Z"
            fill="#E8E8E8" />
        <path
            d="M56.2111 246.194C56.124 246.194 56.0499 246.133 56.0314 246.047L54.0341 236.593L50.9235 235.708C50.8438 235.686 50.7882 235.614 50.7882 235.53V232.574C50.7882 232.493 50.8401 232.422 50.9179 232.398L53.5784 231.563L56.0314 222.124C56.0536 222.042 56.1296 221.979 56.2129 221.985C56.2982 221.985 56.3723 222.044 56.3908 222.128L58.5992 231.561L61.7507 232.519C61.8285 232.543 61.8822 232.615 61.8822 232.697V235.489C61.8822 235.573 61.8285 235.645 61.7488 235.668L58.564 236.593L56.3908 246.049C56.3723 246.133 56.2963 246.194 56.2111 246.194ZM51.1569 235.391L54.2417 236.266C54.3083 236.285 54.3584 236.339 54.3732 236.405L56.2203 245.146L58.2287 236.402C58.2435 236.337 58.2935 236.285 58.3584 236.264L61.5135 235.348V232.835L58.3899 231.885C58.3269 231.866 58.2787 231.814 58.2639 231.749L56.2018 222.942L53.91 231.753C53.8933 231.814 53.847 231.864 53.7859 231.883L51.1569 232.708V235.387V235.391Z"
            fill="#E8E8E8" />
    </g>
    <path
        d="M120.717 266.221H87.3751C86.4419 266.221 85.6854 266.977 85.6854 267.91V330.313C85.6854 331.246 86.4419 332.003 87.3751 332.003H120.717C121.651 332.003 122.407 331.246 122.407 330.313V267.91C122.407 266.977 121.651 266.221 120.717 266.221Z"
        fill="#F7F7F7" />
    <path
        d="M120.717 332.223H87.375C86.3228 332.223 85.4647 331.368 85.4647 330.313V267.91C85.4647 266.858 86.3206 266 87.375 266H120.717C121.769 266 122.628 266.856 122.628 267.91V330.313C122.628 331.365 121.772 332.223 120.717 332.223ZM87.375 266.441C86.5655 266.441 85.9059 267.101 85.9059 267.91V330.313C85.9059 331.123 86.5655 331.782 87.375 331.782H120.717C121.527 331.782 122.186 331.123 122.186 330.313V267.91C122.186 267.101 121.527 266.441 120.717 266.441H87.375Z"
        fill="#0F0B15" />
    <path
        d="M85.1912 321.372L84.8295 321.12L106.024 290.449L86.1243 266.656L86.464 266.374L106.577 290.425L85.1912 321.372Z"
        fill="#0F0B15" />
    <path
        d="M136.058 300.358L114.807 285.681C114.324 285.348 113.662 285.469 113.328 285.952L89.0856 321.054C88.7519 321.537 88.8731 322.2 89.3563 322.533L110.607 337.21C111.091 337.544 111.753 337.423 112.087 336.939L136.329 301.837C136.663 301.354 136.542 300.692 136.058 300.358Z"
        fill="#0F0B15" />
    <path
        d="M111.21 337.619C110.958 337.619 110.705 337.546 110.482 337.392L89.2303 322.714C88.9479 322.52 88.7582 322.226 88.6964 321.889C88.6347 321.551 88.7075 321.212 88.9038 320.929L113.147 285.827C113.548 285.244 114.349 285.096 114.931 285.5L136.183 300.178C136.765 300.58 136.911 301.38 136.509 301.963L112.267 337.065C112.017 337.425 111.616 337.619 111.208 337.619H111.21ZM114.203 285.714C113.936 285.714 113.672 285.842 113.508 286.078L89.2656 321.181C89.1376 321.366 89.0891 321.589 89.131 321.812C89.1729 322.034 89.2965 322.224 89.4817 322.352L110.733 337.03C111.115 337.295 111.64 337.198 111.905 336.816L136.148 301.714C136.412 301.332 136.315 300.807 135.934 300.542L114.682 285.864C114.536 285.763 114.369 285.716 114.206 285.716L114.203 285.714Z"
        fill="#F7F7F7" />
    <path
        d="M133.294 300.708L115.457 288.389C114.974 288.056 114.312 288.177 113.978 288.66L92.032 320.437C91.6983 320.92 91.8195 321.582 92.3027 321.916L110.14 334.235C110.623 334.569 111.285 334.447 111.619 333.964L133.565 302.187C133.899 301.704 133.777 301.042 133.294 300.708Z"
        fill="#F7F7F7" />
    <path
        d="M99.6222 325.846H77.9448C77.3581 325.846 76.8816 325.369 76.8816 324.783V295.279L65.9734 285.293L76.2286 285.18C76.2286 285.18 81.3816 285.101 81.9684 285.101H99.6222C100.209 285.101 100.685 285.577 100.685 286.164V324.785C100.685 325.372 100.209 325.848 99.6222 325.848V325.846Z"
        fill="#0F0B15" />
    <path
        d="M99.6222 326.066H77.9448C77.2367 326.066 76.661 325.491 76.661 324.782V295.376L65.4131 285.078L76.2286 284.959C76.2794 284.959 81.3882 284.88 81.9706 284.88H99.6244C100.333 284.88 100.908 285.456 100.908 286.164V324.785C100.908 325.493 100.333 326.068 99.6244 326.068L99.6222 326.066ZM66.5337 285.506L77.1022 295.181V324.782C77.1022 325.246 77.4794 325.625 77.9448 325.625H99.6222C100.085 325.625 100.465 325.248 100.465 324.782V286.164C100.465 285.7 100.088 285.321 99.6222 285.321H81.9684C81.3904 285.321 76.2838 285.398 76.233 285.4L66.5337 285.506Z"
        fill="#272830" />
    <path
        d="M94.7736 323.622L94.4119 323.37C101.475 313.239 111.77 307.715 119.162 304.867C127.167 301.783 133.593 301.082 133.657 301.075L133.703 301.514C133.639 301.521 127.26 302.218 119.308 305.282C111.977 308.108 101.769 313.583 94.7736 323.62V323.622Z"
        fill="#0F0B15" />
    <path d="M82.9412 290.627H82.5V322.317H82.9412V290.627Z" fill="#F7F7F7" />
    <path d="M88.3434 290.627H87.9022V322.317H88.3434V290.627Z" fill="#F7F7F7" />
    <path d="M93.9044 290.627H93.4633V322.317H93.9044V290.627Z" fill="#F7F7F7" />
    <path d="M143.696 320.682L129.841 312.179V321.98L143.696 320.682Z" fill="#F7F7F7" />
    <path
        d="M129.62 322.219V311.783L144.376 320.841L129.62 322.219ZM130.062 312.571V321.734L143.017 320.523L130.062 312.571Z"
        fill="#0F0B15" />
    <path d="M88.7847 319.949L74.9294 311.445V321.246L88.7847 319.949Z" fill="#F7F7F7" />
    <path
        d="M74.7089 321.486V311.05L89.4641 320.107L74.7089 321.486ZM75.15 311.837V321.001L88.1053 319.79L75.15 311.837Z"
        fill="#0F0B15" />
    <path
        d="M102.245 338.084C114.251 338.084 123.984 328.351 123.984 316.345C123.984 304.338 114.251 294.605 102.245 294.605C90.2388 294.605 80.5059 304.338 80.5059 316.345C80.5059 328.351 90.2388 338.084 102.245 338.084Z"
        fill="#FC774B" />
    <path d="M74.9293 320.685H143.696L201.482 355.661V374.584H74.2521L74.9293 320.685Z"
        fill="#F7F7F7" />
    <path
        d="M201.703 374.804H74.0293L74.7109 320.464H143.758L143.811 320.495L201.703 355.536V374.804ZM74.4771 374.363H201.261V355.785L143.634 320.905H75.1477L74.4771 374.363Z"
        fill="#0F0B15" />
    <path d="M201.482 366.814H74.3536V367.256H201.482V366.814Z" fill="#0F0B15" />
    <path
        d="M101.967 355.799C107.847 355.799 112.613 351.033 112.613 345.153C112.613 339.274 107.847 334.508 101.967 334.508C96.0876 334.508 91.3214 339.274 91.3214 345.153C91.3214 351.033 96.0876 355.799 101.967 355.799Z"
        fill="#B27AFF" />
    <path d="M176.278 340.36L165.04 354.046L165.381 354.326L176.619 340.64L176.278 340.36Z"
        fill="#0F0B15" />
    <path d="M159.995 330.53L148.757 344.216L149.098 344.496L160.336 330.81L159.995 330.53Z"
        fill="#0F0B15" />
    <path d="M143.829 320.537L132.591 334.224L132.932 334.504L144.17 320.817L143.829 320.537Z"
        fill="#0F0B15" />
    <path
        d="M94.0214 303.843C94.8925 303.843 95.5987 303.137 95.5987 302.266C95.5987 301.395 94.8925 300.688 94.0214 300.688C93.1504 300.688 92.4442 301.395 92.4442 302.266C92.4442 303.137 93.1504 303.843 94.0214 303.843Z"
        fill="#272830" />
    <path
        d="M109.622 304.125C110.493 304.125 111.199 303.419 111.199 302.548C111.199 301.677 110.493 300.971 109.622 300.971C108.75 300.971 108.044 301.677 108.044 302.548C108.044 303.419 108.75 304.125 109.622 304.125Z"
        fill="#272830" />
    <path
        d="M101.749 315.108C101.724 315.108 101.7 315.108 101.676 315.108C92.9163 315.068 91.6016 308.344 91.5906 308.276L92.0251 308.197C92.0737 308.459 93.2957 314.629 101.68 314.667C101.705 314.667 101.729 314.667 101.753 314.667C110.087 314.667 111.845 308.311 111.918 308.04L112.346 308.15C112.328 308.221 110.438 315.108 101.753 315.108H101.749Z"
        fill="#272830" />
    <defs>
        <clipPath id="clip0_932_28974">
            <rect width="141.446" height="69.657" fill="white"
                transform="translate(156.699 268.651) rotate(-131.804)" />
        </clipPath>
        <clipPath id="clip1_932_28974">
            <rect width="29.5892" height="29.5892" fill="white"
                transform="translate(113.938 72.2451)" />
        </clipPath>
        <clipPath id="clip2_932_28974">
            <rect width="22.416" height="50.2119" fill="white" transform="translate(322.855 327)" />
        </clipPath>
        <clipPath id="clip3_932_28974">
            <rect width="23.3127" height="31.3824" fill="white"
                transform="translate(305.819 46.2432)" />
        </clipPath>
        <clipPath id="clip4_932_28974">
            <rect width="21.5194" height="23.3127" fill="white" transform="translate(217.052 31)" />
        </clipPath>
        <clipPath id="clip5_932_28974">
            <rect width="22.416" height="22.416" fill="white" transform="translate(217.052 356.48)" />
        </clipPath>
        <clipPath id="clip6_932_28974">
            <rect width="21.5194" height="23.3127" fill="white" transform="translate(298.413 257)" />
        </clipPath>
        <clipPath id="clip7_932_28974">
            <rect width="57.385" height="69.0414" fill="white" transform="translate(309.413 116)" />
        </clipPath>
        <clipPath id="clip8_932_28974">
            <rect width="10.7597" height="13.4496" fill="white" transform="translate(187.413 313)" />
        </clipPath>
        <clipPath id="clip9_932_28974">
            <rect width="24.2093" height="24.2093" fill="white" transform="translate(44 221.984)" />
        </clipPath>
    </defs>
</svg>
    