<svg width="410" height="410" viewBox="0 0 410 410" fill="none" xmlns="http://www.w3.org/2000/svg">
    <path d="M245.601 155.112L193.895 145.192L193.677 146.325L245.383 156.244L245.601 155.112Z"
        fill="white" />
    <path
        d="M226.615 288.785L214.985 270.806L164.163 261.056C158.536 259.969 153.57 256.695 150.355 251.951C147.139 247.207 145.936 241.382 147.01 235.753L157.377 181.713L144.732 162.171L170.806 146.94C171.406 146.547 172.026 146.186 172.664 145.857L173.711 145.236L173.69 145.344C177.743 143.484 182.276 142.941 186.653 143.791L186.436 144.924C181.961 144.055 177.325 144.724 173.278 146.821L173.166 146.881C172.518 147.198 171.963 147.549 171.406 147.912L146.371 162.562L158.596 181.478L148.143 235.97C147.126 241.3 148.266 246.815 151.311 251.306C154.356 255.797 159.058 258.897 164.386 259.925L215.69 269.767L227.017 287.242L252.355 272.421L253.18 271.945C255.74 270.478 257.953 268.474 259.667 266.071C261.381 263.669 262.554 260.924 263.108 258.025L277.455 183.235C278.472 177.905 277.332 172.39 274.287 167.899C271.242 163.408 266.54 160.309 261.212 159.28L257.135 158.498L257.352 157.366L261.429 158.148C267.057 159.234 272.025 162.508 275.242 167.252C278.458 171.996 279.662 177.822 278.588 183.453L264.24 258.242C263.675 261.153 262.515 263.916 260.834 266.358C259.153 268.801 256.987 270.871 254.471 272.439L253.662 272.918L226.615 288.785Z"
        fill="white" />
    <path
        d="M234.888 174.193L160.098 159.845C148.685 157.656 137.658 165.133 135.469 176.546L121.121 251.336C118.931 262.749 126.409 273.776 137.822 275.966L212.611 290.313C224.025 292.503 235.052 285.026 237.241 273.613L251.589 198.823C253.779 187.41 246.301 176.383 234.888 174.193Z"
        fill="white" />
    <path
        d="M212.503 290.881L137.713 276.533C132.086 275.446 127.119 272.171 123.903 267.428C120.686 262.684 119.482 256.859 120.554 251.228L134.902 176.439C135.989 170.812 139.264 165.845 144.007 162.629C148.751 159.412 154.577 158.208 160.207 159.28L234.996 173.628C240.619 174.72 245.579 177.996 248.791 182.738C252.002 187.481 253.204 193.302 252.132 198.928L237.785 273.718C236.698 279.341 233.427 284.305 228.689 287.522C223.95 290.739 218.13 291.947 212.503 290.881ZM159.985 160.435C154.659 159.42 149.148 160.557 144.659 163.597C140.169 166.638 137.068 171.334 136.035 176.656L121.687 251.446C120.671 256.776 121.81 262.291 124.855 266.782C127.9 271.273 132.603 274.372 137.93 275.401L212.72 289.748C218.047 290.758 223.557 289.615 228.043 286.569C232.529 283.524 235.625 278.824 236.652 273.501L251 198.711C252.016 193.381 250.877 187.866 247.831 183.375C244.786 178.884 240.084 175.784 234.757 174.756L159.985 160.435Z"
        fill="white" />
    <path
        d="M198.186 219.663C198.546 217.8 198.4 215.875 197.762 214.088C197.124 212.301 196.018 210.719 194.559 209.505C193.101 208.291 191.343 207.492 189.47 207.189C187.597 206.886 185.678 207.092 183.911 207.784C182.145 208.477 180.597 209.631 179.428 211.126C178.26 212.621 177.515 214.402 177.27 216.283C177.025 218.165 177.289 220.078 178.035 221.822C178.782 223.566 179.983 225.078 181.513 226.2L178.272 243.094C178.051 244.262 178.302 245.47 178.969 246.454C179.636 247.438 180.666 248.118 181.833 248.345L181.952 248.368C183.12 248.589 184.328 248.338 185.312 247.671C186.296 247.004 186.976 245.974 187.203 244.807L190.444 227.913C192.383 227.412 194.14 226.371 195.511 224.911C196.882 223.45 197.809 221.63 198.186 219.663Z"
        fill="black" />
    <path
        d="M228.968 88.8992C250.743 93.0766 265.096 114.032 260.967 135.553L255.512 163.988L249.257 167.486L234.464 164.648C235.311 162.103 237.398 158.752 239.766 154.979C244.79 146.97 251.059 136.94 250.077 127.005C249.698 123.163 243.983 118.584 238.962 114.544C236.218 112.35 233.36 110.076 232.838 108.942C231.193 105.55 229.013 103.57 226.334 103.056L226.21 103.032C219.651 101.901 212.911 103.387 207.436 107.17C201.961 110.954 198.188 116.733 196.926 123.267L191.471 151.703L185.216 155.2L170.339 152.346C170.506 151.474 170.678 150.579 170.853 149.667C174.31 131.189 179.046 105.886 196.382 96.8457C196.93 96.5575 197.619 96.1495 198.408 95.6785C203.618 92.6088 214.498 86.1233 228.968 88.8992ZM229.185 87.7665C212.065 84.4821 199.849 93.7705 195.83 95.865C176.726 105.828 172.499 134.84 168.958 153.302L185.381 156.453L192.476 152.465L198.036 123.48C199.245 117.245 202.85 111.733 208.077 108.125C213.303 104.517 219.736 103.102 225.995 104.182L226.097 104.202C228.52 104.667 230.369 106.572 231.764 109.458C233.445 112.94 248.366 121.598 248.925 127.13C250.393 142.038 234.534 157.674 233.015 165.591L249.439 168.742L256.528 164.753L262.088 135.768C266.37 113.449 251.538 92.0547 229.174 87.7643L229.185 87.7665Z"
        fill="white" />
    <path
        d="M249.45 168.743L233.027 165.592L238.501 137.055C241.058 123.729 232.291 110.509 218.921 108.179C212.663 107.099 206.23 108.514 201.003 112.122C195.777 115.729 192.172 121.242 190.963 127.477L185.407 156.439L168.983 153.288L174.437 124.859C178.681 102.738 199.899 87.7251 222.089 91.759C227.412 92.7305 232.49 94.746 237.03 97.6891C241.571 100.632 245.484 104.445 248.544 108.907C251.604 113.37 253.751 118.393 254.861 123.689C255.97 128.985 256.021 134.448 255.01 139.764L249.45 168.743Z"
        fill="#B27AFF" />
    <g clip-path="url(#clip0_932_29052)">
        <path
            d="M70.4592 163.782L110.932 209.041C108.846 215.361 108.905 222.192 111.099 228.475C113.293 234.758 117.5 240.141 123.067 243.789C128.634 247.437 135.248 249.145 141.885 248.648C148.521 248.152 154.807 245.478 159.767 241.043C164.727 236.607 168.084 230.658 169.316 224.118C170.549 217.579 169.588 210.815 166.582 204.877C163.577 198.938 158.696 194.158 152.696 191.278C146.696 188.398 139.914 187.579 133.402 188.948L127.943 182.843C126.535 181.264 124.559 180.307 122.448 180.184L114.687 179.752C114.005 179.714 113.365 179.406 112.91 178.897C112.454 178.387 112.219 177.717 112.257 177.035L112.579 171.301C112.617 170.619 112.382 169.949 111.927 169.439C111.471 168.929 110.831 168.622 110.149 168.583L104.999 168.298C104.661 168.279 104.33 168.194 104.026 168.047C103.721 167.901 103.448 167.695 103.222 167.443C102.997 167.191 102.823 166.897 102.711 166.578C102.6 166.258 102.552 165.92 102.571 165.582L102.875 160.127C102.894 159.789 102.846 159.451 102.734 159.132C102.622 158.813 102.449 158.518 102.223 158.266C101.998 158.014 101.725 157.809 101.42 157.662C101.115 157.516 100.785 157.43 100.447 157.412L95.2489 157.121C94.9111 157.102 94.5804 157.017 94.2756 156.87C93.9708 156.724 93.6978 156.518 93.4723 156.266C93.2468 156.014 93.0732 155.72 92.9614 155.401C92.8496 155.081 92.8018 154.743 92.8208 154.406L93.0696 149.943C93.1487 148.523 78.7528 145.592 77.3254 145.519L71.4391 146.163L70.4592 163.782Z"
            fill="#DAC2FB" />
        <path
            d="M162.385 198.158C167.776 204.201 170.55 212.135 170.099 220.219C169.649 228.303 166.01 235.878 159.981 241.282C147.45 252.488 128.687 251.611 117.241 239.3C113.549 235.315 110.984 230.42 109.809 225.116C108.635 219.813 108.893 214.292 110.558 209.122L70.1206 163.901L71.1328 145.869L77.3388 145.198C78.0741 145.239 82.0521 145.996 85.8294 146.92C93.4479 148.78 93.4077 149.584 93.3716 149.983L93.1253 154.444C93.109 154.739 93.1516 155.034 93.2504 155.312C93.3493 155.59 93.5025 155.846 93.7011 156.064C94.0965 156.51 94.6526 156.781 95.2474 156.817L100.443 157.105C101.212 157.149 101.932 157.495 102.445 158.069C102.958 158.643 103.222 159.397 103.179 160.165L102.876 165.616C102.844 166.212 103.049 166.796 103.447 167.241C103.844 167.686 104.402 167.955 104.998 167.989L110.147 168.28C110.915 168.323 111.635 168.669 112.147 169.242C112.66 169.816 112.924 170.569 112.881 171.337L112.564 177.071C112.531 177.667 112.736 178.251 113.134 178.696C113.532 179.141 114.09 179.41 114.686 179.444L122.465 179.881C123.552 179.939 124.617 180.211 125.599 180.682C126.581 181.153 127.46 181.814 128.185 182.626L133.519 188.591C138.746 187.536 144.159 187.865 149.221 189.542C154.284 191.22 158.821 194.19 162.385 198.158ZM117.349 238.444C117.473 238.582 117.594 238.718 117.718 238.856C128.923 250.898 147.283 251.764 159.547 240.797C164.459 236.411 167.784 230.524 169.005 224.053C170.227 217.582 169.277 210.888 166.302 205.011C163.328 199.135 158.496 194.405 152.558 191.556C146.619 188.708 139.906 187.901 133.463 189.261L133.279 189.299L127.7 183.06C127.031 182.309 126.221 181.697 125.314 181.261C124.408 180.825 123.424 180.573 122.42 180.52L114.657 180.085C113.89 180.041 113.172 179.694 112.659 179.121C112.147 178.548 111.882 177.795 111.923 177.028L112.243 171.292C112.276 170.696 112.071 170.111 111.673 169.667C111.275 169.222 110.717 168.953 110.121 168.919L104.973 168.631C104.205 168.588 103.485 168.241 102.972 167.667C102.459 167.094 102.195 166.34 102.237 165.571L102.541 160.12C102.573 159.525 102.368 158.94 101.97 158.496C101.572 158.051 101.015 157.782 100.419 157.747L95.221 157.456C94.8405 157.436 94.4679 157.341 94.1246 157.175C93.7813 157.01 93.4741 156.779 93.2207 156.494C92.9657 156.21 92.7694 155.879 92.6431 155.519C92.5168 155.159 92.463 154.777 92.4848 154.397L92.7323 149.957C92.1605 148.8 79.28 145.977 77.3278 145.849L71.7614 146.46L70.7799 163.653L111.298 208.963L111.23 209.142C109.59 214.133 109.292 219.468 110.366 224.611C111.44 229.755 113.848 234.525 117.349 238.444Z"
            fill="#DAC2FB" />
        <path
            d="M76.3385 163.14L116.811 208.4C114.725 214.719 114.784 221.55 116.978 227.833C119.173 234.116 123.38 239.5 128.946 243.147C134.513 246.795 141.128 248.503 147.764 248.007C154.4 247.51 160.686 244.837 165.646 240.401C170.606 235.965 173.963 230.016 175.196 223.477C176.428 216.937 175.467 210.173 172.462 204.235C169.456 198.297 164.575 193.517 158.575 190.636C152.576 187.756 145.793 186.937 139.281 188.306L133.824 182.204C133.126 181.422 132.28 180.786 131.335 180.331C130.391 179.876 129.366 179.612 128.32 179.554L120.557 179.119C120.219 179.101 119.889 179.015 119.584 178.869C119.279 178.722 119.006 178.517 118.78 178.265C118.555 178.013 118.381 177.718 118.27 177.399C118.158 177.08 118.11 176.742 118.129 176.404L118.449 170.668C118.487 169.986 118.252 169.316 117.796 168.806C117.34 168.297 116.701 167.989 116.018 167.951L110.871 167.663C110.533 167.645 110.202 167.56 109.897 167.414C109.591 167.267 109.318 167.062 109.092 166.81C108.867 166.557 108.693 166.263 108.582 165.943C108.47 165.624 108.423 165.285 108.443 164.947L108.749 159.494C108.787 158.812 108.553 158.142 108.097 157.632C107.641 157.123 107.002 156.815 106.319 156.777L101.123 156.488C100.441 156.45 99.801 156.142 99.3452 155.633C98.8895 155.123 98.6548 154.453 98.6928 153.771L98.9416 149.308C98.9606 148.97 98.9128 148.632 98.801 148.313C98.6892 147.993 98.5156 147.699 98.2901 147.447C98.0646 147.195 97.7916 146.99 97.4868 146.843C97.182 146.696 96.8513 146.611 96.5135 146.593L77.323 145.521L76.3385 163.14Z"
            fill="black" />
        <path
            d="M168.264 197.516C173.656 203.558 176.431 211.492 175.98 219.577C175.529 227.662 171.89 235.237 165.86 240.64C153.339 251.837 134.557 250.973 123.125 238.653C119.431 234.67 116.865 229.774 115.69 224.47C114.515 219.166 114.775 213.646 116.442 208.476L76.0047 163.255L77.0124 145.179L96.5268 146.27C97.2953 146.314 98.0151 146.66 98.5282 147.234C99.0413 147.808 99.3056 148.562 99.263 149.33L99.0167 153.791C98.9995 154.086 99.0409 154.382 99.1384 154.661C99.2359 154.94 99.3876 155.198 99.5848 155.418C99.782 155.639 100.021 155.818 100.287 155.946C100.554 156.074 100.843 156.148 101.139 156.164L106.334 156.457C107.102 156.5 107.822 156.846 108.334 157.419C108.847 157.993 109.111 158.746 109.068 159.514L108.765 164.965C108.733 165.561 108.938 166.145 109.336 166.59C109.733 167.035 110.291 167.304 110.887 167.338L116.029 167.635C116.796 167.68 117.515 168.027 118.027 168.6C118.539 169.173 118.804 169.925 118.763 170.693L118.443 176.428C118.426 176.724 118.468 177.019 118.565 177.299C118.663 177.578 118.814 177.835 119.011 178.056C119.209 178.276 119.447 178.456 119.714 178.584C119.981 178.712 120.27 178.786 120.565 178.802L128.326 179.238C129.416 179.296 130.484 179.569 131.467 180.042C132.451 180.516 133.331 181.179 134.057 181.995L139.39 187.959C144.618 186.902 150.032 187.227 155.096 188.903C160.16 190.579 164.699 193.548 168.264 197.516ZM123.222 237.794L123.588 238.204C134.792 250.269 153.162 251.121 165.426 240.155C170.333 235.768 173.654 229.883 174.873 223.414C176.093 216.946 175.142 210.255 172.17 204.381C169.197 198.507 164.368 193.779 158.434 190.93C152.499 188.081 145.79 187.271 139.349 188.626L139.164 188.664L133.581 182.42C132.911 181.669 132.098 181.058 131.19 180.622C130.283 180.187 129.297 179.936 128.292 179.884L120.531 179.452C119.763 179.409 119.043 179.062 118.53 178.488C118.017 177.915 117.753 177.161 117.795 176.392L118.129 170.657C118.162 170.061 117.957 169.476 117.559 169.031C117.161 168.587 116.603 168.318 116.007 168.284L110.859 167.996C110.091 167.953 109.371 167.606 108.858 167.032C108.345 166.459 108.08 165.705 108.123 164.936L108.427 159.485C108.459 158.89 108.254 158.305 107.856 157.861C107.458 157.416 106.9 157.147 106.305 157.112L101.108 156.808C100.34 156.763 99.6218 156.416 99.1095 155.843C98.5971 155.27 98.3325 154.518 98.3735 153.75L98.6223 149.287C98.6551 148.691 98.4501 148.107 98.0522 147.662C97.6543 147.217 97.0961 146.948 96.5002 146.914L77.6446 145.871L76.6701 163.022L117.179 208.323L117.121 208.502C115.48 213.493 115.18 218.827 116.252 223.97C117.325 229.113 119.731 233.884 123.23 237.804L123.222 237.794Z"
            fill="white" />
        <path
            d="M154.541 232.269C153.087 233.57 151.218 234.313 149.267 234.364C150.288 235.234 151.505 235.842 152.814 236.137C154.122 236.431 155.483 236.402 156.777 236.053C158.072 235.705 159.262 235.046 160.246 234.134C161.229 233.222 161.975 232.085 162.421 230.82C162.866 229.555 162.997 228.201 162.802 226.874C162.607 225.547 162.092 224.288 161.302 223.204C160.512 222.121 159.469 221.246 158.265 220.655C157.062 220.064 155.732 219.775 154.392 219.813C154.677 220.056 154.946 220.317 155.196 220.595C155.92 221.405 156.477 222.349 156.836 223.374C157.195 224.399 157.348 225.484 157.287 226.568C157.227 227.653 156.953 228.714 156.481 229.692C156.01 230.67 155.351 231.546 154.541 232.269Z"
            fill="#DAC2FB" />
        <path
            d="M161.027 222.35C162.473 223.974 163.25 226.086 163.201 228.26C163.151 230.433 162.279 232.507 160.76 234.063C159.242 235.619 157.189 236.541 155.018 236.643C152.846 236.745 150.716 236.019 149.058 234.613L148.415 234.065L149.263 234.036C150.775 233.994 152.245 233.521 153.497 232.671C154.749 231.822 155.732 230.632 156.331 229.242C156.929 227.852 157.117 226.32 156.873 224.826C156.629 223.332 155.963 221.939 154.954 220.812C154.715 220.549 154.459 220.302 154.188 220.073L153.543 219.523L154.393 219.496C155.64 219.461 156.879 219.698 158.025 220.191C159.171 220.684 160.195 221.421 161.027 222.35ZM150.132 234.617C151.136 235.306 152.286 235.754 153.492 235.928C154.698 236.101 155.927 235.994 157.085 235.616C158.243 235.238 159.298 234.598 160.169 233.747C161.04 232.895 161.703 231.855 162.108 230.706C162.512 229.557 162.646 228.33 162.501 227.121C162.355 225.911 161.933 224.751 161.267 223.731C160.601 222.711 159.709 221.858 158.661 221.237C157.612 220.617 156.435 220.246 155.221 220.154L155.423 220.379C156.464 221.545 157.167 222.972 157.457 224.508C157.747 226.043 157.612 227.629 157.068 229.094C156.524 230.558 155.59 231.847 154.368 232.82C153.146 233.793 151.681 234.415 150.132 234.617Z"
            fill="#DAC2FB" />
        <path
            d="M161.027 222.35C162.16 223.617 162.891 225.19 163.129 226.873C163.368 228.555 163.102 230.27 162.365 231.801C161.629 233.331 160.455 234.609 158.992 235.473C157.529 236.336 155.843 236.747 154.147 236.652C152.45 236.557 150.82 235.961 149.462 234.94C148.105 233.918 147.08 232.518 146.518 230.914C145.957 229.311 145.883 227.577 146.306 225.932C146.73 224.286 147.632 222.804 148.898 221.672C150.598 220.156 152.829 219.376 155.103 219.503C157.376 219.63 159.507 220.654 161.027 222.35ZM148.707 233.367C149.754 234.537 151.124 235.371 152.645 235.763C154.165 236.155 155.768 236.087 157.25 235.568C158.732 235.049 160.026 234.102 160.97 232.848C161.913 231.593 162.464 230.086 162.551 228.519C162.638 226.951 162.259 225.392 161.461 224.04C160.662 222.688 159.481 221.603 158.066 220.922C156.651 220.241 155.066 219.995 153.512 220.215C151.957 220.435 150.503 221.11 149.332 222.157C147.765 223.562 146.82 225.531 146.702 227.632C146.585 229.734 147.306 231.796 148.707 233.367Z"
            fill="white" />
    </g>
    <g clip-path="url(#clip1_932_29052)">
        <path d="M124.659 76.2012L122.245 84.5071H126.831L124.659 76.2012Z" fill="#FC774B" />
        <path
            d="M126.831 84.6962H122.243C122.185 84.6962 122.128 84.6679 122.093 84.6207C122.057 84.5735 122.046 84.5112 122.063 84.4546L124.479 76.1486C124.501 76.0674 124.577 76.0127 124.659 76.0127H124.661C124.746 76.0127 124.819 76.0712 124.84 76.1543L127.013 84.4602C127.028 84.5169 127.015 84.5773 126.98 84.6226C126.944 84.6698 126.889 84.6962 126.831 84.6962ZM122.495 84.3187H126.588L124.65 76.9075L122.495 84.3187Z"
            fill="#FC774B" />
        <path d="M124.659 103.811L122.245 95.5049H126.831L124.659 103.811Z" fill="#FC774B" />
        <path
            d="M124.659 104C124.577 104 124.501 103.945 124.479 103.864L122.064 95.558C122.047 95.5014 122.059 95.4391 122.095 95.3919C122.13 95.3447 122.185 95.3164 122.245 95.3164H126.833C126.891 95.3164 126.946 95.3428 126.981 95.39C127.017 95.4372 127.028 95.4957 127.015 95.5524L124.842 103.858C124.821 103.94 124.748 103.998 124.663 104H124.661H124.659ZM122.495 95.694L124.65 103.105L126.588 95.694H122.495Z"
            fill="#FC774B" />
        <path d="M138.343 90.2234L131.377 88.3281V92.0337L138.343 90.2234Z" fill="#FC774B" />
        <path
            d="M131.377 92.2227C131.336 92.2227 131.294 92.2095 131.262 92.1831C131.215 92.1472 131.189 92.0925 131.189 92.034V88.3284C131.189 88.2698 131.217 88.2132 131.262 88.1792C131.309 88.1434 131.37 88.132 131.426 88.1471L138.392 90.0424C138.475 90.0651 138.532 90.1406 138.532 90.2255C138.532 90.3105 138.473 90.386 138.391 90.4067L131.424 92.2171C131.409 92.2208 131.392 92.2227 131.377 92.2227ZM131.565 88.5738V91.7886L137.61 90.218L131.565 88.5738Z"
            fill="#FC774B" />
        <path d="M110.732 90.2232L117.699 91.9939V88.2656L110.732 90.2232Z" fill="#FC774B" />
        <path
            d="M117.699 92.1827C117.684 92.1827 117.669 92.1827 117.652 92.1771L110.685 90.4064C110.603 90.3856 110.544 90.312 110.544 90.2252C110.544 90.1402 110.599 90.0647 110.682 90.0402L117.648 88.0845C117.704 88.0675 117.765 88.0807 117.812 88.1166C117.859 88.1525 117.887 88.2072 117.887 88.2676V91.9958C117.887 92.0544 117.861 92.1091 117.814 92.145C117.78 92.1714 117.74 92.1846 117.699 92.1846V92.1827ZM111.463 90.2138L117.511 91.7523V88.5149L111.463 90.2138Z"
            fill="#FC774B" />
    </g>
    <g clip-path="url(#clip2_932_29052)">
        <path
            d="M318.753 372C318.614 372 318.501 371.884 318.501 371.744C318.501 362.354 315.724 356.529 313.396 353.296C310.873 349.796 308.318 348.495 308.293 348.482C308.167 348.421 308.117 348.267 308.177 348.139C308.238 348.011 308.389 347.96 308.515 348.021C308.624 348.075 311.189 349.376 313.782 352.965C316.165 356.262 319.005 362.196 319.005 371.744C319.005 371.884 318.892 372 318.753 372Z"
            fill="#DAC2FB" />
        <path
            d="M308.404 348.508C308.311 348.508 308.222 348.454 308.177 348.364C308.117 348.236 308.167 348.085 308.293 348.021C308.318 348.008 310.873 346.707 313.396 343.207C315.724 339.977 318.501 334.151 318.501 324.762C318.501 324.621 318.614 324.506 318.753 324.506C318.892 324.506 319.005 324.621 319.005 324.762C319.005 334.31 316.165 340.243 313.782 343.54C311.189 347.127 308.624 348.428 308.515 348.482C308.48 348.5 308.442 348.508 308.404 348.508Z"
            fill="#DAC2FB" />
        <path
            d="M318.753 371.999C318.614 371.999 318.501 371.883 318.501 371.743C318.501 362.195 321.341 356.261 323.725 352.964C326.318 349.375 328.883 348.074 328.991 348.02C329.115 347.959 329.266 348.01 329.329 348.138C329.39 348.266 329.339 348.417 329.213 348.481C329.188 348.494 326.633 349.795 324.111 353.295C321.782 356.528 319.005 362.353 319.005 371.743C319.005 371.883 318.892 371.999 318.753 371.999Z"
            fill="#DAC2FB" />
        <path
            d="M329.102 348.507C329.064 348.507 329.027 348.5 328.991 348.482C328.883 348.428 326.318 347.126 323.725 343.537C321.341 340.24 318.501 334.307 318.501 324.759C318.501 324.618 318.614 324.503 318.753 324.503C318.892 324.503 319.005 324.618 319.005 324.759C319.005 342.738 329.11 347.969 329.213 348.018C329.339 348.079 329.39 348.233 329.329 348.361C329.286 348.451 329.196 348.505 329.102 348.505V348.507Z"
            fill="#DAC2FB" />
    </g>
    <g clip-path="url(#clip3_932_29052)">
        <path
            d="M299.735 66.5139H292.294C292.171 66.5139 292.066 66.4272 292.043 66.3073C292.02 66.1875 292.084 66.0676 292.197 66.0217C301.916 62.0304 302.8 51.7576 302.808 51.6556C302.818 51.5178 302.933 51.4082 303.071 51.4209C303.209 51.426 303.316 51.5382 303.316 51.676V60.7272C303.316 60.8674 303.201 60.9822 303.061 60.9822C302.92 60.9822 302.805 60.8674 302.805 60.7272V54.3079C301.923 57.552 299.577 63.0174 293.482 66.0038H299.733C299.873 66.0038 299.988 66.1186 299.988 66.2589C299.988 66.3991 299.873 66.5139 299.733 66.5139H299.735Z"
            fill="#B27AFF" />
        <path
            d="M303.063 81.1014C303.063 81.1014 303.056 81.1014 303.053 81.1014C302.915 81.0963 302.808 80.9841 302.808 80.8464V71.7952C302.808 71.6549 302.923 71.5401 303.063 71.5401C303.204 71.5401 303.319 71.6549 303.319 71.7952V78.2118C304.201 74.9678 306.548 69.5024 312.644 66.5159H306.394C306.254 66.5159 306.139 66.4012 306.139 66.2609C306.139 66.1206 306.254 66.0059 306.394 66.0059H313.836C313.958 66.0059 314.063 66.0926 314.086 66.2124C314.109 66.3323 314.045 66.4522 313.933 66.4981C304.214 70.4919 303.329 80.7647 303.321 80.8668C303.311 80.9994 303.199 81.1014 303.066 81.1014H303.063Z"
            fill="#B27AFF" />
    </g>
    <g clip-path="url(#clip4_932_29052)">
        <path
            d="M225.666 40.3301L221.291 48.1041L225.331 55.4179L218.32 51.1359L210.84 55.7205L215.38 48.0842L211.132 40.6781L218.005 44.6916L225.666 40.3301Z"
            fill="#DAC2FB" />
        <path
            d="M210.84 55.8626C210.805 55.8626 210.769 55.8484 210.743 55.82C210.699 55.7731 210.691 55.7021 210.724 55.6453L215.22 48.0815L211.014 40.7507C210.983 40.6953 210.991 40.6242 211.033 40.5788C211.076 40.5333 211.144 40.522 211.199 40.5546L218.006 44.5297L225.602 40.2051C225.656 40.1739 225.722 40.1852 225.766 40.2307C225.808 40.2762 225.816 40.3458 225.786 40.4012L221.451 48.1042L225.451 55.3469C225.482 55.4023 225.473 55.4734 225.429 55.5188C225.385 55.5643 225.317 55.5728 225.264 55.5401L218.322 51.3008L210.912 55.8427C210.89 55.8555 210.866 55.8626 210.842 55.8626H210.84ZM211.511 41.0632L215.496 48.0119C215.522 48.0573 215.522 48.1142 215.496 48.1596L211.247 55.3071L218.25 51.0152C218.292 50.9896 218.346 50.9882 218.389 51.0152L224.956 55.0258L221.173 48.1767C221.148 48.1326 221.148 48.0786 221.173 48.0346L225.299 40.7038L218.07 44.8196C218.029 44.8437 217.979 44.8423 217.938 44.8196L211.511 41.0632Z"
            fill="#DAC2FB" />
        <path
            d="M218.254 37.1416L220.454 45.8505L228.293 48.0568L220.419 50.1751L218.254 58.9067L216.261 50.1751L208.213 48.0568L215.807 45.8505L218.254 37.1416Z"
            fill="#DAC2FB" />
        <path
            d="M218.254 59.0506C218.191 59.0506 218.136 59.0052 218.122 58.9412L216.15 50.2935L208.179 48.1951C208.118 48.1795 208.076 48.1241 208.076 48.0587C208.076 47.9948 208.116 47.9379 208.176 47.9195L215.697 45.7344L218.122 37.1023C218.139 37.0412 218.194 37 218.254 37H218.255C218.317 37 218.37 37.044 218.385 37.1066L220.567 45.7359L228.329 47.9209C228.389 47.9379 228.43 47.9948 228.43 48.0587C228.43 48.1226 228.388 48.1795 228.328 48.1951L220.532 50.292L218.387 58.9427C218.372 59.0052 218.317 59.0492 218.254 59.0492V59.0506ZM208.744 48.0502L216.295 50.0377C216.345 50.0505 216.383 50.0917 216.395 50.1429L218.259 58.3161L220.287 50.1414C220.3 50.0917 220.338 50.0519 220.386 50.0392L227.76 48.0559L220.419 45.9887C220.371 45.976 220.335 45.9376 220.322 45.8879L218.246 37.6748L215.938 45.8907C215.925 45.9376 215.889 45.9745 215.844 45.9873L208.744 48.0502Z"
            fill="#DAC2FB" />
    </g>
    <g clip-path="url(#clip5_932_29052)">
        <path d="M218.769 345.003L216.94 351.295H220.414L218.769 345.003Z" fill="#FFB197" />
        <path
            d="M220.414 351.439H216.939C216.895 351.439 216.852 351.417 216.825 351.382C216.798 351.346 216.789 351.299 216.802 351.256L218.632 344.963C218.649 344.902 218.706 344.86 218.769 344.86H218.771C218.835 344.86 218.89 344.905 218.906 344.968L220.553 351.26C220.564 351.303 220.554 351.349 220.527 351.383C220.5 351.419 220.458 351.439 220.414 351.439ZM217.13 351.153H220.23L218.762 345.538L217.13 351.153Z"
            fill="#FFB197" />
        <path d="M218.769 365.919L216.94 359.627H220.414L218.769 365.919Z" fill="#FFB197" />
        <path
            d="M218.769 366.063C218.706 366.063 218.649 366.021 218.632 365.96L216.803 359.667C216.79 359.625 216.799 359.577 216.826 359.542C216.853 359.506 216.895 359.484 216.94 359.484H220.416C220.46 359.484 220.501 359.504 220.528 359.54C220.555 359.576 220.564 359.62 220.554 359.663L218.907 365.956C218.892 366.017 218.836 366.061 218.772 366.063H218.771H218.769ZM217.13 359.77L218.762 365.385L220.23 359.77H217.13Z"
            fill="#FFB197" />
        <path d="M229.136 355.626L223.858 354.19V356.998L229.136 355.626Z" fill="#FFB197" />
        <path
            d="M223.858 357.14C223.827 357.14 223.796 357.13 223.771 357.11C223.736 357.083 223.716 357.042 223.716 356.997V354.19C223.716 354.146 223.737 354.103 223.771 354.077C223.807 354.05 223.853 354.041 223.896 354.053L229.173 355.489C229.236 355.506 229.278 355.563 229.278 355.627C229.278 355.692 229.234 355.749 229.172 355.765L223.894 357.136C223.883 357.139 223.87 357.14 223.858 357.14ZM224.001 354.376V356.811L228.58 355.622L224.001 354.376Z"
            fill="#FFB197" />
        <path d="M208.219 355.626L213.496 356.967V354.143L208.219 355.626Z" fill="#FFB197" />
        <path
            d="M213.496 357.11C213.485 357.11 213.473 357.11 213.46 357.106L208.183 355.765C208.12 355.749 208.076 355.693 208.076 355.627C208.076 355.563 208.117 355.506 208.18 355.487L213.457 354.006C213.5 353.993 213.546 354.003 213.581 354.03C213.617 354.057 213.639 354.099 213.639 354.144V356.969C213.639 357.013 213.619 357.055 213.583 357.082C213.557 357.102 213.527 357.112 213.496 357.112V357.11ZM208.772 355.619L213.353 356.784V354.332L208.772 355.619Z"
            fill="#FFB197" />
    </g>
    <g clip-path="url(#clip6_932_29052)">
        <path
            d="M299.451 238.786L295.075 246.56L299.115 253.874L292.104 249.592L284.625 254.177L289.165 246.54L284.917 239.134L291.79 243.148L299.451 238.786Z"
            fill="#DAC2FB" />
        <path
            d="M284.625 254.319C284.59 254.319 284.554 254.304 284.528 254.276C284.484 254.229 284.476 254.158 284.509 254.101L289.005 246.538L284.799 239.207C284.768 239.151 284.776 239.08 284.818 239.035C284.861 238.989 284.929 238.978 284.984 239.011L291.791 242.986L299.386 238.661C299.441 238.63 299.507 238.641 299.551 238.687C299.593 238.732 299.601 238.802 299.571 238.857L295.236 246.56L299.236 253.803C299.267 253.858 299.258 253.929 299.214 253.975C299.17 254.02 299.102 254.029 299.048 253.996L292.107 249.757L284.696 254.299C284.674 254.312 284.651 254.319 284.627 254.319H284.625ZM285.296 239.519L289.281 246.468C289.307 246.513 289.307 246.57 289.281 246.616L285.032 253.763L292.035 249.471C292.077 249.446 292.13 249.444 292.174 249.471L298.74 253.482L294.958 246.633C294.933 246.589 294.933 246.535 294.958 246.491L299.084 239.16L291.855 243.276C291.814 243.3 291.764 243.298 291.723 243.276L285.296 239.519Z"
            fill="#DAC2FB" />
        <path
            d="M292.039 235.598L294.239 244.307L302.078 246.513L294.204 248.631L292.039 257.363L290.046 248.631L281.998 246.513L289.592 244.307L292.039 235.598Z"
            fill="#DAC2FB" />
        <path
            d="M292.039 257.507C291.976 257.507 291.921 257.461 291.907 257.397L289.935 248.75L281.963 246.651C281.903 246.636 281.861 246.58 281.861 246.515C281.861 246.451 281.9 246.394 281.961 246.376L289.482 244.19L291.907 235.558C291.924 235.497 291.978 235.456 292.039 235.456H292.04C292.102 235.456 292.155 235.5 292.17 235.563L294.352 244.192L302.114 246.377C302.174 246.394 302.215 246.451 302.215 246.515C302.215 246.579 302.173 246.636 302.113 246.651L294.317 248.748L292.171 257.399C292.156 257.461 292.102 257.505 292.039 257.505V257.507ZM282.529 246.506L290.08 248.494C290.13 248.507 290.168 248.548 290.18 248.599L292.044 256.772L294.072 248.597C294.085 248.548 294.123 248.508 294.171 248.495L301.545 246.512L294.204 244.445C294.156 244.432 294.12 244.394 294.107 244.344L292.03 236.131L289.723 244.347C289.709 244.394 289.674 244.431 289.629 244.443L282.529 246.506Z"
            fill="#DAC2FB" />
    </g>
    <g clip-path="url(#clip7_932_29052)">
        <path
            d="M343.19 197.291L342.968 196.706C342.953 196.663 341.302 192.366 337.085 188.128C333.201 184.223 326.275 179.566 315.35 179.566H314.937L315.128 179.193C322.66 164.5 318.418 156.402 315.883 151.564C315.609 151.041 315.35 150.545 315.126 150.083L314.947 149.715H315.35C326.288 149.715 333.216 145.051 337.1 141.137C341.312 136.897 342.953 132.616 342.968 132.572L343.187 131.987L343.434 132.562C347.681 142.486 354.312 146.757 359.128 148.591C364.341 150.578 368.591 150.218 368.634 150.213L369.213 150.159L368.855 150.624C368.827 150.66 366.121 154.213 364.782 159.427C363.551 164.222 363.256 171.448 368.855 178.651L369.218 179.116L368.636 179.063C368.593 179.058 364.324 178.703 359.108 180.695C354.299 182.532 347.679 186.803 343.437 196.716L343.19 197.291ZM315.762 179.058C326.635 179.173 333.553 183.85 337.455 187.781C340.854 191.204 342.613 194.668 343.205 195.978C347.53 186.271 354.131 182.046 358.949 180.21C363.166 178.603 366.783 178.501 368.125 178.531C362.74 171.302 363.058 164.096 364.299 159.281C365.394 155.031 367.382 151.863 368.145 150.747C366.824 150.778 363.188 150.683 358.949 149.069C354.131 147.232 347.53 143.007 343.205 133.3C342.613 134.611 340.854 138.074 337.455 141.497C333.551 145.429 326.63 150.108 315.757 150.221C315.934 150.571 316.125 150.939 316.326 151.322C318.887 156.208 323.156 164.357 315.762 179.055V179.058Z"
            fill="#E8E8E8" />
    </g>
    <g clip-path="url(#clip8_932_29052)">
        <path
            d="M159.734 328.697C163.809 328.697 165.052 332.139 165.052 332.139C166.635 328.286 169.912 328.597 169.912 328.597C167.818 325.789 169.912 322.96 169.912 322.96C169.912 322.96 166.635 323.271 165.052 319.418C165.052 319.418 163.809 322.86 159.734 322.86C160.176 323.811 161.338 325.437 159.734 328.697Z"
            fill="#DAC2FB" />
    </g>
    <g clip-path="url(#clip9_932_29052)">
        <path d="M67.1159 229.13L62.6735 227.779V230.42L67.1159 229.13Z" fill="#E8E8E8" />
        <path
            d="M62.6735 230.596C62.6367 230.596 62.5982 230.583 62.5684 230.56C62.5246 230.527 62.4983 230.474 62.4983 230.42V227.779C62.4983 227.723 62.5246 227.672 62.5684 227.638C62.6122 227.605 62.67 227.594 62.7244 227.612L67.1667 228.962C67.2403 228.985 67.2911 229.054 67.2911 229.131C67.2911 229.208 67.2386 229.277 67.165 229.3L62.7226 230.59C62.7068 230.596 62.6893 230.597 62.6735 230.597V230.596ZM62.8488 228.016V230.186L66.499 229.126L62.8488 228.016Z"
            fill="#E8E8E8" />
        <path d="M44.5676 229.128L49.2448 230.458V227.662L44.5676 229.128Z" fill="#E8E8E8" />
        <path
            d="M49.2448 230.634C49.229 230.634 49.2133 230.632 49.1975 230.627L44.5203 229.298C44.445 229.277 44.3941 229.208 44.3924 229.131C44.3906 229.053 44.4414 228.983 44.515 228.96L49.1922 227.494C49.2448 227.476 49.3026 227.487 49.3482 227.52C49.3938 227.554 49.42 227.606 49.42 227.663V230.458C49.42 230.513 49.3938 230.565 49.3499 230.599C49.3184 230.622 49.2816 230.634 49.2448 230.634ZM45.1827 229.12L49.0696 230.224V227.9L45.1827 229.12Z"
            fill="#E8E8E8" />
        <path
            d="M58.0542 226.843L57.6546 225.134L55.9425 217.821L54.0411 225.134L53.596 226.843L50.9867 227.662V230.457L54.0324 231.322L54.2637 232.425L55.9425 240.368L57.7668 232.425L58.0209 231.322L61.1314 230.419V227.778L58.0542 226.843Z"
            fill="#E8E8E8" />
        <path
            d="M55.9425 240.545C55.8602 240.545 55.7901 240.487 55.7726 240.406L53.8835 231.463L50.9412 230.627C50.8658 230.605 50.8132 230.537 50.8132 230.458V227.662C50.8132 227.585 50.8623 227.518 50.9359 227.495L53.4524 226.706L55.7726 217.778C55.7936 217.7 55.8654 217.641 55.9443 217.646C56.0249 217.646 56.095 217.702 56.1125 217.781L58.2014 226.704L61.1822 227.61C61.2558 227.632 61.3067 227.701 61.3067 227.778V230.419C61.3067 230.498 61.2558 230.567 61.1805 230.588L58.1681 231.463L56.1125 240.407C56.095 240.487 56.0231 240.545 55.9425 240.545ZM51.162 230.326L54.0797 231.154C54.1428 231.172 54.1901 231.223 54.2041 231.286L55.9513 239.553L57.8509 231.282C57.8649 231.221 57.9122 231.172 57.9736 231.152L60.9579 230.285V227.908L58.0034 227.01C57.9438 226.992 57.8982 226.943 57.8842 226.882L55.9338 218.551L53.766 226.885C53.7503 226.943 53.7065 226.991 53.6486 227.008L51.162 227.789V230.322V230.326Z"
            fill="#E8E8E8" />
    </g>
    <path
        d="M93.3103 261.956H61.7731C60.8904 261.956 60.1749 262.672 60.1749 263.554V322.579C60.1749 323.462 60.8904 324.177 61.7731 324.177H93.3103C94.193 324.177 94.9086 323.462 94.9086 322.579V263.554C94.9086 262.672 94.193 261.956 93.3103 261.956Z"
        fill="black" />
    <path
        d="M93.3104 324.385H61.7731C60.7779 324.385 59.9662 323.576 59.9662 322.579V263.554C59.9662 262.559 60.7758 261.747 61.7731 261.747H93.3104C94.3056 261.747 95.1173 262.557 95.1173 263.554V322.579C95.1173 323.574 94.3077 324.385 93.3104 324.385ZM61.7731 262.164C61.0074 262.164 60.3835 262.788 60.3835 263.554V322.579C60.3835 323.344 61.0074 323.968 61.7731 323.968H93.3104C94.0761 323.968 94.7 323.344 94.7 322.579V263.554C94.7 262.788 94.0761 262.164 93.3104 262.164H61.7731Z"
        fill="white" />
    <path
        d="M59.7074 314.122L59.3652 313.884L79.4122 284.873L60.59 262.369L60.9113 262.102L79.9359 284.851L59.7074 314.122Z"
        fill="white" />
    <path
        d="M107.821 294.246L87.7202 280.363C87.2632 280.048 86.6368 280.162 86.3212 280.62L63.391 313.822C63.0754 314.279 63.19 314.905 63.647 315.221L83.7478 329.103C84.2048 329.418 84.8312 329.304 85.1468 328.847L108.077 295.645C108.393 295.188 108.278 294.561 107.821 294.246Z"
        fill="white" />
    <path
        d="M84.3176 329.489C84.0797 329.489 83.8398 329.421 83.6291 329.274L63.5279 315.391C63.2608 315.207 63.0813 314.93 63.0229 314.611C62.9645 314.291 63.0334 313.97 63.2191 313.703L86.1495 280.501C86.5293 279.95 87.2867 279.81 87.8375 280.192L107.939 294.075C108.49 294.455 108.627 295.213 108.248 295.763L85.317 328.966C85.0813 329.306 84.7015 329.489 84.3155 329.489H84.3176ZM87.149 280.394C86.8965 280.394 86.6461 280.515 86.4917 280.739L63.5612 313.941C63.4402 314.116 63.3943 314.327 63.434 314.538C63.4736 314.748 63.5904 314.928 63.7657 315.049L83.8669 328.932C84.2279 329.183 84.7245 329.091 84.9748 328.73L107.905 295.528C108.156 295.167 108.064 294.67 107.703 294.42L87.6017 280.536C87.464 280.44 87.3054 280.396 87.151 280.396L87.149 280.394Z"
        fill="black" />
    <path
        d="M105.206 294.576L88.335 282.924C87.8779 282.608 87.2516 282.723 86.9359 283.18L66.1779 313.237C65.8623 313.694 65.9769 314.32 66.434 314.636L83.3054 326.288C83.7624 326.603 84.3887 326.489 84.7044 326.032L105.462 295.975C105.778 295.518 105.663 294.892 105.206 294.576Z"
        fill="black" />
    <path
        d="M73.3573 318.354H52.8534C52.2984 318.354 51.8477 317.903 51.8477 317.348V289.442L41.53 279.996L51.2301 279.89C51.2301 279.89 56.1041 279.814 56.6591 279.814H73.3573C73.9123 279.814 74.363 280.265 74.363 280.82V317.35C74.363 317.905 73.9123 318.356 73.3573 318.356V318.354Z"
        fill="white" />
    <path
        d="M73.3573 318.562H52.8534C52.1836 318.562 51.6391 318.018 51.6391 317.348V289.533L41.0001 279.793L51.2301 279.681C51.2781 279.681 56.1104 279.605 56.6612 279.605H73.3594C74.0291 279.605 74.5737 280.15 74.5737 280.82V317.35C74.5737 318.02 74.0291 318.564 73.3594 318.564L73.3573 318.562ZM42.06 280.198L52.0563 289.349V317.348C52.0563 317.786 52.4131 318.145 52.8534 318.145H73.3573C73.7954 318.145 74.1543 317.788 74.1543 317.348V280.82C74.1543 280.382 73.7975 280.023 73.3573 280.023H56.6591C56.1125 280.023 51.2823 280.096 51.2343 280.098L42.06 280.198Z"
        fill="black" />
    <path
        d="M68.7712 316.25L68.429 316.012C75.1099 306.429 84.8476 301.204 91.8394 298.51C99.4112 295.594 105.489 294.93 105.55 294.924L105.593 295.339C105.533 295.345 99.4989 296.005 91.9771 298.903C85.0437 301.576 75.3874 306.754 68.7712 316.248V316.25Z"
        fill="white" />
    <path d="M57.5793 285.041H57.162V315.015H57.5793V285.041Z" fill="black" />
    <path d="M62.689 285.041H62.2717V315.015H62.689V285.041Z" fill="black" />
    <path d="M67.949 285.041H67.5317V315.015H67.949V285.041Z" fill="black" />
    <path d="M115.045 313.469L101.94 305.426V314.696L115.045 313.469Z" fill="black" />
    <path
        d="M101.731 314.923V305.052L115.688 313.619L101.731 314.923ZM102.149 305.797V314.464L114.403 313.318L102.149 305.797Z"
        fill="white" />
    <path d="M63.1062 312.776L50.001 304.732V314.003L63.1062 312.776Z" fill="black" />
    <path
        d="M49.7924 314.23V304.358L63.7489 312.926L49.7924 314.23ZM50.2097 305.103V313.771L62.4636 312.625L50.2097 305.103Z"
        fill="white" />
    <path
        d="M75.8381 329.929C87.1943 329.929 96.4004 320.723 96.4004 309.367C96.4004 298.011 87.1943 288.805 75.8381 288.805C64.4818 288.805 55.2758 298.011 55.2758 309.367C55.2758 320.723 64.4818 329.929 75.8381 329.929Z"
        fill="#FC774B" />
    <path d="M50.0011 313.472H115.045L169.703 346.555V364.453H49.3606L50.0011 313.472Z" fill="black" />
    <path
        d="M169.911 364.661H49.1498L49.7946 313.263H115.104L115.154 313.292L169.911 346.436V364.661ZM49.5734 364.244H169.494V346.672L114.987 313.68H50.2077L49.5734 364.244Z"
        fill="white" />
    <path d="M169.703 357.104H49.4566V357.522H169.703V357.104Z" fill="white" />
    <path
        d="M75.5752 346.686C81.1363 346.686 85.6446 342.177 85.6446 336.616C85.6446 331.055 81.1363 326.547 75.5752 326.547C70.014 326.547 65.5058 331.055 65.5058 336.616C65.5058 342.177 70.014 346.686 75.5752 346.686Z"
        fill="#B27AFF" />
    <path d="M145.863 332.081L135.234 345.026L135.556 345.291L146.186 332.346L145.863 332.081Z"
        fill="white" />
    <path d="M130.462 322.783L119.832 335.729L120.155 335.993L130.785 323.048L130.462 322.783Z"
        fill="white" />
    <path d="M115.171 313.332L104.541 326.277L104.864 326.542L115.493 313.597L115.171 313.332Z"
        fill="white" />
    <path
        d="M68.0596 297.541C68.8836 297.541 69.5515 296.873 69.5515 296.049C69.5515 295.226 68.8836 294.558 68.0596 294.558C67.2357 294.558 66.5678 295.226 66.5678 296.049C66.5678 296.873 67.2357 297.541 68.0596 297.541Z"
        fill="black" />
    <path
        d="M82.8153 297.808C83.6392 297.808 84.3071 297.14 84.3071 296.316C84.3071 295.492 83.6392 294.824 82.8153 294.824C81.9913 294.824 81.3234 295.492 81.3234 296.316C81.3234 297.14 81.9913 297.808 82.8153 297.808Z"
        fill="black" />
    <path
        d="M75.3686 308.196C75.3457 308.196 75.3227 308.196 75.2998 308.196C67.0144 308.158 65.7708 301.799 65.7604 301.734L66.1714 301.659C66.2173 301.907 67.3732 307.743 75.304 307.779C75.3269 307.779 75.3499 307.779 75.3728 307.779C83.2556 307.779 84.9185 301.767 84.9873 301.511L85.3921 301.615C85.3754 301.682 83.5873 308.196 75.3728 308.196H75.3686Z"
        fill="black" />
    <defs>
        <clipPath id="clip0_932_29052">
            <rect width="133.789" height="65.8861" fill="white"
                transform="translate(139.511 264.203) rotate(-131.804)" />
        </clipPath>
        <clipPath id="clip1_932_29052">
            <rect width="27.9873" height="27.9873" fill="white"
                transform="translate(110.544 76.0127)" />
        </clipPath>
        <clipPath id="clip2_932_29052">
            <rect width="21.2025" height="47.4937" fill="white"
                transform="translate(308.152 324.506)" />
        </clipPath>
        <clipPath id="clip3_932_29052">
            <rect width="22.0506" height="29.6835" fill="white"
                transform="translate(292.038 51.418)" />
        </clipPath>
        <clipPath id="clip4_932_29052">
            <rect width="20.3544" height="22.0506" fill="white" transform="translate(208.076 37)" />
        </clipPath>
        <clipPath id="clip5_932_29052">
            <rect width="21.2025" height="21.2025" fill="white"
                transform="translate(208.076 344.86)" />
        </clipPath>
        <clipPath id="clip6_932_29052">
            <rect width="20.3544" height="22.0506" fill="white"
                transform="translate(281.861 235.456)" />
        </clipPath>
        <clipPath id="clip7_932_29052">
            <rect width="54.2785" height="65.3038" fill="white"
                transform="translate(314.937 131.987)" />
        </clipPath>
        <clipPath id="clip8_932_29052">
            <rect width="10.1772" height="12.7215" fill="white"
                transform="translate(159.734 319.418)" />
        </clipPath>
        <clipPath id="clip9_932_29052">
            <rect width="22.8987" height="22.8987" fill="white"
                transform="translate(44.3924 217.646)" />
        </clipPath>
    </defs>
</svg>
    