<svg width="375" height="406" viewBox="0 0 375 406" fill="none" xmlns="http://www.w3.org/2000/svg">
    <rect width="375" height="406" fill="none" />
    <path d="M103.476 124.659L225.678 102.383" stroke="black" stroke-width="0.176" />
    <rect width="146.305" height="262.997" rx="16.75"
        transform="matrix(0.98458 -0.174937 0.174936 0.98458 86.917 86.0918)" fill="#B27AFF" />
    <path
        d="M95.2215 100.404C93.6418 91.5136 99.5685 83.0257 108.459 81.4461L215.301 62.4626C224.192 60.883 232.68 66.8097 234.26 75.7003L273.776 298.107C275.355 306.998 269.429 315.486 260.538 317.065L153.696 336.049C144.805 337.629 136.317 331.702 134.738 322.811L95.2215 100.404Z"
        fill="white" stroke="black" stroke-width="0.8" />
    <rect x="0.289861" y="0.202436" width="42.0607" height="10.6791" rx="5.33955"
        transform="matrix(0.984595 -0.174852 0.17485 0.984595 141.969 80.4952)" fill="black"
        stroke="black" stroke-width="0.5" />
    <rect x="0.204062" y="0.142515" width="91.8353" height="28.3148" rx="4.5052"
        transform="matrix(0.984595 -0.174852 0.17485 0.984595 125.225 130.91)" fill="#B27AFF"
        fill-opacity="0.21" stroke="#B27AFF" stroke-width="0.352" />
    <path d="M145.927 136.57L207.291 125.432" stroke="#B27AFF" stroke-linecap="round" />
    <path d="M144.055 145.96L208.991 133.876" stroke="#B27AFF" stroke-linecap="round" />
    <path
        d="M132.522 183C132.087 180.55 133.72 178.212 136.17 177.777L214.22 163.916C216.67 163.481 219.008 165.114 219.443 167.564L225.549 201.945C225.984 204.395 224.351 206.733 221.901 207.168L143.851 221.029C141.401 221.464 139.063 219.831 138.628 217.381L132.522 183Z"
        fill="#B27AFF" fill-opacity="0.21" stroke="#B27AFF" stroke-width="0.352" />
    <path
        d="M166.986 280.591C166.493 277.815 168.344 275.166 171.119 274.673L233.686 263.562L240.51 301.984C241.002 304.76 239.152 307.409 236.377 307.902L178.835 318.121C176.059 318.614 173.41 316.763 172.917 313.988L166.986 280.591Z"
        fill="#B27AFF" fill-opacity="0.21" stroke="#B27AFF" stroke-width="0.352" />
    <path
        d="M151.677 257.167C152.112 259.617 154.451 261.25 156.901 260.815L215.327 250.439C217.777 250.004 219.411 247.665 218.975 245.215L217.501 236.915C217.066 234.465 214.728 232.832 212.278 233.267L153.851 243.643C151.401 244.078 149.768 246.416 150.203 248.866L151.677 257.167Z"
        fill="#B27AFF" fill-opacity="0.21" stroke="#B27AFF" stroke-width="0.352" />
    <path d="M159.058 251.695L211.07 241.923" stroke="#B27AFF" stroke-linecap="round" />
    <path d="M175.977 282.167L227.989 272.395" stroke="#B27AFF" stroke-linecap="round" />
    <path d="M177.656 291.204L229.669 281.432" stroke="#B27AFF" stroke-linecap="round" />
    <path d="M144.219 185.853L212.293 173.763" stroke="#B27AFF" stroke-linecap="round" />
    <path d="M145.624 193.7L213.698 181.611" stroke="#B27AFF" stroke-linecap="round" />
    <path d="M147.307 201.477L215.381 189.387" stroke="#B27AFF" stroke-linecap="round" />
    <path d="M148.567 210.303L216.642 198.214" stroke="#B27AFF" stroke-linecap="round" />
    <path d="M187.323 297.57L232.051 289.627" stroke="#B27AFF" stroke-linecap="round" />
    <path
        d="M234.655 147.031C234.655 150.88 231.535 154 227.686 154C223.837 154 220.717 150.88 220.717 147.031C220.717 143.182 223.837 140.062 227.686 140.062C231.535 140.062 234.655 143.182 234.655 147.031Z"
        fill="#FC774B" fill-opacity="0.8" stroke="black" stroke-width="0.352" />
    <path
        d="M140.409 231.853C140.409 235.702 137.289 238.822 133.44 238.822C129.591 238.822 126.471 235.702 126.471 231.853C126.471 228.004 129.591 224.884 133.44 224.884C137.289 224.884 140.409 228.004 140.409 231.853Z"
        fill="#FC774B" fill-opacity="0.8" stroke="black" stroke-width="0.352" />
    <path
        d="M249.353 256.215C249.353 260.064 246.233 263.185 242.384 263.185C238.535 263.185 235.415 260.064 235.415 256.215C235.415 252.367 238.535 249.246 242.384 249.246C246.233 249.246 249.353 252.367 249.353 256.215Z"
        fill="#FC774B" fill-opacity="0.8" stroke="black" stroke-width="0.352" />
    <g clip-path="url(#clip0_1123_20963)">
        <path
            d="M323.09 172H283.869C280.857 171.994 277.939 173.058 275.628 175.007L260 186.696L270.972 198.186V244.002C270.972 247.355 274.826 249.232 277.351 247.086L287.46 239.049C288.733 238.104 290.268 237.586 291.849 237.567H308.574L316.326 245.686L330.271 235.375C330.545 235.188 330.812 234.989 331.07 234.784L331.14 234.732C332.653 233.515 333.875 231.971 334.717 230.214C335.558 228.456 335.997 226.531 336 224.58V185.006C335.998 181.556 334.638 178.248 332.217 175.809C329.796 173.37 326.513 172 323.09 172Z"
            fill="#DAC2FB" stroke="black" stroke-width="0.8" stroke-miterlimit="10" />
        <path
            d="M255.79 255.368V195.501C255.792 192.002 257.171 188.646 259.624 186.171C262.078 183.696 265.406 182.304 268.877 182.3H308.675C312.145 182.307 315.469 183.701 317.92 186.176C320.371 188.65 321.749 192.004 321.75 195.501V235.64C321.748 239.138 320.369 242.492 317.916 244.966C315.463 247.441 312.136 248.833 308.666 248.838H276.971C275.367 248.856 273.81 249.381 272.517 250.338L262.263 258.497C259.701 260.675 255.79 258.77 255.79 255.368Z"
            fill="white" stroke="black" stroke-width="0.8" stroke-miterlimit="10" />
        <path
            d="M295.64 207.967C296.811 216.443 290.907 224.27 282.455 225.451C274.003 226.632 266.201 220.72 265.03 212.244C263.859 203.768 269.764 195.941 278.215 194.76C286.667 193.579 294.47 199.49 295.64 207.967Z"
            stroke="black" />
        <path
            d="M304.006 204.762L302.442 203.698L301.564 203.5L300.86 204.56L301.912 206.017L301.294 207.706L302.111 209.515L301.859 211.795L304.102 209.558L302.876 206.844L304.006 204.762Z"
            fill="white" />
        <mask id="path-26-inside-1_1123_20963" fill="white">
            <path fill-rule="evenodd" clip-rule="evenodd"
                d="M277.449 194.918L277.187 204.329L276.688 204.316L276.949 194.905L277.449 194.918ZM271.219 206.121L271.551 197.221L272.051 197.239L271.719 206.139L271.219 206.121Z" />
        </mask>
        <path
            d="M277.187 204.329L277.16 205.329L278.159 205.355L278.187 204.356L277.187 204.329ZM277.449 194.918L278.448 194.945L278.476 193.944L277.476 193.918L277.449 194.918ZM276.688 204.316L275.688 204.29L275.66 205.29L276.66 205.316L276.688 204.316ZM276.949 194.905L276.977 193.905L275.978 193.88L275.95 194.879L276.949 194.905ZM271.551 197.221L271.588 196.221L270.589 196.186L270.552 197.185L271.551 197.221ZM271.219 206.121L270.22 206.085L270.183 207.085L271.182 207.121L271.219 206.121ZM272.051 197.239L273.05 197.274L273.087 196.274L272.088 196.239L272.051 197.239ZM271.719 206.139L271.682 207.138L272.68 207.174L272.718 206.175L271.719 206.139ZM278.187 204.356L278.448 194.945L276.449 194.892L276.188 204.303L278.187 204.356ZM276.66 205.316L277.16 205.329L277.215 203.329L276.715 203.317L276.66 205.316ZM275.95 194.879L275.688 204.29L277.687 204.343L277.949 194.932L275.95 194.879ZM277.476 193.918L276.977 193.905L276.922 195.905L277.422 195.918L277.476 193.918ZM270.552 197.185L270.22 206.085L272.218 206.157L272.55 197.257L270.552 197.185ZM272.088 196.239L271.588 196.221L271.514 198.221L272.014 198.238L272.088 196.239ZM272.718 206.175L273.05 197.274L271.052 197.203L270.72 206.103L272.718 206.175ZM271.182 207.121L271.682 207.138L271.756 205.139L271.256 205.122L271.182 207.121Z"
            fill="black" mask="url(#path-26-inside-1_1123_20963)" />
        <ellipse cx="7.20498" cy="7.22183" rx="7.20498" ry="7.22183"
            transform="matrix(0.990377 -0.1384 0.136843 0.990593 266.536 204.219)" fill="black" />
        <ellipse cx="1.02928" cy="1.03169" rx="1.02928" ry="1.03169"
            transform="matrix(0.990377 -0.1384 0.136843 0.990593 287.765 207.507)" fill="black" />
        <path
            d="M287.808 215.322L291.587 216.356L295.083 215.347L301.551 217.046M301.551 217.046L299.967 213.103L305.572 212.32L304.381 218.733L301.551 217.046Z"
            stroke="black" />
        <ellipse cx="1.02928" cy="1.03169" rx="1.02928" ry="1.03169"
            transform="matrix(0.990377 -0.1384 0.136843 0.990593 291.841 206.939)" fill="black" />
        <path fill-rule="evenodd" clip-rule="evenodd"
            d="M269.814 222.099L279.489 239.491L279.926 239.248L270.251 221.856L269.814 222.099ZM303.789 223.968L296.599 225.801L290.461 229.64L291.093 230.298L294.744 231.802L312.29 227.277L312.414 227.761L295.515 232.119L304.263 235.721L304.072 236.183L294.63 232.296L290.854 230.741L290.805 230.721L290.769 230.683L289.887 229.765L285.916 225.634L286.277 225.287L290.107 229.272L296.367 225.357L296.4 225.336L296.438 225.326L303.541 223.515C303.605 223.678 303.689 223.83 303.789 223.968ZM307.498 223.022L310.108 222.356L309.985 221.872L307.5 222.505C307.521 222.681 307.52 222.854 307.498 223.022Z"
            fill="black" />
        <path fill-rule="evenodd" clip-rule="evenodd"
            d="M288.058 225.969L287.817 226.037L287.884 226.278L288.245 227.563L288.377 227.525C288.188 227.95 288.14 228.441 288.275 228.924C288.406 229.392 288.688 229.776 289.053 230.039L288.947 230.069L289.316 231.385L289.384 231.626L289.624 231.558L292.456 230.756L292.697 230.688L292.629 230.448L292.281 229.207L292.112 229.255C292.322 228.818 292.38 228.305 292.239 227.802C292.114 227.359 291.855 226.99 291.517 226.729L291.582 226.711L291.198 225.34L291.13 225.099L290.889 225.167L288.058 225.969ZM290.984 226.431L290.784 225.717L288.433 226.382L288.633 227.097C288.894 226.76 289.26 226.502 289.7 226.377C290.14 226.253 290.587 226.281 290.984 226.431ZM291.881 229.629C291.62 229.965 291.254 230.224 290.813 230.349C290.373 230.473 289.927 230.445 289.53 230.295L289.73 231.009L292.081 230.343L291.881 229.629ZM291.757 227.938C291.991 228.77 291.507 229.633 290.679 229.867C289.85 230.102 288.989 229.619 288.756 228.788C288.523 227.956 289.007 227.093 289.835 226.859C290.663 226.624 291.524 227.107 291.757 227.938Z"
            fill="black" />
    </g>
    <path
        d="M331.91 284.446C331.86 284.446 331.817 284.41 331.806 284.359L330.254 277.477L323.979 275.807C323.932 275.795 323.898 275.751 323.898 275.699C323.898 275.648 323.93 275.603 323.977 275.588L329.897 273.849L331.806 266.98C331.819 266.931 331.862 266.898 331.91 266.898H331.911C331.959 266.898 332.001 266.933 332.013 266.983L333.73 273.85L339.84 275.589C339.888 275.603 339.92 275.648 339.92 275.699C339.92 275.75 339.886 275.795 339.839 275.807L333.703 277.476L332.014 284.36C332.002 284.41 331.959 284.445 331.91 284.445V284.446ZM324.424 275.692L330.368 277.274C330.407 277.284 330.437 277.316 330.447 277.357L331.914 283.861L333.51 277.356C333.52 277.316 333.55 277.285 333.588 277.275L339.392 275.696L333.614 274.051C333.576 274.041 333.548 274.011 333.537 273.971L331.903 267.435L330.087 273.973C330.076 274.011 330.048 274.04 330.013 274.05L324.424 275.692Z"
        fill="#DAC2FB" />
    <g clip-path="url(#clip1_1123_20963)">
        <path
            d="M157.344 306.572L151.262 307.766L138.125 293.825L130.127 299.162L126.285 312.669L84.1668 320.937C83.8002 321.009 83.4749 321.167 83.2007 321.385L74.5351 327.309L81.5448 330.108L83.4064 328.818L90.2707 363.786C90.5132 365.022 91.7062 365.829 92.9336 365.588L154.345 353.533L158.074 356.928C158.074 356.928 166.846 351.005 167.309 350.562C167.775 350.12 168.042 349.304 167.893 348.549L160.007 308.374C159.764 307.138 158.571 306.331 157.344 306.572Z"
            fill="#B27AFF" />
        <path
            d="M158.058 357.132L154.295 353.707L92.9628 365.747C91.6503 366.004 90.3707 365.138 90.1114 363.817L83.2943 329.09L81.5639 330.29L74.1924 327.347L83.1201 321.243C83.422 321.007 83.7625 320.852 84.1354 320.779L126.156 312.53L129.987 299.061L138.147 293.615L151.317 307.591L157.312 306.414C158.625 306.156 159.905 307.022 160.164 308.343L168.05 348.518C168.202 349.292 167.942 350.181 167.419 350.678C166.949 351.124 158.519 356.819 158.162 357.061L158.058 357.13L158.058 357.132ZM83.5158 328.545L90.4277 363.755C90.6528 364.902 91.7628 365.653 92.9021 365.43L154.392 353.359L158.087 356.725C161.145 354.659 166.843 350.783 167.2 350.445C167.647 350.018 167.869 349.252 167.737 348.581L159.851 308.405C159.626 307.258 158.516 306.507 157.376 306.73L151.208 307.941L138.1 294.034L130.264 299.264L126.412 312.809L84.1976 321.095C83.8671 321.16 83.5661 321.3 83.3004 321.512L83.1958 321.595L83.1879 321.588L74.8755 327.272L81.5235 329.926L83.5158 328.545Z"
            fill="black" />
        <path
            d="M148.367 312.702L143.441 313.669L130.026 299.333L120.042 318.263L75.1898 327.067C73.9624 327.308 73.1631 328.506 73.4057 329.742L81.2921 369.917C81.5346 371.152 82.7276 371.959 83.955 371.718L157.132 357.353C158.359 357.113 159.159 355.914 158.916 354.679L151.03 314.504C150.787 313.268 149.594 312.461 148.367 312.702Z"
            fill="white" />
        <path
            d="M157.163 357.512L83.9857 371.877C82.6733 372.134 81.3936 371.268 81.1343 369.947L73.2479 329.772C72.9886 328.451 73.8459 327.166 75.1583 326.908L119.936 318.118L129.99 299.059L143.498 313.493L148.335 312.544C149.648 312.286 150.927 313.152 151.187 314.473L159.073 354.648C159.333 355.969 158.475 357.254 157.163 357.512ZM75.2205 327.225C74.0812 327.449 73.3375 328.564 73.5626 329.711L81.449 369.885C81.6742 371.032 82.7842 371.783 83.9235 371.56L157.101 357.195C158.24 356.971 158.984 355.856 158.758 354.709L150.872 314.535C150.647 313.388 149.537 312.637 148.398 312.86L143.386 313.844L130.061 299.608L120.146 318.406L75.2205 327.225Z"
            fill="black" />
        <path
            d="M96.1212 352.781C100.27 351.966 102.969 347.92 102.149 343.744C101.329 339.567 97.3012 336.842 93.1522 337.656C89.0031 338.471 86.3043 342.517 87.1241 346.693C87.944 350.87 91.9721 353.595 96.1212 352.781Z"
            fill="black" />
        <path
            d="M96.1522 352.939C91.9222 353.769 87.8007 350.981 86.9648 346.723C86.129 342.465 88.8908 338.326 93.1207 337.496C97.3506 336.666 101.471 339.455 102.306 343.711C103.142 347.967 100.381 352.109 96.1522 352.939ZM93.1829 337.813C89.126 338.609 86.4782 342.579 87.2795 346.661C88.0809 350.743 92.0332 353.419 96.09 352.622C100.147 351.826 102.793 347.857 101.991 343.773C101.19 339.689 97.2381 337.017 93.1829 337.813Z"
            fill="black" />
        <path
            d="M117.415 348.6C121.564 347.786 124.263 343.74 123.443 339.563C122.623 335.386 118.595 332.661 114.446 333.475C110.297 334.29 107.598 338.336 108.418 342.512C109.238 346.689 113.266 349.414 117.415 348.6Z"
            fill="white" />
        <path
            d="M117.446 348.759C113.217 349.589 109.097 346.8 108.261 342.542C107.425 338.284 110.187 334.146 114.415 333.316C118.643 332.486 122.765 335.274 123.6 339.531C124.436 343.787 121.675 347.929 117.446 348.759ZM114.477 333.632C110.422 334.429 107.774 338.398 108.575 342.48C109.377 346.562 113.329 349.238 117.384 348.442C121.44 347.646 124.087 343.676 123.286 339.593C122.484 335.509 118.532 332.836 114.477 333.632Z"
            fill="black" />
        <path
            d="M138.146 344.531C142.295 343.716 144.993 339.67 144.174 335.494C143.354 331.317 139.326 328.592 135.177 329.406C131.028 330.221 128.329 334.267 129.149 338.443C129.968 342.62 133.997 345.345 138.146 344.531Z"
            fill="white" />
        <path
            d="M138.177 344.689C133.947 345.52 129.827 342.731 128.991 338.473C128.155 334.215 130.917 330.076 135.145 329.246C139.374 328.416 143.495 331.205 144.331 335.461C145.166 339.718 142.405 343.859 138.177 344.689ZM135.208 329.563C131.152 330.359 128.505 334.329 129.306 338.411C130.107 342.493 134.06 345.169 138.115 344.372C142.17 343.576 144.818 339.607 144.016 335.523C143.215 331.439 139.263 328.767 135.208 329.563Z"
            fill="black" />
        <path
            d="M96.7722 356.098C84.4349 358.52 76.409 370.55 78.8469 382.969L123.524 374.198C121.086 361.779 109.108 353.675 96.7703 356.096L96.7722 356.098Z"
            fill="black" />
        <path
            d="M123.712 374.326L78.7206 383.158L78.6895 382.999C76.2383 370.512 84.3358 358.372 96.7408 355.937C109.146 353.502 121.232 361.68 123.683 374.167L123.714 374.325L123.712 374.326ZM78.9732 382.779L123.335 374.071C120.848 361.847 108.981 353.864 96.803 356.254C84.6246 358.645 76.6557 370.524 78.9732 382.779Z"
            fill="black" />
    </g>
    <path
        d="M304.524 333.518H294.048C293.875 333.518 293.727 333.396 293.695 333.228C293.663 333.059 293.753 332.89 293.911 332.825C307.594 327.206 308.84 312.743 308.85 312.599C308.865 312.405 309.027 312.251 309.221 312.269C309.416 312.276 309.567 312.434 309.567 312.628V325.371C309.567 325.569 309.405 325.73 309.207 325.73C309.009 325.73 308.847 325.569 308.847 325.371V316.334C307.605 320.901 304.301 328.596 295.721 332.8H304.521C304.719 332.8 304.881 332.962 304.881 333.159C304.881 333.357 304.719 333.518 304.521 333.518H304.524Z"
        fill="#B27AFF" />
    <path
        d="M309.21 354.057C309.21 354.057 309.2 354.057 309.196 354.057C309.002 354.05 308.851 353.892 308.851 353.698V340.954C308.851 340.757 309.013 340.595 309.21 340.595C309.408 340.595 309.57 340.757 309.57 340.954V349.989C310.812 345.421 314.116 337.726 322.7 333.522H313.9C313.702 333.522 313.54 333.36 313.54 333.163C313.54 332.965 313.702 332.804 313.9 332.804H324.377C324.549 332.804 324.697 332.926 324.729 333.095C324.762 333.263 324.672 333.432 324.513 333.497C310.83 339.12 309.585 353.583 309.574 353.726C309.56 353.913 309.401 354.057 309.214 354.057H309.21Z"
        fill="#B27AFF" />
    <path fill-rule="evenodd" clip-rule="evenodd"
        d="M215.677 27.8934C215.154 26.9811 213.682 27.3526 213.682 28.4039V70.8094C213.682 78.2044 219.916 84.1991 227.605 84.1991H259.968C267.658 84.1991 273.892 78.2044 273.892 70.8094V51.3855C273.892 44.0305 267.725 38.0605 260.093 37.9964C260.01 37.9957 259.936 37.996 259.853 37.9965C257.748 38.0085 227.38 38.1777 224.046 37.9958C221.768 37.8716 217.987 31.9277 215.677 27.8934ZM253.263 57.292C253.112 57.8898 253.625 58.397 254.241 58.397C254.858 58.397 255.339 57.8768 255.588 57.3129L255.601 57.2851C255.762 56.9326 255.997 56.6123 256.294 56.3425C256.591 56.0727 256.943 55.8587 257.331 55.7127C257.718 55.5667 258.134 55.4916 258.554 55.4916C258.973 55.4916 259.389 55.5667 259.777 55.7127C260.164 55.8587 260.517 56.0727 260.814 56.3425C261.11 56.6123 261.346 56.9326 261.506 57.2851L261.519 57.3129C261.768 57.8768 262.25 58.397 262.866 58.397C263.483 58.397 263.996 57.8898 263.845 57.292C263.777 57.0249 263.685 56.7627 263.569 56.5083C263.296 55.9096 262.897 55.3655 262.392 54.9072C261.888 54.4489 261.29 54.0854 260.631 53.8374C259.973 53.5894 259.267 53.4617 258.554 53.4617C257.841 53.4617 257.135 53.5894 256.476 53.8374C255.818 54.0854 255.219 54.4489 254.715 54.9072C254.211 55.3655 253.811 55.9096 253.538 56.5083C253.422 56.7627 253.33 57.0249 253.263 57.292Z"
        fill="#AA7CF7" />
    <path
        d="M59.8936 206.715L52.707 219.527L59.3428 231.58L47.8268 224.523L35.542 232.079L42.9983 219.494L36.0208 207.288L47.3098 213.903L59.8936 206.715Z"
        fill="#DAC2FB" />
    <path
        d="M35.5424 232.314C35.484 232.314 35.4255 232.29 35.3828 232.244C35.3109 232.166 35.2974 232.049 35.3513 231.956L42.7357 219.49L35.8279 207.409C35.7762 207.317 35.7897 207.2 35.8594 207.125C35.929 207.05 36.0414 207.032 36.1314 207.086L47.3125 213.637L59.7883 206.51C59.8783 206.458 59.9862 206.477 60.0581 206.552C60.1278 206.627 60.1413 206.741 60.0918 206.833L52.9704 219.528L59.5411 231.464C59.5928 231.555 59.577 231.672 59.5051 231.747C59.4332 231.822 59.3208 231.836 59.2331 231.782L47.8317 224.796L35.6593 232.281C35.6233 232.302 35.5851 232.314 35.5446 232.314H35.5424ZM36.6439 207.924L43.1898 219.375C43.2325 219.45 43.2325 219.544 43.1898 219.619L36.21 231.398L47.7126 224.325C47.7823 224.283 47.8699 224.281 47.9419 224.325L58.7273 230.935L52.5141 219.647C52.4736 219.574 52.4736 219.485 52.5141 219.413L59.2916 207.331L47.4181 214.114C47.3507 214.154 47.2675 214.152 47.2001 214.114L36.6439 207.924Z"
        fill="#DAC2FB" />
    <path
        d="M47.7175 201.461L51.3322 215.814L64.2082 219.45L51.2737 222.941L47.7175 237.331L44.4446 222.941L31.2246 219.45L43.6983 215.814L47.7175 201.461Z"
        fill="#DAC2FB" />
    <path
        d="M47.7177 237.567C47.6143 237.567 47.5244 237.492 47.5019 237.387L44.2627 223.135L31.1686 219.677C31.0697 219.651 31 219.559 31 219.452C31 219.346 31.0652 219.253 31.1641 219.222L43.5186 215.621L47.5019 201.395C47.5289 201.294 47.6188 201.227 47.7177 201.227H47.7199C47.8211 201.227 47.9088 201.299 47.9335 201.402L51.5167 215.624L64.2668 219.225C64.3657 219.253 64.4331 219.346 64.4331 219.452C64.4331 219.557 64.3635 219.651 64.2645 219.677L51.4605 223.132L47.9357 237.389C47.911 237.492 47.8211 237.565 47.7177 237.565V237.567ZM32.097 219.438L44.5009 222.713C44.5819 222.734 44.6448 222.802 44.665 222.887L47.7267 236.356L51.0581 222.884C51.0783 222.802 51.1413 222.737 51.2199 222.716L63.3317 219.447L51.2739 216.04C51.1952 216.019 51.1368 215.956 51.1143 215.874L47.7042 202.339L43.9142 215.879C43.8918 215.956 43.8333 216.017 43.7591 216.038L32.097 219.438Z"
        fill="#DAC2FB" />
    <path
        d="M78.7644 31.6738L82.69 46.9625L96.6738 50.8358L82.629 54.5545L78.7644 69.8831L75.2098 54.5545L60.8525 50.8358L74.3993 46.9625L78.7644 31.6738Z"
        fill="#B27AFF" />
    <path
        d="M325.284 124.962L325.133 124.557C325.123 124.527 323.999 121.556 321.128 118.626C318.484 115.925 313.771 112.705 306.334 112.705H306.053L306.183 112.447C311.31 102.286 308.423 96.6869 306.697 93.3414C306.51 92.9793 306.334 92.6366 306.181 92.3169L306.06 92.0625H306.334C313.779 92.0625 318.495 88.8371 321.139 86.1309C324.006 83.1987 325.123 80.2382 325.133 80.2082L325.282 79.8037L325.45 80.2011C328.341 87.0636 332.854 90.017 336.132 91.2853C339.681 92.6595 342.573 92.4105 342.603 92.4069L342.997 92.3698L342.753 92.6913C342.735 92.7161 340.892 95.1731 339.981 98.7783C339.143 102.094 338.942 107.091 342.753 112.072L343 112.394L342.604 112.357C342.575 112.353 339.669 112.108 336.119 113.485C332.846 114.755 328.339 117.709 325.452 124.564L325.284 124.962ZM306.615 112.353C314.016 112.433 318.724 115.667 321.38 118.385C323.694 120.752 324.891 123.148 325.294 124.054C328.238 117.341 332.731 114.42 336.011 113.15C338.881 112.039 341.343 111.968 342.256 111.989C338.591 106.99 338.807 102.007 339.652 98.6776C340.397 95.7384 341.751 93.548 342.27 92.7761C341.371 92.7973 338.896 92.732 336.011 91.6156C332.731 90.3456 328.238 87.4239 325.294 80.7116C324.891 81.6178 323.694 84.013 321.38 86.38C318.723 89.0985 314.012 92.3345 306.611 92.4122C306.731 92.6542 306.862 92.9086 306.999 93.1736C308.741 96.5527 311.647 102.187 306.615 112.351V112.353Z"
        fill="black" />
    <path
        d="M71.3945 147.855L71.2353 147.513L70.863 147.572L64.9367 148.51C60.2767 149.248 55.8973 146.07 55.1588 141.406L50.8256 114.04C50.0871 109.375 53.2704 105 57.9303 104.262L131.235 92.6547C135.895 91.9168 140.274 95.0951 141.013 99.7594L145.346 127.126C146.084 131.786 142.906 136.165 138.241 136.903L85.875 145.195L85.5054 145.254L85.4573 145.625L83.869 157.894L83.8687 157.896L83.8641 157.923C83.8625 157.932 83.8606 157.943 83.8584 157.955C83.8543 157.977 83.8491 158.005 83.8427 158.037C83.8225 158.137 83.7903 158.283 83.7427 158.461C83.647 158.818 83.4915 159.294 83.2524 159.781C82.7673 160.769 81.991 161.698 80.7617 161.893C79.5336 162.088 78.5177 161.443 77.7608 160.653C77.3877 160.264 77.097 159.858 76.8991 159.548C76.8006 159.394 76.7262 159.265 76.6771 159.175C76.6526 159.131 76.6344 159.097 76.6228 159.074L76.6103 159.05L76.609 159.047L71.3945 147.855Z"
        fill="#DAC2FB" stroke="black" />
    <path
        d="M63.5439 127.731C64.4452 130.649 68.17 131.241 70.622 130.082C72.1219 129.373 73.3312 128.186 74.3848 126.93C75.5563 125.534 76.6066 124.022 77.5458 122.458C78.4851 120.893 79.3223 119.274 80.0332 117.596C80.6282 116.189 81.5668 114.414 80.5198 112.996C79.6213 111.778 77.9288 111.448 76.5118 111.677C74.9071 111.931 73.5076 112.891 72.401 114.048C70.1434 116.405 68.4573 119.953 68.5982 123.262C68.7303 126.251 70.8995 129.267 74.0954 129.294C75.8778 129.306 77.548 128.551 79.0449 127.646C80.5418 126.74 81.9959 125.683 83.3243 124.51C84.0052 123.912 84.6569 123.276 85.2769 122.617C85.8532 122.007 86.514 121.369 86.9576 120.659C87.2406 120.203 87.4421 119.498 87.0824 119.027C86.523 118.298 85.868 118.972 85.4106 119.418C84.2449 120.556 83.2903 121.875 82.5734 123.339C81.9269 124.657 81.05 126.585 82.4957 127.688C83.9414 128.791 85.6969 127.896 86.9971 127.017C88.5376 125.974 89.9725 124.766 91.2604 123.426C91.8787 122.786 92.4639 122.114 93.022 121.418C93.4429 120.889 92.6129 120.31 92.1824 120.808C91.3329 121.789 90.7388 122.995 90.5311 124.28C90.3466 125.417 90.9297 126.591 92.2328 126.38C92.7798 126.293 93.2694 125.992 93.7151 125.678C94.4043 125.19 95.0755 124.677 95.7586 124.181C97.1189 123.181 98.48 122.185 99.8403 121.185L98.9965 120.725C98.8626 121.886 98.2718 122.877 97.3283 123.559L98.1289 123.745C97.956 123.362 98.2903 123.024 98.6135 122.851C99.07 122.606 99.6138 122.735 100.085 122.88C100.807 123.102 101.496 123.38 102.253 123.466C103.557 123.615 104.898 123.524 106.204 123.42C107.795 123.29 109.381 123.09 110.957 122.836C114.644 122.243 118.326 121.65 122.012 121.057C123.421 120.834 124.833 120.601 126.242 120.378C126.903 120.274 126.74 119.248 126.079 119.352C122.497 119.929 118.916 120.505 115.329 121.083C112.108 121.602 108.884 122.197 105.626 122.427C104.073 122.538 102.501 122.614 101.009 122.102C100.05 121.768 98.9908 121.427 98.0461 121.983C97.2729 122.442 96.7879 123.303 97.1784 124.176C97.3223 124.495 97.711 124.559 97.979 124.363C99.1316 123.526 99.8597 122.252 100.019 120.839C100.072 120.372 99.531 120.117 99.1753 120.379C97.1364 121.874 95.1183 123.414 93.0501 124.872C92.7517 125.083 92.3106 125.396 91.923 125.368C91.3656 125.33 91.5112 124.597 91.5864 124.216C91.799 123.168 92.3174 122.222 93.0129 121.42L92.1732 120.81C91.077 122.18 89.8603 123.438 88.5195 124.561C87.8716 125.103 87.1959 125.617 86.5007 126.096C85.8055 126.575 84.8782 127.241 83.95 127.163C83.0218 127.086 82.5801 126.45 82.8004 125.57C82.9894 124.815 83.3385 124.069 83.7015 123.38C84.4636 121.937 85.509 120.659 86.7424 119.595L86.2227 119.677C86.1742 119.666 86.2779 119.612 86.2208 119.724C86.1853 119.795 86.1784 119.899 86.1398 119.98C86.0355 120.207 85.842 120.401 85.6849 120.589C85.3239 121.025 84.9517 121.449 84.5637 121.86C83.7516 122.723 82.8845 123.533 81.9761 124.289C80.258 125.715 78.3229 127.129 76.2042 127.885C74.0856 128.641 71.9887 128.207 70.6705 126.345C69.4439 124.619 69.4088 122.391 69.975 120.418C70.5716 118.342 71.6644 116.272 73.1809 114.723C74.5643 113.308 76.7265 112.059 78.7357 112.914C79.1615 113.094 79.5772 113.388 79.8022 113.806C80.0863 114.331 79.9457 114.919 79.7631 115.447C79.3823 116.555 78.9038 117.635 78.4028 118.691C77.41 120.773 76.2238 122.756 74.8641 124.616C73.5044 126.476 71.8319 128.634 69.5028 129.418C67.6166 130.049 65.1136 129.352 64.4814 127.307C64.2825 126.67 63.3418 127.104 63.5355 127.737L63.5439 127.731Z"
        fill="black" />
    <defs>
        <clipPath id="clip0_1123_20963">
            <rect width="82.3888" height="89.5531" fill="white"
                transform="translate(255.481 170.184)" />
        </clipPath>
        <clipPath id="clip1_1123_20963">
            <rect width="94.3292" height="76.4186" fill="white"
                transform="translate(64 308.17) rotate(-11.1061)" />
        </clipPath>
    </defs>
</svg>
    