<svg width="410" height="410" viewBox="0 0 410 410" fill="none" xmlns="http://www.w3.org/2000/svg">
    <rect width="410" height="410" fill="" />
    <path
        d="M331.489 195.524L291.675 219.342L305.668 243.482L333.326 243.012L331.489 195.524ZM331.489 195.524L305.841 243.16M303.068 248.31L289.423 223.526L294.057 265.047M303.068 248.31L331.246 246.875L294.057 265.047M303.068 248.31L294.057 265.047"
        stroke="white" />
    <g clip-path="url(#clip0_897_26074)">
        <path
            d="M295.837 383H213.624C210.874 382.997 208.238 381.889 206.294 379.918C204.35 377.947 203.256 375.275 203.253 372.488V308.173H204.013V372.488C204.016 375.071 205.03 377.547 206.832 379.373C208.633 381.199 211.076 382.226 213.624 382.229H295.837C297.529 382.227 299.152 381.545 300.348 380.332C301.545 379.119 302.218 377.475 302.22 375.76V325.154C302.218 323.439 301.545 321.795 300.348 320.582C299.152 319.369 297.529 318.687 295.837 318.685H243.031V317.914H295.837C297.731 317.916 299.547 318.68 300.886 320.037C302.225 321.394 302.978 323.235 302.98 325.154V375.76C302.978 377.679 302.225 379.52 300.886 380.877C299.547 382.235 297.731 382.998 295.837 383Z"
            fill="#FC774B" />
        <path
            d="M300.258 338.583H280.425C274.352 338.583 269.43 343.572 269.43 349.727V349.731C269.43 355.885 274.352 360.874 280.425 360.874H300.258C306.33 360.874 311.253 355.885 311.253 349.731V349.727C311.253 343.572 306.33 338.583 300.258 338.583Z"
            fill="#B27AFF" />
        <path
            d="M279.406 353.564C281.497 353.564 283.192 351.846 283.192 349.727C283.192 347.607 281.497 345.889 279.406 345.889C277.314 345.889 275.619 347.607 275.619 349.727C275.619 351.846 277.314 353.564 279.406 353.564Z"
            fill="black" />
        <path
            d="M240.89 351.434H213.624C210.874 351.431 208.238 350.322 206.294 348.351C204.35 346.381 203.256 343.709 203.253 340.922H204.013C204.016 343.504 205.03 345.98 206.832 347.807C208.633 349.633 211.076 350.66 213.624 350.663H240.89V351.434Z"
            fill="#FC774B" />
        <path
            d="M220.638 335.947H213.624C210.874 335.944 208.238 334.836 206.294 332.865C204.35 330.894 203.256 328.223 203.253 325.436H204.013C204.016 328.018 205.03 330.494 206.832 332.32C208.633 334.146 211.076 335.174 213.624 335.177H220.638V335.947Z"
            fill="#FC774B" />
        <path
            d="M215.955 366.758H213.624C210.874 366.755 208.238 365.646 206.294 363.676C204.35 361.705 203.256 359.033 203.253 356.246H204.013C204.016 358.829 205.03 361.305 206.832 363.131C208.633 364.957 211.076 365.984 213.624 365.987H215.955V366.758Z"
            fill="#FC774B" />
        <path
            d="M253.117 361.695H230.287L221.958 351.291L222.551 350.806L230.648 360.924H253.117V361.695Z"
            fill="#FC774B" />
        <path
            d="M302.6 319.783C302.6 318.491 302.094 317.252 301.193 316.339C300.292 315.425 299.069 314.912 297.795 314.912H213.396C212.522 314.914 211.656 314.741 210.848 314.403C210.04 314.065 209.306 313.568 208.687 312.942C208.068 312.316 207.577 311.573 207.243 310.755C206.908 309.936 206.735 309.059 206.735 308.173C206.735 306.475 207.401 304.847 208.585 303.647C209.769 302.447 211.375 301.772 213.05 301.772H297.795C298.426 301.772 299.051 301.899 299.635 302.144C300.218 302.389 300.748 302.748 301.194 303.2C301.64 303.653 301.994 304.19 302.235 304.782C302.477 305.373 302.601 306.007 302.6 306.647V319.783Z"
            fill="#FC774B" />
        <path
            d="M222.254 337.743C223.442 337.743 224.406 336.766 224.406 335.562C224.406 334.357 223.442 333.381 222.254 333.381C221.066 333.381 220.102 334.357 220.102 335.562C220.102 336.766 221.066 337.743 222.254 337.743Z"
            fill="#FC774B" />
        <path
            d="M240.875 353.229C242.063 353.229 243.027 352.253 243.027 351.048C243.027 349.844 242.063 348.867 240.875 348.867C239.687 348.867 238.723 349.844 238.723 351.048C238.723 352.253 239.687 353.229 240.875 353.229Z"
            fill="#FC774B" />
        <path
            d="M253.117 363.491C254.305 363.491 255.268 362.514 255.268 361.31C255.268 360.105 254.305 359.129 253.117 359.129C251.928 359.129 250.965 360.105 250.965 361.31C250.965 362.514 251.928 363.491 253.117 363.491Z"
            fill="#FC774B" />
        <path
            d="M215.955 368.554C217.143 368.554 218.106 367.578 218.106 366.373C218.106 365.169 217.143 364.192 215.955 364.192C214.766 364.192 213.803 365.169 213.803 366.373C213.803 367.578 214.766 368.554 215.955 368.554Z"
            fill="#FC774B" />
        <path
            d="M302.98 325.154H302.22V303.256C302.219 302.067 301.752 300.926 300.923 300.085C300.093 299.245 298.968 298.772 297.795 298.771H213.29C210.83 298.774 208.473 299.765 206.734 301.528C204.995 303.29 204.016 305.68 204.013 308.173C204.01 309.453 204.256 310.721 204.739 311.903C205.222 313.086 205.932 314.16 206.827 315.062C208.646 316.864 211.081 317.885 213.624 317.914H291.199V318.685H213.643C210.893 318.659 208.26 317.556 206.294 315.606C205.328 314.632 204.561 313.474 204.039 312.198C203.517 310.922 203.25 309.554 203.253 308.173C203.256 305.476 204.314 302.89 206.196 300.983C208.078 299.076 210.629 298.003 213.29 298H297.795C299.169 298.002 300.487 298.556 301.459 299.542C302.431 300.527 302.978 301.863 302.98 303.256V325.154Z"
            fill="#FC774B" />
    </g>
    <path d="M342.662 92.3614L323.38 75.001L323 75.4234L342.282 92.7838L342.662 92.3614Z"
        fill="black" />
    <path
        d="M301.545 144.164L301.221 133.617L282.268 116.553C280.172 114.66 278.911 112.014 278.764 109.193C278.616 106.373 279.593 103.609 281.481 101.508L299.625 81.3559L299.271 69.8906L314.151 70.1102C314.504 70.0974 314.857 70.1031 315.21 70.1271L315.81 70.1319L315.774 70.172C317.957 70.4204 320.008 71.3466 321.638 72.8204L321.257 73.2428C319.591 71.7364 317.465 70.8368 315.223 70.6898L315.161 70.6871C314.807 70.6553 314.484 70.6623 314.156 70.6734L299.863 70.4733L300.199 81.5673L281.903 101.889C280.116 103.878 279.191 106.495 279.332 109.165C279.472 111.835 280.665 114.341 282.65 116.132L301.783 133.358L302.107 143.615L316.572 143.82L317.041 143.83C318.495 143.864 319.939 143.582 321.275 143.006C322.61 142.429 323.804 141.57 324.776 140.488L349.887 112.598C351.674 110.608 352.599 107.992 352.459 105.321C352.319 102.651 351.125 100.145 349.14 98.354L347.619 96.985L348 96.5626L349.52 97.9316C351.618 99.8239 352.878 102.471 353.026 105.292C353.174 108.112 352.197 110.877 350.309 112.978L325.199 140.869C324.218 141.952 323.025 142.822 321.694 143.424C320.362 144.026 318.921 144.347 317.46 144.367L316.997 144.364L301.545 144.164Z"
        fill="black" />
    <path
        d="M333.236 97.9369L305.345 72.8261C301.089 68.9941 294.532 69.3381 290.7 73.5943L265.59 101.485C261.758 105.741 262.101 112.298 266.358 116.13L294.248 141.241C298.505 145.073 305.062 144.729 308.894 140.473L334.004 112.582C337.836 108.326 337.492 101.769 333.236 97.9369Z"
        fill="#EFE4FF" />
    <path
        d="M294.058 141.452L266.167 116.341C264.071 114.449 262.81 111.802 262.662 108.981C262.514 106.161 263.491 103.396 265.378 101.295L290.489 73.4041C292.381 71.3076 295.028 70.0471 297.849 69.8992C300.669 69.7512 303.434 70.7279 305.535 72.6149L333.426 97.7257C335.519 99.6193 336.776 102.265 336.923 105.084C337.069 107.903 336.092 110.664 334.207 112.764L309.096 140.655C307.205 142.75 304.56 144.011 301.741 144.16C298.923 144.309 296.16 143.336 294.058 141.452ZM305.147 73.0458C303.159 71.2602 300.545 70.3353 297.877 70.4737C295.208 70.6122 292.703 71.8027 290.911 73.7844L265.8 101.675C264.013 103.664 263.089 106.281 263.229 108.951C263.369 111.622 264.562 114.127 266.547 115.919L294.438 141.03C296.428 142.813 299.043 143.735 301.712 143.593C304.38 143.452 306.883 142.259 308.673 140.275L333.784 112.384C335.571 110.395 336.496 107.778 336.356 105.108C336.216 102.438 335.022 99.9319 333.037 98.1405L305.147 73.0458Z"
        fill="black" />
    <path
        d="M306.168 107.764C306.794 107.07 307.223 106.22 307.409 105.304C307.595 104.388 307.532 103.438 307.226 102.555C306.921 101.671 306.383 100.886 305.67 100.281C304.957 99.6758 304.095 99.2733 303.173 99.1153C302.252 98.9572 301.305 99.0495 300.431 99.3824C299.557 99.7153 298.789 100.277 298.206 101.008C297.623 101.739 297.247 102.613 297.118 103.539C296.988 104.465 297.109 105.409 297.469 106.272L291.797 112.572C291.406 113.008 291.204 113.582 291.234 114.167C291.265 114.752 291.526 115.301 291.961 115.695L292.005 115.734C292.441 116.125 293.015 116.328 293.6 116.297C294.185 116.266 294.734 116.005 295.127 115.571L300.8 109.271C301.745 109.554 302.752 109.562 303.702 109.295C304.652 109.029 305.507 108.497 306.168 107.764Z"
        fill="black" />
    <path
        d="M351.737 61.8626C359.857 69.1737 360.571 81.6705 353.346 89.696L343.798 100.3L340.269 100.182L334.752 95.2149C335.758 94.3573 337.492 93.4755 339.453 92.4873C343.613 90.3896 348.813 87.7565 350.93 83.3151C351.75 81.598 350.506 78.2102 349.417 75.2268C348.819 73.6021 348.193 71.9145 348.262 71.3032C348.432 69.453 348.017 68.0622 347.018 67.1628L346.972 67.121C344.494 64.9728 341.272 63.882 337.998 64.0827C334.725 64.2833 331.661 65.7595 329.463 68.1942L319.916 78.7985L316.386 78.6798L310.838 73.6846C311.131 73.3594 311.432 73.0257 311.738 72.6856C317.905 65.7721 326.351 56.3062 335.967 56.9106C336.271 56.9288 336.666 56.9322 337.119 56.9346C340.099 56.9675 346.341 57.0043 351.737 61.8626ZM352.117 61.4402C345.733 55.692 338.213 56.497 335.984 56.3563C325.387 55.6907 316.211 66.851 310.012 73.736L316.137 79.2502L320.146 79.376L329.877 68.5669C331.976 66.245 334.901 64.8382 338.025 64.6484C341.15 64.4586 344.224 65.5009 346.588 67.5516L346.626 67.5858C347.53 68.3996 347.824 69.6741 347.677 71.2473C347.499 73.1441 351.587 80.5984 350.413 83.0747C347.233 89.737 336.559 92.2909 333.9 95.2435L340.025 100.758L344.032 100.882L353.764 90.0725C361.257 81.7492 360.453 68.9453 352.113 61.4364L352.117 61.4402Z"
        fill="black" />
    <path
        d="M342.763 67.2721L342.762 67.2718C340.339 65.1697 337.187 64.1012 333.985 64.2958C330.782 64.4904 327.784 65.9325 325.632 68.3126L325.632 68.3131L316.109 78.8907L310.43 73.778L319.774 63.3988C327.095 55.2679 339.683 54.3602 347.888 61.6043C349.856 63.3443 351.46 65.4566 352.608 67.8194C353.756 70.1823 354.425 72.749 354.576 75.3716C354.727 77.9942 354.358 80.6208 353.49 83.1C352.621 85.5793 351.271 87.8622 349.516 89.8171L339.987 100.401L334.308 95.288L343.689 84.8687C348.271 79.7796 347.94 71.7762 342.763 67.2721Z"
        fill="#B27AFF" stroke="black" stroke-width="0.6" />
    <g clip-path="url(#clip1_897_26074)">
        <path
            d="M84.4008 59.4727L79.8868 67.5814L84.0549 75.21L76.8214 70.7437L69.1051 75.5257L73.7886 67.5607L69.4058 59.8357L76.4967 64.022L84.4008 59.4727Z"
            fill="#DAC2FB" />
        <path
            d="M69.1051 75.6742C69.0684 75.6742 69.0317 75.6594 69.0048 75.6298C68.9596 75.5809 68.9512 75.5068 68.9851 75.4475L73.6233 67.5581L69.2844 59.9116C69.2519 59.8539 69.2604 59.7798 69.3042 59.7323C69.3479 59.6849 69.4185 59.6731 69.475 59.7072L76.4981 63.8534L84.3344 59.3426C84.3909 59.31 84.4587 59.3219 84.5039 59.3693C84.5476 59.4167 84.5561 59.4893 84.525 59.5471L80.052 67.5818L84.1791 75.1363C84.2116 75.1941 84.2017 75.2682 84.1565 75.3156C84.1113 75.363 84.0407 75.3719 83.9857 75.3378L76.8242 70.916L69.1785 75.6535C69.1559 75.6668 69.1319 75.6742 69.1065 75.6742H69.1051ZM69.7969 60.2377L73.9085 67.4855C73.9354 67.5329 73.9354 67.5921 73.9085 67.6396L69.5244 75.0948L76.7494 70.6181C76.7932 70.5914 76.8482 70.59 76.8934 70.6181L83.668 74.8014L79.7653 67.6573C79.7399 67.6114 79.7399 67.5551 79.7653 67.5092L84.0224 59.8627L76.5644 64.1557C76.5221 64.1809 76.4698 64.1794 76.4275 64.1557L69.7969 60.2377Z"
            fill="#DAC2FB" />
        <path
            d="M76.7537 56.1484L79.0241 65.2323L87.1118 67.5336L78.9874 69.7431L76.7537 78.8506L74.6979 69.7431L66.3942 67.5336L74.2291 65.2323L76.7537 56.1484Z"
            fill="#DAC2FB" />
        <path
            d="M76.7536 79C76.6887 79 76.6322 78.9526 76.6181 78.8859L74.5835 69.8658L66.3588 67.6771C66.2967 67.6608 66.2529 67.603 66.2529 67.5348C66.2529 67.4681 66.2939 67.4089 66.356 67.3896L74.1161 65.1105L76.6181 56.1067C76.635 56.043 76.6915 56 76.7536 56H76.755C76.8186 56 76.8737 56.0459 76.8892 56.1111L79.1398 65.112L87.1484 67.3911C87.2106 67.4089 87.2529 67.4681 87.2529 67.5348C87.2529 67.6015 87.2092 67.6608 87.147 67.6771L79.1045 69.8643L76.8906 78.8874C76.8751 78.9526 76.8186 78.9985 76.7536 78.9985V79ZM66.942 67.5259L74.7331 69.5991C74.784 69.6124 74.8235 69.6554 74.8362 69.7087L76.7593 78.2339L78.8518 69.7072C78.8645 69.6554 78.904 69.6139 78.9535 69.6005L86.5611 67.5319L78.9873 65.3757C78.9379 65.3624 78.9012 65.3224 78.8871 65.2705L76.7452 56.7039L74.3646 65.2735C74.3505 65.3224 74.3138 65.3609 74.2672 65.3743L66.942 67.5259Z"
            fill="#DAC2FB" />
    </g>
    <g clip-path="url(#clip2_897_26074)">
        <path
            d="M69.2537 345.161L71.8485 355.035L81.0916 357.537L71.8082 359.939L69.2537 369.839L66.9043 359.939L57.4143 357.537L66.3685 355.035L69.2537 345.161Z"
            fill="#B27AFF" />
        <path
            d="M69.2537 370C69.1795 370 69.115 369.948 69.0988 369.876L66.7735 360.071L57.374 357.693C57.303 357.676 57.2529 357.613 57.2529 357.539C57.2529 357.466 57.2997 357.402 57.3707 357.381L66.2394 354.903L69.0988 345.116C69.1182 345.047 69.1827 345 69.2537 345H69.2554C69.328 345 69.3909 345.05 69.4086 345.121L71.9808 354.905L81.1335 357.382C81.2045 357.402 81.2529 357.466 81.2529 357.539C81.2529 357.611 81.2029 357.676 81.1319 357.693L71.9389 360.071L69.4086 369.879C69.3909 369.95 69.3264 370 69.2521 370H69.2537ZM58.0404 357.529L66.9446 359.783C67.0027 359.797 67.0479 359.844 67.0624 359.902L69.2602 369.169L71.6516 359.9C71.6662 359.844 71.7113 359.799 71.7678 359.784L80.4622 357.535L71.8066 355.192C71.7501 355.177 71.7081 355.134 71.692 355.077L69.2441 345.765L66.5234 355.081C66.5073 355.134 66.4653 355.176 66.4121 355.19L58.0404 357.529Z"
            fill="#B27AFF" />
    </g>
    <g clip-path="url(#clip3_897_26074)">
        <path
            d="M344.329 327.799H335.554C335.41 327.799 335.286 327.697 335.259 327.556C335.232 327.414 335.307 327.273 335.44 327.219C346.9 322.513 347.943 310.4 347.952 310.28C347.964 310.117 348.099 309.988 348.262 310.003C348.425 310.009 348.551 310.141 348.551 310.304V320.976C348.551 321.142 348.416 321.277 348.25 321.277C348.084 321.277 347.949 321.142 347.949 320.976V313.407C346.909 317.232 344.142 323.677 336.956 327.198H344.326C344.491 327.198 344.627 327.333 344.627 327.499C344.627 327.664 344.491 327.799 344.326 327.799H344.329Z"
            fill="#B27AFF" />
        <path
            d="M348.253 345C348.253 345 348.244 345 348.241 345C348.078 344.994 347.952 344.862 347.952 344.7V334.027C347.952 333.862 348.087 333.727 348.253 333.727C348.419 333.727 348.554 333.862 348.554 334.027V341.593C349.594 337.768 352.361 331.324 359.55 327.803H352.18C352.015 327.803 351.879 327.667 351.879 327.502C351.879 327.336 352.015 327.201 352.18 327.201H360.955C361.099 327.201 361.223 327.303 361.25 327.445C361.277 327.586 361.202 327.727 361.069 327.782C349.609 332.491 348.566 344.603 348.557 344.724C348.545 344.88 348.413 345 348.256 345H348.253Z"
            fill="#B27AFF" />
    </g>
    <g clip-path="url(#clip4_897_26074)">
        <path
            d="M154.083 302.426C170.082 293.248 162.431 249.863 136.994 205.524C111.557 161.184 77.967 132.68 61.9683 141.858C45.9695 151.036 53.6206 194.421 79.0575 238.761C104.494 283.1 138.084 311.604 154.083 302.426Z"
            fill="#FF543D" stroke="#15161B" stroke-width="0.5" />
        <path
            d="M174.119 221.97L97.5928 265.871C97.5928 265.871 91.9365 260.098 79.7029 238.773C67.4692 217.448 65.3406 209.651 65.3406 209.651L141.866 165.75L174.119 221.97Z"
            fill="#FFB197" />
        <path
            d="M174.616 222.11L97.5347 266.33L97.3361 266.129C97.2787 266.073 91.507 260.077 79.389 238.953C67.2711 217.83 65.01 209.824 64.9885 209.743L64.9154 209.47L141.997 165.25L174.616 222.11ZM97.6571 265.409L173.621 221.83L141.736 166.25L65.7722 209.829C66.2667 211.375 69.1822 219.707 80.0167 238.593C90.8513 257.479 96.5726 264.202 97.6571 265.409Z"
            fill="black" />
        <path
            d="M144.46 187.721C144.46 187.721 133.116 158.08 145.014 139.088C155.348 119.445 157.209 115.243 156.303 107.723C155.399 100.206 154.716 86.0585 164.097 84.5735C173.477 83.0886 177.999 99.3177 178.235 106.783C178.472 114.249 173.384 128.423 172.468 133.858C171.552 139.292 174.191 140.037 176.423 139.842C178.655 139.646 206.007 125.694 211.498 133.404C216.989 141.114 212.383 148.151 212.383 148.151C212.383 148.151 213.348 190.522 217.958 191.135C222.569 191.749 252.259 170.913 259.743 182.474C267.226 194.035 251.438 203.024 237.8 206.722C224.159 210.421 182.935 237.329 160.494 213.059"
            fill="#FFB197" />
        <path
            d="M251.628 201.546C247.413 203.964 242.47 205.839 237.896 207.08C235.116 207.833 231.098 209.598 226.439 211.641C208.407 219.548 178.233 232.783 160.225 213.312L160.753 212.814C168.513 221.208 179.112 224.231 193.157 222.057C205.045 220.217 217.24 214.868 226.142 210.965C230.825 208.912 234.871 207.136 237.697 206.369C247.124 203.816 258.127 198.558 260.741 191.473C261.798 188.604 261.36 185.644 259.438 182.671C254.387 174.87 238.415 182.557 227.841 187.64C222.948 189.997 219.414 191.696 217.915 191.497C216.55 191.315 214.562 188.831 213.077 169.431C212.268 158.873 212.02 148.253 212.018 148.148L212.016 148.035L212.078 147.94C212.26 147.661 216.475 141.018 211.204 133.612C207.051 127.776 188.75 135.314 180.936 138.534C178.271 139.633 176.967 140.16 176.459 140.205C174.894 140.341 173.707 139.98 172.934 139.135C171.968 138.076 171.69 136.275 172.11 133.788C172.422 131.946 173.194 129.155 174.091 125.918C175.845 119.581 178.031 111.692 177.874 106.787C177.696 101.177 175.105 90.9228 170.105 86.7299C168.285 85.2005 166.284 84.5999 164.162 84.9366C155.867 86.2545 155.505 98.0365 156.665 107.686C157.576 115.259 155.788 119.398 145.336 139.266C133.657 157.911 144.688 187.297 144.8 187.595L144.123 187.847C144.094 187.774 141.256 180.282 139.917 170.569C138.678 161.581 138.502 148.789 144.706 138.887C155.057 119.214 156.83 115.121 155.944 107.76C154.224 93.4625 157.023 85.3187 164.037 84.2089C166.376 83.8367 168.573 84.4951 170.567 86.1673C175.741 90.5112 178.423 101.032 178.603 106.778C178.762 111.796 176.56 119.745 174.791 126.129C173.9 129.345 173.132 132.121 172.827 133.925C172.447 136.177 172.661 137.764 173.465 138.643C174.073 139.31 175.057 139.593 176.387 139.476C176.808 139.439 178.59 138.706 180.654 137.853C189.302 134.292 207.3 126.88 211.794 133.193C217.011 140.52 213.286 147.348 212.751 148.255C212.778 149.401 213.043 159.424 213.807 169.395C215.262 188.378 217.226 190.667 218.005 190.774C219.29 190.942 223.105 189.107 227.527 186.983C238.328 181.786 254.647 173.934 260.049 182.282C262.107 185.462 262.573 188.644 261.426 191.744C260.01 195.585 256.259 198.894 251.633 201.548L251.628 201.546Z"
            fill="black" />
        <path
            d="M210.756 171.29C210.756 171.29 185.391 185.987 190.696 195.977C196.002 205.967 211.956 195.529 219.664 189.784C227.372 184.039 242.081 174.282 222.854 159.722"
            fill="#FFB197" />
        <path
            d="M211.163 195.877C205.627 199.053 199.855 201.267 195.525 200.241C193.27 199.706 191.538 198.33 190.375 196.143C184.966 185.957 209.523 171.576 210.571 170.966L210.938 171.606C210.69 171.748 185.936 186.239 191.014 195.802C192.069 197.787 193.638 199.039 195.677 199.524C202.14 201.053 212.168 194.909 219.443 189.485C219.735 189.266 220.035 189.048 220.343 188.815C225.264 185.176 232.004 180.186 231.97 173.642C231.948 169.269 228.807 164.682 222.635 160.008L223.064 159.426C229.43 164.248 232.671 169.033 232.694 173.652C232.732 180.568 225.821 185.682 220.778 189.412C220.47 189.64 220.169 189.864 219.879 190.077C217.238 192.047 214.232 194.108 211.156 195.872L211.163 195.877Z"
            fill="black" />
        <path
            d="M185.812 167.437C182.304 171.393 180.153 175.664 182.09 179.309C187.395 189.299 203.349 178.861 211.058 173.116C218.766 167.371 233.475 157.614 214.247 143.054"
            fill="#FFB197" />
        <path
            d="M202.56 179.208C197.023 182.384 191.252 184.597 186.922 183.572C184.667 183.037 182.935 181.661 181.772 179.474C179.998 176.135 181.267 172 185.538 167.185L186.085 167.679C182.034 172.245 180.798 176.097 182.412 179.136C183.468 181.121 185.037 182.373 187.076 182.858C193.538 184.387 203.566 178.243 210.841 172.819C211.133 172.6 211.433 172.382 211.742 172.149C216.662 168.51 223.402 163.52 223.369 156.976C223.346 152.603 220.205 148.016 214.033 143.342L214.462 142.76C220.828 147.582 224.07 152.367 224.092 156.986C224.13 163.902 217.219 169.016 212.176 172.746C211.869 172.974 211.568 173.198 211.277 173.411C208.636 175.381 205.63 177.442 202.558 179.205L202.56 179.208Z"
            fill="black" />
        <path
            d="M193.957 164.227C188.847 167.158 182.887 169.603 178.39 168.576C176.084 168.048 174.324 166.659 173.146 164.447C167.737 154.261 192.294 139.879 193.342 139.27L193.709 139.91C193.461 140.052 168.707 154.542 173.785 164.106C174.852 166.118 176.453 167.382 178.537 167.858C185.888 169.541 197.54 161.376 202.206 157.789C210.506 151.411 217.406 144.169 211.757 134.461L212.385 134.101C218.331 144.327 210.804 152.112 202.651 158.376C200.695 159.881 197.53 162.173 193.952 164.226L193.957 164.227Z"
            fill="black" />
        <path d="M142.449 209.375L111.999 226.844L112.366 227.484L142.816 210.015L142.449 209.375Z"
            fill="black" />
    </g>
    <path
        d="M228.708 78.9052C227.745 78.9044 226.798 78.6561 225.958 78.1843L207.145 67.7001C206.269 67.2118 205.539 66.4989 205.03 65.635C204.522 64.7711 204.254 63.7875 204.253 62.7855V42.1186C204.254 41.1167 204.522 40.1331 205.03 39.2692C205.539 38.4053 206.269 37.6924 207.145 37.204L225.958 26.7198C226.797 26.2479 227.744 26 228.706 26C229.669 26 230.616 26.2479 231.454 26.7198L250.271 37.204C251.147 37.6931 251.876 38.4062 252.384 39.27C252.891 40.1338 253.159 41.1171 253.16 42.1186V62.7855C253.159 63.787 252.891 64.7703 252.384 65.6341C251.876 66.4979 251.147 67.211 250.271 67.7001L231.454 78.1843C230.616 78.6561 229.67 78.9044 228.708 78.9052ZM228.708 26.6956C227.864 26.6956 227.035 26.9116 226.299 27.3229L207.482 37.8106C206.714 38.2389 206.074 38.8638 205.629 39.6211C205.183 40.3783 204.948 41.2405 204.947 42.1186V62.7855C204.948 63.6638 205.183 64.526 205.628 65.2833C206.074 66.0406 206.713 66.6656 207.482 67.0936L226.299 77.5813C227.035 77.9935 227.864 78.2101 228.708 78.2101C229.552 78.2101 230.382 77.9935 231.118 77.5813L249.935 67.0936C250.702 66.6654 251.342 66.0403 251.787 65.283C252.232 64.5257 252.466 63.6635 252.465 62.7855V42.1186C252.465 41.2408 252.231 40.3789 251.786 39.6217C251.341 38.8645 250.702 38.2393 249.935 37.8106L231.118 27.3264C230.381 26.9143 229.552 26.6971 228.708 26.6956Z"
        fill="#B27AFF" />
    <path
        d="M218.803 60.2236C218.743 60.2236 218.684 60.2079 218.631 60.1781C218.579 60.1484 218.535 60.1055 218.504 60.0538L211.741 48.7551V59.877C211.741 59.9689 211.705 60.0571 211.64 60.1221C211.575 60.1871 211.486 60.2236 211.394 60.2236C211.302 60.2236 211.214 60.1871 211.149 60.1221C211.084 60.0571 211.047 59.9689 211.047 59.877V47.497C211.047 47.421 211.072 47.3472 211.118 47.2868C211.164 47.2265 211.229 47.1829 211.302 47.1628C211.376 47.1427 211.454 47.1473 211.524 47.1757C211.595 47.2041 211.654 47.2549 211.693 47.3202L218.456 58.6189V47.497C218.456 47.4051 218.492 47.3169 218.558 47.2519C218.623 47.1869 218.711 47.1504 218.803 47.1504C218.895 47.1504 218.983 47.1869 219.049 47.2519C219.114 47.3169 219.15 47.4051 219.15 47.497V59.877C219.153 59.9548 219.13 60.0313 219.084 60.0942C219.038 60.157 218.972 60.2026 218.897 60.2236C218.866 60.2286 218.834 60.2286 218.803 60.2236Z"
        fill="#B27AFF" />
    <path
        d="M226.132 60.2236C226.04 60.2236 225.952 60.1871 225.887 60.1221C225.821 60.0571 225.785 59.9689 225.785 59.877V47.497C225.785 47.4051 225.821 47.3169 225.887 47.2519C225.952 47.1869 226.04 47.1504 226.132 47.1504H232.413C232.505 47.1504 232.593 47.1869 232.658 47.2519C232.723 47.3169 232.76 47.4051 232.76 47.497C232.76 47.5889 232.723 47.6771 232.658 47.742C232.593 47.807 232.505 47.8436 232.413 47.8436H226.479V59.877C226.479 59.9689 226.443 60.0571 226.378 60.1221C226.312 60.1871 226.224 60.2236 226.132 60.2236Z"
        fill="#B27AFF" />
    <path
        d="M230.937 54.0301H226.132C226.04 54.0301 225.952 53.9936 225.887 53.9286C225.821 53.8636 225.785 53.7754 225.785 53.6835C225.785 53.5916 225.821 53.5034 225.887 53.4384C225.952 53.3734 226.04 53.3369 226.132 53.3369H230.937C231.029 53.3369 231.117 53.3734 231.183 53.4384C231.248 53.5034 231.284 53.5916 231.284 53.6835C231.284 53.7754 231.248 53.8636 231.183 53.9286C231.117 53.9936 231.029 54.0301 230.937 54.0301Z"
        fill="#B27AFF" />
    <path
        d="M246.018 47.8436H236.839C236.747 47.8436 236.659 47.807 236.594 47.742C236.528 47.6771 236.492 47.5889 236.492 47.497C236.492 47.4051 236.528 47.3169 236.594 47.2519C236.659 47.1869 236.747 47.1504 236.839 47.1504H246.018C246.11 47.1504 246.199 47.1869 246.264 47.2519C246.329 47.3169 246.366 47.4051 246.366 47.497C246.366 47.5889 246.329 47.6771 246.264 47.742C246.199 47.807 246.11 47.8436 246.018 47.8436Z"
        fill="#B27AFF" />
    <path
        d="M241.429 60.2236C241.337 60.2236 241.248 60.1871 241.183 60.1221C241.118 60.0571 241.081 59.9689 241.081 59.877V47.497C241.081 47.4051 241.118 47.3169 241.183 47.2519C241.248 47.1869 241.337 47.1504 241.429 47.1504C241.521 47.1504 241.609 47.1869 241.674 47.2519C241.739 47.3169 241.776 47.4051 241.776 47.497V59.877C241.776 59.9689 241.739 60.0571 241.674 60.1221C241.609 60.1871 241.521 60.2236 241.429 60.2236Z"
        fill="#B27AFF" />
    <defs>
        <clipPath id="clip0_897_26074">
            <rect width="108" height="85" fill="white" transform="translate(203.253 298)" />
        </clipPath>
        <clipPath id="clip1_897_26074">
            <rect width="21" height="23" fill="white" transform="translate(66.2529 56)" />
        </clipPath>
        <clipPath id="clip2_897_26074">
            <rect width="24" height="25" fill="white" transform="translate(57.2529 345)" />
        </clipPath>
        <clipPath id="clip3_897_26074">
            <rect width="26" height="35" fill="white" transform="translate(335.253 310)" />
        </clipPath>
        <clipPath id="clip4_897_26074">
            <rect width="185.114" height="185.114" fill="white"
                transform="translate(33 158.477) rotate(-29.8421)" />
        </clipPath>
    </defs>
</svg>
    