<svg width="390" height="410" viewBox="0 0 390 410" fill="none" xmlns="http://www.w3.org/2000/svg">
    <rect width="390" height="410" fill="" />
    <path
        d="M319.236 191.524L279.422 215.342L293.415 239.482L321.073 239.012L319.236 191.524ZM319.236 191.524L293.588 239.16M290.815 244.31L277.17 219.526L281.804 261.047M290.815 244.31L318.993 242.875L281.804 261.047M290.815 244.31L281.804 261.047"
        stroke="white" stroke-width="0.3" />
    <g clip-path="url(#clip0_897_26075)">
        <path
            d="M283.584 379H201.371C198.621 378.997 195.985 377.889 194.041 375.918C192.097 373.947 191.003 371.275 191 368.488V304.173H191.76V368.488C191.763 371.071 192.777 373.547 194.579 375.373C196.38 377.199 198.823 378.226 201.371 378.229H283.584C285.276 378.227 286.899 377.545 288.095 376.332C289.292 375.119 289.965 373.475 289.967 371.76V321.154C289.965 319.439 289.292 317.795 288.095 316.582C286.899 315.369 285.276 314.687 283.584 314.685H230.778V313.914H283.584C285.478 313.916 287.294 314.68 288.633 316.037C289.972 317.394 290.725 319.235 290.727 321.154V371.76C290.725 373.679 289.972 375.52 288.633 376.877C287.294 378.235 285.478 378.998 283.584 379Z"
            fill="white" />
        <path
            d="M288.005 334.583H268.172C262.099 334.583 257.177 339.572 257.177 345.727V345.731C257.177 351.885 262.099 356.874 268.172 356.874H288.005C294.078 356.874 299 351.885 299 345.731V345.727C299 339.572 294.078 334.583 288.005 334.583Z"
            fill="#B27AFF" />
        <path
            d="M267.153 349.564C269.244 349.564 270.939 347.846 270.939 345.727C270.939 343.607 269.244 341.889 267.153 341.889C265.061 341.889 263.366 343.607 263.366 345.727C263.366 347.846 265.061 349.564 267.153 349.564Z"
            fill="black" />
        <path
            d="M228.637 347.434H201.371C198.621 347.431 195.985 346.322 194.041 344.351C192.097 342.381 191.003 339.709 191 336.922H191.76C191.763 339.504 192.777 341.98 194.579 343.807C196.38 345.633 198.823 346.66 201.371 346.663H228.637V347.434Z"
            fill="white" />
        <path
            d="M208.385 331.947H201.371C198.621 331.944 195.985 330.836 194.041 328.865C192.097 326.894 191.003 324.223 191 321.436H191.76C191.763 324.018 192.777 326.494 194.579 328.32C196.38 330.146 198.823 331.174 201.371 331.177H208.385V331.947Z"
            fill="white" />
        <path
            d="M203.702 362.758H201.371C198.621 362.755 195.985 361.646 194.041 359.676C192.097 357.705 191.003 355.033 191 352.246H191.76C191.763 354.829 192.777 357.305 194.579 359.131C196.38 360.957 198.823 361.984 201.371 361.987H203.702V362.758Z"
            fill="white" />
        <path
            d="M240.864 357.695H218.034L209.705 347.291L210.298 346.806L218.395 356.924H240.864V357.695Z"
            fill="white" />
        <path
            d="M290.347 315.783C290.347 314.491 289.841 313.252 288.94 312.339C288.039 311.425 286.816 310.912 285.542 310.912H201.143C200.269 310.914 199.403 310.741 198.595 310.403C197.787 310.065 197.053 309.568 196.434 308.942C195.815 308.316 195.325 307.573 194.99 306.755C194.655 305.936 194.482 305.059 194.482 304.173C194.482 302.475 195.148 300.847 196.332 299.647C197.516 298.447 199.122 297.772 200.797 297.772H285.542C286.173 297.772 286.798 297.899 287.382 298.144C287.965 298.389 288.495 298.748 288.941 299.2C289.387 299.653 289.741 300.19 289.983 300.782C290.224 301.373 290.348 302.007 290.347 302.647V315.783Z"
            fill="#FC774B" />
        <path
            d="M210.001 333.743C211.19 333.743 212.153 332.766 212.153 331.562C212.153 330.357 211.19 329.381 210.001 329.381C208.813 329.381 207.849 330.357 207.849 331.562C207.849 332.766 208.813 333.743 210.001 333.743Z"
            fill="white" />
        <path
            d="M228.622 349.229C229.81 349.229 230.774 348.253 230.774 347.048C230.774 345.844 229.81 344.867 228.622 344.867C227.434 344.867 226.47 345.844 226.47 347.048C226.47 348.253 227.434 349.229 228.622 349.229Z"
            fill="white" />
        <path
            d="M240.864 359.491C242.052 359.491 243.015 358.514 243.015 357.31C243.015 356.105 242.052 355.129 240.864 355.129C239.675 355.129 238.712 356.105 238.712 357.31C238.712 358.514 239.675 359.491 240.864 359.491Z"
            fill="white" />
        <path
            d="M203.702 364.554C204.89 364.554 205.853 363.578 205.853 362.373C205.853 361.169 204.89 360.192 203.702 360.192C202.513 360.192 201.55 361.169 201.55 362.373C201.55 363.578 202.513 364.554 203.702 364.554Z"
            fill="white" />
        <path
            d="M290.727 321.154H289.967V299.256C289.966 298.067 289.5 296.926 288.67 296.085C287.84 295.245 286.715 294.772 285.542 294.771H201.037C198.577 294.774 196.22 295.765 194.481 297.528C192.742 299.29 191.763 301.68 191.76 304.173C191.757 305.453 192.003 306.721 192.486 307.903C192.969 309.086 193.679 310.16 194.574 311.062C196.393 312.864 198.828 313.885 201.371 313.914H278.946V314.685H201.39C198.64 314.659 196.007 313.556 194.041 311.606C193.075 310.632 192.308 309.474 191.786 308.198C191.264 306.922 190.997 305.554 191 304.173C191.003 301.476 192.061 298.89 193.943 296.983C195.825 295.076 198.376 294.003 201.037 294H285.542C286.917 294.002 288.234 294.556 289.206 295.542C290.178 296.527 290.725 297.863 290.727 299.256V321.154Z"
            fill="white" />
    </g>
    <path d="M330.368 88.6133L311.086 71.2529L310.706 71.6753L329.988 89.0357L330.368 88.6133Z"
        fill="white" />
    <path
        d="M288.296 140.16L287.972 129.613L269.019 112.549C266.923 110.657 265.662 108.01 265.515 105.189C265.367 102.369 266.344 99.6054 268.232 97.5045L286.376 77.352L286.022 65.8867L300.902 66.1063C301.255 66.0935 301.608 66.0992 301.961 66.1232L302.561 66.128L302.525 66.1681C304.708 66.4165 306.759 67.3427 308.389 68.8165L308.008 69.2389C306.342 67.7325 304.216 66.8329 301.974 66.6859L301.912 66.6832C301.558 66.6514 301.235 66.6583 300.907 66.6695L286.614 66.4694L286.95 77.5634L268.654 97.8848C266.867 99.874 265.942 102.491 266.082 105.161C266.223 107.831 267.416 110.337 269.401 112.128L288.534 129.354L288.858 139.611L303.323 139.817L303.792 139.826C305.246 139.86 306.69 139.579 308.026 139.002C309.361 138.425 310.555 137.566 311.527 136.485L336.638 108.594C338.425 106.605 339.35 103.988 339.21 101.317C339.07 98.6472 337.876 96.1415 335.891 94.3501L334.37 92.9811L334.751 92.5587L336.271 93.9277C338.369 95.82 339.629 98.4669 339.777 101.288C339.925 104.109 338.948 106.873 337.06 108.974L311.95 136.865C310.969 137.948 309.776 138.818 308.445 139.42C307.113 140.022 305.672 140.343 304.211 140.364L303.748 140.36L288.296 140.16Z"
        fill="white" />
    <path
        d="M320.987 93.932L293.096 68.8213C288.84 64.9893 282.283 65.3332 278.451 69.5894L253.34 97.4801C249.508 101.736 249.852 108.293 254.109 112.125L281.999 137.236C286.256 141.068 292.812 140.724 296.644 136.468L321.755 108.577C325.587 104.321 325.243 97.764 320.987 93.932Z"
        fill="white" />
    <path
        d="M281.809 137.448L253.918 112.337C251.821 110.445 250.561 107.798 250.413 104.977C250.265 102.157 251.242 99.3925 253.129 97.291L278.24 69.4002C280.132 67.3037 282.779 66.0432 285.6 65.8953C288.42 65.7473 291.184 66.724 293.286 68.611L321.177 93.7218C323.27 95.6154 324.527 98.2612 324.674 101.08C324.82 103.899 323.843 106.66 321.957 108.761L296.847 136.651C294.955 138.746 292.311 140.007 289.492 140.156C286.674 140.305 283.911 139.332 281.809 137.448ZM292.898 69.0419C290.91 67.2563 288.296 66.3314 285.627 66.4698C282.959 66.6083 280.454 67.7988 278.662 69.7805L253.551 97.6712C251.764 99.6605 250.839 102.277 250.979 104.948C251.12 107.618 252.313 110.124 254.298 111.915L282.189 137.026C284.179 138.809 286.794 139.731 289.463 139.59C292.131 139.448 294.634 138.255 296.424 136.271L321.535 108.38C323.322 106.391 324.247 103.774 324.107 101.104C323.967 98.4337 322.773 95.928 320.788 94.1366L292.898 69.0419Z"
        fill="white" />
    <path
        d="M293.918 103.759C294.545 103.065 294.974 102.215 295.16 101.299C295.346 100.383 295.283 99.4332 294.977 98.5496C294.671 97.6661 294.134 96.8808 293.421 96.2759C292.708 95.6709 291.846 95.2684 290.924 95.1104C290.003 94.9524 289.056 95.0446 288.182 95.3775C287.308 95.7104 286.54 96.2717 285.957 97.0029C285.374 97.7341 284.998 98.6083 284.869 99.5342C284.739 100.46 284.86 101.404 285.22 102.267L279.548 108.567C279.157 109.004 278.955 109.577 278.985 110.162C279.016 110.747 279.277 111.296 279.712 111.69L279.756 111.73C280.192 112.12 280.766 112.323 281.351 112.292C281.936 112.261 282.485 112 282.878 111.566L288.55 105.266C289.496 105.549 290.503 105.557 291.453 105.29C292.403 105.024 293.258 104.492 293.918 103.759Z"
        fill="black" />
    <path
        d="M340.226 56.4456C348.346 63.7567 349.06 76.2535 341.834 84.279L332.287 94.8833L328.757 94.7645L323.241 89.7979C324.246 88.9403 325.981 88.0585 327.941 87.0703C332.101 84.9727 337.302 82.3395 339.419 77.8981C340.238 76.181 338.994 72.7932 337.906 69.8098C337.308 68.1851 336.682 66.4975 336.751 65.8862C336.921 64.036 336.506 62.6452 335.507 61.7458L335.461 61.704C332.982 59.5558 329.761 58.465 326.487 58.6657C323.214 58.8663 320.149 60.3425 317.952 62.7772L308.405 73.3815L304.875 73.2628L299.327 68.2676C299.62 67.9424 299.92 67.6087 300.226 67.2686C306.394 60.3551 314.839 50.8892 324.455 51.4936C324.76 51.5118 325.155 51.5152 325.608 51.5177C328.588 51.5505 334.829 51.5873 340.226 56.4456ZM340.606 56.0232C334.221 50.2751 326.702 51.08 324.473 50.9393C313.875 50.2737 304.699 61.434 298.501 68.319L304.625 73.8333L308.634 73.959L318.366 63.1499C320.465 60.828 323.39 59.4212 326.514 59.2314C329.638 59.0416 332.712 60.0839 335.077 62.1346L335.115 62.1688C336.019 62.9827 336.313 64.2571 336.166 65.8303C335.988 67.7271 340.075 75.1814 338.901 77.6577C335.721 84.32 325.047 86.8739 322.389 89.8265L328.514 95.3407L332.521 95.4646L342.253 84.6555C349.746 76.3322 348.942 63.5283 340.602 56.0194L340.606 56.0232Z"
        fill="white" />
    <path
        d="M328.518 95.344L322.394 89.8297L331.975 79.1875C336.449 74.218 336.12 66.4077 331.074 62.018C328.71 59.9673 325.636 58.925 322.512 59.1148C319.388 59.3046 316.463 60.7114 314.364 63.0333L304.64 73.834L298.515 68.3197L308.06 57.7176C315.487 49.4682 328.263 48.5426 336.595 55.899C338.593 57.6652 340.221 59.8094 341.386 62.2079C342.552 64.6063 343.231 67.2117 343.384 69.8738C343.538 72.5359 343.163 75.2021 342.282 77.7187C341.4 80.2353 340.029 82.5526 338.248 84.537L328.518 95.344Z"
        fill="#B27AFF" />
    <g clip-path="url(#clip1_897_26075)">
        <path
            d="M72.1478 55.4727L67.6337 63.5814L71.8018 71.21L64.5684 66.7437L56.8521 71.5257L61.5355 63.5607L57.1528 55.8357L64.2436 60.022L72.1478 55.4727Z"
            fill="#DAC2FB" />
        <path
            d="M56.8522 71.6742C56.8154 71.6742 56.7787 71.6594 56.7519 71.6298C56.7067 71.5809 56.6982 71.5068 56.7321 71.4475L61.3704 63.5581L57.0315 55.9116C56.999 55.8539 57.0075 55.7798 57.0512 55.7323C57.095 55.6849 57.1656 55.6731 57.2221 55.7072L64.2451 59.8534L72.0815 55.3426C72.138 55.31 72.2057 55.3219 72.2509 55.3693C72.2947 55.4167 72.3032 55.4893 72.2721 55.5471L67.799 63.5818L71.9262 71.1363C71.9587 71.1941 71.9488 71.2682 71.9036 71.3156C71.8584 71.363 71.7878 71.3719 71.7327 71.3378L64.5713 66.916L56.9256 71.6535C56.903 71.6668 56.879 71.6742 56.8536 71.6742H56.8522ZM57.544 56.2377L61.6556 63.4855C61.6824 63.5329 61.6824 63.5921 61.6556 63.6396L57.2715 71.0948L64.4965 66.6181C64.5402 66.5914 64.5953 66.59 64.6405 66.6181L71.415 70.8014L67.5124 63.6573C67.487 63.6114 67.487 63.5551 67.5124 63.5092L71.7694 55.8627L64.3115 60.1557C64.2691 60.1809 64.2169 60.1794 64.1745 60.1557L57.544 56.2377Z"
            fill="#DAC2FB" />
        <path
            d="M64.5006 52.1484L66.771 61.2323L74.8587 63.5336L66.7343 65.7431L64.5006 74.8506L62.4448 65.7431L54.1411 63.5336L61.976 61.2323L64.5006 52.1484Z"
            fill="#DAC2FB" />
        <path
            d="M64.5007 75C64.4358 75 64.3793 74.9526 64.3652 74.8859L62.3305 65.8658L54.1059 63.6771C54.0438 63.6608 54 63.603 54 63.5348C54 63.4681 54.0409 63.4089 54.1031 63.3896L61.8632 61.1105L64.3652 52.1067C64.3821 52.043 64.4386 52 64.5007 52H64.5021C64.5657 52 64.6207 52.0459 64.6363 52.1111L66.8869 61.112L74.8955 63.3911C74.9576 63.4089 75 63.4681 75 63.5348C75 63.6015 74.9562 63.6608 74.8941 63.6771L66.8516 65.8643L64.6377 74.8874C64.6221 74.9526 64.5657 74.9985 64.5007 74.9985V75ZM54.689 63.5259L62.4802 65.5991C62.531 65.6124 62.5706 65.6554 62.5833 65.7087L64.5064 74.2339L66.5989 65.7072C66.6116 65.6554 66.6511 65.6139 66.7005 65.6005L74.3081 63.5319L66.7344 61.3757C66.685 61.3624 66.6483 61.3224 66.6342 61.2705L64.4922 52.7039L62.1117 61.2735C62.0976 61.3224 62.0608 61.3609 62.0143 61.3743L54.689 63.5259Z"
            fill="#DAC2FB" />
    </g>
    <g clip-path="url(#clip2_897_26075)">
        <path
            d="M57.0008 341.161L59.5956 351.035L68.8386 353.537L59.5552 355.939L57.0008 365.839L54.6513 355.939L45.1614 353.537L54.1156 351.035L57.0008 341.161Z"
            fill="#B27AFF" />
        <path
            d="M57.0008 366C56.9266 366 56.862 365.948 56.8459 365.876L54.5206 356.071L45.121 353.693C45.05 353.676 45 353.613 45 353.539C45 353.466 45.0468 353.402 45.1178 353.381L53.9865 350.903L56.8459 341.116C56.8653 341.047 56.9298 341 57.0008 341H57.0024C57.075 341 57.138 341.05 57.1557 341.121L59.7279 350.905L68.8806 353.382C68.9516 353.402 69 353.466 69 353.539C69 353.611 68.95 353.676 68.879 353.693L59.6859 356.071L57.1557 365.879C57.138 365.95 57.0734 366 56.9992 366H57.0008ZM45.7875 353.529L54.6917 355.783C54.7497 355.797 54.7949 355.844 54.8095 355.902L57.0073 365.169L59.3987 355.9C59.4132 355.844 59.4584 355.799 59.5149 355.784L68.2093 353.535L59.5536 351.192C59.4971 351.177 59.4552 351.134 59.4391 351.077L56.9911 341.765L54.2705 351.081C54.2544 351.134 54.2124 351.176 54.1591 351.19L45.7875 353.529Z"
            fill="#B27AFF" />
    </g>
    <g clip-path="url(#clip3_897_26075)">
        <path
            d="M332.076 323.799H323.301C323.157 323.799 323.033 323.697 323.006 323.556C322.979 323.414 323.054 323.273 323.187 323.219C334.647 318.513 335.689 306.4 335.699 306.28C335.711 306.117 335.846 305.988 336.009 306.003C336.172 306.009 336.298 306.141 336.298 306.304V316.976C336.298 317.142 336.163 317.277 335.997 317.277C335.831 317.277 335.696 317.142 335.696 316.976V309.407C334.656 313.232 331.889 319.677 324.703 323.198H332.073C332.238 323.198 332.374 323.333 332.374 323.499C332.374 323.664 332.238 323.799 332.073 323.799H332.076Z"
            fill="#B27AFF" />
        <path
            d="M336 341C336 341 335.991 341 335.988 341C335.825 340.994 335.698 340.862 335.698 340.7V330.027C335.698 329.862 335.834 329.727 336 329.727C336.166 329.727 336.301 329.862 336.301 330.027V337.593C337.341 333.768 340.108 327.324 347.297 323.803H339.927C339.762 323.803 339.626 323.667 339.626 323.502C339.626 323.336 339.762 323.201 339.927 323.201H348.701C348.846 323.201 348.97 323.303 348.997 323.445C349.024 323.586 348.949 323.727 348.816 323.782C337.356 328.491 336.313 340.603 336.304 340.724C336.292 340.88 336.16 341 336.003 341H336Z"
            fill="#B27AFF" />
    </g>
    <g clip-path="url(#clip4_897_26075)">
        <path
            d="M141.83 298.426C157.829 289.248 150.178 245.863 124.741 201.524C99.3042 157.184 65.7141 128.68 49.7153 137.858C33.7166 147.036 41.3677 190.421 66.8045 234.761C92.2414 279.1 125.832 307.604 141.83 298.426Z"
            fill="#FF543D" stroke="#15161B" stroke-width="0.5" />
        <path
            d="M161.866 217.97L85.34 261.871C85.34 261.871 79.6837 256.098 67.4501 234.773C55.2164 213.448 53.0878 205.651 53.0878 205.651L129.614 161.75L161.866 217.97Z"
            fill="#FFB197" />
        <path
            d="M162.363 218.11L85.2818 262.33L85.0832 262.129C85.0258 262.073 79.2541 256.077 67.1361 234.953C55.0181 213.83 52.7571 205.824 52.7355 205.743L52.6624 205.47L129.744 161.25L162.363 218.11ZM85.4042 261.409L161.368 217.83L129.483 162.25L53.5192 205.829C54.0137 207.375 56.9292 215.707 67.7638 234.593C78.5984 253.479 84.3197 260.202 85.4042 261.409Z"
            fill="black" />
        <path
            d="M132.207 183.721C132.207 183.721 120.863 154.08 132.761 135.088C143.096 115.445 144.956 111.243 144.05 103.723C143.146 96.2062 142.463 82.0585 151.844 80.5735C161.224 79.0886 165.746 95.3177 165.983 102.783C166.219 110.249 161.132 124.423 160.215 129.858C159.299 135.292 161.938 136.037 164.17 135.842C166.402 135.646 193.754 121.694 199.245 129.404C204.736 137.114 200.13 144.151 200.13 144.151C200.13 144.151 201.095 186.522 205.705 187.135C210.316 187.749 240.006 166.913 247.49 178.474C254.973 190.035 239.185 199.024 225.547 202.722C211.906 206.421 170.682 233.329 148.241 209.059"
            fill="#FFB197" />
        <path
            d="M239.375 197.546C235.16 199.964 230.217 201.839 225.643 203.08C222.863 203.833 218.845 205.598 214.186 207.641C196.154 215.548 165.98 228.783 147.972 209.312L148.5 208.814C156.26 217.208 166.859 220.231 180.904 218.057C192.793 216.217 204.987 210.868 213.889 206.965C218.572 204.912 222.618 203.136 225.444 202.369C234.871 199.816 245.875 194.558 248.488 187.473C249.545 184.604 249.107 181.644 247.185 178.671C242.134 170.87 226.162 178.557 215.588 183.64C210.695 185.997 207.161 187.696 205.662 187.497C204.298 187.315 202.31 184.831 200.824 165.431C200.015 154.873 199.767 144.253 199.765 144.148L199.763 144.035L199.825 143.94C200.007 143.661 204.222 137.018 198.951 129.612C194.798 123.776 176.497 131.314 168.683 134.534C166.018 135.633 164.714 136.16 164.206 136.205C162.641 136.341 161.454 135.98 160.681 135.135C159.715 134.076 159.437 132.275 159.858 129.788C160.169 127.946 160.941 125.155 161.838 121.918C163.592 115.581 165.778 107.692 165.621 102.787C165.443 97.1767 162.852 86.9228 157.852 82.7299C156.032 81.2005 154.031 80.5999 151.91 80.9366C143.614 82.2545 143.252 94.0365 144.412 103.686C145.323 111.259 143.535 115.398 133.083 135.266C121.404 153.911 132.435 183.297 132.547 183.595L131.87 183.847C131.841 183.774 129.003 176.282 127.664 166.569C126.425 157.581 126.249 144.789 132.453 134.887C142.804 115.214 144.577 111.121 143.691 103.76C141.971 89.4625 144.77 81.3187 151.784 80.2089C154.123 79.8367 156.32 80.4951 158.314 82.1673C163.488 86.5112 166.17 97.0322 166.35 102.778C166.509 107.796 164.308 115.745 162.538 122.129C161.647 125.345 160.879 128.121 160.575 129.925C160.194 132.177 160.408 133.764 161.212 134.643C161.82 135.31 162.804 135.593 164.134 135.476C164.555 135.439 166.337 134.706 168.401 133.853C177.049 130.292 195.048 122.88 199.541 129.193C204.758 136.52 201.033 143.348 200.498 144.255C200.525 145.401 200.79 155.424 201.554 165.395C203.009 184.378 204.973 186.667 205.752 186.774C207.037 186.942 210.852 185.107 215.274 182.983C226.075 177.786 242.394 169.934 247.796 178.282C249.854 181.462 250.32 184.644 249.174 187.744C247.757 191.585 244.006 194.894 239.38 197.548L239.375 197.546Z"
            fill="black" />
        <path
            d="M198.504 167.29C198.504 167.29 173.138 181.987 178.443 191.977C183.749 201.967 199.703 191.529 207.411 185.784C215.12 180.039 229.829 170.282 210.601 155.722"
            fill="#FFB197" />
        <path
            d="M198.91 191.877C193.374 195.053 187.602 197.267 183.272 196.241C181.017 195.706 179.285 194.33 178.122 192.143C172.713 181.957 197.27 167.576 198.318 166.966L198.685 167.606C198.437 167.748 173.683 182.239 178.761 191.802C179.816 193.787 181.386 195.039 183.424 195.524C189.887 197.053 199.915 190.909 207.19 185.485C207.482 185.266 207.782 185.048 208.091 184.815C213.011 181.176 219.751 176.186 219.717 169.642C219.695 165.269 216.554 160.682 210.382 156.008L210.811 155.426C217.177 160.248 220.419 165.033 220.441 169.652C220.479 176.568 213.568 181.682 208.525 185.412C208.217 185.64 207.916 185.864 207.626 186.077C204.985 188.047 201.979 190.108 198.903 191.872L198.91 191.877Z"
            fill="black" />
        <path
            d="M173.559 163.437C170.051 167.393 167.9 171.664 169.837 175.309C175.142 185.299 191.096 174.861 198.805 169.116C206.513 163.371 221.222 153.614 201.994 139.054"
            fill="#FFB197" />
        <path
            d="M190.306 175.208C184.77 178.384 178.999 180.597 174.669 179.572C172.414 179.037 170.682 177.661 169.519 175.474C167.745 172.135 169.014 168 173.285 163.185L173.832 163.679C169.781 168.245 168.545 172.097 170.159 175.136C171.215 177.121 172.784 178.373 174.823 178.858C181.285 180.387 191.313 174.243 198.588 168.819C198.88 168.6 199.18 168.382 199.489 168.149C204.409 164.51 211.149 159.52 211.116 152.976C211.093 148.603 207.952 144.016 201.78 139.342L202.209 138.76C208.575 143.582 211.817 148.367 211.839 152.986C211.877 159.902 204.966 165.016 199.923 168.746C199.616 168.974 199.314 169.198 199.024 169.411C196.383 171.381 193.377 173.442 190.305 175.205L190.306 175.208Z"
            fill="black" />
        <path
            d="M181.704 160.227C176.594 163.158 170.634 165.603 166.137 164.576C163.832 164.048 162.071 162.659 160.893 160.447C155.484 150.261 180.041 135.879 181.089 135.27L181.456 135.91C181.208 136.052 156.455 150.542 161.532 160.106C162.599 162.118 164.2 163.382 166.284 163.858C173.635 165.541 185.287 157.376 189.953 153.789C198.253 147.411 205.153 140.169 199.504 130.461L200.132 130.101C206.078 140.327 198.551 148.112 190.398 154.376C188.442 155.881 185.277 158.173 181.699 160.226L181.704 160.227Z"
            fill="black" />
        <path d="M130.196 205.375L99.7461 222.844L100.113 223.484L130.563 206.015L130.196 205.375Z"
            fill="black" />
    </g>
    <path
        d="M216.455 74.9052C215.492 74.9044 214.545 74.6561 213.706 74.1843L194.892 63.7001C194.016 63.2118 193.286 62.4989 192.777 61.635C192.269 60.7711 192.001 59.7875 192 58.7855V38.1186C192.001 37.1167 192.269 36.1331 192.777 35.2692C193.286 34.4053 194.016 33.6924 194.892 33.204L213.706 22.7198C214.544 22.2479 215.491 22 216.453 22C217.416 22 218.363 22.2479 219.201 22.7198L238.018 33.204C238.894 33.6931 239.623 34.4062 240.131 35.27C240.638 36.1338 240.906 37.1171 240.907 38.1186V58.7855C240.906 59.787 240.638 60.7703 240.131 61.6341C239.623 62.4979 238.894 63.211 238.018 63.7001L219.201 74.1843C218.363 74.6561 217.417 74.9044 216.455 74.9052ZM216.455 22.6956C215.612 22.6956 214.782 22.9116 214.046 23.3229L195.229 33.8106C194.461 34.2389 193.821 34.8638 193.376 35.6211C192.93 36.3783 192.695 37.2405 192.694 38.1186V58.7855C192.695 59.6638 192.93 60.526 193.375 61.2833C193.821 62.0406 194.461 62.6656 195.229 63.0936L214.046 73.5813C214.782 73.9935 215.611 74.2101 216.455 74.2101C217.299 74.2101 218.129 73.9935 218.865 73.5813L237.682 63.0936C238.449 62.6654 239.089 62.0403 239.534 61.283C239.979 60.5257 240.213 59.6635 240.213 58.7855V38.1186C240.212 37.2408 239.978 36.3789 239.533 35.6217C239.088 34.8645 238.449 34.2393 237.682 33.8106L218.865 23.3264C218.129 22.9143 217.299 22.6971 216.455 22.6956Z"
        fill="#DAC2FB" />
    <path
        d="M206.55 56.2236C206.49 56.2236 206.431 56.2079 206.378 56.1781C206.326 56.1484 206.282 56.1055 206.252 56.0538L199.489 44.7551V55.877C199.489 55.9689 199.452 56.0571 199.387 56.1221C199.322 56.1871 199.233 56.2236 199.141 56.2236C199.049 56.2236 198.961 56.1871 198.896 56.1221C198.831 56.0571 198.794 55.9689 198.794 55.877V43.497C198.794 43.421 198.819 43.3472 198.865 43.2868C198.911 43.2265 198.976 43.1829 199.05 43.1628C199.123 43.1427 199.201 43.1473 199.271 43.1757C199.342 43.2041 199.401 43.2549 199.44 43.3202L206.203 54.6189V43.497C206.203 43.4051 206.24 43.3169 206.305 43.2519C206.37 43.1869 206.458 43.1504 206.55 43.1504C206.642 43.1504 206.731 43.1869 206.796 43.2519C206.861 43.3169 206.897 43.4051 206.897 43.497V55.877C206.9 55.9548 206.877 56.0313 206.831 56.0942C206.785 56.157 206.719 56.2026 206.644 56.2236C206.613 56.2286 206.581 56.2286 206.55 56.2236Z"
        fill="#DAC2FB" />
    <path
        d="M213.879 56.2236C213.787 56.2236 213.699 56.1871 213.634 56.1221C213.569 56.0571 213.532 55.9689 213.532 55.877V43.497C213.532 43.4051 213.569 43.3169 213.634 43.2519C213.699 43.1869 213.787 43.1504 213.879 43.1504H220.16C220.252 43.1504 220.34 43.1869 220.405 43.2519C220.47 43.3169 220.507 43.4051 220.507 43.497C220.507 43.5889 220.47 43.6771 220.405 43.742C220.34 43.807 220.252 43.8436 220.16 43.8436H214.226V55.877C214.226 55.9689 214.19 56.0571 214.125 56.1221C214.06 56.1871 213.971 56.2236 213.879 56.2236Z"
        fill="#DAC2FB" />
    <path
        d="M218.684 50.0301H213.879C213.787 50.0301 213.699 49.9936 213.634 49.9286C213.569 49.8636 213.532 49.7754 213.532 49.6835C213.532 49.5916 213.569 49.5034 213.634 49.4384C213.699 49.3734 213.787 49.3369 213.879 49.3369H218.684C218.776 49.3369 218.864 49.3734 218.93 49.4384C218.995 49.5034 219.031 49.5916 219.031 49.6835C219.031 49.7754 218.995 49.8636 218.93 49.9286C218.864 49.9936 218.776 50.0301 218.684 50.0301Z"
        fill="#DAC2FB" />
    <path
        d="M233.765 43.8436H224.586C224.494 43.8436 224.406 43.807 224.34 43.742C224.275 43.6771 224.239 43.5889 224.239 43.497C224.239 43.4051 224.275 43.3169 224.34 43.2519C224.406 43.1869 224.494 43.1504 224.586 43.1504H233.765C233.857 43.1504 233.946 43.1869 234.011 43.2519C234.076 43.3169 234.113 43.4051 234.113 43.497C234.113 43.5889 234.076 43.6771 234.011 43.742C233.946 43.807 233.857 43.8436 233.765 43.8436Z"
        fill="#DAC2FB" />
    <path
        d="M229.176 56.2236C229.084 56.2236 228.995 56.1871 228.93 56.1221C228.865 56.0571 228.829 55.9689 228.829 55.877V43.497C228.829 43.4051 228.865 43.3169 228.93 43.2519C228.995 43.1869 229.084 43.1504 229.176 43.1504C229.268 43.1504 229.356 43.1869 229.421 43.2519C229.486 43.3169 229.523 43.4051 229.523 43.497V55.877C229.523 55.9689 229.486 56.0571 229.421 56.1221C229.356 56.1871 229.268 56.2236 229.176 56.2236Z"
        fill="#DAC2FB" />
    <defs>
        <clipPath id="clip0_897_26075">
            <rect width="108" height="85" fill="white" transform="translate(191 294)" />
        </clipPath>
        <clipPath id="clip1_897_26075">
            <rect width="21" height="23" fill="white" transform="translate(54 52)" />
        </clipPath>
        <clipPath id="clip2_897_26075">
            <rect width="24" height="25" fill="white" transform="translate(45 341)" />
        </clipPath>
        <clipPath id="clip3_897_26075">
            <rect width="26" height="35" fill="white" transform="translate(323 306)" />
        </clipPath>
        <clipPath id="clip4_897_26075">
            <rect width="185.114" height="185.114" fill="white"
                transform="translate(20.7471 154.477) rotate(-29.8421)" />
        </clipPath>
    </defs>
</svg>
    