<svg width="14" height="14" viewBox="0 0 14 14" fill="none" xmlns="http://www.w3.org/2000/svg">
<path id="Icon" fill-rule="evenodd" clip-rule="evenodd" d="M4.66667 0.583333C4.66667 0.261167 4.92783 0 5.25 0H8.75C9.07216 0 9.33333 0.261167 9.33333 0.583333C9.33333 0.905499 9.07216 1.16667 8.75 1.16667H7.58333V1.58254C10.7462 1.87662 13.2222 4.53805 13.2222 7.77778C13.2222 11.2142 10.4364 14 7 14C3.56356 14 0.777777 11.2142 0.777777 7.77778C0.777777 4.53805 3.25376 1.87662 6.41667 1.58254V1.16667H5.25C4.92783 1.16667 4.66667 0.905499 4.66667 0.583333ZM2.94026 0.948632C3.16806 1.17644 3.16806 1.54578 2.94026 1.77359L0.995812 3.71804C0.768007 3.94584 0.398661 3.94584 0.170855 3.71804C-0.0569514 3.49023 -0.0569515 3.12088 0.170854 2.89308L2.1153 0.948632C2.3431 0.720826 2.71245 0.720826 2.94026 0.948632ZM11.0597 0.948632C11.2875 0.720826 11.6569 0.720826 11.8847 0.948632L13.8291 2.89308C14.0569 3.12088 14.0569 3.49023 13.8291 3.71804C13.6013 3.94584 13.232 3.94584 13.0042 3.71804L11.0597 1.77359C10.8319 1.54578 10.8319 1.17644 11.0597 0.948632ZM7 2.72222C4.20789 2.72222 1.94444 4.98567 1.94444 7.77778C1.94444 10.5699 4.20789 12.8333 7 12.8333C9.79211 12.8333 12.0556 10.5699 12.0556 7.77778C12.0556 4.98567 9.79211 2.72222 7 2.72222ZM6.80555 3.88889C7.12772 3.88889 7.38889 4.15006 7.38889 4.47222V7.38889H8.75C9.07216 7.38889 9.33333 7.65006 9.33333 7.97222C9.33333 8.29439 9.07216 8.55556 8.75 8.55556H6.80555C6.48339 8.55556 6.22222 8.29439 6.22222 7.97222V4.47222C6.22222 4.15006 6.48339 3.88889 6.80555 3.88889Z" fill="#666666"/>
</svg>
