<svg width="18" height="18" viewBox="0 0 18 18" fill="none" xmlns="http://www.w3.org/2000/svg">
    <path
        d="M10.4992 3.75C10.5 2.92125 8.82 2.25 6.75 2.25C4.68 2.25 3.0015 2.922 3 3.75C3 4.57875 4.6785 5.25 6.75 5.25C8.8215 5.25 10.5 4.57875 10.5 3.75"
        stroke="#FFD54A" stroke-width="1.5" stroke-linecap="round" stroke-linejoin="round" />
    <path d="M10.5 3.75V9.57" stroke="#FFD54A" stroke-width="1.5" stroke-linecap="round" stroke-linejoin="round" />
    <path d="M3.00098 6.75C3.00098 7.57875 4.67948 8.25 6.75098 8.25C8.82248 8.25 10.501 7.57875 10.501 6.75"
        stroke="#FFD54A" stroke-width="1.5" stroke-linecap="round" stroke-linejoin="round" />
    <path
        d="M14.7613 9.98831C16.0791 11.3061 16.0791 13.4436 14.7613 14.7613C13.4436 16.0791 11.3061 16.0791 9.98831 14.7613C8.67056 13.4436 8.67056 11.3061 9.98831 9.98831C11.3061 8.67056 13.4436 8.67056 14.7613 9.98831"
        stroke="#FFD54A" stroke-width="1.5" stroke-linecap="round" stroke-linejoin="round" />
    <path d="M9.37898 10.8187C8.70248 11.085 7.77473 11.25 6.75023 11.25C4.67948 11.25 3.00098 10.5788 3.00098 9.75"
        stroke="#FFD54A" stroke-width="1.5" stroke-linecap="round" stroke-linejoin="round" />
    <path d="M9.33375 13.833C8.661 14.0903 7.75425 14.25 6.75 14.25C4.67925 14.25 3.00075 13.5788 3 12.75V3.75"
        stroke="#FFD54A" stroke-width="1.5" stroke-linecap="round" stroke-linejoin="round" />
</svg>