<svg width="14" height="14" viewBox="0 0 14 14" fill="none" xmlns="http://www.w3.org/2000/svg">
<path fill-rule="evenodd" clip-rule="evenodd" d="M8.75088 11.3184V6.33639C8.75088 6.08859 8.65246 5.85094 8.47719 5.67578L7.15714 4.35573C6.98198 4.18045 6.74433 4.08203 6.49653 4.08203H3.26527C2.74958 4.08203 2.33154 4.50007 2.33154 5.01575V11.3184C2.33154 11.8341 2.74958 12.2521 3.26527 12.2521H7.81716C8.33284 12.2521 8.75088 11.8341 8.75088 11.3184V11.3184Z" stroke="#FC774B" stroke-width="1.5" stroke-linecap="round" stroke-linejoin="round"/>
<path d="M8.75048 9.91812H10.7346C11.2503 9.91812 11.6684 9.50007 11.6684 8.98439V2.9152C11.6684 2.2706 11.1458 1.74805 10.5012 1.74805H6.18275C5.66707 1.74805 5.24902 2.16609 5.24902 2.68177V4.08235" stroke="#FC774B" stroke-width="1.5" stroke-linecap="round" stroke-linejoin="round"/>
<path d="M8.75081 6.41634H6.88337C6.62552 6.41634 6.4165 6.20732 6.4165 5.94948V4.08203" stroke="#FC774B" stroke-width="1.5" stroke-linecap="round" stroke-linejoin="round"/>
</svg>
