<svg width="1.3em" height="1em" viewBox="0 0 26 20" fill="currentColor" xmlns="http://www.w3.org/2000/svg">
    <path
        d="M22.0441 1.69129C22.037 1.67689 22.0249 1.66554 22.0101 1.65929C20.3259 0.878379 18.5469 0.320996 16.7182 0.00131282C16.7015 -0.00174757 16.6843 0.000574747 16.669 0.00794438C16.6537 0.015314 16.6412 0.0273495 16.6332 0.0423123C16.3912 0.486307 16.1712 0.942301 15.9742 1.40829C14.0044 1.10637 12.0001 1.10637 10.0303 1.40829C9.83211 0.941055 9.60844 0.485042 9.3603 0.0423123C9.35189 0.0280167 9.3394 0.0165661 9.32443 0.00943674C9.30946 0.00230735 9.29269 -0.00017401 9.2763 0.00231277C7.44719 0.320603 5.66772 0.87734 3.98336 1.65829C3.96924 1.6646 3.95738 1.67506 3.94936 1.68829C0.578406 6.77123 -0.345582 11.7292 0.107412 16.6241C0.108729 16.636 0.112415 16.6476 0.118254 16.658C0.124093 16.6685 0.131966 16.6777 0.141411 16.6851C2.1013 18.1508 4.29719 19.2709 6.63433 19.9971C6.66733 20.0071 6.70433 19.9961 6.72433 19.9671C7.22632 19.2791 7.67032 18.5491 8.05331 17.7871C8.05856 17.7766 8.06155 17.7651 8.0621 17.7534C8.06265 17.7417 8.06074 17.73 8.0565 17.7191C8.05227 17.7082 8.04579 17.6983 8.03749 17.69C8.02919 17.6817 8.01925 17.6753 8.00831 17.6711C7.30832 17.4011 6.62933 17.0741 5.98034 16.6961C5.96832 16.6891 5.95822 16.6793 5.95095 16.6674C5.94368 16.6556 5.93945 16.6421 5.93866 16.6283C5.93787 16.6144 5.94053 16.6005 5.94641 16.5879C5.95228 16.5753 5.96119 16.5644 5.97234 16.5561C6.10834 16.4531 6.24233 16.3461 6.37433 16.2371C6.386 16.2278 6.40006 16.2219 6.4149 16.2201C6.42975 16.2183 6.4448 16.2208 6.45833 16.2271C10.7133 18.1871 15.3202 18.1871 19.5252 16.2271C19.5388 16.2206 19.5541 16.218 19.5691 16.2198C19.5842 16.2216 19.5984 16.2276 19.6102 16.2371C19.7422 16.3471 19.8762 16.4531 20.0142 16.5571C20.0251 16.5654 20.0338 16.5763 20.0396 16.5888C20.0453 16.6013 20.0479 16.615 20.0471 16.6287C20.0463 16.6425 20.0422 16.6558 20.035 16.6675C20.0279 16.6793 20.018 16.6891 20.0062 16.6961C19.3582 17.0781 18.6802 17.4041 17.9772 17.6701C17.9662 17.6744 17.9562 17.6809 17.948 17.6893C17.9397 17.6977 17.9332 17.7077 17.9291 17.7188C17.9249 17.7298 17.9232 17.7416 17.9239 17.7534C17.9246 17.7651 17.9278 17.7766 17.9332 17.7871C18.3222 18.5451 18.7662 19.2731 19.2602 19.9661C19.2802 19.9961 19.3182 20.0081 19.3512 19.9971C21.6923 19.2733 23.8919 18.153 25.8541 16.6851C25.8637 16.6781 25.8717 16.6691 25.8775 16.6588C25.8834 16.6484 25.887 16.6369 25.8881 16.6251C26.4301 10.9652 24.9801 6.05024 22.0441 1.69129ZM8.50031 13.0012C7.13032 13.0012 6.00034 11.8792 6.00034 10.5012C6.00034 9.1232 7.10732 8.00121 8.50031 8.00121C9.90329 8.00121 11.0223 9.1332 11.0003 10.5012C11.0003 11.8792 9.89229 13.0012 8.50031 13.0012ZM17.5002 13.0012C16.1302 13.0012 15.0002 11.8792 15.0002 10.5012C15.0002 9.1232 16.1072 8.00121 17.5002 8.00121C18.9032 8.00121 20.0222 9.1332 20.0002 10.5012C20.0002 11.8792 18.9032 13.0012 17.5002 13.0012Z" />
</svg>