<svg width="55" height="55" viewBox="0 0 55 55" fill="none" xmlns="http://www.w3.org/2000/svg">
    <g clip-path="url(#clip0_10600_161670)">
        <path
            d="M49.8438 51.5625H39.5313C38.5859 51.5625 37.8125 50.7891 37.8125 49.8438C37.8125 48.8984 38.5859 48.125 39.5313 48.125H48.125V39.5313C48.125 38.5859 48.8984 37.8125 49.8438 37.8125C50.7891 37.8125 51.5625 38.5859 51.5625 39.5313V49.8438C51.5625 50.7891 50.7891 51.5625 49.8438 51.5625ZM49.8438 17.1875C48.8984 17.1875 48.125 16.4141 48.125 15.4688V6.875H39.5313C38.5859 6.875 37.8125 6.10156 37.8125 5.15625C37.8125 4.21094 38.5859 3.4375 39.5313 3.4375H49.8438C50.7891 3.4375 51.5625 4.21094 51.5625 5.15625V15.4688C51.5625 16.4141 50.7891 17.1875 49.8438 17.1875ZM42.9688 25.9531C42.9688 30.1641 42.3672 34.2031 41.3359 38.1563C41.0781 39.0156 40.2188 39.5313 39.3594 39.2734C38.5 39.0156 37.9844 38.1563 38.2422 37.2109C39.2734 33.6016 39.7891 29.8203 39.7891 25.9531C39.7891 19.5938 34.7188 14.4375 28.3594 14.4375C26.3828 14.4375 24.4063 14.9531 22.6875 15.9844C21.9141 16.4141 20.8828 16.1563 20.4531 15.3828C20.0234 14.6094 20.2813 13.5781 21.0547 13.1484C23.2031 11.8594 25.7813 11.1719 28.2734 11.1719C36.4375 11.1719 42.9688 17.7891 42.9688 25.9531ZM28.2734 17.7891C32.7422 17.7891 36.4375 21.4844 36.4375 26.0391C36.4375 27.7578 36.3516 29.4766 36.0938 31.1953C36.0078 32.0547 35.1484 32.7422 34.2891 32.5703C33.4297 32.4844 32.7422 31.625 32.9141 30.6797C33.0859 29.1328 33.2578 27.5859 33.2578 25.9531C33.2578 23.2031 31.1094 21.0547 28.3594 21.0547C25.6953 21.0547 23.4609 23.2891 23.4609 25.9531C23.4609 30.3359 22.3438 34.6328 20.1094 38.4141L19.6797 39.1875C19.25 39.9609 18.2187 40.2188 17.4453 39.7891C16.7578 39.3594 16.4141 38.4141 16.7578 37.7266L16.8438 37.5547L16.9297 37.3828C19.0781 33.9453 20.1953 29.9922 20.1953 26.0391C20.1953 21.4844 23.8047 17.7891 28.2734 17.7891ZM16.9297 25.5234V26.0391C16.9297 28.7891 16.3281 31.5391 15.125 33.9453C14.6953 34.8047 13.75 35.0625 12.9766 34.7188C12.2031 34.2891 11.8594 33.3438 12.2031 32.4844C13.0625 30.6797 13.5781 28.7031 13.6641 26.6406V26.0391C13.6641 23.375 14.3516 20.8828 15.6406 18.6484C16.0703 17.875 17.1016 17.6172 17.875 18.0469C18.6484 18.4766 18.9063 19.5078 18.4766 20.2813C17.5313 21.8281 17.0156 23.6328 16.9297 25.5234ZM15.4688 6.875H6.875V15.4688C6.875 16.4141 6.10156 17.1875 5.15625 17.1875C4.21094 17.1875 3.4375 16.4141 3.4375 15.4688V5.15625C3.4375 4.21094 4.21094 3.4375 5.15625 3.4375H15.4688C16.4141 3.4375 17.1875 4.21094 17.1875 5.15625C17.1875 6.10156 16.4141 6.875 15.4688 6.875ZM5.15625 37.8125C6.10156 37.8125 6.875 38.5859 6.875 39.5313V48.125H15.4688C16.4141 48.125 17.1875 48.8984 17.1875 49.8438C17.1875 50.7891 16.4141 51.5625 15.4688 51.5625H5.15625C4.21094 51.5625 3.4375 50.7891 3.4375 49.8438V39.5313C3.4375 38.5859 4.21094 37.8125 5.15625 37.8125ZM26.7266 25.9531C26.7266 25.0078 27.4141 24.3203 28.3594 24.3203C29.3047 24.3203 29.9922 25.0938 29.9922 25.9531C29.9922 31.8828 28.3594 37.6406 25.2656 42.625C24.75 43.3984 23.8047 43.6563 23.0313 43.1406C22.2578 42.625 22 41.6797 22.5156 40.9063C25.2656 36.4375 26.7266 31.2813 26.7266 25.9531ZM31.8828 35.4063C32.1406 34.5469 33 34.0313 33.8594 34.2891C34.7188 34.5469 35.2344 35.4063 34.9766 36.3516C34.375 38.6719 33.5156 40.8203 32.3984 42.9688C31.9688 43.7422 31.0234 44.0859 30.25 43.7422C29.4766 43.3125 29.1328 42.3672 29.5625 41.5078C30.5938 39.5313 31.3672 37.4688 31.8828 35.4063Z"
            fill="white" />
        <path
            d="M42.999 25.9639C42.999 30.1748 42.3974 34.2139 41.3662 38.167C41.1083 39.0264 40.249 39.542 39.3896 39.2842C38.5302 39.0264 38.0146 38.167 38.2724 37.2217C39.3037 33.6123 39.8193 29.8311 39.8193 25.9639C39.8193 19.6045 34.749 14.4482 28.3896 14.4482C26.413 14.4482 24.4365 14.9639 22.7177 15.9951C21.9443 16.4248 20.913 16.167 20.4833 15.3936C20.0537 14.6201 20.3115 13.5889 21.0849 13.1592C23.2333 11.8701 25.8115 11.1826 28.3037 11.1826C36.4677 11.1826 42.999 17.7998 42.999 25.9639ZM28.3037 17.7998C32.7724 17.7998 36.4677 21.4951 36.4677 26.0498C36.4677 27.7686 36.3818 29.4873 36.124 31.2061C36.038 32.0654 35.1787 32.7529 34.3193 32.5811C33.4599 32.4951 32.7724 31.6357 32.9443 30.6904C33.1162 29.1436 33.288 27.5967 33.288 25.9639C33.288 23.2139 31.1396 21.0654 28.3896 21.0654C25.7255 21.0654 23.4912 23.2998 23.4912 25.9639C23.4912 30.3467 22.374 34.6436 20.1396 38.4248L19.7099 39.1982C19.2802 39.9717 18.249 40.2295 17.4755 39.7998C16.788 39.3701 16.4443 38.4248 16.788 37.7373L16.874 37.5654L16.9599 37.3936C19.1083 33.9561 20.2255 30.0029 20.2255 26.0498C20.2255 21.4951 23.8349 17.7998 28.3037 17.7998ZM16.9599 25.5342V26.0498C16.9599 28.7998 16.3583 31.5498 15.1552 33.9561C14.7255 34.8154 13.7802 35.0732 13.0068 34.7295C12.2333 34.2998 11.8896 33.3545 12.2333 32.4951C13.0927 30.6904 13.6083 28.7139 13.6943 26.6514V26.0498C13.6943 23.3857 14.3818 20.8936 15.6708 18.6592C16.1005 17.8857 17.1318 17.6279 17.9052 18.0576C18.6787 18.4873 18.9365 19.5186 18.5068 20.292C17.5615 21.8389 17.0458 23.6436 16.9599 25.5342ZM26.7568 25.9639C26.7568 25.0186 27.4443 24.3311 28.3896 24.3311C29.3349 24.3311 30.0224 25.1045 30.0224 25.9639C30.0224 31.8936 28.3896 37.6514 25.2958 42.6357C24.7802 43.4092 23.8349 43.667 23.0615 43.1514C22.288 42.6357 22.0302 41.6904 22.5458 40.917C25.2958 36.4482 26.7568 31.292 26.7568 25.9639ZM31.913 35.417C32.1708 34.5576 33.0302 34.042 33.8896 34.2998C34.749 34.5576 35.2646 35.417 35.0068 36.3623C34.4052 38.6826 33.5458 40.8311 32.4287 42.9795C31.999 43.7529 31.0537 44.0967 30.2802 43.7529C29.5068 43.3232 29.163 42.3779 29.5927 41.5186C30.624 39.542 31.3974 37.4795 31.913 35.417Z"
            fill="#FF543D" />
    </g>
    <defs>
        <clipPath id="clip0_10600_161670">
            <rect width="55" height="55" fill="white" />
        </clipPath>
    </defs>
</svg>
