<svg width="15" height="15" viewBox="0 0 15 15" fill="none" xmlns="http://www.w3.org/2000/svg">
<path id="Icon" fill-rule="evenodd" clip-rule="evenodd" d="M12 1.875C11.3787 1.875 10.875 2.37868 10.875 3C10.875 3.62132 11.3787 4.125 12 4.125C12.6213 4.125 13.125 3.62132 13.125 3C13.125 2.37868 12.6213 1.875 12 1.875ZM9.75 3C9.75 1.75736 10.7574 0.75 12 0.75C13.2426 0.75 14.25 1.75736 14.25 3C14.25 4.24264 13.2426 5.25 12 5.25C11.3228 5.25 10.7155 4.95081 10.303 4.47741L5.20054 7.02862C5.23295 7.18063 5.25 7.33832 5.25 7.5C5.25 7.66168 5.23295 7.81937 5.20054 7.97138L10.303 10.5226C10.7155 10.0492 11.3228 9.75 12 9.75C13.2426 9.75 14.25 10.7574 14.25 12C14.25 13.2426 13.2426 14.25 12 14.25C10.7574 14.25 9.75 13.2426 9.75 12C9.75 11.8383 9.76705 11.6806 9.79946 11.5286L4.69703 8.97741C4.28454 9.45082 3.67721 9.75 3 9.75C1.75736 9.75 0.75 8.74264 0.75 7.5C0.75 6.25736 1.75736 5.25 3 5.25C3.67721 5.25 4.28454 5.54919 4.69703 6.02259L9.79946 3.47138C9.76705 3.31937 9.75 3.16168 9.75 3ZM3 6.375C2.37868 6.375 1.875 6.87868 1.875 7.5C1.875 8.12132 2.37868 8.625 3 8.625C3.62132 8.625 4.125 8.12132 4.125 7.5C4.125 6.87868 3.62132 6.375 3 6.375ZM12 10.875C11.3787 10.875 10.875 11.3787 10.875 12C10.875 12.6213 11.3787 13.125 12 13.125C12.6213 13.125 13.125 12.6213 13.125 12C13.125 11.3787 12.6213 10.875 12 10.875Z" fill="white"/>
</svg>
