<svg xmlns="http://www.w3.org/2000/svg" width="14" height="14" viewBox="0 0 14 14" fill="none">
    <path fill-rule="evenodd" clip-rule="evenodd"
        d="M9.91667 1.16665C8.30584 1.16665 7 2.47247 7 4.08328C7 4.31502 7.02691 4.53973 7.07753 4.75474C7.12378 4.95118 7.0652 5.15758 6.92265 5.30044L1.33708 10.898C1.22795 11.0074 1.16667 11.1556 1.16667 11.3101V12.8333H2.72963C2.88454 12.8333 3.03309 12.7717 3.14252 12.6621L3.30556 12.4987V10.8887C3.30556 10.5666 3.56672 10.3054 3.88889 10.3054H5.49455L5.63889 10.1608V8.55544C5.63889 8.23328 5.90006 7.97211 6.22222 7.97211H7.82326L8.71232 7.08131C8.85459 6.93875 9.06035 6.87967 9.25658 6.92503C9.46813 6.97393 9.689 6.99991 9.91667 6.99991C11.5275 6.99991 12.8333 5.69409 12.8333 4.08328C12.8333 2.47247 11.5275 1.16665 9.91667 1.16665ZM5.83333 4.08328C5.83333 1.82815 7.6615 0 9.91667 0C12.1718 0 14 1.82815 14 4.08328C14 6.33841 12.1718 8.16656 9.91667 8.16656C9.71449 8.16656 9.51546 8.15182 9.32066 8.12329L8.47811 8.9675C8.36868 9.07715 8.22013 9.13877 8.06522 9.13877H6.80556V10.4021C6.80556 10.5566 6.74426 10.7048 6.63511 10.8141L6.1494 11.3008C6.03997 11.4105 5.89143 11.4721 5.73652 11.4721H4.47222V12.74C4.47222 12.8945 4.41092 13.0427 4.30178 13.1521L3.96829 13.4862C3.64001 13.8152 3.19436 14 2.72963 14H0.972223C0.43528 14 0 13.5647 0 13.0278V11.3101C0 10.8466 0.183855 10.4021 0.511225 10.074L5.87889 4.69476C5.84886 4.49503 5.83333 4.29081 5.83333 4.08328ZM9.33333 4.08328C9.33333 3.76112 9.5945 3.49995 9.91667 3.49995H10.3056C10.6277 3.49995 10.8889 3.76112 10.8889 4.08328C10.8889 4.40544 10.6277 4.6666 10.3056 4.6666H9.91667C9.5945 4.6666 9.33333 4.40544 9.33333 4.08328Z"
        fill="white" />
</svg>