<svg xmlns="http://www.w3.org/2000/svg" width="22" height="22" viewBox="0 0 22 22" fill="none">
    <g clip-path="url(#clip0_6766_101278)">
        <path
            d="M1.83337 14.668C1.83337 12.0756 1.83337 10.7786 2.63912 9.97372C3.44396 9.16797 4.74104 9.16797 7.33337 9.16797H14.6667C17.259 9.16797 18.5561 9.16797 19.361 9.97372C20.1667 10.7786 20.1667 12.0756 20.1667 14.668C20.1667 17.2603 20.1667 18.5574 19.361 19.3622C18.5561 20.168 17.259 20.168 14.6667 20.168H7.33337C4.74104 20.168 3.44396 20.168 2.63912 19.3622C1.83337 18.5574 1.83337 17.2603 1.83337 14.668Z"
            stroke="white" stroke-width="2" />
        <path
            d="M5.5 9.16732V7.33398C5.5 5.87529 6.07946 4.47635 7.11091 3.4449C8.14236 2.41345 9.54131 1.83398 11 1.83398C12.4587 1.83398 13.8576 2.41345 14.8891 3.4449C15.9205 4.47635 16.5 5.87529 16.5 7.33398V9.16732"
            stroke="white" stroke-width="2" stroke-linecap="round" />
        <path d="M7.33337 14.668H7.34162M10.9918 14.668H11M14.6585 14.668H14.6667" stroke="white" stroke-width="2"
            stroke-linecap="round" stroke-linejoin="round" />
    </g>
    <defs>
        <clipPath id="clip0_6766_101278">
            <rect width="22" height="22" fill="white" />
        </clipPath>
    </defs>
</svg>