<svg xmlns="http://www.w3.org/2000/svg" width="32" height="32" viewBox="0 0 32 32" fill="none">
    <path
        d="M20.4004 11.3998C22.2004 12.5998 23.4004 14.5998 23.6004 16.9998C24.2004 16.9998 24.8004 17.1998 25.4004 17.3998C25.2004 14.1998 23.6004 11.3998 21.0004 9.7998C20.8004 10.1998 20.8004 10.7998 20.4004 11.3998Z"
        fill="white" />
    <path
        d="M19.1996 24.5996C18.1996 24.9996 17.1996 25.3996 15.9996 25.3996C14.7996 25.3996 13.7996 25.1996 12.7996 24.5996C12.3996 25.1996 11.9996 25.5996 11.5996 25.9996C12.9996 26.7996 14.3996 27.1996 15.9996 27.1996C17.5996 27.1996 19.1996 26.7996 20.3996 25.9996C19.9996 25.5996 19.5996 25.1996 19.1996 24.5996Z"
        fill="white" />
    <path
        d="M8.39961 16.9996C8.59961 14.5996 9.79961 12.5996 11.5996 11.3996C11.3996 10.7996 11.1996 10.1996 10.9996 9.59961C8.39961 11.1996 6.79961 14.1996 6.59961 17.3996C7.19961 17.1996 7.79961 16.9996 8.39961 16.9996Z"
        fill="white" />
    <path
        d="M8.59961 20C9.79961 20 10.5996 20.8 10.5996 22C10.5996 23.2 9.79961 24 8.59961 24C7.39961 24 6.59961 23.2 6.59961 22C6.59961 20.8 7.39961 20 8.59961 20ZM8.59961 18C6.39961 18 4.59961 19.8 4.59961 22C4.59961 24.2 6.39961 26 8.59961 26C10.7996 26 12.5996 24.2 12.5996 22C12.5996 19.8 10.7996 18 8.59961 18Z"
        fill="white" />
    <path
        d="M16 7C17.2 7 18 7.8 18 9C18 10.2 17.2 11 16 11C14.8 11 14 10.2 14 9C14 7.8 15 7 16 7ZM16 5C13.8 5 12 6.8 12 9C12 11.2 13.8 13 16 13C18.2 13 20 11.2 20 9C20 6.8 18.2 5 16 5Z"
        fill="white" />
    <path
        d="M23.4004 20C24.6004 20 25.4004 20.8 25.4004 22C25.4004 23.2 24.6004 24 23.4004 24C22.2004 24 21.4004 23.2 21.4004 22C21.4004 20.8 22.4004 20 23.4004 20ZM23.4004 18C21.2004 18 19.4004 19.8 19.4004 22C19.4004 24.2 21.2004 26 23.4004 26C25.6004 26 27.4004 24.2 27.4004 22C27.4004 19.8 25.6004 18 23.4004 18Z"
        fill="white" />
    <path
        d="M8.59961 20C9.79961 20 10.5996 20.8 10.5996 22C10.5996 23.2 9.79961 24 8.59961 24C7.39961 24 6.59961 23.2 6.59961 22C6.59961 20.8 7.39961 20 8.59961 20ZM8.59961 18C6.39961 18 4.59961 19.8 4.59961 22C4.59961 24.2 6.39961 26 8.59961 26C10.7996 26 12.5996 24.2 12.5996 22C12.5996 19.8 10.7996 18 8.59961 18Z"
        fill="white" />
</svg>