<svg width="23" height="22" viewBox="0 0 23 22" fill="none" xmlns="http://www.w3.org/2000/svg">
    <rect opacity="0.01" x="0.457031" width="22" height="22" fill="black" />
    <path fill-rule="evenodd" clip-rule="evenodd"
        d="M3.72266 8.42188C3.72266 8.95684 3.29082 9.38867 2.75586 9.38867C2.2209 9.38867 1.78906 8.95684 1.78906 8.42188V3.91016C1.78906 2.48574 2.94277 1.33203 4.36719 1.33203H8.87891C9.41387 1.33203 9.8457 1.76387 9.8457 2.29883C9.8457 2.83379 9.41387 3.26562 8.87891 3.26562H5.01172C4.30059 3.26562 3.72266 3.84355 3.72266 4.55469V8.42188ZM18.5469 1.33203H14.0352C13.5002 1.33203 13.0684 1.76387 13.0684 2.29883C13.0684 2.83379 13.5002 3.26562 14.0352 3.26562H17.9023C18.6135 3.26562 19.1914 3.84355 19.1914 4.55469V8.42188C19.1914 8.95684 19.6232 9.38867 20.1582 9.38867C20.6932 9.38867 21.125 8.95684 21.125 8.42188V3.91016C21.125 2.48574 19.9713 1.33203 18.5469 1.33203ZM5.65625 11C5.65625 11.5328 6.09023 11.9668 6.62305 11.9668H16.291C16.8238 11.9668 17.2578 11.5328 17.2578 11C17.2578 10.4672 16.8238 10.0332 16.291 10.0332H6.62305C6.09023 10.0332 5.65625 10.4672 5.65625 11ZM8.87891 18.7344H5.01172C4.30059 18.7344 3.72266 18.1564 3.72266 17.4453V13.5781C3.72266 13.0432 3.29082 12.6113 2.75586 12.6113C2.2209 12.6113 1.78906 13.0432 1.78906 13.5781V18.0898C1.78906 19.5143 2.94277 20.668 4.36719 20.668H8.87891C9.41387 20.668 9.8457 20.2361 9.8457 19.7012C9.8457 19.1662 9.41387 18.7344 8.87891 18.7344ZM19.1914 13.5781C19.1914 13.0432 19.6232 12.6113 20.1582 12.6113C20.6932 12.6113 21.125 13.0432 21.125 13.5781V18.0898C21.125 19.5143 19.9713 20.668 18.5469 20.668H14.0352C13.5002 20.668 13.0684 20.2361 13.0684 19.7012C13.0684 19.1662 13.5002 18.7344 14.0352 18.7344H17.9023C18.6135 18.7344 19.1914 18.1564 19.1914 17.4453V13.5781Z"
        fill="white" />
</svg>