<svg width="47" height="47" viewBox="0 0 47 47" fill="none" xmlns="http://www.w3.org/2000/svg">
    <rect x="1" y="1" width="45" height="45" rx="22.5" fill="black" stroke="white" stroke-width="2" />
    <path
        d="M10.9998 15.3104C10.9998 13.8543 12.874 13.2469 13.7454 14.4134C14.4899 15.4099 15.1122 16.2143 15.1812 16.2143C15.3626 16.2143 29.6743 16.2143 29.6743 16.2143C32.7768 16.2143 35.2919 18.6329 35.2919 21.6164V29.453C35.2919 32.4365 32.7768 34.8551 29.6743 34.8551H16.6174C13.5149 34.8551 10.9998 32.4365 10.9998 29.453V15.3104Z"
        fill="white" />
    <path
        d="M16.1437 34.7825C16.1437 32.6585 17.6558 31.057 19.8177 31.057C21.9795 31.057 33.8146 31.057 33.8146 31.057C34.0111 31.057 35.1318 30.263 35.1318 30.456C35.1318 32.3869 32.5772 34.9027 30.6119 34.9027L16.1437 34.7825Z"
        fill="#E8E8E8" />
    <path
        d="M28.8682 22.9068C29.1169 22.9068 29.3239 23.1114 29.263 23.3526C29.2357 23.4604 29.1986 23.5661 29.1519 23.6688C29.0418 23.9104 28.8805 24.1299 28.6771 24.3148C28.4737 24.4997 28.2322 24.6463 27.9665 24.7464C27.7008 24.8464 27.4159 24.8979 27.1283 24.8979C26.8407 24.8979 26.5559 24.8464 26.2901 24.7464C26.0244 24.6463 25.7829 24.4997 25.5796 24.3148C25.3762 24.1299 25.2148 23.9104 25.1048 23.6688C25.058 23.5661 25.0209 23.4604 24.9937 23.3526C24.9327 23.1114 25.1397 22.9068 25.3885 22.9068C25.6372 22.9068 25.8314 23.1167 25.932 23.3442C25.9337 23.3479 25.9353 23.3516 25.937 23.3554C26.0018 23.4976 26.0968 23.6268 26.2166 23.7357C26.3363 23.8445 26.4784 23.9309 26.6349 23.9898C26.7913 24.0487 26.959 24.079 27.1283 24.079C27.2976 24.079 27.4653 24.0487 27.6218 23.9898C27.7782 23.9309 27.9203 23.8445 28.0401 23.7357C28.1598 23.6268 28.2548 23.4976 28.3196 23.3554C28.3213 23.3516 28.323 23.3479 28.3246 23.3442C28.4253 23.1167 28.6194 22.9068 28.8682 22.9068Z"
        fill="black" />
    <path
        d="M28.9201 12.9499C28.9201 11.6295 29.9905 10.5591 31.311 10.5591H31.8073C33.4018 10.5591 34.6944 11.8517 34.6944 13.4463V15.3403C34.6944 16.0841 33.703 16.4681 33.0827 16.0576C32.9574 15.9747 32.8301 15.8993 32.7033 15.8356C32.3784 15.6725 31.8561 15.5629 31.302 15.4891C29.9943 15.3151 28.9201 14.2692 28.9201 12.9499Z"
        fill="white" />
</svg>