<svg xmlns="http://www.w3.org/2000/svg" width="18" height="18" viewBox="0 0 18 18" fill="none">
    <path d="M1.5 14.25C1.5 12.6 2.85 11.25 4.5 11.25H7.5C9.15 11.25 10.5 12.6 10.5 14.25" stroke="white"
        stroke-linecap="round" stroke-linejoin="round" />
    <path
        d="M7.87501 4.49987C8.92501 5.54987 8.92501 7.19987 7.87501 8.17487C6.82501 9.14987 5.17501 9.22487 4.20001 8.17487C3.22501 7.12487 3.15001 5.54987 4.12501 4.49987C5.10001 3.44987 6.82501 3.52487 7.87501 4.49987"
        stroke="white" stroke-linecap="round" stroke-linejoin="round" />
    <path d="M12 10.5H14.25C15.525 10.5 16.5 11.475 16.5 12.75" stroke="white" stroke-linecap="round"
        stroke-linejoin="round" />
    <path
        d="M14.475 5.0248C15.225 5.7748 15.225 6.9748 14.475 7.6498C13.725 8.3248 12.525 8.3998 11.85 7.6498C11.175 6.8998 11.1 5.6998 11.85 5.0248C12.525 4.3498 13.725 4.3498 14.475 5.0248"
        stroke="white" stroke-linecap="round" stroke-linejoin="round" />
</svg>