<svg width="19" height="17" viewBox="0 0 19 17" fill="none" xmlns="http://www.w3.org/2000/svg">
    <path fill-rule="evenodd" clip-rule="evenodd"
        d="M2.58927 0H16.4129C17.8381 0 19 1.16188 19 2.58927V4.9555H12.3601C10.7245 4.9555 9.38636 6.29368 9.38636 7.92923V8.68966C9.38636 10.3252 10.7245 11.6634 12.3601 11.6634H19V14.0296C19 15.4591 17.8381 16.6189 16.4107 16.6189H2.58927C1.15975 16.6189 0 15.457 0 14.0296V2.58927C0 1.15975 1.16188 0 2.58927 0ZM11.0116 6.58035C10.6484 6.94357 10.4487 7.42149 10.4487 7.92914V8.68957C10.4487 9.19723 10.6484 9.67515 11.0116 10.0384C11.3748 10.4016 11.8528 10.6013 12.3604 10.6013H19.0003V6.01746H12.3604C11.8528 6.01746 11.3727 6.21713 11.0116 6.58035ZM13.1413 7.45983C13.6108 7.45983 13.991 7.84005 13.991 8.30947C13.991 8.77889 13.6108 9.15911 13.1413 9.15911C12.6719 9.15911 12.2917 8.77889 12.2917 8.30947C12.2917 7.84005 12.6719 7.45983 13.1413 7.45983Z"
        fill="#FC774B" />
</svg>