<svg xmlns="http://www.w3.org/2000/svg" width="175" height="114" viewBox="0 0 175 114" fill="none">
    <path fill-rule="evenodd" clip-rule="evenodd"
        d="M2.08197 15.988C-0.579922 11.3775 5.0746 5.81718 9.85077 8.16898C16.8912 11.6357 23.9571 14.2689 26.9489 12.7524C33.6531 9.35437 93.0401 -25.3793 96.3075 -27.2907C96.4131 -27.3525 96.5013 -27.4039 96.6077 -27.4645C111.459 -35.9288 130.111 -31.2761 138.342 -17.0206L160.038 20.5584C160.935 22.1129 161.672 23.7175 162.253 25.3541C162.001 25.5955 161.809 25.9061 161.71 26.267C161.711 26.2637 161.709 26.2683 161.704 26.2807C161.682 26.3392 161.596 26.5712 161.412 26.9711C161.209 27.4129 160.926 27.9776 160.577 28.5804C159.854 29.8291 158.953 31.0596 158.021 31.7882C158.021 31.7879 158.021 31.7879 158.021 31.7884L158.02 31.7886C158.017 31.7909 158.006 31.7991 157.985 31.8142L157.958 31.8332C157.912 31.8649 157.852 31.906 157.773 31.9575C157.617 32.0606 157.409 32.1933 157.149 32.3558C156.63 32.6805 155.93 33.1075 155.067 33.6262C153.344 34.6628 150.999 36.0493 148.215 37.6839C143.826 40.2613 138.362 43.4468 132.55 46.8348L132.446 46.8959L132.22 47.0276C130.768 47.8742 129.295 48.7328 127.812 49.5973C112.771 58.3694 96.6759 67.7873 91.5803 71.1373C85.9187 74.8594 83.9114 80.0492 83.7962 84.9808C83.6834 89.8066 85.3672 94.3711 87.0292 97.2498L85.4443 98.1649C70.5668 106.754 51.8101 102.12 43.55 87.8128L2.08197 15.988ZM160.485 34.939C161.797 33.9129 162.872 32.4806 163.663 31.2096C165.237 43.0694 159.423 55.4532 148.056 62.0159L90.4933 95.2498C89.0983 92.8337 87.7036 88.9895 87.7951 85.0743C87.8841 81.2648 89.3641 77.3813 93.7777 74.4797C98.7571 71.2061 114.717 61.8651 129.828 53.0526C131.421 52.1235 133.003 51.2008 134.562 50.2924L134.567 50.2895L134.572 50.2866C140.38 46.9003 145.848 43.7126 150.241 41.1331C153.027 39.4969 155.387 38.1019 157.129 37.0542C158.796 36.0514 160.054 35.2764 160.485 34.939ZM123.758 1.24927C123.383 -0.0759869 121.824 -0.484195 120.631 0.204518C119.438 0.893227 119.088 2.43709 119.235 3.80663C119.238 3.82918 119.24 3.85177 119.242 3.87438C119.325 4.73577 119.227 5.61839 118.955 6.47185C118.682 7.32531 118.239 8.13289 117.652 8.8485C117.065 9.5641 116.345 10.1737 115.533 10.6425C114.721 11.1113 113.833 11.4301 112.92 11.5808C112.006 11.7314 111.086 11.7109 110.21 11.5204C109.335 11.3299 108.521 10.9732 107.817 10.4706C107.798 10.4575 107.78 10.4442 107.762 10.4308C106.649 9.6185 105.137 9.1496 103.944 9.83831C102.752 10.527 102.326 12.0814 103.285 13.0692C103.714 13.5106 104.185 13.915 104.694 14.2777C105.89 15.1314 107.272 15.7373 108.759 16.0608C110.246 16.3844 111.81 16.4192 113.361 16.1634C114.913 15.9075 116.421 15.3659 117.8 14.5696C119.18 13.7733 120.403 12.7378 121.4 11.5222C122.397 10.3067 123.149 8.93489 123.612 7.48517C124.076 6.03545 124.242 4.5362 124.101 3.07302C124.041 2.45138 123.926 1.84142 123.758 1.24927Z"
        fill="white" fill-opacity="0.15" />
</svg>