<svg xmlns="http://www.w3.org/2000/svg" width="163" height="162" viewBox="0 0 163 162" fill="none">
    <g opacity="0.3">
        <path
            d="M99.6756 95.0924L99.8855 95.5462L99.6756 95.0924ZM65.6534 113.127L65.4814 112.658L65.4814 112.658L65.6534 113.127ZM61.4333 113.742C61.1685 113.664 61.0171 113.386 61.0953 113.121C61.1735 112.856 61.4515 112.705 61.7164 112.783L61.4333 113.742ZM110.591 99.9939C109.878 98.6611 108.511 96.9187 106.663 95.8309C104.838 94.7566 102.545 94.316 99.8855 95.5462L99.4657 94.6386C102.463 93.2519 105.104 93.7523 107.17 94.9692C109.215 96.1726 110.697 98.0715 111.473 99.5222L110.591 99.9939ZM99.8855 95.5462C97.0752 96.8462 88.9686 101.205 81.3502 105.322C77.5468 107.378 73.8705 109.37 71.0508 110.883C69.6411 111.639 68.4436 112.277 67.5506 112.743C66.6774 113.199 66.0541 113.513 65.8254 113.597L65.4814 112.658C65.6323 112.602 66.1801 112.33 67.0879 111.856C67.9757 111.393 69.169 110.758 70.578 110.002C73.396 108.49 77.0696 106.499 80.8748 104.443C88.4736 100.336 96.6189 95.9555 99.4657 94.6386L99.8855 95.5462ZM65.8254 113.597C64.9767 113.908 63.9584 113.962 63.1449 113.937C62.3364 113.913 61.6472 113.806 61.4333 113.742L61.7164 112.783C61.7163 112.783 61.7173 112.784 61.7194 112.784C61.7216 112.785 61.7246 112.785 61.7285 112.786C61.7363 112.788 61.7468 112.791 61.76 112.794C61.7864 112.799 61.821 112.806 61.8634 112.814C61.9481 112.829 62.0589 112.846 62.191 112.862C62.4551 112.895 62.7972 112.926 63.1755 112.938C63.9446 112.962 64.8116 112.903 65.4814 112.658L65.8254 113.597Z"
            fill="white" />
        <path
            d="M59.7833 89.7596C59.4602 89.9461 59.3462 90.3626 59.5732 90.6587C59.89 91.0718 60.2692 91.4377 60.7008 91.7453C61.319 92.1859 62.0327 92.4985 62.8012 92.6652C63.5697 92.8319 64.3779 92.8495 65.1797 92.7169C65.9815 92.5844 66.7612 92.3043 67.4742 91.8926C68.1872 91.4809 68.8197 90.9458 69.3354 90.3177C69.8511 89.6896 70.24 88.9809 70.4798 88.232C70.7197 87.4831 70.8059 86.7087 70.7334 85.953C70.6828 85.4254 70.5555 84.9141 70.3561 84.4332C70.2132 84.0885 69.7955 83.979 69.4724 84.1655C69.1493 84.3521 69.0445 84.7641 69.1751 85.1136C69.301 85.451 69.3827 85.8058 69.4177 86.1706C69.4746 86.7634 69.407 87.3709 69.2188 87.9584C69.0306 88.5459 68.7255 89.1019 68.3209 89.5947C67.9164 90.0874 67.4202 90.5072 66.8609 90.8302C66.3015 91.1532 65.6898 91.3729 65.0608 91.4769C64.4318 91.5809 63.7978 91.5671 63.1949 91.4363C62.592 91.3056 62.0321 91.0603 61.5471 90.7147C61.2487 90.502 60.9822 90.2539 60.7531 89.9761C60.5157 89.6883 60.1064 89.573 59.7833 89.7596Z"
            fill="white" />
        <path fill-rule="evenodd" clip-rule="evenodd"
            d="M59.2404 109.948L48.6724 90.1919C44.9408 83.2157 47.7582 74.3526 55.0771 70.3847C55.1278 70.3572 55.1708 70.3344 55.226 70.3053C56.933 69.4047 88.4293 52.784 91.7846 50.7471C92.3755 50.3883 92.8065 49.802 93.1317 49.1837C93.4641 48.5518 93.7347 47.7926 93.9594 46.9722C94.4092 45.3302 94.7097 43.3132 94.9128 41.2819C94.9985 40.4255 95.6697 39.7778 96.5496 39.5711C97.4235 39.3658 98.2278 39.6521 98.6133 40.3728L118.791 78.0931C122.536 85.0943 119.684 93.9964 112.307 97.9429L79.3508 115.572C71.9731 119.518 62.9855 116.949 59.2404 109.948ZM93.9178 41.1824C94.1927 38.4337 98.1921 37.4653 99.4951 39.9012L119.672 77.6214C123.696 85.1428 120.609 94.6358 112.778 98.8247L79.8225 116.454C71.9917 120.642 62.382 117.941 58.3586 110.42L47.7907 90.6635C43.7818 83.1692 46.8318 73.7173 54.6005 69.5056C54.6563 69.4754 54.7032 69.4505 54.7593 69.4209C56.4947 68.5053 87.9445 51.9085 91.2656 49.8923C92.7427 48.9956 93.5159 45.2008 93.9178 41.1824Z"
            fill="white" />
        <path
            d="M50.5964 55.7188C49.0521 53.1031 45.6797 52.2345 43.064 53.7788L36.353 57.7409C33.7373 59.2852 32.8687 62.6575 34.413 65.2732L42.1449 78.3697C42.2591 78.5631 42.4755 78.6527 42.7203 78.613C42.9675 78.5729 43.1647 78.4117 43.2255 78.181C43.698 76.3893 44.4734 74.0144 45.6118 72.2425C46.1153 71.4588 46.9446 70.6096 47.8928 69.7778C48.8476 68.9401 49.9512 68.096 51.0286 67.3241C53.5307 65.5315 54.3909 62.146 52.8523 59.5399L50.5964 55.7188Z"
            stroke="white" />
    </g>
</svg>