<svg width="14" height="14" viewBox="0 0 14 14" fill="#00B36B" xmlns="http://www.w3.org/2000/svg">
    <path fill-rule="evenodd" clip-rule="evenodd"
        d="M0 2.13889C0 0.957614 0.957613 0 2.13889 0H8.75C9.93128 0 10.8889 0.957613 10.8889 2.13889V3.11111H11.8611C13.0424 3.11111 14 4.06872 14 5.25V11.8611C14 13.0424 13.0424 14 11.8611 14H5.25C4.06873 14 3.11111 13.0424 3.11111 11.8611V10.8889H2.13889C0.957613 10.8889 0 9.93128 0 8.75V2.13889ZM3.11111 9.72222V5.25C3.11111 4.06873 4.06872 3.11111 5.25 3.11111H9.72222V2.13889C9.72222 1.60195 9.28694 1.16667 8.75 1.16667H2.13889C1.60195 1.16667 1.16667 1.60195 1.16667 2.13889V8.75C1.16667 9.28694 1.60195 9.72222 2.13889 9.72222H3.11111ZM5.25 4.27778C4.71306 4.27778 4.27778 4.71306 4.27778 5.25V11.8611C4.27778 12.3981 4.71306 12.8333 5.25 12.8333H11.8611C12.3981 12.8333 12.8333 12.3981 12.8333 11.8611V5.25C12.8333 4.71306 12.3981 4.27778 11.8611 4.27778H5.25Z" />
</svg>