<svg width="16" height="16" viewBox="0 0 16 16" fill="none" xmlns="http://www.w3.org/2000/svg">
<path fill-rule="evenodd" clip-rule="evenodd" d="M3.63535 12.21C3.6002 12.2152 3.56504 12.2188 3.52988 12.2188C3.37344 12.2188 3.22754 12.1572 3.11152 12.0447C2.97266 11.9059 2.91289 11.716 2.94629 11.5209L3.46484 8.56426C3.47187 8.5291 3.4877 8.49746 3.51406 8.47109L10.9654 1.01973C10.9988 0.986328 11.0428 0.96875 11.0902 0.96875C11.1377 0.96875 11.1816 0.986328 11.215 1.01973L14.1365 3.94297C14.2051 4.01152 14.2051 4.12227 14.1365 4.19082L6.68516 11.6422C6.66055 11.6686 6.62715 11.6844 6.59199 11.6914L3.63535 12.21ZM1.53125 13.6953H14.4688C14.7799 13.6953 15.0312 13.9467 15.0312 14.2578V14.8906C15.0312 14.968 14.968 15.0312 14.8906 15.0312H1.10938C1.03203 15.0312 0.96875 14.968 0.96875 14.8906V14.2578C0.96875 13.9467 1.22012 13.6953 1.53125 13.6953Z" fill="#E7E8EC"/>
</svg>
