<svg width="48" height="48" viewBox="0 0 48 48" fill="none" xmlns="http://www.w3.org/2000/svg">
<rect width="48" height="48" rx="8" fill="#7D7AFF"/>
<mask id="mask0_18693_81134" style="mask-type:luminance" maskUnits="userSpaceOnUse" x="0" y="0" width="48" height="48">
<rect width="48" height="48" rx="10" fill="white"/>
</mask>
<g mask="url(#mask0_18693_81134)">
<rect opacity="0.01" x="9.6001" y="8.63965" width="28.8" height="28.8" fill="black"/>
<path d="M26.3327 8.63965L35.7581 18.2393V34.0793C35.7581 35.9354 34.2815 37.4396 32.4592 37.4396H15.4934C13.6711 37.4396 12.1943 35.9341 12.1943 34.0793V12C12.1945 10.1439 13.6712 8.63965 15.4935 8.63965H26.3327Z" fill="white"/>
<path d="M16.7 25.86H21.57V26.86H17.87V28.84H21.36V29.84H17.87V33H16.7V25.86ZM23.1903 25.72C23.4103 25.72 23.6003 25.79 23.7503 25.93C23.8903 26.07 23.9703 26.25 23.9703 26.47C23.9703 26.69 23.8903 26.88 23.7403 27.02C23.5903 27.16 23.4103 27.23 23.1903 27.23C22.9703 27.23 22.7903 27.16 22.6403 27.02C22.4903 26.87 22.4203 26.69 22.4203 26.47C22.4203 26.25 22.4903 26.07 22.6403 25.93C22.7903 25.79 22.9703 25.72 23.1903 25.72ZM22.6203 27.83H23.7603V33H22.6203V27.83ZM25.2742 25.72H26.4142V33H25.2742V25.72ZM29.9133 27.69C30.7633 27.69 31.4133 27.97 31.8633 28.55C32.2733 29.07 32.4833 29.8 32.4833 30.73H28.6133C28.6533 31.21 28.7833 31.58 29.0033 31.83C29.2233 32.08 29.5433 32.21 29.9533 32.21C30.3033 32.21 30.5833 32.13 30.8033 31.97C30.9733 31.84 31.1233 31.63 31.2633 31.34H32.4033C32.2833 31.82 32.0433 32.23 31.6833 32.55C31.2233 32.94 30.6533 33.14 29.9633 33.14C29.1933 33.14 28.5833 32.9 28.1333 32.43C27.6533 31.94 27.4133 31.27 27.4133 30.41C27.4133 29.64 27.6333 29 28.0933 28.48C28.5333 27.95 29.1433 27.69 29.9133 27.69ZM29.9433 28.62C29.5633 28.62 29.2733 28.72 29.0533 28.94C28.8433 29.15 28.7033 29.46 28.6333 29.87H31.2933C31.1933 29.03 30.7433 28.62 29.9433 28.62Z" fill="#7D7AFF"/>
<path d="M35.7584 18.2393H29.7982C27.9772 18.2393 26.333 16.5661 26.333 14.7098V8.63965L35.7584 18.2393Z" fill="#D5D4FF"/>
</g>
</svg>
