<svg width="19" height="18" viewBox="0 0 19 18" fill="none" xmlns="http://www.w3.org/2000/svg">
<g filter="url(#filter0_i_2362_50364)">
<path fill-rule="evenodd" clip-rule="evenodd" d="M14.3307 4.6087H17.5394C17.9242 4.6087 18.2351 4.91957 18.2351 5.30435V8.34783H10.2785V4.6087H8.80027V8.34783H0.84375V5.30435C0.84375 4.91957 1.15462 4.6087 1.5394 4.6087H4.7481C4.45027 4.14348 4.27853 3.5913 4.27853 3C4.27853 1.34565 5.62419 0 7.27853 0C8.17853 0 8.9894 0.4 9.5394 1.03043C10.0894 0.4 10.9003 0 11.8003 0C13.4546 0 14.8003 1.34565 14.8003 3C14.8003 3.5913 14.6264 4.14348 14.3307 4.6087ZM1.88722 17.3043C1.88722 17.6891 2.19808 18 2.58287 18H8.80026V9.82607H1.88722V17.3043ZM10.2785 18H16.4959C16.8807 18 17.1916 17.6891 17.1916 17.3043V9.82607H10.2785V18ZM8.80026 4.52177H7.27852C6.43939 4.52177 5.75679 3.83916 5.75679 3.00003C5.75679 2.1609 6.43939 1.47829 7.27852 1.47829C8.11766 1.47829 8.80026 2.1609 8.80026 3.00003V4.52177ZM10.2785 4.52177H11.8003C12.6394 4.52177 13.322 3.83916 13.322 3.00003C13.322 2.1609 12.6394 1.47829 11.8003 1.47829C10.9612 1.47829 10.2785 2.1609 10.2785 3.00003V4.52177Z" fill="url(#paint0_linear_2362_50364)"/>
</g>
<defs>
<filter id="filter0_i_2362_50364" x="0.84375" y="0" width="17.3913" height="22" filterUnits="userSpaceOnUse" color-interpolation-filters="sRGB">
<feFlood flood-opacity="0" result="BackgroundImageFix"/>
<feBlend mode="normal" in="SourceGraphic" in2="BackgroundImageFix" result="shape"/>
<feColorMatrix in="SourceAlpha" type="matrix" values="0 0 0 0 0 0 0 0 0 0 0 0 0 0 0 0 0 0 127 0" result="hardAlpha"/>
<feOffset dy="4"/>
<feGaussianBlur stdDeviation="2"/>
<feComposite in2="hardAlpha" operator="arithmetic" k2="-1" k3="1"/>
<feColorMatrix type="matrix" values="0 0 0 0 1 0 0 0 0 1 0 0 0 0 1 0 0 0 0.5 0"/>
<feBlend mode="normal" in2="shape" result="effect1_innerShadow_2362_50364"/>
</filter>
<linearGradient id="paint0_linear_2362_50364" x1="9.5394" y1="-1.85691e-07" x2="15.9469" y2="19.6042" gradientUnits="userSpaceOnUse">
<stop stop-color="#CBB16D"/>
<stop offset="1" stop-color="#695A33"/>
</linearGradient>
</defs>
</svg>
