<svg width="124" height="128" viewBox="0 0 124 128" fill="" xmlns="http://www.w3.org/2000/svg">
<path d="M64.7172 125.768L65.3965 127.106L64.7172 125.768ZM59.2828 125.768L58.6035 127.106L59.2828 125.768ZM5.28281 98.3397L5.9621 97.0023L5.28281 98.3397ZM118.437 26.5171L117.828 27.8878L118.437 26.5171ZM120.5 32V92.9902H123.5V32H120.5ZM3.5 92.9902V32H0.5V92.9902H3.5ZM6.17238 27.8878L60.1724 3.88785L58.954 1.14641L4.95396 25.1464L6.17238 27.8878ZM63.8276 3.88785L117.828 27.8878L119.046 25.1464L65.046 1.14641L63.8276 3.88785ZM118.038 97.0023L64.0379 124.431L65.3965 127.106L119.396 99.677L118.038 97.0023ZM59.9621 124.431L5.9621 97.0023L4.60351 99.677L58.6035 127.106L59.9621 124.431ZM64.0379 124.431C62.7572 125.081 61.2428 125.081 59.9621 124.431L58.6035 127.106C60.738 128.19 63.262 128.19 65.3965 127.106L64.0379 124.431ZM60.1724 3.88785C61.3359 3.37072 62.6641 3.37072 63.8276 3.88785L65.046 1.14641C63.1068 0.284527 60.8932 0.284531 58.954 1.14641L60.1724 3.88785ZM0.5 92.9902C0.5 95.8139 2.08596 98.3983 4.60351 99.677L5.9621 97.0023C4.45157 96.235 3.5 94.6844 3.5 92.9902H0.5ZM120.5 92.9902C120.5 94.6844 119.548 96.235 118.038 97.0023L119.396 99.677C121.914 98.3983 123.5 95.8139 123.5 92.9902H120.5ZM123.5 32C123.5 29.0361 121.754 26.3502 119.046 25.1464L117.828 27.8878C119.453 28.6101 120.5 30.2217 120.5 32H123.5ZM3.5 32C3.5 30.2216 4.5473 28.6101 6.17238 27.8878L4.95396 25.1464C2.2455 26.3502 0.5 29.0361 0.5 32H3.5Z" />
<path fill-rule="evenodd" clip-rule="evenodd" d="M82.0012 45.7216C83.7992 47.111 84.1305 49.6949 82.7412 51.4929L59.4269 81.6643C58.6808 82.6298 57.5447 83.2143 56.3254 83.26C55.1061 83.3057 53.9294 82.8078 53.1132 81.9009L40.7703 68.1866C39.2502 66.4977 39.3872 63.8963 41.0761 62.3762C42.7651 60.8561 45.3665 60.993 46.8866 62.682L55.9308 72.7311L76.23 46.4615C77.6194 44.6635 80.2032 44.3322 82.0012 45.7216Z" fill=""/>
</svg>
