<svg id="24551" viewBox="0 0 520 10" xmlns="http://www.w3.org/2000/svg" xmlns:xlink="http://www.w3.org/1999/xlink"><g transform="matrix(1,0,0,1,0,0)"><g id="24551" opacity="0.9" style="mix-blend-mode:normal"><g><defs><clipPath id="24551_clipPath" x="-50%" y="-50%" width="200%" height="200%"><path d="M0,10v-10h520v10z" fill="white" clip-rule="nonzero"></path></clipPath></defs><g clip-path="url(#24551_clipPath)"><g transform="matrix(1,0,0,1,0,0)"><g id="248152" opacity="1" style="mix-blend-mode:normal"><g><g><g transform="matrix(1,0,0,1,0,0)"><g id="243166" opacity="1" style="mix-blend-mode:normal"><g><g><g transform="matrix(1,0,0,1,0,0)"><g id="243164" opacity="1" style="mix-blend-mode:normal"><g><g><defs><clipPath id="lbeixrebk8qq02q82b" clipPathUnits="userSpaceOnUse"><path d="M5,10c-2.76142,0 -5,-2.23858 -5,-5v0c0,-2.76142 2.23858,-5 5,-5h510c2.76142,0 5,2.23858 5,5v0c0,2.76142 -2.23858,5 -5,5z"></path></clipPath></defs><path id="243164_stroke_path" d="M5,10c-2.76142,0 -5,-2.23858 -5,-5v0c0,-2.76142 2.23858,-5 5,-5h510c2.76142,0 5,2.23858 5,5v0c0,2.76142 -2.23858,5 -5,5z" fill="none" stroke="rgb(255, 255, 255)" stroke-width="2" stroke-linecap="butt" stroke-linejoin="butt" stroke-dasharray="0 0" stroke-opacity="0.3" clip-path="url(#lbeixrebk8qq02q82b)"></path></g></g></g></g><g transform="matrix(1,0,0,1,0,0)"><g id="31177" opacity="1" style="mix-blend-mode:normal"><g><g><g transform="matrix(1,0,0,1,5,0)"><g id="31178" opacity="1" style="mix-blend-mode:normal"><g><g><g style="mix-blend-mode:normal"><defs><linearGradient id="lbeixee303837547654322937" x1="55.999999999704784" y1="5.333333572109737" x2="0.6461506226452771" y2="5.333333449512017" gradientUnits="userSpaceOnUse"><stop offset="0%" stop-opacity="1" stop-color="rgb(255, 197, 53)"></stop><stop offset="25.88%" stop-opacity="1" stop-color="rgb(241, 72, 113)"></stop><stop offset="48.559999999999995%" stop-opacity="1" stop-color="rgb(139, 24, 171)"></stop><stop offset="74.06%" stop-opacity="1" stop-color="rgb(34, 66, 216)"></stop><stop offset="100%" stop-opacity="1" stop-color="rgb(5, 213, 143)"></stop></linearGradient></defs><path id="31178_fill_path" d="M0,10v-10h56v10z" fill-rule="nonzero" fill="url(#lbeixee303837547654322937)"></path></g></g></g></g></g><g transform="matrix(1,0,0,1,0,0)"><g id="31179" opacity="1" style="mix-blend-mode:normal"><g><g><g style="mix-blend-mode:normal"><defs><linearGradient id="lbeixer62640566633616386" x1="6.999999894201791" y1="4.499999997684848" x2="10.000000394880875" y2="4.500000211269436" gradientUnits="userSpaceOnUse"><stop offset="0%" stop-opacity="1" stop-color="rgb(19, 199, 140)"></stop><stop offset="100%" stop-opacity="0" stop-color="rgb(15, 203, 141)"></stop></linearGradient></defs><path id="31179_fill_path" d="M5,10c-2.76142,0 -5,-2.23858 -5,-5v0c0,-2.76142 2.23858,-5 5,-5v0c2.76142,0 5,2.23858 5,5v0c0,2.76142 -2.23858,5 -5,5z" fill-rule="nonzero" fill="url(#lbeixer62640566633616386)"></path></g></g></g></g></g><g transform="matrix(1,0,0,1,56.9903,0)"><g id="31180" opacity="1" style="mix-blend-mode:normal"><g><g><g style="mix-blend-mode:normal"><defs><linearGradient id="lbeixek37958773621185378" x1="4.49999978542336" y1="5.000000000001501" x2="1.4999999284744536" y2="5.000000000001501" gradientUnits="userSpaceOnUse"><stop offset="0%" stop-opacity="1" stop-color="rgb(252, 192, 44)"></stop><stop offset="100%" stop-opacity="0" stop-color="rgb(252, 192, 44)"></stop></linearGradient></defs><path id="31180_fill_path" d="M5,10c-2.76142,0 -5,-2.23858 -5,-5v0c0,-2.76142 2.23858,-5 5,-5v0c2.76142,0 5,2.23858 5,5v0c0,2.76142 -2.23858,5 -5,5z" fill-rule="nonzero" fill="url(#lbeixek37958773621185378)"></path></g></g></g></g></g></g></g></g></g><g transform="matrix(1,0,0,1,0,0)"><g id="31172" opacity="0" style="mix-blend-mode:normal"><g><g><g transform="matrix(1,0,0,1,0,0)"><g id="31171" opacity="1" style="mix-blend-mode:normal"><g><g><g style="mix-blend-mode:normal"><defs><linearGradient id="lbeixeuc9081504366507063" x1="41.99999999977859" y1="5.333333572109737" x2="0.48461296698395784" y2="5.333333449512017" gradientUnits="userSpaceOnUse"><stop offset="0%" stop-opacity="0" stop-color="rgb(255, 255, 255)"></stop><stop offset="48.559999999999995%" stop-opacity="1" stop-color="rgb(255, 255, 255)"></stop><stop offset="100%" stop-opacity="0" stop-color="rgb(255, 255, 255)"></stop></linearGradient></defs><path id="31171_fill_path" d="M5,10c-2.76142,0 -5,-2.23858 -5,-5v0c0,-2.76142 2.23858,-5 5,-5h32c2.76142,0 5,2.23858 5,5v0c0,2.76142 -2.23858,5 -5,5z" fill-rule="nonzero" fill="url(#lbeixeuc9081504366507063)"></path></g></g></g></g></g></g></g></g></g></g></g></g></g></g></g></g></g></g></g></g></g><animateTransform href="#31178" attributeName="transform" type="translate" values="0 0;0 0" dur="5s" repeatCount="indefinite" calcMode="spline" keyTimes="0;1" keySplines="0.5 0.35 0.15 1" additive="sum" fill="freeze"></animateTransform><animateTransform href="#31178" attributeName="transform" type="translate" values="0 0;0 0;0 0;0 0;0 0;0 0;0 0;0 0;0 0" dur="5s" repeatCount="indefinite" calcMode="spline" keyTimes="0;0;0;0;0.09;0.29;0.39;0.69;1" keySplines="0.5 0.35 0.15 1;0.5 0.35 0.15 1;0.5 0.35 0.15 1;0.5 0.35 0.15 1;0.5 0.35 0.15 1;0.5 0.35 0.15 1;0.5 0.35 0.15 1;0.5 0.35 0.15 1" additive="sum" fill="freeze"></animateTransform><animateTransform href="#31178" attributeName="transform" type="scale" values="1 1;1 1;3 1;1 1;2 1;5.5 1;7 1;9.1 1;9.1 1" dur="5s" repeatCount="indefinite" calcMode="spline" keyTimes="0;0;0;0;0.09;0.29;0.39;0.69;1" keySplines="0.5 0.35 0.15 1;0.5 0.35 0.15 1;0.5 0.35 0.15 1;0.5 0.35 0.15 1;0.5 0.35 0.15 1;0.5 0.35 0.15 1;0.5 0.35 0.15 1;0.5 0.35 0.15 1" additive="sum" fill="freeze"></animateTransform><animateTransform href="#31178" attributeName="transform" type="translate" values="0 0;0 0;0 0;0 0;0 0;0 0;0 0;0 0;0 0" dur="5s" repeatCount="indefinite" calcMode="spline" keyTimes="0;0;0;0;0.09;0.29;0.39;0.69;1" keySplines="0.5 0.35 0.15 1;0.5 0.35 0.15 1;0.5 0.35 0.15 1;0.5 0.35 0.15 1;0.5 0.35 0.15 1;0.5 0.35 0.15 1;0.5 0.35 0.15 1;0.5 0.35 0.15 1" additive="sum" fill="freeze"></animateTransform><animateTransform href="#31180" attributeName="transform" type="translate" values="0 0;0 0;112 0;0.9902999999999977 0;56 0;252 0;336 0;454 0;454 0" dur="5s" repeatCount="indefinite" calcMode="spline" keyTimes="0;0;0;0;0.09;0.29;0.39;0.69;1" keySplines="0.5 0.35 0.15 1;0.5 0.35 0.15 1;0.5 0.35 0.15 1;0.5 0.35 0.15 1;0.5 0.35 0.15 1;0.5 0.35 0.15 1;0.5 0.35 0.15 1;0.5 0.35 0.15 1" additive="sum" fill="freeze"></animateTransform><animateTransform href="#31172" attributeName="transform" type="translate" values="0 0;0 0;477 0" dur="5s" repeatCount="indefinite" calcMode="spline" keyTimes="0;0.68;1" keySplines="0.5 0.35 0.15 1;0.5 0.35 0.15 1" additive="sum" fill="freeze"></animateTransform><animate href="#31172" attributeName="opacity" values="0;0;0.8;0.8;0" dur="5s" repeatCount="indefinite" calcMode="spline" keyTimes="0;0.68;0.68;0.99;1" keySplines="0.5 0.35 0.15 1;0.5 0.35 0.15 1;0.5 0.35 0.15 1;0.5 0.35 0.15 1" additive="sum" fill="freeze"></animate><animateTransform href="#31171" attributeName="transform" type="translate" values="0 0;0 0;136 0;156.6374 0;0 0;0 0" dur="5s" repeatCount="indefinite" calcMode="spline" keyTimes="0;0;0;0;0;1" keySplines="0.5 0.35 0.15 1;0.5 0.35 0.15 1;0.5 0.35 0.15 1;0.5 0.35 0.15 1;0.5 0.35 0.15 1" additive="sum" fill="freeze"></animateTransform><animate href="#31171" attributeName="opacity" values="1;1;0;1;1;0;0;1;1" dur="5s" repeatCount="indefinite" calcMode="spline" keyTimes="0;0;0;0;0;0;0;0;1" keySplines="0.5 0.35 0.15 1;0.5 0.35 0.15 1;0.5 0.35 0.15 1;0.5 0.35 0.15 1;0.5 0.35 0.15 1;0.5 0.35 0.15 1;0.5 0.35 0.15 1;0.5 0.35 0.15 1" additive="sum" fill="freeze"></animate></svg>