<svg width="16" height="16" viewBox="0 0 16 16" fill="none" xmlns="http://www.w3.org/2000/svg">
<path d="M8.00004 10.3866C6.68004 10.3866 5.61337 9.31995 5.61337 7.99995C5.61337 6.67995 6.68004 5.61328 8.00004 5.61328C9.32004 5.61328 10.3867 6.67995 10.3867 7.99995C10.3867 9.31995 9.32004 10.3866 8.00004 10.3866Z" stroke="#FFAD00" stroke-width="1.3" stroke-linecap="round" stroke-linejoin="round"/>
<path d="M14.0733 9.72665C14.6733 8.78665 14.6733 7.20665 14.0733 6.26665C12.5467 3.86665 10.3533 2.47998 7.99999 2.47998C5.64665 2.47998 3.45332 3.86665 1.92665 6.26665C1.32665 7.20665 1.32665 8.78665 1.92665 9.72665C3.45332 12.1266 5.64665 13.5133 7.99999 13.5133C10.3533 13.5133 12.5467 12.1266 14.0733 9.72665Z" stroke="#FFAD00" stroke-width="1.3" stroke-linecap="round" stroke-linejoin="round"/>
</svg>
