<?xml version="1.0" encoding="UTF-8"?>
<svg width="24px" height="24px" viewBox="0 0 24 24" version="1.1" xmlns="http://www.w3.org/2000/svg" xmlns:xlink="http://www.w3.org/1999/xlink">
    <title>icon/标记</title>
    <g id="icon/标记" stroke="none" stroke-width="1" fill="none" fill-rule="evenodd">
        <path d="M17.5,2 C20.5375661,2 23,4.48730695 23,7.55555556 L23,16.4444444 C23,19.5126931 20.5375661,22 17.5,22 L6.5,22 C3.46243388,22 1,19.5126931 1,16.4444444 L1,7.55555556 C1,4.48730695 3.46243388,2 6.5,2 L17.5,2 Z M17.28,4 L6.72,4 C4.75435721,4 3.14710465,5.54995048 3.03074526,7.50590908 L3.024,7.73333333 L3.024,16.2666667 C3.024,18.2521644 4.55845098,19.8756519 6.49484999,19.9931866 L6.72,20 L17.28,20 C19.2456428,20 20.8528954,18.4500495 20.9692547,16.4940909 L20.976,16.2666667 L20.976,7.73333333 C20.976,5.74783557 19.441549,4.12434813 17.50515,4.00681339 L17.28,4 Z M13,11 C13.5522847,11 14,11.4477153 14,12 C14,12.5522847 13.5522847,13 13,13 L7,13 C6.44771525,13 6,12.5522847 6,12 C6,11.4477153 6.44771525,11 7,11 L13,11 Z M18,11 C18.5522847,11 19,11.4477153 19,12 C19,12.5522847 18.5522847,13 18,13 L17,13 C16.4477153,13 16,12.5522847 16,12 C16,11.4477153 16.4477153,11 17,11 L18,11 Z M17,7 C17.5522847,7 18,7.44771525 18,8 C18,8.55228475 17.5522847,9 17,9 L12,9 C11.4477153,9 11,8.55228475 11,8 C11,7.44771525 11.4477153,7 12,7 L17,7 Z M8,6 C8.55228475,6 9,6.44771525 9,7 C9,7.55228475 8.55228475,8 8,8 L7,8 C6.44771525,8 6,7.55228475 6,7 C6,6.44771525 6.44771525,6 7,6 L8,6 Z" id="形状结合" fill="#FFAD00" fill-rule="nonzero"></path>
    </g>
</svg>