<svg width="16" height="16" viewBox="0 0 16 16" fill="none" xmlns="http://www.w3.org/2000/svg">
<path d="M6.3134 9.68661C5.88007 9.25328 5.6134 8.65995 5.6134 7.99995C5.6134 6.67995 6.68007 5.61328 8.00007 5.61328C8.66007 5.61328 9.2534 5.87995 9.68674 6.31328L6.3134 9.68661Z" stroke="#FFAD00" stroke-width="1.3" stroke-linecap="round" stroke-linejoin="round"/>
<path d="M11.88 3.84682C10.7134 2.96682 9.38002 2.48682 8.00002 2.48682C5.64668 2.48682 3.45335 3.87348 1.92668 6.27348C1.32668 7.21348 1.32668 8.79348 1.92668 9.73348C2.45335 10.5602 3.06668 11.2735 3.73335 11.8468" stroke="#FFAD00" stroke-width="1.3" stroke-linecap="round" stroke-linejoin="round"/>
<path d="M5.6134 13.02C6.3734 13.34 7.18007 13.5133 8.00007 13.5133C10.3534 13.5133 12.5467 12.1266 14.0734 9.72662C14.6734 8.78662 14.6734 7.20662 14.0734 6.26662C13.8534 5.91995 13.6134 5.59329 13.3667 5.28662" stroke="#FFAD00" stroke-width="1.3" stroke-linecap="round" stroke-linejoin="round"/>
<path d="M10.34 8.4668C10.1667 9.4068 9.39999 10.1735 8.45999 10.3468" stroke="#FFAD00" stroke-width="1.3" stroke-linecap="round" stroke-linejoin="round"/>
<path d="M6.31337 9.68652L1.33337 14.6665" stroke="#FFAD00" stroke-width="1.3" stroke-linecap="round" stroke-linejoin="round"/>
<path d="M14.6667 1.3335L9.68671 6.3135" stroke="#FFAD00" stroke-width="1.3" stroke-linecap="round" stroke-linejoin="round"/>
</svg>
