<?xml version="1.0" encoding="UTF-8"?>
<svg width="24px" height="24px" viewBox="0 0 24 24" version="1.1" xmlns="http://www.w3.org/2000/svg" xmlns:xlink="http://www.w3.org/1999/xlink">
    <title>icon/取消标记</title>
    <g id="icon/取消标记" stroke="none" stroke-width="1" fill="none" fill-rule="evenodd">
        <g transform="translate(1.000000, 2.000000)" fill="#FFAD00" fill-rule="nonzero" id="形状结合">
            <path d="M16.9033233,9.12386707 C19.9066844,9.12386707 22.3413897,11.5585724 22.3413897,14.5619335 C22.3413897,17.5652947 19.9066844,20 16.9033233,20 C13.8999621,20 11.4652568,17.5652947 11.4652568,14.5619335 C11.4652568,11.5585724 13.8999621,9.12386707 16.9033233,9.12386707 Z M15.5454545,0 C19.0305184,0 21.8739425,2.73998514 21.9959226,6.17031135 L22,6.4 L22,8.1 C22,8.65228475 21.5522847,9.1 21,9.1 C20.4871642,9.1 20.0644928,8.71395981 20.0067277,8.21662113 L20,8.1 L20,6.4 C20,4.04157481 18.1200791,2.11306958 15.7553315,2.00479453 L15.5454545,2 L6.45454545,2 C4.06248538,2 2.11421994,3.86112165 2.00484319,6.19305474 L2,6.4 L2,13.6 C2,15.9584252 3.87992086,17.8869304 6.24466854,17.9952055 L6.45454545,18 L10,18 C10.5522847,18 11,18.4477153 11,19 C11,19.5128358 10.6139598,19.9355072 10.1166211,19.9932723 L10,20 L6.45454545,20 C2.96948156,20 0.126057542,17.2600149 0.004077416,13.8296886 L0,13.6 L0,6.4 C0,2.94000413 2.76766176,0.124801692 6.22318126,0.00403674458 L6.45454545,0 L15.5454545,0 Z M20.2064485,12.4825784 L14.6366554,17.7391919 C15.2756097,18.1958402 16.0580867,18.4645459 16.9033233,18.4645459 C19.0586766,18.4645459 20.8059357,16.7172869 20.8059357,14.5619335 C20.8059357,13.7975845 20.5861984,13.0845579 20.2064485,12.4825784 Z M16.9033233,10.6593211 C14.7479699,10.6593211 13.0007109,12.4065802 13.0007109,14.5619335 C13.0007109,15.3168155 13.2150387,16.0216386 13.5861614,16.6188699 L19.1479706,11.369052 C18.5130969,10.9219043 17.7388749,10.6593211 16.9033233,10.6593211 Z M10.6374622,8.93353474 C11.189747,8.93353474 11.6374622,9.38124999 11.6374622,9.93353474 C11.6374622,10.4858195 11.189747,10.9335347 10.6374622,10.9335347 L5.83987915,10.9335347 C5.2875944,10.9335347 4.83987915,10.4858195 4.83987915,9.93353474 C4.83987915,9.38124999 5.2875944,8.93353474 5.83987915,8.93353474 L10.6374622,8.93353474 Z M6.77643505,4.85498489 C7.3287198,4.85498489 7.77643505,5.30270014 7.77643505,5.85498489 C7.77643505,6.40726964 7.3287198,6.85498489 6.77643505,6.85498489 L5.83987915,6.85498489 C5.2875944,6.85498489 4.83987915,6.40726964 4.83987915,5.85498489 C4.83987915,5.30270014 5.2875944,4.85498489 5.83987915,4.85498489 L6.77643505,4.85498489 Z M14.7976985,4.84288197 C15.343258,4.84122858 15.7868617,5.2821516 15.7885151,5.82771111 L15.7885196,5.83070484 C15.7885196,6.37840782 15.345399,6.82287347 14.7976985,6.82453335 L10.7249601,6.83687634 C10.1794006,6.83852973 9.7357969,6.3976067 9.73414351,5.8520472 L9.73413897,5.84905347 C9.73413897,5.30135048 10.1772596,4.85688484 10.7249601,4.85522496 L14.7976985,4.84288197 Z"></path>
        </g>
    </g>
</svg>