<svg width="25" height="25" viewBox="0 0 25 25" fill="none" xmlns="http://www.w3.org/2000/svg">
<path d="M13.1496 11.995L13.0323 11.7166L12.8894 11.8334L13.1496 11.995Z" fill="#9296A0"/>
<path d="M9.54786 13.1819H1.44647C0.697451 13.1819 0.0880127 13.7914 0.0880127 14.5404V22.6417C0.0880127 23.3908 0.697451 24.0002 1.44647 24.0002H9.54786C10.2969 24.0002 10.9063 23.3908 10.9063 22.6417V14.5404C10.9063 13.7914 10.2969 13.1819 9.54786 13.1819Z" fill="#9296A0"/>
<path d="M9.50901 22.6028H1.48532V14.5793H9.50901V22.6028Z" fill="#9296A0"/>
<path d="M1.35839 11.7623H9.45982C10.2088 11.7623 10.8182 11.1529 10.8182 10.4039V2.30248C10.8182 1.55346 10.2088 0.944092 9.45982 0.944092L1.35839 0.944092C0.609368 0.944092 0 1.55346 0 2.30248V10.4039C3.50691e-05 11.1529 0.609368 11.7623 1.35839 11.7623Z" fill="#9296A0"/>
<path d="M1.39737 2.34137H9.42096V10.365H1.39737V2.34137Z" fill="#9296A0"/>
<path d="M22.622 13.094H14.5206C13.7719 13.094 13.1628 13.7034 13.1628 14.4524V22.5538C13.1628 23.3028 13.7719 23.9122 14.5206 23.9122H22.622C23.3713 23.9122 23.981 23.3028 23.981 22.5538V14.4524C23.981 13.7034 23.3713 13.094 22.622 13.094Z" fill="#9296A0"/>
<path d="M22.5837 22.5149H14.5602V14.4913H22.5837V22.5149Z" fill="#9296A0"/>
<path d="M24.212 5.12128L19.4659 0.37523C19.2232 0.133277 18.9007 0 18.5578 0C18.2151 0 17.8927 0.133277 17.649 0.376071L12.9054 5.12043C12.6618 5.36323 12.5277 5.68628 12.5277 6.03011C12.5277 6.37394 12.6618 6.69702 12.9045 6.9389L17.6491 11.6842C17.8915 11.9267 18.2142 12.0602 18.5576 12.0602C18.9006 12.0602 19.2233 11.9269 19.4668 11.6842L24.2128 6.93816C24.7127 6.4367 24.7124 5.62169 24.212 5.12128Z" fill="#9296A0"/>
<path d="M18.5579 10.501L14.0877 6.03014L18.5579 1.55927L23.0288 6.03014L18.5579 10.501Z" fill="#9296A0"/>
<path d="M9.59026 13.2148H1.47541C0.725022 13.2148 0.114532 13.8253 0.114532 14.5758V22.6906C0.114532 23.4409 0.725022 24.0512 1.47541 24.0512H9.59026C10.3405 24.0512 10.9509 23.4409 10.9509 22.6906V14.5758C10.9509 13.8253 10.3405 13.2148 9.59026 13.2148Z" fill="#9296A0"/>
<path d="M1.38728 11.7927H9.50188C10.2523 11.7927 10.8628 11.1823 10.8628 10.4321V2.31724C10.8628 1.56702 10.2523 0.956604 9.50188 0.956604H1.38728C0.636892 0.956604 0.0263672 1.56702 0.0263672 2.31724V10.4321C0.0264023 11.1823 0.636892 11.7927 1.38728 11.7927Z" fill="#9296A0"/>
<path d="M22.6856 13.1268H14.5708C13.821 13.1268 13.2109 13.7373 13.2109 14.4876V22.6022C13.2109 23.3526 13.8209 23.9631 14.5708 23.9631H22.6856C23.4363 23.9631 24.047 23.3526 24.047 22.6022V14.4876C24.047 13.7373 23.4363 13.1268 22.6856 13.1268Z" fill="#9296A0"/>
<path d="M24.2784 5.1408L19.5245 0.38725C19.2814 0.144701 18.9583 0.0111084 18.6148 0.0111084C18.2714 0.0111084 17.9483 0.144701 17.7045 0.387916L12.9531 5.13988C12.7091 5.38303 12.5747 5.70664 12.5747 6.0511C12.5747 6.39563 12.7091 6.7192 12.9521 6.96136L17.7046 11.7147C17.9475 11.9576 18.2707 12.0913 18.6147 12.0913C18.9584 12.0913 19.2815 11.9577 19.5252 11.7147L24.2793 6.96052C24.7799 6.45818 24.7795 5.64187 24.2784 5.1408Z" fill="#9296A0"/>
<path d="M18.6149 10.5295L14.1373 6.05111L18.6149 1.57306L23.0932 6.05111L18.6149 10.5295Z" fill="#9296A0"/>
<path d="M13.1872 12.1188L13.0699 11.8404L12.927 11.9572L13.1872 12.1188Z" fill="#9296A0"/>
</svg>
