<?xml version="1.0" encoding="UTF-8"?>
<svg width="26px" height="26px" viewBox="0 0 26 26" version="1.1" xmlns="http://www.w3.org/2000/svg" xmlns:xlink="http://www.w3.org/1999/xlink">
    <title>编组 4</title>
    <g id="页面-1" stroke="none" stroke-width="1" fill="none" fill-rule="evenodd">
        <g id="T0-Transfer-Web" transform="translate(-1030.000000, -664.000000)">
            <g id="编组-15备份-4" transform="translate(1015.000000, 649.000000)">
                <g id="编组-4" transform="translate(15.000000, 15.000000)">
                    <rect id="矩形" x="0" y="0" width="26" height="26"></rect>
                    <path d="M21.8680723,15.097113 C22.7662651,15.097113 23.5,15.8192849 23.5,16.7188324 L23.5,21.8627238 C23.5,22.7622713 22.7662651,23.497113 21.8680723,23.497113 L16.7319277,23.497113 C15.8337349,23.497113 15.1,22.7622713 15.1,21.8627238 L15.1,20.3567914 L16.8078313,20.3567914 C18.4826477,20.3567914 20.3555786,18.619658 20.3555786,16.8852982 L20.3555786,15.097113 L21.8680723,15.097113 Z M22.182989,3.54855648 C22.906059,3.54855648 23.4965881,4.13777324 23.4965881,4.86215552 L23.4965881,7.94717108 C23.4965881,8.67155337 22.906059,9.26208241 22.182989,9.26208241 L19.8366578,9.26208241 C19.284373,9.26208241 18.8366578,9.70979766 18.8366578,10.2620824 L18.8366578,16.5583968 C18.8366578,17.8063815 17.8104496,18.8325897 16.5624648,18.8325897 L9.1662836,18.8325897 C8.61399885,18.8325897 8.1662836,19.280305 8.1662836,19.8325897 L8.1662836,21.1407315 C8.1662836,21.8598646 7.58100371,22.4451445 6.86055828,22.4451445 L3.80572532,22.4451445 C3.08527989,22.4451445 2.5,21.8598646 2.5,21.1407315 L2.5,18.0845863 C2.5,17.3654531 3.08527989,16.7801732 3.80572532,16.7801732 L6.16780398,16.7801732 C6.72008873,16.7801732 7.16780398,16.332458 7.16780398,15.7801732 L7.16780398,9.42480597 C7.16780398,8.17813355 8.18220164,7.16504818 9.42887406,7.16504818 L16.7830621,7.16504818 C17.3353469,7.16504818 17.7830621,6.71733293 17.7830621,6.16504818 L17.7830621,4.86215552 C17.7830621,4.13777324 18.3735912,3.54855648 19.0966612,3.54855648 L22.182989,3.54855648 Z M15.0931869,10.0010989 L13.630984,11.8316073 C13.5301424,11.9841497 13.630984,12.1875395 13.7822463,12.1875395 L14.336875,12.1875395 L14.3360963,12.4296223 C14.3263621,13.457331 14.1949499,14.71108 12.420885,15.7468616 C12.3704642,15.797709 12.420885,15.8485565 12.4713058,15.8485565 C16.0511819,15.2892345 16.3537067,12.8485565 16.3537067,12.1875395 L16.9587562,12.1875395 C17.1604394,12.1875395 17.2612809,11.9841497 17.1604394,11.8316073 L15.6982364,10.0010989 C15.546974,9.79770903 15.2444493,9.79770903 15.0931869,10.0010989 Z M13.5284385,9.84855648 C9.93572483,10.4078785 9.63211522,12.8485565 9.63211522,13.5095734 L9.02489601,13.5095734 C8.8224896,13.5095734 8.7212864,13.7129633 8.8730912,13.8655056 L10.3405376,15.6960141 C10.4923424,15.8994039 10.7959521,15.8994039 10.9477569,15.6960141 L12.4152033,13.8655056 C12.5164065,13.7129633 12.4152033,13.5095734 12.2633985,13.5095734 L11.6561793,13.5095734 L11.6569608,13.2674907 C11.66673,12.239782 11.7986134,10.9860329 13.5790401,9.9502514 C13.6296417,9.89940394 13.5790401,9.84855648 13.5284385,9.84855648 Z M9.26889158,2.5 C10.1684391,2.5 10.9032807,3.23484163 10.9032807,4.13438914 L10.9032807,5.65311551 L9.19287348,5.65311551 C7.56123223,5.65311551 5.6511083,7.18825097 5.6511083,9.11193904 L5.6511083,10.9 L4.13766986,10.9 C3.23812235,10.9 2.50328072,10.1651584 2.50328072,9.26561086 L2.50328072,4.13438914 C2.50328072,3.23484163 3.23812235,2.5 4.13766986,2.5 L9.26889158,2.5 Z" id="形状结合" fill="#999999"></path>
                </g>
            </g>
        </g>
    </g>
</svg>