<svg width="40" height="40" viewBox="0 0 40 40" fill="none" xmlns="http://www.w3.org/2000/svg">
<g id="Frame">
<path id="Vector" d="M12.8539 17.7313L15.2322 19.8115L13.1773 22.1602C14.5485 23.4197 15.4059 25.1416 15.5847 26.9948C15.7635 28.8481 15.251 30.7021 14.1458 32.2005C13.0406 33.6989 11.4207 34.7359 9.59725 35.1124C7.77382 35.4889 5.87559 35.1782 4.26733 34.2401C2.65908 33.3019 1.45427 31.8025 0.884441 30.0299C0.314611 28.2574 0.419961 26.3368 1.18025 24.6372C1.94054 22.9376 3.30212 21.579 5.00333 20.8224C6.70455 20.0658 8.62538 19.9646 10.3967 20.5382L12.8539 17.7313ZM31.9494 20.1749C33.9515 20.1749 35.8715 20.9702 37.2871 22.3858C38.7028 23.8015 39.4981 25.7215 39.4981 27.7235C39.4981 29.7256 38.7028 31.6456 37.2871 33.0612C35.8715 34.4769 33.9515 35.2722 31.9494 35.2722C29.963 35.2487 28.0658 34.4432 26.6694 33.0302C25.273 31.6171 24.4899 29.7106 24.4899 27.7241C24.4899 25.7375 25.273 23.831 26.6694 22.418C28.0658 21.005 29.963 20.1994 31.9494 20.1759V20.1749ZM8.07531 23.3346C6.9113 23.3346 5.79497 23.797 4.97189 24.6201C4.14881 25.4432 3.6864 26.5595 3.6864 27.7235C3.6864 28.8875 4.14881 30.0039 4.97189 30.827C5.79497 31.65 6.9113 32.1124 8.07531 32.1124C9.22741 32.0946 10.3263 31.6244 11.1347 30.8033C11.9431 29.9823 12.3962 28.8763 12.3962 27.7241C12.3962 26.5718 11.9431 25.4658 11.1347 24.6448C10.3263 23.8237 9.22741 23.3535 8.07531 23.3357V23.3346ZM31.9484 23.3346C30.7844 23.3346 29.668 23.797 28.8449 24.6201C28.0219 25.4432 27.5595 26.5595 27.5595 27.7235C27.5595 28.8875 28.0219 30.0039 28.8449 30.827C29.668 31.65 30.7844 32.1124 31.9484 32.1124C33.1005 32.0946 34.1993 31.6244 35.0078 30.8033C35.8162 29.9823 36.2693 28.8763 36.2693 27.7241C36.2693 26.5718 35.8162 25.4658 35.0078 24.6448C34.1993 23.8237 33.1005 23.3535 31.9484 23.3357V23.3346ZM20.0118 5.25446C21.5049 5.25459 22.9644 5.6975 24.2058 6.52717C25.4471 7.35684 26.4145 8.53599 26.9857 9.9155C27.5568 11.295 27.706 12.8129 27.4145 14.2773C27.1229 15.7416 26.4036 17.0866 25.3476 18.1421L27.8438 20.6383L25.6088 22.8722L22.625 19.8884C21.814 20.1864 20.9324 20.3518 20.0118 20.3518C18.0098 20.3518 16.0898 19.5565 14.6741 18.1408C13.2585 16.7252 12.4632 14.8052 12.4632 12.8031C12.4632 10.8011 13.2585 8.88106 14.6741 7.46541C16.0898 6.04976 18.0098 5.25446 20.0118 5.25446ZM20.0118 8.41422C19.4298 8.4052 18.8518 8.51205 18.3115 8.72854C17.7712 8.94503 17.2793 9.26683 16.8646 9.67523C16.4498 10.0836 16.1204 10.5704 15.8956 11.1073C15.6707 11.6443 15.5549 12.2205 15.5549 12.8026C15.5549 13.3847 15.6707 13.9609 15.8956 14.4979C16.1204 15.0348 16.4498 15.5216 16.8646 15.93C17.2793 16.3384 17.7712 16.6602 18.3115 16.8767C18.8518 17.0932 19.4298 17.2 20.0118 17.191C21.1639 17.1731 22.2628 16.7029 23.0712 15.8819C23.8796 15.0609 24.3328 13.9548 24.3328 12.8026C24.3328 11.6504 23.8796 10.5443 23.0712 9.7233C22.2628 8.90226 21.1639 8.43207 20.0118 8.41422Z" fill="#999999"/>
</g>
</svg>
