<svg xmlns="http://www.w3.org/2000/svg" width="20" height="20" viewBox="0 0 41 40" fill="none">
  <path d="M9.56852 34C3.13704 34 1 30.5083 1 27V13C1 7.74584 3.13704 6 9.56852 6H22.4315C28.863 6 31 7.74584 31 13V27C31 32.2542 28.8426 34 22.4315 34H9.56852Z" stroke="white" stroke-width="4" stroke-linecap="round" stroke-linejoin="round"/>
  <path d="M30.8999 25.2497V14.7331L35.5332 11.4831C37.7999 9.89973 39.6666 10.8664 39.6666 13.6497V26.3497C39.6666 29.1331 37.7999 30.0997 35.5332 28.4997L30.8999 25.2497Z" stroke="white" stroke-width="4" stroke-linecap="round" stroke-linejoin="round"/>
  <path fill-rule="evenodd" clip-rule="evenodd" d="M22.1667 18.3333C20.786 18.3333 19.6667 17.214 19.6667 15.8333C19.6667 14.4525 20.786 13.3333 22.1667 13.3333C23.5475 13.3333 24.6667 14.4525 24.6667 15.8333C24.6667 17.214 23.5475 18.3333 22.1667 18.3333Z" stroke="white" stroke-width="4" stroke-linecap="round" stroke-linejoin="round"/>
</svg>