<?xml version="1.0" encoding="UTF-8"?>
<svg width="20px" height="16px" viewBox="0 0 20 16" version="1.1" xmlns="http://www.w3.org/2000/svg" xmlns:xlink="http://www.w3.org/1999/xlink">
    <title>宝箱</title>
    <g id="页面-1" stroke="none" stroke-width="1" fill="none" fill-rule="evenodd">
        <g id="b4.1设置" transform="translate(-492.000000, -867.000000)" fill="#7E84AA" fill-rule="nonzero">
            <g id="编组-9" transform="translate(360.000000, 775.000000)">
                <g id="宝箱" transform="translate(132.011766, 92.002353)">
                    <path d="M15.3473268,0 L4.48983434,0 C2.01430723,0 0,2.01430723 0,4.48983434 L0,13.5142131 C0,14.728445 0.988328313,15.7191265 2.2049134,15.7191265 L17.7781438,15.7191265 C18.9923758,15.7191265 19.9783509,14.7331514 19.9783509,13.5189194 L19.9783509,4.6310241 C19.9783509,2.07784262 17.9005083,0 15.3473268,0 Z M18.6841114,13.5189194 C18.6841114,14.0177899 18.2770143,14.424887 17.7781438,14.424887 L2.2049134,14.424887 C1.70368976,14.424887 1.29423946,14.0177899 1.29423946,13.5142131 L1.29423946,6.20058358 L8.20547816,6.20058358 L8.20547816,6.8171122 C8.20547816,7.12302334 8.4549134,7.37245858 8.76082455,7.37245858 L8.8643637,7.37245858 L8.8643637,8.1842997 L8.49727033,8.1842997 C8.19135919,8.1842997 7.94192395,8.43373494 7.94192395,8.73964608 L7.94192395,10.6668863 C7.94192395,11.3187123 8.47138554,11.8481739 9.1232116,11.8481739 L10.8551393,11.8481739 C11.5069654,11.8481739 12.036427,11.3187123 12.036427,10.6668863 L12.036427,8.73964608 C12.036427,8.43373494 11.7869917,8.1842997 11.4810806,8.1842997 L11.0951619,8.1842997 L11.0951619,7.37245858 L11.2175264,7.37245858 C11.5234375,7.37245858 11.7728727,7.12302334 11.7728727,6.8171122 L11.7728727,6.20058358 L18.6841114,6.20058358 L18.6841114,13.5189194 Z M9.14674322,6.43119352 L9.14674322,5.09930346 C9.14674322,4.64278991 9.51854292,4.26863705 9.97740964,4.26863705 L10.0032944,4.26863705 C10.459808,4.26863705 10.8339608,4.64043675 10.8339608,5.09930346 L10.8339608,6.43119352 L9.14674322,6.43119352 Z M10.3892131,7.37245858 L10.3892131,8.1842997 L9.5703125,8.1842997 L9.5703125,7.37245858 L10.3892131,7.37245858 Z M11.0951619,9.12556476 L11.0951619,10.6668863 C11.0951619,10.7986634 10.9869164,10.9069089 10.8551393,10.9069089 L9.1232116,10.9069089 C8.99143449,10.9069089 8.88318901,10.7986634 8.88318901,10.6668863 L8.88318901,9.12556476 L11.0951619,9.12556476 Z M18.6841114,4.90634413 L11.7634601,4.90634413 C11.6669804,4.02155497 10.9139684,3.32972515 10.0032944,3.32972515 L9.97740964,3.32972515 C9.06673569,3.32972515 8.31372364,4.02155497 8.21724398,4.90634413 L1.29423946,4.90634413 L1.29423946,4.48983434 C1.29423946,2.72731551 2.72731551,1.29423946 4.48983434,1.29423946 L15.3473268,1.29423946 C17.1875,1.29423946 18.6841114,2.7908509 18.6841114,4.6310241 L18.6841114,4.90634413 Z" id="形状"></path>
                </g>
            </g>
        </g>
    </g>
</svg>