<?xml version="1.0" encoding="UTF-8"?>
<svg width="22px" height="22px" viewBox="0 0 22 22" version="1.1" xmlns="http://www.w3.org/2000/svg" xmlns:xlink="http://www.w3.org/1999/xlink">
    <title>礼物</title>
    <g id="list" stroke="none" stroke-width="1" fill="none" fill-rule="evenodd">
        <g id="4-TP-input#备份-6" transform="translate(-1228.000000, -846.000000)" fill-rule="nonzero">
            <g id="编组-30" transform="translate(1154.000000, 844.000000)">
                <g id="礼物" transform="translate(74.000000, 2.000000)">
                    <rect id="矩形" fill="#000000" opacity="0" x="0" y="0" width="22" height="22"></rect>
                    <path d="M10.3827924,2.80513213 L7.42194148,2.80513213 C7.21724067,2.80513213 7.06005969,2.7576123 6.95039855,2.66257264 C6.84073741,2.56753297 6.76397461,2.44690571 6.72011015,2.30069085 C6.67624569,2.15447599 6.65431346,1.98998427 6.65431346,1.80721568 C6.65431346,1.62444709 6.66893494,1.45264463 6.69817791,1.2918083 C6.7127994,1.13097195 6.74204238,0.955514116 6.78590684,0.765434797 C6.8297713,0.575355479 6.89191261,0.41451913 6.97233079,0.282925749 C7.05274896,0.151332368 7.15875474,0.0636034475 7.29034812,0.0197389872 C7.4219415,-0.0241254731 7.58277785,0.0124282414 7.77285717,0.129400131 C7.99217946,0.260993511 8.24074473,0.403553004 8.51855298,0.557078607 C8.79636123,0.710604211 9.06685873,0.864129815 9.33004546,1.01765542 C9.59323219,1.17118102 9.83814209,1.31008514 10.0647752,1.43436778 C10.2914082,1.55865041 10.4632107,1.65734544 10.5801825,1.73045287 C10.7263974,1.83280327 10.8360585,1.94611979 10.909166,2.07040242 C10.9822734,2.19468506 11.0115164,2.31165695 10.9968949,2.42131809 C10.9822734,2.53097923 10.9237875,2.62236352 10.8214371,2.69547095 C10.7190866,2.76857838 10.5728718,2.80513213 10.3827925,2.80513213 L10.3827924,2.80513213 Z M12.0935063,2.78319992 L15.0324251,2.78319992 C15.2371259,2.78319992 15.3943069,2.73568009 15.503968,2.64064042 C15.6136291,2.54560075 15.6903919,2.42497349 15.7342564,2.27875863 C15.7781209,2.13254378 15.8000531,1.96805205 15.8000531,1.78528347 C15.8000531,1.60251488 15.7927423,1.43071242 15.7781209,1.26987608 C15.7488779,1.10903973 15.7159795,0.937237273 15.6794258,0.754468701 C15.6428721,0.571700128 15.5843862,0.414519152 15.503968,0.282925771 C15.4235498,0.15133239 15.317544,0.0636034696 15.1859507,0.0197390093 C15.0543573,-0.024125451 14.8935209,0.00511752495 14.7034416,0.107467937 C14.4841193,0.239061318 14.2355541,0.38162081 13.9577458,0.535146414 C13.6799376,0.688672018 13.4057847,0.842197621 13.1352872,0.995723225 C12.8647897,1.14924883 12.6162245,1.28815295 12.3895914,1.41243558 C12.1629583,1.53671822 11.9984666,1.63541325 11.8961162,1.70852068 C11.7352799,1.81087108 11.618308,1.92418759 11.5452006,2.04847023 C11.4720931,2.17275286 11.4428502,2.28972475 11.4574716,2.3993859 C11.4720931,2.50904704 11.5305791,2.60043133 11.6329295,2.67353875 C11.7352799,2.74664618 11.8888055,2.78319992 12.0935063,2.78319992 L12.0935063,2.78319992 Z M10.0757412,4.23072704 L3.71539471,4.23072704 C3.24750715,4.23072704 2.94411131,4.30748984 2.80520719,4.46101545 C2.66630306,4.61454105 2.596851,4.85945095 2.596851,5.19574514 L2.596851,7.12578133 C2.596851,7.49131849 2.6736138,7.76181599 2.8271394,7.93727381 C2.98066501,8.11273164 3.28406085,8.20046057 3.73732693,8.20046057 L10.0757412,8.20046057 L10.0757412,4.23072704 L10.0757412,4.23072704 Z M12.4663542,4.23072704 L18.7389718,4.23072704 C19.2068594,4.23072704 19.5248767,4.32211133 19.6930238,4.5048799 C19.8611709,4.68764847 19.9452445,4.94717986 19.9452445,5.28347405 L19.9452445,7.16964576 C19.9452445,7.52056143 19.8684817,7.78009281 19.7149561,7.94823991 C19.5614305,8.116387 19.2580346,8.20046055 18.8047685,8.20046055 L12.4663542,8.20046055 L12.4663542,4.23072704 L12.4663542,4.23072704 Z M10.0757412,9.36286872 L3.34254681,9.36286872 L3.34254681,12.9597543 L3.34254681,14.3853493 L3.34254681,15.7232153 L3.34254681,16.8636912 L3.34254681,17.6532515 C3.34254681,18.3989472 3.55455835,18.976496 3.97858145,19.3858976 C4.40260455,19.7952992 5.06057143,20 5.9524821,20 L10.0757412,20 L10.0757412,9.36286872 L10.0757412,9.36286872 Z M12.4663542,9.3628687 L19.1776164,9.3628687 L19.1776164,17.5874547 C19.1629949,18.3331505 18.9509834,18.9216654 18.5415818,19.3529992 C18.1321802,19.784333 17.481524,20 16.5896134,20 L12.4663542,20 L12.4663542,9.3628687 L12.4663542,9.3628687 Z" id="形状" fill="#838791"></path>
                </g>
            </g>
        </g>
    </g>
</svg>