<svg width="14" height="16" viewBox="0 0 14 16" fill="none" xmlns="http://www.w3.org/2000/svg">
<path id="Vector" d="M4.00011 3.33376H6.66645C6.85067 3.33376 7.00736 3.39829 7.13792 3.52939C7.26805 3.65824 7.33355 3.81611 7.33355 4.00053C7.33355 4.18507 7.26805 4.34059 7.13803 4.47168C7.00736 4.60064 6.85067 4.66731 6.66645 4.66731H4C3.816 4.66731 3.65909 4.60064 3.52864 4.47168C3.39819 4.34059 3.33312 4.18507 3.33312 4.00053C3.33312 3.816 3.39819 3.65824 3.52864 3.52939C3.65909 3.39819 3.816 3.33376 4.00011 3.33376ZM4.00011 5.99861H9.33333C9.51733 5.99861 9.67424 6.06528 9.8048 6.19424C9.93493 6.32533 10.0002 6.48309 10.0002 6.66763C10.0002 6.84981 9.93493 7.00768 9.8049 7.13877C9.67424 7.26763 9.51733 7.3344 9.33333 7.3344H4C3.816 7.3344 3.65909 7.26763 3.52864 7.13877C3.39819 7.00757 3.33312 6.84981 3.33312 6.66763C3.33312 6.48309 3.39819 6.32523 3.52864 6.19424C3.65909 6.06528 3.816 5.99861 4.00011 5.99861ZM11.3325 1.33355H1.99957C1.81536 1.33355 1.65877 1.39797 1.52811 1.52907C1.39797 1.65803 1.33248 1.81579 1.33248 2.00032V13.9997C1.33248 14.1842 1.39808 14.3421 1.528 14.4709C1.65877 14.602 1.81536 14.6687 1.99957 14.6687H11.3326C11.5166 14.6687 11.6741 14.602 11.8037 14.4709C11.9349 14.342 12 14.1842 12 13.9997V2.00032C12 1.81579 11.9349 1.65792 11.8037 1.52907C11.6741 1.39797 11.5166 1.33355 11.3326 1.33355M4.00011 8.6656H9.33344C9.51744 8.6656 9.67434 8.73013 9.8049 8.86123C9.93504 8.99243 10.0003 9.15019 10.0003 9.33237C10.0003 9.51691 9.93504 9.67477 9.80501 9.80363C9.67434 9.93472 9.51744 10.0014 9.33344 10.0014H4.00011C3.81611 10.0014 3.6592 9.93472 3.52875 9.80363C3.3984 9.67467 3.33333 9.5168 3.33333 9.33227C3.33333 9.15008 3.3984 8.99221 3.52885 8.86112C3.65931 8.72992 3.81621 8.66549 4.00032 8.66549M4.00032 11.3326H9.33333C9.51733 11.3326 9.67424 11.3993 9.8048 11.5282C9.93493 11.6593 10.0002 11.8171 10.0002 11.9994C10.0002 12.1839 9.93493 12.3417 9.8049 12.4705C9.67424 12.6017 9.51733 12.6683 9.33333 12.6683H4C3.816 12.6683 3.65909 12.6016 3.52864 12.4705C3.39819 12.3417 3.33312 12.1838 3.33312 11.9994C3.33312 11.8171 3.39819 11.6593 3.52864 11.5282C3.65909 11.3993 3.816 11.3326 4.00011 11.3326M2 0H11.3333C11.8849 0 12.3568 0.193387 12.7472 0.584533C13.1381 0.97568 13.3333 1.44683 13.3333 2.00032V13.9997C13.3333 14.5509 13.138 15.0243 12.7473 15.4132C12.3569 15.8044 11.885 16 11.3334 16H2.00011C1.44832 16 0.976746 15.8044 0.58624 15.4133C0.195307 15.0242 0 14.5508 0 13.9996V2.00032C0 1.44683 0.195307 0.97568 0.58624 0.584533C0.97664 0.193387 1.44832 0 2.00011 0" fill="white"/>
</svg>
