<?xml version="1.0" encoding="UTF-8"?>
<svg width="20px" height="20px" viewBox="0 0 20 20" version="1.1" xmlns="http://www.w3.org/2000/svg" xmlns:xlink="http://www.w3.org/1999/xlink">
    <title>peerswapicon</title>
    <g id="list" stroke="none" stroke-width="1" fill="none" fill-rule="evenodd">
        <g id="4-TP-input#备份-6" transform="translate(-1265.000000, -847.000000)">
            <g id="编组-30" transform="translate(1154.000000, 844.000000)">
                <g id="swap" transform="translate(111.000000, 3.000000)">
                    <path d="M11.6539122,12.2169842 L7.72156376,12.2169842 C5.0816868,12.2169842 2.94231833,10.0776158 2.94231833,7.43773881 C2.94231833,4.79938782 5.0816868,2.65849341 7.72156376,2.65849341 L14.705793,2.65849341" id="Stroke-2" stroke="#838791" stroke-width="3" stroke-linecap="round" stroke-linejoin="round"></path>
                    <path d="M4.60238892,16.996077 L11.5866182,16.996077 C14.2264952,16.996077 16.3658636,14.8567086 16.3658636,12.2168316 C16.3658636,9.57848065 14.2264952,7.43758622 11.5866182,7.43758622 L7.6542698,7.43758622" id="Stroke-4" stroke="#838791" stroke-width="3" stroke-linecap="round" stroke-linejoin="round"></path>
                    <path d="M15.1438905,5.17598992 C14.9333108,5.17598992 14.7059456,5.00966241 14.7059456,4.73804502 L14.7059456,0.439470842 C14.7059456,0.167853447 14.9317848,0 15.1438905,0 C15.2140838,0 15.2827511,0.0183112851 15.3468406,0.0534079149 L19.0640315,2.19735421 C19.2196774,2.28128094 19.308182,2.42471934 19.308182,2.5895209 C19.308182,2.75279652 19.2196774,2.89776087 19.0731871,2.97558383 L15.337685,5.13173765 C15.2827511,5.15920457 15.2140838,5.17598992 15.1438905,5.17598992" id="Fill-6" fill="#838791" fill-rule="nonzero"></path>
                    <path d="M4.16429142,19.5830039 C4.09409816,19.5830039 4.02543084,19.5646926 3.9598154,19.5311218 L0.244150468,17.3887015 C0.0885045443,17.3047748 0,17.1598105 0,16.9950089 C0,16.8302073 0.0885045443,16.6867689 0.234994825,16.6089459 L3.96897105,14.4543181 C4.02543084,14.4253252 4.09409816,14.4070139 4.16429142,14.4070139 C4.3748712,14.4070139 4.60223632,14.5748674 4.60223632,14.8464848 L4.60223632,19.1450589 C4.60223632,19.2991789 4.53051712,19.4014169 4.47100544,19.4578767 C4.38707872,19.5387516 4.27721101,19.5830039 4.16429142,19.5830039" id="Fill-8" fill="#838791" fill-rule="nonzero"></path>
                </g>
            </g>
        </g>
    </g>
</svg>