<svg width="26" height="26" viewBox="0 0 26 26" fill="none" xmlns="http://www.w3.org/2000/svg">
<path fill-rule="evenodd" clip-rule="evenodd" d="M3.95298 11.9696H1.50296C0.674222 11.9696 3.88014e-05 11.2953 0 10.4666V1.50296C0 0.674222 0.674222 0 1.50296 0H10.4666C11.2953 0 11.9696 0.674222 11.9696 1.50296V7.59645C11.9678 7.6183 11.9669 7.64033 11.9669 7.66247V17.0613L8.85494 18.9045L5.74301 17.0613V13.3737L8.85494 11.5305L10.9071 12.7471V10.2733L9.23551 9.28184C9.12055 9.21403 8.9884 9.17741 8.85494 9.17741C8.72148 9.17741 8.58934 9.21403 8.47437 9.28184L4.03707 11.9116C4.00759 11.9291 3.97952 11.9485 3.95298 11.9696ZM14.0305 5.98824L16.7847 4.35592C17.0186 4.21759 17.3107 4.21623 17.5459 4.35592L21.9832 6.9857C22.2184 7.12539 22.3637 7.38444 22.3637 7.66247V12.0966H24.4963C25.3255 12.0966 26 11.4224 26 10.5936V1.63008C26 0.801341 25.3255 0.12708 24.4963 0.12708H15.5328C14.7044 0.12708 14.0305 0.801341 14.0305 1.63008V5.98824ZM21.9722 13.6053L17.5459 16.2286H17.5446C17.3107 16.3669 17.0186 16.3669 16.7834 16.2286L15.1145 15.2399V12.7661L17.164 13.9799L20.2759 12.1368V8.4491L17.164 6.60595L14.1089 8.41655L14.0534 8.4491V17.8479C14.0534 17.9126 14.0455 17.9763 14.0305 18.0376V24.0719C14.0305 24.9006 14.7044 25.5749 15.5328 25.5749H24.4963C25.3255 25.5749 26 24.9006 26 24.0719V15.1083C26 14.2796 25.3255 13.6053 24.4963 13.6053H21.9722ZM11.9696 19.5341V24.0069C11.9696 24.8357 11.2954 25.51 10.4666 25.51H1.50304C0.674299 25.51 0 24.8357 0 24.0069V15.0434C0 14.2147 0.674299 13.5403 1.50304 13.5403H3.6565V17.8479C3.6565 18.126 3.80186 18.385 4.03707 18.5247L8.47437 21.1545C8.70959 21.2928 9.0003 21.2928 9.23551 21.1545L11.9696 19.5341Z" fill="#9A9EA9"/>
</svg>
