<?xml version="1.0" encoding="UTF-8"?>
<svg width="20px" height="20px" viewBox="0 0 20 20" version="1.1" xmlns="http://www.w3.org/2000/svg" xmlns:xlink="http://www.w3.org/1999/xlink">
    <title>icon-Smart-web</title>
    <g id="icon-Smart-web" stroke="none" stroke-width="1" fill="none" fill-rule="evenodd">
        <rect id="矩形" x="0" y="0" width="37" height="37"></rect>
        <path d="M9.25576549,14.5859598 C11.43274,14.3587972 12.5969476,15.2958429 12.5874825,17.2740501 L12.5874825,17.2740501 L12.5874825,19.53621 C12.5874825,19.7917679 12.3792504,20 12.1236925,20 L12.1236925,20 L7.60883626,20 C7.35327838,20 7.14504626,19.7917679 7.14504626,19.53621 L7.14504626,19.53621 L7.14504626,16.942771 C7.14504626,15.7312374 8.05369698,14.7090062 9.25576549,14.5859598 Z M6.88165013,10.722191 C7.69564931,11.4226089 8.75574113,11.8296086 9.87262366,11.8296086 C10.9989714,11.8296086 12.0401327,11.4415396 12.8541319,10.7411217 C13.7059914,11.4320745 14.7660833,11.8296086 15.8451054,11.8296086 C16.0154773,11.8296086 16.185849,11.8201437 16.3467558,11.8012135 C16.4603371,11.7917484 16.5644534,11.7822833 16.6685696,11.7633531 C16.9619879,11.7254927 17.2270098,11.6403065 17.4920328,11.5551205 C18.1072647,11.3468882 18.7414302,11.8012129 18.7414302,12.4448401 L18.7414302,15.2654415 C18.7414302,17.8778109 16.6212454,19.9979947 14.008876,19.9979947 C13.7533181,19.9979947 13.5450851,19.7897626 13.5450851,19.5342047 L13.5450851,17.2720448 C13.5450851,16.0605112 13.1759454,15.1140014 12.4565973,14.4703742 C11.8224352,13.8930026 10.9611113,13.6090487 9.8915543,13.6090487 C9.65492664,13.6090487 9.41829855,13.6185138 9.16274066,13.6469091 C7.47795172,13.817281 6.2001622,15.2370466 6.2001622,16.9407657 L6.2001622,19.5342047 C6.2001622,19.7897626 5.99193008,19.9979947 5.7363722,19.9979947 C3.1240028,19.9979947 1.00381892,17.8778109 1.00381892,15.2654415 L1.00381892,12.4637708 C1.00381892,11.8012133 1.65691121,11.3563528 2.27214311,11.5740503 C2.527701,11.6592362 2.7832588,11.7254927 3.04828179,11.7633531 C3.16186307,11.7822833 3.28490935,11.8012135 3.39849062,11.8012135 C3.54993233,11.8201437 3.70137406,11.8296086 3.85281576,11.8296086 C4.95076809,11.8296086 6.02979056,11.4226089 6.88165013,10.722191 Z M14.9353115,0 C17.6245491,0 18.9253609,1.09471912 19.3642075,3.76746271 L19.4028402,4.02267029 L19.6773292,6.64450524 C19.7719802,7.62887629 19.5164219,8.58485153 18.9485155,9.34206007 C18.2386325,10.3264311 17.1028191,10.8848725 15.8439599,10.8848725 C14.6702867,10.8848725 13.5439401,10.3075007 12.8151269,9.37045513 C12.1620345,10.3169658 11.0924778,10.8848725 9.87147908,10.8848725 C8.65048037,10.8848725 7.55252787,10.2885705 6.90890062,9.33259474 C6.18955253,10.2885705 5.0442746,10.8848725 3.85167118,10.8848725 C2.62120737,10.8848725 1.51379,10.3548264 0.794441912,9.41778085 C0.244009566,8.71008211 -0.0322147942,7.81688967 0.00299177415,6.88709477 L0.0183031016,6.65396966 L0.273860955,4.05106581 C0.668889968,1.24911592 1.8931558,0.069973025 4.50918594,0.00303551019 L4.75085657,0 L14.9353115,0 Z" id="形状结合" fill="#9A9EA9" fill-rule="nonzero"></path>
    </g>
</svg>