<?xml version="1.0" encoding="UTF-8"?>
<svg width="37px" height="37px" viewBox="0 0 37 37" version="1.1" xmlns="http://www.w3.org/2000/svg" xmlns:xlink="http://www.w3.org/1999/xlink">
    <title>icon-transfer-web</title>
    <g id="icon-transfer-web" stroke="none" stroke-width="1" fill="none" fill-rule="evenodd">
        <g id="转账" transform="translate(6.166667, 6.166667)" fill-rule="nonzero">
            <rect id="矩形" fill="#000000" opacity="0" x="0" y="0" width="24.6666667" height="24.6666667"></rect>
            <path d="M12.3333333,21.2643678 C8.50149426,21.2643678 5.23528735,18.835977 3.9721839,15.437931 L5.59678161,12.5247127 L1.27586206,11.908046 L1.28436782,11.9293103 C1.28011494,12.0611494 1.27586206,12.1972414 1.27586206,12.3333333 C1.27586206,18.431954 6.23471263,23.3908046 12.3333333,23.3908046 C17.3517241,23.3908046 21.5960919,20.0310345 22.9442529,15.4464368 L20.822069,15.101954 C19.6525287,18.6743678 16.2927586,21.2643678 12.3333333,21.2643678 Z M23.3822988,12.7288506 C23.3865517,12.5970115 23.3908046,12.4651724 23.3908046,12.3333333 C23.3908046,6.23471265 18.431954,1.27586206 12.3333333,1.27586206 C7.31494254,1.27586206 3.07057472,4.63563218 1.72241379,9.22448277 L3.84459771,9.56896551 C5.01413794,5.99229884 8.37390805,3.40229884 12.3333333,3.40229884 C16.1268966,3.40229884 19.3633333,5.77965517 20.6562069,9.12241379 L18.7636782,11.9208046 L23.1016092,12.6990805 C23.2674713,12.7288506 23.378046,12.7501149 23.378046,12.7501149 L23.3865517,12.7501149 L23.3822988,12.7288506 Z M12.9054906,10.0284868 L16.3230522,11.5970786 L12.9054906,5.92 L12.9054906,10.0284868 Z M12.4883818,5.92 L9.07082021,11.5970786 L12.4883818,10.0284868 L12.4883818,5.92 L12.4883818,5.92 Z M12.9054906,14.0635539 L16.2962735,12.0438036 L12.9054906,10.4874484 L12.9054906,14.0635539 Z M12.4883818,10.4874484 L9.09759888,12.0438036 L12.4883818,14.0635539 L12.4883818,10.4874484 Z M12.4883818,17.7325867 L12.4883818,14.7748735 L8.88,12.6650333 L12.4883818,17.7325867 L12.4883818,17.7325867 Z M12.9054906,17.7325867 L16.5138724,12.6650333 L12.9054906,14.7748735 L12.9054906,17.7325867 Z" id="形状" fill="#9A9EA9"></path>
        </g>
    </g>
</svg>