<svg width="150" height="150" viewBox="0 0 150 150" fill="none" xmlns="http://www.w3.org/2000/svg">
<path d="M104.086 87.3311C106.602 91.0736 105.565 96.1188 101.771 98.6C97.9776 101.081 92.8632 100.059 90.348 96.3162" stroke="#B27AFF"/>
<mask id="path-2-inside-1_18250_7807" fill="white">
<path fill-rule="evenodd" clip-rule="evenodd" d="M110.73 65.8699C113.916 64.8991 117.505 66.068 119.449 68.9617C121.811 72.4764 120.853 77.2045 117.309 79.5223L74.1327 107.76C70.5887 110.078 65.8009 109.108 63.4388 105.593C61.4256 102.598 61.8243 98.7206 64.1802 96.2057C53.2098 79.8136 54.696 59.7551 67.5166 51.3702C80.357 42.9725 99.7042 49.4642 110.73 65.8699ZM109.77 66.2344C98.8938 50.2166 80.2215 44.2558 68.0744 52.2002C55.9365 60.1386 54.2258 79.4027 64.921 95.5141C65.1292 95.3441 65.3486 95.1833 65.5789 95.0327L108.755 66.7946C109.084 66.5799 109.423 66.3933 109.77 66.2344ZM66.1367 95.8627L109.313 67.6246C112.395 65.6091 116.558 66.4528 118.612 69.5091C120.666 72.5653 119.833 76.6768 116.751 78.6924L73.5749 106.93C70.4931 108.946 66.3297 108.102 64.2757 105.046C62.2217 101.99 63.0549 97.8782 66.1367 95.8627Z"/>
</mask>
<path fill-rule="evenodd" clip-rule="evenodd" d="M110.73 65.8699C113.916 64.8991 117.505 66.068 119.449 68.9617C121.811 72.4764 120.853 77.2045 117.309 79.5223L74.1327 107.76C70.5887 110.078 65.8009 109.108 63.4388 105.593C61.4256 102.598 61.8243 98.7206 64.1802 96.2057C53.2098 79.8136 54.696 59.7551 67.5166 51.3702C80.357 42.9725 99.7042 49.4642 110.73 65.8699ZM109.77 66.2344C98.8938 50.2166 80.2215 44.2558 68.0744 52.2002C55.9365 60.1386 54.2258 79.4027 64.921 95.5141C65.1292 95.3441 65.3486 95.1833 65.5789 95.0327L108.755 66.7946C109.084 66.5799 109.423 66.3933 109.77 66.2344ZM66.1367 95.8627L109.313 67.6246C112.395 65.6091 116.558 66.4528 118.612 69.5091C120.666 72.5653 119.833 76.6768 116.751 78.6924L73.5749 106.93C70.4931 108.946 66.3297 108.102 64.2757 105.046C62.2217 101.99 63.0549 97.8782 66.1367 95.8627Z" fill="#101116"/>
<path d="M119.449 68.9617L120.286 68.4144L119.449 68.9617ZM110.73 65.8699L109.893 66.4173L110.311 67.0394L111.031 66.8201L110.73 65.8699ZM117.309 79.5223L116.751 78.6924L117.309 79.5223ZM64.1802 96.2057L64.9197 96.8831L65.4547 96.3121L65.0182 95.6599L64.1802 96.2057ZM109.77 66.2344L110.196 67.1368L111.26 66.6495L110.604 65.6832L109.77 66.2344ZM64.921 95.5141L64.0809 96.0567L64.699 96.9877L65.5636 96.282L64.921 95.5141ZM65.5789 95.0327L65.0211 94.2027L65.5789 95.0327ZM108.755 66.7946L108.198 65.9647L108.755 66.7946ZM109.313 67.6246L108.755 66.7946L109.313 67.6246ZM73.5749 106.93L74.1327 107.76L73.5749 106.93ZM120.286 68.4144C118.087 65.1421 114.03 63.8225 110.43 64.9197L111.031 66.8201C113.801 65.9757 116.922 66.994 118.612 69.5091L120.286 68.4144ZM117.867 80.3523C121.873 77.7322 122.956 72.3874 120.286 68.4144L118.612 69.5091C120.666 72.5653 119.833 76.6768 116.751 78.6924L117.867 80.3523ZM74.6905 108.59L117.867 80.3523L116.751 78.6924L73.5749 106.93L74.6905 108.59ZM62.6019 106.141C65.272 110.114 70.6843 111.21 74.6905 108.59L73.5749 106.93C70.4931 108.946 66.3297 108.102 64.2757 105.046L62.6019 106.141ZM63.4408 95.5282C60.7776 98.3712 60.3254 102.753 62.6019 106.141L64.2757 105.046C62.5258 102.442 62.871 99.0701 64.9197 96.8831L63.4408 95.5282ZM65.0182 95.6599C54.2155 79.5185 55.8998 60.1625 68.0744 52.2002L66.9588 50.5402C53.4921 59.3476 52.2041 80.1087 63.3423 96.7514L65.0182 95.6599ZM68.0744 52.2002C80.2676 44.2257 99.0356 50.262 109.893 66.4173L111.567 65.3226C100.373 48.6664 80.4463 41.7193 66.9588 50.5402L68.0744 52.2002ZM110.604 65.6832C99.5574 49.414 80.3067 43.0053 67.5166 51.3702L68.6322 53.0302C80.1364 45.5063 98.2301 51.0191 108.935 66.7857L110.604 65.6832ZM67.5166 51.3702C54.7362 59.7288 53.2179 79.6924 64.0809 96.0567L65.7611 94.9714C55.2338 79.1131 57.1367 60.5484 68.6322 53.0302L67.5166 51.3702ZM65.0211 94.2027C64.7614 94.3726 64.5137 94.5541 64.2784 94.7461L65.5636 96.282C65.7447 96.1341 65.9358 95.9941 66.1367 95.8627L65.0211 94.2027ZM108.198 65.9647L65.0211 94.2027L66.1367 95.8627L109.313 67.6246L108.198 65.9647ZM109.343 65.332C108.951 65.5117 108.568 65.7224 108.198 65.9647L109.313 67.6246C109.6 67.4373 109.895 67.275 110.196 67.1368L109.343 65.332ZM108.755 66.7946L65.5789 95.0327L66.6945 96.6927L109.871 68.4546L108.755 66.7946ZM119.449 68.9617C117.087 65.4471 112.299 64.4768 108.755 66.7946L109.871 68.4546C112.491 66.7414 116.03 67.4585 117.775 70.0564L119.449 68.9617ZM117.309 79.5223C120.853 77.2045 121.811 72.4764 119.449 68.9617L117.775 70.0564C119.521 72.6543 118.813 76.1492 116.194 77.8624L117.309 79.5223ZM74.1327 107.76L117.309 79.5223L116.194 77.8624L73.0171 106.1L74.1327 107.76ZM63.4388 105.593C65.8009 109.108 70.5887 110.078 74.1327 107.76L73.0171 106.1C70.3975 107.814 66.8586 107.097 65.1126 104.499L63.4388 105.593ZM65.5789 95.0327C62.0349 97.3505 61.0767 102.079 63.4388 105.593L65.1126 104.499C63.3667 101.901 64.0749 98.4059 66.6945 96.6927L65.5789 95.0327Z" fill="#B27AFF" mask="url(#path-2-inside-1_18250_7807)"/>
<rect x="0.697351" y="0.141315" width="15.4157" height="5.28038" rx="2.5" transform="matrix(0.836905 -0.547348 0.557797 0.829977 55.9947 50.3292)" stroke="#B27AFF"/>
<rect x="34" y="68.0594" width="33.8597" height="19.7937" rx="3" fill="#DAC2FB"/>
<mask id="path-6-inside-2_18250_7807" fill="white">
<path fill-rule="evenodd" clip-rule="evenodd" d="M66.5622 72.7043L52.2324 79.7591C51.564 80.0882 50.7807 80.0882 50.1123 79.7591L35.7825 72.7043C33.5032 71.5821 34.302 68.1511 36.8425 68.1511H65.5021C68.0427 68.1511 68.8415 71.5821 66.5622 72.7043ZM52.4974 80.2974C51.6619 80.7087 50.6827 80.7087 49.8472 80.2974L35.5175 73.2426C32.6683 71.8399 33.6668 67.5511 36.8425 67.5511H65.5021C68.6778 67.5511 69.6763 71.8399 66.8272 73.2426L52.4974 80.2974Z"/>
</mask>
<path fill-rule="evenodd" clip-rule="evenodd" d="M66.5622 72.7043L52.2324 79.7591C51.564 80.0882 50.7807 80.0882 50.1123 79.7591L35.7825 72.7043C33.5032 71.5821 34.302 68.1511 36.8425 68.1511H65.5021C68.0427 68.1511 68.8415 71.5821 66.5622 72.7043ZM52.4974 80.2974C51.6619 80.7087 50.6827 80.7087 49.8472 80.2974L35.5175 73.2426C32.6683 71.8399 33.6668 67.5511 36.8425 67.5511H65.5021C68.6778 67.5511 69.6763 71.8399 66.8272 73.2426L52.4974 80.2974Z" fill="#DAC2FB"/>
<path d="M52.2324 79.7591L51.9674 79.2208L51.9674 79.2208L52.2324 79.7591ZM66.5622 72.7043L66.2971 72.166L66.2971 72.166L66.5622 72.7043ZM50.1123 79.7591L50.3773 79.2208L50.3773 79.2208L50.1123 79.7591ZM35.7825 72.7043L35.5175 73.2426L35.5175 73.2426L35.7825 72.7043ZM49.8472 80.2974L49.5822 80.8357L49.5822 80.8357L49.8472 80.2974ZM52.4974 80.2974L52.7624 80.8357L52.7624 80.8357L52.4974 80.2974ZM35.5175 73.2426L35.2524 73.7809L35.5175 73.2426ZM66.8272 73.2426L66.5622 72.7043L66.5622 72.7043L66.8272 73.2426ZM52.4974 80.2974L66.8272 73.2426L66.2971 72.166L51.9674 79.2208L52.4974 80.2974ZM49.8472 80.2974C50.6827 80.7087 51.6619 80.7087 52.4974 80.2974L51.9674 79.2208C51.4661 79.4676 50.8786 79.4676 50.3773 79.2208L49.8472 80.2974ZM35.5175 73.2426L49.8472 80.2974L50.3773 79.2208L36.0475 72.166L35.5175 73.2426ZM36.8425 67.5511C33.6668 67.5511 32.6683 71.8399 35.5175 73.2426L36.0475 72.166C34.338 71.3244 34.9371 68.7511 36.8425 68.7511V67.5511ZM65.5021 67.5511H36.8425V68.7511H65.5021V67.5511ZM66.8272 73.2426C69.6763 71.8399 68.6778 67.5511 65.5021 67.5511V68.7511C67.4075 68.7511 68.0066 71.3244 66.2971 72.166L66.8272 73.2426ZM49.5822 80.8357C50.5848 81.3293 51.7598 81.3293 52.7624 80.8357L52.2324 79.7591C51.564 80.0882 50.7807 80.0882 50.1123 79.7591L49.5822 80.8357ZM35.2524 73.7809L49.5822 80.8357L50.1123 79.7591L35.7825 72.7043L35.2524 73.7809ZM36.8425 66.9511C33.0317 66.9511 31.8335 72.0977 35.2524 73.7809L35.7825 72.7043C33.5032 71.5821 34.302 68.1511 36.8425 68.1511V66.9511ZM65.5021 66.9511H36.8425V68.1511H65.5021V66.9511ZM67.0922 73.7809C70.5112 72.0977 69.313 66.9511 65.5021 66.9511V68.1511C68.0427 68.1511 68.8415 71.5821 66.5622 72.7043L67.0922 73.7809ZM52.7624 80.8357L67.0922 73.7809L66.5622 72.7043L52.2324 79.7591L52.7624 80.8357Z" fill="#B27AFF" mask="url(#path-6-inside-2_18250_7807)"/>
<line x1="0.5" y1="-0.5" x2="11.9484" y2="-0.5" transform="matrix(-0.678916 0.734216 -0.743351 -0.668902 114.688 32.49)" stroke="#979797" stroke-linecap="round"/>
<line x1="0.5" y1="-0.5" x2="11.8781" y2="-0.5" transform="matrix(-0.205151 0.97873 -0.979824 -0.199864 102.506 26.3042)" stroke="#979797" stroke-linecap="round"/>
<line x1="0.5" y1="-0.5" x2="12.0263" y2="-0.5" transform="matrix(-0.957693 0.28779 0.29505 0.955482 121.995 43.6237)" stroke="#979797" stroke-linecap="round"/>
</svg>
