<svg width="150" height="150" viewBox="0 0 150 150" fill="none" xmlns="http://www.w3.org/2000/svg">
<g clip-path="url(#clip0_18250_7700)">
<g clip-path="url(#clip1_18250_7700)">
<path d="M74.9961 119.158C50.0098 119.158 29.683 98.8281 29.683 73.8444C29.683 48.8608 50.0098 28.5287 74.9961 28.5287C99.9824 28.5287 120.309 48.8581 120.309 73.8444C120.309 98.8307 99.9824 119.158 74.9961 119.158ZM74.9961 29.0516C50.2974 29.0516 30.2059 49.1458 30.2059 73.8444C30.2059 98.5431 50.2974 118.635 74.9961 118.635C99.6947 118.635 119.786 98.5404 119.786 73.8444C119.786 49.1484 99.6947 29.0516 74.9961 29.0516Z" fill="#979797"/>
<path d="M74.9961 109.138C55.5348 109.138 39.6974 93.3058 39.6974 73.8392C39.6974 54.3726 55.5321 38.5405 74.9961 38.5405C94.4601 38.5405 110.295 54.3726 110.295 73.8392C110.295 93.3058 94.4575 109.138 74.9961 109.138ZM74.9961 39.0634C55.8224 39.0634 40.2203 54.6628 40.2203 73.8392C40.2203 93.0156 55.8198 108.615 74.9961 108.615C94.1725 108.615 109.772 93.0182 109.772 73.8392C109.772 54.6602 94.1699 39.0713 74.9961 39.0713V39.0634Z" fill="#979797"/>
<path d="M74.996 87.9273C74.2717 87.9267 73.5596 87.7403 72.9278 87.3861L64.0142 82.4181C63.3547 82.0493 62.8054 81.5114 62.423 80.8597C62.0406 80.2079 61.8389 79.466 61.8387 78.7104V68.9732C61.8392 68.2176 62.041 67.4758 62.4233 66.8242C62.8057 66.1725 63.3548 65.6345 64.0142 65.2655L72.9278 60.2976C73.5594 59.9415 74.2723 59.7545 74.9973 59.7545C75.7224 59.7545 76.4352 59.9415 77.0669 60.2976L85.9779 65.2655C86.6372 65.6345 87.1863 66.1725 87.5687 66.8242C87.9511 67.4758 88.1529 68.2176 88.1533 68.9732V78.6921C88.1531 79.4477 87.9514 80.1896 87.5691 80.8414C87.1867 81.4931 86.6374 82.031 85.9779 82.3998L77.0669 87.3678C76.4358 87.7282 75.7228 87.9209 74.996 87.9273ZM74.996 60.2819C74.3605 60.2831 73.7358 60.4469 73.1814 60.7577L64.2704 65.7257C63.6919 66.0486 63.21 66.5201 62.8744 67.0914C62.5389 67.6627 62.3619 68.3132 62.3617 68.9758V78.6947C62.3619 79.3573 62.5389 80.0078 62.8744 80.5791C63.21 81.1505 63.6919 81.6219 64.2704 81.9448L73.1814 86.9128C73.7351 87.2253 74.3602 87.3895 74.996 87.3895C75.6319 87.3895 76.2569 87.2253 76.8106 86.9128L85.7216 81.9448C86.3005 81.6223 86.7827 81.151 87.1183 80.5796C87.4539 80.0081 87.6307 79.3574 87.6304 78.6947V68.9732C87.6307 68.3105 87.4539 67.6598 87.1183 67.0884C86.7827 66.5169 86.3005 66.0456 85.7216 65.7231L76.8106 60.7551C76.256 60.4452 75.6314 60.2823 74.996 60.2819Z" fill="#979797"/>
<path d="M64.7836 68.5058L64.5287 68.9624L73.2205 73.8142L73.4754 73.3575L64.7836 68.5058Z" fill="#979797"/>
<path d="M75.3046 76.25H74.7816V85.4538H75.3046V76.25Z" fill="#979797"/>
<path d="M85.2103 68.5062L76.5184 73.358L76.7733 73.8146L85.4651 68.9629L85.2103 68.5062Z" fill="#979797"/>
<path d="M107.019 105.497L106.65 105.867L121.724 120.941L122.093 120.571L107.019 105.497Z" fill="#B27AFF"/>
<path d="M95.7168 113.684L95.347 114.053L102.221 120.928L102.591 120.558L95.7168 113.684Z" fill="#B27AFF"/>
<path d="M27.2016 28.4032C28.4175 28.4032 29.4032 27.4175 29.4032 26.2016C29.4032 24.9857 28.4175 24 27.2016 24C25.9857 24 25 24.9857 25 26.2016C25 27.4175 25.9857 28.4032 27.2016 28.4032Z" fill="#B27AFF"/>
<path d="M27.2016 47.943C28.4175 47.943 29.4032 46.9573 29.4032 45.7414C29.4032 44.5255 28.4175 43.5398 27.2016 43.5398C25.9857 43.5398 25 44.5255 25 45.7414C25 46.9573 25.9857 47.943 27.2016 47.943Z" fill="#B27AFF"/>
<path d="M115.195 94.3806L114.825 94.7504L121.725 101.65L122.095 101.281L115.195 94.3806Z" fill="#B27AFF"/>
<path d="M46.6473 28.4032C47.8632 28.4032 48.8489 27.4175 48.8489 26.2016C48.8489 24.9857 47.8632 24 46.6473 24C45.4314 24 44.4457 24.9857 44.4457 26.2016C44.4457 27.4175 45.4314 28.4032 46.6473 28.4032Z" fill="#B27AFF"/>
<path d="M122.704 124C123.92 124 124.906 123.014 124.906 121.798C124.906 120.582 123.92 119.597 122.704 119.597C121.488 119.597 120.503 120.582 120.503 121.798C120.503 123.014 121.488 124 122.704 124Z" fill="#B27AFF"/>
<path d="M122.704 104.46C123.92 104.46 124.906 103.475 124.906 102.259C124.906 101.043 123.92 100.057 122.704 100.057C121.488 100.057 120.503 101.043 120.503 102.259C120.503 103.475 121.488 104.46 122.704 104.46Z" fill="#B27AFF"/>
<path d="M103.259 124C104.475 124 105.46 123.014 105.46 121.798C105.46 120.582 104.475 119.597 103.259 119.597C102.043 119.597 101.057 120.582 101.057 121.798C101.057 123.014 102.043 124 103.259 124Z" fill="#B27AFF"/>
<path d="M28.2658 26.7439L27.896 27.1137L42.7555 41.9732L43.1253 41.6034L28.2658 26.7439Z" fill="#B27AFF"/>
<path d="M28.2678 46.2346L27.8981 46.6043L34.7316 53.4378L35.1013 53.068L28.2678 46.2346Z" fill="#B27AFF"/>
<path d="M46.8324 26.018L46.4626 26.3878L54.0912 34.0163L54.4609 33.6465L46.8324 26.018Z" fill="#B27AFF"/>
</g>
</g>
<defs>
<clipPath id="clip0_18250_7700">
<rect width="150" height="150" fill="white"/>
</clipPath>
<clipPath id="clip1_18250_7700">
<rect width="99.9059" height="100" fill="white" transform="translate(25 24)"/>
</clipPath>
</defs>
</svg>
