<svg width="150" height="150" viewBox="0 0 150 150" fill="none" xmlns="http://www.w3.org/2000/svg">
<path d="M110.148 101.022L109.696 100.997C108.64 100.887 107.635 100.494 106.784 99.8597C105.051 98.5816 103.305 97.2636 101.617 95.9855L99.5955 94.4565C97.2196 92.6677 92.4739 89.2888 91.4097 88.5305C91.2477 88.6987 91.0153 88.9341 90.8563 89.087L88.6516 91.1847C86.6742 93.054 84.6978 94.9295 82.7224 96.8111C82.3928 97.1516 81.9731 97.3914 81.5124 97.5024C81.0516 97.6134 80.5688 97.591 80.1202 97.4379C79.4198 97.1859 78.8436 96.6733 78.5118 96.0069C78.4022 95.8228 78.3551 95.6083 78.3773 95.3953C78.4629 94.3526 79.5178 89.5854 79.9673 87.5856C81.4382 81.0296 81.5391 80.9379 81.6063 80.8767L87.3245 75.6784L105.941 58.732C108.063 56.7994 110.184 54.8628 112.304 52.9221C112.485 52.7555 112.642 52.564 112.769 52.3533C112.824 52.2585 112.836 52.1882 112.821 52.1576C112.805 52.127 112.738 52.0934 112.628 52.0842C112.393 52.068 112.158 52.0845 111.928 52.1332C111.296 52.3025 110.701 52.5843 110.17 52.9649C107.173 54.8322 104.183 56.6934 101.201 58.5485L83.4869 69.5567L72.2463 76.5438C72.1671 76.5991 72.076 76.6349 71.9803 76.6481C71.8846 76.6614 71.7872 76.6519 71.6959 76.6202L66.6903 75.0302C63.2247 73.9212 59.7531 72.8081 56.2753 71.691C55.1194 71.318 54.4406 70.6605 54.196 69.679V69.6025V69.0858C54.2779 68.7247 54.4273 68.3823 54.6363 68.0767C55.1781 67.3465 55.9224 66.7914 56.7768 66.4805C61.0883 64.8028 65.4019 63.1291 69.7175 61.4595L97.4734 50.6899L117.823 42.7976C118.866 42.394 119.814 42.0546 120.881 42.0118C121.485 41.96 122.091 42.0798 122.63 42.3573C122.997 42.5634 123.312 42.8489 123.554 43.1928C123.796 43.5367 123.958 43.9304 124.028 44.3449C124.223 45.2899 124.223 46.265 124.028 47.2101C123.887 48.0082 123.722 48.8154 123.554 49.5952L123.44 50.1364C122.758 53.3981 122.075 56.6598 121.392 59.9214L113.686 96.597C113.526 97.5362 113.216 98.4436 112.769 99.2849C112.194 100.276 111.448 100.832 110.491 100.985L110.148 101.022ZM109.861 100.41H110.188L110.374 100.38C111.148 100.257 111.735 99.8139 112.209 98.976C112.626 98.192 112.915 97.3466 113.065 96.4716L120.771 59.793C121.456 56.5313 122.139 53.2758 122.82 50.0263L122.933 49.482C123.098 48.7084 123.266 47.9072 123.404 47.1183C123.584 46.2541 123.584 45.362 123.404 44.4978C123.353 44.168 123.229 43.854 123.04 43.5791C122.851 43.3043 122.602 43.0758 122.312 42.9108C121.87 42.689 121.374 42.5938 120.881 42.6356C119.895 42.7266 118.931 42.9797 118.028 43.3847L97.6936 51.2617L69.9438 62.0161C65.6323 63.6877 61.3197 65.3613 57.0061 67.037C56.2581 67.3032 55.6058 67.7853 55.1317 68.4222C54.9752 68.6555 54.8632 68.9157 54.8014 69.1897V69.5536C55.0002 70.3028 55.5323 70.7951 56.4649 71.0825C59.9304 72.2017 63.4021 73.3137 66.8799 74.4186L71.8855 76.0178C71.8855 76.0178 71.9039 76.0178 71.9283 76.0178C75.6752 73.6878 79.422 71.3587 83.1689 69.0307L100.883 58.0225L109.842 52.4604C110.439 52.0372 111.107 51.7263 111.815 51.543C112.101 51.4836 112.394 51.4641 112.686 51.4849C112.826 51.4865 112.963 51.5246 113.084 51.5954C113.204 51.6662 113.304 51.7672 113.374 51.8885C113.432 52.0142 113.456 52.153 113.444 52.2909C113.431 52.4287 113.383 52.561 113.304 52.6744C113.146 52.9371 112.951 53.176 112.726 53.3838C110.608 55.3184 108.487 57.255 106.363 59.1937L87.7465 76.1432L82.0834 81.2926C81.8082 82.2589 79.1356 93.7777 78.995 95.4595C78.9834 95.5489 79.0028 95.6396 79.05 95.7164C79.3074 96.2514 79.7623 96.6657 80.319 96.8722C80.6635 96.9907 81.0348 97.0073 81.3884 96.92C81.7421 96.8326 82.063 96.6451 82.3127 96.3799C84.2901 94.5106 86.2624 92.6371 88.2296 90.7596L90.4343 88.662C90.6881 88.4204 91.1468 87.9403 91.1498 87.9373L91.3333 87.7446L91.5473 87.8975C91.6054 87.9403 97.2838 91.9705 99.9625 93.9856L101.987 95.5146C103.672 96.7897 105.418 98.1076 107.148 99.3796C107.91 99.9507 108.813 100.302 109.76 100.395C109.798 100.397 109.836 100.402 109.873 100.41H109.861Z" fill="#B27AFF"/>
<path d="M72.0753 76.2224L71.4995 76.4285L78.4879 95.957L79.0637 95.7509L72.0753 76.2224Z" fill="#B27AFF"/>
<path d="M81.9945 80.8591L81.6319 81.3516L106.774 99.8609L107.137 99.3684L81.9945 80.8591Z" fill="#B27AFF"/>
<path d="M60.7396 107.553H60.1678V106.942H60.7396C62.6605 106.941 64.5722 106.677 66.4211 106.156L66.5862 106.743C64.6837 107.28 62.7164 107.552 60.7396 107.553ZM53.7464 107.553H47.325V106.942H53.7464V107.553ZM40.9035 107.553H34.4821V106.942H40.9035V107.553ZM28.0606 107.553H22.9999V106.942H28.0606V107.553ZM72.5092 104.061L72.1729 103.547C73.3949 102.749 74.5313 101.827 75.564 100.795L76.9675 99.3887L77.4017 99.8229L75.9951 101.226C74.9345 102.29 73.7663 103.24 72.5092 104.061Z" fill="#979797"/>
</svg>
