<svg width="150" height="150" viewBox="0 0 150 150" fill="none" xmlns="http://www.w3.org/2000/svg">
<g clip-path="url(#clip0_18250_7764)">
<path d="M95.8999 107.131H90.3307V106.6H95.8999V107.131ZM84.78 107.131H79.2399V106.6H84.7826L84.78 107.131ZM73.6945 107.131H68.1517V106.6H73.6945V107.131ZM62.609 107.131H57.0663V106.6H62.609V107.131ZM51.5235 107.131H49.6857C48.4016 107.13 47.1371 106.816 46.002 106.216L46.2486 105.746C47.3109 106.308 48.4946 106.601 49.6963 106.6H51.5341L51.5235 107.131ZM101.135 105.115L100.782 104.72C102.129 103.522 102.992 101.873 103.209 100.084L103.739 100.145C103.506 102.064 102.58 103.831 101.135 105.115ZM42.2786 102.018C41.9363 101.12 41.761 100.167 41.7614 99.2064V96.443H42.2918V99.2064C42.2905 100.103 42.4541 100.992 42.7745 101.829L42.2786 102.018ZM103.806 94.5733H103.275V89.0306H103.806V94.5733ZM42.3051 90.9002H41.7747V85.3549H42.3051V90.9002ZM103.806 83.4746H103.275V77.9318H103.806V83.4746ZM42.3051 79.7989H41.7747V74.2561H42.3051V79.7989ZM103.806 72.3891H103.275V66.8464H103.806V72.3891ZM42.3051 68.7134H41.7747V63.1892H42.3051V68.7134ZM103.806 61.3036H103.275V55.7635H103.806V61.3036ZM42.3051 57.6279H41.7747V53.024C41.7741 52.7048 41.7936 52.386 41.833 52.0693L42.3634 52.1329C42.3284 52.4286 42.3107 52.7262 42.3104 53.024L42.3051 57.6279ZM102.774 50.3879C102.123 48.7079 100.886 47.3202 99.2918 46.4814L99.5385 46.012C101.246 46.9092 102.571 48.3951 103.267 50.1943L102.774 50.3879ZM44.7847 47.4998L44.432 47.1047C45.8746 45.8194 47.7376 45.1062 49.6698 45.0997V45.6301C47.8676 45.6354 46.1298 46.3005 44.7847 47.4998ZM94.0143 45.6434H88.4716V45.113H94.0143V45.6434ZM82.9288 45.6434H77.3835V45.113H82.9262L82.9288 45.6434ZM71.8434 45.6434H66.3006V45.113H71.8434V45.6434ZM60.7579 45.6434H55.2125V45.113H60.7579V45.6434Z" fill="#979797"/>
<path d="M116.824 25.1167L118.713 32.3116L125.436 34.1336L118.683 35.8839L116.824 43.0948L115.117 35.8839L108.216 34.1336L114.727 32.3116L116.824 25.1167Z" fill="#B27AFF"/>
<path d="M22.7278 78.5842L24.6134 85.7792L31.3363 87.6011L24.5843 89.3515L22.7278 96.5623L21.0199 89.3515L14.1167 87.6011L20.6301 85.7792L22.7278 78.5842Z" fill="#B27AFF"/>
<path d="M22.7278 96.6817C22.7016 96.6806 22.6765 96.6709 22.6564 96.6541C22.6363 96.6373 22.6222 96.6144 22.6164 96.5888L20.9218 89.4443L14.0875 87.7151C14.0631 87.7076 14.0418 87.6925 14.0267 87.672C14.0115 87.6515 14.0034 87.6266 14.0034 87.6011C14.0034 87.5756 14.0115 87.5508 14.0267 87.5302C14.0418 87.5097 14.0631 87.4946 14.0875 87.4871L20.5372 85.6837L22.6164 78.5524C22.6238 78.5279 22.6389 78.5064 22.6594 78.4911C22.68 78.4758 22.7049 78.4676 22.7305 78.4675C22.7561 78.4679 22.7808 78.4766 22.801 78.4925C22.8211 78.5083 22.8355 78.5303 22.8419 78.555L24.7142 85.6837L31.3708 87.4871C31.3955 87.4941 31.4172 87.5091 31.4326 87.5297C31.4479 87.5503 31.456 87.5754 31.4556 87.6011C31.4554 87.627 31.4468 87.6522 31.431 87.6728C31.4152 87.6934 31.3931 87.7082 31.3681 87.7151L24.6797 89.4443L22.8392 96.6047C22.8309 96.6276 22.8158 96.6472 22.7958 96.661C22.7758 96.6748 22.7521 96.682 22.7278 96.6817ZM14.5728 87.5879L21.0464 89.2295C21.0673 89.2344 21.0864 89.2449 21.1018 89.2599C21.1172 89.2748 21.1283 89.2936 21.134 89.3143L22.7252 96.0664L24.4649 89.3143C24.4698 89.2937 24.4803 89.2748 24.4953 89.2598C24.5103 89.2448 24.5291 89.2343 24.5498 89.2295L30.8775 87.5879L24.5842 85.8906C24.5643 85.8858 24.5461 85.8755 24.5316 85.861C24.517 85.8465 24.5068 85.8283 24.502 85.8083L22.7199 79.0245L20.7415 85.811C20.7362 85.83 20.7261 85.8473 20.7122 85.8613C20.6982 85.8752 20.6809 85.8853 20.6619 85.8906L14.5728 87.5879Z" fill="#B27AFF"/>
<path d="M125.855 96.6817C125.822 96.6817 125.79 96.6752 125.76 96.6627C125.729 96.6501 125.702 96.6317 125.679 96.6085C125.656 96.5853 125.638 96.5578 125.626 96.5276C125.614 96.4974 125.608 96.465 125.608 96.4324C125.608 87.3545 122.882 81.7242 120.593 78.5975C118.119 75.2162 115.607 73.9565 115.583 73.9458C115.527 73.9139 115.485 73.8627 115.464 73.8016C115.443 73.7406 115.445 73.674 115.469 73.6143C115.483 73.585 115.503 73.5587 115.528 73.5371C115.552 73.5154 115.58 73.4988 115.611 73.4882C115.642 73.4776 115.675 73.4732 115.707 73.4753C115.74 73.4773 115.771 73.4859 115.801 73.5003C115.907 73.5507 118.426 74.8104 120.972 78.274C123.314 81.4564 126.101 87.198 126.101 96.4271C126.102 96.4601 126.097 96.4931 126.085 96.5239C126.073 96.5548 126.055 96.5829 126.032 96.6066C126.009 96.6304 125.981 96.6493 125.951 96.6622C125.92 96.6751 125.888 96.6817 125.855 96.6817Z" fill="#DAC2FB"/>
<path d="M115.692 73.9697C115.636 73.9704 115.581 73.9518 115.537 73.9171C115.493 73.8823 115.461 73.8335 115.449 73.7787C115.436 73.724 115.443 73.6665 115.467 73.6158C115.491 73.5652 115.532 73.5244 115.583 73.5003C115.607 73.5003 118.119 72.23 120.593 68.846C122.882 65.7192 125.608 60.0943 125.608 51.0111C125.608 50.9457 125.634 50.883 125.68 50.8367C125.726 50.7905 125.789 50.7645 125.855 50.7645C125.92 50.7645 125.983 50.7905 126.029 50.8367C126.075 50.883 126.101 50.9457 126.101 51.0111C126.101 60.2428 123.314 65.9791 120.972 69.1669C118.426 72.6357 115.907 73.8928 115.801 73.9405C115.767 73.9579 115.73 73.9679 115.692 73.9697Z" fill="#DAC2FB"/>
<path d="M125.855 96.6817C125.822 96.6817 125.79 96.6752 125.76 96.6626C125.729 96.6501 125.702 96.6317 125.679 96.6085C125.656 96.5853 125.638 96.5578 125.626 96.5276C125.614 96.4973 125.608 96.465 125.608 96.4324C125.608 87.2033 128.395 81.467 130.737 78.2792C133.283 74.8104 135.802 73.5507 135.908 73.5056C135.938 73.4911 135.969 73.4826 136.002 73.4805C136.034 73.4785 136.067 73.4828 136.098 73.4935C136.129 73.5041 136.157 73.5207 136.182 73.5423C136.206 73.564 136.226 73.5903 136.24 73.6196C136.264 73.6793 136.266 73.7459 136.245 73.8069C136.224 73.8679 136.182 73.9192 136.126 73.9511C136.099 73.9511 133.591 75.2214 131.116 78.6028C128.827 81.7295 126.101 87.3545 126.101 96.4377C126.101 96.5026 126.074 96.5647 126.028 96.6104C125.982 96.656 125.92 96.6817 125.855 96.6817Z" fill="#DAC2FB"/>
<path d="M136.017 73.9697C135.98 73.9695 135.943 73.9614 135.908 73.9458C135.802 73.8928 133.283 72.6357 130.737 69.1722C128.395 65.9898 125.608 60.2481 125.608 51.0164C125.608 50.951 125.634 50.8883 125.68 50.842C125.726 50.7958 125.789 50.7698 125.855 50.7698C125.92 50.7698 125.983 50.7958 126.029 50.842C126.075 50.8883 126.101 50.951 126.101 51.0164C126.101 68.4005 136.025 73.4552 136.126 73.5056C136.177 73.5297 136.218 73.5705 136.242 73.6211C136.267 73.6718 136.273 73.7293 136.26 73.7841C136.248 73.8388 136.217 73.8876 136.172 73.9224C136.128 73.9571 136.073 73.9757 136.017 73.975V73.9697Z" fill="#DAC2FB"/>
<path d="M34.7707 35.9423C34.0621 35.9423 33.3694 35.7321 32.7802 35.3384C32.1909 34.9448 31.7317 34.3852 31.4605 33.7305C31.1894 33.0758 31.1184 32.3554 31.2567 31.6604C31.3949 30.9654 31.7361 30.327 32.2372 29.8259C32.7383 29.3248 33.3767 28.9836 34.0717 28.8453C34.7667 28.7071 35.4871 28.778 36.1418 29.0492C36.7965 29.3204 37.3561 29.7796 37.7498 30.3688C38.1435 30.958 38.3536 31.6508 38.3536 32.3594C38.3529 33.3094 37.9752 34.2203 37.3034 34.8921C36.6316 35.5639 35.7207 35.9416 34.7707 35.9423ZM34.7707 29.3122C34.1667 29.3122 33.5764 29.4914 33.0743 29.827C32.5722 30.1627 32.1809 30.6397 31.9501 31.1978C31.7192 31.7559 31.659 32.3699 31.7773 32.9621C31.8955 33.5544 32.1867 34.0983 32.6141 34.525C33.0416 34.9517 33.586 35.242 34.1784 35.3592C34.7709 35.4763 35.3848 35.4151 35.9425 35.1833C36.5002 34.9514 36.9766 34.5594 37.3113 34.0567C37.6461 33.554 37.8242 32.9633 37.8232 32.3594C37.8225 31.55 37.5007 30.774 36.9284 30.2017C36.3561 29.6294 35.58 29.3076 34.7707 29.3069V29.3122Z" fill="#B27AFF"/>
<path d="M111.987 125C111.278 124.999 110.586 124.789 109.997 124.395C109.408 124.001 108.949 123.441 108.679 122.786C108.408 122.131 108.337 121.41 108.476 120.716C108.615 120.021 108.957 119.382 109.458 118.882C109.96 118.381 110.598 118.04 111.293 117.903C111.988 117.765 112.709 117.836 113.363 118.108C114.018 118.38 114.577 118.839 114.97 119.429C115.364 120.018 115.573 120.711 115.573 121.42C115.571 122.37 115.193 123.28 114.521 123.952C113.848 124.623 112.937 125 111.987 125ZM111.987 118.37C111.383 118.37 110.793 118.55 110.292 118.886C109.79 119.222 109.399 119.699 109.169 120.257C108.938 120.815 108.878 121.429 108.996 122.021C109.115 122.613 109.406 123.156 109.833 123.583C110.26 124.009 110.805 124.3 111.397 124.417C111.989 124.534 112.603 124.473 113.16 124.242C113.718 124.01 114.194 123.618 114.529 123.116C114.864 122.614 115.043 122.023 115.042 121.42C115.042 120.61 114.719 119.834 114.146 119.261C113.574 118.689 112.797 118.367 111.987 118.367V118.37Z" fill="#B27AFF"/>
</g>
<defs>
<clipPath id="clip0_18250_7764">
<rect width="122.264" height="100" fill="white" transform="translate(14 25)"/>
</clipPath>
</defs>
</svg>
