<svg width="150" height="150" viewBox="0 0 150 150" fill="none" xmlns="http://www.w3.org/2000/svg">
<path d="M91.4663 102.298H47.6748C45.6826 102.296 43.7725 101.503 42.3638 100.095C40.9551 98.6858 40.1628 96.7758 40.1608 94.7836V50.9946C40.1628 49.0021 40.955 47.0918 42.3636 45.6827C43.7723 44.2735 45.6823 43.4807 47.6748 43.478H91.4663C93.4587 43.4807 95.3688 44.2735 96.7774 45.6827C98.1861 47.0918 98.9783 49.0021 98.9803 50.9946V94.7836C98.9783 96.7758 98.186 98.6858 96.7773 100.095C95.3686 101.503 93.4585 102.296 91.4663 102.298ZM47.6748 43.981C45.8157 43.9836 44.0336 44.7235 42.7193 46.0383C41.4049 47.3531 40.6657 49.1355 40.6637 50.9946V94.7836C40.6657 96.6424 41.405 98.4245 42.7194 99.7389C44.0338 101.053 45.8159 101.793 47.6748 101.795H91.4663C93.3251 101.793 95.1073 101.053 96.4217 99.7389C97.7361 98.4245 98.4754 96.6424 98.4774 94.7836V50.9946C98.4754 49.1355 97.7361 47.3531 96.4218 46.0383C95.1075 44.7235 93.3254 43.9836 91.4663 43.981H47.6748Z" fill="#B27AFF"/>
<path d="M77.7006 39.4117C77.0294 37.8085 75.8993 36.4394 74.4523 35.4765C73.0053 34.5137 71.306 34 69.568 34C67.8299 34 66.1306 34.5137 64.6836 35.4765C63.2366 36.4394 62.1065 37.8085 61.4353 39.4117H58.6364C58.3476 39.4114 58.0615 39.468 57.7946 39.5783C57.5276 39.6886 57.285 39.8504 57.0807 40.0546C56.8763 40.2587 56.7142 40.5011 56.6036 40.7679C56.493 41.0347 56.436 41.3207 56.436 41.6096V44.4713C56.436 45.0549 56.6679 45.6146 57.0805 46.0272C57.4932 46.4399 58.0528 46.6717 58.6364 46.6717H80.5146C81.0982 46.6717 81.6578 46.4399 82.0705 46.0272C82.4831 45.6146 82.715 45.0549 82.715 44.4713V41.6096C82.715 41.3207 82.658 41.0347 82.5474 40.7679C82.4368 40.5011 82.2747 40.2587 82.0703 40.0546C81.866 39.8504 81.6234 39.6886 81.3564 39.5783C81.0895 39.468 80.8034 39.4114 80.5146 39.4117H77.7006Z" fill="#B27AFF"/>
<path d="M101.674 110.923H57.8846C55.9218 110.924 54.0376 110.152 52.6388 108.776C52.5609 108.7 52.4226 108.554 52.3874 108.524L42.1499 99.8683L42.4743 99.4861L52.7419 108.167C52.7419 108.167 52.9054 108.34 52.9934 108.418C54.2975 109.707 56.0565 110.429 57.8896 110.43H101.674C103.535 110.428 105.319 109.687 106.634 108.37C107.949 107.053 108.688 105.268 108.687 103.407V59.6176C108.685 58.6365 108.478 57.6667 108.079 56.7706C107.679 55.8745 107.097 55.0719 106.369 54.4146C106.208 54.2687 105.866 53.9946 105.866 53.9921L96.6064 46.2367L96.9283 45.8494L106.167 53.6149C106.167 53.6149 106.527 53.8966 106.701 54.0525C107.481 54.7572 108.106 55.6175 108.535 56.5781C108.964 57.5386 109.187 58.5783 109.19 59.6301V103.407C109.187 105.399 108.395 107.31 106.986 108.719C105.577 110.128 103.666 110.92 101.674 110.923Z" fill="#B27AFF"/>
<path d="M89.7939 59.7266H49.3445V60.2296H89.7939V59.7266Z" fill="#979797"/>
<path d="M89.7939 68.6036H49.3445V69.1066H89.7939V68.6036Z" fill="#979797"/>
<path d="M89.7939 77.4806H49.3445V77.9836H89.7939V77.4806Z" fill="#979797"/>
<path d="M89.7939 86.3576H49.3445V86.8606H89.7939V86.3576Z" fill="#979797"/>
<path d="M23.2728 102.111L25.0607 108.933L31.4356 110.661L25.0331 112.32L23.2728 119.158L21.6533 112.32L15.1074 110.661L21.2836 108.933L23.2728 102.111Z" fill="#DAC2FB"/>
<path d="M23.2728 119.271C23.2483 119.27 23.2248 119.261 23.2057 119.246C23.1867 119.231 23.1731 119.209 23.1672 119.186L21.5603 112.411L15.0798 110.769C15.0567 110.762 15.0365 110.747 15.0221 110.728C15.0077 110.708 15 110.685 15 110.661C15 110.637 15.0077 110.613 15.0221 110.594C15.0365 110.574 15.0567 110.56 15.0798 110.553L21.1956 108.843L23.1672 102.08C23.1742 102.057 23.1885 102.037 23.208 102.022C23.2274 102.008 23.251 102 23.2753 102C23.2996 102 23.3231 102.009 23.3421 102.024C23.3612 102.039 23.3749 102.059 23.3809 102.083L25.1563 108.843L31.4683 110.553C31.4917 110.559 31.5123 110.573 31.5269 110.593C31.5414 110.613 31.5491 110.636 31.5488 110.661C31.5486 110.685 31.5404 110.709 31.5254 110.729C31.5104 110.748 31.4895 110.762 31.4658 110.769L25.1236 112.411L23.3784 119.186C23.3728 119.21 23.3594 119.231 23.3403 119.247C23.3211 119.262 23.2974 119.271 23.2728 119.271ZM15.54 110.656L21.6785 112.212C21.6982 112.217 21.7164 112.227 21.731 112.241C21.7456 112.255 21.7561 112.273 21.7614 112.293L23.2703 118.695L24.9199 112.293C24.9245 112.273 24.9345 112.255 24.9487 112.241C24.9629 112.227 24.9808 112.217 25.0004 112.212L30.9955 110.658L25.0281 109.039C25.0092 109.034 24.9919 109.024 24.9781 109.011C24.9644 108.997 24.9547 108.98 24.9501 108.961L23.2652 102.528L21.3893 108.963C21.3843 108.981 21.3747 108.998 21.3615 109.011C21.3483 109.024 21.3318 109.034 21.3138 109.039L15.54 110.656Z" fill="#DAC2FB"/>
<path d="M123.376 59.5591C123.329 59.5591 123.284 59.5405 123.251 59.5075C123.218 59.4745 123.2 59.4297 123.2 59.3831C123.2 52.9504 121.269 48.9595 119.647 46.7465C117.886 44.3475 116.113 43.4573 116.096 43.4472C116.055 43.4262 116.024 43.3899 116.009 43.3462C115.994 43.3025 115.998 43.2548 116.018 43.2133C116.028 43.1926 116.042 43.174 116.059 43.1587C116.076 43.1434 116.096 43.1316 116.118 43.1241C116.14 43.1166 116.163 43.1136 116.186 43.1151C116.209 43.1166 116.231 43.1226 116.252 43.1329C116.327 43.1706 118.11 44.0608 119.916 46.5202C121.575 48.7835 123.549 52.8422 123.549 59.3831C123.55 59.4061 123.546 59.4289 123.537 59.4502C123.528 59.4716 123.516 59.491 123.5 59.5074C123.483 59.5238 123.464 59.5368 123.443 59.5456C123.422 59.5545 123.399 59.5591 123.376 59.5591Z" fill="#DAC2FB"/>
<path d="M116.174 43.4648C116.141 43.4651 116.109 43.4559 116.081 43.4386C116.054 43.4212 116.032 43.3963 116.018 43.3667C115.998 43.3253 115.994 43.2776 116.009 43.2339C116.024 43.1902 116.055 43.1539 116.096 43.1329C116.113 43.1329 117.891 42.2326 119.647 39.8336C121.269 37.6206 123.2 33.6297 123.2 27.197C123.197 27.1723 123.199 27.1473 123.207 27.1235C123.214 27.0997 123.226 27.0778 123.243 27.0592C123.259 27.0406 123.28 27.0257 123.302 27.0155C123.325 27.0053 123.35 27 123.375 27C123.4 27 123.424 27.0053 123.447 27.0155C123.47 27.0257 123.49 27.0406 123.506 27.0592C123.523 27.0778 123.535 27.0997 123.543 27.1235C123.55 27.1473 123.552 27.1723 123.549 27.197C123.549 33.7353 121.575 37.8016 119.916 40.0624C118.11 42.5193 116.327 43.412 116.252 43.4472C116.227 43.4593 116.201 43.4653 116.174 43.4648Z" fill="#DAC2FB"/>
<path d="M123.376 59.5591C123.329 59.5591 123.285 59.5405 123.252 59.5075C123.219 59.4745 123.2 59.4297 123.2 59.3831C123.2 52.8448 125.177 48.7784 126.834 46.5202C128.639 44.0608 130.425 43.1706 130.5 43.1329C130.521 43.1226 130.543 43.1166 130.566 43.1151C130.589 43.1136 130.612 43.1166 130.634 43.1241C130.656 43.1316 130.676 43.1434 130.693 43.1587C130.71 43.174 130.724 43.1926 130.734 43.2133C130.754 43.2551 130.757 43.303 130.742 43.3468C130.727 43.3906 130.695 43.4266 130.654 43.4472C130.636 43.4472 128.858 44.3475 127.103 46.7465C125.483 48.9595 123.55 52.9504 123.55 59.3831C123.55 59.4061 123.546 59.4289 123.537 59.4502C123.528 59.4716 123.516 59.491 123.5 59.5074C123.483 59.5238 123.464 59.5368 123.443 59.5456C123.422 59.5545 123.399 59.5591 123.376 59.5591Z" fill="#DAC2FB"/>
<path d="M130.576 43.4648C130.549 43.4653 130.523 43.4592 130.5 43.4472C130.425 43.412 128.639 42.5193 126.834 40.0624C125.176 37.7991 123.2 33.7378 123.2 27.197C123.197 27.1723 123.199 27.1473 123.207 27.1235C123.214 27.0997 123.226 27.0778 123.243 27.0592C123.259 27.0406 123.28 27.0257 123.302 27.0155C123.325 27.0053 123.35 27 123.375 27C123.4 27 123.424 27.0053 123.447 27.0155C123.47 27.0257 123.49 27.0406 123.506 27.0592C123.523 27.0778 123.535 27.0997 123.543 27.1235C123.55 27.1473 123.552 27.1723 123.549 27.197C123.549 39.5192 130.591 43.0977 130.654 43.1329C130.695 43.1534 130.727 43.1895 130.742 43.2333C130.757 43.2771 130.754 43.325 130.734 43.3667C130.72 43.3965 130.697 43.4215 130.669 43.4389C130.641 43.4562 130.609 43.4652 130.576 43.4648Z" fill="#DAC2FB"/>
</svg>
