<svg width="150" height="150" viewBox="0 0 150 150" fill="none" xmlns="http://www.w3.org/2000/svg">
<path d="M91.9785 82.5246V67.9473C91.9787 67.2841 91.8018 66.6328 91.4662 66.0608C91.1306 65.4888 90.6483 65.0168 90.0693 64.6935L76.8194 57.2985C76.2647 56.9882 75.6398 56.8253 75.0043 56.8253C74.3687 56.8253 73.7438 56.9882 73.1891 57.2985L59.9392 64.6935C59.3605 65.0172 58.8786 65.4893 58.543 66.0612C58.2074 66.6331 58.0303 67.2842 58.03 67.9473V82.5246C58.03 83.1874 58.2069 83.8383 58.5426 84.4098C58.8782 84.9814 59.3604 85.453 59.9392 85.776L73.1891 93.1734C73.7438 93.4836 74.3687 93.6465 75.0043 93.6465C75.6398 93.6465 76.2647 93.4836 76.8194 93.1734L90.0693 85.776C90.6485 85.4534 91.1309 84.9819 91.4666 84.4102C91.8023 83.8386 91.979 83.1875 91.9785 82.5246Z" fill="#DAC2FB"/>
<path d="M75.0055 93.8946C74.3272 93.894 73.6604 93.7189 73.0693 93.3861L59.8219 85.9911C59.2048 85.6466 58.6908 85.1438 58.3328 84.5345C57.9749 83.9251 57.7859 83.2313 57.7855 82.5246V67.9473C57.7859 67.2405 57.9749 66.5467 58.3328 65.9374C58.6908 65.328 59.2048 64.8252 59.8219 64.4808L73.0693 57.0858C73.6599 56.7529 74.3264 56.578 75.0043 56.578C75.6822 56.578 76.3486 56.7529 76.9392 57.0858L90.1891 64.4808C90.8056 64.8257 91.319 65.3287 91.6764 65.938C92.0339 66.5473 92.2226 67.2408 92.223 67.9473V82.5246C92.2226 83.231 92.0339 83.9245 91.6764 84.5338C91.319 85.1431 90.8056 85.6461 90.1891 85.9911L76.9392 93.3861C76.349 93.7189 75.683 93.894 75.0055 93.8946ZM75.0055 57.0687C74.4114 57.0687 73.8273 57.221 73.3089 57.5111L60.059 64.9086C59.5181 65.2105 59.0675 65.6513 58.7538 66.1854C58.4401 66.7196 58.2746 67.3278 58.2744 67.9473V82.5246C58.2746 83.1441 58.4401 83.7522 58.7538 84.2864C59.0675 84.8206 59.5181 85.2614 60.059 85.5633L73.3089 92.9607C73.8271 93.2515 74.4113 93.4042 75.0055 93.4042C75.5997 93.4042 76.1839 93.2515 76.7021 92.9607L89.952 85.5633C90.4926 85.2612 90.9428 84.8204 91.2561 84.2862C91.5694 83.752 91.7344 83.1439 91.7341 82.5246V67.9473C91.7344 67.328 91.5694 66.7198 91.2561 66.1857C90.9428 65.6515 90.4926 65.2106 89.952 64.9086L76.7021 57.5136C76.1838 57.2229 75.5997 57.0697 75.0055 57.0687Z" fill="#DAC2FB"/>
<path d="M75.0054 112.569C74.3275 112.568 73.661 112.394 73.0693 112.063L43.0933 95.3296C42.4762 94.9851 41.9621 94.4823 41.6042 93.8729C41.2462 93.2636 41.0573 92.5698 41.0569 91.8631V58.6161C41.0573 57.9094 41.2462 57.2156 41.6042 56.6062C41.9621 55.9969 42.4762 55.4941 43.0933 55.1496L73.0693 38.4088C73.66 38.0764 74.3264 37.9018 75.0042 37.9018C75.682 37.9018 76.3484 38.0764 76.9392 38.4088L106.918 55.1423C107.534 55.4873 108.048 55.9903 108.405 56.5995C108.762 57.2088 108.951 57.9024 108.952 58.6088V91.8557C108.951 92.5622 108.762 93.2557 108.405 93.865C108.048 94.4743 107.534 94.9773 106.918 95.3222L76.9392 112.063C76.3483 112.394 75.6826 112.568 75.0054 112.569ZM75.0054 38.3917C74.4112 38.3926 73.8271 38.5457 73.3089 38.8366L43.3304 55.5701C42.7896 55.8722 42.3392 56.313 42.0255 56.8471C41.7119 57.3813 41.5463 57.9894 41.5458 58.6088V91.8557C41.5463 92.4752 41.7119 93.0832 42.0255 93.6174C42.3392 94.1515 42.7896 94.5923 43.3304 94.8944L73.3089 111.628C73.8266 111.92 74.411 112.074 75.0054 112.074C75.5999 112.074 76.1843 111.92 76.702 111.628L106.678 94.8944C107.219 94.5927 107.67 94.152 107.984 93.6178C108.297 93.0836 108.463 92.4753 108.463 91.8557V58.6088C108.463 57.9893 108.297 57.381 107.984 56.8468C107.67 56.3125 107.219 55.8718 106.678 55.5701L76.702 38.8366C76.1837 38.546 75.5997 38.3929 75.0054 38.3917Z" fill="#979797"/>
<path d="M76.5753 26.1698L76.576 26.1701L84.909 30.8146C84.9092 30.8146 84.9093 30.8147 84.9095 30.8148C85.4095 31.0946 85.8261 31.5024 86.1165 31.9963C86.4069 32.4901 86.5608 33.0523 86.5624 33.6252C86.5624 33.6254 86.5624 33.6257 86.5624 33.6259L86.5624 42.7113C86.5624 42.7113 86.5624 42.7113 86.5624 42.7113C86.5623 43.2855 86.409 43.8493 86.1185 44.3445C85.8279 44.8398 85.4104 45.2486 84.9092 45.5287L76.576 50.1732L76.5753 50.1736C76.0952 50.4421 75.5543 50.5831 75.0042 50.5831C74.4542 50.5831 73.9133 50.4421 73.4332 50.1736L73.4326 50.1732L65.1014 45.5285C65.1014 45.5285 65.1013 45.5285 65.1013 45.5284C64.5999 45.2487 64.1823 44.8401 63.8918 44.3449C63.6012 43.8497 63.4482 43.2859 63.4485 42.7117V42.7113V33.632V33.6319C63.4484 33.0577 63.6015 32.4938 63.8921 31.9986C64.1827 31.5034 64.6002 31.0947 65.1016 30.8147L73.4326 26.1701L73.4332 26.1698C73.9133 25.9012 74.4542 25.7603 75.0042 25.7603C75.5543 25.7603 76.0952 25.9012 76.5753 26.1698Z" stroke="#979797"/>
<path d="M120.264 60.1835V60.1831V51.094V51.0936C120.264 50.5198 120.111 49.9563 119.821 49.4615C119.53 48.9668 119.113 48.5586 118.612 48.2795L118.611 48.2794L110.28 43.6347C109.8 43.367 109.258 43.2265 108.708 43.2265C108.158 43.2265 107.617 43.3669 107.137 43.6346L120.264 60.1835ZM120.264 60.1835C120.264 60.7573 120.111 61.3208 119.821 61.8156C119.53 62.3104 119.113 62.7185 118.612 62.9977L118.611 62.9978L110.28 67.6425C109.8 67.9101 109.259 68.0507 108.708 68.0507C108.158 68.0507 107.617 67.9102 107.137 67.6425C107.137 67.6425 107.137 67.6425 107.136 67.6425L98.8031 62.9978C98.3019 62.7183 97.8845 62.31 97.594 61.8152C97.3034 61.3204 97.1502 60.7569 97.1502 60.1831V51.094C97.1502 50.5202 97.3034 49.9568 97.594 49.4619C97.8845 48.9672 98.3018 48.5589 98.8029 48.2794C98.8029 48.2794 98.803 48.2793 98.8031 48.2793L107.136 43.6347L120.264 60.1835ZM118.855 63.4345C119.434 63.1119 119.916 62.6404 120.252 62.0688C120.588 61.4971 120.765 60.8461 120.764 60.1831V51.094L118.855 63.4345Z" stroke="#979797"/>
<path d="M65.1013 104.474L65.1011 104.474C64.5998 104.753 64.1822 105.161 63.8916 105.656C63.6011 106.151 63.4481 106.714 63.4485 107.288L63.4485 107.289L63.4485 116.378V116.378C63.4481 116.952 63.6011 117.515 63.8916 118.01C64.1822 118.505 64.5998 118.913 65.1011 119.192L65.1013 119.192L73.4324 123.837C73.4324 123.837 73.4324 123.837 73.4325 123.837C73.4325 123.837 73.4325 123.837 73.4326 123.837C73.9132 124.105 74.4541 124.245 75.0042 124.245C75.5544 124.245 76.0954 124.105 76.5761 123.837L84.9095 119.193C84.9096 119.192 84.9096 119.192 84.9097 119.192C85.4107 118.913 85.8281 118.505 86.1186 118.01C86.4092 117.515 86.5624 116.952 86.5624 116.378V107.289C86.5624 106.715 86.4092 106.151 86.1186 105.657C85.8281 105.162 85.4107 104.754 84.9097 104.474L65.1013 104.474ZM65.1013 104.474L73.4324 99.8293C73.4324 99.8293 73.4325 99.8293 73.4326 99.8292C73.9132 99.5616 74.4541 99.4211 75.0042 99.4211C75.5543 99.4211 76.0953 99.5616 76.576 99.8293C76.576 99.8293 76.576 99.8293 76.5761 99.8293L84.9095 104.474L65.1013 104.474Z" stroke="#979797"/>
<path d="M52.8583 60.1831V51.094C52.8583 50.5202 52.7051 49.9568 52.4145 49.4619C52.124 48.9672 51.7066 48.5589 51.2055 48.2794C51.2055 48.2793 51.2055 48.2793 51.2055 48.2793C51.2055 48.2793 51.2054 48.2793 51.2054 48.2793L42.8746 43.6348C42.3935 43.367 41.852 43.2265 41.3014 43.2265C40.7509 43.2265 40.2095 43.367 39.7285 43.6346L52.8583 60.1831ZM52.8583 60.1831C52.8583 60.7569 52.7051 61.3204 52.4145 61.8152C52.1239 62.31 51.7065 62.7183 51.2054 62.9978L42.8746 67.6424L52.8583 60.1831ZM31.3973 48.2793L39.7281 43.6348V67.6424L31.3973 62.9978C30.8962 62.7183 30.4788 62.31 30.1882 61.8152C29.8977 61.3204 29.7445 60.7569 29.7444 60.1831V51.094C29.7445 50.5202 29.8977 49.9568 30.1882 49.4619C30.4788 48.9671 30.8962 48.5589 31.3973 48.2793ZM41.3014 68.0506C40.7509 68.0506 40.2095 67.9102 39.7285 67.6426H42.8742C42.3932 67.9102 41.8518 68.0506 41.3014 68.0506Z" stroke="#979797"/>
<path d="M120.264 98.7302V98.73V89.6433V89.643C120.264 89.0688 120.111 88.505 119.821 88.0098C119.53 87.5146 119.113 87.106 118.611 86.8263C118.611 86.8263 118.611 86.8262 118.611 86.8262C118.611 86.8262 118.611 86.8262 118.611 86.8262L110.28 82.1815L110.279 82.1811C109.799 81.9126 109.258 81.7716 108.708 81.7716C108.158 81.7716 107.617 81.9126 107.137 82.1811L107.137 82.1815L98.8034 86.826C98.8033 86.8261 98.8031 86.8262 98.803 86.8262C98.3019 87.1064 97.8846 87.515 97.5941 88.0102C97.3035 88.5054 97.1503 89.0692 97.1502 89.6433L120.264 98.7302ZM120.264 98.7302C120.264 99.3044 120.111 99.8682 119.82 100.363C119.53 100.859 119.113 101.267 118.611 101.547L120.264 98.7302ZM107.137 106.192L107.137 106.192C107.617 106.461 108.158 106.602 108.708 106.602C109.258 106.602 109.799 106.461 110.279 106.192L110.28 106.192L118.611 101.547L107.137 106.192ZM107.137 106.192L98.8036 101.547C98.8034 101.547 98.8032 101.547 98.8031 101.547C98.3022 101.267 97.885 100.858 97.5944 100.363C97.3039 99.8678 97.1505 99.3042 97.1502 98.73C97.1502 98.73 97.1502 98.7299 97.1502 98.7298M107.137 106.192L97.1502 98.7298M97.1502 98.7298L97.1502 89.6434L97.1502 98.7298ZM120.764 98.73V89.6433V98.73Z" stroke="#979797"/>
<path d="M42.8742 82.1815L42.8738 82.1812C42.3932 81.9126 41.8519 81.7716 41.3014 81.7716C40.7508 81.7716 40.2095 81.9126 39.7289 82.1812L39.7285 82.1815L31.3976 86.826C31.3976 86.8261 31.3975 86.8261 31.3974 86.8261C30.8963 87.1063 30.4789 87.515 30.1884 88.0102C29.8978 88.5054 29.7445 89.0692 29.7444 89.6433L42.8742 82.1815ZM42.8742 82.1815L51.2051 86.826C51.7063 87.1061 52.1238 87.5149 52.4144 88.0102C52.7049 88.5054 52.8582 89.0692 52.8583 89.6433C52.8583 89.6434 52.8583 89.6434 52.8583 89.6434V98.7298C52.858 99.304 52.7046 99.8678 52.414 100.363C52.1235 100.858 51.7064 101.267 51.2055 101.547C51.2053 101.547 51.2051 101.547 51.2049 101.547L42.8742 106.192L42.8738 106.192C42.3932 106.461 41.8519 106.602 41.3014 106.602C40.7508 106.602 40.2095 106.461 39.7289 106.192L39.7285 106.192M42.8742 82.1815L39.7285 106.192M39.7285 106.192L31.3978 101.547C31.3977 101.547 31.3976 101.547 31.3974 101.547C30.8965 101.267 30.4792 100.858 30.1887 100.363C29.8981 99.8678 29.7448 99.3042 29.7444 98.73C29.7444 98.73 29.7444 98.7299 29.7444 98.7298M39.7285 106.192L29.7444 98.7298M29.7444 98.7298L29.7444 89.6434L29.7444 98.7298Z" stroke="#979797"/>
<path d="M68.0309 80.7156C67.9885 80.7155 67.9468 80.7045 67.91 80.6835C67.8731 80.6625 67.8423 80.6323 67.8207 80.5958L63.0586 72.6238V80.4711C63.0586 80.5359 63.0328 80.5981 62.987 80.644C62.9411 80.6898 62.8789 80.7156 62.8141 80.7156C62.7493 80.7156 62.6871 80.6898 62.6412 80.644C62.5954 80.5981 62.5696 80.5359 62.5696 80.4711V71.7389C62.5697 71.6853 62.5873 71.6332 62.6197 71.5907C62.6522 71.5481 62.6978 71.5174 62.7495 71.5032C62.8011 71.489 62.856 71.4922 62.9056 71.5123C62.9553 71.5323 62.997 71.5681 63.0243 71.6142L67.7865 79.5837V71.7389C67.7865 71.674 67.8122 71.6119 67.8581 71.566C67.9039 71.5202 67.9661 71.4944 68.0309 71.4944C68.0958 71.4944 68.158 71.5202 68.2038 71.566C68.2496 71.6119 68.2754 71.674 68.2754 71.7389V80.4711C68.2774 80.526 68.2609 80.5799 68.2286 80.6243C68.1962 80.6686 68.1498 80.7008 68.0969 80.7156C68.0751 80.7191 68.0528 80.7191 68.0309 80.7156Z" fill="black"/>
<path d="M73.1915 80.7156C73.1267 80.7156 73.0645 80.6898 73.0187 80.644C72.9728 80.5981 72.9471 80.5359 72.9471 80.4711V71.7389C72.9471 71.674 72.9728 71.6119 73.0187 71.566C73.0645 71.5202 73.1267 71.4944 73.1915 71.4944H77.6139C77.6787 71.4944 77.7409 71.5202 77.7867 71.566C77.8326 71.6119 77.8583 71.674 77.8583 71.7389C77.8583 71.8037 77.8326 71.8659 77.7867 71.9117C77.7409 71.9576 77.6787 71.9833 77.6139 71.9833H73.436V80.4711C73.436 80.5359 73.4103 80.5981 73.3644 80.644C73.3186 80.6898 73.2564 80.7156 73.1915 80.7156Z" fill="black"/>
<path d="M76.5749 76.3495H73.1915C73.1267 76.3495 73.0645 76.3237 73.0187 76.2779C72.9728 76.232 72.9471 76.1698 72.9471 76.105C72.9471 76.0402 72.9728 75.978 73.0187 75.9321C73.0645 75.8863 73.1267 75.8605 73.1915 75.8605H76.5749C76.6397 75.8605 76.7019 75.8863 76.7478 75.9321C76.7936 75.978 76.8194 76.0402 76.8194 76.105C76.8194 76.1698 76.7936 76.232 76.7478 76.2779C76.7019 76.3237 76.6397 76.3495 76.5749 76.3495Z" fill="black"/>
<path d="M87.1944 71.9833H80.7308C80.666 71.9833 80.6038 71.9576 80.5579 71.9117C80.5121 71.8659 80.4863 71.8037 80.4863 71.7389C80.4863 71.674 80.5121 71.6119 80.5579 71.566C80.6038 71.5202 80.666 71.4944 80.7308 71.4944H87.1944C87.2592 71.4944 87.3214 71.5202 87.3673 71.566C87.4131 71.6119 87.4389 71.674 87.4389 71.7389C87.4389 71.8037 87.4131 71.8659 87.3673 71.9117C87.3214 71.9576 87.2592 71.9833 87.1944 71.9833Z" fill="black"/>
<path d="M83.9626 80.7156C83.8978 80.7156 83.8356 80.6898 83.7897 80.644C83.7439 80.5981 83.7181 80.5359 83.7181 80.4711V71.7389C83.7181 71.674 83.7439 71.6119 83.7897 71.566C83.8356 71.5202 83.8978 71.4944 83.9626 71.4944C84.0274 71.4944 84.0896 71.5202 84.1355 71.566C84.1813 71.6119 84.2071 71.674 84.2071 71.7389V80.4711C84.2071 80.5359 84.1813 80.5981 84.1355 80.644C84.0896 80.6898 84.0274 80.7156 83.9626 80.7156Z" fill="black"/>
<path d="M65.4137 33.2038L65.1754 33.6307L73.3018 38.1668L73.5401 37.7399L65.4137 33.2038Z" fill="#979797"/>
<path d="M75.2499 40.4427H74.761V49.0478H75.2499V40.4427Z" fill="#979797"/>
<path d="M84.5106 33.2031L76.3842 37.7392L76.6225 38.1661L84.7489 33.63L84.5106 33.2031Z" fill="#979797"/>
<path d="M118.255 50.6477L110.128 55.1838L110.367 55.6107L118.493 51.0746L118.255 50.6477Z" fill="#979797"/>
<path d="M31.7556 50.6495L31.5173 51.0764L39.6437 55.6126L39.882 55.1856L31.7556 50.6495Z" fill="#979797"/>
<path d="M99.1595 88.5994L98.9212 89.0264L107.048 93.5625L107.286 93.1356L99.1595 88.5994Z" fill="#979797"/>
<path d="M108.996 95.8429H108.507V104.448H108.996V95.8429Z" fill="#979797"/>
<path d="M118.255 88.5983L110.128 93.1344L110.367 93.5613L118.493 89.0252L118.255 88.5983Z" fill="#979797"/>
<path d="M31.7558 88.6022L31.5175 89.0291L39.6439 93.5652L39.8822 93.1383L31.7558 88.6022Z" fill="#979797"/>
<path d="M41.5898 95.8429H41.1009V104.448H41.5898V95.8429Z" fill="#979797"/>
<path d="M50.8511 88.6011L42.7247 93.1372L42.963 93.5641L51.0894 89.028L50.8511 88.6011Z" fill="#979797"/>
<path d="M75.2499 114.163H74.761V122.768H75.2499V114.163Z" fill="#979797"/>
<path d="M118.463 99.2442L110.403 94.5908L110.159 95.0142L118.219 99.6676L118.463 99.2442Z" fill="#979797"/>
</svg>
