<svg width="40" height="40" viewBox="0 0 40 40" fill="none" xmlns="http://www.w3.org/2000/svg">
    <g opacity="0.3" clip-path="url(#clip0_145_1921)">
        <path fill-rule="evenodd" clip-rule="evenodd"
            d="M20 40.0195C16.0444 40.0195 12.1776 38.8466 8.8886 36.6489C5.59962 34.4513 3.03617 31.3277 1.52242 27.6732C0.00866564 24.0187 -0.387401 19.9974 0.384303 16.1177C1.15601 12.2381 3.06082 8.67445 5.85787 5.8774C8.65492 3.08035 12.2186 1.17554 16.0982 0.403835C19.9778 -0.36787 23.9992 0.0281969 27.6537 1.54195C31.3082 3.0557 34.4318 5.61915 36.6294 8.90813C38.827 12.1971 40 16.0639 40 20.0195C40 25.3239 37.8929 30.4109 34.1421 34.1617C30.3914 37.9124 25.3043 40.0195 20 40.0195ZM20 2.56954C16.5388 2.56954 13.1554 3.5959 10.2775 5.51882C7.39967 7.44175 5.15665 10.1749 3.83212 13.3726C2.50758 16.5703 2.16102 20.089 2.83627 23.4836C3.51151 26.8783 5.17822 29.9965 7.62564 32.4439C10.0731 34.8913 13.1913 36.558 16.5859 37.2333C17.5531 37.4257 18.5304 37.5351 19.5075 37.5626C19.3686 35.678 19.6078 33.7784 20.2179 31.9773C20.2932 31.7547 20.374 31.5345 20.46 31.3167C20.319 31.3302 20.177 31.3374 20.0345 31.3382C19.0578 31.3437 18.1034 31.0469 17.302 30.4886C16.5007 29.9302 15.8917 29.1377 15.5585 28.2196C15.4965 28.0414 15.4777 27.8509 15.5036 27.664C15.5295 27.4771 15.5995 27.299 15.7077 27.1444C15.8159 26.9898 15.9593 26.8631 16.1261 26.7748C16.2928 26.6864 16.4782 26.639 16.6669 26.6363L20.0002 26.5946H23.3335C23.3952 26.5939 23.4566 26.598 23.5172 26.6067C23.7721 26.3466 24.0374 26.0959 24.3128 25.8551C26.1937 24.2112 28.4758 23.0938 30.9279 22.6163C33.0388 22.2052 35.2111 22.2809 37.2806 22.8319C37.426 21.9222 37.5 20.9987 37.5 20.0695C37.5 15.4283 35.6563 10.9771 32.3744 7.69517C29.0925 4.41328 24.6413 2.56954 20 2.56954ZM36.7101 25.268C34.9801 24.7941 33.1605 24.7246 31.3933 25.0694C29.375 25.4633 27.4967 26.3836 25.9486 27.7371C24.4005 29.0906 23.2376 30.8293 22.5779 32.7769C22.0669 34.2852 21.8717 35.8773 21.9986 37.455C23.605 37.2704 25.1868 36.863 26.697 36.2374C29.8947 34.9129 32.6278 32.6699 34.5507 29.792C35.489 28.3878 36.2138 26.8632 36.7101 25.268ZM9.42521 14.6363C9.42521 14.9941 9.49569 15.3485 9.63264 15.6791C9.76958 16.0097 9.9703 16.3101 10.2233 16.5631C10.4764 16.8162 10.7768 17.0169 11.1074 17.1538C11.438 17.2908 11.7924 17.3613 12.1502 17.3613C12.5081 17.3613 12.8624 17.2908 13.193 17.1538C13.5236 17.0169 13.824 16.8162 14.0771 16.5631C14.3301 16.3101 14.5308 16.0097 14.6678 15.6791C14.8047 15.3485 14.8752 14.9941 14.8752 14.6363C14.8752 14.2784 14.8047 13.9241 14.6678 13.5934C14.5308 13.2628 14.3301 12.9624 14.0771 12.7094C13.824 12.4564 13.5236 12.2556 13.193 12.1187C12.8624 11.9817 12.5081 11.9113 12.1502 11.9113C11.7924 11.9113 11.438 11.9817 11.1074 12.1187C10.7768 12.2556 10.4764 12.4564 10.2233 12.7094C9.9703 12.9624 9.76958 13.2628 9.63264 13.5934C9.49569 13.9241 9.42521 14.2784 9.42521 14.6363ZM25.8817 16.5631C26.3927 17.0742 27.0858 17.3613 27.8085 17.3613C28.5312 17.3613 29.2244 17.0742 29.7354 16.5631C30.2464 16.0521 30.5335 15.359 30.5335 14.6363C30.5335 13.9135 30.2464 13.2204 29.7354 12.7094C29.2244 12.1984 28.5312 11.9113 27.8085 11.9113C27.0858 11.9113 26.3927 12.1984 25.8817 12.7094C25.3706 13.2204 25.0835 13.9135 25.0835 14.6363C25.0835 15.359 25.3706 16.0521 25.8817 16.5631Z"
            fill="black" />
    </g>
    <defs>
        <clipPath id="clip0_145_1921">
            <rect width="40" height="40" fill="black" />
        </clipPath>
    </defs>
</svg>