<svg xmlns="http://www.w3.org/2000/svg" width="24" height="24" viewBox="0 0 24 24" fill="none">
    <path
        d="M18.0725 11.0543H5.92737C4.87837 11.0543 4.02808 11.9029 4.02808 12.9499V20.9906C4.02808 22.0377 4.87837 22.8862 5.92737 22.8862H18.0725C19.1215 22.8862 19.972 22.0377 19.972 20.9906V12.9499C19.972 11.9029 19.1215 11.0543 18.0725 11.0543ZM12.7998 16.9159V19.0264C12.7998 19.468 12.442 19.8263 11.9999 19.8263C11.5581 19.8263 11.2 19.468 11.2 19.0264V16.9159C10.7224 16.6392 10.4001 16.1235 10.4001 15.5316C10.4001 14.6479 11.1163 13.9317 11.9999 13.9317C12.8836 13.9317 13.6 14.6479 13.6 15.5316C13.6 16.1235 13.278 16.6392 12.7998 16.9159ZM11.9999 3.4541C8.90728 3.4541 6.40001 5.92603 6.40001 9.1738V11.6578L17.6001 12.191V9.1738C17.6001 5.92603 15.0928 3.4541 11.9999 3.4541ZM8.00084 11.5174V9.11817C8.00084 6.90988 9.79135 5.11909 11.9999 5.11909C14.2087 5.11909 15.999 6.90988 15.999 9.11817V11.5736L8.00084 11.5174Z"
        fill="#525866" />
</svg>