<svg xmlns="http://www.w3.org/2000/svg" width="16" height="16" viewBox="0 0 16 16" fill="none">
    <path
        d="M4.07324 11.6667C2.59991 10.2867 1.33325 8.32004 1.33325 5.7867C1.33325 3.7267 2.99325 2.06006 5.03992 2.06006C6.25325 2.06006 7.32659 2.64672 7.99992 3.55339C8.67325 2.64672 9.75325 2.06006 10.9599 2.06006C11.7266 2.06006 12.4399 2.29337 13.0332 2.70003"
        stroke="#979797" stroke-linecap="round" stroke-linejoin="round" />
    <path
        d="M14.4932 4.66675C14.6065 5.02008 14.6665 5.40008 14.6665 5.79342C14.6665 10.4601 10.3465 13.2134 8.41317 13.8801C8.1865 13.9601 7.81317 13.9601 7.58651 13.8801C7.15317 13.7334 6.60652 13.4801 6.01318 13.1267"
        stroke="#979797" stroke-linecap="round" stroke-linejoin="round" />
    <path d="M14.6666 1.33337L1.33325 14.6667" stroke="#979797" stroke-linecap="round"
        stroke-linejoin="round" />
</svg>