<svg xmlns="http://www.w3.org/2000/svg" width="16" height="16" viewBox="0 0 16 16" fill="none">
    <path
        d="M13.3335 8.00016C13.3335 6.81398 12.9381 5.66163 12.21 4.72523C11.4819 3.78883 10.4624 3.12178 9.31283 2.8295C9.38625 3.69944 9.26894 4.57493 8.96908 5.39485C8.66923 6.21478 8.19406 6.95939 7.57672 7.57672C6.95939 8.19406 6.21478 8.66923 5.39485 8.96908C4.57493 9.26894 3.69944 9.38625 2.8295 9.31283C3.14833 10.5741 3.91715 11.6753 4.99125 12.4092C6.06535 13.1431 7.37066 13.4592 8.66152 13.2979C9.95238 13.1365 11.1398 12.509 12.0002 11.5333C12.8607 10.5576 13.3348 9.30106 13.3335 8.00016ZM7.99883 3.22016L3.22016 7.99883L3.3335 8.00016C3.95587 8.00017 4.57196 7.87568 5.14551 7.63402C5.71906 7.39237 6.23847 7.03842 6.67318 6.59303C7.1079 6.14763 7.44912 5.61978 7.67679 5.04053C7.90445 4.46129 8.01394 3.84236 7.99883 3.22016ZM8.00016 14.6668C4.31816 14.6668 1.3335 11.6822 1.3335 8.00016L8.00016 1.3335C11.6822 1.3335 14.6668 4.31816 14.6668 8.00016C14.6668 11.6822 11.6822 14.6668 8.00016 14.6668Z"
        fill="white" />
</svg>