<svg xmlns="http://www.w3.org/2000/svg" width="16" height="16" viewBox="0 0 16 16" fill="none">
    <path
        d="M13.3728 1.663C13.3728 2.02942 13.0757 2.32648 12.7093 2.32648H3.17852C2.8121 2.32648 2.51504 2.02944 2.51504 1.663C2.51504 1.29657 2.81209 0.999512 3.17852 0.999512H12.7093C13.0757 0.999512 13.3728 1.29656 13.3728 1.663ZM7.99713 4.13056C7.63071 4.13056 7.33364 4.4276 7.33364 4.79404V14.3248C7.33364 14.6912 7.63069 14.9883 7.99713 14.9883C8.36355 14.9883 8.66062 14.6912 8.66062 14.3248V4.79403C8.6606 4.4276 8.36355 4.13056 7.99713 4.13056ZM8.46799 3.64106C8.20889 3.38196 7.80366 3.36709 7.56288 3.60787L2.67568 8.49505C2.43492 8.73582 2.44977 9.14105 2.70888 9.40015C2.96798 9.65926 3.37321 9.67413 3.61397 9.43335L8.50119 4.54616C8.74195 4.3054 8.7271 3.90017 8.46799 3.64106ZM7.52636 3.64106C7.26726 3.90017 7.25239 4.3054 7.49317 4.54616L12.3804 9.43336C12.6211 9.67413 13.0264 9.65927 13.2855 9.40017C13.5446 9.14106 13.5594 8.73584 13.3187 8.49507L8.43146 3.60786C8.19069 3.36709 7.78547 3.38196 7.52636 3.64106Z"
        fill="white" />
</svg>