<svg xmlns="http://www.w3.org/2000/svg" width="16" height="16" viewBox="0 0 16 16" fill="none">
    <path
        d="M12.1016 14H3.89844C2.85156 14 2 13.1844 2 12.1828V11C2 10.5859 2.33594 10.25 2.75 10.25C3.16406 10.25 3.5 10.5859 3.5 11V12.1828C3.5 12.3547 3.68281 12.5 3.89844 12.5H12.1016C12.3172 12.5 12.5 12.3547 12.5 12.1828V11C12.5 10.5859 12.8359 10.25 13.25 10.25C13.6641 10.25 14 10.5859 14 11V12.1828C14 13.1844 13.1484 14 12.1016 14Z"
        fill="white" />
    <path
        d="M8 10.7217C7.58594 10.7217 7.25 10.3857 7.25 9.97168V3.22168C7.25 2.80762 7.58594 2.47168 8 2.47168C8.41406 2.47168 8.75 2.80762 8.75 3.22168V9.97168C8.75 10.3857 8.41406 10.7217 8 10.7217Z"
        fill="white" />
    <path
        d="M9.81724 5.31572C9.62505 5.31572 9.43286 5.24229 9.28755 5.09541L8.00005 3.81104L6.71411 5.09697C6.42036 5.39072 5.94692 5.39072 5.65317 5.09697C5.35942 4.80322 5.35942 4.32979 5.65317 4.03604L7.47036 2.21885C7.76411 1.9251 8.23755 1.9251 8.5313 2.21885L10.3485 4.03604C10.6422 4.32979 10.6422 4.80322 10.3485 5.09697C10.2 5.24385 10.0079 5.31572 9.81724 5.31572Z"
        fill="white" />
</svg>