<svg xmlns="http://www.w3.org/2000/svg" width="16" height="16" viewBox="0 0 16 16" fill="none">
    <g clip-path="url(#clip0_330_8905)">
        <path
            d="M15.2727 8.65432V7.99978C15.2727 3.99978 12 0.727051 8.00002 0.727051C4.00002 0.727051 0.727295 3.99978 0.727295 7.99978C0.727295 11.9998 4.00002 15.2725 8.00002 15.2725C8.80002 15.2725 9.52729 15.1271 10.2546 14.9089C10.3273 14.9089 10.3273 14.8361 10.4 14.8361C10.4 14.8361 10.4727 14.8361 10.4727 14.7634L15.0546 9.01796V8.94523C15.2 8.87251 15.2 8.79978 15.2727 8.65432C15.2727 8.72705 15.2 8.72705 15.2727 8.65432ZM8.00002 14.1816C4.58184 14.1816 1.8182 11.418 1.8182 7.99978C1.8182 4.5816 4.58184 1.81796 8.00002 1.81796C11.3455 1.81796 14.0364 4.43614 14.1818 7.70887C13.6727 7.49069 13.1637 7.41796 12.6546 7.41796C10.3273 7.41796 8.43639 9.30887 8.43639 11.6361C8.43639 12.5089 8.65457 13.3089 9.16366 14.0361C8.72729 14.1816 8.36366 14.1816 8.00002 14.1816ZM12.6546 8.5816C13.0909 8.5816 13.5273 8.65432 13.8909 8.87251L10.1091 13.5998C9.67275 13.018 9.45457 12.3634 9.45457 11.7089C9.45457 9.96341 10.9091 8.5816 12.6546 8.5816Z"
            fill="#979797" />
    </g>
    <defs>
        <clipPath id="clip0_330_8905">
            <rect width="16" height="16" fill="white" transform="translate(0 -0.000244141)" />
        </clipPath>
    </defs>
</svg>