<svg width="52" height="41" viewBox="0 0 52 41" fill="none" xmlns="http://www.w3.org/2000/svg">
<path fill-rule="evenodd" clip-rule="evenodd" d="M23.1111 3C23.1111 1.61929 24.2304 0.5 25.6111 0.5H26.3889C27.7696 0.5 28.8889 1.61929 28.8889 3V15.3333C28.8889 16.714 27.7696 17.8333 26.3889 17.8333H25.6111C24.2304 17.8333 23.1111 16.714 23.1111 15.3333V3ZM14.0556 10.6111C12.6748 10.6111 11.5556 11.7304 11.5556 13.1111V28.3333C11.5556 29.714 12.6748 30.8333 14.0556 30.8333H14.8333C16.214 30.8333 17.3333 29.714 17.3333 28.3333V13.1111C17.3333 11.7304 16.214 10.6111 14.8333 10.6111H14.0556ZM37.1667 10.6111C35.786 10.6111 34.6667 11.7304 34.6667 13.1111V28.3333C34.6667 29.714 35.786 30.8333 37.1667 30.8333H37.9444C39.3252 30.8333 40.4444 29.714 40.4444 28.3333V13.1111C40.4444 11.7304 39.3252 10.6111 37.9444 10.6111H37.1667ZM46.2222 17.4444C46.2222 16.0637 47.3415 14.9444 48.7222 14.9444H49.5C50.8807 14.9444 52 16.0637 52 17.4444V24C52 25.3807 50.8807 26.5 49.5 26.5H48.7222C47.3415 26.5 46.2222 25.3807 46.2222 24V17.4444ZM2.5 14.9444C1.11929 14.9444 0 16.0637 0 17.4444V24C0 25.3807 1.11929 26.5 2.5 26.5H3.27778C4.65849 26.5 5.77778 25.3807 5.77778 24V17.4444C5.77778 16.0637 4.65849 14.9444 3.27778 14.9444H2.5ZM25.6111 23.6111C24.2304 23.6111 23.1111 24.7304 23.1111 26.1111V38.4444C23.1111 39.8252 24.2304 40.9444 25.6111 40.9444H26.3889C27.7696 40.9444 28.8889 39.8252 28.8889 38.4444V26.1111C28.8889 24.7304 27.7696 23.6111 26.3889 23.6111H25.6111Z" fill="white" fill-opacity="0.5"/>
</svg>
