<svg width="13" height="13" viewBox="0 0 13 13" fill="none" xmlns="http://www.w3.org/2000/svg">
<g clip-path="url(#clip0_570_1098)">
<path d="M9.38432 2.51367C9.29429 2.70138 9.10246 2.831 8.88037 2.831C8.65828 2.831 8.46645 2.70138 8.37642 2.51367H4.45854C4.36851 2.70138 4.17668 2.831 3.95459 2.831C3.7325 2.831 3.54067 2.70138 3.45064 2.51367H1.68848C1.37998 2.51367 1.12988 2.76377 1.12988 3.07227V4.46418C1.17225 4.45436 1.21562 4.4495 1.25911 4.44971L11.8447 4.49274V3.07227C11.8447 2.76377 11.5946 2.51367 11.2861 2.51367H9.38432ZM9.43896 1.39648H11.2861C12.2116 1.39648 12.9619 2.14675 12.9619 3.07227V10.6133C12.9619 11.5388 12.2116 12.2891 11.2861 12.2891H1.68848C0.762963 12.2891 0.0126953 11.5388 0.0126953 10.6133V3.07227C0.0126953 2.14675 0.762963 1.39648 1.68848 1.39648H3.396V0.571289C3.396 0.262793 3.64609 0.0126953 3.95459 0.0126953C4.26309 0.0126953 4.51318 0.262793 4.51318 0.571289V1.39648H8.32178V0.571289C8.32178 0.262793 8.57187 0.0126953 8.88037 0.0126953C9.18887 0.0126953 9.43896 0.262793 9.43896 0.571289V1.39648ZM1.12988 5.5524V10.6133C1.12988 10.9218 1.37998 11.1719 1.68848 11.1719H11.2861C11.5946 11.1719 11.8447 10.9218 11.8447 10.6133V5.60994L1.25456 5.56689C1.21259 5.56675 1.17077 5.56188 1.12988 5.5524ZM3.47852 9.15967C3.17002 9.15967 2.91992 8.90957 2.91992 8.60107C2.91992 8.29258 3.17002 8.04248 3.47852 8.04248H9.45946C9.76795 8.04248 10.018 8.29258 10.018 8.60107C10.018 8.90957 9.76795 9.15967 9.45946 9.15967H3.47852Z" fill="#878787"/>
</g>
<defs>
<clipPath id="clip0_570_1098">
<rect width="13" height="13" fill="white"/>
</clipPath>
</defs>
</svg>
