<?xml version="1.0" encoding="UTF-8"?>
<svg width="18px" height="20px" viewBox="0 0 18 20" version="1.1" xmlns="http://www.w3.org/2000/svg" xmlns:xlink="http://www.w3.org/1999/xlink">
    <title></title>
    <g id="airdrop-1" stroke="none" stroke-width="1" fill="none" fill-rule="evenodd">
        <g id="2.1.1-web-share-copied" transform="translate(-778.000000, -847.000000)" fill="#999999">
            <g id="airdrop-2" transform="translate(389.000000, 835.000000)">
                <g id="airdrop-3" transform="translate(388.000000, 12.000000)">
                    <g transform="translate(1.251000, 0.000000)" id="airdrop-4">
                        <path d="M0.85525,9.929125 C1.0665,9.811625 1.33275,9.890375 1.44775,10.102875 L1.44775,10.102875 L2.02775,11.165375 C2.804,12.590375 3.849,13.812875 5.11525,14.820375 C5.18775,14.765375 5.2815,14.747875 5.369,14.772875 L5.369,14.772875 L8.254,15.424125 C8.37775,15.459125 8.4615,15.572875 8.4615,15.701625 L8.4615,15.701625 L8.4615,19.712875 C8.4615,19.805375 8.41775,19.891625 8.3415,19.946625 C8.2665,20.000375 8.17025,20.015375 8.0815,19.985375 L8.0815,19.985375 L5.1965,19.024125 C5.079,18.985375 4.999,18.875375 4.999,18.750375 L4.999,18.750375 L4.999,15.849125 L4.83775,15.727875 C3.35275,14.609125 2.14775,13.214125 1.259,11.584125 L1.259,11.584125 L0.679,10.521625 C0.564,10.309125 0.64275,10.042875 0.85525,9.929125 Z M16.0495,10.1035 C16.167,9.891 16.432,9.81225 16.64325,9.9285 C16.85575,10.0435 16.93325,10.30975 16.81825,10.52225 L16.81825,10.52225 L16.2395,11.5835 C15.3495,13.21475 14.14575,14.6085 12.6595,15.7285 L12.6595,15.7285 L12.49825,15.8485 L12.49825,18.7535 C12.49825,18.87725 12.4195,18.98725 12.30075,19.026 L12.30075,19.026 L9.417,19.98475 C9.32825,20.0135 9.232,19.9985 9.157,19.94475 C9.082,19.88975 9.037,19.80225 9.037,19.70975 L9.037,19.70975 L9.037,15.70725 C9.037,15.57975 9.122,15.46725 9.24575,15.42975 L9.24575,15.42975 L12.1295,14.7885 C12.212,14.7635 12.30075,14.781 12.372,14.82975 C13.64325,13.81975 14.69075,12.59475 15.47075,11.16475 L15.47075,11.16475 Z M11.146375,10.174375 C11.222625,9.944375 11.470125,9.820625 11.698875,9.896875 C11.928875,9.973125 12.052625,10.221875 11.976375,10.450625 L11.976375,10.450625 L10.927625,13.595625 L12.375125,13.905625 C12.460125,13.924375 12.515125,14.008125 12.497625,14.093125 C12.485125,14.154375 12.436375,14.203125 12.375125,14.215625 L12.375125,14.215625 L12.373875,14.215625 L9.403875,14.853125 C8.971375,14.945625 8.526375,14.945625 8.095125,14.853125 L8.095125,14.853125 L5.128875,14.218125 C5.042625,14.199375 4.986375,14.115625 5.005125,14.029375 C5.017625,13.966875 5.066375,13.918125 5.128875,13.905625 L5.128875,13.905625 L6.570125,13.596875 L5.522625,10.450625 C5.446375,10.221875 5.568875,9.973125 5.798875,9.896875 C6.026375,9.820625 6.275125,9.944375 6.351375,10.174375 L6.351375,10.174375 L7.431375,13.410625 L8.098875,13.268125 C8.531375,13.175625 8.977625,13.176875 9.410125,13.269375 L9.410125,13.269375 L10.067625,13.409375 Z M8.74875,0 C11.09,0 13.28625,0.89625 14.93375,2.52375 C16.5875,4.1575 17.49875,6.3425 17.4975013,8.675 L17.4975013,8.675 L17.4975013,8.74875 C17.4975013,8.945 17.37375,9.12 17.18875,9.185 C17.0025,9.24875 16.7975,9.1875 16.67625,9.03375 L16.67625,9.03375 L16.4726076,8.77554778 C15.9574005,8.12895329 15.3803676,7.50125 14.38,7.50125 C13.24625,7.50125 12.40625,8.1025 11.975,8.935 C11.895,9.08875 11.7375,9.185 11.56625,9.185 C11.39375,9.185 11.23625,9.08875 11.1575,8.935 C10.805,8.25375 10.13125,7.2475 8.74875,7.2475 C7.3675,7.2475 6.69375,8.25375 6.34125,8.935 C6.2625,9.08875 6.105,9.185 5.93375,9.185 C5.76125,9.185 5.6025,9.08875 5.525,8.935 C5.09375,8.10125 4.21,7.51375 3.115,7.51375 C2.02,7.51375 1.39375,8.3075 0.8225,9.03375 C0.7025,9.1875 0.49625,9.24875 0.31125,9.185 C0.125,9.12 0,8.945 0,8.74875 L0,8.74875 L0,8.675 C0,6.3425 0.91125,4.1575 2.565,2.52375 C4.2125,0.89625 6.40875,0 8.74875,0 Z"></path>
                    </g>
                </g>
            </g>
        </g>
    </g>
</svg>