<?xml version="1.0" encoding="UTF-8"?>
<svg width="20px" height="20px" viewBox="0 0 20 20" version="1.1" xmlns="http://www.w3.org/2000/svg" xmlns:xlink="http://www.w3.org/1999/xlink">
    <title>icon_Auction</title>
    <g id="icon_Auction" stroke="none" stroke-width="1" fill="none" fill-rule="evenodd">
        <g id="编组">
            <polygon id="Fill-1" points="0 19.9996435 20 19.9996435 20 0.000893463458 0 0.000893463458"></polygon>
            <g transform="translate(0.115000, 0.000000)" fill="#9A9EA9" id="Fill-2">
                <path d="M6.86375,20.0000185 L0.66375,20.0000185 C0.2975,20.0000185 0,19.7025185 0,19.3362685 C0,18.9700185 0.2975,18.6725185 0.66375,18.6725185 L6.86375,18.6725185 C7.23,18.6725185 7.5275,18.9700185 7.5275,19.3362685 C7.5275,19.7025185 7.23,20.0000185 6.86375,20.0000185 M7.87875,14.3437685 C7.7525,14.4687685 7.58,14.5387685 7.40125,14.5362685 C7.225,14.5375185 7.055,14.4675185 6.93,14.3437685 L2.4025,9.82251846 C2.13875,9.56876846 2.13125,9.14751846 2.385,8.88376846 C2.515,8.75001846 2.695,8.67501846 2.88,8.68126846 C3.0575,8.68001846 3.22625,8.74876846 3.3525,8.87376846 L7.87875,13.3950185 C8.14125,13.6512685 8.14625,14.0712685 7.89,14.3337685 C7.88625,14.3375185 7.8825,14.3400185 7.87875,14.3437685 M9.7525,1.52501846 C9.87875,1.39876846 10.05125,1.32876846 10.23,1.33126846 C10.40625,1.33126846 10.57625,1.40001846 10.70125,1.52501846 L15.2225,6.04626846 C15.35,6.17126846 15.4225,6.34376846 15.4212659,6.52376846 C15.42,6.70001846 15.34875,6.87001846 15.2225,6.99501846 C14.96375,7.25501846 14.54375,7.25751846 14.28375,6.99876846 C14.2825,6.99751846 14.28,6.99626846 14.27875,6.99501846 L9.7525,2.44751846 C9.5025,2.19001846 9.5025,1.78251846 9.7525,1.52501846 M18.9925,15.0150185 L13.0175,9.03876846 L13.72875,8.32876846 C13.74375,8.30751846 13.7575,8.28626846 13.7675,8.26251846 C14.70875,8.83126846 15.93375,8.53126846 16.5025,7.59001846 C16.99125,6.78376846 16.84625,5.74626846 16.1575,5.10251846 L11.64375,0.588768463 C10.86875,-0.191231537 9.6075,-0.197481537 8.8275,0.577518463 C8.82375,0.581268463 8.81875,0.585018463 8.81625,0.588768463 C8.205,1.20376846 8.0625,2.14376846 8.46375,2.91251846 C8.43,2.92876846 8.4,2.94751846 8.37125,2.97251846 L3.85,7.49251846 C3.8275,7.52001846 3.8075,7.54876846 3.79,7.57876846 C2.815,7.07001846 1.6125,7.44876846 1.10375,8.42376846 C0.7,9.19751846 0.8475,10.1437685 1.4675,10.7587685 L5.9875,15.2862685 C6.755,16.0737685 8.015,16.0925185 8.80375,15.3250185 C9.4675,14.6800185 9.59875,13.6625185 9.12125,12.8700185 L9.1875,12.8300185 L9.6725,12.3450185 L15.64625,18.3200185 C16.11,18.7900185 16.7275,19.0775185 17.38625,19.1300233 L17.565,19.1300233 C18.16,19.1312685 18.73,18.8912685 19.145,18.4650185 C20.035,17.4637685 19.96625,15.9350185 18.9925,15.0150185"></path>
            </g>
        </g>
    </g>
</svg>