<svg width="1em" height="1em" viewBox="0 0 18 18" fill="none" xmlns="http://www.w3.org/2000/svg">
<path d="M10.6049 5.75706L6.28066 8.88596C6.20332 8.94221 6.20332 9.05647 6.28066 9.11272L10.6049 12.2416C10.698 12.3084 10.8281 12.2416 10.8281 12.1274V11.303C10.8281 11.1237 10.742 10.9532 10.5961 10.8477L8.04023 9.00022L10.5961 7.151C10.742 7.04554 10.8281 6.87679 10.8281 6.69573V5.87132C10.8281 5.75706 10.698 5.69026 10.6049 5.75706Z" fill="currentColor"/>
<path fill-rule="evenodd" clip-rule="evenodd" d="M1.125 9C1.125 4.65117 4.65117 1.125 9 1.125C13.3488 1.125 16.875 4.65117 16.875 9C16.875 13.3488 13.3488 16.875 9 16.875C4.65117 16.875 1.125 13.3488 1.125 9ZM2.46094 9C2.46094 12.6105 5.38945 15.5391 9 15.5391C12.6105 15.5391 15.5391 12.6105 15.5391 9C15.5391 5.38945 12.6105 2.46094 9 2.46094C5.38945 2.46094 2.46094 5.38945 2.46094 9Z" fill="currentColor"/>
</svg>
