<svg width="36" height="30" viewBox="0 0 36 30" fill="none" xmlns="http://www.w3.org/2000/svg">
<path fill-rule="evenodd" clip-rule="evenodd" d="M31.8727 4.55324H26.3438L25.0266 0.861863C24.8396 0.345558 24.3517 0 23.7988 0H11.3262C10.7774 0 10.2854 0.345558 10.1025 0.861863L8.78125 4.55324H3.25231C1.45541 4.55324 0 6.00865 0 7.80556V26.3438C0 28.1407 1.45541 29.5961 3.25231 29.5961H31.8727C33.6696 29.5961 35.125 28.1407 35.125 26.3438V7.80556C35.125 6.00865 33.6696 4.55324 31.8727 4.55324ZM17.5625 23.0914C13.9687 23.0914 11.0579 20.1806 11.0579 16.5868C11.0579 12.993 13.9687 10.0822 17.5625 10.0822C21.1563 10.0822 24.0671 12.993 24.0671 16.5868C24.0671 20.1806 21.1563 23.0914 17.5625 23.0914ZM17.5625 20.4896C15.4071 20.4896 13.6597 18.7423 13.6597 16.5868C13.6597 14.4314 15.4071 12.684 17.5625 12.684C19.7179 12.684 21.4653 14.4314 21.4653 16.5868C21.4653 18.7423 19.7179 20.4896 17.5625 20.4896Z" fill="#838791"/>
</svg>
