<svg width="14" height="14" viewBox="0 0 14 14" fill="none" xmlns="http://www.w3.org/2000/svg">
<path fill-rule="evenodd" clip-rule="evenodd" d="M11.3229 2.66738C11.8862 3.2334 12.3291 3.89238 12.6367 4.62656C12.9539 5.38672 13.1153 6.19473 13.1125 7.02734C13.1084 7.85586 12.9444 8.6584 12.6231 9.41309C12.3127 10.1418 11.8698 10.7953 11.3065 11.3545C10.7446 11.9137 10.0883 12.3512 9.35823 12.6561C8.61175 12.9664 7.82015 13.125 7.00257 13.125H6.97386C6.0264 13.1209 5.08714 12.8939 4.24632 12.4688H2.17093C1.82503 12.4688 1.54339 12.1871 1.54339 11.8398V9.76172C1.11956 8.91953 0.892607 7.97754 0.888505 7.02871C0.884404 6.2002 1.043 5.39492 1.35608 4.6375C1.6596 3.90605 2.0971 3.2498 2.65491 2.68516C3.21272 2.12051 3.86487 1.67754 4.59222 1.36582C5.34554 1.04316 6.14534 0.879102 6.97249 0.875H6.99983C7.82151 0.875 8.61722 1.03496 9.3678 1.35078C10.102 1.6584 10.7596 2.10273 11.3229 2.66738ZM3.61611 7C3.61611 7.3623 3.91006 7.65625 4.271 7.65625C4.6333 7.65625 4.92588 7.3623 4.92588 7C4.92588 6.6377 4.63194 6.34375 4.271 6.34375C3.91006 6.34375 3.61611 6.6377 3.61611 7ZM6.99987 7.65625C6.63893 7.65625 6.34498 7.3623 6.34498 7C6.34498 6.6377 6.63893 6.34375 6.99987 6.34375C7.3608 6.34375 7.65475 6.6377 7.65475 7C7.65475 7.3623 7.3608 7.65625 6.99987 7.65625ZM9.07385 7C9.07385 7.3623 9.3678 7.65625 9.72873 7.65625C10.0897 7.65625 10.3836 7.3623 10.3836 7C10.3836 6.6377 10.0897 6.34375 9.72873 6.34375C9.3678 6.34375 9.07385 6.6377 9.07385 7Z" fill="#E7E8EC"/>
</svg>
