<svg width="14" height="14" viewBox="0 0 14 14" fill="none" xmlns="http://www.w3.org/2000/svg">
<path fill-rule="evenodd" clip-rule="evenodd" d="M0 7C0 3.13437 3.13437 0 7 0C10.8656 0 14 3.13437 14 7C14 10.8656 10.8656 14 7 14C3.13437 14 0 10.8656 0 7ZM6.73301 9.27656L10.0236 4.71406C10.083 4.63125 10.0236 4.51562 9.92207 4.51562H9.18926C9.02832 4.51562 8.87832 4.59375 8.78457 4.72344L6.32832 8.12969L5.21582 6.58594C5.12207 6.45469 4.97051 6.37813 4.81114 6.37813H4.07832C3.97676 6.37813 3.91739 6.49375 3.97676 6.57656L5.9252 9.27656C6.12364 9.55313 6.53457 9.55313 6.73301 9.27656Z" fill="$primary-color"/>
</svg>
