<svg width="15" height="14" viewBox="0 0 15 14" fill="none" xmlns="http://www.w3.org/2000/svg">
<path d="M14.0999 14L11.3532 13.9875L7.21641 9.05589L3.08383 13.9834L0.332937 13.9958C0.149822 13.9958 0 13.8502 0 13.6629C0 13.5838 0.029132 13.5089 0.0790725 13.4465L5.49346 6.99584L0.0790725 0.549346C0.029132 0.48692 0 0.41201 0 0.332937C0 0.149822 0.149822 0 0.332937 0L3.08383 0.0124851L7.21641 4.94411L11.349 0.0166468L14.0957 0.00416171C14.2788 0.00416171 14.4287 0.149822 14.4287 0.337099C14.4287 0.416171 14.3995 0.491082 14.3496 0.553508L8.94352 7L14.3537 13.4507C14.4037 13.5131 14.4328 13.588 14.4328 13.6671C14.4328 13.8502 14.283 14 14.0999 14Z" fill="black"/>
</svg>
