<svg width="14" height="16" viewBox="0 0 14 16" fill="none" xmlns="http://www.w3.org/2000/svg">
<rect opacity="0.01" x="-2" width="16" height="16" fill="black"/>
<path fill-rule="evenodd" clip-rule="evenodd" d="M1 1H11C11.2766 1 11.5 1.22344 11.5 1.5V5H0.5V1.5C0.5 1.22344 0.723438 1 1 1ZM1.875 3C1.875 3.34531 2.15469 3.625 2.5 3.625C2.84531 3.625 3.125 3.34531 3.125 3C3.125 2.65469 2.84531 2.375 2.5 2.375C2.15469 2.375 1.875 2.65469 1.875 3ZM0.5 14.5C0.5 14.7766 0.723438 15 1 15H11C11.2766 15 11.5 14.7766 11.5 14.5V11H0.5V14.5ZM3.125 13C3.125 12.6547 2.84531 12.375 2.5 12.375C2.15469 12.375 1.875 12.6547 1.875 13C1.875 13.3453 2.15469 13.625 2.5 13.625C2.84531 13.625 3.125 13.3453 3.125 13ZM0.5 10H11.5V6H0.5V10ZM3.125 8C3.125 7.65469 2.84531 7.375 2.5 7.375C2.15469 7.375 1.875 7.65469 1.875 8C1.875 8.34531 2.15469 8.625 2.5 8.625C2.84531 8.625 3.125 8.34531 3.125 8Z" fill="#E7E8EC"/>
</svg>
