<svg width="12" height="14" viewBox="0 0 12 14" fill="none" xmlns="http://www.w3.org/2000/svg">
<path id="&#232;&#146;&#153;&#231;&#137;&#136;" fill-rule="evenodd" clip-rule="evenodd" d="M4.40457 2.73729H7.59548V1.99274C7.59548 1.78002 7.48911 1.67365 7.27639 1.67365H4.72366C4.51093 1.67365 4.40457 1.78002 4.40457 1.99274V2.73729ZM8.65912 2.73729H11.3182C11.6373 2.73729 11.85 2.95002 11.85 3.26911C11.85 3.5882 11.6373 3.80092 11.3182 3.80092H0.681843C0.362752 3.80092 0.150024 3.5882 0.150024 3.26911C0.150024 2.95002 0.362752 2.73729 0.681843 2.73729H3.34093V1.99274C3.34093 1.2482 3.97912 0.610016 4.72366 0.610016H7.27639C8.02093 0.610016 8.65912 1.2482 8.65912 1.99274V2.73729ZM9.72275 5.39638C9.72275 5.07729 9.93548 4.86456 10.2546 4.86456C10.5737 4.86456 10.7864 5.07729 10.68 5.39638V11.6718C10.68 12.6291 9.93548 13.3737 8.97821 13.3737H2.91548C1.95821 13.3737 1.21366 12.6291 1.21366 11.6718V5.39638C1.21366 5.07729 1.42639 4.86456 1.74548 4.86456C2.06457 4.86456 2.2773 5.07729 2.2773 5.39638V11.6718C2.2773 11.9909 2.49002 12.31 2.91548 12.31H9.08457C9.40366 12.31 9.72275 12.0973 9.72275 11.6718V5.39638ZM5.14912 5.39638V10.7146C5.14912 11.0337 4.93639 11.2464 4.6173 11.2464C4.29821 11.2464 4.08548 11.0337 4.08548 10.7146V5.39638C4.08548 5.07729 4.51093 4.86456 4.72366 4.86456C4.93639 4.86456 5.14912 5.07729 5.14912 5.39638ZM7.91457 10.7146V5.39638C7.91457 5.07729 7.59548 4.86456 7.27639 4.86456C6.9573 4.86456 6.85093 5.07729 6.85093 5.39638V10.7146C6.85093 11.0337 7.06366 11.2464 7.27639 11.2464C7.48912 11.2464 7.91457 11.0337 7.91457 10.7146Z" fill="#838791"/>
</svg>
