<svg width="13" height="13" viewBox="0 0 13 13" fill="none" xmlns="http://www.w3.org/2000/svg">
<path fill-rule="evenodd" clip-rule="evenodd" d="M1.63538 12.21C1.60022 12.2152 1.56507 12.2188 1.52991 12.2188C1.37347 12.2188 1.22757 12.1572 1.11155 12.0447C0.972685 11.9059 0.91292 11.716 0.946318 11.5209L1.46487 8.56426C1.4719 8.5291 1.48772 8.49746 1.51409 8.47109L8.96546 1.01973C8.99886 0.986328 9.0428 0.96875 9.09026 0.96875C9.13772 0.96875 9.18167 0.986328 9.21507 1.01973L12.1366 3.94297C12.2051 4.01152 12.2051 4.12227 12.1366 4.19082L4.68519 11.6422C4.66058 11.6686 4.62718 11.6844 4.59202 11.6914L1.63538 12.21ZM9.09026 2.7793L2.71468 9.15312L2.44046 10.7176L4.00315 10.4416L10.3787 4.06777L9.09026 2.7793Z" fill="#E7E8EC"/>
</svg>
