<svg width="16" height="16" viewBox="0 0 16 16" fill="none" xmlns="http://www.w3.org/2000/svg">
<path fill-rule="evenodd" clip-rule="evenodd" d="M8.00001 0.0959473C10.1771 0.0959473 12.0388 0.869142 13.5852 2.41553C15.1316 3.96192 15.9048 5.82366 15.9048 8.00074C15.9048 10.1778 15.1316 12.0396 13.5852 13.5859C12.0388 15.1323 10.1771 15.9055 8.00001 15.9055C5.82292 15.9055 3.96119 15.1323 2.4148 13.5859C0.868409 12.0396 0.0952148 10.1778 0.0952148 8.00074C0.0952148 5.82366 0.868409 3.96192 2.4148 2.41553C3.96119 0.869142 5.82292 0.0959473 8.00001 0.0959473ZM9.74405 9.74399L12.75 3.24995L6.25596 6.25591L3.25001 12.7499L9.74405 9.74399ZM8.61197 7.38799C8.45152 7.22702 8.24753 7.14653 8.00001 7.14653C7.75248 7.14653 7.54849 7.22702 7.38805 7.38799C7.2276 7.54896 7.14712 7.75295 7.14659 7.99995C7.14606 8.24695 7.22655 8.45093 7.38805 8.61191C7.54955 8.77288 7.75353 8.85336 8.00001 8.85336C8.24648 8.85336 8.45047 8.77288 8.61197 8.61191C8.77347 8.45093 8.85395 8.24695 8.85342 7.99995C8.8529 7.75295 8.77241 7.54896 8.61197 7.38799Z" fill="white"/>
</svg>
