<?xml version="1.0" encoding="UTF-8"?>
<svg width="18px" height="18px" viewBox="0 0 18 18" version="1.1" xmlns="http://www.w3.org/2000/svg" xmlns:xlink="http://www.w3.org/1999/xlink">
    <title>earth</title>
    <g id="list" stroke="none" stroke-width="1" fill="none" fill-rule="evenodd">
        <g id="white-list2" transform="translate(-1367.000000, -102.000000)" fill="#999999" fill-rule="nonzero">
            <g id="earth" transform="translate(1367.000000, 102.000000)">
                <rect id="矩形" opacity="0" x="0" y="0" width="18" height="18"></rect>
                <path d="M15.01875,14.0783203 C15.0222656,14.0730469 15.0275391,14.0677734 15.0310547,14.0625 C16.1824219,12.6931641 16.875,10.9283203 16.875,9 C16.875,7.07167969 16.1824219,5.30683594 15.0328125,3.9375 C15.0292969,3.93222656 15.0240234,3.92871094 15.0205078,3.9234375 C15.0011719,3.90058594 14.9835937,3.87949219 14.9642578,3.85839844 C14.9572266,3.84960938 14.9501953,3.84257812 14.9431641,3.83378906 C14.9185547,3.80566406 14.8957031,3.77929688 14.8710937,3.75117187 L14.8693359,3.74941406 C14.8429687,3.71953125 14.8148437,3.68964844 14.7884766,3.65976563 L14.7867187,3.65800781 C14.7304687,3.59824219 14.6742187,3.53847656 14.6162109,3.48046875 L14.6144531,3.47871094 L14.5300781,3.39433594 L14.5248047,3.3890625 C14.4984375,3.36269531 14.4720703,3.33808594 14.4457031,3.31347656 C14.4369141,3.3046875 14.428125,3.29589844 14.4175781,3.28710938 C14.4,3.26953125 14.3824219,3.25371094 14.3648437,3.23789062 C14.3595703,3.23261719 14.3525391,3.22734375 14.3472656,3.2203125 C12.9445312,1.91953125 11.0654297,1.125 9,1.125 C6.93457031,1.125 5.05546875,1.91953125 3.65097656,3.2203125 C3.64570312,3.22558594 3.63867188,3.23085937 3.63339844,3.23789062 C3.61582031,3.25371094 3.59824219,3.27128906 3.58066406,3.28886719 C3.571875,3.29765625 3.56308594,3.30644531 3.55253906,3.31523437 C3.52617187,3.33984375 3.49980469,3.36621094 3.4734375,3.39082031 L3.46816406,3.39609375 L3.38378906,3.48046875 L3.38203125,3.48222656 C3.32402344,3.54023438 3.26777344,3.6 3.21152344,3.65976563 L3.20976563,3.66152344 C3.18164062,3.69140625 3.15527344,3.72128906 3.12890625,3.75117187 L3.12714844,3.75292969 C3.10253906,3.77929688 3.07792969,3.80742187 3.05507813,3.83554687 C3.04804688,3.84433594 3.04101562,3.85136719 3.03398438,3.86015625 C3.01464844,3.88125 2.99707031,3.90410156 2.97773438,3.92519531 C2.97421875,3.93046875 2.96894531,3.93398437 2.96542969,3.93925781 C1.81757813,5.30683594 1.125,7.07167969 1.125,9 C1.125,10.9283203 1.81757813,12.6931641 2.9671875,14.0625 C2.97070312,14.0677734 2.97597656,14.0730469 2.97949219,14.0783203 C2.99707031,14.0994141 3.01640625,14.1222656 3.03398438,14.1433594 C3.04101562,14.1521484 3.04804688,14.1591797 3.05507812,14.1679688 C3.0796875,14.1960937 3.10253906,14.2224609 3.12714844,14.2505859 C3.12714844,14.2523438 3.12890625,14.2523438 3.12890625,14.2541016 C3.15527344,14.2839844 3.18164062,14.3138672 3.20976562,14.3419922 L3.21152344,14.34375 C3.26777344,14.4035156 3.32402344,14.4632812 3.38027344,14.5212891 L3.38203125,14.5230469 C3.41015625,14.5511719 3.43652344,14.5792969 3.46464844,14.6056641 L3.46992187,14.6109375 C3.52792969,14.6689453 3.58769531,14.7251953 3.64746094,14.7796875 C5.05546875,16.0804688 6.93457031,16.875 9,16.875 C11.0654297,16.875 12.9445312,16.0804688 14.3490234,14.7796875 C14.4087891,14.7251953 14.4667969,14.6689453 14.5248047,14.6109375 L14.5300781,14.6056641 C14.5582031,14.5775391 14.5863281,14.5511719 14.6126953,14.5230469 L14.6144531,14.5212891 C14.6724609,14.4632813 14.7287109,14.4035156 14.7832031,14.34375 L14.7849609,14.3419922 C14.8113281,14.3121094 14.8394531,14.2839844 14.8658203,14.2541016 C14.8658203,14.2523438 14.8675781,14.2523438 14.8675781,14.2505859 C14.8921875,14.2242188 14.9167969,14.1960937 14.9396484,14.1679688 C14.9466797,14.1591797 14.9537109,14.1521484 14.9607422,14.1433594 C14.9818359,14.1205078 15.0011719,14.0994141 15.01875,14.0783203 Z M15.0908203,11.5716797 C14.8482422,12.1447266 14.5283203,12.6755859 14.1380859,13.1572266 C13.7003906,12.7792969 13.2205078,12.4488281 12.7054687,12.1746094 C12.909375,11.3501953 13.0359375,10.4449219 13.0693359,9.4921875 L15.5917969,9.4921875 C15.5390625,10.2111328 15.3703125,10.9089844 15.0908203,11.5716797 Z M15.5917969,8.5078125 L13.0693359,8.5078125 C13.0359375,7.55507812 12.909375,6.64980469 12.7054687,5.82539062 C13.2205078,5.55117187 13.7003906,5.22070312 14.1380859,4.84277344 C14.5283203,5.32441406 14.8482422,5.85527344 15.0908203,6.42832031 C15.3703125,7.09101562 15.5390625,7.78886719 15.5917969,8.5078125 Z M11.5716797,2.90917969 C12.2695312,3.20449219 12.9041016,3.61230469 13.4630859,4.12558594 C13.1378906,4.40332031 12.7880859,4.64765625 12.4189453,4.86035156 C12.1429687,4.06933594 11.7896484,3.38203125 11.3783203,2.83183594 C11.4433594,2.85644531 11.5083984,2.8828125 11.5716797,2.90917969 Z M9.97910156,15.2244141 C9.81738281,15.3509766 9.65566406,15.4476563 9.4921875,15.5126953 L9.4921875,12.2519531 C10.1935547,12.3011719 10.8738281,12.4558594 11.5259766,12.7125 C11.3800781,13.1449219 11.2113281,13.5439453 11.0162109,13.9042969 C10.7103516,14.4738281 10.3517578,14.9291016 9.97910156,15.2244141 Z M11.0162109,4.09570312 C11.2095703,4.4578125 11.3800781,4.85683594 11.5259766,5.2875 C10.8738281,5.54414063 10.1935547,5.69882813 9.4921875,5.74804688 L9.4921875,2.4890625 C9.65390625,2.55410156 9.81738281,2.64902344 9.97910156,2.77734375 C10.3517578,3.07089844 10.7103516,3.52617187 11.0162109,4.09570312 Z M9.4921875,11.2658203 L9.4921875,9.4921875 L12.0849609,9.4921875 C12.0568359,10.2691406 11.9601563,11.0232422 11.7984375,11.7386719 L11.7931641,11.7597656 C11.0707031,11.4855469 10.2972656,11.3150391 9.4921875,11.2658203 L9.4921875,11.2658203 Z M9.4921875,8.5078125 L9.4921875,6.73417969 C10.2972656,6.68496094 11.0707031,6.51445313 11.7931641,6.24023438 L11.7984375,6.26132812 C11.9601563,6.97675781 12.0568359,7.72910156 12.0849609,8.5078125 L9.4921875,8.5078125 Z M8.5078125,9.4921875 L8.5078125,11.2658203 C7.70273437,11.3150391 6.92929688,11.4855469 6.20683594,11.7597656 L6.2015625,11.7386719 C6.03984375,11.0232422 5.94316406,10.2708984 5.91503906,9.4921875 L8.5078125,9.4921875 Z M5.91503906,8.5078125 C5.94316406,7.73085938 6.03984375,6.97675781 6.2015625,6.26132812 L6.20683594,6.24023438 C6.92929688,6.51445313 7.70097656,6.68496094 8.5078125,6.73417969 L8.5078125,8.5078125 L5.91503906,8.5078125 Z M8.5078125,12.2519531 L8.5078125,15.5109375 C8.34609375,15.4458984 8.18261719,15.3509766 8.02089844,15.2226562 C7.64824219,14.9291016 7.28789062,14.4720703 6.98203125,13.9025391 C6.78867187,13.5404297 6.61816406,13.1414063 6.47226562,12.7107422 C7.12617187,12.4541016 7.80644531,12.3011719 8.5078125,12.2519531 Z M8.5078125,5.74804688 C7.80644531,5.69882812 7.12617187,5.54414062 6.47402344,5.2875 C6.61992188,4.85507813 6.78867187,4.45605469 6.98378906,4.09570312 C7.28964844,3.52617188 7.64824219,3.06914062 8.02265625,2.77558594 C8.184375,2.64902344 8.34609375,2.55234375 8.50957031,2.48730469 L8.50957031,5.74804688 L8.5078125,5.74804688 Z M6.42832031,2.90917969 C6.49335937,2.8828125 6.55664062,2.85644531 6.62167969,2.83183594 C6.21035156,3.38203125 5.85703125,4.06933594 5.58105469,4.86035156 C5.21191406,4.64941406 4.86210938,4.40332031 4.53691406,4.12558594 C5.09589844,3.61230469 5.73046875,3.20449219 6.42832031,2.90917969 L6.42832031,2.90917969 Z M2.90917969,6.42832031 C3.15175781,5.85527344 3.47167969,5.32441406 3.86191406,4.84277344 C4.29960937,5.22070312 4.77949219,5.55117188 5.29453125,5.82539062 C5.090625,6.64980469 4.9640625,7.55507812 4.93066406,8.5078125 L2.40820312,8.5078125 C2.4609375,7.78886719 2.6296875,7.09101562 2.90917969,6.42832031 Z M2.40820312,9.4921875 L4.93066406,9.4921875 C4.9640625,10.4449219 5.090625,11.3501953 5.29453125,12.1746094 C4.77949219,12.4488281 4.29960937,12.7792969 3.86191406,13.1572266 C3.47167969,12.6755859 3.15175781,12.1447266 2.90917969,11.5716797 C2.6296875,10.9089844 2.4609375,10.2111328 2.40820312,9.4921875 Z M6.42832031,15.0908203 C5.73046875,14.7955078 5.09589844,14.3876953 4.53691406,13.8744141 C4.86210938,13.5966797 5.21191406,13.3523437 5.58105469,13.1396484 C5.85703125,13.9306641 6.21035156,14.6179687 6.62167969,15.1681641 C6.55664062,15.1435547 6.49160156,15.1171875 6.42832031,15.0908203 Z M11.5716797,15.0908203 C11.5066406,15.1171875 11.4433594,15.1435547 11.3783203,15.1681641 C11.7896484,14.6179687 12.1429687,13.9306641 12.4189453,13.1396484 C12.7880859,13.3505859 13.1378906,13.5966797 13.4630859,13.8744141 C12.9041016,14.3876953 12.2695312,14.7955078 11.5716797,15.0908203 Z" id="形状"></path>
            </g>
        </g>
    </g>
</svg>