<?xml version="1.0" encoding="UTF-8"?>
<svg width="18px" height="18px" viewBox="0 0 18 18" version="1.1" xmlns="http://www.w3.org/2000/svg" xmlns:xlink="http://www.w3.org/1999/xlink">
    <title>btn-home1</title>
    <g id="页面-1" stroke="none" stroke-width="1" fill="none" fill-rule="evenodd">
        <g id="cl-01备份-16" transform="translate(-154.000000, -29.000000)" fill="#4B9F87" fill-rule="nonzero">
            <g id="btn-home1" transform="translate(154.000000, 29.818182)">
                <path d="M17.0245739,8.07267401 L9.1259233,0.179776278 C8.88622159,-0.0599254261 8.49886364,-0.0599254261 8.25916193,0.179776278 L0.360511364,8.07267401 C0.130397727,8.30278764 0,8.61535866 0,8.94135298 C0,9.6182706 0.550355114,10.1686257 1.22727273,10.1686257 L2.05951705,10.1686257 L2.05951705,15.800657 C2.05951705,16.1400746 2.3337358,16.4142933 2.67315341,16.4142933 L7.46526989,16.4142933 L7.46526989,12.1188388 L9.61299716,12.1188388 L9.61299716,16.4142933 L14.7119318,16.4142933 C15.0513494,16.4142933 15.3255682,16.1400746 15.3255682,15.800657 L15.3255682,10.1686257 L16.1578125,10.1686257 C16.4838068,10.1686257 16.7963778,10.0401456 17.0264915,9.80811435 C17.5039773,9.32871094 17.5039773,8.55207741 17.0245739,8.07267401 L17.0245739,8.07267401 Z" id="路径"></path>
            </g>
        </g>
    </g>
</svg>