<svg width="28" height="28" viewBox="0 0 28 28" fill="none" xmlns="http://www.w3.org/2000/svg">
<path fill-rule="evenodd" clip-rule="evenodd" d="M18.1271 22.6578C18.9929 22.8237 19.8853 22.5676 20.5379 21.9659C22.4295 20.2205 23.681 17.7597 23.8875 15.0571H24.0926C24.002 13.3892 23.5941 11.2532 22.6001 9.20891C21.5787 7.10839 19.2444 5.05684 17.6643 4.24327C17.3044 4.72035 16.9575 5.46269 16.9575 6.17627V12.0273C16.9543 12.7947 17.2415 13.5341 17.7597 14.0924C18.035 14.389 18.198 14.7752 18.22 15.1824V15.1836C18.3469 17.5777 15.9288 17.1895 16.0557 15.5718C16.1443 14.4536 15.4108 13.7993 14.6464 13.1173C14.3049 12.8128 13.9573 12.5027 13.6741 12.1433C13.3508 11.7332 12.7927 11.3696 12.203 10.9853C11.1188 10.2789 9.92789 9.50282 9.89327 8.24078C9.80947 5.18753 7.18552 6.02013 6.17201 7.19032C6.07788 7.29895 5.8113 7.63347 5.55503 7.97169C5.33542 8.26062 5.24576 8.63022 5.30806 8.98979C5.37036 9.34936 5.57884 9.66561 5.88234 9.86092C5.9839 9.92647 6.0652 9.97317 6.1398 10.016C6.38548 10.1572 6.55856 10.2566 7.14362 10.8503C7.68594 11.4008 7.6738 11.8473 7.65546 12.5218C7.64152 13.0347 7.624 13.6793 7.84378 14.6016C7.97801 15.1645 8.04143 15.7546 8.10061 16.3053C8.2658 17.8424 8.398 19.0726 9.94489 18.5491C12.0454 17.8369 14.0809 18.8719 12.7443 20.3606C11.882 21.3203 15.9689 22.2449 18.1271 22.6578ZM19.3424 2.68432C21.0937 3.47429 22.5145 4.77132 24.8074 8.20891C25.991 10.643 26.5069 13.0665 26.6001 15.2107H26.316C25.8358 21.8236 20.3502 27.125 13.6747 27.125C6.68514 27.125 1 21.3284 1 14.2245C1 7.11935 6.68514 1.3307 13.6753 1.33008C15.7112 1.33008 17.6363 1.83103 19.3424 2.68432Z" fill="#838791"/>
</svg>
