<svg width="14" height="14" viewBox="0 0 14 14" fill="none" xmlns="http://www.w3.org/2000/svg">
    <path
        d="M13.0394 2.945e-06C13.3116 2.9212e-06 13.5399 0.0920573 13.7243 0.276167C13.9087 0.460277 14.0006 0.687857 14 0.958906L14 8.63014C14 8.90183 13.9078 9.12973 13.7234 9.31384C13.5389 9.49795 13.311 9.58968 13.0394 9.58904C12.7673 9.58904 12.539 9.49699 12.3546 9.31288C12.1702 9.12877 12.0783 8.90119 12.0789 8.63014L12.0789 3.26028L1.58491 13.7363C1.40881 13.9121 1.19268 14 0.936535 14C0.680389 14 0.456262 13.9041 0.264153 13.7123C0.0880518 13.5365 -6.00782e-08 13.3128 -8.383e-08 13.0411C-1.07582e-07 12.7694 0.0880517 12.5457 0.264152 12.3699L10.7341 1.91781L5.35506 1.91781C5.0829 1.91781 4.85461 1.82576 4.67019 1.64165C4.48576 1.45754 4.39387 1.22996 4.39451 0.958907C4.39451 0.687218 4.48672 0.459319 4.67115 0.275209C4.85557 0.0910996 5.08354 -0.000636275 5.35506 3.61679e-06L13.0394 2.945e-06Z"
        fill="#BABBBE" />
</svg>