<?xml version="1.0" encoding="UTF-8"?>
<svg width="18px" height="18px" viewBox="0 0 18 18" version="1.1" xmlns="http://www.w3.org/2000/svg" xmlns:xlink="http://www.w3.org/1999/xlink">
    <title>user-follow-line</title>
    <g id="list" stroke="none" stroke-width="1" fill="none" fill-rule="evenodd">
        <g id="private-state" transform="translate(-1242.000000, -564.000000)" fill-rule="nonzero">
            <g id="编组-33备份" transform="translate(962.000000, 323.000000)">
                <g id="编组-17" transform="translate(264.000000, 225.000000)">
                    <g id="user-follow-line" transform="translate(16.000000, 16.000000)">
                        <rect id="矩形" fill="#000000" opacity="0" x="0" y="0" width="18" height="18"></rect>
                        <path d="M10.4999998,10.689 L10.4999998,12.2565 C9.12254817,11.7694972 7.59440067,11.9815267 6.40157293,12.8251541 C5.20874519,13.6687815 4.499721,15.0389917 4.49999981,16.5 L2.99999981,16.49925 C2.99952826,14.6432562 3.85801491,12.8915213 5.32516248,11.7547754 C6.79231006,10.6180295 8.70294164,10.2242515 10.4999998,10.68825 L10.4999998,10.689 Z M9,9.75000001 C6.51375,9.75000001 4.5,7.73625001 4.5,5.25000001 C4.5,2.76375001 6.51375,0.750000006 9,0.750000006 C11.48625,0.750000006 13.5,2.76375001 13.5,5.25000001 C13.5,7.73625001 11.48625,9.75000001 9,9.75000001 Z M8.99999999,8.25 C10.6575,8.25 12,6.9075 12,5.25 C12,3.59250001 10.6575,2.25 8.99999999,2.25 C7.34249999,2.25 5.99999999,3.59249999 5.99999999,5.25 C5.99999999,6.90750002 7.34249999,8.25 8.99999999,8.25 L8.99999999,8.25 Z M13.34475,14.9355 L15.996,12.28425 L17.05725,13.34475 L13.34475,17.05725 L10.69275,14.40525 L11.754,13.34475 L13.344,14.9355 L13.34475,14.9355 Z" id="形状" fill="#FC774B"></path>
                    </g>
                </g>
            </g>
        </g>
    </g>
</svg>