<svg width="28" height="28" viewBox="0 0 28 28" fill="none" xmlns="http://www.w3.org/2000/svg">
<path fill-rule="evenodd" clip-rule="evenodd" d="M26.8735 4.99309H25.8606V2.95635C25.8606 1.33746 24.6012 0 23.0084 0H22.7035C21.1107 0 19.8391 1.33746 19.8391 2.95635V4.99309H18.9057C18.2839 4.99309 17.7799 5.50536 17.7799 6.13736V11.9803C17.7799 12.6129 18.2839 13.1258 18.9057 13.1258H26.8735C27.1724 13.1258 27.459 13.0051 27.6703 12.7903C27.8816 12.5754 28.0002 12.2841 28 11.9803V6.13736C28 5.50536 27.496 4.99309 26.8735 4.99309ZM19.5379 21.9659C18.8853 22.5676 17.9929 22.8236 17.1271 22.6578C14.9689 22.2449 10.882 21.3203 11.7443 20.3606C13.0809 18.8719 11.0454 17.8369 8.94489 18.5491C7.398 19.0726 7.2658 17.8424 7.10061 16.3053C7.04143 15.7546 6.97801 15.1645 6.84378 14.6015C6.624 13.6792 6.64152 13.0346 6.65546 12.5218C6.6738 11.8472 6.68594 11.4007 6.14362 10.8502C5.55856 10.2566 5.38548 10.1571 5.1398 10.016C5.0652 9.97314 4.9839 9.92644 4.88234 9.86088C4.57884 9.66558 4.37036 9.34933 4.30806 8.98976C4.24576 8.63019 4.33542 8.26059 4.55503 7.97166C4.8113 7.63344 5.07788 7.29892 5.17201 7.19029C6.18552 6.02009 8.80947 5.1875 8.89327 8.24075C8.92789 9.50279 10.1188 10.2788 11.203 10.9853C11.7927 11.3695 12.3508 11.7332 12.6741 12.1433C12.9573 12.5026 13.3049 12.8127 13.6464 13.1173C14.4108 13.7992 15.1443 14.4535 15.0557 15.5718C14.9288 17.1894 17.3469 17.5776 17.22 15.1836V15.1823C17.198 14.7751 17.035 14.389 16.7597 14.0924C16.2415 13.5341 15.9543 12.7947 15.9575 12.0272V6.17624C15.9575 5.30168 16.4785 4.38392 16.906 3.96423C17.2916 3.58589 18.1193 3.13842 18.8869 3.13842H19.1747C17.2734 2.01143 15.0496 1.33005 12.6753 1.33005C5.68514 1.33066 0 7.11932 0 14.2244C0 21.3283 5.68514 27.125 12.6747 27.125C19.4019 27.125 24.9206 21.7412 25.3262 15.057H22.8875C22.681 17.7597 21.4295 20.2205 19.5379 21.9659ZM21.6621 4.99309H24.0389V2.95635C24.0389 2.35953 23.5956 1.85158 23.0084 1.85158H22.7035C22.1175 1.85158 21.6621 2.35953 21.6621 2.95635V4.99309Z" fill="#838791"/>
</svg>
