<svg width="14" height="14" viewBox="0 0 14 14" fill="none" xmlns="http://www.w3.org/2000/svg">
    <path
        d="M0.960552 14C0.688396 14 0.460106 13.9079 0.275681 13.7238C0.0912556 13.5397 -0.000637042 13.3121 3.32369e-06 13.0411V5.36986C3.32369e-06 5.09817 0.0922161 4.87027 0.276641 4.68616C0.461067 4.50205 0.689037 4.41032 0.960552 4.41096C1.23271 4.41096 1.461 4.50301 1.64542 4.68712C1.82985 4.87123 1.92174 5.09881 1.9211 5.36986V10.7397L12.4151 0.263699C12.5912 0.0878996 12.8073 0 13.0635 0C13.3196 0 13.5437 0.0958901 13.7358 0.287671C13.9119 0.46347 14 0.687214 14 0.958904C14 1.23059 13.9119 1.45434 13.7358 1.63014L3.26587 12.0822H8.64494C8.9171 12.0822 9.14539 12.1742 9.32981 12.3584C9.51424 12.5425 9.60613 12.77 9.60549 13.0411C9.60549 13.3128 9.51328 13.5407 9.32885 13.7248C9.14443 13.9089 8.91646 14.0006 8.64494 14H0.960552Z"
        fill="#BABBBE" />
</svg>