<svg width="23" height="22" viewBox="0 0 23 22" fill="none" xmlns="http://www.w3.org/2000/svg">
    <path fill-rule="evenodd" clip-rule="evenodd"
        d="M11.9041 3.97227C10.3853 3.97227 9.1541 5.20348 9.1541 6.72227C9.1541 8.24105 10.3853 9.47227 11.9041 9.47227C13.4229 9.47227 14.6541 8.24105 14.6541 6.72227C14.6541 5.20348 13.4229 3.97227 11.9041 3.97227ZM7.5041 6.72227C7.5041 4.29221 9.47405 2.32227 11.9041 2.32227C14.3342 2.32227 16.3041 4.29221 16.3041 6.72227C16.3041 9.15232 14.3342 11.1223 11.9041 11.1223C9.47405 11.1223 7.5041 9.15232 7.5041 6.72227ZM4.2041 18.2875C4.2041 14.8703 6.97434 12.1 10.3916 12.1H12.7291C13.1847 12.1 13.5541 12.4694 13.5541 12.925C13.5541 13.3807 13.1847 13.75 12.7291 13.75H10.3916C7.88561 13.75 5.8541 15.7816 5.8541 18.2875C5.8541 18.8191 6.28503 19.25 6.8166 19.25H10.5291C10.9847 19.25 11.3541 19.6194 11.3541 20.075C11.3541 20.5307 10.9847 20.9 10.5291 20.9H6.8166C5.37376 20.9 4.2041 19.7304 4.2041 18.2875Z"
        fill="#FC774C" />
    <path
        d="M20.2819 14.9481C20.1681 14.6534 20.0052 14.39 19.7989 14.1636C19.5926 13.938 19.3532 13.7618 19.0858 13.6377C18.81 13.5097 18.518 13.4453 18.2166 13.4453C17.7981 13.4453 17.3898 13.5732 17.035 13.8149C16.9501 13.8727 16.8695 13.9361 16.7931 14.0053C16.7167 13.9361 16.636 13.8727 16.5511 13.8149C16.1963 13.5732 15.788 13.4453 15.3695 13.4453C15.0682 13.4453 14.7762 13.5097 14.5003 13.6377C14.2337 13.7608 13.9935 13.938 13.7872 14.1636C13.5801 14.39 13.418 14.6534 13.3042 14.9481C13.1862 15.2542 13.126 15.5792 13.126 15.9137C13.126 16.2292 13.1837 16.558 13.2983 16.8925C13.3942 17.172 13.5317 17.462 13.7074 17.7548C13.9859 18.2181 14.3687 18.7014 14.8441 19.1913C15.6318 20.0033 16.4119 20.5643 16.445 20.587L16.6462 20.731C16.7353 20.7945 16.8499 20.7945 16.9391 20.731L17.1402 20.587C17.1734 20.5633 17.9526 20.0033 18.7412 19.1913C19.2166 18.7014 19.5994 18.2181 19.8778 17.7548C20.0535 17.462 20.1919 17.172 20.287 16.8925C20.4016 16.558 20.4593 16.2292 20.4593 15.9137C20.4602 15.5792 20.3999 15.2542 20.2819 14.9481Z"
        fill="#FC774C" />
</svg>