<svg width="1em" height="1em" viewBox="0 0 19 20" fill="none" xmlns="http://www.w3.org/2000/svg">
    <path
        d="M7.2923 6.96033C9.54132 6.96033 11.8805 6.46567 13.2853 5.52253V7.23953H14.5868V3.48016C14.5868 1.22015 10.8296 0 7.29449 0C3.75937 0 0 1.22015 0 3.48016V13.7404C0 16.0004 3.75717 17.2205 7.2923 17.2205V15.9213C3.5791 15.9213 1.29929 14.6505 1.29929 13.7404V10.6559C2.70411 11.5969 5.04107 12.0937 7.2923 12.0937V10.7922C3.5791 10.7922 1.29929 9.52154 1.29929 8.61137V5.52473C2.70411 6.46567 5.04327 6.96033 7.2923 6.96033ZM7.2923 1.29929C11.0055 1.29929 13.2853 2.57 13.2853 3.48016C13.2853 4.39033 11.0055 5.66104 7.2923 5.66104C3.5791 5.66104 1.29929 4.39033 1.29929 3.48016C1.29929 2.57 3.58129 1.29929 7.2923 1.29929ZM13.1226 7.67263C9.89308 7.67263 8.20466 8.91476 8.20466 10.1415V16.7347C8.20466 17.9614 9.89527 19.2036 13.1226 19.2036C16.328 19.2036 18.0142 17.979 18.0406 16.7611H18.0428V10.1415C18.0406 8.91476 16.3522 7.67263 13.1226 7.67263ZM13.1226 8.97192C15.5101 8.97192 16.7413 9.79195 16.7413 10.1415C16.7413 10.4911 15.5101 11.3111 13.1226 11.3111C10.7351 11.3111 9.50395 10.4911 9.50395 10.1415C9.50395 9.79195 10.7351 8.97192 13.1226 8.97192ZM13.1226 17.9043C10.7351 17.9043 9.50395 17.0842 9.50395 16.7347V15.1606C10.3284 15.6091 11.5397 15.9081 13.1226 15.9081C14.7055 15.9081 15.9147 15.6091 16.7413 15.1606V16.7347C16.7413 17.0842 15.5101 17.9043 13.1226 17.9043ZM13.1226 14.6066C10.7351 14.6066 9.50395 13.7866 9.50395 13.437V11.8629C10.3284 12.3114 11.5397 12.6104 13.1226 12.6104C14.7055 12.6104 15.9147 12.3114 16.7413 11.8629V13.437C16.7413 13.7866 15.5101 14.6066 13.1226 14.6066Z"
        fill="black" />
</svg>