<svg width="108" height="108" viewBox="0 0 108 108" fill="none" xmlns="http://www.w3.org/2000/svg">
<rect width="108" height="108" rx="28" fill="url(#paint0_linear_894_22292)"/>
<g filter="url(#filter0_d_894_22292)">
<path d="M72.414 26H35.587C30.301 26 26 30.301 26 35.587V72.414C26 77.7 30.301 82 35.587 82H72.414C77.7 82 82 77.7 82 72.414V35.587C82 30.301 77.7 26 72.414 26ZM78.5 72.414C78.5 75.775 75.775 78.5 72.414 78.5H35.587C32.226 78.5 29.501 75.775 29.501 72.414V35.586C29.5 32.225 32.225 29.5 35.587 29.5H72.414C75.775 29.5 78.5 32.225 78.5 35.586V72.414Z" fill="white"/>
<path d="M57.318 50.118C56.553 48.967 55.467 48.066 54.195 47.525L51.944 44.54C51.721 44.245 51.278 44.245 51.055 44.54L48.804 47.525C46.26 48.62 44.466 51.142 44.5 54.082C44.542 57.778 47.629 60.907 51.324 60.998C55.255 61.095 58.5 57.908 58.5 54C58.494 52.618 58.083 51.268 57.318 50.118Z" fill="white"/>
<path d="M74.165 68H73.254C72.286 68 71.5 67.215 71.5 66.246V59.253C71.5 58.284 72.285 57.499 73.254 57.499H74.165C74.626 57.499 75 57.125 75 56.663V51.334C75 50.873 74.626 50.498 74.165 50.498H73.254C72.286 50.498 71.5 49.713 71.5 48.744V41.751C71.5 40.782 72.285 39.997 73.254 39.997H74.165C74.626 40 75 39.626 75 39.165V35.625C75 34.181 73.819 33 72.375 33H35.625C34.182 33 33 34.181 33 35.625V72.375C33 73.819 34.182 75 35.625 75H72.375C73.819 75 75 73.819 75 72.375V68.836C75 68.374 74.626 68 74.165 68ZM51.5 69.352C43.018 69.352 36.148 62.482 36.148 54.001C36.148 45.519 43.018 38.649 51.5 38.649C59.982 38.649 66.852 45.518 66.852 54C66.852 62.482 59.982 69.352 51.5 69.352Z" fill="white"/>
<path d="M75.874 41.745H74.127C73.781 41.745 73.501 42.025 73.501 42.371V48.118C73.501 48.464 73.782 48.744 74.127 48.744H75.874C76.22 48.744 76.5 48.463 76.5 48.118V42.371C76.5 42.026 76.22 41.745 75.874 41.745Z" fill="white"/>
<path d="M75.874 59.321H74.127C73.781 59.321 73.501 59.601 73.501 59.947V65.694C73.501 66.04 73.782 66.32 74.127 66.32H75.874C76.22 66.32 76.5 66.039 76.5 65.694V59.947C76.5 59.601 76.22 59.321 75.874 59.321Z" fill="white"/>
<path d="M51.4998 42.289C51.8868 42.289 52.1998 41.976 52.1998 41.589V40.489C52.1998 40.102 51.8868 39.789 51.4998 39.789C51.1128 39.789 50.7998 40.102 50.7998 40.489V41.589C50.8008 41.975 51.1138 42.289 51.4998 42.289Z" fill="white"/>
<path d="M51.4998 65.698C51.1128 65.698 50.7998 66.011 50.7998 66.398V67.498C50.7998 67.885 51.1128 68.198 51.4998 68.198C51.8868 68.198 52.1998 67.885 52.1998 67.498V66.398C52.1998 66.011 51.8868 65.698 51.4998 65.698Z" fill="white"/>
<path d="M44.6922 43.6C44.8852 43.935 45.3132 44.05 45.6482 43.856C45.9832 43.663 46.0972 43.235 45.9042 42.9L45.3542 41.947C45.1612 41.612 44.7332 41.497 44.3982 41.691C44.0632 41.884 43.9482 42.312 44.1422 42.647L44.6922 43.6Z" fill="white"/>
<path d="M58.3088 64.386C58.1158 64.051 57.6878 63.936 57.3528 64.13C57.0178 64.323 56.9038 64.751 57.0968 65.086L57.6468 66.039C57.8398 66.374 58.2678 66.488 58.6028 66.295C58.9378 66.102 59.0528 65.674 58.8588 65.339L58.3088 64.386Z" fill="white"/>
<path d="M41.1081 47.185L40.1551 46.635C39.8201 46.442 39.3921 46.556 39.1991 46.891C39.0061 47.226 39.1211 47.654 39.4551 47.847L40.4081 48.397C40.7431 48.59 41.1711 48.475 41.3641 48.141C41.5571 47.806 41.4421 47.378 41.1081 47.185Z" fill="white"/>
<path d="M63.5461 60.139L62.5931 59.589C62.2581 59.396 61.8301 59.51 61.6371 59.845C61.4441 60.18 61.5591 60.608 61.8931 60.801L62.8461 61.351C63.1811 61.544 63.6091 61.43 63.8021 61.095C63.9951 60.761 63.8811 60.333 63.5461 60.139Z" fill="white"/>
<path d="M39.7959 53.993C39.7959 53.606 39.4829 53.293 39.0959 53.293H37.9959C37.6089 53.293 37.2959 53.606 37.2959 53.993C37.2959 54.38 37.6089 54.693 37.9959 54.693H39.0959C39.4819 54.693 39.7959 54.38 39.7959 53.993Z" fill="white"/>
<path d="M63.2051 53.993C63.2051 54.38 63.5181 54.693 63.9051 54.693H65.0051C65.3921 54.693 65.7051 54.38 65.7051 53.993C65.7051 53.606 65.3921 53.293 65.0051 53.293H63.9051C63.5191 53.293 63.2051 53.607 63.2051 53.993Z" fill="white"/>
<path d="M40.4078 59.589L39.4548 60.139C39.1198 60.332 39.0048 60.76 39.1988 61.095C39.3918 61.43 39.8208 61.544 40.1548 61.351L41.1078 60.801C41.4428 60.608 41.5568 60.18 41.3638 59.845C41.1708 59.511 40.7418 59.396 40.4078 59.589Z" fill="white"/>
<path d="M61.6371 48.141C61.8301 48.476 62.2581 48.591 62.5931 48.397L63.5461 47.847C63.8811 47.654 63.9961 47.226 63.8021 46.891C63.6091 46.556 63.1801 46.442 62.8461 46.635L61.8931 47.185C61.5591 47.378 61.4441 47.806 61.6371 48.141Z" fill="white"/>
<path d="M45.6482 64.13C45.3132 63.937 44.8852 64.051 44.6922 64.386L44.1422 65.339C43.9492 65.674 44.0632 66.102 44.3982 66.295C44.7332 66.488 45.1612 66.374 45.3542 66.039L45.9042 65.086C46.0982 64.751 45.9832 64.323 45.6482 64.13Z" fill="white"/>
<path d="M57.6028 41.692C57.2678 41.499 56.8398 41.613 56.6468 41.948L56.0968 42.901C55.9038 43.236 56.0178 43.664 56.3528 43.857C56.6878 44.05 57.1158 43.936 57.3088 43.601L57.8588 42.648C58.0518 42.313 57.9378 41.885 57.6028 41.692Z" fill="white"/>
<path d="M50.8857 52.241C50.8857 51.9429 51.1494 51.8054 51.5506 51.8054C52.2271 51.8054 53.3965 52.2296 54.222 52.6996L55.1048 50.8652C54.4169 50.4181 53.4882 50.0971 52.5252 49.9824V48.2512H50.8169V50.0168C49.3379 50.2805 48.4207 51.1748 48.4207 52.4703C48.4207 55.3022 52.6169 54.534 52.6169 55.7493C52.6169 56.1162 52.2959 56.2882 51.7914 56.2882C50.9659 56.2882 49.6245 55.7608 48.7991 55.0614L47.9048 56.8729C48.6844 57.4805 49.7506 57.9047 50.8169 58.0767V59.9111H52.5252V58.0996C53.9698 57.8933 55.0819 57.0907 55.0819 55.6232C55.0819 52.7226 50.8857 53.4219 50.8857 52.241Z" fill="#EE8B23"/>
</g>
<defs>
<filter id="filter0_d_894_22292" x="26" y="26" width="56" height="57.2" filterUnits="userSpaceOnUse" color-interpolation-filters="sRGB">
<feFlood flood-opacity="0" result="BackgroundImageFix"/>
<feColorMatrix in="SourceAlpha" type="matrix" values="0 0 0 0 0 0 0 0 0 0 0 0 0 0 0 0 0 0 127 0" result="hardAlpha"/>
<feOffset dy="1.2"/>
<feComposite in2="hardAlpha" operator="out"/>
<feColorMatrix type="matrix" values="0 0 0 0 0 0 0 0 0 0 0 0 0 0 0 0 0 0 0.35 0"/>
<feBlend mode="normal" in2="BackgroundImageFix" result="effect1_dropShadow_894_22292"/>
<feBlend mode="normal" in="SourceGraphic" in2="effect1_dropShadow_894_22292" result="shape"/>
</filter>
<linearGradient id="paint0_linear_894_22292" x1="108" y1="0" x2="0" y2="108" gradientUnits="userSpaceOnUse">
<stop offset="0.0652726" stop-color="#F9BA35"/>
<stop offset="1" stop-color="#EE6E20"/>
</linearGradient>
</defs>
</svg>
