<svg width="40" height="40" viewBox="0 0 40 40" fill="none" xmlns="http://www.w3.org/2000/svg">
<rect width="40" height="40" rx="10" fill="url(#paint0_linear_3096_7152)"/>
<circle cx="20" cy="20" r="20" fill="url(#paint1_linear_3096_7152)"/>
<path fill-rule="evenodd" clip-rule="evenodd" d="M13.3183 31.2778L9.19543 21.702C9.01585 21.285 9.20871 20.8009 9.62512 20.6216L11.6666 19.7429L14.2174 29.3285C14.4618 30.2445 15.4025 30.7909 16.3194 30.5467L18.3524 30.0058L14.3989 31.7082C13.9818 31.8875 13.4979 31.6948 13.3183 31.2778ZM15.0835 29.0976L12.4023 19.0222C12.2856 18.5837 12.5471 18.1328 12.9851 18.0164L14.7577 17.5449L14.5442 19.1317C14.4181 20.071 15.0767 20.9365 16.0174 21.0633L20.1751 21.6236L18.4826 27.325C18.3083 27.9125 18.4633 28.5202 18.8402 28.949L16.0891 29.6807C15.6506 29.7974 15.2001 29.5365 15.0835 29.0976ZM20.4335 20.7544L16.1374 20.1754C15.6877 20.1146 15.3715 19.7004 15.4323 19.2505L16.8244 8.91765C16.8849 8.46801 17.2997 8.15213 17.7484 8.21254L24.5363 9.12728C24.9856 9.18801 25.3015 9.60255 25.2411 10.0519L24.3845 16.4088L23.5861 16.1717C23.0172 16.0024 22.4301 16.1423 22.0041 16.4931C22.2237 16.3096 22.4147 16.239 22.4147 16.239C22.4168 16.224 22.4218 16.1979 22.4269 16.1714C22.4323 16.1431 22.4378 16.1144 22.44 16.0982C22.5377 15.3591 21.5517 14.6189 20.2378 14.445C18.9238 14.2712 17.7792 14.7295 17.6814 15.4686C17.5836 16.2076 17.5044 16.8069 19.8836 17.1217C20.6226 17.2195 21.1396 17.2291 21.5043 17.1737C21.5144 17.1492 21.5249 17.1253 21.5357 17.1019C21.5024 17.1747 21.4739 17.2507 21.4504 17.3296L20.4335 20.7544ZM21.5357 17.1019C21.6461 16.8607 21.808 16.6545 22.0041 16.4931C21.8418 16.6287 21.6638 16.826 21.5357 17.1019ZM20.3495 13.5997C21.0065 13.6867 21.6096 13.2245 21.6966 12.5675C21.7835 11.9105 21.3213 11.3074 20.6643 11.2205C20.0073 11.1335 19.4042 11.5957 19.3173 12.2527C19.2304 12.9097 19.6925 13.5128 20.3495 13.5997Z" fill="white"/>
<path d="M20.006 28.6686L26.5522 30.68C26.9855 30.8131 27.4459 30.5693 27.5795 30.1353L30.6414 20.1694C30.7748 19.7357 30.531 19.2755 30.0973 19.1422L23.5507 17.1302C23.1174 16.9972 22.6567 17.241 22.5237 17.6749L19.4615 27.6408C19.3283 28.0751 19.5723 28.5353 20.006 28.6686Z" fill="white"/>
<defs>
<linearGradient id="paint0_linear_3096_7152" x1="-20" y1="20" x2="20" y2="60" gradientUnits="userSpaceOnUse">
<stop stop-color="#8AB2E6"/>
<stop offset="1" stop-color="#263C8D"/>
</linearGradient>
<linearGradient id="paint1_linear_3096_7152" x1="-20" y1="20" x2="20" y2="60" gradientUnits="userSpaceOnUse">
<stop stop-color="#8AB2E6"/>
<stop offset="1" stop-color="#263C8D"/>
</linearGradient>
</defs>
</svg>
