<svg width="21" height="19" viewBox="0 0 21 19" fill="none" xmlns="http://www.w3.org/2000/svg">
<path d="M15.0487 13.1537L19.7985 10.4024C20.0503 10.2563 20.2059 9.98526 20.2059 9.69439V4.19182C20.2059 3.90094 20.0503 3.62993 19.7985 3.48378L15.0487 0.732493C14.7969 0.586344 14.4843 0.587763 14.2339 0.732493L9.48415 3.48378C9.23237 3.62993 9.07678 3.90094 9.07678 4.19182V14.0249L5.74569 15.9532L2.41461 14.0249V10.1669L5.74569 8.23857L7.94237 9.51134V6.92324L6.15306 5.88601C6.03 5.81506 5.88855 5.77675 5.74569 5.77675C5.60283 5.77675 5.46138 5.81506 5.33832 5.88601L0.588521 8.63729C0.336744 8.78344 0.181152 9.05445 0.181152 9.34533V14.8479C0.181152 15.1388 0.336744 15.4098 0.588521 15.5559L5.33832 18.3072C5.5901 18.452 5.90128 18.452 6.15306 18.3072L10.9029 15.5559C11.1546 15.4098 11.3102 15.1388 11.3102 14.8479V5.01479L11.3696 4.98074L14.6399 3.08648L17.971 5.01479V8.87283L14.6399 10.8011L12.4461 9.53121V12.1193L14.2325 13.1537C14.4843 13.2984 14.7969 13.2984 15.0473 13.1537H15.0487Z" fill="url(#paint0_linear_4740_50733)"/>
<defs>
<linearGradient id="paint0_linear_4740_50733" x1="0.116086" y1="15.3871" x2="19.3762" y2="4.24288" gradientUnits="userSpaceOnUse">
<stop stop-color="#A726C1"/>
<stop offset="0.88" stop-color="#803BDF"/>
<stop offset="1" stop-color="#7B3FE4"/>
</linearGradient>
</defs>
</svg>
