<svg width="12" height="12" viewBox="0 0 12 12" fill="none" xmlns="http://www.w3.org/2000/svg">
<path d="M2.98123 0V1.5H1.47935V3H4.4831V0H2.98123ZM8.80851 0.045C8.53817 0.06 8.26784 0.09 8.01252 0.18C7.60701 0.33 7.21652 0.555 6.88611 0.885L6.22528 1.545C6.13021 1.60519 6.04991 1.68596 5.99031 1.78132C5.93071 1.87669 5.89333 1.98422 5.88095 2.09596C5.86857 2.2077 5.8815 2.32079 5.91879 2.42686C5.95607 2.53294 6.01675 2.62928 6.09634 2.70878C6.17594 2.78827 6.2724 2.84888 6.37861 2.88611C6.48482 2.92335 6.59805 2.93626 6.70993 2.9239C6.82181 2.91153 6.92947 2.87421 7.02496 2.81468C7.12044 2.75515 7.20131 2.67495 7.26158 2.58L7.9224 1.92C8.08761 1.755 8.28285 1.665 8.49312 1.59C9.01877 1.41 9.66458 1.485 10.0851 1.92C10.6708 2.505 10.6708 3.48 10.0851 4.08L7.83229 6.33C7.73722 6.39019 7.65692 6.47096 7.59732 6.56632C7.53772 6.66169 7.50034 6.76922 7.48796 6.88096C7.47558 6.9927 7.48851 7.10579 7.5258 7.21186C7.56308 7.31794 7.62376 7.41428 7.70335 7.49378C7.78295 7.57327 7.87941 7.63388 7.98562 7.67111C8.09183 7.70835 8.20506 7.72126 8.31694 7.7089C8.42881 7.69653 8.53648 7.65921 8.63197 7.59968C8.72745 7.54015 8.80832 7.45995 8.86859 7.365L11.1214 5.115C12.2929 3.945 12.2929 2.055 11.1214 0.9C10.7009 0.48 10.2053 0.225 9.66458 0.105C9.39424 0.045 9.09387 0.045 8.82353 0.06L8.80851 0.045ZM3.41677 4.41C3.30295 4.46475 3.20481 4.5473 3.13141 4.65L0.878598 6.9C-0.292866 8.07 -0.292866 9.96 0.878598 11.115C1.71965 11.955 2.92115 12.195 3.97247 11.82C4.37797 11.67 4.76846 11.445 5.09887 11.115L5.7597 10.455C5.85477 10.3948 5.93507 10.314 5.99467 10.2187C6.05428 10.1233 6.09165 10.0158 6.10403 9.90404C6.11641 9.7923 6.10348 9.67921 6.0662 9.57314C6.02891 9.46706 5.96823 9.37072 5.88864 9.29122C5.80905 9.21173 5.71258 9.15112 5.60637 9.11389C5.50016 9.07665 5.38693 9.06374 5.27505 9.0761C5.16318 9.08847 5.05551 9.12579 4.96002 9.18532C4.86454 9.24485 4.78367 9.32505 4.7234 9.42L4.06258 10.08C3.89737 10.245 3.70213 10.335 3.49186 10.41C2.96621 10.59 2.3204 10.515 1.89987 10.08C1.31414 9.495 1.31414 8.52 1.89987 7.92L4.15269 5.67C4.26175 5.55659 4.33235 5.41182 4.35453 5.25614C4.37671 5.10047 4.34934 4.94177 4.27629 4.80248C4.20323 4.66319 4.0882 4.55036 3.94743 4.47993C3.80667 4.4095 3.64731 4.38504 3.49186 4.41C3.46185 4.4082 3.43176 4.4082 3.40175 4.41H3.41677ZM7.50188 9V12H9.00376V10.5H10.5056V9H7.50188Z" fill="#838791"/>
</svg>
