<svg width="16" height="14" viewBox="0 0 16 14" fill="none" xmlns="http://www.w3.org/2000/svg">
<path d="M12.3277 12.7498C13.973 11.4631 15.0312 9.45919 15.0312 7.20919C15.0312 3.32618 11.8936 0.184968 8.01055 0.179694C4.12227 0.174421 0.96875 3.32266 0.96875 7.20919C0.96875 9.40997 1.97949 11.3734 3.56328 12.6619C3.6248 12.7111 3.71445 12.7006 3.76367 12.6391L4.45625 11.7514C4.50371 11.6916 4.49316 11.6055 4.43516 11.5563C4.29277 11.4402 4.15566 11.3154 4.02383 11.1836C3.50703 10.6668 3.10098 10.0656 2.81797 9.39591C2.52266 8.70508 2.375 7.96856 2.375 7.20919C2.375 6.44981 2.52266 5.71329 2.81621 5.02071C3.09922 4.35098 3.50527 3.74981 4.02207 3.23301C4.53887 2.71622 5.14004 2.31016 5.80977 2.02716C6.5041 1.7336 7.24062 1.58594 8 1.58594C8.75938 1.58594 9.4959 1.7336 10.1885 2.02716C10.8582 2.31016 11.4594 2.71622 11.9762 3.23301C12.493 3.74981 12.899 4.35098 13.182 5.02071C13.4756 5.71329 13.6232 6.44981 13.6232 7.20919C13.6232 7.96856 13.4756 8.70508 13.182 9.39766C12.899 10.0674 12.493 10.6686 11.9762 11.1854C11.8127 11.3488 11.6404 11.5018 11.4611 11.6424L10.7457 10.7266C10.6736 10.6334 10.526 10.665 10.4979 10.7793L9.80176 13.6305C9.78066 13.7184 9.84746 13.8045 9.93711 13.8045L12.8727 13.8186C12.9904 13.8186 13.0572 13.6832 12.9834 13.5918L12.3277 12.7498Z" fill="#838791"/>
</svg>
