<svg width="12" height="12" viewBox="0 0 12 12" fill="none" xmlns="http://www.w3.org/2000/svg">
<path d="M6 0C2.69144 0 0 2.69144 0 6C0 9.30857 2.69144 12 6 12C9.30857 12 12 9.30857 12 6C12 2.69144 9.30857 0 6 0ZM6 10.2904C5.64514 10.2904 5.35714 10.0024 5.35714 9.64757C5.35714 9.29271 5.64514 9.00471 6 9.00471C6.35486 9.00471 6.64286 9.29271 6.64286 9.64757C6.64286 10.0024 6.35486 10.2904 6 10.2904ZM7.18629 5.90872C6.81344 6.28116 6.42858 6.66602 6.42858 7.01187V7.73659C6.42858 7.97317 6.23658 8.16517 6 8.16517C5.76342 8.16517 5.57142 7.97317 5.57142 7.73659V7.01187C5.57142 6.31072 6.10713 5.77501 6.58027 5.30231C6.92697 4.9556 7.2857 4.59731 7.2857 4.31145C7.2857 3.59703 6.70884 3.01588 6 3.01588C5.27915 3.01588 4.7143 3.57217 4.7143 4.2823C4.7143 4.51889 4.5223 4.71086 4.28571 4.71086C4.04913 4.71086 3.85713 4.51886 3.85713 4.2823C3.85713 3.11145 4.81841 2.15874 6 2.15874C7.18159 2.15874 8.14287 3.1243 8.14287 4.31145C8.14287 4.95256 7.65644 5.43858 7.18629 5.90872Z" fill="#FC774B"/>
</svg>
