<?xml version="1.0" encoding="UTF-8"?>
<svg width="18px" height="18px" viewBox="0 0 18 18" version="1.1" xmlns="http://www.w3.org/2000/svg" xmlns:xlink="http://www.w3.org/1999/xlink">
    <title>reload</title>
    <g id="Cart" stroke="none" stroke-width="1" fill="none" fill-rule="evenodd">
        <g id="4-TP-input#备份-20" transform="translate(-1368.000000, -97.000000)" fill-rule="nonzero">
            <g id="编组-33" transform="translate(1040.000000, 78.000000)">
                <g id="编组-20" transform="translate(16.000000, 14.000000)">
                    <g id="reload" transform="translate(312.000000, 5.000000)">
                        <rect id="矩形" fill="#000000" opacity="0" x="0" y="0" width="18" height="18"></rect>
                        <path d="M15.9802734,3.67910156 L14.9888672,4.45429687 C13.6371094,2.72636719 11.5347656,1.6171875 9.17402344,1.6171875 C5.09765625,1.6171875 1.79824219,4.91308594 1.79296245,8.99121094 C1.78769531,13.0728516 5.09414063,16.3828125 9.17402344,16.3828125 C12.3609375,16.3828125 15.0767578,14.3613281 16.1103516,11.5294922 C16.1367188,11.4556641 16.0980469,11.3730469 16.0242188,11.3484375 L15.0275391,11.0056641 C14.9554687,10.9810547 14.8763672,11.0179688 14.85,11.0900391 C14.8183594,11.1779297 14.7832031,11.2658203 14.7462891,11.3519531 C14.4421875,12.0726562 14.00625,12.7195312 13.4507813,13.275 C12.8953125,13.8304687 12.2484375,14.2664062 11.5294922,14.5722656 C10.7859375,14.8869141 9.99316406,15.046875 9.17753906,15.046875 C8.36015625,15.046875 7.56914062,14.8869141 6.82558594,14.5722656 C6.10664063,14.2681641 5.45976562,13.8322266 4.90429687,13.275 C4.34882812,12.7195312 3.91289062,12.0726562 3.60878906,11.3519531 C3.29414062,10.6066406 3.13417969,9.815625 3.13417969,8.99824219 C3.13417969,8.18085938 3.29414062,7.38984375 3.60878906,6.64453125 C3.91289062,5.92382812 4.34882812,5.27695312 4.90429687,4.72148438 C5.45976562,4.16601562 6.10664062,3.73007813 6.82558594,3.42421875 C7.56914062,3.10957031 8.36191406,2.94960938 9.17753906,2.94960938 C9.99492187,2.94960938 10.7859375,3.10957031 11.5294922,3.42421875 C12.2484375,3.72832031 12.8953125,4.16425781 13.4507812,4.72148438 C13.6248047,4.89550781 13.7882812,5.08007812 13.9394531,5.2734375 L12.88125,6.09960938 C12.7880859,6.17167969 12.8197266,6.31933594 12.9339844,6.34746094 L16.0207031,7.10332031 C16.1085937,7.12441406 16.1947266,7.05761719 16.1947266,6.96796875 L16.2087891,3.78808594 C16.2070312,3.67207031 16.0716797,3.60703125 15.9802734,3.67910156 L15.9802734,3.67910156 Z" id="路径" fill="#999999"></path>
                    </g>
                </g>
            </g>
        </g>
    </g>
</svg>