<svg width="24" height="24" viewBox="0 0 24 24" fill="none" xmlns="http://www.w3.org/2000/svg">
<g id="20-bookmark">
<path id="Icon" fill-rule="evenodd" clip-rule="evenodd" d="M6 7.67373C6 6.19714 7.23122 5.00012 8.75 5.00012H17.25C18.7688 5.00012 20 6.19714 20 7.67373V21.771C20 22.0216 19.8676 22.2546 19.6494 22.3881C19.4312 22.5216 19.1578 22.5368 18.9255 22.4283L13.5409 19.9155C13.199 19.756 12.801 19.756 12.4591 19.9155L7.07455 22.4283C6.84215 22.5368 6.56875 22.5216 6.35057 22.3881C6.13239 22.2546 6 22.0216 6 21.771V7.67373ZM8.75 6.45846C8.05964 6.45846 7.5 7.00255 7.5 7.67373V20.6121L11.81 18.6008C12.5622 18.2498 13.4378 18.2498 14.19 18.6008L18.5 20.6121V7.67373C18.5 7.00255 17.9404 6.45846 17.25 6.45846H8.75Z" fill="white"/>
</g>
</svg>
