<svg width="18" height="18" viewBox="0 0 18 18" fill="none" xmlns="http://www.w3.org/2000/svg">
    <rect opacity="0.01" width="18" height="18" fill="black" />
    <path fill-rule="evenodd" clip-rule="evenodd"
        d="M16.6987 10.8622L15.5491 9.87959C15.6036 9.54561 15.6317 9.20459 15.6317 8.86533C15.6317 8.52607 15.6036 8.1833 15.5491 7.85107L16.6987 6.86846C16.8762 6.71729 16.9412 6.47119 16.8621 6.24971L16.8463 6.204C16.5282 5.31807 16.0588 4.50244 15.4471 3.7835L15.4155 3.74658C15.2643 3.56904 15.02 3.50225 14.7985 3.57959L13.3711 4.0876C12.8438 3.65518 12.2567 3.31416 11.6204 3.07686L11.3444 1.58447C11.3022 1.3542 11.1211 1.1749 10.8909 1.13271L10.8434 1.12393C9.92934 0.958691 8.96605 0.958691 8.05199 1.12393L8.00453 1.13271C7.77426 1.1749 7.5932 1.3542 7.55102 1.58447L7.27328 3.08389C6.64223 3.32295 6.05863 3.66221 5.5348 4.09111L4.09691 3.57959C3.87719 3.50225 3.63109 3.56729 3.47992 3.74658L3.44828 3.7835C2.83656 4.50596 2.36723 5.31982 2.04906 6.204L2.03324 6.24971C1.95414 6.46943 2.01918 6.71553 2.19672 6.86846L3.36039 7.86162C3.3059 8.19209 3.27953 8.52959 3.27953 8.86357C3.27953 9.20107 3.3059 9.53857 3.36039 9.86553L2.20023 10.8587C2.0227 11.0099 1.95766 11.256 2.03676 11.4774L2.05258 11.5231C2.37074 12.4073 2.84008 13.2247 3.4518 13.9437L3.48344 13.9806C3.63461 14.1581 3.87895 14.2249 4.10043 14.1476L5.53832 13.636C6.06215 14.0667 6.64574 14.4077 7.2768 14.6433L7.55453 16.1427C7.59672 16.3729 7.77777 16.5522 8.00805 16.5944L8.05551 16.6032C8.5143 16.6858 8.98187 16.728 9.45121 16.728C9.92055 16.728 10.3899 16.6858 10.8469 16.6032L10.8944 16.5944C11.1246 16.5522 11.3057 16.3729 11.3479 16.1427L11.6239 14.6503C12.2602 14.4112 12.8473 14.072 13.3746 13.6396L14.802 14.1476C15.0217 14.2249 15.2678 14.1599 15.419 13.9806L15.4506 13.9437C16.0623 13.2212 16.5317 12.4073 16.8498 11.5231L16.8657 11.4774C16.9413 11.2595 16.8762 11.0151 16.6987 10.8622ZM9.45121 6.72256C8.92562 6.72256 8.43344 6.92646 8.06078 7.29912C7.68988 7.67178 7.48422 8.16396 7.48422 8.68955C7.48422 9.21514 7.68988 9.70732 8.06078 10.08C8.43344 10.4509 8.92562 10.6565 9.45121 10.6565C9.9768 10.6565 10.469 10.4509 10.8416 10.08C11.2125 9.70732 11.4182 9.21514 11.4182 8.68955C11.4182 8.16396 11.2125 7.67178 10.8416 7.29912C10.469 6.92646 9.9768 6.72256 9.45121 6.72256ZM6.36098 8.68955C6.36098 10.3964 7.74438 11.7798 9.45121 11.7798C11.158 11.7798 12.5414 10.3964 12.5414 8.68955C12.5414 6.98271 11.158 5.59932 9.45121 5.59932C7.74438 5.59932 6.36098 6.98271 6.36098 8.68955Z"
        fill="#838791" />
</svg>