<?xml version="1.0" encoding="UTF-8"?>
<svg width="18px" height="18px" viewBox="0 0 18 18" version="1.1" xmlns="http://www.w3.org/2000/svg" xmlns:xlink="http://www.w3.org/1999/xlink">
    <title>btn-contact1</title>
    <g id="页面-1" stroke="none" stroke-width="1" fill="none" fill-rule="evenodd">
        <g id="cl-01备份-16" transform="translate(-153.000000, -163.000000)" fill-rule="nonzero">
            <g id="个人资料-通讯录-06" transform="translate(153.000000, 163.000000)">
                <rect id="矩形" fill="#000000" opacity="0" x="0" y="0" width="17.9383146" height="17.9383146"></rect>
                <path d="M7.17532585,9.71658709 C8.70008259,9.71658709 9.92586742,8.49080227 9.92586742,6.96604551 C9.92586742,5.44128874 8.70008259,4.18560674 7.17532585,4.18560674 C5.65056911,4.18560674 4.42478428,5.41139157 4.42478428,6.93614833 C4.42478428,8.46090509 5.65056911,9.71658709 7.17532585,9.71658709 Z M7.17532585,10.5213697 C5.83299348,10.5213697 3.93950471,11.2173432 1.49485955,12.6092902 C1.49485955,13.8967111 1.49485955,14.9156571 1.49485955,15.6661281 C1.49485955,15.9053056 1.67424269,16.0846888 1.91342023,16.0846888 L12.4372315,16.0846888 C12.676409,16.0846888 12.8557922,15.9053056 12.8557922,15.6661281 C12.8557922,14.90156 12.8557922,13.8660992 12.8557922,12.5597459 C10.3970499,11.2008284 8.50356111,10.5213697 7.17532585,10.5213697 Z" id="形状" fill="#4B9F87"></path>
                <path d="M17.03293,7.07115306 L12.7140142,7.07115306 C12.1689083,7.07115306 11.7495961,6.65184083 11.7495961,6.10673496 C11.7495961,5.56162909 12.1689083,5.14231686 12.7140142,5.14231686 L17.03293,5.14231686 C17.5780359,5.14231686 17.9973481,5.56162909 17.9973481,6.10673496 C17.9973481,6.65184083 17.5780359,7.07115306 17.03293,7.07115306 Z M17.03293,11.1384816 L14.2235382,11.1384816 C13.6784323,11.1384816 13.2591201,10.7191694 13.2591201,10.1740635 C13.2591201,9.62895761 13.6784323,9.20964538 14.2235382,9.20964538 L17.03293,9.20964538 C17.5780359,9.20964538 17.9973481,9.62895761 17.9973481,10.1740635 C18.0392794,10.7191694 17.5780359,11.1384816 17.03293,11.1384816 Z M17.03293,15.2058101 L16.2362368,15.2058101 C15.6911309,15.2058101 15.2718187,14.7864979 15.2718187,14.241392 C15.2718187,13.6962861 15.691131,13.2769739 16.2362368,13.2769739 L17.03293,13.2769739 C17.5780359,13.2769739 17.9973481,13.6962862 17.9973481,14.241392 C17.9973481,14.7864979 17.5780359,15.2058101 17.03293,15.2058101 Z" id="形状" fill="#4B9F87"></path>
            </g>
        </g>
    </g>
</svg>