<svg xmlns="http://www.w3.org/2000/svg" width="17" height="17" viewBox="0 0 17 17" fill="none">
  <path d="M8.59614 15.9877C4.47553 15.9877 1.12305 12.6352 1.12305 8.5146C1.12305 4.39399 4.47553 1.0415 8.59614 1.0415C12.7168 1.0415 16.0692 4.39399 16.0692 8.5146C16.0692 10.341 15.1637 11.411 13.1331 11.9843C12.8321 12.0697 12.562 12.1046 12.2019 12.1046C12.0799 12.1046 11.9438 12.1006 11.7861 12.0934C11.673 12.0881 11.5598 12.0853 11.4466 12.0849C10.8397 12.0849 10.6918 12.1772 10.4644 12.518C10.2629 12.8202 10.2085 13.0828 10.5255 13.5317C10.5514 13.5685 10.5778 13.6046 10.6104 13.6475L10.7028 13.7687C10.9867 14.1418 11.2256 14.524 11.0337 15.0909L11.0022 15.1838L10.9454 15.2639C10.4513 15.9586 9.86817 15.9877 8.59614 15.9877ZM8.59614 2.37599C5.21137 2.37599 2.45753 5.12982 2.45753 8.5146C2.45753 11.8994 5.21137 14.6532 8.59614 14.6532C9.21534 14.6532 9.5108 14.6383 9.66373 14.6068C9.65679 14.5972 9.64878 14.587 9.64078 14.5766L9.54896 14.4562C9.50995 14.4051 9.47187 14.3532 9.43473 14.3006C8.83315 13.4495 8.80566 12.6002 9.35386 11.7779C9.92235 10.9255 10.6016 10.7504 11.4463 10.7504C11.5702 10.7504 11.7025 10.7541 11.8456 10.7605C12.2887 10.78 12.5075 10.7744 12.7696 10.6999C14.2391 10.2852 14.7345 9.73405 14.7345 8.5146C14.7348 5.12982 11.9812 2.37599 8.59614 2.37599Z" fill="white"/>
  <path d="M4.05859 7.31353C4.05859 7.56128 4.15701 7.79888 4.3322 7.97407C4.50738 8.14925 4.74498 8.24767 4.99273 8.24767C5.24048 8.24767 5.47808 8.14925 5.65327 7.97407C5.82845 7.79888 5.92687 7.56128 5.92687 7.31353C5.92687 7.06578 5.82845 6.82818 5.65327 6.653C5.47808 6.47781 5.24048 6.37939 4.99273 6.37939C4.74498 6.37939 4.50738 6.47781 4.3322 6.653C4.15701 6.82818 4.05859 7.06578 4.05859 7.31353Z" fill="white"/>
  <path d="M11.2646 7.31353C11.2646 7.56128 11.3631 7.79888 11.5382 7.97407C11.7134 8.14925 11.951 8.24767 12.1988 8.24767C12.4465 8.24767 12.6841 8.14925 12.8593 7.97407C13.0345 7.79888 13.1329 7.56128 13.1329 7.31353C13.1329 7.06578 13.0345 6.82818 12.8593 6.653C12.6841 6.47781 12.4465 6.37939 12.1988 6.37939C11.951 6.37939 11.7134 6.47781 11.5382 6.653C11.3631 6.82818 11.2646 7.06578 11.2646 7.31353Z" fill="white"/>
  <path d="M6.19434 4.9115C6.19433 5.03418 6.21848 5.15566 6.26542 5.269C6.31236 5.38234 6.38117 5.48533 6.46791 5.57208C6.55466 5.65883 6.65764 5.72764 6.77098 5.77459C6.88432 5.82154 7.00579 5.8457 7.12847 5.8457C7.25115 5.8457 7.37263 5.82154 7.48597 5.77459C7.59931 5.72764 7.70229 5.65883 7.78903 5.57208C7.87577 5.48533 7.94458 5.38234 7.99152 5.269C8.03846 5.15566 8.06262 5.03418 8.06261 4.9115C8.06262 4.78882 8.03846 4.66734 7.99152 4.554C7.94458 4.44066 7.87577 4.33767 7.78903 4.25092C7.70229 4.16417 7.59931 4.09536 7.48597 4.04841C7.37263 4.00146 7.25115 3.97729 7.12847 3.97729C7.00579 3.97729 6.88432 4.00146 6.77098 4.04841C6.65764 4.09536 6.55466 4.16417 6.46791 4.25092C6.38117 4.33767 6.31236 4.44066 6.26542 4.554C6.21848 4.66734 6.19433 4.78882 6.19434 4.9115Z" fill="white"/>
  <path d="M9.12988 4.91152C9.12987 5.0342 9.15402 5.15568 9.20096 5.26903C9.2479 5.38237 9.31671 5.48536 9.40345 5.57211C9.4902 5.65887 9.59318 5.72768 9.70652 5.77463C9.81986 5.82158 9.94134 5.84575 10.064 5.84575C10.1867 5.84575 10.3082 5.82158 10.4215 5.77463C10.5349 5.72768 10.6378 5.65887 10.7246 5.57211C10.8113 5.48536 10.8801 5.38237 10.9271 5.26903C10.974 5.15568 10.9982 5.0342 10.9982 4.91152C10.9982 4.78884 10.974 4.66736 10.9271 4.55402C10.8801 4.44067 10.8113 4.33768 10.7246 4.25093C10.6378 4.16418 10.5349 4.09536 10.4215 4.04841C10.3082 4.00146 10.1867 3.97729 10.064 3.97729C9.94134 3.97729 9.81986 4.00146 9.70652 4.04841C9.59318 4.09536 9.4902 4.16418 9.40345 4.25093C9.31671 4.33768 9.2479 4.44067 9.20096 4.55402C9.15402 4.66736 9.12987 4.78884 9.12988 4.91152Z" fill="white"/>
</svg>