<?xml version="1.0" encoding="UTF-8"?>
<svg width="16px" height="16px" viewBox="0 0 16 16" version="1.1" xmlns="http://www.w3.org/2000/svg" xmlns:xlink="http://www.w3.org/1999/xlink">
    <title>认证管理备份</title>
    <g id="list" stroke="none" stroke-width="1" fill="none" fill-rule="evenodd">
        <g id="timeline控件2" transform="translate(-1987.000000, -397.000000)" fill-rule="nonzero">
            <g id="编组-14" transform="translate(1978.000000, 386.000000)">
                <g id="认证管理备份" transform="translate(9.000000, 11.000000)">
                    <rect id="矩形" fill="#000000" opacity="0" x="0" y="0" width="16" height="16"></rect>
                    <path d="M14.2929687,7.29296875 L13,6 L13,4 C12.9983697,3.44839197 12.551608,3.00163034 12,3 L10,3 L8.70703125,1.70703125 C8.31583204,1.31813486 7.68401171,1.31813486 7.2928125,1.70703125 L6,3 L4,3 C3.44839197,3.00163034 3.00163034,3.44839197 3,4 L3,6 L1.70703125,7.29296875 C1.31813486,7.68416796 1.31813486,8.31598829 1.70703125,8.7071875 L3,10 L3,12 C3.00163034,12.551608 3.44839197,12.9983697 4,13 L6,13 L7.29296875,14.2929687 C7.68416796,14.6818651 8.31598829,14.6818651 8.7071875,14.2929687 L10,13 L12,13 C12.551608,12.9983697 12.9983697,12.551608 13,12 L13,10 L14.2929687,8.70703125 C14.6817616,8.31585028 14.6817616,7.68414972 14.2929687,7.29296875 Z M8,11.5 L5,6 L6.5,6 L8,9 L9.5,6 L11,6 L8,11.5 Z" id="形状" fill="#F0D47C"></path>
                </g>
            </g>
        </g>
    </g>
</svg>