<svg width="34" height="34" viewBox="0 0 34 34" fill="none" xmlns="http://www.w3.org/2000/svg">
<path fill-rule="evenodd" clip-rule="evenodd" d="M32.8125 -0.187073H1.1875C0.426953 -0.187073 -0.1875 0.42738 -0.1875 1.18793V32.8129C-0.1875 33.5735 0.426953 34.1879 1.1875 34.1879H32.8125C33.573 34.1879 34.1875 33.5735 34.1875 32.8129V1.18793C34.1875 0.42738 33.573 -0.187073 32.8125 -0.187073ZM31.4375 17.0004C31.4375 18.5192 30.2063 19.7504 28.6875 19.7504H20.4375C18.9187 19.7504 17.6875 18.5192 17.6875 17.0004C17.6875 15.4816 18.9187 14.2504 20.4375 14.2504H28.6875C30.2063 14.2504 31.4375 15.4816 31.4375 17.0004ZM21.6406 18.7192C20.6914 18.7192 19.9219 17.9497 19.9219 17.0004C19.9219 16.0512 20.6914 15.2817 21.6406 15.2817C22.5899 15.2817 23.3594 16.0512 23.3594 17.0004C23.3594 17.9497 22.5899 18.7192 21.6406 18.7192Z" fill="url(#paint0_linear_159_907)"/>
<defs>
<linearGradient id="paint0_linear_159_907" x1="17" y1="-0.187073" x2="17" y2="34.1879" gradientUnits="userSpaceOnUse">
<stop stop-color="#AA916F"/>
<stop offset="1" stop-color="#FFEEAB"/>
</linearGradient>
</defs>
</svg>
