<svg width="159" height="140" viewBox="0 0 159 140" fill="none" xmlns="http://www.w3.org/2000/svg">
<path fill-rule="evenodd" clip-rule="evenodd" d="M2.66794 48.1139C0.00604629 43.5033 5.67288 37.9257 10.4742 40.2258C16.7587 43.2364 22.8798 45.3921 25.5537 44.0368C31.8724 40.8342 87.7603 8.14786 91.0171 6.24265C91.1228 6.18083 91.2191 6.12469 91.3255 6.0641C105.345 -1.91984 122.948 2.47364 130.716 15.929L151.199 51.4062C152.026 52.8373 152.707 54.3135 153.249 55.8189C152.98 56.0647 152.774 56.3873 152.67 56.7651C152.672 56.7591 152.67 56.7648 152.663 56.7821L152.663 56.7823C152.64 56.8445 152.56 57.0555 152.396 57.4128C152.206 57.827 151.94 58.3569 151.612 58.9227C150.932 60.0973 150.09 61.2443 149.227 61.919L149.227 61.9189C149.223 61.9216 149.207 61.9339 149.172 61.9578C149.13 61.987 149.074 62.0252 149.001 62.0735C148.854 62.1702 148.659 62.2949 148.414 62.4482C147.924 62.7542 147.264 63.1569 146.45 63.6465C144.823 64.6248 142.61 65.9335 139.982 67.4766C135.839 69.9098 130.68 72.9169 125.194 76.1155C123.722 76.9735 122.226 77.8453 120.72 78.7235C106.522 87.0039 91.3235 95.8972 86.5096 99.062C81.1298 102.599 79.2201 107.535 79.1105 112.222C79.0034 116.803 80.6012 121.133 82.1777 123.864L85.6418 121.864C84.3323 119.595 83.0236 115.986 83.1094 112.316C83.1927 108.75 84.5752 105.121 88.707 102.404C93.4047 99.3159 108.468 90.4996 122.736 82.1788C124.239 81.3018 125.733 80.4309 127.204 79.5734L127.211 79.5692C132.696 76.3716 137.86 73.3615 142.007 70.9258C144.638 69.3811 146.866 68.0638 148.511 67.0744C150.082 66.1299 151.277 65.3937 151.691 65.0698C152.904 64.1214 153.901 62.8129 154.645 61.6365C156.05 72.7797 150.563 84.3815 139.887 90.545L80.7775 124.672C66.7321 132.781 49.0245 128.406 41.2264 114.899L2.66794 48.1139ZM116.949 33.1778C116.595 31.9266 115.123 31.5412 113.996 32.1914C112.87 32.8416 112.54 34.2991 112.679 35.5921C112.681 35.6134 112.683 35.6347 112.685 35.656C112.764 36.4693 112.672 37.3025 112.414 38.1082C112.156 38.914 111.739 39.6764 111.184 40.352C110.63 41.0275 109.95 41.6031 109.184 42.0456C108.417 42.4882 107.579 42.7892 106.717 42.9314C105.854 43.0736 104.985 43.0543 104.159 42.8744C103.332 42.6946 102.564 42.3579 101.899 41.8834C101.882 41.8709 101.865 41.8584 101.847 41.8458C100.797 41.0789 99.3696 40.6362 98.2434 41.2864C97.1173 41.9366 96.715 43.4041 97.6213 44.3366C98.0263 44.7533 98.4708 45.1351 98.9507 45.4775C100.08 46.2834 101.385 46.8555 102.789 47.1609C104.193 47.4664 105.669 47.4993 107.134 47.2577C108.598 47.0161 110.022 46.5049 111.324 45.7531C112.626 45.0013 113.781 44.0237 114.723 42.8762C115.664 41.7286 116.374 40.4335 116.811 39.0649C117.249 37.6962 117.405 36.2809 117.272 34.8995C117.216 34.3126 117.107 33.7368 116.949 33.1778Z" fill="white" fill-opacity="0.15"/>
</svg>
