<svg width="14" height="14" viewBox="0 0 14 14" fill="none" xmlns="http://www.w3.org/2000/svg">
    <path
        d="M6.5625 13.125V12.1297C4.38867 12.0039 3.06797 10.8855 3.0625 9.1875H5.03125C5.08047 9.90664 5.68477 10.459 6.5625 10.5547V7.875L5.82969 7.68359C4.16172 7.29531 3.27031 6.33281 3.27031 4.8918C3.27031 3.19375 4.48711 2.08086 6.5625 1.91406V0.875H7.4375V1.91406C9.55391 2.08633 10.6914 3.21836 10.7188 4.8125H8.75C8.72813 4.15352 8.31797 3.62578 7.4375 3.55469V6.07031L8.27969 6.26992C10.0516 6.6582 10.9375 7.57422 10.9375 9.07812C10.9375 10.8363 9.74258 11.9738 7.4375 12.1215V13.125H6.5625ZM6.5625 5.90625V3.55469C5.80781 3.5957 5.26914 4.06055 5.26914 4.7168C5.26914 5.32656 5.71758 5.72578 6.5625 5.90625ZM7.4375 8.03906V10.5547C8.4793 10.5137 8.97969 10.0379 8.97969 9.30234C8.97969 8.62969 8.4793 8.17852 7.4375 8.03906Z"
        fill="#DDA045" />
</svg>
    