<svg width="110" height="89" viewBox="0 0 110 89" fill="none" xmlns="http://www.w3.org/2000/svg">
    <path
        d="M90.3212 18.8247L92.2327 26.1179L99.0357 27.9654L92.2005 29.7403L90.3212 37.055L88.5923 29.7403L81.6067 27.9654L88.1976 26.1179L90.3212 18.8247Z"
        fill="#B27AFF" />
    <path
        d="M90.3212 37.1733C90.2944 37.1734 90.2685 37.1644 90.2475 37.1478C90.2265 37.1312 90.2118 37.1079 90.2057 37.0818L88.4929 29.8505L81.5771 28.0944C81.5518 28.088 81.5291 28.0736 81.5127 28.0532C81.4962 28.0328 81.4868 28.0077 81.4858 27.9815C81.4856 27.9551 81.4942 27.9293 81.5103 27.9084C81.5263 27.8874 81.5489 27.8724 81.5744 27.8658L88.1036 26.0345L90.2057 18.7897C90.2132 18.7648 90.2285 18.743 90.2493 18.7275C90.2701 18.712 90.2953 18.7037 90.3212 18.7036C90.3469 18.7048 90.3715 18.714 90.3917 18.7299C90.4119 18.7458 90.4267 18.7676 90.4339 18.7924L92.3266 26.021L99.0652 27.8524C99.0903 27.8591 99.1125 27.874 99.1284 27.8946C99.1442 27.9153 99.1528 27.9406 99.1528 27.9667C99.1528 27.9927 99.1442 28.018 99.1284 28.0387C99.1125 28.0594 99.0903 28.0742 99.0652 28.081L92.2998 29.8505L90.4366 37.1114C90.4253 37.1317 90.4085 37.1484 90.388 37.1594C90.3675 37.1703 90.3443 37.1752 90.3212 37.1733ZM82.0657 27.968L88.6218 29.6327C88.6427 29.6383 88.6618 29.6496 88.6769 29.6652C88.692 29.6808 88.7026 29.7002 88.7077 29.7214L90.3185 36.5655L92.085 29.7106C92.09 29.6902 92.1003 29.6714 92.115 29.6563C92.1296 29.6412 92.148 29.6302 92.1682 29.6246L98.5739 27.968L92.2005 26.2388C92.1802 26.2332 92.1618 26.2223 92.1472 26.2071C92.1325 26.192 92.1222 26.1733 92.1172 26.1528L90.3158 19.2737L88.3264 26.1501C88.3206 26.1698 88.3099 26.1878 88.2954 26.2024C88.2809 26.2169 88.2629 26.2276 88.2432 26.2335L82.0657 27.968Z"
        fill="#B27AFF" />
    <path
        d="M8.83537 67.416L10.7442 74.7092L17.5499 76.5594L10.7147 78.3316L8.83537 85.6463L7.10642 78.3316L0.118164 76.5594L6.71177 74.7092L8.83537 67.416Z"
        fill="#B27AFF" />
    <path
        d="M8.83534 85.7648C8.80895 85.7648 8.78335 85.7557 8.76284 85.7391C8.74232 85.7224 8.72811 85.6992 8.72259 85.6734L7.00707 78.4313L0.0886085 76.6752C0.0633022 76.6682 0.0409657 76.6531 0.02498 76.6323C0.00899438 76.6114 0.000229989 76.5859 1.35634e-05 76.5596C-0.00038062 76.5335 0.00782687 76.508 0.0233615 76.4871C0.0388962 76.4662 0.0608886 76.451 0.0859238 76.4439L6.6151 74.6126L8.7199 67.3839C8.72739 67.3591 8.74265 67.3373 8.76344 67.3218C8.78422 67.3063 8.80943 67.2979 8.83534 67.2979C8.86137 67.2977 8.88668 67.3064 8.90715 67.3226C8.92762 67.3387 8.94205 67.3612 8.9481 67.3866L10.8435 74.6126L17.5821 76.4439C17.6072 76.4507 17.6294 76.4655 17.6452 76.4862C17.661 76.5069 17.6696 76.5322 17.6696 76.5582C17.6696 76.5843 17.661 76.6096 17.6452 76.6303C17.6294 76.6509 17.6072 76.6658 17.5821 76.6725L10.814 78.4313L8.95079 85.6761C8.94463 85.7019 8.9298 85.7248 8.90878 85.741C8.88776 85.7571 8.86183 85.7655 8.83534 85.7648ZM0.579908 76.5515L7.13325 78.2161C7.15433 78.2222 7.17353 78.2335 7.18904 78.249C7.20454 78.2645 7.21583 78.2838 7.22184 78.3049L8.83266 85.1517L10.5938 78.3022C10.5994 78.2819 10.6104 78.2635 10.6255 78.2488C10.6406 78.2342 10.6593 78.2238 10.6797 78.2188L17.08 76.5569L10.7093 74.825C10.6891 74.8201 10.6706 74.8098 10.6559 74.7951C10.6412 74.7804 10.6309 74.7619 10.626 74.7416L8.82192 67.8626L6.81914 74.7443C6.81337 74.7634 6.803 74.7807 6.78895 74.7948C6.77491 74.8089 6.75761 74.8192 6.7386 74.825L0.579908 76.5515Z"
        fill="#B27AFF" />
    <path
        d="M99.4625 88.9705C99.3961 88.9705 99.3323 88.9443 99.285 88.8975C99.2378 88.8506 99.2109 88.787 99.2102 88.7204C99.2102 79.5152 96.4503 73.8033 94.1361 70.6353C91.6286 67.2039 89.0889 65.9292 89.0647 65.9157C89.0351 65.9013 89.0086 65.8811 88.9868 65.8564C88.9649 65.8316 88.9482 65.8028 88.9375 65.7716C88.9268 65.7404 88.9223 65.7074 88.9243 65.6744C88.9263 65.6415 88.9348 65.6093 88.9493 65.5796C88.9637 65.5499 88.9839 65.5234 89.0085 65.5015C89.0332 65.4797 89.062 65.4629 89.0931 65.4522C89.1243 65.4414 89.1573 65.4369 89.1902 65.4389C89.2231 65.441 89.2552 65.4495 89.2848 65.4639C89.3922 65.5177 91.9427 66.7924 94.52 70.3046C96.8879 73.5316 99.7122 79.3538 99.7122 88.7151C99.7129 88.7484 99.707 88.7815 99.6948 88.8124C99.6825 88.8434 99.6642 88.8716 99.641 88.8954C99.6177 88.9192 99.59 88.9381 99.5593 88.951C99.5287 88.9639 99.4958 88.9705 99.4625 88.9705Z"
        fill="#DAC2FB" />
    <path
        d="M89.175 65.9428C89.1283 65.9408 89.0829 65.9266 89.0434 65.9016C89.0038 65.8766 88.9715 65.8417 88.9495 65.8003C88.9207 65.7403 88.9167 65.6714 88.9383 65.6084C88.9599 65.5455 89.0054 65.4937 89.065 65.4641C89.0891 65.4641 91.6288 64.176 94.1364 60.7445C96.4506 57.5766 99.2104 51.8701 99.2104 42.6621C99.2068 42.6269 99.2106 42.5913 99.2215 42.5577C99.2325 42.524 99.2504 42.4931 99.274 42.4668C99.2977 42.4405 99.3266 42.4195 99.3589 42.4051C99.3912 42.3907 99.4261 42.3833 99.4614 42.3833C99.4968 42.3833 99.5317 42.3907 99.564 42.4051C99.5963 42.4195 99.6252 42.4405 99.6488 42.4668C99.6725 42.4931 99.6904 42.524 99.7014 42.5577C99.7123 42.5913 99.7161 42.6269 99.7125 42.6621C99.7125 52.0207 96.8882 57.8375 94.5203 61.0699C91.943 64.5874 89.3925 65.8621 89.2851 65.9105C89.2517 65.9304 89.2138 65.9415 89.175 65.9428Z"
        fill="#DAC2FB" />
    <path
        d="M99.4626 88.9707C99.3961 88.9707 99.3323 88.9445 99.2851 88.8976C99.2378 88.8508 99.2109 88.7872 99.2102 88.7206C99.2102 79.3594 102.035 73.5426 104.402 70.3101C106.982 66.7926 109.533 65.5179 109.638 65.4695C109.696 65.4461 109.762 65.4457 109.821 65.4685C109.88 65.4913 109.929 65.5355 109.957 65.5925C109.985 65.6494 109.991 65.7149 109.973 65.7758C109.955 65.8367 109.915 65.8887 109.86 65.9213C109.834 65.9213 107.294 67.2094 104.789 70.6409C102.472 73.8088 99.7122 79.5154 99.7122 88.726C99.7108 88.7914 99.6839 88.8536 99.6372 88.8994C99.5906 88.9451 99.5279 88.9707 99.4626 88.9707Z"
        fill="#DAC2FB" />
    <path
        d="M109.748 65.9428C109.709 65.9426 109.672 65.9334 109.638 65.9159C109.533 65.8621 106.982 64.5874 104.402 61.0753C102.035 57.8482 99.2102 52.026 99.2102 42.6675C99.2066 42.6323 99.2103 42.5967 99.2213 42.5631C99.2323 42.5294 99.2501 42.4985 99.2738 42.4722C99.2975 42.4459 99.3264 42.4249 99.3587 42.4105C99.3909 42.3961 99.4259 42.3887 99.4612 42.3887C99.4966 42.3887 99.5315 42.3961 99.5638 42.4105C99.5961 42.4249 99.625 42.4459 99.6486 42.4722C99.6723 42.4985 99.6902 42.5294 99.7011 42.5631C99.7121 42.5967 99.7159 42.6323 99.7122 42.6675C99.7122 60.2927 109.758 65.4211 109.86 65.4695C109.911 65.495 109.952 65.5369 109.976 65.5885C110 65.64 110.006 65.6981 109.993 65.7535C109.98 65.8088 109.948 65.8581 109.904 65.8935C109.859 65.9288 109.804 65.9481 109.748 65.9482V65.9428Z"
        fill="#DAC2FB" />
    <path
        d="M59.9761 85.5526C36.4286 85.5526 17.2733 66.3649 17.2733 42.7776C17.2733 19.1904 36.4286 3.11679e-06 59.9761 3.11679e-06C67.4725 -0.00286357 74.8375 1.97181 81.3301 5.72538L81.7301 5.95665L81.3301 6.19062C74.9174 9.89764 69.5921 15.2305 65.8895 21.653C62.187 28.0755 60.2377 35.3612 60.2377 42.7776C60.2377 50.1941 62.187 57.4798 65.8895 63.9023C69.5921 70.3248 74.9174 75.6576 81.3301 79.3646L81.7301 79.5959L81.3301 79.8299C74.8367 83.5813 67.4721 85.555 59.9761 85.5526ZM59.9761 0.53785C36.7266 0.53785 17.8103 19.4862 17.8103 42.7776C17.8103 66.0691 36.7266 85.0147 59.9761 85.0147C67.2173 85.0163 74.3368 83.1491 80.6482 79.5932C74.2633 75.8085 68.9728 70.423 65.2979 63.9672C61.6229 57.5113 59.6902 50.2079 59.6902 42.7763C59.6902 35.3447 61.6229 28.0413 65.2979 21.5854C68.9728 15.1296 74.2633 9.74407 80.6482 5.95934C74.3363 2.40482 67.2171 0.537746 59.9761 0.53785Z"
        fill="white" />
    <path d="M44.8881 54.9409H40.8584V55.4788H44.8881V54.9409Z" fill="white" />
    <path
        d="M33.3358 53.2201C31.3653 53.2201 30.3666 51.2946 30.3666 47.4947V46.0156H30.9035V47.4947C30.9035 50.9369 31.7089 52.6822 33.3358 52.6822C34.9628 52.6822 35.7682 50.9369 35.7682 47.4947V46.0156H36.3051V47.4947C36.3051 51.2946 35.3064 53.2201 33.3358 53.2201Z"
        fill="white" />
    <path
        d="M52.4079 53.2201C50.4373 53.2201 49.4386 51.2946 49.4386 47.4947V46.0156H49.9755V47.4947C49.9755 50.9369 50.7809 52.6822 52.4079 52.6822C54.0348 52.6822 54.8402 50.9369 54.8402 47.4947V46.0156H55.3771V47.4947C55.3771 51.2946 54.3784 53.2201 52.4079 53.2201Z"
        fill="white" />
</svg>
    