<svg width="352" height="120" viewBox="0 0 352 120" fill="none" xmlns="http://www.w3.org/2000/svg"
    xmlns:xlink="http://www.w3.org/1999/xlink">
    <path fill-rule="evenodd" clip-rule="evenodd"
        d="M0 10C0 4.47715 4.47715 0 10 0H342C347.523 0 352 4.47715 352 10V110C352 115.523 347.523 120 342 120H9.99999C4.47714 120 0 115.523 0 110V10Z"
        fill="#DDA045" />
    <mask id="mask0_1_1338" style="mask-type:alpha" maskUnits="userSpaceOnUse" x="0" y="0"
        width="352" height="120">
        <path fill-rule="evenodd" clip-rule="evenodd"
            d="M0 10C0 4.47715 4.47715 0 10 0H342C347.523 0 352 4.47715 352 10V110C352 115.523 347.523 120 342 120H9.99999C4.47714 120 0 115.523 0 110V10Z"
            fill="#DDA045" />
    </mask>
    <g mask="url(#mask0_1_1338)">
        <g opacity="0.5">
            <g opacity="0.2" clip-path="url(#clip0_1_1338)">
                <path
                    d="M21.2175 27.4186L22.2482 25.5514C18.3003 23.0643 16.9808 19.5985 18.729 16.4073L22.4224 18.4461C21.77 19.8462 22.3317 21.5082 23.8792 22.5967L26.6542 17.5695L25.4777 16.4516C22.7506 13.9958 22.0751 11.2671 23.5673 8.5637C25.3258 5.37814 28.761 4.55042 32.8272 6.38672L33.9032 4.43743L35.5447 5.34355L34.4687 7.29285C38.2607 9.80771 39.2224 13.1094 37.6228 16.1283L33.9294 14.0895C34.5708 12.8306 34.3479 11.4158 32.7697 10.3707L30.1646 15.09L31.5379 16.3366C34.4598 18.9 35.1733 21.5359 33.6159 24.3572C31.7951 27.6556 28.3755 28.5522 23.8982 26.4421L22.859 28.3247L21.2175 27.4186ZM28.693 13.8761L31.1282 9.46456C29.6699 8.75997 28.178 9.07419 27.4984 10.3053C26.8669 11.4493 27.2948 12.6626 28.693 13.8761ZM28.1258 18.7834L25.5207 23.5028C27.5176 24.5047 28.9491 24.1303 29.7108 22.7504C30.4074 21.4885 29.9358 20.1239 28.1258 18.7834Z"
                    fill="white" />
            </g>
            <g opacity="0.2" clip-path="url(#clip1_1_1338)">
                <path
                    d="M30.9503 60.4229L32.506 57.6045C26.5472 53.8505 24.5555 48.6194 27.1942 43.8026L32.769 46.8799C31.7843 48.9932 32.632 51.5018 34.9679 53.1447L39.1564 45.5568L37.3806 43.8694C33.2644 40.1628 32.2447 36.044 34.4972 31.9636C37.1513 27.1553 42.3364 25.906 48.4738 28.6777L50.098 25.7354L52.5757 27.1031L50.9515 30.0454C56.6751 33.8413 58.1267 38.8247 55.7123 43.3815L50.1375 40.3042C51.1056 38.404 50.7691 36.2685 48.3871 34.691L44.455 41.8143L46.5277 43.6959C50.9381 47.565 52.015 51.5436 49.6642 55.8021C46.916 60.7807 41.7544 62.1339 34.9965 58.949L33.4279 61.7906L30.9503 60.4229ZM42.2337 39.9821L45.9094 33.3233C43.7083 32.2598 41.4564 32.7341 40.4306 34.5923C39.4775 36.319 40.1233 38.1504 42.2337 39.9821ZM41.3777 47.3891L37.4455 54.5124C40.4596 56.0247 42.6202 55.4596 43.77 53.3768C44.8214 51.4721 44.1097 49.4124 41.3777 47.3891Z"
                    fill="white" />
            </g>
            <g opacity="0.2" clip-path="url(#clip2_1_1338)">
                <path
                    d="M55.7262 16.8738L56.6406 15.2173C53.1382 13.0108 51.9675 9.93606 53.5185 7.10489L56.7952 8.91364C56.2164 10.1558 56.7147 11.6303 58.0876 12.5959L60.5496 8.13599L59.5057 7.14417C57.0864 4.96551 56.4871 2.54461 57.811 0.146249C59.371 -2.6799 62.4186 -3.41423 66.0261 -1.78511L66.9807 -3.51448L68.437 -2.71058L67.4824 -0.981218C70.8466 1.24991 71.6997 4.17906 70.2806 6.8574L67.0039 5.04864C67.573 3.93176 67.3752 2.6766 65.9751 1.74936L63.6639 5.93625L64.8822 7.04221C67.4745 9.31633 68.1074 11.6548 66.7257 14.1579C65.1104 17.0841 62.0766 17.8795 58.1045 16.0075L57.1825 17.6777L55.7262 16.8738ZM62.3583 4.8593L64.5188 0.945469C63.225 0.320377 61.9014 0.599145 61.2985 1.69138C60.7383 2.70624 61.1179 3.78268 62.3583 4.8593ZM61.8551 9.21294L59.5439 13.3998C61.3155 14.2887 62.5855 13.9566 63.2613 12.7323C63.8793 11.6128 63.4609 10.4022 61.8551 9.21294Z"
                    fill="white" />
            </g>
            <g opacity="0.2" clip-path="url(#clip3_1_1338)">
                <path
                    d="M72.7262 42.8738L73.6406 41.2172C70.1382 39.0107 68.9675 35.936 70.5185 33.1048L73.7952 34.9136C73.2164 36.1557 73.7147 37.6302 75.0876 38.5959L77.5495 34.1359L76.5057 33.1441C74.0864 30.9654 73.487 28.5445 74.811 26.1462C76.371 23.32 79.4186 22.5857 83.0261 24.2148L83.9807 22.4855L85.437 23.2894L84.4824 25.0187C87.8465 27.2498 88.6997 30.179 87.2806 32.8573L84.0039 31.0486C84.573 29.9317 84.3752 28.6765 82.9751 27.7493L80.6639 31.9362L81.8822 33.0422C84.4745 35.3163 85.1074 37.6548 83.7257 40.1578C82.1104 43.0841 79.0766 43.8795 75.1045 42.0075L74.1825 43.6777L72.7262 42.8738ZM79.3583 30.8592L81.5188 26.9454C80.225 26.3203 78.9014 26.5991 78.2985 27.6913C77.7383 28.7062 78.1179 29.7826 79.3583 30.8592ZM78.8551 35.2129L76.5439 39.3998C78.3155 40.2886 79.5855 39.9565 80.2613 38.7323C80.8792 37.6127 80.4609 36.4021 78.8551 35.2129Z"
                    fill="white" />
            </g>
            <g opacity="0.2" clip-path="url(#clip4_1_1338)">
                <path
                    d="M56.7262 72.8738L57.6406 71.2172C54.1382 69.0107 52.9675 65.936 54.5185 63.1048L57.7952 64.9136C57.2164 66.1557 57.7147 67.6302 59.0876 68.5959L61.5495 64.1359L60.5057 63.1441C58.0864 60.9654 57.487 58.5445 58.811 56.1462C60.371 53.32 63.4186 52.5857 67.0261 54.2148L67.9807 52.4855L69.437 53.2894L68.4824 55.0187C71.8465 57.2498 72.6997 60.179 71.2806 62.8573L68.0039 61.0486C68.573 59.9317 68.3752 58.6765 66.9751 57.7493L64.6639 61.9362L65.8822 63.0422C68.4745 65.3163 69.1074 67.6548 67.7257 70.1578C66.1104 73.0841 63.0766 73.8795 59.1045 72.0075L58.1825 73.6777L56.7262 72.8738ZM63.3583 60.8592L65.5188 56.9454C64.225 56.3203 62.9014 56.5991 62.2985 57.6913C61.7383 58.7062 62.1179 59.7826 63.3583 60.8592ZM62.8551 65.2129L60.5439 69.3998C62.3155 70.2886 63.5855 69.9565 64.2613 68.7323C64.8792 67.6127 64.4609 66.4021 62.8551 65.2129Z"
                    fill="white" />
            </g>
            <g opacity="0.2" clip-path="url(#clip5_1_1338)">
                <path
                    d="M15.7262 88.8738L16.6406 87.2172C13.1382 85.0107 11.9675 81.936 13.5185 79.1048L16.7952 80.9136C16.2164 82.1557 16.7147 83.6302 18.0876 84.5959L20.5496 80.1359L19.5057 79.1441C17.0864 76.9654 16.487 74.5445 17.811 72.1462C19.371 69.32 22.4186 68.5857 26.0261 70.2148L26.9807 68.4855L28.437 69.2894L27.4824 71.0187C30.8466 73.2498 31.6997 76.179 30.2806 78.8573L27.0039 77.0486C27.573 75.9317 27.3752 74.6765 25.9751 73.7493L23.6639 77.9362L24.8822 79.0422C27.4745 81.3163 28.1074 83.6548 26.7257 86.1578C25.1104 89.0841 22.0766 89.8795 18.1045 88.0075L17.1825 89.6777L15.7262 88.8738ZM22.3583 76.8592L24.5188 72.9454C23.225 72.3203 21.9014 72.5991 21.2985 73.6913C20.7383 74.7062 21.1179 75.7826 22.3583 76.8592ZM21.8551 81.2129L19.5439 85.3998C21.3155 86.2886 22.5855 85.9565 23.2613 84.7323C23.8792 83.6127 23.4609 82.4021 21.8551 81.2129Z"
                    fill="white" />
            </g>
            <g opacity="0.2" clip-path="url(#clip6_1_1338)">
                <path
                    d="M3.7262 59.8738L4.64063 58.2172C1.13817 56.0107 -0.0324694 52.936 1.51848 50.1048L4.79517 51.9136C4.21639 53.1557 4.7147 54.6302 6.08763 55.5959L8.54955 51.1359L7.50574 50.1441C5.08638 47.9654 4.48705 45.5445 5.81096 43.1462C7.37101 40.32 10.4186 39.5857 14.0261 41.2148L14.9807 39.4855L16.437 40.2894L15.4824 42.0187C18.8466 44.2498 19.6997 47.179 18.2806 49.8573L15.0039 48.0486C15.573 46.9317 15.3752 45.6765 13.9751 44.7493L11.6639 48.9362L12.8822 50.0422C15.4745 52.3163 16.1074 54.6548 14.7257 57.1578C13.1104 60.0841 10.0766 60.8795 6.10447 59.0075L5.18251 60.6777L3.7262 59.8738ZM10.3583 47.8592L12.5188 43.9454C11.225 43.3203 9.90141 43.5991 9.29849 44.6913C8.73828 45.7062 9.11786 46.7826 10.3583 47.8592ZM9.85513 52.2129L7.54394 56.3998C9.31554 57.2886 10.5855 56.9565 11.2613 55.7323C11.8792 54.6127 11.4609 53.4021 9.85513 52.2129Z"
                    fill="white" />
            </g>
        </g>
        <g opacity="0.5">
            <g opacity="0.2" clip-path="url(#clip7_1_1338)">
                <path
                    d="M115.95 12.4228L117.506 9.60447C111.547 5.85044 109.555 0.619302 112.194 -4.19749L117.769 -1.12018C116.784 0.993094 117.632 3.50169 119.968 5.14465L124.156 -2.44323L122.381 -4.13066C118.264 -7.8373 117.245 -11.9561 119.497 -16.0365C122.151 -20.8447 127.336 -22.0941 133.474 -19.3224L135.098 -22.2646L137.576 -20.8969L135.952 -17.9547C141.675 -14.1588 143.127 -9.17531 140.712 -4.61855L135.138 -7.69586C136.106 -9.59606 135.769 -11.7315 133.387 -13.3091L129.455 -6.18574L131.528 -4.30412C135.938 -0.435074 137.015 3.54353 134.664 7.80204C131.916 12.7806 126.754 14.1338 119.997 10.9489L118.428 13.7905L115.95 12.4228ZM127.234 -8.018L130.909 -14.6768C128.708 -15.7403 126.456 -15.266 125.431 -13.4077C124.478 -11.6811 125.123 -9.8497 127.234 -8.018ZM126.378 -0.610972L122.446 6.51235C125.46 8.02462 127.62 7.45953 128.77 5.37673C129.821 3.47202 129.11 1.41232 126.378 -0.610972Z"
                    fill="white" />
            </g>
            <g opacity="0.2" clip-path="url(#clip8_1_1338)">
                <path
                    d="M141.726 24.8738L142.641 23.2173C139.138 21.0108 137.968 17.9361 139.518 15.1049L142.795 16.9136C142.216 18.1558 142.715 19.6303 144.088 20.5959L146.55 16.136L145.506 15.1442C143.086 12.9655 142.487 10.5446 143.811 8.14625C145.371 5.3201 148.419 4.58577 152.026 6.21489L152.981 4.48552L154.437 5.28942L153.482 7.01878C156.847 9.24991 157.7 12.1791 156.281 14.8574L153.004 13.0486C153.573 11.9318 153.375 10.6766 151.975 9.74936L149.664 13.9362L150.882 15.0422C153.474 17.3163 154.107 19.6548 152.726 22.1579C151.11 25.0841 148.077 25.8795 144.104 24.0075L143.183 25.6777L141.726 24.8738ZM148.358 12.8593L150.519 8.94547C149.225 8.32038 147.901 8.59915 147.298 9.69138C146.738 10.7062 147.118 11.7827 148.358 12.8593ZM147.855 17.2129L145.544 21.3998C147.316 22.2887 148.585 21.9566 149.261 20.7323C149.879 19.6128 149.461 18.4022 147.855 17.2129Z"
                    fill="white" />
            </g>
            <g opacity="0.2" clip-path="url(#clip9_1_1338)">
                <path
                    d="M100.726 40.8738L101.641 39.2172C98.1382 37.0107 96.9675 33.936 98.5185 31.1048L101.795 32.9136C101.216 34.1557 101.715 35.6302 103.088 36.5959L105.55 32.1359L104.506 31.1441C102.086 28.9654 101.487 26.5445 102.811 24.1462C104.371 21.32 107.419 20.5857 111.026 22.2148L111.981 20.4855L113.437 21.2894L112.482 23.0187C115.847 25.2498 116.7 28.179 115.281 30.8573L112.004 29.0486C112.573 27.9317 112.375 26.6765 110.975 25.7493L108.664 29.9362L109.882 31.0422C112.474 33.3163 113.107 35.6548 111.726 38.1578C110.11 41.0841 107.077 41.8795 103.104 40.0075L102.183 41.6777L100.726 40.8738ZM107.358 28.8592L109.519 24.9454C108.225 24.3203 106.901 24.5991 106.298 25.6913C105.738 26.7062 106.118 27.7826 107.358 28.8592ZM106.855 33.2129L104.544 37.3998C106.316 38.2886 107.585 37.9565 108.261 36.7323C108.879 35.6127 108.461 34.4021 106.855 33.2129Z"
                    fill="white" />
            </g>
            <g opacity="0.2" clip-path="url(#clip10_1_1338)">
                <path
                    d="M88.7262 11.8738L89.6406 10.2173C86.1382 8.01078 84.9675 4.93606 86.5185 2.10489L89.7952 3.91364C89.2164 5.15577 89.7147 6.63025 91.0876 7.59594L93.5496 3.13599L92.5057 2.14417C90.0864 -0.0344891 89.4871 -2.45539 90.811 -4.85375C92.371 -7.6799 95.4186 -8.41423 99.0261 -6.78511L99.9807 -8.51448L101.437 -7.71058L100.482 -5.98122C103.847 -3.75009 104.7 -0.820936 103.281 1.8574L100.004 0.0486414C100.573 -1.06824 100.375 -2.3234 98.9751 -3.25064L96.6639 0.936247L97.8822 2.04221C100.474 4.31633 101.107 6.65484 99.7257 9.15787C98.1104 12.0841 95.0766 12.8795 91.1045 11.0075L90.1825 12.6777L88.7262 11.8738ZM95.3583 -0.140702L97.5188 -4.05453C96.225 -4.67962 94.9014 -4.40085 94.2985 -3.30862C93.7383 -2.29376 94.1179 -1.21732 95.3583 -0.140702ZM94.8551 4.21294L92.5439 8.39983C94.3155 9.2887 95.5855 8.95656 96.2613 7.73235C96.8792 6.61281 96.4609 5.40217 94.8551 4.21294Z"
                    fill="white" />
            </g>
        </g>
        <g opacity="0.5">
            <g opacity="0.2" clip-path="url(#clip11_1_1338)">
                <path
                    d="M291.95 12.4228L293.506 9.60447C287.547 5.85044 285.555 0.619302 288.194 -4.19749L293.769 -1.12018C292.784 0.993094 293.632 3.50169 295.968 5.14465L300.156 -2.44323L298.381 -4.13066C294.264 -7.8373 293.245 -11.9561 295.497 -16.0365C298.151 -20.8447 303.336 -22.0941 309.474 -19.3224L311.098 -22.2646L313.576 -20.8969L311.952 -17.9547C317.675 -14.1588 319.127 -9.17531 316.712 -4.61855L311.138 -7.69586C312.106 -9.59606 311.769 -11.7315 309.387 -13.3091L305.455 -6.18574L307.528 -4.30412C311.938 -0.435074 313.015 3.54353 310.664 7.80204C307.916 12.7806 302.754 14.1338 295.997 10.9489L294.428 13.7905L291.95 12.4228ZM303.234 -8.018L306.909 -14.6768C304.708 -15.7403 302.456 -15.266 301.431 -13.4077C300.478 -11.6811 301.123 -9.8497 303.234 -8.018ZM302.378 -0.610972L298.446 6.51235C301.46 8.02462 303.62 7.45953 304.77 5.37673C305.821 3.47202 305.11 1.41232 302.378 -0.610972Z"
                    fill="white" />
            </g>
            <g opacity="0.2" clip-path="url(#clip12_1_1338)">
                <path
                    d="M317.726 24.8738L318.641 23.2173C315.138 21.0108 313.968 17.9361 315.518 15.1049L318.795 16.9136C318.216 18.1558 318.715 19.6303 320.088 20.5959L322.55 16.136L321.506 15.1442C319.086 12.9655 318.487 10.5446 319.811 8.14625C321.371 5.3201 324.419 4.58577 328.026 6.21489L328.981 4.48552L330.437 5.28942L329.482 7.01878C332.847 9.24991 333.7 12.1791 332.281 14.8574L329.004 13.0486C329.573 11.9318 329.375 10.6766 327.975 9.74936L325.664 13.9362L326.882 15.0422C329.474 17.3163 330.107 19.6548 328.726 22.1579C327.11 25.0841 324.077 25.8795 320.104 24.0075L319.183 25.6777L317.726 24.8738ZM324.358 12.8593L326.519 8.94547C325.225 8.32038 323.901 8.59915 323.298 9.69138C322.738 10.7062 323.118 11.7827 324.358 12.8593ZM323.855 17.2129L321.544 21.3998C323.316 22.2887 324.585 21.9566 325.261 20.7323C325.879 19.6128 325.461 18.4022 323.855 17.2129Z"
                    fill="white" />
            </g>
            <g opacity="0.2" clip-path="url(#clip13_1_1338)">
                <path
                    d="M276.726 40.8738L277.641 39.2172C274.138 37.0107 272.968 33.936 274.518 31.1048L277.795 32.9136C277.216 34.1557 277.715 35.6302 279.088 36.5959L281.55 32.1359L280.506 31.1441C278.086 28.9654 277.487 26.5445 278.811 24.1462C280.371 21.32 283.419 20.5857 287.026 22.2148L287.981 20.4855L289.437 21.2894L288.482 23.0187C291.847 25.2498 292.7 28.179 291.281 30.8573L288.004 29.0486C288.573 27.9317 288.375 26.6765 286.975 25.7493L284.664 29.9362L285.882 31.0422C288.474 33.3163 289.107 35.6548 287.726 38.1578C286.11 41.0841 283.077 41.8795 279.104 40.0075L278.183 41.6777L276.726 40.8738ZM283.358 28.8592L285.519 24.9454C284.225 24.3203 282.901 24.5991 282.298 25.6913C281.738 26.7062 282.118 27.7826 283.358 28.8592ZM282.855 33.2129L280.544 37.3998C282.316 38.2886 283.585 37.9565 284.261 36.7323C284.879 35.6127 284.461 34.4021 282.855 33.2129Z"
                    fill="white" />
            </g>
            <g opacity="0.2" clip-path="url(#clip14_1_1338)">
                <path
                    d="M264.726 11.8738L265.641 10.2173C262.138 8.01078 260.968 4.93606 262.518 2.10489L265.795 3.91364C265.216 5.15577 265.715 6.63025 267.088 7.59594L269.55 3.13599L268.506 2.14417C266.086 -0.0344891 265.487 -2.45539 266.811 -4.85375C268.371 -7.6799 271.419 -8.41423 275.026 -6.78511L275.981 -8.51448L277.437 -7.71058L276.482 -5.98122C279.847 -3.75009 280.7 -0.820936 279.281 1.8574L276.004 0.0486414C276.573 -1.06824 276.375 -2.3234 274.975 -3.25064L272.664 0.936247L273.882 2.04221C276.474 4.31633 277.107 6.65484 275.726 9.15787C274.11 12.0841 271.077 12.8795 267.104 11.0075L266.183 12.6777L264.726 11.8738ZM271.358 -0.140702L273.519 -4.05453C272.225 -4.67962 270.901 -4.40085 270.298 -3.30862C269.738 -2.29376 270.118 -1.21732 271.358 -0.140702ZM270.855 4.21294L268.544 8.39983C270.316 9.2887 271.585 8.95656 272.261 7.73235C272.879 6.61281 272.461 5.40217 270.855 4.21294Z"
                    fill="white" />
            </g>
        </g>
        <g opacity="0.5">
            <g opacity="0.2" clip-path="url(#clip15_1_1338)">
                <path
                    d="M35.2175 108.419L36.2482 106.551C32.3003 104.064 30.9808 100.599 32.729 97.4074L36.4224 99.4461C35.77 100.846 36.3317 102.508 37.8792 103.597L40.6542 98.5696L39.4777 97.4516C36.7506 94.9959 36.0751 92.2671 37.5673 89.5638C39.3258 86.3782 42.761 85.5505 46.8272 87.3868L47.9032 85.4375L49.5447 86.3436L48.4687 88.2929C52.2607 90.8078 53.2224 94.1094 51.6228 97.1284L47.9294 95.0896C48.5708 93.8307 48.3479 92.4159 46.7697 91.3707L44.1646 96.0901L45.5379 97.3367C48.4598 99.9 49.1733 102.536 47.6159 105.357C45.7951 108.656 42.3755 109.552 37.8982 107.442L36.859 109.325L35.2175 108.419ZM42.693 94.8762L45.1282 90.4646C43.6699 89.76 42.178 90.0743 41.4984 91.3054C40.8669 92.4493 41.2948 93.6626 42.693 94.8762ZM42.1258 99.7835L39.5207 104.503C41.5176 105.505 42.9491 105.13 43.7108 103.75C44.4074 102.489 43.9358 101.124 42.1258 99.7835Z"
                    fill="white" />
            </g>
            <g opacity="0.2" clip-path="url(#clip16_1_1338)">
                <path
                    d="M44.9503 141.423L46.506 138.605C40.5471 134.851 38.5555 129.619 41.1942 124.803L46.769 127.88C45.7843 129.993 46.632 132.502 48.9679 134.145L53.1564 126.557L51.3806 124.869C47.2644 121.163 46.2447 117.044 48.4971 112.964C51.1513 108.155 56.3364 106.906 62.4738 109.678L64.098 106.735L66.5756 108.103L64.9515 111.045C70.6751 114.841 72.1267 119.825 69.7123 124.382L64.1375 121.304C65.1056 119.404 64.7691 117.269 62.3871 115.691L58.455 122.814L60.5277 124.696C64.9381 128.565 66.015 132.544 63.6642 136.802C60.916 141.781 55.7544 143.134 48.9965 139.949L47.4279 142.791L44.9503 141.423ZM56.2337 120.982L59.9094 114.323C57.7083 113.26 55.4564 113.734 54.4306 115.592C53.4775 117.319 54.1233 119.15 56.2337 120.982ZM55.3777 128.389L51.4455 135.512C54.4596 137.025 56.6202 136.46 57.77 134.377C58.8214 132.472 58.1097 130.412 55.3777 128.389Z"
                    fill="white" />
            </g>
            <g opacity="0.2" clip-path="url(#clip17_1_1338)">
                <path
                    d="M69.7262 97.8738L70.6406 96.2172C67.1382 94.0107 65.9675 90.936 67.5185 88.1048L70.7952 89.9136C70.2164 91.1557 70.7147 92.6302 72.0876 93.5959L74.5496 89.1359L73.5057 88.1441C71.0864 85.9654 70.4871 83.5445 71.811 81.1462C73.371 78.32 76.4186 77.5857 80.0261 79.2148L80.9807 77.4855L82.437 78.2894L81.4824 80.0187C84.8466 82.2498 85.6997 85.179 84.2806 87.8573L81.0039 86.0486C81.573 84.9317 81.3752 83.6765 79.9751 82.7493L77.6639 86.9362L78.8822 88.0422C81.4745 90.3163 82.1074 92.6548 80.7257 95.1578C79.1104 98.0841 76.0766 98.8795 72.1045 97.0075L71.1825 98.6777L69.7262 97.8738ZM76.3583 85.8592L78.5188 81.9454C77.225 81.3203 75.9014 81.5991 75.2985 82.6913C74.7383 83.7062 75.1179 84.7826 76.3583 85.8592ZM75.8551 90.2129L73.5439 94.3998C75.3155 95.2886 76.5855 94.9565 77.2613 93.7323C77.8793 92.6127 77.4609 91.4021 75.8551 90.2129Z"
                    fill="white" />
            </g>
            <g opacity="0.2" clip-path="url(#clip18_1_1338)">
                <path
                    d="M86.7262 123.874L87.6406 122.217C84.1382 120.011 82.9675 116.936 84.5185 114.105L87.7952 115.914C87.2164 117.156 87.7147 118.63 89.0876 119.596L91.5495 115.136L90.5057 114.144C88.0864 111.965 87.487 109.545 88.811 107.146C90.371 104.32 93.4186 103.586 97.0261 105.215L97.9807 103.485L99.437 104.289L98.4824 106.019C101.847 108.25 102.7 111.179 101.281 113.857L98.0039 112.049C98.573 110.932 98.3752 109.677 96.9751 108.749L94.6639 112.936L95.8822 114.042C98.4745 116.316 99.1074 118.655 97.7257 121.158C96.1104 124.084 93.0766 124.879 89.1045 123.007L88.1825 124.678L86.7262 123.874ZM93.3583 111.859L95.5188 107.945C94.225 107.32 92.9014 107.599 92.2985 108.691C91.7383 109.706 92.1179 110.783 93.3583 111.859ZM92.8551 116.213L90.5439 120.4C92.3155 121.289 93.5855 120.956 94.2613 119.732C94.8792 118.613 94.4609 117.402 92.8551 116.213Z"
                    fill="white" />
            </g>
            <g opacity="0.2" clip-path="url(#clip19_1_1338)">
                <path
                    d="M17.7262 140.874L18.6406 139.217C15.1382 137.011 13.9675 133.936 15.5185 131.105L18.7952 132.914C18.2164 134.156 18.7147 135.63 20.0876 136.596L22.5496 132.136L21.5057 131.144C19.0864 128.965 18.487 126.545 19.811 124.146C21.371 121.32 24.4186 120.586 28.0261 122.215L28.9807 120.485L30.437 121.289L29.4824 123.019C32.8466 125.25 33.6997 128.179 32.2806 130.857L29.0039 129.049C29.573 127.932 29.3752 126.677 27.9751 125.749L25.6639 129.936L26.8822 131.042C29.4745 133.316 30.1074 135.655 28.7257 138.158C27.1104 141.084 24.0766 141.879 20.1045 140.007L19.1825 141.678L17.7262 140.874ZM24.3583 128.859L26.5188 124.945C25.225 124.32 23.9014 124.599 23.2985 125.691C22.7383 126.706 23.1179 127.783 24.3583 128.859ZM23.8551 133.213L21.5439 137.4C23.3155 138.289 24.5855 137.956 25.2613 136.732C25.8792 135.613 25.4609 134.402 23.8551 133.213Z"
                    fill="white" />
            </g>
        </g>
        <g opacity="0.5">
            <g opacity="0.2" clip-path="url(#clip20_1_1338)">
                <path
                    d="M121.217 60.4187L122.248 58.5514C118.3 56.0643 116.981 52.5986 118.729 49.4074L122.422 51.4461C121.77 52.8462 122.332 54.5082 123.879 55.5967L126.654 50.5696L125.478 49.4516C122.751 46.9959 122.075 44.2671 123.567 41.5638C125.326 38.3782 128.761 37.5505 132.827 39.3868L133.903 37.4375L135.545 38.3436L134.469 40.2929C138.261 42.8078 139.222 46.1094 137.623 49.1284L133.929 47.0896C134.571 45.8307 134.348 44.4159 132.77 43.3707L130.165 48.0901L131.538 49.3367C134.46 51.9 135.173 54.5359 133.616 57.3573C131.795 60.6557 128.375 61.5522 123.898 59.4422L122.859 61.3248L121.217 60.4187ZM128.693 46.8762L131.128 42.4646C129.67 41.76 128.178 42.0743 127.498 43.3054C126.867 44.4493 127.295 45.6626 128.693 46.8762ZM128.126 51.7835L125.521 56.5028C127.518 57.5048 128.949 57.1304 129.711 55.7505C130.407 54.4886 129.936 53.124 128.126 51.7835Z"
                    fill="white" />
            </g>
            <g opacity="0.2" clip-path="url(#clip21_1_1338)">
                <path
                    d="M130.95 93.4229L132.506 90.6045C126.547 86.8505 124.555 81.6194 127.194 76.8026L132.769 79.8799C131.784 81.9932 132.632 84.5018 134.968 86.1447L139.156 78.5568L137.381 76.8694C133.264 73.1628 132.245 69.044 134.497 64.9636C137.151 60.1553 142.336 58.906 148.474 61.6777L150.098 58.7354L152.576 60.1031L150.952 63.0454C156.675 66.8413 158.127 71.8247 155.712 76.3815L150.138 73.3042C151.106 71.404 150.769 69.2685 148.387 67.691L144.455 74.8143L146.528 76.6959C150.938 80.565 152.015 84.5436 149.664 88.8021C146.916 93.7807 141.754 95.1339 134.997 91.949L133.428 94.7906L130.95 93.4229ZM142.234 72.9821L145.909 66.3233C143.708 65.2598 141.456 65.7341 140.431 67.5923C139.478 69.319 140.123 71.1504 142.234 72.9821ZM141.378 80.3891L137.446 87.5124C140.46 89.0247 142.62 88.4596 143.77 86.3768C144.821 84.4721 144.11 82.4124 141.378 80.3891Z"
                    fill="white" />
            </g>
            <g opacity="0.2" clip-path="url(#clip22_1_1338)">
                <path
                    d="M155.726 49.8738L156.641 48.2172C153.138 46.0107 151.968 42.936 153.518 40.1048L156.795 41.9136C156.216 43.1557 156.715 44.6302 158.088 45.5959L160.55 41.1359L159.506 40.1441C157.086 37.9654 156.487 35.5445 157.811 33.1462C159.371 30.32 162.419 29.5857 166.026 31.2148L166.981 29.4855L168.437 30.2894L167.482 32.0187C170.847 34.2498 171.7 37.179 170.281 39.8573L167.004 38.0486C167.573 36.9317 167.375 35.6765 165.975 34.7493L163.664 38.9362L164.882 40.0422C167.474 42.3163 168.107 44.6548 166.726 47.1578C165.11 50.0841 162.077 50.8795 158.104 49.0075L157.183 50.6777L155.726 49.8738ZM162.358 37.8592L164.519 33.9454C163.225 33.3203 161.901 33.5991 161.298 34.6913C160.738 35.7062 161.118 36.7826 162.358 37.8592ZM161.855 42.2129L159.544 46.3998C161.316 47.2886 162.585 46.9565 163.261 45.7323C163.879 44.6127 163.461 43.4021 161.855 42.2129Z"
                    fill="white" />
            </g>
            <g opacity="0.2" clip-path="url(#clip23_1_1338)">
                <path
                    d="M172.726 75.8738L173.641 74.2172C170.138 72.0107 168.968 68.936 170.518 66.1048L173.795 67.9136C173.216 69.1557 173.715 70.6302 175.088 71.5959L177.55 67.1359L176.506 66.1441C174.086 63.9654 173.487 61.5445 174.811 59.1462C176.371 56.32 179.419 55.5857 183.026 57.2148L183.981 55.4855L185.437 56.2894L184.482 58.0187C187.847 60.2498 188.7 63.179 187.281 65.8573L184.004 64.0486C184.573 62.9317 184.375 61.6765 182.975 60.7493L180.664 64.9362L181.882 66.0422C184.474 68.3163 185.107 70.6548 183.726 73.1578C182.11 76.0841 179.077 76.8795 175.104 75.0075L174.183 76.6777L172.726 75.8738ZM179.358 63.8592L181.519 59.9454C180.225 59.3203 178.901 59.5991 178.298 60.6913C177.738 61.7062 178.118 62.7826 179.358 63.8592ZM178.855 68.2129L176.544 72.3998C178.316 73.2886 179.585 72.9565 180.261 71.7323C180.879 70.6127 180.461 69.4021 178.855 68.2129Z"
                    fill="white" />
            </g>
            <g opacity="0.2" clip-path="url(#clip24_1_1338)">
                <path
                    d="M156.726 105.874L157.641 104.217C154.138 102.011 152.968 98.936 154.518 96.1048L157.795 97.9136C157.216 99.1557 157.715 100.63 159.088 101.596L161.55 97.1359L160.506 96.1441C158.086 93.9654 157.487 91.5445 158.811 89.1462C160.371 86.32 163.419 85.5857 167.026 87.2148L167.981 85.4855L169.437 86.2894L168.482 88.0187C171.847 90.2498 172.7 93.179 171.281 95.8573L168.004 94.0486C168.573 92.9317 168.375 91.6765 166.975 90.7493L164.664 94.9362L165.882 96.0422C168.474 98.3163 169.107 100.655 167.726 103.158C166.11 106.084 163.077 106.879 159.104 105.007L158.183 106.678L156.726 105.874ZM163.358 93.8592L165.519 89.9454C164.225 89.3203 162.901 89.5991 162.298 90.6913C161.738 91.7062 162.118 92.7826 163.358 93.8592ZM162.855 98.2129L160.544 102.4C162.316 103.289 163.585 102.956 164.261 101.732C164.879 100.613 164.461 99.4021 162.855 98.2129Z"
                    fill="white" />
            </g>
            <g opacity="0.2" clip-path="url(#clip25_1_1338)">
                <path
                    d="M115.726 121.874L116.641 120.217C113.138 118.011 111.968 114.936 113.518 112.105L116.795 113.914C116.216 115.156 116.715 116.63 118.088 117.596L120.55 113.136L119.506 112.144C117.086 109.965 116.487 107.545 117.811 105.146C119.371 102.32 122.419 101.586 126.026 103.215L126.981 101.485L128.437 102.289L127.482 104.019C130.847 106.25 131.7 109.179 130.281 111.857L127.004 110.049C127.573 108.932 127.375 107.677 125.975 106.749L123.664 110.936L124.882 112.042C127.474 114.316 128.107 116.655 126.726 119.158C125.11 122.084 122.077 122.879 118.104 121.007L117.183 122.678L115.726 121.874ZM122.358 109.859L124.519 105.945C123.225 105.32 121.901 105.599 121.298 106.691C120.738 107.706 121.118 108.783 122.358 109.859ZM121.855 114.213L119.544 118.4C121.316 119.289 122.585 118.956 123.261 117.732C123.879 116.613 123.461 115.402 121.855 114.213Z"
                    fill="white" />
            </g>
            <g opacity="0.2" clip-path="url(#clip26_1_1338)">
                <path
                    d="M103.726 92.8738L104.641 91.2172C101.138 89.0107 99.9675 85.936 101.518 83.1048L104.795 84.9136C104.216 86.1557 104.715 87.6302 106.088 88.5959L108.55 84.1359L107.506 83.1441C105.086 80.9654 104.487 78.5445 105.811 76.1462C107.371 73.32 110.419 72.5857 114.026 74.2148L114.981 72.4855L116.437 73.2894L115.482 75.0187C118.847 77.2498 119.7 80.179 118.281 82.8573L115.004 81.0486C115.573 79.9317 115.375 78.6765 113.975 77.7493L111.664 81.9362L112.882 83.0422C115.474 85.3163 116.107 87.6548 114.726 90.1578C113.11 93.0841 110.077 93.8795 106.104 92.0075L105.183 93.6777L103.726 92.8738ZM110.358 80.8592L112.519 76.9454C111.225 76.3203 109.901 76.5991 109.298 77.6913C108.738 78.7062 109.118 79.7826 110.358 80.8592ZM109.855 85.2129L107.544 89.3998C109.316 90.2886 110.585 89.9565 111.261 88.7323C111.879 87.6127 111.461 86.4021 109.855 85.2129Z"
                    fill="white" />
            </g>
        </g>
        <g opacity="0.5">
            <g opacity="0.2" clip-path="url(#clip27_1_1338)">
                <path
                    d="M201.95 20.4228L203.506 17.6045C197.547 13.8504 195.555 8.6193 198.194 3.80251L203.769 6.87982C202.784 8.99309 203.632 11.5017 205.968 13.1447L210.156 5.55677L208.381 3.86934C204.264 0.162702 203.245 -3.95608 205.497 -8.0365C208.151 -12.8447 213.336 -14.0941 219.474 -11.3224L221.098 -14.2646L223.576 -12.8969L221.952 -9.95471C227.675 -6.15881 229.127 -1.17531 226.712 3.38145L221.138 0.304136C222.106 -1.59606 221.769 -3.73151 219.387 -5.30906L215.455 1.81426L217.528 3.69588C221.938 7.56493 223.015 11.5435 220.664 15.802C217.916 20.7806 212.754 22.1338 205.997 18.9489L204.428 21.7905L201.95 20.4228ZM213.234 -0.018001L216.909 -6.67676C214.708 -7.74025 212.456 -7.26597 211.431 -5.40771C210.478 -3.68108 211.123 -1.8497 213.234 -0.018001ZM212.378 7.38903L208.446 14.5123C211.46 16.0246 213.62 15.4595 214.77 13.3767C215.821 11.472 215.11 9.41232 212.378 7.38903Z"
                    fill="white" />
            </g>
            <g opacity="0.2" clip-path="url(#clip28_1_1338)">
                <path
                    d="M243.726 2.87384L244.641 1.21729C241.138 -0.989219 239.968 -4.06394 241.518 -6.89511L244.795 -5.08636C244.216 -3.84423 244.715 -2.36975 246.088 -1.40406L248.55 -5.86401L247.506 -6.85583C245.086 -9.03449 244.487 -11.4554 245.811 -13.8538C247.371 -16.6799 250.419 -17.4142 254.026 -15.7851L254.981 -17.5145L256.437 -16.7106L255.482 -14.9812C258.847 -12.7501 259.7 -9.82094 258.281 -7.1426L255.004 -8.95136C255.573 -10.0682 255.375 -11.3234 253.975 -12.2506L251.664 -8.06375L252.882 -6.95779C255.474 -4.68367 256.107 -2.34516 254.726 0.157874C253.11 3.08414 250.077 3.87953 246.104 2.00753L245.183 3.67773L243.726 2.87384ZM250.358 -9.1407L252.519 -13.0545C251.225 -13.6796 249.901 -13.4009 249.298 -12.3086C248.738 -11.2938 249.118 -10.2173 250.358 -9.1407ZM249.855 -4.78706L247.544 -0.600171C249.316 0.288698 250.585 -0.0434449 251.261 -1.26765C251.879 -2.38719 251.461 -3.59783 249.855 -4.78706Z"
                    fill="white" />
            </g>
            <g opacity="0.2" clip-path="url(#clip29_1_1338)">
                <path
                    d="M227.726 32.8738L228.641 31.2172C225.138 29.0107 223.968 25.936 225.518 23.1048L228.795 24.9136C228.216 26.1557 228.715 27.6302 230.088 28.5959L232.55 24.1359L231.506 23.1441C229.086 20.9654 228.487 18.5445 229.811 16.1462C231.371 13.32 234.419 12.5857 238.026 14.2148L238.981 12.4855L240.437 13.2894L239.482 15.0187C242.847 17.2498 243.7 20.179 242.281 22.8573L239.004 21.0486C239.573 19.9317 239.375 18.6765 237.975 17.7493L235.664 21.9362L236.882 23.0422C239.474 25.3163 240.107 27.6548 238.726 30.1578C237.11 33.0841 234.077 33.8795 230.104 32.0075L229.183 33.6777L227.726 32.8738ZM234.358 20.8592L236.519 16.9454C235.225 16.3203 233.901 16.5991 233.298 17.6913C232.738 18.7062 233.118 19.7826 234.358 20.8592ZM233.855 25.2129L231.544 29.3998C233.316 30.2886 234.585 29.9565 235.261 28.7323C235.879 27.6127 235.461 26.4021 233.855 25.2129Z"
                    fill="white" />
            </g>
            <g opacity="0.2" clip-path="url(#clip30_1_1338)">
                <path
                    d="M186.726 48.8738L187.641 47.2172C184.138 45.0107 182.968 41.936 184.518 39.1048L187.795 40.9136C187.216 42.1557 187.715 43.6302 189.088 44.5959L191.55 40.1359L190.506 39.1441C188.086 36.9654 187.487 34.5445 188.811 32.1462C190.371 29.32 193.419 28.5857 197.026 30.2148L197.981 28.4855L199.437 29.2894L198.482 31.0187C201.847 33.2498 202.7 36.179 201.281 38.8573L198.004 37.0486C198.573 35.9317 198.375 34.6765 196.975 33.7493L194.664 37.9362L195.882 39.0422C198.474 41.3163 199.107 43.6548 197.726 46.1578C196.11 49.0841 193.077 49.8795 189.104 48.0075L188.183 49.6777L186.726 48.8738ZM193.358 36.8592L195.519 32.9454C194.225 32.3203 192.901 32.5991 192.298 33.6913C191.738 34.7062 192.118 35.7826 193.358 36.8592ZM192.855 41.2129L190.544 45.3998C192.316 46.2886 193.585 45.9565 194.261 44.7323C194.879 43.6127 194.461 42.4021 192.855 41.2129Z"
                    fill="white" />
            </g>
            <g opacity="0.2" clip-path="url(#clip31_1_1338)">
                <path
                    d="M174.726 19.8738L175.641 18.2173C172.138 16.0108 170.968 12.9361 172.518 10.1049L175.795 11.9136C175.216 13.1558 175.715 14.6303 177.088 15.5959L179.55 11.136L178.506 10.1442C176.086 7.96551 175.487 5.54461 176.811 3.14625C178.371 0.3201 181.419 -0.414231 185.026 1.21489L185.981 -0.514476L187.437 0.289416L186.482 2.01878C189.847 4.24991 190.7 7.17906 189.281 9.8574L186.004 8.04864C186.573 6.93176 186.375 5.6766 184.975 4.74936L182.664 8.93625L183.882 10.0422C186.474 12.3163 187.107 14.6548 185.726 17.1579C184.11 20.0841 181.077 20.8795 177.104 19.0075L176.183 20.6777L174.726 19.8738ZM181.358 7.8593L183.519 3.94547C182.225 3.32038 180.901 3.59915 180.298 4.69138C179.738 5.70624 180.118 6.78268 181.358 7.8593ZM180.855 12.2129L178.544 16.3998C180.316 17.2887 181.585 16.9566 182.261 15.7323C182.879 14.6128 182.461 13.4022 180.855 12.2129Z"
                    fill="white" />
            </g>
        </g>
        <g opacity="0.5">
            <g opacity="0.2" clip-path="url(#clip32_1_1338)">
                <path
                    d="M207.217 65.4187L208.248 63.5514C204.3 61.0643 202.981 57.5986 204.729 54.4074L208.422 56.4461C207.77 57.8462 208.332 59.5082 209.879 60.5967L212.654 55.5696L211.478 54.4516C208.751 51.9959 208.075 49.2671 209.567 46.5638C211.326 43.3782 214.761 42.5505 218.827 44.3868L219.903 42.4375L221.545 43.3436L220.469 45.2929C224.261 47.8078 225.222 51.1094 223.623 54.1284L219.929 52.0896C220.571 50.8307 220.348 49.4159 218.77 48.3707L216.165 53.0901L217.538 54.3367C220.46 56.9 221.173 59.5359 219.616 62.3573C217.795 65.6557 214.375 66.5522 209.898 64.4422L208.859 66.3248L207.217 65.4187ZM214.693 51.8762L217.128 47.4646C215.67 46.76 214.178 47.0743 213.498 48.3054C212.867 49.4493 213.295 50.6626 214.693 51.8762ZM214.126 56.7835L211.521 61.5028C213.518 62.5048 214.949 62.1304 215.711 60.7505C216.407 59.4886 215.936 58.124 214.126 56.7835Z"
                    fill="white" />
            </g>
            <g opacity="0.2" clip-path="url(#clip33_1_1338)">
                <path
                    d="M216.95 98.4229L218.506 95.6045C212.547 91.8505 210.555 86.6194 213.194 81.8026L218.769 84.8799C217.784 86.9932 218.632 89.5018 220.968 91.1447L225.156 83.5568L223.381 81.8694C219.264 78.1628 218.245 74.044 220.497 69.9636C223.151 65.1553 228.336 63.906 234.474 66.6777L236.098 63.7354L238.576 65.1031L236.952 68.0454C242.675 71.8413 244.127 76.8247 241.712 81.3815L236.138 78.3042C237.106 76.404 236.769 74.2685 234.387 72.691L230.455 79.8143L232.528 81.6959C236.938 85.565 238.015 89.5436 235.664 93.8021C232.916 98.7807 227.754 100.134 220.997 96.949L219.428 99.7906L216.95 98.4229ZM228.234 77.9821L231.909 71.3233C229.708 70.2598 227.456 70.7341 226.431 72.5923C225.478 74.319 226.123 76.1504 228.234 77.9821ZM227.378 85.3891L223.446 92.5124C226.46 94.0247 228.62 93.4596 229.77 91.3768C230.821 89.4721 230.11 87.4124 227.378 85.3891Z"
                    fill="white" />
            </g>
            <g opacity="0.2" clip-path="url(#clip34_1_1338)">
                <path
                    d="M241.726 54.8738L242.641 53.2172C239.138 51.0107 237.968 47.936 239.518 45.1048L242.795 46.9136C242.216 48.1557 242.715 49.6302 244.088 50.5959L246.55 46.1359L245.506 45.1441C243.086 42.9654 242.487 40.5445 243.811 38.1462C245.371 35.32 248.419 34.5857 252.026 36.2148L252.981 34.4855L254.437 35.2894L253.482 37.0187C256.847 39.2498 257.7 42.179 256.281 44.8573L253.004 43.0486C253.573 41.9317 253.375 40.6765 251.975 39.7493L249.664 43.9362L250.882 45.0422C253.474 47.3163 254.107 49.6548 252.726 52.1578C251.11 55.0841 248.077 55.8795 244.104 54.0075L243.183 55.6777L241.726 54.8738ZM248.358 42.8592L250.519 38.9454C249.225 38.3203 247.901 38.5991 247.298 39.6913C246.738 40.7062 247.118 41.7826 248.358 42.8592ZM247.855 47.2129L245.544 51.3998C247.316 52.2886 248.585 51.9565 249.261 50.7323C249.879 49.6127 249.461 48.4021 247.855 47.2129Z"
                    fill="white" />
            </g>
            <g opacity="0.2" clip-path="url(#clip35_1_1338)">
                <path
                    d="M258.726 80.8738L259.641 79.2172C256.138 77.0107 254.968 73.936 256.518 71.1048L259.795 72.9136C259.216 74.1557 259.715 75.6302 261.088 76.5959L263.55 72.1359L262.506 71.1441C260.086 68.9654 259.487 66.5445 260.811 64.1462C262.371 61.32 265.419 60.5857 269.026 62.2148L269.981 60.4855L271.437 61.2894L270.482 63.0187C273.847 65.2498 274.7 68.179 273.281 70.8573L270.004 69.0486C270.573 67.9317 270.375 66.6765 268.975 65.7493L266.664 69.9362L267.882 71.0422C270.474 73.3163 271.107 75.6548 269.726 78.1578C268.11 81.0841 265.077 81.8795 261.104 80.0075L260.183 81.6777L258.726 80.8738ZM265.358 68.8592L267.519 64.9454C266.225 64.3203 264.901 64.5991 264.298 65.6913C263.738 66.7062 264.118 67.7826 265.358 68.8592ZM264.855 73.2129L262.544 77.3998C264.316 78.2886 265.585 77.9565 266.261 76.7323C266.879 75.6127 266.461 74.4021 264.855 73.2129Z"
                    fill="white" />
            </g>
            <g opacity="0.2" clip-path="url(#clip36_1_1338)">
                <path
                    d="M242.726 110.874L243.641 109.217C240.138 107.011 238.968 103.936 240.518 101.105L243.795 102.914C243.216 104.156 243.715 105.63 245.088 106.596L247.55 102.136L246.506 101.144C244.086 98.9654 243.487 96.5445 244.811 94.1462C246.371 91.32 249.419 90.5857 253.026 92.2148L253.981 90.4855L255.437 91.2894L254.482 93.0187C257.847 95.2498 258.7 98.179 257.281 100.857L254.004 99.0486C254.573 97.9317 254.375 96.6765 252.975 95.7493L250.664 99.9362L251.882 101.042C254.474 103.316 255.107 105.655 253.726 108.158C252.11 111.084 249.077 111.879 245.104 110.007L244.183 111.678L242.726 110.874ZM249.358 98.8592L251.519 94.9454C250.225 94.3203 248.901 94.5991 248.298 95.6913C247.738 96.7062 248.118 97.7826 249.358 98.8592ZM248.855 103.213L246.544 107.4C248.316 108.289 249.585 107.956 250.261 106.732C250.879 105.613 250.461 104.402 248.855 103.213Z"
                    fill="white" />
            </g>
            <g opacity="0.2" clip-path="url(#clip37_1_1338)">
                <path
                    d="M201.726 126.874L202.641 125.217C199.138 123.011 197.968 119.936 199.518 117.105L202.795 118.914C202.216 120.156 202.715 121.63 204.088 122.596L206.55 118.136L205.506 117.144C203.086 114.965 202.487 112.545 203.811 110.146C205.371 107.32 208.419 106.586 212.026 108.215L212.981 106.485L214.437 107.289L213.482 109.019C216.847 111.25 217.7 114.179 216.281 116.857L213.004 115.049C213.573 113.932 213.375 112.677 211.975 111.749L209.664 115.936L210.882 117.042C213.474 119.316 214.107 121.655 212.726 124.158C211.11 127.084 208.077 127.879 204.104 126.007L203.183 127.678L201.726 126.874ZM208.358 114.859L210.519 110.945C209.225 110.32 207.901 110.599 207.298 111.691C206.738 112.706 207.118 113.783 208.358 114.859ZM207.855 119.213L205.544 123.4C207.316 124.289 208.585 123.956 209.261 122.732C209.879 121.613 209.461 120.402 207.855 119.213Z"
                    fill="white" />
            </g>
            <g opacity="0.2" clip-path="url(#clip38_1_1338)">
                <path
                    d="M189.726 97.8738L190.641 96.2172C187.138 94.0107 185.968 90.936 187.518 88.1048L190.795 89.9136C190.216 91.1557 190.715 92.6302 192.088 93.5959L194.55 89.1359L193.506 88.1441C191.086 85.9654 190.487 83.5445 191.811 81.1462C193.371 78.32 196.419 77.5857 200.026 79.2148L200.981 77.4855L202.437 78.2894L201.482 80.0187C204.847 82.2498 205.7 85.179 204.281 87.8573L201.004 86.0486C201.573 84.9317 201.375 83.6765 199.975 82.7493L197.664 86.9362L198.882 88.0422C201.474 90.3163 202.107 92.6548 200.726 95.1578C199.11 98.0841 196.077 98.8795 192.104 97.0075L191.183 98.6777L189.726 97.8738ZM196.358 85.8592L198.519 81.9454C197.225 81.3203 195.901 81.5991 195.298 82.6913C194.738 83.7062 195.118 84.7826 196.358 85.8592ZM195.855 90.2129L193.544 94.3998C195.316 95.2886 196.585 94.9565 197.261 93.7323C197.879 92.6127 197.461 91.4021 195.855 90.2129Z"
                    fill="white" />
            </g>
        </g>
        <g opacity="0.5">
            <g opacity="0.2" clip-path="url(#clip39_1_1338)">
                <path
                    d="M300.217 58.4187L301.248 56.5514C297.3 54.0643 295.981 50.5986 297.729 47.4074L301.422 49.4461C300.77 50.8462 301.332 52.5082 302.879 53.5967L305.654 48.5696L304.478 47.4516C301.751 44.9959 301.075 42.2671 302.567 39.5638C304.326 36.3782 307.761 35.5505 311.827 37.3868L312.903 35.4375L314.545 36.3436L313.469 38.2929C317.261 40.8078 318.222 44.1094 316.623 47.1284L312.929 45.0896C313.571 43.8307 313.348 42.4159 311.77 41.3707L309.165 46.0901L310.538 47.3367C313.46 49.9 314.173 52.5359 312.616 55.3573C310.795 58.6557 307.375 59.5522 302.898 57.4422L301.859 59.3248L300.217 58.4187ZM307.693 44.8762L310.128 40.4646C308.67 39.76 307.178 40.0743 306.498 41.3054C305.867 42.4493 306.295 43.6626 307.693 44.8762ZM307.126 49.7835L304.521 54.5028C306.518 55.5048 307.949 55.1304 308.711 53.7505C309.407 52.4886 308.936 51.124 307.126 49.7835Z"
                    fill="white" />
            </g>
            <g opacity="0.2" clip-path="url(#clip40_1_1338)">
                <path
                    d="M309.95 91.4229L311.506 88.6045C305.547 84.8505 303.555 79.6194 306.194 74.8026L311.769 77.8799C310.784 79.9932 311.632 82.5018 313.968 84.1447L318.156 76.5568L316.381 74.8694C312.264 71.1628 311.245 67.044 313.497 62.9636C316.151 58.1553 321.336 56.906 327.474 59.6777L329.098 56.7354L331.576 58.1031L329.952 61.0454C335.675 64.8413 337.127 69.8247 334.712 74.3815L329.138 71.3042C330.106 69.404 329.769 67.2685 327.387 65.691L323.455 72.8143L325.528 74.6959C329.938 78.565 331.015 82.5436 328.664 86.8021C325.916 91.7807 320.754 93.1339 313.997 89.949L312.428 92.7906L309.95 91.4229ZM321.234 70.9821L324.909 64.3233C322.708 63.2598 320.456 63.7341 319.431 65.5923C318.478 67.319 319.123 69.1504 321.234 70.9821ZM320.378 78.3891L316.446 85.5124C319.46 87.0247 321.62 86.4596 322.77 84.3768C323.821 82.4721 323.11 80.4124 320.378 78.3891Z"
                    fill="white" />
            </g>
            <g opacity="0.2" clip-path="url(#clip41_1_1338)">
                <path
                    d="M334.726 47.8738L335.641 46.2172C332.138 44.0107 330.968 40.936 332.518 38.1048L335.795 39.9136C335.216 41.1557 335.715 42.6302 337.088 43.5959L339.55 39.1359L338.506 38.1441C336.086 35.9654 335.487 33.5445 336.811 31.1462C338.371 28.32 341.419 27.5857 345.026 29.2148L345.981 27.4855L347.437 28.2894L346.482 30.0187C349.847 32.2498 350.7 35.179 349.281 37.8573L346.004 36.0486C346.573 34.9317 346.375 33.6765 344.975 32.7493L342.664 36.9362L343.882 38.0422C346.474 40.3163 347.107 42.6548 345.726 45.1578C344.11 48.0841 341.077 48.8795 337.104 47.0075L336.183 48.6777L334.726 47.8738ZM341.358 35.8592L343.519 31.9454C342.225 31.3203 340.901 31.5991 340.298 32.6913C339.738 33.7062 340.118 34.7826 341.358 35.8592ZM340.855 40.2129L338.544 44.3998C340.316 45.2886 341.585 44.9565 342.261 43.7323C342.879 42.6127 342.461 41.4021 340.855 40.2129Z"
                    fill="white" />
            </g>
            <g opacity="0.2" clip-path="url(#clip42_1_1338)">
                <path
                    d="M351.726 73.8738L352.641 72.2172C349.138 70.0107 347.968 66.936 349.518 64.1048L352.795 65.9136C352.216 67.1557 352.715 68.6302 354.088 69.5959L356.55 65.1359L355.506 64.1441C353.086 61.9654 352.487 59.5445 353.811 57.1462C355.371 54.32 358.419 53.5857 362.026 55.2148L362.981 53.4855L364.437 54.2894L363.482 56.0187C366.847 58.2498 367.7 61.179 366.281 63.8573L363.004 62.0486C363.573 60.9317 363.375 59.6765 361.975 58.7493L359.664 62.9362L360.882 64.0422C363.474 66.3163 364.107 68.6548 362.726 71.1578C361.11 74.0841 358.077 74.8795 354.104 73.0075L353.182 74.6777L351.726 73.8738ZM358.358 61.8592L360.519 57.9454C359.225 57.3203 357.901 57.5991 357.298 58.6913C356.738 59.7062 357.118 60.7826 358.358 61.8592ZM357.855 66.2129L355.544 70.3998C357.316 71.2886 358.585 70.9565 359.261 69.7323C359.879 68.6127 359.461 67.4021 357.855 66.2129Z"
                    fill="white" />
            </g>
            <g opacity="0.2" clip-path="url(#clip43_1_1338)">
                <path
                    d="M335.726 103.874L336.641 102.217C333.138 100.011 331.968 96.936 333.518 94.1048L336.795 95.9136C336.216 97.1557 336.715 98.6302 338.088 99.5959L340.55 95.1359L339.506 94.1441C337.086 91.9654 336.487 89.5445 337.811 87.1462C339.371 84.32 342.419 83.5857 346.026 85.2148L346.981 83.4855L348.437 84.2894L347.482 86.0187C350.847 88.2498 351.7 91.179 350.281 93.8573L347.004 92.0486C347.573 90.9317 347.375 89.6765 345.975 88.7493L343.664 92.9362L344.882 94.0422C347.474 96.3163 348.107 98.6548 346.726 101.158C345.11 104.084 342.077 104.879 338.104 103.007L337.182 104.678L335.726 103.874ZM342.358 91.8592L344.519 87.9454C343.225 87.3203 341.901 87.5991 341.298 88.6913C340.738 89.7062 341.118 90.7826 342.358 91.8592ZM341.855 96.2129L339.544 100.4C341.316 101.289 342.585 100.956 343.261 99.7323C343.879 98.6127 343.461 97.4021 341.855 96.2129Z"
                    fill="white" />
            </g>
            <g opacity="0.2" clip-path="url(#clip44_1_1338)">
                <path
                    d="M294.726 119.874L295.641 118.217C292.138 116.011 290.968 112.936 292.518 110.105L295.795 111.914C295.216 113.156 295.715 114.63 297.088 115.596L299.55 111.136L298.506 110.144C296.086 107.965 295.487 105.545 296.811 103.146C298.371 100.32 301.419 99.5857 305.026 101.215L305.981 99.4855L307.437 100.289L306.482 102.019C309.847 104.25 310.7 107.179 309.281 109.857L306.004 108.049C306.573 106.932 306.375 105.677 304.975 104.749L302.664 108.936L303.882 110.042C306.474 112.316 307.107 114.655 305.726 117.158C304.11 120.084 301.077 120.879 297.104 119.007L296.183 120.678L294.726 119.874ZM301.358 107.859L303.519 103.945C302.225 103.32 300.901 103.599 300.298 104.691C299.738 105.706 300.118 106.783 301.358 107.859ZM300.855 112.213L298.544 116.4C300.316 117.289 301.585 116.956 302.261 115.732C302.879 114.613 302.461 113.402 300.855 112.213Z"
                    fill="white" />
            </g>
            <g opacity="0.2" clip-path="url(#clip45_1_1338)">
                <path
                    d="M282.726 90.8738L283.641 89.2172C280.138 87.0107 278.968 83.936 280.518 81.1048L283.795 82.9136C283.216 84.1557 283.715 85.6302 285.088 86.5959L287.55 82.1359L286.506 81.1441C284.086 78.9654 283.487 76.5445 284.811 74.1462C286.371 71.32 289.419 70.5857 293.026 72.2148L293.981 70.4855L295.437 71.2894L294.482 73.0187C297.847 75.2498 298.7 78.179 297.281 80.8573L294.004 79.0486C294.573 77.9317 294.375 76.6765 292.975 75.7493L290.664 79.9362L291.882 81.0422C294.474 83.3163 295.107 85.6548 293.726 88.1578C292.11 91.0841 289.077 91.8795 285.104 90.0075L284.183 91.6777L282.726 90.8738ZM289.358 78.8592L291.519 74.9454C290.225 74.3203 288.901 74.5991 288.298 75.6913C287.738 76.7062 288.118 77.7826 289.358 78.8592ZM288.855 83.2129L286.544 87.3998C288.316 88.2886 289.585 87.9565 290.261 86.7323C290.879 85.6127 290.461 84.4021 288.855 83.2129Z"
                    fill="white" />
            </g>
        </g>
    </g>
    <defs>
        <pattern id="pattern0" patternContentUnits="objectBoundingBox" width="1" height="1">
            <use xlink:href="#image0_1_1338" transform="scale(0.00444444)" />
        </pattern>
        <pattern id="pattern1" patternContentUnits="objectBoundingBox" width="1" height="1">
            <use xlink:href="#image1_1_1338" transform="scale(0.00125)" />
        </pattern>
        <clipPath id="clip0_1_1338">
            <rect width="30" height="30" fill="white"
                transform="translate(22.498 -4) rotate(28.899)" />
        </clipPath>
        <clipPath id="clip1_1_1338">
            <rect width="45.2816" height="45.2816" fill="white"
                transform="translate(32.8831 13) rotate(28.899)" />
        </clipPath>
        <clipPath id="clip2_1_1338">
            <rect width="26.6152" height="26.6152" fill="white"
                transform="translate(56.8623 -11) rotate(28.899)" />
        </clipPath>
        <clipPath id="clip3_1_1338">
            <rect width="26.6152" height="26.6152" fill="white"
                transform="translate(73.8623 15) rotate(28.899)" />
        </clipPath>
        <clipPath id="clip4_1_1338">
            <rect width="26.6152" height="26.6152" fill="white"
                transform="translate(57.8623 45) rotate(28.899)" />
        </clipPath>
        <clipPath id="clip5_1_1338">
            <rect width="26.6152" height="26.6152" fill="white"
                transform="translate(16.8623 61) rotate(28.899)" />
        </clipPath>
        <clipPath id="clip6_1_1338">
            <rect width="26.6152" height="26.6152" fill="white"
                transform="translate(4.86226 32) rotate(28.899)" />
        </clipPath>
        <clipPath id="clip7_1_1338">
            <rect width="45.2816" height="45.2816" fill="white"
                transform="translate(117.883 -35) rotate(28.899)" />
        </clipPath>
        <clipPath id="clip8_1_1338">
            <rect width="26.6152" height="26.6152" fill="white"
                transform="translate(142.862 -3) rotate(28.899)" />
        </clipPath>
        <clipPath id="clip9_1_1338">
            <rect width="26.6152" height="26.6152" fill="white"
                transform="translate(101.862 13) rotate(28.899)" />
        </clipPath>
        <clipPath id="clip10_1_1338">
            <rect width="26.6152" height="26.6152" fill="white"
                transform="translate(89.8623 -16) rotate(28.899)" />
        </clipPath>
        <clipPath id="clip11_1_1338">
            <rect width="45.2816" height="45.2816" fill="white"
                transform="translate(293.883 -35) rotate(28.899)" />
        </clipPath>
        <clipPath id="clip12_1_1338">
            <rect width="26.6152" height="26.6152" fill="white"
                transform="translate(318.862 -3) rotate(28.899)" />
        </clipPath>
        <clipPath id="clip13_1_1338">
            <rect width="26.6152" height="26.6152" fill="white"
                transform="translate(277.862 13) rotate(28.899)" />
        </clipPath>
        <clipPath id="clip14_1_1338">
            <rect width="26.6152" height="26.6152" fill="white"
                transform="translate(265.862 -16) rotate(28.899)" />
        </clipPath>
        <clipPath id="clip15_1_1338">
            <rect width="30" height="30" fill="white"
                transform="translate(36.498 77) rotate(28.899)" />
        </clipPath>
        <clipPath id="clip16_1_1338">
            <rect width="45.2816" height="45.2816" fill="white"
                transform="translate(46.8831 94) rotate(28.899)" />
        </clipPath>
        <clipPath id="clip17_1_1338">
            <rect width="26.6152" height="26.6152" fill="white"
                transform="translate(70.8623 70) rotate(28.899)" />
        </clipPath>
        <clipPath id="clip18_1_1338">
            <rect width="26.6152" height="26.6152" fill="white"
                transform="translate(87.8623 96) rotate(28.899)" />
        </clipPath>
        <clipPath id="clip19_1_1338">
            <rect width="26.6152" height="26.6152" fill="white"
                transform="translate(18.8623 113) rotate(28.899)" />
        </clipPath>
        <clipPath id="clip20_1_1338">
            <rect width="30" height="30" fill="white"
                transform="translate(122.498 29) rotate(28.899)" />
        </clipPath>
        <clipPath id="clip21_1_1338">
            <rect width="45.2816" height="45.2816" fill="white"
                transform="translate(132.883 46) rotate(28.899)" />
        </clipPath>
        <clipPath id="clip22_1_1338">
            <rect width="26.6152" height="26.6152" fill="white"
                transform="translate(156.862 22) rotate(28.899)" />
        </clipPath>
        <clipPath id="clip23_1_1338">
            <rect width="26.6152" height="26.6152" fill="white"
                transform="translate(173.862 48) rotate(28.899)" />
        </clipPath>
        <clipPath id="clip24_1_1338">
            <rect width="26.6152" height="26.6152" fill="white"
                transform="translate(157.862 78) rotate(28.899)" />
        </clipPath>
        <clipPath id="clip25_1_1338">
            <rect width="26.6152" height="26.6152" fill="white"
                transform="translate(116.862 94) rotate(28.899)" />
        </clipPath>
        <clipPath id="clip26_1_1338">
            <rect width="26.6152" height="26.6152" fill="white"
                transform="translate(104.862 65) rotate(28.899)" />
        </clipPath>
        <clipPath id="clip27_1_1338">
            <rect width="45.2816" height="45.2816" fill="white"
                transform="translate(203.883 -27) rotate(28.899)" />
        </clipPath>
        <clipPath id="clip28_1_1338">
            <rect width="26.6152" height="26.6152" fill="white"
                transform="translate(244.862 -25) rotate(28.899)" />
        </clipPath>
        <clipPath id="clip29_1_1338">
            <rect width="26.6152" height="26.6152" fill="white"
                transform="translate(228.862 5) rotate(28.899)" />
        </clipPath>
        <clipPath id="clip30_1_1338">
            <rect width="26.6152" height="26.6152" fill="white"
                transform="translate(187.862 21) rotate(28.899)" />
        </clipPath>
        <clipPath id="clip31_1_1338">
            <rect width="26.6152" height="26.6152" fill="white"
                transform="translate(175.862 -8) rotate(28.899)" />
        </clipPath>
        <clipPath id="clip32_1_1338">
            <rect width="30" height="30" fill="white"
                transform="translate(208.498 34) rotate(28.899)" />
        </clipPath>
        <clipPath id="clip33_1_1338">
            <rect width="45.2816" height="45.2816" fill="white"
                transform="translate(218.883 51) rotate(28.899)" />
        </clipPath>
        <clipPath id="clip34_1_1338">
            <rect width="26.6152" height="26.6152" fill="white"
                transform="translate(242.862 27) rotate(28.899)" />
        </clipPath>
        <clipPath id="clip35_1_1338">
            <rect width="26.6152" height="26.6152" fill="white"
                transform="translate(259.862 53) rotate(28.899)" />
        </clipPath>
        <clipPath id="clip36_1_1338">
            <rect width="26.6152" height="26.6152" fill="white"
                transform="translate(243.862 83) rotate(28.899)" />
        </clipPath>
        <clipPath id="clip37_1_1338">
            <rect width="26.6152" height="26.6152" fill="white"
                transform="translate(202.862 99) rotate(28.899)" />
        </clipPath>
        <clipPath id="clip38_1_1338">
            <rect width="26.6152" height="26.6152" fill="white"
                transform="translate(190.862 70) rotate(28.899)" />
        </clipPath>
        <clipPath id="clip39_1_1338">
            <rect width="30" height="30" fill="white"
                transform="translate(301.498 27) rotate(28.899)" />
        </clipPath>
        <clipPath id="clip40_1_1338">
            <rect width="45.2816" height="45.2816" fill="white"
                transform="translate(311.883 44) rotate(28.899)" />
        </clipPath>
        <clipPath id="clip41_1_1338">
            <rect width="26.6152" height="26.6152" fill="white"
                transform="translate(335.862 20) rotate(28.899)" />
        </clipPath>
        <clipPath id="clip42_1_1338">
            <rect width="26.6152" height="26.6152" fill="white"
                transform="translate(352.862 46) rotate(28.899)" />
        </clipPath>
        <clipPath id="clip43_1_1338">
            <rect width="26.6152" height="26.6152" fill="white"
                transform="translate(336.862 76) rotate(28.899)" />
        </clipPath>
        <clipPath id="clip44_1_1338">
            <rect width="26.6152" height="26.6152" fill="white"
                transform="translate(295.862 92) rotate(28.899)" />
        </clipPath>
        <clipPath id="clip45_1_1338">
            <rect width="26.6152" height="26.6152" fill="white"
                transform="translate(283.862 63) rotate(28.899)" />
        </clipPath>
        <clipPath id="clip46_1_1338">
            <rect width="19.7783" height="19.7783" fill="white"
                transform="translate(39 59.9854) rotate(-45)" />
        </clipPath>
        <clipPath id="clip47_1_1338">
            <rect width="44" height="22" fill="white" transform="translate(296 86)" />
        </clipPath>
    </defs>
</svg>
    