<svg xmlns="http://www.w3.org/2000/svg" width="29" height="32" viewBox="0 0 29 32" fill="none">
    <g clip-path="url(#clip0_487_20576)">
        <path
            d="M27.2796 18.5108C26.9633 18.9229 26.551 19.2338 26.0513 19.3159C24.4167 19.5845 22.777 19.7305 21.1621 19.144C21.259 19.7435 21.3567 20.3628 21.4612 20.9822C21.5633 21.5886 21.6798 22.1933 21.7775 22.8005C21.8778 23.4225 21.9755 24.0453 22.0518 24.6698C22.1247 25.2684 22.1693 25.8697 22.2258 26.47C22.1915 26.4735 22.1573 26.4769 22.123 26.4804C21.9627 25.9664 21.8033 25.4516 21.6207 24.8676L21.4724 24.1489C21.4724 24.1489 21.175 25.5034 20.7738 26.2947C20.3727 27.0859 19.8052 28.3816 19.2455 29.0735L19.4015 27.7156C19.4015 27.7156 19.1444 28.2028 18.9224 28.4015C18.7004 28.6002 18.7672 28.3505 18.7304 28.176C18.6935 28.0016 18.6206 28.0637 18.5006 28.2469C18.3806 28.43 18.2144 28.5363 18.2144 28.5363V27.9903C18.2144 27.9903 17.6341 29.2912 16.4383 30.1231C16.4383 30.1231 14.8989 31.189 13.1503 31.246C13.0569 31.2391 12.9309 31.246 12.7586 31.2538C12.7157 31.2555 12.6729 31.2607 12.6309 31.2616C11.0503 31.2823 9.47395 31.4611 7.89165 31.4179C6.84935 31.3894 5.81734 31.2866 4.85647 30.8262C4.41761 30.6155 4.14846 30.301 4.24789 29.775C4.28046 29.6022 4.2616 29.4882 4.07732 29.3957C3.87931 29.2964 3.76102 29.0787 3.96589 28.9094C4.25217 28.6727 4.14931 28.4585 4.04046 28.1976C3.68559 27.3451 3.56731 26.4657 3.74645 25.5475C3.9916 24.2863 4.45018 23.1046 5.01504 21.9592C5.09647 21.7942 5.21047 21.6361 5.20876 21.4417C5.20447 20.825 5.2139 20.2082 5.29704 19.5966C5.33133 19.3496 5.23447 19.2399 5.0219 19.1483C4.59932 18.9661 4.22818 18.6948 3.90331 18.3692C3.22702 17.6902 2.50958 17.057 1.81272 16.4005C1.09613 15.725 0.561272 14.913 0.30584 13.9438C-0.0147362 12.725 -0.0147381 11.5364 0.673557 10.4203C0.856131 10.1241 1.09956 9.92365 1.43471 9.83899C2.53358 9.56257 3.51588 9.81999 4.3996 10.5093C4.54704 10.6242 4.6859 10.7512 4.88647 10.9214C4.72104 10.1638 4.54275 9.56603 3.9676 9.0702C2.8713 8.12605 1.96443 6.98841 1.28385 5.69701C0.780703 4.74249 0.937561 4.24493 1.81014 3.6083C2.79844 2.88615 3.9136 2.5484 5.11276 2.45425C5.29962 2.43956 5.43248 2.38601 5.53448 2.22274C5.98705 1.49628 6.66335 1.11793 7.48279 0.95553C9.12252 0.630735 10.7734 0.454517 12.4466 0.502891C12.5734 0.506346 12.714 0.565949 12.8331 0.413918C13.2969 -0.18125 13.9946 -0.124238 14.4086 0.533988C14.478 0.644556 14.5749 0.623825 14.67 0.630735C15.7106 0.702432 16.7203 0.932206 17.7189 1.22331C18.9044 1.56797 20.0315 2.02148 20.9538 2.88356C20.8338 3.11247 20.6958 2.94921 20.5887 2.88356C20.2269 2.66243 19.8927 2.39637 19.5147 2.20374C19.0029 1.94201 18.5195 1.6008 17.9143 1.58611C17.5946 1.51442 17.2843 1.40903 16.968 1.32524C16.6526 1.24145 16.3338 1.17926 15.9858 1.14298C17.3812 2.02666 18.1483 3.31374 18.4869 4.8712C18.8144 6.3751 18.9078 7.90491 18.8495 9.44337C18.8435 9.6049 18.8872 9.7984 18.6815 9.8891C18.4886 9.87268 18.5341 9.7267 18.5255 9.60836C18.5238 9.81135 18.5229 10.0143 18.5246 10.2173C18.5255 10.3668 18.4766 10.5473 18.7004 10.594C19.4049 10.7443 20.1301 10.6251 20.8364 10.7667C21.139 10.7434 21.4835 10.8661 21.7098 10.5594C21.9473 10.2381 22.1787 9.91155 22.4075 9.58417C22.5361 9.40104 22.5515 9.18941 22.5233 8.96654C22.4615 8.48367 22.4153 7.99907 22.3904 7.51361C22.3295 6.30599 22.2001 5.11566 21.673 4.00479C21.6224 3.89854 21.4844 3.74565 21.7133 3.65668C22.393 4.58269 22.5438 5.67627 22.6767 6.77332C22.7804 7.62418 22.7778 8.48108 22.7701 9.33626C22.9218 9.35526 22.9681 9.24469 23.0418 9.18854C24.5436 8.0414 26.497 8.46121 27.3628 10.1482C27.8513 11.101 28.2885 12.0823 28.7359 13.0567C28.9219 13.4627 29.0556 13.8937 28.9845 14.3481C28.7462 15.8719 28.2293 17.2842 27.283 18.516L27.2796 18.5108ZM17.1712 2.78336C16.4906 1.86167 15.6609 1.13088 14.4763 0.961576C13.4726 0.818183 12.462 0.79486 11.4488 0.829413C11.1728 0.838915 10.9628 0.989218 10.7811 1.17753C10.4314 1.54033 10.1588 1.96187 9.90082 2.39292C9.74396 2.65465 9.83567 2.77386 10.11 2.84728C10.884 3.05201 11.6263 3.35175 12.354 3.68173C13.6637 4.2743 14.904 4.9619 15.7877 6.16519C16.3903 6.98582 16.98 7.81335 17.5089 8.68321C17.7078 9.0106 17.8895 9.34921 18.1526 9.65587C18.1886 9.02528 18.2212 8.4042 18.1681 7.77966C18.1535 7.60949 18.0463 7.40217 18.3069 7.31147C18.3729 7.32961 18.4124 7.35985 18.4372 7.39699C18.3738 6.83206 18.2949 6.26885 18.2418 5.70305C18.1046 4.64833 17.8081 3.64631 17.1712 2.78509V2.78336ZM18.5384 8.70481C18.5332 8.51563 18.5221 8.32732 18.5075 8.13901C18.5238 8.45603 18.5272 8.77305 18.5255 9.09007C18.5332 8.96222 18.5409 8.83438 18.5375 8.70567L18.5384 8.70481Z"
            fill="#080504" />
        <path
            d="M20.9503 2.88079C20.7737 3.02504 20.6906 2.82291 20.598 2.75985C19.9543 2.32276 19.2951 1.91936 18.576 1.6153C18.3737 1.52978 18.1808 1.46759 17.964 1.48659C17.9751 1.72759 18.186 1.75696 18.3403 1.8373C19.0654 2.21738 19.7177 2.68729 20.262 3.31097C20.6452 3.74978 20.8312 4.26202 20.9134 4.82437C21.186 6.6807 21.1457 8.53359 20.838 10.383C20.8106 10.548 20.7463 10.7216 20.8697 10.8797C21.4235 10.9782 21.8289 10.8063 22.062 10.2586C22.1323 10.0945 22.2857 9.96838 22.3955 9.81981C22.6046 9.53561 22.7169 9.2471 22.6269 8.86529C22.5335 8.4688 22.518 8.04899 22.5018 7.63867C22.4512 6.31099 22.3415 4.99799 21.6797 3.8042C21.6497 3.74978 21.6566 3.69536 21.708 3.65304C21.5263 3.32479 21.2597 3.08119 20.9494 2.88251L20.9503 2.88079Z"
            fill="#2B2B2B" />
        <path
            d="M18.1534 27.1903C18.36 26.2781 18.1225 25.4221 17.8363 24.5678C17.5148 23.6098 16.926 22.8013 16.4262 21.9435C15.8331 20.9251 15.2314 19.9109 14.6331 18.8951C14.5371 18.7595 14.3939 18.6947 14.2474 18.6377C13.5419 18.3621 12.8845 17.9898 12.2288 17.6158C12.1859 17.5786 12.1019 17.5337 12.107 17.5061C12.1293 17.3826 12.245 17.4327 12.3068 17.4447C12.8073 17.5441 13.2985 17.6849 13.8111 17.7281C14.4848 17.7851 15.1405 17.7177 15.7611 17.4491C16.3688 17.1865 16.4862 16.669 16.1048 16.1162C15.8091 15.6895 15.3694 15.54 14.8936 15.4865C13.2985 15.3085 11.7008 15.153 10.1064 14.9708C9.85358 14.9423 9.79958 15.0788 9.7773 15.2481C9.7413 15.5254 9.73872 15.807 9.72073 16.1162C9.47215 15.7318 9.67529 15.3422 9.63587 14.8956C9.37529 15.2774 9.36843 15.6428 9.37701 16.0065C9.38901 16.5136 9.54501 16.993 9.69587 17.4689C9.81844 17.8533 9.8973 18.2429 9.93244 18.6437C9.81844 19.4108 9.77215 20.1874 9.61187 20.9466C9.55358 21.2257 9.51587 21.5099 9.42586 21.7811C9.39586 22.1905 9.12329 22.5197 9.05215 22.9161C9.017 23.2867 8.83786 23.6098 8.70328 23.9458C8.64071 24.1022 8.57557 24.2542 8.56442 24.4244C8.30556 25.1595 7.9087 25.8358 7.66955 26.5813C7.44584 27.2767 7.29327 27.979 7.24612 28.7106C7.23069 28.9464 7.30526 29.0147 7.49812 29.044C7.72184 29.0777 7.9447 29.1183 8.16928 29.1503C8.59785 29.2116 8.59785 29.2099 8.79586 28.7719C8.62957 29.2807 9.00414 29.2738 9.26558 29.2885C10.5093 29.3602 11.7462 29.5762 13.0011 29.4215C13.4493 29.3662 13.9105 29.4198 14.3656 29.4233C14.9699 29.4915 15.5742 29.5338 16.1794 29.4328C16.4708 29.3844 16.7005 29.2263 16.9208 29.038C17.5063 28.5387 17.9305 27.934 18.1525 27.1903H18.1534Z"
            fill="#DFC5A0" />
        <path
            d="M15.059 5.79617C14.3819 5.05588 13.5342 4.56783 12.6419 4.15233C11.519 3.62973 10.3618 3.20214 9.14982 2.93436C7.34208 2.53441 5.53006 2.47653 3.71546 2.87562C3.48746 2.92572 3.2706 3.03197 2.96545 3.1434C3.27831 3.23583 3.48232 3.05356 3.82346 3.09502C3.33146 3.27902 2.95688 3.44055 2.56859 3.55889C2.17859 3.6781 1.84687 3.88801 1.53058 4.13333C1.13714 4.43912 1.054 4.76478 1.25715 5.2226C1.67286 6.15897 2.26773 6.9796 2.93031 7.7458C3.34774 8.22781 3.74375 8.73228 4.26576 9.12531C4.60605 9.381 4.95576 9.49243 5.33463 9.4C5.98006 9.24365 6.6075 9.41296 7.23408 9.46479C8.10495 9.53562 8.97153 9.67988 9.84411 9.76626C10.7158 9.85264 11.5833 9.9779 12.4533 10.079C13.085 10.1524 13.7193 10.2111 14.3519 10.2794C15.3496 10.3865 16.3473 10.4953 17.3442 10.6033C17.4008 10.6093 17.4582 10.6275 17.5131 10.6206C17.7042 10.5973 17.9999 10.7242 18.0651 10.5506C18.1422 10.345 18.0265 10.079 17.7942 9.93384C17.4959 9.58572 17.3219 9.16073 17.0802 8.77633C16.5856 7.9894 16.0645 7.22406 15.4893 6.49413C15.2125 6.14342 14.831 5.90674 14.5456 5.58454C14.651 5.67697 14.741 5.80481 14.8679 5.88687C14.9587 5.94561 15.0625 5.96721 15.0599 5.79531L15.059 5.79617Z"
            fill="#2C2B2B" />
        <path
            d="M16.5125 16.574C16.5348 16.9679 16.354 17.2625 16.066 17.5043C15.7779 18.0848 15.3339 18.5547 14.9637 19.0773C15.7385 20.5104 16.5905 21.8986 17.4434 23.2858C18.04 24.2568 18.3468 25.3288 18.4428 26.4474C18.4831 26.9156 18.3546 27.4036 18.4154 28.0075C18.9691 26.9571 19.2846 25.9274 19.7586 24.9444C19.6823 26.0906 19.606 27.2361 19.5297 28.3823C19.5477 28.3893 19.5657 28.3962 19.5837 28.4031C19.7449 28.0576 19.9291 27.7215 20.062 27.3648C20.4263 26.3878 20.9766 25.4946 21.256 24.4744C21.4154 23.8922 21.2774 23.386 21.19 22.841C21.5337 23.5657 21.5723 24.3812 21.874 25.1197C21.862 24.3561 21.7215 23.6089 21.5989 22.8608C21.2363 20.646 20.7066 18.4511 20.878 16.1775C20.9792 14.8351 21.2354 13.5144 21.4094 12.1824C21.5869 10.827 21.8595 11.2045 20.5086 11.0819C19.6231 11.0015 18.7317 10.9454 17.7288 10.859C18.136 11.3721 18.4274 11.8412 18.652 12.3482C18.9451 13.25 19.1928 14.1605 18.9511 15.1176C18.7034 16.098 18.0528 16.5731 17.0482 16.5455C16.87 16.5403 16.6831 16.4462 16.5108 16.574H16.5125Z"
            fill="#AD7A21" />
        <path
            d="M8.19002 23.8949C8.83718 22.6087 9.3729 21.281 9.53147 19.8358C9.65661 18.6973 9.69433 17.5562 9.14575 16.4911C9.06861 16.2475 9.06346 15.9892 9.00261 15.7422C8.86718 15.1945 8.70775 15.0641 8.15402 15.0676C8.00059 15.0684 7.84373 15.0347 7.69459 15.0987C7.15115 15.1133 6.61458 15.1816 6.14914 15.4831C5.75914 15.7353 5.4917 16.0877 5.57571 16.5922C5.65456 17.0707 6.00514 17.2677 6.43543 17.3636C7.02344 17.4949 7.61145 17.4802 8.1986 17.3601C8.44546 17.4906 8.65632 17.4508 8.82946 17.2271C8.7626 16.9593 8.53717 16.9956 8.34688 16.9844C8.02031 16.9645 7.68945 17.0111 7.36544 16.9567C7.1323 16.917 6.81001 16.879 6.82029 16.5827C6.83058 16.2821 7.14515 16.2709 7.38859 16.2588C8.43774 16.2052 9.33947 17.0958 9.3549 18.1963C9.38318 17.894 9.32661 17.6201 9.09432 17.405C9.03004 17.3705 8.95461 17.3446 8.89118 17.3739C8.15145 17.7108 7.34487 17.9294 6.77401 18.5695C5.81657 20.7946 4.57026 22.8989 3.99254 25.2848C3.94454 25.4817 3.91969 25.6769 3.92569 25.8782C3.7774 27.0573 4.26597 27.928 5.3417 28.4048C5.67856 28.5543 6.00428 28.7521 6.39857 28.6649C6.50143 28.8989 6.59572 28.9974 6.65486 28.6459C6.66858 28.5638 6.67115 28.48 6.68143 28.3599C6.80143 28.5318 6.68058 28.7201 6.82972 28.867C6.86658 27.5851 7.18458 26.3861 7.62516 25.2156C7.92345 24.8243 8.09402 24.3769 8.19088 23.8983L8.19002 23.8949Z"
            fill="#DFC5A0" />
        <path
            d="M22.5088 12.248C22.7137 12.2756 22.862 12.4924 23.0951 12.4233C23.4731 12.1072 23.9034 11.9068 24.3834 11.7962C25.2157 11.6044 25.9512 11.9413 26.4655 12.7723C26.5443 12.8907 26.5683 13.0358 26.6403 13.142C26.6695 13.2077 26.5709 13.1852 26.6275 13.1766C26.5966 13.0384 26.5272 12.9166 26.4663 12.7896C25.6966 11.4991 23.9026 11.3686 23.108 12.5443C24.0689 13.1809 24.6912 14.0128 24.6397 15.2359C24.6174 15.7715 24.4117 16.2276 24.0311 16.6301C24.4794 15.8371 24.6534 15.0122 24.2977 14.1562C23.9514 13.3243 23.3471 12.7447 22.502 12.4294C22.3143 12.3447 22.1591 12.4147 22.0511 12.5616C21.8145 12.8812 21.518 13.1636 21.4065 13.5653C21.3225 14.0862 21.2025 14.6045 21.164 15.1288C21.128 15.61 21.4991 15.9555 21.7168 16.3399C22.0477 16.9247 22.568 17.3315 23.2168 17.665C22.5046 17.5898 21.9748 17.0543 21.1828 15.6678C21.0971 15.876 21.0002 17.1182 21.0482 17.3281C21.08 17.4654 21.194 17.5337 21.278 17.6261C22.6374 19.1257 25.7163 18.7508 26.6883 16.5912C27.5343 14.7116 27.3912 12.8354 26.3609 11.0412C26.2915 10.9203 26.1817 10.8218 26.0909 10.7139C25.778 10.4331 25.4197 10.5851 25.0717 10.5921C24.176 10.6102 23.4568 11.0032 22.8534 11.6355C22.6923 11.804 22.4908 11.969 22.5106 12.2489L22.5088 12.248Z"
            fill="#DFC5A0" />
        <path
            d="M18.3105 5.62521C18.1914 3.62461 16.7874 1.45039 14.9291 0.951973C13.9905 0.699739 13.0176 0.755023 12.0567 0.693692C11.269 0.643591 10.7204 0.907918 10.3073 1.56528C10.0793 1.92722 9.64042 2.2857 9.68928 2.65628C9.74928 3.10978 10.3673 2.99576 10.7341 3.13656C11.9042 3.58747 13.057 4.06861 14.1233 4.73634C15.0611 5.32374 15.7091 6.19619 16.3339 7.08333C16.9254 7.92209 17.4731 8.79022 17.9745 9.68773C18.0268 9.78102 18.0517 9.94255 18.1965 9.90627C18.3688 9.86308 18.3028 9.69291 18.302 9.57543C18.296 8.83255 18.3525 8.08621 18.2205 7.34765C18.4725 6.81554 18.29 6.28603 18.2025 5.7591C18.1794 5.62002 18.1348 5.48354 18.1254 5.35138C18.1614 5.46799 18.1074 5.63125 18.2625 5.71245C18.2702 5.71677 18.2882 5.70468 18.2994 5.6969C18.3208 5.68222 18.3234 5.65717 18.3105 5.62521Z"
            fill="#393A3A" />
        <path
            d="M20.8705 10.8789C21.1233 9.48725 21.2682 8.08528 21.2082 6.67035C21.1799 5.98967 21.1139 5.30639 21.0085 4.63348C20.8285 3.48029 20.033 2.77282 19.1322 2.16902C18.7584 1.91851 18.3539 1.71292 17.9639 1.4866C17.2087 1.25337 16.4475 1.04606 15.623 1.03137C15.8647 1.20068 16.1124 1.36135 16.3473 1.54016C17.4881 2.41261 18.1053 3.60381 18.3924 4.99023C18.7241 6.59347 18.7756 8.21744 18.7301 9.84746C18.5176 10.1178 18.455 10.402 18.6487 10.7113C18.893 10.7925 19.145 10.8175 19.3987 10.7951C19.8942 10.7519 20.3785 10.8754 20.8705 10.8789Z"
            fill="#393A3A" />
        <path
            d="M1.53349 11.481C0.99948 12.5841 1.21977 13.6198 1.84463 14.5976C2.56293 15.7232 3.40722 16.7477 4.38095 17.6598C4.43238 17.7074 4.4881 17.7549 4.54981 17.7868C4.82067 17.9285 5.12582 18.3051 5.35125 18.1505C5.59211 17.9855 5.50639 17.519 5.54925 17.1856C5.57582 16.9809 5.50382 16.8073 5.19353 16.8954C4.89096 16.9818 4.58581 16.8755 4.31752 16.6786C4.5721 16.7019 4.82667 16.733 5.0821 16.7459C5.25182 16.7546 5.39325 16.7166 5.37439 16.4851C5.33496 16.0039 5.6024 15.6636 5.93754 15.3872C6.18612 15.1824 6.24955 14.9924 6.11669 14.6901C5.9624 14.3393 5.82868 13.974 5.73611 13.6025C5.59211 13.0281 5.21411 12.7067 4.69296 12.5167C4.48038 12.439 4.26609 12.3664 4.04752 12.3085C3.44408 12.1478 3.25294 12.2645 3.08065 12.8855C2.82693 13.7986 3.11408 14.6019 3.57951 15.3681C3.6678 15.5141 3.76123 15.6567 3.85037 15.8018C3.85466 15.8078 3.84095 15.8251 3.8358 15.8381C2.83293 15.0546 2.5775 13.6042 3.19636 12.2031C2.56636 12.2075 2.42835 12.2463 1.83092 12.5884C1.72635 12.4493 1.86949 12.4122 1.93463 12.3673C2.56036 11.9302 3.24951 11.9915 3.94552 12.1176C4.05695 12.1375 4.16666 12.1617 4.27724 12.1841C4.24038 11.8723 3.96523 11.83 3.75437 11.7721C3.21008 11.6226 2.65464 11.5138 2.10264 11.3929C1.90978 11.3505 1.70749 11.3445 1.53434 11.4818L1.53349 11.481Z"
            fill="#DFC5A0" />
        <path
            d="M21.5416 19.0765C21.8091 19.2639 22.1271 19.3175 22.4296 19.321C23.4951 19.3348 24.5614 19.4125 25.6243 19.2501C26.2928 19.1482 26.8268 18.8407 27.228 18.2939C28.1109 17.0923 28.584 15.7275 28.8069 14.2651C28.8617 13.9031 28.7529 13.5515 28.6029 13.225C28.1323 12.1988 27.6874 11.1579 27.1594 10.1628C26.6734 9.24629 25.902 8.70122 24.8134 8.74269C24.6205 8.78933 24.4371 8.85844 24.2708 8.96814C24.1868 9.02343 24.0994 9.10203 24.1217 9.20569C24.1465 9.31885 24.2631 9.32576 24.3651 9.32749C24.5331 9.33094 24.7045 9.31367 24.8622 9.39314C25.4322 9.44583 25.9123 9.70325 26.2637 9.97449C25.6705 9.55554 24.9394 9.22642 24.0685 9.39746C23.9168 9.42769 23.7539 9.4441 23.6742 9.61255C23.7077 9.73175 23.7822 9.73003 23.8722 9.68165C25.4288 9.38105 26.2337 10.5316 27.216 11.3402C27.1928 11.3782 27.1706 11.4153 27.1474 11.4533C26.9734 11.3004 26.7994 11.1475 26.6254 10.9955C26.9743 11.7246 27.2494 12.4735 27.3317 13.2786C27.4826 14.7548 27.3754 16.1862 26.3785 17.3826C25.566 18.3569 24.498 18.794 23.2362 18.6593C22.2076 18.5496 22.0645 18.4727 21.3522 17.9492C21.4491 18.2438 21.3788 18.5427 21.6291 18.7422C22.0448 19.0238 22.5214 19.0653 22.9954 19.1188C22.6088 19.1024 22.2359 19.0048 21.8639 18.8951C21.7079 18.8493 21.5013 18.7482 21.5408 19.0748L21.5416 19.0765Z"
            fill="#AD7A21" />
        <path
            d="M12.371 14.5077C12.9102 15.3482 13.805 15.1487 14.5859 15.2618C14.9665 15.3171 15.3351 15.3811 15.7002 15.5115C16.7408 15.8838 18.3214 15.3949 18.5554 13.9938C18.7585 12.7784 18.2871 11.7824 17.4925 10.9056C17.4068 10.8115 17.3005 10.7804 17.1891 10.77C16.1065 10.6655 15.0239 10.5662 13.8153 10.4539C14.3185 10.7527 14.747 10.935 15.1122 11.2287C15.8648 11.8342 16.4665 12.5728 17.0356 13.3468C17.1462 13.4971 17.0742 13.5074 16.9868 13.5955C16.2154 14.3687 15.2699 14.677 14.2045 14.6736C14.0982 14.557 13.9542 14.5544 13.8145 14.5527C13.3945 14.5475 12.9727 14.5604 12.5622 14.4421C12.491 14.4214 12.425 14.455 12.3719 14.5077H12.371Z"
            fill="#DFC5A0" />
        <path
            d="M16.7803 13.2959C16.146 12.3509 15.4011 11.6054 14.4702 11.0526C13.7391 10.6181 12.9411 10.4513 12.0976 10.4686C11.8182 10.4747 11.6614 10.5394 11.6442 10.8781C11.6125 11.5199 11.5782 12.1695 11.3185 12.7715C11.2019 13.0428 11.4505 12.9961 11.5311 13.0082C12.3179 13.1248 13.0997 13.2924 13.9002 13.295C14.8371 13.2976 15.7748 13.295 16.7803 13.295V13.2959Z"
            fill="#AE8C5D" />
        <path
            d="M3.67989 10.2743C3.02245 9.86568 2.29902 9.8389 1.57901 9.98488C0.970427 10.1084 0.429563 10.9688 0.34899 11.7894C0.151845 13.7762 0.849567 15.3742 2.37359 16.6388C2.84331 17.0284 3.31131 17.4275 3.7056 17.9087C4.05104 18.3302 4.48133 18.6697 4.97848 18.9038C5.08477 18.9539 5.23905 19.1491 5.33163 18.9444C5.40277 18.7863 5.46877 18.5548 5.21077 18.4295C4.70247 18.1825 4.3099 17.7869 3.90618 17.4007C2.98131 16.517 2.18673 15.5297 1.53786 14.4275C1.36043 14.126 1.24643 13.7865 1.10329 13.4635C1.02614 13.5464 1.02529 13.6388 1.08614 13.8142C0.890712 13.0255 0.783569 12.6005 0.945571 12.1073C0.922428 12.3846 0.751853 12.6722 0.966142 12.9849C1.14186 12.8441 1.009 12.6402 1.105 12.5089C1.09986 12.0572 1.28843 11.6633 1.42815 11.2452C1.67329 10.5127 2.23044 10.7226 2.69502 10.7615C3.36789 10.8176 3.95247 11.1692 4.53447 11.4966C4.56276 11.4637 4.57733 11.4249 4.58076 11.3825C4.42218 10.8884 3.94218 10.7917 3.56503 10.6077C2.83217 10.2501 2.06587 9.95379 1.25843 10.4272C2.04358 9.96415 2.78416 10.257 3.52389 10.568C3.65418 10.6224 3.76046 10.7286 3.90446 10.7554C4.1299 10.6949 4.02618 10.5783 3.94132 10.4842C3.86761 10.4021 3.76561 10.3486 3.68246 10.2743H3.67989Z"
            fill="#AC7A21" />
        <path
            d="M15.9366 30.0132C15.0066 29.615 14.0655 29.6496 13.1286 29.6798C10.684 29.7593 8.27626 29.4958 5.89594 28.9438C5.4948 28.8506 5.08251 28.8082 4.6745 28.7495C4.57764 28.7357 4.46536 28.721 4.38135 28.7573C4.22707 28.8229 4.04192 28.9136 4.04278 29.1028C4.04278 29.2643 4.22792 29.2946 4.35821 29.3472C4.71993 29.4924 5.10651 29.5191 5.48451 29.5684C6.29109 29.6729 7.07796 29.8491 7.83911 30.135C8.97141 30.56 10.1329 30.6179 11.3243 30.4823C12.8483 30.3078 14.3758 30.1713 15.9375 30.015L15.9366 30.0132Z"
            fill="#DFC59F" />
        <path
            d="M7.18514 14.3393C6.70085 14.0266 6.24655 13.6897 6.12312 13.0686C6.1137 13.0211 6.03141 12.9503 6.09741 12.9304C6.82342 12.705 6.67599 11.9871 6.89114 11.4818C6.96142 11.3159 7.07371 11.0084 6.89456 10.9013C6.70342 10.7873 6.47113 10.9773 6.28513 11.1138C6.20884 11.17 6.12741 11.2192 6.01941 11.29C6.44456 10.3519 7.82458 10.4677 9.13431 11.5293C9.03316 11.0646 8.94488 10.6197 8.98259 10.1662C9.00145 9.9347 8.89773 9.88028 8.69116 9.85696C7.816 9.76108 6.94256 9.65137 6.06913 9.53994C5.91055 9.51921 5.80169 9.50366 5.78541 9.72393C5.69455 10.9721 5.75626 12.2109 5.99112 13.4401C6.00141 13.4953 6.03398 13.5454 6.05284 13.599C6.52256 14.9051 7.08742 15.1686 8.3483 14.6615C8.68859 14.5241 9.04259 14.4119 9.32888 14.1648C9.42145 14.0197 9.45917 13.8564 9.32288 13.7355C9.17288 13.6025 9.06745 13.7795 8.95687 13.8469C8.41173 14.1812 7.81343 14.3125 7.186 14.3384L7.18514 14.3393Z"
            fill="#DFC59F" />
        <path
            d="M11.0283 13.2147C10.9966 13.0816 10.6915 12.9452 11.0506 12.8113C11.1338 12.7802 11.1766 12.5962 11.2083 12.4744C11.3669 11.8792 11.4166 11.2694 11.4723 10.656C11.2538 10.6034 11.0858 10.8063 10.8723 10.707C11.1226 10.4582 11.4535 10.4081 11.8066 10.219C11.1646 10.1499 10.5972 10.1084 10.0366 10.022C9.68261 9.96759 9.57461 10.0747 9.64661 10.4194C9.67233 10.5412 9.6509 10.6733 9.6509 10.8279C9.46747 10.6336 9.51118 10.4125 9.48975 10.206C9.47947 10.1032 9.53175 9.95722 9.34918 9.95204C9.16146 9.94685 9.20861 10.0946 9.20346 10.1974C9.18032 10.631 9.22232 11.0629 9.35518 11.4715C9.61661 12.2774 9.83519 13.086 9.74176 13.9886C10.2063 13.8193 10.6358 13.7511 11.0858 13.9316C11.0986 13.7235 10.8749 13.6803 10.8835 13.5187C10.8835 13.5084 10.8938 13.4945 10.9032 13.4894C10.9152 13.4833 10.9306 13.4842 10.9452 13.4824C11.1415 13.4462 11.0849 13.3304 11.0283 13.2147Z"
            fill="#DFC59F" />
        <path
            d="M8.8895 31.2174C9.57351 31.2779 10.2464 31.1146 10.9295 31.1224C11.6513 31.131 12.3738 31.0792 13.0964 31.0602C13.9321 31.0386 14.9204 30.7544 15.7373 30.2741C15.103 30.3622 14.5656 30.6274 13.9681 30.5739C12.9884 30.4849 12.013 30.6179 11.041 30.7164C9.62665 30.8589 8.27835 30.4849 6.91376 30.2361C6.27433 30.1195 5.6306 30.0115 5.04688 29.6893C4.86774 29.5908 4.61916 29.5235 4.50259 29.7169C4.38259 29.9156 4.36544 30.1877 4.57545 30.3864C4.66716 30.4728 4.77431 30.5419 4.87374 30.6188C5.35974 30.6214 5.80975 30.8114 6.27861 30.9038C7.14177 31.0731 8.00578 31.2174 8.88779 31.2174H8.8895Z"
            fill="#AD8B5C" />
        <path
            d="M10.8086 0.696289C9.49715 0.829316 8.30399 0.944204 7.13226 1.24654C6.55283 1.39598 6.08053 1.65685 5.77796 2.18637C5.75224 2.23129 5.75139 2.29003 5.73424 2.36C6.89569 2.30557 8.01084 2.48266 9.12171 2.6917C9.32143 2.72971 9.42686 2.7228 9.53058 2.48438C9.81001 1.84084 10.2557 1.3001 10.8077 0.696289H10.8086Z"
            fill="#393A3A" />
        <path
            d="M8.53677 13.2025C8.72106 13.2025 8.90878 13.1844 9.09049 13.206C9.47535 13.2518 9.54907 13.073 9.48564 12.7318C9.30049 11.7315 8.46734 10.9601 7.47219 10.8754C7.27847 10.859 7.17132 10.8676 7.14561 11.1164C7.08647 11.6874 6.93989 12.242 6.66989 12.7542C6.58503 12.9157 6.58246 13.009 6.80103 13.0401C7.37704 13.1231 7.94876 13.244 8.53677 13.2034V13.2025Z"
            fill="#AE8C5C" />
        <path
            d="M14.2822 32.0001C15.6639 31.7029 16.7568 30.9894 17.5017 29.7481C17.4357 30.0737 17.3697 30.3994 17.2943 30.7752C17.7357 30.4711 17.9637 30.0418 18.2688 29.6807C18.3545 29.5796 18.2825 29.1261 18.6503 29.4371C18.6537 29.4397 18.7686 29.3283 18.814 29.2583C18.9108 29.108 18.9957 28.9508 19.1234 28.7314C19.2211 29.2669 18.9717 29.723 19.1286 30.2595C19.5151 29.5002 19.7706 28.7193 20.2643 28.0567C20.4349 28.2157 20.3054 28.4118 20.4246 28.6286C20.608 28.2753 20.7143 27.9436 20.7734 27.5937C20.5086 27.5583 20.6414 27.3519 20.6269 27.2214C20.6054 27.0374 20.6217 26.85 20.6217 26.5321C20.1914 27.4771 19.8546 28.3349 19.246 29.076C19.2957 28.6433 19.3454 28.2105 19.402 27.7181C19.1046 27.9989 19.0386 28.4014 18.7008 28.6027C18.5508 28.4023 18.8371 28.2019 18.6931 28.0032C18.4857 28.1302 18.4943 28.4515 18.214 28.5387V27.9928C17.8265 28.6174 17.5617 29.2574 17.128 29.7965C16.4071 30.6931 15.4822 31.3176 14.4939 31.8644C14.4211 31.905 14.3534 31.956 14.2831 32.0018L14.2822 32.0001Z"
            fill="#785725" />
        <path
            d="M16.5123 16.5741C17.9712 16.9705 19.1455 16.0782 19.1626 14.557C19.1712 13.7796 19.0632 13.0281 18.6535 12.3474C18.6775 12.8648 18.8463 13.3529 18.7709 13.9005C18.6183 15.0106 17.6189 15.7975 16.4609 15.7975C16.3623 15.7975 16.2646 15.7975 16.106 15.7975C16.3126 16.0558 16.418 16.3115 16.5123 16.5732V16.5741Z"
            fill="#785725" />
        <path
            d="M22.5085 12.248C23.3683 10.9463 24.5966 10.517 26.0889 10.713C25.11 9.50974 23.6091 9.53825 22.6937 10.7744C22.3851 11.1907 22.1468 11.639 22.0165 12.1487C22.1811 12.1815 22.3448 12.2152 22.5085 12.248Z"
            fill="#AE8B5C" />
        <path
            d="M8.18955 23.8948C7.91612 24.2974 7.77126 24.7552 7.62383 25.2121C7.8304 25.2441 7.6744 25.3624 7.65811 25.4177C7.46611 26.0829 7.21582 26.7333 7.17896 27.4365C7.20982 27.4641 7.23725 27.4624 7.26125 27.427C7.46268 26.4543 7.84497 25.549 8.29584 24.6714C8.34641 24.5729 8.34898 24.3613 8.56584 24.4235C8.85556 23.9726 9.05956 23.4862 9.15985 22.9567C8.91213 22.9688 8.98242 23.2219 8.85384 23.3178C9.13242 22.86 9.23699 22.3149 9.50614 21.8407C9.73671 21.3155 9.75128 20.7445 9.82585 20.1891C9.87385 19.8323 9.84643 19.4712 10.0033 19.1248C10.0633 18.9918 10.0633 18.7871 9.933 18.642C9.57042 19.4997 9.73842 20.4534 9.42128 21.3319C9.09984 22.2216 8.73213 23.082 8.28469 23.9112C8.27955 23.9216 8.26155 23.9346 8.25555 23.932C8.23241 23.9225 8.21183 23.9069 8.1904 23.8931L8.18955 23.8948Z"
            fill="#A88758" />
        <path
            d="M6.49661 17.6123C6.26347 17.5121 6.02946 17.4119 5.74146 17.2883C5.53231 18.5443 5.40117 19.7925 5.3206 21.1781C5.55203 20.6598 5.51517 20.1856 5.73375 19.8012C5.8786 19.8236 5.79032 19.9705 5.88632 20.0327C6.14432 19.4885 6.43061 18.965 6.59518 18.3862C6.57976 18.1262 6.70147 17.8481 6.49661 17.6131V17.6123Z"
            fill="#AC7A21" />
        <path
            d="M1.53307 11.481C2.47766 11.595 3.43424 11.6606 4.27597 12.1841C4.61368 12.3586 4.99426 12.4355 5.33369 12.6981C5.35341 12.4346 5.28312 12.2472 5.10912 12.1193C4.32397 11.5423 3.51481 11.0197 2.51023 10.9117C2.03194 10.8599 1.71908 11.0482 1.53222 11.4818L1.53307 11.481Z"
            fill="#AD8B5C" />
        <path
            d="M5.64774 12.8734C5.68545 11.8437 5.47459 10.8227 5.63059 9.79303C5.65802 9.60904 5.60831 9.48811 5.38459 9.50279C5.17373 9.51661 4.96201 9.50538 4.68601 9.50538C5.01687 10.6655 5.3323 11.7694 5.64774 12.8734Z"
            fill="#AC7A22" />
        <path
            d="M11.5276 13.4729C11.8251 13.8901 12.2314 14.1104 12.7337 14.1812C13.7022 14.3177 14.6502 14.2909 15.5605 13.8814C15.5125 13.6698 15.3317 13.7026 15.192 13.6966C14.832 13.6802 14.4702 13.6715 14.1111 13.726C13.3954 13.9376 12.7122 13.8953 12.0822 13.4556C11.8954 13.3986 11.7085 13.3122 11.5276 13.472V13.4729Z"
            fill="#FCFCFC" />
        <path
            d="M18.1534 27.1903C17.9477 27.3251 17.916 27.5678 17.8183 27.7647C17.5217 28.3573 17.0914 28.8419 16.5377 29.1659C16.026 29.4639 15.4131 29.3999 14.8345 29.4172C14.6794 29.4215 14.5234 29.4215 14.3674 29.4233C14.946 29.5442 15.5203 29.7101 16.1048 29.7714C16.5703 29.8206 16.9183 29.4734 17.2089 29.1572C17.7154 28.6052 18.072 27.9591 18.1543 27.1903H18.1534Z"
            fill="#AB895A" />
        <path
            d="M6.39844 28.6623C6.39072 28.5932 6.40787 28.4964 6.36929 28.4619C6.27586 28.3781 6.26901 28.493 6.24158 28.5465C6.17472 28.6778 6.08129 28.6156 5.98872 28.5854C4.67642 28.1656 3.90841 27.3242 3.92555 25.8765C3.71383 26.7878 4.01469 27.6136 4.3447 28.4359C4.3927 28.5552 4.46984 28.5672 4.57356 28.575C5.08013 28.613 5.58414 28.6744 6.077 28.8013C6.23215 28.8411 6.31015 28.7512 6.39844 28.6623Z"
            fill="#AC8A5B" />
        <path
            d="M24.9023 9.31883C24.6872 9.15557 24.4292 9.29637 24.1678 9.20913C24.3469 8.98453 24.6041 8.8947 24.8141 8.74353C23.4178 8.7513 21.9349 10.1248 22.1269 11.379C22.5049 10.51 23.0989 9.99261 23.8729 9.6825C23.8095 9.66867 23.7358 9.67472 23.7032 9.59784C23.3655 9.61685 23.2738 9.67127 22.762 10.149C22.72 10.1878 22.7123 10.0876 22.738 10.1386C22.7423 10.1464 22.756 10.1438 22.774 10.1248C23.3166 9.55465 23.9775 9.3076 24.7583 9.38707C24.8192 9.39312 24.8672 9.36807 24.9023 9.31797V9.31883Z"
            fill="#775625" />
        <path
            d="M15.0593 5.79618C14.9033 5.96117 14.8287 5.78322 14.7593 5.70548C14.6213 5.54999 14.5073 5.37291 14.383 5.20447C14.3359 5.25111 14.2887 5.29776 14.2416 5.34354C14.341 5.45065 14.4336 5.56468 14.5399 5.66402C15.8067 6.84485 16.6965 8.3047 17.5476 9.79305C17.6633 9.99518 17.6565 9.9995 17.7928 9.93558C17.8116 9.65138 17.6016 9.46307 17.485 9.24366C16.8207 7.99286 15.9902 6.85867 15.0584 5.79704L15.0593 5.79618Z"
            fill="#161615" />
        <path
            d="M18.649 10.7113C18.6122 10.4176 18.6996 10.1352 18.7305 9.84751C18.4056 9.68684 18.5865 9.39401 18.5762 9.16769C18.547 8.55957 18.6199 7.94194 18.5445 7.34159C18.4725 6.76974 18.5076 6.17976 18.3105 5.62519C18.1185 5.46366 18.2367 5.15873 17.9582 4.91772C18.127 5.7824 18.2633 6.55811 18.2205 7.34763C18.3387 7.36145 18.385 7.43056 18.391 7.54804C18.4339 8.36434 18.5565 9.17547 18.4168 10.0013C18.3816 10.2095 18.1433 10.6241 18.649 10.7105V10.7113Z"
            fill="#161615" />
        <path
            d="M14.9631 19.0773C15.4946 18.6696 15.9069 18.1772 16.0654 17.5043C15.5657 17.6865 15.1551 18.077 14.5997 18.1357C14.3948 18.1573 14.4986 18.3024 14.5474 18.3897C14.6786 18.6229 14.8243 18.8484 14.964 19.0773H14.9631Z"
            fill="#785725" />
        <path
            d="M8.6428 14.8274C9.72795 14.6598 10.8105 14.7842 11.9531 14.9526C10.6674 14.259 9.79567 14.1674 8.6428 14.8274Z"
            fill="#DAC09B" />
        <path
            d="M12.3708 14.5078C12.9742 14.6468 13.5828 14.7237 14.2034 14.6736C14.4871 14.4404 14.8479 14.5034 15.1719 14.4292C15.6777 14.3125 16.1431 14.1277 16.6445 13.7208C16.2897 13.8383 16.0377 13.8988 15.8037 14.0024C14.7399 14.4715 13.6385 14.5423 12.5071 14.3488C12.4085 14.3315 12.2748 14.278 12.213 14.4041C12.1942 14.4421 12.2876 14.5155 12.3708 14.5078Z"
            fill="#A18053" />
        <path
            d="M8.88965 31.2174C7.91421 31.1733 6.97391 30.9159 6.02418 30.7224C5.73361 30.6628 5.44818 30.5799 5.16103 30.5039C5.03417 30.4702 4.90302 30.4115 4.8756 30.6196C5.74818 31.0826 6.70733 31.1535 7.6622 31.2226C8.06935 31.2519 8.48079 31.2208 8.88965 31.2174Z"
            fill="#DCC29D" />
        <path
            d="M7.18582 14.3393C7.88011 14.5734 8.44326 14.2399 9.00984 13.9152C9.09298 13.8676 9.14184 13.7605 9.26784 13.7666C9.37242 13.8841 9.27984 14.0378 9.32956 14.1657C9.63556 13.986 9.49156 13.6845 9.49842 13.4383C9.50099 13.3442 9.33642 13.364 9.25927 13.4461C8.58384 14.1657 7.79011 14.271 6.80867 13.8754C6.92953 13.9843 6.97924 14.0326 7.03324 14.0758C7.09924 14.1294 7.17039 14.1778 7.23725 14.2304C7.37011 14.3367 7.22867 14.3142 7.18582 14.3384V14.3393Z"
            fill="#A98758" />
        <path
            d="M8.81464 17.1804C8.63806 17.3411 8.4092 17.3195 8.19834 17.3601C8.02091 17.6564 7.7072 17.7782 7.41576 17.8421C6.99319 17.9354 6.84147 18.1945 6.7729 18.5677C7.41062 18.1634 8.08434 17.8291 8.77349 17.5233C8.86607 17.4819 8.95521 17.4577 9.05121 17.4447C9.0975 17.2426 8.99807 17.1735 8.81464 17.1804Z"
            fill="#A88758" />
        <path
            d="M14.111 13.7269C14.4187 13.885 14.7504 13.7874 15.0693 13.8185C15.233 13.8349 15.4096 13.7623 15.5604 13.8815C15.8784 13.777 16.1964 13.6716 16.6182 13.5325C15.797 13.5325 15.0907 13.5256 14.3853 13.5412C14.2927 13.5429 14.2018 13.6621 14.111 13.726V13.7269Z"
            fill="#CFCECD" />
        <path
            d="M8.38069 13.5559C7.92468 13.7373 7.49096 13.7157 7.10353 13.3909C6.92696 13.2432 6.73667 13.1905 6.51381 13.225C6.84124 13.9403 7.8484 14.1053 8.63184 13.7122C8.62841 13.5291 8.54955 13.4695 8.38069 13.5559Z"
            fill="#EEEEEE" />
        <path
            d="M23.1075 12.5434C24.2107 11.468 25.6944 11.6088 26.447 12.8587C26.5224 12.8743 26.5679 12.8622 26.5284 12.7706C25.7827 11.4473 23.981 11.265 23.0938 12.4225C23.0981 12.4622 23.1024 12.5028 23.1067 12.5426L23.1075 12.5434Z"
            fill="#24211B" />
        <path
            d="M4.54765 11.3885C4.5425 11.4239 4.53736 11.4602 4.53221 11.4956C4.71136 11.626 4.85536 11.8109 5.08594 11.874C5.07222 11.2321 4.4825 10.5653 3.6802 10.2742C3.69563 10.4608 4.01192 10.478 3.92792 10.7199C4.04707 10.9842 4.36336 11.024 4.52022 11.246C4.55279 11.2917 4.66079 11.3151 4.5485 11.3876L4.54765 11.3885Z"
            fill="#775725" />
        <path
            d="M12.2285 17.6149C12.9416 18.21 13.7671 18.591 14.6328 18.895C14.5617 18.6273 14.3928 18.5063 14.1237 18.4104C13.4791 18.1798 12.8585 17.8844 12.2276 17.6157L12.2285 17.6149Z"
            fill="#A68455" />
        <path
            d="M7.69586 15.0986C7.83815 15.1046 7.98215 15.1288 8.12101 15.1124C8.59159 15.058 8.79387 15.3197 8.88045 15.7344C8.9353 15.9978 8.98931 16.263 9.14702 16.4902C9.18388 16.0099 9.07759 15.5227 9.24902 14.9777C8.70987 15.0744 8.19815 14.9457 7.69586 15.0977V15.0986Z"
            fill="#A78658" />
        <path
            d="M21.4055 13.5636C21.6344 13.2639 21.8658 12.9667 22.0904 12.6644C22.195 12.5236 22.3038 12.4009 22.501 12.4277C22.057 12.2791 21.6301 12.4821 21.4835 12.9399C21.4201 13.1369 21.349 13.3451 21.4055 13.5636Z"
            fill="#A98759" />
        <path
            d="M1.10285 12.5089C0.970845 12.59 1.05742 12.7499 0.977701 12.863C0.8877 12.5175 1.02656 12.1996 1.05913 11.8584C0.665698 12.2532 0.712841 13.358 1.16113 14.0715C1.13885 13.8417 1.11999 13.6525 1.10113 13.4634C0.938272 13.1446 1.20485 12.8267 1.10285 12.508V12.5089Z"
            fill="#2C200E" />
        <path
            d="M11.8262 14.4128C11.3119 14.0103 10.717 14.0534 10.1153 14.1217C10.5619 14.2219 11.0093 14.323 11.4559 14.4232C11.5802 14.4689 11.7045 14.4983 11.8253 14.4128H11.8262Z"
            fill="#D0B692" />
        <path
            d="M21.5422 19.0765C21.5834 18.8363 21.7239 18.9331 21.8602 18.9728C22.2665 19.0911 22.6737 19.2155 23.1631 19.1413C22.6171 18.9996 22.1234 18.8717 21.6296 18.7439C21.5354 18.8372 21.3785 18.9141 21.5414 19.0765H21.5422Z"
            fill="#523B1A" />
        <path
            d="M6.49644 17.6124C6.5393 17.8689 6.40816 18.1479 6.59502 18.3855C6.70559 18.2879 6.71073 18.135 6.78016 18.0192C7.00302 17.6478 6.85645 17.5597 6.49644 17.6115V17.6124Z"
            fill="#785827" />
        <path
            d="M6.35453 15.1374C6.52254 15.0804 6.80283 15.1478 6.77883 14.9906C6.74111 14.7522 6.47539 14.6269 6.28082 14.4161C6.24568 14.7029 6.51139 14.8843 6.35539 15.1374H6.35453Z"
            fill="#725428" />
        <path
            d="M11.8262 14.4127C11.7028 14.4162 11.5793 14.4196 11.4568 14.4231C11.7885 14.5898 12.1202 14.7574 12.5625 14.9802C12.3019 14.6684 12.1116 14.4775 11.8271 14.4127H11.8262Z"
            fill="#A28154" />
        <path
            d="M11.5275 13.4729C11.7126 13.4677 11.8969 13.4617 12.082 13.4565C11.8832 13.1464 11.5292 13.2803 11.2429 13.1351C11.32 13.2941 11.398 13.4055 11.5275 13.4729Z"
            fill="#C6C5C5" />
        <path
            d="M11.0281 13.2146C11.0007 13.3044 11.0598 13.4211 10.945 13.4824C11.1018 13.6923 11.3212 13.7934 11.6504 13.9212C11.395 13.631 11.2115 13.4228 11.0281 13.2137V13.2146Z"
            fill="#94774D" />
        <path
            d="M8.38051 13.5558C8.49194 13.5619 8.59223 13.5869 8.63165 13.7122C8.7688 13.6292 8.9068 13.5455 9.04395 13.4625C8.80137 13.4245 8.54851 13.2613 8.38051 13.5567V13.5558Z"
            fill="#BBBAB8" />
        <path
            d="M7.26172 27.4279C7.23429 27.433 7.20686 27.4356 7.17943 27.4374C7.032 27.7336 7.00029 28.0481 7.07229 28.3806C7.13572 28.0628 7.19829 27.7457 7.26172 27.4279Z"
            fill="#624F36" />
        <path
            d="M12.3172 16.4928C12.1167 16.4721 11.9109 16.3926 11.7301 16.5593C11.6787 16.6068 11.5681 16.6396 11.5655 16.6846C11.5269 17.3514 10.6569 17.7211 10.9561 18.5755C11.0306 18.1824 11.1104 17.8654 11.3247 17.5959C11.5912 17.2616 11.9101 17.1044 12.3292 17.2029C12.9155 17.3402 13.507 17.3903 14.1061 17.3419C14.1335 17.3333 14.161 17.3264 14.1884 17.3229C14.4713 17.2875 14.7413 17.1959 14.7816 16.8763C14.8261 16.523 14.5373 16.3874 14.2715 16.2803C13.7924 16.0859 13.3038 16.1015 12.823 16.282C12.6524 16.3459 12.481 16.4116 12.3164 16.4928H12.3172Z"
            fill="#060201" />
        <path
            d="M12.317 16.4928C12.8699 16.4073 13.4013 16.1317 13.9824 16.3045C14.0639 16.3287 14.1487 16.3442 14.2267 16.3762C14.4385 16.4626 14.6785 16.5464 14.7025 16.8124C14.7273 17.0871 14.4625 17.1312 14.2876 17.2392C14.2284 17.2754 14.1667 17.3074 14.1067 17.3419C14.279 17.4257 14.4522 17.481 14.6296 17.3566C14.741 17.2918 14.7813 17.0828 14.9742 17.1821C15.3299 17.0811 15.4379 16.8038 15.4688 16.473C14.7573 15.8493 13.9276 15.9106 13.0833 16.0531C12.7919 16.1369 12.5596 16.3244 12.3161 16.4937L12.317 16.4928Z"
            fill="#AC8A5B" />
        <path
            d="M13.0833 16.0523C13.1964 16.2052 13.3216 16.0679 13.433 16.0549C14.159 15.9685 14.8362 16.1041 15.4688 16.473C15.2947 16.1067 14.9399 16.0074 14.6022 15.9366C14.093 15.8294 13.5719 15.7802 13.0833 16.0532V16.0523Z"
            fill="#272118" />
        <path
            d="M9.50685 21.8424C9.47428 21.8208 9.46913 21.6515 9.40828 21.7983C9.16742 22.3814 8.94799 22.9731 8.78084 23.5942C8.9077 23.3826 9.0337 23.1701 9.16056 22.9584C9.2377 22.574 9.52656 22.257 9.50685 21.8424Z"
            fill="#4C3F2C" />
        <path
            d="M11.9916 20.05C12.3207 19.758 12.4793 19.4255 12.2445 19.0031C12.1605 19.352 12.0756 19.701 11.9916 20.05Z"
            fill="#2E2920" />
        <path
            d="M15.2096 28.7719C15.651 28.6389 15.897 28.3141 16.0342 27.8831C15.7359 28.1552 15.5182 28.5085 15.2096 28.7719Z"
            fill="#2A2218" />
        <path
            d="M15.3252 27.9988C15.1203 28.1543 14.9146 28.3089 14.6686 28.4955C15.0338 28.4929 15.1015 28.4462 15.3252 27.9988Z"
            fill="#5D4A32" />
        <path
            d="M12.846 18.7759C12.816 19.1119 12.8065 19.3391 12.8845 19.6552C13.0525 19.3339 13.1125 19.1067 12.846 18.7759Z"
            fill="#3E3426" />
        <path
            d="M14.9733 17.1812C14.9956 17.0923 15.0179 17.0024 15.041 16.9135C14.891 17.0568 14.6553 17.1113 14.6287 17.3557C14.7436 17.2978 14.8584 17.2391 14.9733 17.1812Z"
            fill="#423625" />
        <path
            d="M9.65283 16.4116C9.63911 16.7762 9.68454 16.9886 9.86197 17.2426C9.87311 16.9342 9.81397 16.7209 9.65283 16.4116Z"
            fill="#413A32" />
        <path
            d="M7.98811 5.03864C7.7644 5.10602 7.71382 5.2451 7.78754 5.46537C8.15783 6.57278 8.52126 7.68278 8.75441 8.87139C9.04498 8.62434 9.3107 8.39456 9.5807 8.16997C9.94842 7.86418 10.1361 7.89701 10.4267 8.2719C10.6881 8.60965 10.9727 8.9284 11.247 9.25579C11.2984 9.31712 11.3284 9.42682 11.4399 9.36722C11.5427 9.31193 11.559 9.20655 11.5376 9.10462C11.4982 8.91285 11.4467 8.72368 11.3713 8.41529C11.901 8.97073 12.3939 9.38363 13.0007 9.63327C13.119 9.68165 13.2365 9.73175 13.3565 9.77494C13.4302 9.80172 13.5168 9.87514 13.5768 9.76198C13.6145 9.69115 13.575 9.62291 13.527 9.56589C13.4996 9.53307 13.4679 9.5037 13.4396 9.47174C12.9819 8.95691 12.9613 8.94049 13.4139 8.38247C13.5905 8.16479 13.5733 8.01621 13.4465 7.81926C13.0676 7.231 12.723 6.62806 12.5096 5.95083C12.3887 5.5673 12.2113 5.54138 11.9216 5.81262C11.7827 5.94219 11.6473 6.01735 11.4647 5.92578C11.283 5.83508 11.0644 5.73401 11.1433 5.49042C11.2067 5.29433 11.4424 5.2546 11.613 5.30297C11.8376 5.36689 12.0639 5.35566 12.2867 5.38849C12.4847 5.41699 12.537 5.26669 12.3999 5.16735C12.009 4.88402 11.8102 4.36919 11.2393 4.28799C10.845 4.23184 10.5133 4.30008 10.2673 4.56873C10.0187 4.84083 9.94328 5.19154 10.1079 5.56643C10.2536 5.899 10.4679 6.18061 10.6993 6.45271C10.7456 6.50713 10.7996 6.55464 10.8484 6.60733C11.0182 6.7896 10.8922 7.00123 10.8039 7.11093C10.7061 7.23273 10.599 7.03146 10.515 6.95286C9.96128 6.43543 9.57213 5.77202 9.01841 5.25201C8.76298 5.01187 8.54098 4.73285 8.31983 4.45816C8.23669 4.35537 8.13554 4.29231 8.03183 4.31909C7.88011 4.35796 7.96326 4.51172 7.95726 4.61192C7.94954 4.75359 7.97526 4.89611 7.98726 5.03864C8.1244 5.01619 8.18526 4.94103 8.1604 4.82874C8.76727 5.53707 9.39642 6.26267 10.0401 6.97618C10.5039 7.49015 11.0722 7.94452 11.0567 8.67271C10.9316 8.4939 10.7524 8.27104 10.5724 8.04904C10.2561 7.66032 10.1156 7.62663 9.65442 7.80717C9.38613 7.91255 9.16498 8.08704 8.90527 8.34705C8.66098 7.18004 8.19726 6.14778 7.98554 5.03951L7.98811 5.03864Z"
            fill="#080606" />
        <path
            d="M3.59007 4.56874C3.47093 4.57738 3.32264 4.54369 3.27121 4.68881C3.23435 4.7916 3.39293 4.77087 3.42036 4.84861C4.17722 5.57767 5.00009 6.25058 5.37724 7.29062C5.49467 7.61627 5.56924 7.89615 5.14924 8.06287C4.95295 8.14061 5.04552 8.26759 5.16724 8.34533C5.39867 8.49218 5.65667 8.58806 5.92325 8.62607C6.24296 8.67185 6.46754 8.36952 6.40154 7.97821C6.35954 7.72598 6.28839 7.47374 6.17354 7.24311C5.68667 6.267 5.00438 5.4481 4.16094 4.76655C4.00408 4.63957 3.83522 4.46853 3.58922 4.56874H3.59007Z"
            fill="#EBEAEA" />
        <path
            d="M5.30189 5.53789C6.12219 6.33346 6.90134 7.15495 7.20734 8.31333C7.2502 8.47572 7.24077 8.74869 7.45763 8.76337C7.64364 8.77633 7.64535 8.50941 7.74478 8.37811C8.17421 7.80972 8.12621 7.3018 7.67878 6.73082C7.3162 6.26868 7.45849 5.63205 7.35992 5.07575C7.33506 4.93668 7.37535 4.78465 7.3462 4.6473C7.2982 4.42184 7.18934 4.29918 6.92106 4.4158C6.30219 4.68358 6.2859 4.69222 6.37162 5.38586C5.88047 5.04033 5.55732 4.59633 5.16732 4.14197C5.00532 4.66976 4.94874 5.12326 5.30275 5.53962L5.30104 5.53789H5.30189Z"
            fill="#090807" />
        <path
            d="M3.58956 4.56873C4.54271 5.01618 5.15386 5.81953 5.71701 6.66693C5.96902 7.04615 6.17988 7.44868 6.28702 7.89873C6.33416 8.09741 6.38388 8.29609 6.21674 8.46107C6.05645 8.62002 5.87559 8.55523 5.69987 8.48958C5.49416 8.4127 5.2893 8.33323 5.04758 8.2408C5.57558 7.98511 5.66901 7.77953 5.45387 7.2837C5.13929 6.55809 4.73472 5.88518 4.08756 5.40922C3.85099 5.23559 3.75842 4.89266 3.41984 4.84774C3.35041 4.83997 3.25956 4.85638 3.2167 4.81837C3.12413 4.73717 3.08641 4.73026 3.06498 4.86242C3.05384 4.93326 3.0367 5.04469 3.13613 5.00495C3.54413 4.84083 3.62042 5.23386 3.84242 5.39281C4.36443 5.76684 4.74329 6.25403 5.05701 6.80342C5.09987 6.8777 5.14529 6.95026 5.18386 7.02628C5.53787 7.7277 5.47273 7.8564 4.71586 7.96265C4.67729 7.96784 4.643 7.9998 4.55729 8.04558C4.98586 8.4317 5.47701 8.63038 5.99816 8.70899C6.34531 8.76168 6.57245 8.29781 6.4756 7.82963C6.32131 7.08329 5.93559 6.45443 5.48901 5.8584C5.41272 5.75647 5.29701 5.68305 5.30044 5.5362L5.30215 5.53793C5.07758 5.32629 4.84872 5.11811 4.63014 4.9013C4.29585 4.56959 3.91699 4.35968 3.42413 4.42533C3.4207 4.54022 3.57156 4.47975 3.58956 4.56786V4.56873Z"
            fill="#090807" />
        <path
            d="M20.6277 23.2781C20.5412 24.3103 20.44 25.3409 20.2454 26.3602C20.6209 25.3642 20.7323 24.3345 20.6277 23.2781Z"
            fill="#392912" />
        <path
            d="M20.155 23.247C20.2973 22.7667 20.2905 22.2856 20.2579 21.8053C20.2236 21.8053 20.1893 21.8045 20.155 21.8036V23.247Z"
            fill="#3D2D14" />
        <path
            d="M20.1762 24.3215C20.1273 24.8485 19.9902 25.3633 19.973 25.8945C20.189 25.3901 20.2747 24.8683 20.1762 24.3215Z"
            fill="#382912" />
        <path
            d="M20.5265 22.3158C20.5942 22.0117 20.5685 21.7215 20.3799 21.3993C20.3131 21.7621 20.4425 22.0351 20.5265 22.3158Z"
            fill="#362812" />
        <path
            d="M8.81476 17.1804C8.93904 17.227 9.00762 17.3238 9.05133 17.4447C9.24591 17.6969 9.33076 17.9906 9.34534 18.3828C9.49619 17.7211 9.25619 17.0975 8.7119 16.5878C8.24646 16.1516 7.69446 16.0401 7.09531 16.168C6.88102 16.2138 6.62302 16.3209 6.62902 16.5947C6.63416 16.8599 6.8793 16.9636 7.09959 17.0232C7.48617 17.1277 7.8856 17.1216 8.28332 17.1018C8.46504 17.0931 8.65361 17.0465 8.81476 17.1804Z"
            fill="#060302" />
        <path
            d="M8.11426 15.9478C7.49111 15.6843 6.75395 15.8113 6.42138 16.1672C6.2088 16.3944 6.20023 16.4929 6.38538 16.8323C6.53795 15.7932 7.37968 16.0774 8.11426 15.9487V15.9478Z"
            fill="#2B251C" />
        <path
            d="M4.60262 26.6875C4.49719 27.0002 4.4869 27.2974 4.75519 27.6152C4.77919 27.2481 4.73891 26.9613 4.60262 26.6875Z"
            fill="#362D21" />
        <path
            d="M7.23813 19.4031C7.54413 19.1629 7.67699 18.9556 7.65727 18.6584C7.45927 18.8234 7.31098 19.0204 7.23813 19.4031Z"
            fill="#53432F" />
        <path
            d="M5.1246 27.1617C5.00202 27.496 5.06631 27.6809 5.21888 27.9176C5.35603 27.6325 5.24974 27.452 5.1246 27.1617Z"
            fill="#3A3125" />
        <path
            d="M26.5291 12.7706L26.4477 12.8587C26.5205 13.054 26.5934 13.2492 26.6663 13.4444C26.722 13.193 26.6834 12.9676 26.5291 12.7706Z"
            fill="#665A4A" />
        <path
            d="M24.9029 9.31885C24.0637 9.25838 23.2863 9.37327 22.7257 10.0989C22.6786 10.1602 22.58 10.2008 22.634 10.3295C22.9854 10.0695 23.2829 9.73866 23.7037 9.59786C24.8249 9.22642 25.7686 9.57108 26.6172 10.3278C26.198 9.72311 25.6057 9.42596 24.9029 9.31798V9.31885Z"
            fill="#171106" />
        <path
            d="M27.2403 16.27C27.6937 15.5349 27.9123 14.7436 27.8103 13.8763C27.7074 14.6961 27.5103 15.4917 27.2403 16.27Z"
            fill="#221A0D" />
        <path
            d="M4.54751 11.3885C4.61266 11.3989 4.7138 11.4395 4.73694 11.4127C4.79952 11.3401 4.71294 11.2926 4.66151 11.2546C4.41808 11.0741 4.17208 10.8979 3.92693 10.7199C3.45721 10.4452 2.96178 10.2353 2.4252 10.1369C1.98891 10.0565 1.57319 10.1256 1.1969 10.3649C1.07175 10.4444 0.92261 10.5273 0.955181 10.7899C1.50805 10.2016 2.15777 10.1731 2.83663 10.3822C3.48207 10.5809 4.07351 10.8875 4.54837 11.3877L4.54751 11.3885Z"
            fill="#312411" />
        <path
            d="M12.1544 5.82555C11.7121 5.97671 11.8467 6.31706 11.8913 6.66085C11.6693 6.30064 11.3221 6.13393 11.0333 5.89638C10.9124 5.79704 10.8181 5.65624 10.867 5.48261C10.9201 5.29344 11.077 5.21137 11.2536 5.19928C11.4918 5.18287 11.731 5.19496 12.0498 5.19496C11.8081 4.9626 11.6153 4.78292 11.4293 4.5972C11.1276 4.29573 10.7941 4.38298 10.4907 4.5566C10.1795 4.73455 10.1247 5.04725 10.2173 5.38154C10.3304 5.79358 10.5858 6.11406 10.8867 6.40344C11.0298 6.54078 11.1301 6.6479 11.0564 6.90531C10.933 7.33636 11.0847 7.75617 11.3607 8.10688C11.8124 8.68132 12.3216 9.19183 13.0296 9.46825C12.517 9.07176 12.4596 8.32629 11.8716 7.98422C11.7944 7.9393 11.7533 7.82873 11.7001 7.74494C11.5818 7.56095 11.6547 7.40978 11.8021 7.29576C11.9556 7.17655 12.0953 7.24825 12.2187 7.36659C12.4861 7.62314 12.5847 7.9704 12.7124 8.30124C12.7733 8.45845 12.823 8.61998 12.8787 8.78325C13.3896 8.36602 13.3999 8.29778 13.0956 7.76826C12.9113 7.44779 12.733 7.12299 12.5719 6.78956C12.4193 6.47427 12.2924 6.14688 12.1544 5.82468V5.82555Z"
            fill="#ECEBEB" />
        <path
            d="M7.98794 5.03861C7.87737 5.20706 7.90565 5.37464 7.96651 5.55604C8.29909 6.53733 8.62566 7.52035 8.84767 8.60012C9.15024 8.24941 9.44082 7.93412 9.89511 7.83478C10.1265 7.78381 10.268 7.81405 10.4068 8.00063C10.6528 8.32974 10.9143 8.6459 11.2031 8.95428C11.0797 8.46882 11.102 7.96262 10.7034 7.54195C9.83168 6.61939 9.00967 5.6476 8.1568 4.68445C8.10366 4.80365 8.10623 4.95396 7.98794 5.03861Z"
            fill="#ECEBEB" />
        <path
            d="M7.44989 8.56995C7.50217 8.50689 7.51332 8.49653 7.52017 8.48443C7.80561 7.99983 7.90246 7.56447 7.54246 7.01509C7.14645 6.41128 7.15674 5.65199 7.09245 4.93848C7.08045 4.80372 7.11217 4.55062 6.93816 4.58518C6.75988 4.62059 6.48473 4.67588 6.49159 5.00326C6.49759 5.26845 6.6373 5.52501 6.53873 5.85066C6.05187 5.45677 5.66015 5.01363 5.24186 4.57654C5.07214 4.88406 5.15271 5.09828 5.37815 5.33324C5.75444 5.72368 6.07844 6.16337 6.44616 6.56331C6.96045 7.12393 7.19788 7.82448 7.44989 8.56822V8.56995Z"
            fill="#EBEBEA" />
        <path
            d="M8.78637 6.04492C8.72551 6.41118 8.84809 6.71179 8.96552 7.00721C9.0778 7.29054 9.37781 7.18602 9.50981 7.11519C9.73524 6.99425 9.47895 6.87418 9.40438 6.7783C9.20895 6.5252 8.99295 6.28852 8.78551 6.04579L8.78637 6.04492Z"
            fill="#1C1C1B" />
    </g>
    <defs>
        <clipPath id="clip0_487_20576">
            <rect width="28.9032" height="32" fill="white" transform="matrix(-1 0 0 1 29 0)" />
        </clipPath>
    </defs>
</svg>