<svg xmlns="http://www.w3.org/2000/svg" width="31" height="32" viewBox="0 0 31 32" fill="none">
    <g clip-path="url(#clip0_487_20769)">
        <path
            d="M25.912 19.9997C27.0101 19.1062 28.0528 18.1451 29.0174 17.1163C30.0908 15.9724 30.5397 14.5702 30.3614 12.9757C30.2946 12.3756 29.9266 11.8221 30.1418 11.1685C30.2086 10.9664 29.9951 10.7125 29.8124 10.5333C29.5576 10.2838 29.2466 10.1283 28.9278 9.98155C27.7129 9.42366 26.4988 8.86314 25.2839 8.3035C24.9896 8.16821 24.727 7.96526 24.7498 7.62526C24.8175 6.62985 24.6014 5.66783 24.4696 4.69439C24.2834 3.31945 23.9223 1.9981 23.2784 0.761097C23.1493 0.513344 22.9674 0.378925 22.6889 0.298098C21.7648 0.0301385 20.8152 0.0239886 19.8726 0.00466038C18.2229 -0.0287248 16.581 0.121508 14.9418 0.319184C12.8186 0.575722 10.7138 0.926266 8.64854 1.48854C7.45032 1.81536 6.48665 3.11387 6.58943 4.32979C6.71768 5.8374 6.90919 7.33885 7.16482 8.83152C7.27111 9.4509 7.36072 10.0729 7.47052 10.7731C6.101 9.11002 3.63693 9.045 2.52128 11.0789C1.94941 12.1217 1.46362 13.2085 0.993643 14.3005C0.831128 14.6792 0.754702 15.0833 0.824979 15.4971C1.05689 16.8598 1.49261 18.1477 2.29552 19.2855C2.4554 19.5121 2.44486 19.6053 2.22173 19.7766C1.6358 20.2273 1.22116 20.7992 1.21062 21.5767C1.20447 22.0222 1.46889 22.233 1.90812 22.1917C2.1497 22.1689 2.35789 22.0766 2.55379 21.9492C3.0343 21.6374 3.36987 21.1998 3.57543 20.6727C3.64395 20.497 3.70633 20.4583 3.88553 20.5005C4.83163 20.7254 5.7953 20.6876 6.75721 20.6824C7.47931 20.6788 8.19789 20.6648 8.84004 20.1956C8.81105 20.3837 8.77679 20.5251 8.76889 20.6674C8.73638 21.2956 8.54488 21.7814 7.99321 22.2058C6.84594 23.0878 6.79938 24.3811 7.76305 25.481L9.76418 27.131L11.3173 28.6113L12.7905 29.9476C12.7905 29.9476 13.9746 31.1099 14.6449 31.2821C14.6449 31.2821 15.9266 31.9648 17.1292 31.9982C18.164 31.9516 19.1962 31.8348 20.231 31.8277C21.9528 31.8163 23.2845 31.0274 24.3686 29.7904C25.2251 28.8125 25.7636 27.6159 26.3881 26.4852C26.801 25.7385 27.2578 25.0382 27.907 24.476C28.1169 24.2941 28.3146 24.0938 28.4455 23.8469C29.0314 22.7391 29.1105 21.5934 27.7287 20.8493C27.1137 20.5181 26.4611 20.3195 25.7952 20.1983C25.775 20.0656 25.8602 20.0401 25.9103 19.9988L25.912 19.9997ZM3.19067 20.4452C2.99917 21.0206 2.63636 21.4669 2.10577 21.7551C1.78426 21.9299 1.61998 21.8175 1.67708 21.4599C1.77635 20.8387 2.12949 20.3678 2.63285 20.0032C2.66799 19.9778 2.70752 19.9576 2.74441 19.9356C2.90429 19.9207 3.24074 20.2949 3.19067 20.4452ZM25.5176 11.9311C25.7697 10.8592 25.5738 11.0051 26.5849 11.0912C26.2212 11.3776 25.8944 11.635 25.5176 11.9311Z"
            fill="#070504" />
        <path
            d="M16.2226 29.0859C16.2243 29.1105 16.2182 29.15 16.2296 29.157C16.2999 29.1966 16.364 29.1641 16.4343 29.1395C18.475 28.4331 20.5938 28.3189 22.7267 28.333C23.1607 28.3356 23.5946 28.3918 24.0769 28.427C23.9609 28.2214 23.7457 28.3742 23.6623 28.2319C23.6341 28.1502 23.6737 28.0861 23.7352 28.0492C24.1278 27.812 24.4994 27.544 24.871 27.2769C24.965 27.2093 25.0731 27.1601 25.1846 27.255C25.0889 27.4386 24.8596 27.5273 24.7823 27.8322C25.1829 27.5212 25.449 27.1759 25.8681 26.9255C24.9237 28.5939 24.1349 30.3238 22.2787 31.1575C22.226 31.1812 22.1689 31.1944 22.1144 31.212C21.5461 31.3552 20.9733 31.4492 20.3839 31.4132C19.429 31.3543 18.4943 31.5379 17.5535 31.6504C17.181 31.6943 16.8217 31.66 16.4756 31.5344C14.8575 30.9475 13.343 30.1937 12.1123 28.94C11.4701 28.2864 10.7893 27.6661 10.0813 27.0801C9.33898 26.5389 8.5756 26.0241 7.92642 25.3661C7.06026 24.4884 7.06992 23.2611 7.95717 22.4159C8.42539 21.9705 8.963 21.6269 9.56211 21.3818C9.93809 21.2527 10.2868 21.0409 10.6927 21.0005C11.3533 20.8969 11.9717 20.6184 12.6402 20.541C12.8467 20.5173 13.0619 20.5103 13.2393 20.4391C12.8203 20.5243 12.3723 20.5718 11.9348 20.6755C11.775 20.6869 11.5993 20.715 11.5334 20.5156C11.471 20.3302 11.5984 20.223 11.7293 20.1211C12.1984 19.753 12.6868 19.5298 13.3263 19.6089C13.8191 19.6704 14.3339 19.5746 14.8294 19.4666C15.3977 19.4508 15.9529 19.3866 16.5318 18.9878C16.0803 19.087 15.7377 19.1784 15.3889 19.2364C14.9629 19.3067 14.5482 19.2575 14.1705 19.0273C13.7436 18.7672 13.6672 18.4132 13.9395 17.9976C14.2276 17.5566 14.6739 17.3334 15.1438 17.1762C16.299 16.7896 17.4832 16.4918 18.6155 16.034C18.9695 15.8908 19.3552 15.8856 19.7364 15.9146C20.3048 15.9576 20.5938 16.2985 20.4972 16.8669C20.4339 17.2394 20.332 17.6058 20.3294 17.9853C20.3285 18.1619 20.2345 18.212 20.0843 18.2181C19.9279 18.2252 19.7865 18.2647 19.6143 18.4132C19.9754 18.4633 20.2345 18.2849 20.5165 18.2919C20.6808 18.2102 20.8512 18.1716 21.0339 18.212C21.8263 18.306 22.6055 18.4764 23.3891 18.624C23.8617 18.7128 24.0541 19.0712 23.8511 19.4551C23.3882 19.3067 22.9244 19.1591 22.4614 19.0106C22.4517 19.0334 22.4412 19.0563 22.4315 19.0791C22.7838 19.2355 23.1361 19.3928 23.4874 19.5492C23.5006 19.7055 23.4058 19.6651 23.3197 19.6405C22.4886 19.3928 21.6005 19.2882 20.9136 18.6759C20.8064 18.8314 21.0409 18.856 21.0058 18.9974C19.0003 18.704 17.2214 19.5588 15.2765 20.1149C15.5356 20.2371 15.6736 20.1413 15.8106 20.1044C16.9157 19.8048 17.9962 19.4007 19.1347 19.2443C20.0167 19.1231 20.8977 19.1055 21.7692 19.4059C23.2977 19.9331 24.878 20.252 26.4751 20.4998C27.1489 20.6043 27.726 20.9698 28.2302 21.4214C28.6018 21.7535 28.7301 22.1962 28.6633 22.6917C28.6405 22.7348 28.615 22.7348 28.5869 22.697C28.0194 21.822 27.2068 21.2992 26.2107 21.0401C25.6889 20.8547 25.1275 20.925 24.5987 20.787C23.78 20.5735 22.9832 20.2863 22.19 19.999C21.0453 19.5852 19.9051 19.5579 18.7517 19.8707C17.9672 20.0833 17.1836 20.2959 16.3965 20.498C15.8308 20.6087 15.2677 20.737 14.6985 20.8257C13.7216 20.9768 12.8107 21.3001 11.9752 21.8264C11.1846 22.3245 10.3527 22.7357 9.47514 23.0555C9.32229 23.1732 9.11322 23.2777 9.37851 23.4886C9.3873 23.4956 9.39433 23.5106 9.39872 23.5264C9.69564 24.5385 10.4827 25.1034 11.305 25.649C12.3011 26.3096 13.2982 26.958 14.4305 27.3788C15.4487 27.7575 16.5011 27.9578 17.5701 28.1001C17.9013 28.1441 18.2307 28.2021 18.5681 28.1994C18.6805 28.1985 18.8492 28.1836 18.8413 28.3874C17.4788 28.4867 16.1347 28.4199 14.8311 27.9657C14.5702 28.1467 14.319 28.0219 14.0844 27.9183C13.5099 27.6653 12.996 27.3042 12.4707 26.965C11.8294 26.4458 11.0757 26.1199 10.3475 25.7553C9.69388 25.4285 9.03064 25.1218 8.52289 24.5727C7.8008 23.7926 7.87108 23.0809 8.75305 22.4879C9.63327 21.8958 10.64 21.576 11.6221 21.2052C12.179 20.9953 12.7465 20.8213 13.3202 20.6737C11.7881 21.1253 10.257 21.5821 8.86374 22.3939C8.36565 22.6838 7.98088 23.0739 8.01602 23.7179C7.98879 24.122 8.20401 24.4155 8.43681 24.7151C8.57912 24.8978 8.85495 25.0428 8.73021 25.3555C8.47546 25.3626 8.40079 25.1183 8.24354 25.0147C8.37004 25.1271 8.47282 25.2888 8.64851 25.3687C8.68717 25.3801 8.72494 25.3942 8.76271 25.41C10.1261 26.2833 11.5123 27.1188 12.8862 27.9745C13.097 28.1054 13.3026 28.2433 13.4994 28.3936C12.6121 27.7663 11.6608 27.2392 10.7559 26.6409C10.6277 26.5556 10.4485 26.5249 10.4151 26.3334C10.5688 26.1322 10.7366 26.2719 10.8842 26.329C11.594 26.6004 12.2546 26.9738 12.8888 27.3832C13.8385 27.9965 14.8417 28.4735 15.9265 28.7863C16.0671 28.8267 16.3139 28.7986 16.2208 29.085L16.2226 29.0859Z"
            fill="#DFC5A0" />
        <path
            d="M12.6465 1.6591C14.0011 1.49217 15.3566 1.32788 16.7103 1.15569C17.1873 1.09507 17.6722 1.15481 18.1457 1.04587C18.4215 0.982611 18.4426 1.21631 18.4962 1.38763C18.8151 2.41641 19.0444 3.46629 19.2078 4.5311C19.249 4.79994 19.3 5.0679 19.3922 5.32971C19.4072 4.27808 19.1401 3.26422 18.9635 2.23807C19.2956 3.14122 19.4625 4.07864 19.5512 5.02836C19.6127 5.69079 19.5881 5.68816 18.9223 5.77953C16.4301 6.12129 13.944 6.50082 11.516 7.17731C10.4407 7.4769 9.34617 7.73256 8.33594 8.23334C8.10139 8.21049 8.13653 8.01282 8.11632 7.86961C8.00564 7.07628 7.88441 6.28206 7.82204 5.48346C7.74737 4.52846 8.17518 3.69823 8.55292 2.8636C8.64076 2.66856 8.86214 2.60355 9.0633 2.55786C10.4548 2.24334 11.841 1.91124 13.2738 1.81021C13.8781 1.76716 14.4878 1.72411 15.0026 1.63274C14.385 1.68721 13.684 1.78473 12.9777 1.82163C12.8451 1.82866 12.6729 1.88313 12.6465 1.6591Z"
            fill="#6C6F5F" />
        <path
            d="M28.081 9.82177C26.194 9.7796 24.4195 10.1389 22.7593 11.0148C23.7308 10.7284 24.7086 10.4552 25.7091 10.2892C26.8792 10.095 28.0564 10.0107 29.215 10.3797C29.7167 10.5396 29.9828 10.9085 29.9328 11.3795C28.7337 10.7012 27.4265 10.5114 26.0939 10.6204C24.467 10.753 22.9411 11.2705 21.4811 12.0129C20.1467 12.6911 18.8132 13.3843 17.3251 13.6971C16.3579 13.9009 15.4382 13.8359 14.4956 13.5064C13.1103 13.0224 11.768 12.4803 10.6084 11.5587C10.5285 11.4954 10.4441 11.4357 10.3747 11.3619C10.2939 11.2767 10.127 11.1958 10.3168 11.057C10.4266 10.9771 10.5223 10.9252 10.6576 11.0535C12.0851 12.41 13.8728 12.9283 15.7553 13.2112C15.9424 13.2394 16.1532 13.2481 16.4203 13.0856C14.9937 13.0215 13.7594 12.5743 12.5472 12.0638C12.064 11.86 11.5958 11.614 11.1662 11.3109C10.8052 11.0561 10.8148 10.9331 11.1961 10.739C12.2968 10.1767 13.5012 9.93335 14.6845 9.632C16.3219 9.21469 17.9813 8.9028 19.6574 8.69195C20.8407 8.54347 22.0398 8.49691 23.2143 8.29747C24.3071 8.1121 25.2391 8.38972 26.1668 8.91949C26.7791 9.26828 27.4432 9.52482 28.0845 9.82265L28.081 9.82177Z"
            fill="#6C6F5F" />
        <path
            d="M8.58845 14.7144C8.67893 15.3539 8.91172 15.9804 8.76678 16.641C8.38816 17.5591 7.82331 18.3199 6.98878 18.7373C7.08892 18.609 7.33752 18.5396 7.52639 18.3867C8.01218 17.9931 8.37235 17.5134 8.6271 16.9459C8.66575 16.8598 8.69562 16.7183 8.81246 16.7306C8.97761 16.7482 8.85901 16.9336 8.93808 17.0153C8.93544 17.2042 8.9495 17.3957 8.92753 17.5828C8.88449 17.9466 9.10674 18.356 8.81246 18.6705C8.35917 19.1555 7.82595 19.5121 7.13987 19.6167C4.57916 20.0059 2.73352 18.2971 2.6404 15.6465C2.59736 14.4139 2.79501 13.2445 3.43453 12.1744C3.53028 12.0146 3.66293 11.8775 3.77801 11.729C4.14345 11.4119 4.56071 11.5999 4.95602 11.6157C5.89422 11.6526 6.61016 12.1323 7.21893 12.8C7.34104 12.9335 7.49038 13.0758 7.45172 13.2946C7.24089 13.3245 7.08541 13.5371 6.84734 13.4738C6.46346 13.1496 6.02598 12.9458 5.53229 12.8342C4.61079 12.6269 3.82369 13.0293 3.29661 14.0089C3.27114 14.0616 3.3704 14.0405 3.3133 14.0291C3.30627 14.0273 3.30803 14.0159 3.31857 13.9922C3.55576 13.4844 3.9212 13.0969 4.44739 12.8984C5.25294 12.5935 6.38088 12.9326 6.83505 13.5916C5.83887 14.2478 5.19496 15.1071 5.26963 16.3634C5.30213 16.9125 5.4831 17.4045 5.94604 17.7691C5.41809 16.9863 5.26085 16.1526 5.60872 15.2678C5.95132 14.3972 6.57941 13.805 7.45524 13.4756C7.62654 13.3965 7.775 13.4484 7.88041 13.5837C8.15449 13.9351 8.47952 14.2575 8.58933 14.7126L8.58845 14.7144Z"
            fill="#DFC5A0" />
        <path
            d="M8.34559 8.49955C10.4486 7.60606 12.6711 7.13954 14.8945 6.69148C17.6652 6.13272 20.4578 5.73034 23.297 5.76724C24.5514 5.78305 24.5514 5.7769 24.5532 7.01391C24.5532 7.08683 24.5532 7.15975 24.5532 7.23267C24.5549 8.01546 24.5549 8.02249 23.7775 8.04885C22.1743 8.10244 20.5983 8.40115 19.0092 8.57862C16.3949 8.8703 13.865 9.52131 11.3877 10.3911C10.9792 10.5343 10.6217 10.8119 10.1745 10.855C9.87148 11.0693 9.53942 11.2002 9.16959 11.2565C8.92977 11.2934 8.72421 11.289 8.62846 11.028C8.52744 10.7539 8.6188 10.5352 8.86828 10.3964C9.28994 10.1635 9.76079 10.0801 10.229 9.95356C9.85303 10.0318 9.49813 10.1574 9.12742 10.2145C8.9122 10.247 8.69873 10.2452 8.62319 9.99309C8.54413 9.73041 8.70225 9.58808 8.92977 9.49495C9.31014 9.33857 9.71775 9.28849 10.1113 9.18131C12.6237 8.49603 15.1668 7.95045 17.3867 7.56301C14.8761 7.96012 12.0764 8.67175 9.27325 9.36581C9.20209 9.38338 9.13709 9.42203 9.06417 9.42643C8.97194 9.43258 8.88145 9.41413 8.8428 9.32188C8.80415 9.22699 8.86037 9.15319 8.93328 9.09697C9.11161 8.96079 9.33123 8.92038 9.53591 8.84482C10.9335 8.3335 12.3584 7.90916 13.7885 7.50239C15.1326 7.1167 16.5065 6.87422 17.8865 6.66337C19.8156 6.36905 21.7553 6.19685 23.362 6.20125C21.0481 6.18192 18.4189 6.50347 15.8178 7.01655C13.9203 7.39081 12.036 7.84151 10.1728 8.3704C10.0612 8.40203 9.9479 8.43454 9.84512 8.48988C9.51219 8.69459 9.15993 8.86327 8.78131 8.95815C8.41939 9.04865 8.25951 8.86679 8.34472 8.49691L8.34559 8.49955Z"
            fill="#6C6F5F" />
        <path
            d="M10.9631 1.20744C12.5277 0.791881 14.1318 0.615291 15.7323 0.412344C17.4321 0.197098 19.1381 0.227847 20.8449 0.243661C21.43 0.248933 22.001 0.356995 22.5746 0.460665C22.8812 0.516014 23.0622 0.684697 23.1895 0.954414C23.8466 2.33726 24.2182 3.79567 24.3579 5.31732C24.3755 5.50534 24.3236 5.59319 24.1277 5.58704C23.909 5.58001 23.6885 5.59407 23.4707 5.57738C22.4209 5.50094 21.3755 5.57123 20.3319 5.6705C20.0113 5.70125 19.8435 5.65557 19.7864 5.26198C19.5949 3.95468 19.3797 2.64827 18.9404 1.39457C18.8227 1.0572 18.944 0.951778 19.269 0.952656C20.3056 0.955292 21.3421 0.949142 22.3787 0.945628C22.4341 0.945628 22.4903 0.939478 22.5553 0.935085C22.4841 0.794516 22.3629 0.791881 22.2496 0.782216C20.2977 0.617926 18.3519 0.702268 16.407 0.914C14.6852 1.10201 12.9687 1.31638 11.2689 1.64759C10.7268 1.75302 10.1901 1.88217 9.65161 2.00077C9.44605 1.86899 9.64809 1.81364 9.70959 1.76269C10.075 1.46222 10.5239 1.34186 10.964 1.2048L10.9631 1.20744Z"
            fill="#6B6F5F" />
        <path
            d="M13.8669 17.7059C13.7369 17.9915 13.519 18.2489 13.5928 18.6003C13.6183 18.7207 13.5155 18.7822 13.4294 18.8331C11.9211 19.7345 10.4128 20.6333 8.82718 21.5786C8.90712 20.9908 8.98267 20.483 9.04416 19.9735C9.22688 18.472 9.13991 16.9794 8.90448 15.4902C8.74109 14.4588 8.59351 13.4247 8.42836 12.3933C8.36072 11.9707 8.53377 11.7871 8.93347 11.6369C9.67577 11.3584 10.3214 11.3461 10.8766 11.9892C10.932 12.0533 11.0163 12.0937 11.0883 12.1429C11.5516 12.4568 11.6549 12.8747 11.3984 13.3966C11.0804 14.2242 10.8968 15.0799 11.0427 15.9629C11.257 17.2579 12.1706 17.8614 13.4523 17.6119C13.5911 17.5847 13.7878 17.4178 13.8643 17.7059H13.8669Z"
            fill="#F3F1C7" />
        <path
            d="M23.5648 21.5399C23.7221 21.8228 23.8292 22.0152 23.9355 22.2067C23.6052 22.0205 23.4937 21.6559 23.1537 21.3572C23.2688 21.7675 23.52 21.9994 23.7054 22.292C23.224 22.4545 22.7637 22.4501 22.3025 22.4281C21.7684 22.4035 21.6814 22.0073 21.6428 21.5847C21.6006 21.5979 21.5558 21.6058 21.5558 21.6137C21.554 22.2322 21.5558 22.2384 20.9189 22.357C19.9271 22.5423 18.9143 22.4729 17.9163 22.5924C17.7415 22.6135 17.7371 22.4949 17.7231 22.3737C17.7002 22.1786 17.7406 21.973 17.6352 21.7455C17.4982 21.9423 17.5869 22.1075 17.6133 22.263C17.6642 22.5582 17.5685 22.6926 17.2522 22.6996C16.907 22.7075 16.596 22.5801 16.2692 22.5151C15.7395 22.4097 15.2063 22.3218 14.6652 22.3508C14.4007 22.3649 14.2505 22.3227 14.3665 21.9572C14.1794 22.5582 13.7454 22.4677 13.351 22.4088C12.9469 22.3491 12.5656 22.2006 12.2002 21.9484C12.4831 21.713 12.8239 21.6893 13.1366 21.655C13.8297 21.5794 14.4684 21.3458 15.0859 21.0532C15.5867 20.816 16.126 20.7984 16.6487 20.6842C16.9773 20.613 16.6654 20.9047 16.8376 20.9627C16.936 20.4979 17.3515 20.4892 17.7011 20.4347C18.3731 20.3301 19.0206 20.1035 19.7075 20.0657C20.0273 20.0481 20.1248 20.1316 20.0932 20.4391C20.0703 20.6675 20.0888 20.8994 20.0888 21.2131C20.2144 20.8784 20.268 20.6086 20.2513 20.331C20.2381 20.1096 20.3268 20.0578 20.5333 20.0789C21.0322 20.1298 21.4952 20.2853 21.9537 20.4795C22.205 20.5858 22.1707 20.7958 22.2313 21.0778C22.3438 20.5586 22.6126 20.7782 22.8357 20.8564C23.3355 21.0321 23.8442 21.0927 24.3756 21.105C25.3507 21.1287 26.3267 21.2043 27.2183 21.6629C27.3299 21.72 27.5276 21.7402 27.4669 21.9572C27.4177 22.1329 27.2789 22.154 27.1261 22.1672C26.7519 22.1997 26.397 22.2076 26.1844 21.8035C26.1308 21.7007 26.0078 21.6348 25.8602 21.6005C25.9841 21.7613 26.108 21.923 26.2582 22.118C25.5923 22.2884 24.9563 22.2515 24.3247 22.2515C24.1314 22.2515 24.0497 22.1057 23.9654 21.9704C23.8784 21.8307 23.8161 21.6735 23.5666 21.5364L23.5648 21.5399Z"
            fill="#CFA485" />
        <path
            d="M28.941 12.5145C29.3134 13.2859 29.3916 14.0924 29.0235 14.8655C28.2171 16.562 27.0549 17.9835 25.5501 19.116C25.4693 19.1766 25.3744 19.2188 25.2857 19.268C25.0318 19.4103 24.9352 19.3391 24.915 19.0457C24.8913 18.6995 24.8122 18.3569 24.7454 17.9387C25.3463 18.1258 25.9076 18.0406 26.4233 17.6839C26.3065 17.5811 26.2292 17.7147 26.136 17.727C26.0227 17.7419 25.9164 17.8008 25.8049 17.8306C25.1126 18.0107 24.756 17.7735 24.4942 17.1234C24.2034 16.403 24.2799 15.766 24.4942 15.0193C24.8869 13.6487 25.7574 13.5064 26.7712 13.2709C26.9987 13.2182 27.09 13.3728 27.1744 13.5257C27.5029 14.1196 27.5328 14.7522 27.3448 15.3865C27.2051 15.8592 27.0004 16.3107 26.6719 16.6991C27.5398 16.4741 27.8446 14.6125 27.2376 13.2507C27.7506 13.2235 28.2145 13.3509 28.63 13.6496C28.7442 13.4994 28.5966 13.4625 28.5298 13.4168C27.8745 12.959 27.1551 13.0302 26.4286 13.1743C26.3293 13.1936 26.2292 13.2138 26.1299 13.2332C26.1694 12.894 26.4672 12.8527 26.7 12.7948C27.2482 12.6586 27.8034 12.5488 28.3559 12.4284C28.5615 12.3836 28.76 12.3985 28.9427 12.5145H28.941Z"
            fill="#DFC5A0" />
        <path
            d="M9.48023 23.167C9.71039 24.2353 10.4755 24.737 11.5112 25.0216C11.3557 25.0594 11.2609 25.0831 11.1186 25.1183C11.4085 25.3063 11.7247 25.2096 11.9926 25.3159C12.3502 25.4574 12.6497 25.6392 12.655 26.0829C12.655 26.147 13.1355 26.2147 13.2093 26.155C13.2523 26.1207 13.2673 26.0504 13.3112 26.0188C13.3718 25.9748 14.8327 26.3254 14.8599 26.3966C14.8792 26.4466 14.8476 26.5125 14.9425 26.4739C15.6268 26.1936 16.3278 26.466 17.0209 26.4194C17.2361 26.4053 17.519 26.4089 17.5278 26.8235C17.606 26.5248 17.7448 26.5064 17.982 26.5248C18.5152 26.567 19.0546 26.538 19.644 26.538C19.5078 26.7559 19.3998 26.929 19.2303 27.2013C20.1333 26.379 20.2633 26.3421 20.5848 26.7506C20.6832 26.3034 21.9122 26.2402 22.4147 26.6865C22.3795 26.5213 22.3057 26.3772 22.5693 26.3702C23.4697 26.3456 24.2621 25.9687 25.0158 25.5206C25.5279 25.2158 26.0146 24.8415 26.5399 24.5902C26.9668 24.3855 27.2471 24.0631 27.5905 23.7943C27.9762 23.4929 28.3618 23.1696 28.3021 22.5836C28.4418 22.9878 28.3039 23.3321 28.086 23.6528C27.8945 23.9331 27.6301 24.1457 27.3586 24.3434C26.2035 25.1833 25.0263 25.9959 23.8905 26.8622C22.8697 27.6406 21.6732 27.8444 20.4645 28.0421C20.2493 28.0772 20.034 28.1106 19.8188 28.1449C16.8883 28.4164 14.2204 27.6915 11.7994 26.0302C11.2705 25.6674 10.7417 25.3054 10.2471 24.8942C9.78945 24.5129 9.54524 24.0113 9.34759 23.4736C9.29576 23.3339 9.3063 23.2127 9.48111 23.1679L9.48023 23.167Z"
            fill="#CFA485" />
        <path
            d="M6.04047 10.6924C4.82029 10.5993 3.17493 11.4638 2.62326 12.5383C2.81564 12.3836 2.95444 12.2729 3.11959 12.1403C3.1802 12.352 3.05195 12.468 2.99573 12.6015C2.29735 14.2576 2.2139 15.9374 2.91227 17.6023C3.71519 19.514 5.88059 20.2792 7.7807 19.6063C8.09958 19.4938 8.36926 19.2944 8.63895 19.0756C8.51685 19.3462 8.63368 19.6924 8.34994 19.9067C7.91861 20.1931 7.43195 20.2344 6.99535 20.2687C7.3441 20.2775 7.72887 20.1694 8.11627 20.0561C8.41758 19.9673 8.44042 19.9963 8.40352 20.3091C6.9242 20.7677 4.07975 20.5718 3.09236 19.9427C3.07391 19.8637 3.13892 19.8461 3.18723 19.832C3.34536 19.7881 3.4701 19.6862 3.4332 19.5272C3.39191 19.3515 3.1969 19.4218 3.09939 19.4464C2.69793 19.5491 2.51082 19.3383 2.3158 19.0317C1.60864 17.9203 1.21246 16.6991 0.994598 15.4138C0.929592 15.0299 1.03062 14.6573 1.18962 14.3112C1.6754 13.2578 2.13045 12.1868 2.68124 11.1695C3.18108 10.2461 3.95676 9.66275 5.08558 9.73128C5.29729 9.78311 5.50022 9.85603 5.67854 9.98518C5.75058 10.037 5.8147 10.1135 5.79626 10.2031C5.77605 10.3006 5.67766 10.3146 5.58806 10.3243C5.40358 10.3454 5.21032 10.2883 5.03375 10.3832C4.49701 10.4341 4.0367 10.6687 3.60977 10.9815C3.93568 10.7399 4.28794 10.5413 4.68149 10.4482C5.07241 10.3559 5.47211 10.2593 5.88059 10.3823C6.03168 10.428 6.20562 10.4262 6.25481 10.6248C6.21177 10.7372 6.13183 10.7311 6.04135 10.6915L6.04047 10.6924Z"
            fill="#F3F1C6" />
        <path
            d="M10.9629 1.20752C10.5703 1.45264 10.1135 1.57651 9.74275 1.86204C9.69882 1.89543 9.5732 1.88664 9.65051 2.00349C9.20601 2.11946 8.76063 2.23192 8.31701 2.35228C8.03239 2.42959 7.74162 2.50075 7.47369 2.75993C9.2104 2.25388 10.9076 1.85589 12.6461 1.65998C12.9236 1.80055 13.21 1.71884 13.4946 1.69424C14.0507 1.6468 14.6077 1.60551 15.1681 1.59408C14.8352 1.81987 14.4416 1.7654 14.0841 1.80406C12.3939 1.98328 10.731 2.29078 9.07951 2.68525C8.79137 2.75378 8.61305 2.87238 8.53047 3.16055C8.34687 3.79926 8.00603 4.38438 7.95069 5.07053C7.90764 5.61436 8.0236 6.13798 8.08861 6.66248C8.15273 7.1861 8.13868 7.72817 8.33458 8.23334C8.08773 8.35282 7.84 8.47054 7.59579 8.59354C7.41131 8.68579 7.31381 8.61287 7.28833 8.43013C7.16535 7.55421 7.04675 6.67741 6.92992 5.80149C6.87458 5.38506 6.80693 4.96862 6.77882 4.55043C6.73754 3.93192 6.80693 3.3591 7.24353 2.839C7.53606 2.49109 7.67485 2.02282 8.1703 1.85589C9.08039 1.54928 10.0036 1.30592 10.9612 1.2084L10.9629 1.20752Z"
            fill="#46483C" />
        <path
            d="M18.0674 15.5816C17.991 15.6492 17.8689 15.7028 17.846 15.7854C17.702 16.2941 17.2821 16.367 16.8622 16.4136C15.8361 16.5269 14.8092 16.642 13.7796 16.7167C12.4488 16.8133 11.0749 15.8838 11.5396 13.7946C11.5492 13.7515 11.5589 13.7094 11.5703 13.6672C11.8321 12.6823 11.8681 12.6648 12.7624 13.0566C13.0804 13.1954 13.4037 13.321 13.7621 13.4686C13.5381 13.7761 13.3264 14.0845 13.0945 14.3779C13.004 14.4922 12.9442 14.5229 13.0962 14.6687C13.9 15.4401 14.8602 15.7687 15.9547 15.7617C16.0373 15.665 16.1524 15.6439 16.2674 15.6431C16.7989 15.636 17.3321 15.6589 17.8469 15.4744C17.9269 15.4454 18.0586 15.4173 18.0683 15.5824L18.0674 15.5816Z"
            fill="#DFC5A0" />
        <path
            d="M8.34555 8.49954C8.33589 8.87293 8.52036 8.96254 8.84276 8.82988C9.15022 8.70425 9.46646 8.59618 9.7423 8.40378C10.4574 8.35634 11.1153 8.06993 11.8049 7.91442C12.2977 7.80285 12.787 7.67194 13.279 7.55861C13.4459 7.51995 13.6207 7.46636 13.7709 7.6122C13.0365 7.93463 12.2354 8.03479 11.4843 8.30187C10.7165 8.5751 9.94434 8.83339 9.17394 9.09872C9.06852 9.13474 8.94466 9.14528 8.86296 9.36053C10.4328 8.97309 11.9428 8.56631 13.4696 8.23422C14.999 7.90125 16.5451 7.64383 18.0833 7.35303C18.0912 7.39344 18.0991 7.43473 18.107 7.47515C17.2083 7.66579 16.3123 7.86962 15.4101 8.04533C13.6409 8.38972 11.8963 8.83867 10.1543 9.29376C9.74845 9.40006 9.32503 9.43345 8.93412 9.6118C8.76545 9.68823 8.64335 9.76203 8.69518 9.95883C8.7514 10.1714 8.89986 10.1451 9.07731 10.1055C9.58857 9.99309 10.1051 9.9026 10.6427 9.89908C10.1666 10.0581 9.68959 10.2127 9.2161 10.377C9.08082 10.4245 8.94817 10.4886 8.82607 10.5633C8.63456 10.681 8.67761 10.8576 8.73646 11.0298C8.80235 11.2239 8.93148 11.1624 9.08697 11.1501C9.47261 11.1203 9.79588 10.8866 10.1763 10.855C10.0304 11.1282 9.82927 11.2907 9.49369 11.3162C9.23806 11.3355 8.99034 11.4541 8.73822 11.5218C8.13033 11.6852 7.7359 11.4216 7.63927 10.7794C7.5725 10.3348 7.54352 9.88327 7.45303 9.44399C7.38276 9.10135 7.4829 8.89314 7.79388 8.76047C7.98099 8.68053 8.16371 8.58652 8.34818 8.49954H8.34555Z"
            fill="#46483C" />
        <path
            d="M14.4615 23.0449C14.4843 23.0801 14.501 23.1257 14.5326 23.1477C14.566 23.1706 14.6213 23.1714 14.6108 23.1038C14.5818 22.9193 14.5467 22.7357 14.5133 22.5424C15.1405 22.4844 15.737 22.596 16.3335 22.719C16.6031 22.7743 16.6743 22.9562 16.6734 23.196C17.1065 23.0089 17.3454 23.1793 17.4456 23.7451C17.4649 24.6096 17.3191 24.802 16.4152 25.1078C15.5982 25.3836 15.0131 25.2193 14.5651 24.5833C14.2585 24.1484 14.0354 23.6836 14.0442 23.1345C14.1672 23.03 14.2603 22.784 14.4623 23.044L14.4615 23.0449Z"
            fill="#E56427" />
        <path
            d="M19.0241 22.7865C19.4528 22.6486 19.8999 22.653 20.3409 22.6345C20.6993 22.6196 20.4305 23.0413 20.6721 23.1529C20.6818 22.9974 20.6905 22.8463 20.6993 22.6952C21.0244 22.5449 21.1526 22.7654 21.2536 23.0044C21.3951 23.3374 21.3432 23.6897 21.3283 24.0367C21.3213 24.476 21.1306 24.715 20.6624 24.7703C19.9245 24.8573 19.1857 24.9276 18.4461 24.8705C18.0455 24.8397 17.6678 24.6956 17.6396 24.1852C17.7811 23.181 18.1544 22.8041 19.025 22.7857L19.0241 22.7865Z"
            fill="#ED9026" />
        <path
            d="M25.1768 19.7907C25.052 19.6299 25.1777 19.5851 25.291 19.5087C26.9065 18.4201 28.0836 16.9389 29.0622 15.2811C29.2739 14.9226 29.2862 14.4965 29.4628 14.1266C29.6631 14.37 29.4268 14.5896 29.4478 14.7776C29.5664 14.305 29.6692 13.7858 29.5664 13.2481C29.591 13.3974 29.6455 13.56 29.6068 13.6997C29.5656 13.8464 29.7079 14.0678 29.4558 14.1407C29.4066 13.4176 29.3653 12.692 28.8716 12.0734C29.165 11.9083 29.4962 12.0682 29.7966 11.9505C29.9336 11.8969 29.9591 12.1156 29.9934 12.229C30.3219 13.299 30.2332 14.3577 29.8642 15.3953C29.6578 15.976 29.3398 16.5137 28.9067 16.9459C27.9694 17.8816 26.9943 18.7803 26.0315 19.6905C25.775 19.9339 25.4974 20.0797 25.175 19.7889V19.7907H25.1768Z"
            fill="#F2F1C6" />
        <path
            d="M24.3658 22.7831C24.4994 23.0186 24.524 23.2795 24.5345 23.5396C24.5652 24.3364 24.2472 24.6667 23.4575 24.6C23.3091 24.5877 23.2124 24.6527 23.0842 24.6738C23.0763 24.549 23.0684 24.4374 23.0613 24.3347C22.9577 24.2916 22.9831 24.3768 22.9849 24.3918C23.0218 24.6624 22.8786 24.7344 22.6362 24.7502C21.4107 24.8319 21.2807 24.6527 21.676 23.3964C21.7946 22.8165 21.9378 22.6874 22.5281 22.6979C22.9419 22.7058 23.3424 22.6303 23.7325 22.5231C24.0391 22.4387 24.2385 22.4914 24.3667 22.7831H24.3658Z"
            fill="#F4EA2B" />
        <path
            d="M21.9028 14.2769C21.7218 14.2769 21.663 14.2769 21.605 14.2769C20.6641 14.2742 20.6202 14.2101 20.9259 13.3017C21.1666 12.5865 22.1733 11.8784 22.9191 11.8977C23.0377 11.9004 23.1458 11.8845 23.1686 12.0567C23.2547 12.6919 23.4049 13.3104 23.7089 13.8815C23.8073 14.0669 23.6606 14.0739 23.5508 14.0924C22.9639 14.1925 22.378 14.2927 21.9019 14.2769H21.9028Z"
            fill="#AE8C5C" />
        <path
            d="M23.1467 15.4208C23.65 15.108 24.1042 14.7548 24.2386 14.1267C24.2491 14.0775 24.3273 14.0054 24.2641 13.9835C23.5314 13.7295 23.6491 13.0074 23.4436 12.4723C23.3821 12.3133 23.26 12.0304 23.441 11.9232C23.6281 11.8125 23.853 11.9882 24.0357 12.1112C24.1305 12.1745 24.2201 12.2448 24.3343 12.2799C24.1674 11.8951 23.8371 11.744 23.3478 11.6843C23.7836 11.4409 24.1841 11.3592 24.6603 11.2318C24.4784 12.6797 24.8096 14.1583 23.9092 15.4419C23.6017 15.8794 23.2011 16.0481 22.6644 16.1236C21.8711 16.2352 21.3687 15.9163 20.9637 15.3083C20.9119 15.253 20.8829 15.1871 20.8785 15.1133C20.8715 14.9973 20.8539 14.8708 20.9646 14.7935C21.0902 14.7065 21.1824 14.8128 21.2729 14.8778C21.8343 15.2784 22.4729 15.4102 23.1467 15.4199V15.4208Z"
            fill="#DFC49F" />
        <path
            d="M13.8673 17.7059C13.8058 17.5935 13.7268 17.6506 13.6442 17.6761C12.2378 18.1075 11.0905 17.3976 10.8999 15.9093C10.7883 15.036 10.8999 14.1671 11.4006 13.3958C11.3567 13.9396 11.1599 14.4579 11.2873 15.0307C11.5333 16.1342 12.3696 16.8748 13.494 16.9073C14.065 16.9232 14.6272 16.8485 15.1903 16.7703C15.3581 16.7474 15.5285 16.7395 15.7059 16.7554C15.0392 16.9776 14.4093 17.2579 13.8665 17.7051L13.8673 17.7059Z"
            fill="#AAAA8B" />
        <path
            d="M20.4414 26.2226C20.0109 26.364 19.5576 26.3605 19.1193 26.3509C18.8918 26.3456 18.6862 26.2938 18.4385 26.3465C18.1565 26.4071 17.8403 26.3052 17.5389 26.2744C17.3685 26.2156 17.1911 26.2384 17.0189 26.2481C16.6886 26.2665 16.693 26.1119 16.7896 25.8721C17.0505 25.2228 17.2895 25.0629 18.0379 25.106C18.7354 25.1455 19.4276 25.1912 20.126 25.0735C20.4282 25.0225 20.791 24.975 20.9298 25.3976C21.0475 25.7587 20.9175 25.9766 20.4422 26.2217L20.4414 26.2226Z"
            fill="#22A3DD" />
        <path
            d="M24.1639 25.7543C24.1208 25.5874 24.2324 25.4038 24.0796 25.2334C23.9311 25.4337 24.0892 25.6762 23.9654 25.9397C23.9513 25.7008 23.9408 25.5338 23.9258 25.2729C23.7598 26.0399 23.6535 26.1154 22.9138 26.2068C22.4781 26.2604 22.0486 26.2639 21.6155 26.1945C21.3546 26.1532 21.1965 26.0495 21.2571 25.7491C21.2887 25.5936 21.2869 25.431 21.3142 25.2747C21.3678 24.9689 21.4231 24.773 21.8667 24.8635C22.5677 25.0076 23.2872 24.8714 23.9697 24.6641C24.3457 24.5498 24.4186 24.672 24.4757 25.0146C24.5328 25.3528 24.6664 25.6595 24.1648 25.7526L24.1639 25.7543Z"
            fill="#0B68AC" />
        <path
            d="M12.57 26.9035C13.3194 27.2681 13.9149 27.9595 14.8312 27.9665C14.8277 28.0482 14.8558 28.1009 14.9419 28.1255C15.6086 28.3197 16.2402 28.6237 16.9834 28.7827C16.7023 28.8943 16.4625 28.99 16.2227 29.0858C16.2077 29.0111 16.1814 28.9549 16.0926 28.9347C14.8865 28.6527 13.8034 28.1053 12.765 27.4385C12.1176 27.0229 11.443 26.6408 10.7112 26.3798C10.626 26.3491 10.5364 26.2445 10.4398 26.3649C9.92762 26.3183 9.58414 25.9265 9.14491 25.728C8.97625 25.6515 8.8313 25.5206 8.67757 25.4126V25.4178C8.65122 25.3932 8.64419 25.3713 8.65649 25.3528C8.66879 25.3352 8.68021 25.3265 8.69075 25.3265C8.68548 25.0594 8.45444 24.9346 8.32092 24.7492C8.10043 24.4426 7.85094 24.1527 7.90101 23.7363C8.01258 23.7222 8.05123 23.8004 8.08813 23.8821C8.39295 24.5524 8.92442 24.9873 9.56745 25.308C10.5821 25.8141 11.6072 26.2999 12.5691 26.9035H12.57Z"
            fill="#AB895A" />
        <path
            d="M12.3548 22.6979L12.6113 23.5474C12.7027 23.2435 12.505 22.9861 12.5507 22.697C13.0611 22.6012 13.5785 22.9887 13.7586 23.6089C13.8315 23.8611 13.8385 24.1176 13.7814 24.375C13.7173 25.0006 13.4028 25.5101 13.0514 26.0206C12.8134 25.8115 12.6719 25.5769 12.5349 25.3379C12.0869 24.6316 11.8743 23.8664 11.9797 23.0291C12.0052 22.8262 12.0034 22.5503 12.3548 22.6988V22.6979Z"
            fill="#DD2726" />
        <path
            d="M10.0791 27.0792C10.7362 27.3929 11.2229 27.9314 11.7086 28.4357C12.9367 29.714 14.4099 30.575 16.0245 31.2568C16.794 31.5818 17.5565 31.5652 18.3313 31.4343C19.0385 31.3148 19.7465 31.2383 20.459 31.284C21.0159 31.32 21.5588 31.1601 22.1131 31.2102C21.4929 31.6012 20.7849 31.588 20.0944 31.6354C19.2089 31.6961 18.3226 31.7681 17.4362 31.7786C16.223 31.7927 15.1302 31.3596 14.1016 30.7525C13.4427 30.3633 12.9218 29.8054 12.3692 29.2897C11.5927 28.5658 10.7977 27.862 10.0791 27.0784V27.0792Z"
            fill="#AB8959" />
        <path
            d="M7.45106 13.2956C6.56294 11.983 5.30762 11.5349 3.77734 11.73C4.60134 10.5764 6.33454 10.4912 7.25604 11.7967C7.56175 12.229 7.80244 12.6841 7.95793 13.1945C7.78575 13.2288 7.61885 13.263 7.45106 13.2964V13.2956Z"
            fill="#AE8B5C" />
        <path
            d="M20.6044 18.1364C20.4226 17.8245 20.5939 17.51 20.6369 17.2121C20.6931 16.8238 20.7037 16.4654 20.4639 16.0182C21.4214 16.3687 22.3842 16.3661 23.2249 16.8186C23.4506 16.9398 23.6465 17.1102 23.6044 17.401C23.5613 17.6989 23.3619 17.8517 23.0641 17.8755C23.0351 17.8447 23.0184 17.8078 23.0123 17.7656C23.1133 17.4371 22.9604 17.3431 22.66 17.3826C22.4553 17.4089 22.2568 17.4652 22.0846 17.5741C21.713 17.8087 21.2993 17.9493 20.9049 18.1338C20.8056 18.1768 20.7054 18.2251 20.6053 18.1364H20.6044Z"
            fill="#DDC39D" />
        <path
            d="M19.2106 14.2777C19.2282 14.1433 19.5286 14.051 19.1974 13.8595C18.9067 13.6917 18.9901 13.4501 19.3099 13.3131C19.8159 13.0969 20.3183 12.8711 20.8981 12.6155C20.6109 13.4431 20.4334 14.2285 20.5344 15.0842C19.9204 14.8576 19.3872 15.0508 18.8478 15.1527C18.8188 15.187 18.7898 15.1861 18.7617 15.1519C18.9154 14.9524 19.273 14.9568 19.2914 14.6212C19.1289 14.5386 19.1219 14.4192 19.2115 14.2777H19.2106Z"
            fill="#DEC49F" />
        <path
            d="M13.3633 14.3534C13.4494 14.1003 13.64 13.9519 13.7533 13.7542C13.8702 13.5504 14.0335 13.5082 14.2294 13.596C15.6499 14.2268 17.0695 14.0459 18.4829 13.5837C18.757 13.4941 18.8457 13.5987 18.9072 13.8245C18.9951 14.1469 18.7105 14.059 18.5884 14.0845C16.8762 14.4342 15.1404 14.3797 13.3642 14.3534H13.3633Z"
            fill="#AD8B5C" />
        <path
            d="M16.3975 20.4988C17.7696 20.0929 19.0873 19.4691 20.5719 19.5262C21.0322 19.5438 21.4653 19.6396 21.8931 19.7793C22.7628 20.0639 23.6404 20.324 24.4898 20.6684C24.9545 20.8564 25.4676 20.7958 25.9446 20.9275C26.0386 20.9539 26.1545 20.9275 26.2116 21.04C24.7551 20.9434 23.332 20.6912 21.9572 20.179C20.6325 19.6853 19.3008 19.8408 17.9681 20.1746C17.4507 20.3046 16.9403 20.483 16.3975 20.4979V20.4988Z"
            fill="#AA8859" />
        <path
            d="M28.9414 12.5145C28.1095 12.5365 27.3233 12.7983 26.523 12.9854C26.3807 13.0188 26.2147 13.0794 26.1286 13.2332C25.7825 13.4124 25.3863 13.4792 25.0445 13.7498C25.0252 13.4651 25.1157 13.2754 25.3125 13.1357C26.1005 12.5804 26.8893 12.041 27.8995 11.9549C28.431 11.9092 28.6612 12.0015 28.9405 12.5145H28.9414Z"
            fill="#AD8B5C" />
        <path
            d="M14.9675 25.2474C15.4533 25.4855 15.9434 25.4336 16.4363 25.2737C16.5417 25.9019 16.2799 26.2112 15.6641 26.2032C15.0931 26.1962 14.537 26.1215 13.9871 25.9573C13.7789 25.8949 13.9309 25.8299 13.9309 25.7569C13.9309 25.6708 14.1839 25.5039 13.8606 25.5101C13.7938 25.2412 13.8914 25.0128 14.1057 24.8766C14.3104 24.7475 14.4878 24.9223 14.6433 25.0436C14.7461 25.1235 14.8656 25.1701 14.9683 25.2474H14.9675Z"
            fill="#D91883" />
        <path
            d="M9.48007 23.167C9.33336 23.2865 9.40013 23.4086 9.45108 23.5527C9.63468 24.0719 9.92457 24.5209 10.3497 24.8635C11.7597 25.9995 13.2399 27.0169 14.9977 27.5545C16.5701 28.036 18.1786 28.2143 19.8178 28.144C19.4927 28.2257 19.1668 28.3075 18.8418 28.3883C18.2691 28.2284 17.6717 28.2495 17.0875 28.1713C14.8483 27.8743 12.8946 26.9413 11.0771 25.6454C10.2926 25.0858 9.54859 24.5226 9.25518 23.5457C9.20423 23.3752 9.17788 23.3831 8.88184 23.2804C9.05577 23.1187 9.27626 23.1143 9.4748 23.0546C9.47655 23.0915 9.47831 23.1284 9.48007 23.1653V23.167Z"
            fill="#312B21" />
        <path
            d="M20.4416 26.2226C20.5259 26.1462 20.5997 26.0531 20.6955 25.9951C20.923 25.858 20.8958 25.6586 20.8387 25.4583C20.7824 25.2597 20.6603 25.12 20.4275 25.1499C19.4718 25.2729 18.5116 25.2184 17.5532 25.2457C17.2062 25.2553 17.0868 25.4337 16.8276 26.1576C17.0525 26.2701 17.3222 26.1137 17.5392 26.2744C17.4671 26.2797 17.3925 26.2973 17.3222 26.2885C17.0349 26.2534 16.6818 26.3957 16.5149 26.0205C16.4385 25.8475 16.818 25.1596 17.0464 25.0287C17.2519 24.9109 17.3881 24.7273 17.5286 24.5173C18.1787 25.2975 19.0492 25.0084 19.8513 25.0111C20.1965 25.012 20.5479 24.9531 20.8843 24.8696C21.1233 24.8108 21.1356 24.91 21.1171 25.0787C21.0987 25.2518 21.0451 25.424 21.0451 25.5962C21.0451 26.0091 20.8518 26.2147 20.4416 26.2226Z"
            fill="#1787BA" />
        <path
            d="M27.0033 25.1376C25.7252 26.1752 24.4637 27.2382 22.8816 27.8058C22.4889 27.9464 22.0954 28.0904 21.6641 28.0984C22.6084 27.79 23.4965 27.3823 24.2836 26.7673C25.0189 26.1936 25.7726 25.6445 26.5615 25.1446C26.7082 25.1297 26.8514 24.8723 27.0025 25.1376H27.0033Z"
            fill="#DDC39E" />
        <path
            d="M26.8836 22.74C27.0365 22.6925 26.9697 22.5739 27.0128 22.5142C27.0857 22.4131 27.2684 22.4667 27.3194 22.3174C27.4204 22.3973 27.4546 22.5151 27.4353 22.6275C27.3352 23.2118 27.2965 23.8188 26.8476 24.3468C26.563 23.8513 26.122 23.4551 26.3047 22.8094C26.3548 22.6319 26.2749 22.3815 26.5287 22.3279C26.8309 22.2647 26.8336 22.5476 26.8828 22.7391L26.8836 22.74Z"
            fill="#0B6936" />
        <path
            d="M26.0959 23.485C26.6661 24.3837 26.6678 24.3873 25.8017 24.8696C25.5873 24.9891 25.3615 25.0971 25.1288 25.1701C24.9935 25.2131 24.7712 25.4609 24.7009 25.1015C24.6517 24.852 24.4989 24.5823 24.9065 24.4259C25.3774 24.2449 25.8377 24.0121 26.0959 23.485Z"
            fill="#014778" />
        <path
            d="M15.9869 14.7846C16.7371 14.9902 17.4636 14.9955 18.1321 14.5246C18.3236 14.4666 18.516 14.377 18.7004 14.5421C18.3622 15.035 17.8562 15.2468 17.2958 15.2986C16.3664 15.3847 15.4396 15.3654 14.5664 14.9603C14.6121 14.7407 14.7983 14.7662 14.945 14.7644C15.292 14.7583 15.6399 14.7319 15.986 14.7846H15.9869Z"
            fill="#FCFDFD" />
        <path
            d="M14.8287 19.4665C14.3069 19.7116 13.7561 19.7986 13.1903 19.7107C12.6176 19.6211 12.1669 19.8451 11.7541 20.1983C11.6662 20.273 11.5617 20.3617 11.5968 20.4909C11.6486 20.6806 11.8243 20.5427 11.9324 20.5945C11.7751 20.866 11.4554 20.7984 11.2296 20.9293C11.0671 21.0233 10.8668 21.0312 10.6982 21.1173C10.3108 21.1691 9.95937 21.3765 9.56055 21.3817C10.6446 20.7087 11.7303 20.0384 12.8117 19.3602C12.9426 19.2785 13.0533 19.3154 13.1824 19.3338C13.728 19.4129 14.2761 19.4647 14.8287 19.4673V19.4665Z"
            fill="#AB895A" />
        <path
            d="M25.4199 22.6083C25.4287 22.6504 25.4226 22.7128 25.448 22.7321C25.5526 22.8103 25.5675 22.7032 25.5596 22.6504C25.4946 22.2015 25.8627 22.3807 26.0252 22.3667C26.3634 22.3377 26.135 22.5986 26.1253 22.6988C26.0665 23.2848 25.889 23.8101 25.2618 24.035C24.841 23.7188 24.7716 23.2505 24.8199 22.7919C24.8595 22.4159 25.1608 22.4853 25.4199 22.6074V22.6083Z"
            fill="#3DAA49" />
        <path
            d="M6.04048 10.6924C6.10198 10.6616 6.19334 10.6941 6.22496 10.6028C6.65101 10.5298 6.82846 10.9278 7.07706 11.0508C6.5983 10.5351 5.93946 10.3225 5.18574 10.3726C5.11547 10.377 5.03904 10.3928 4.99512 10.312C5.21385 10.1354 5.48793 10.297 5.74708 10.1934C5.55909 9.9702 5.29643 9.88674 5.0856 9.73212C6.521 9.72157 8.02053 11.1027 7.85538 12.4214C7.43723 11.5613 6.8636 10.9849 6.04048 10.6924Z"
            fill="#A8A789" />
        <path
            d="M23.9304 18.4078C23.8364 18.298 23.7547 18.175 23.6466 18.0819C23.4788 17.9387 23.5272 17.8429 23.651 17.6909C23.9602 17.3131 23.9216 17.1269 23.5386 16.8211C23.2627 16.6006 22.9465 16.4636 22.5986 16.3133C23.2768 16.3792 23.6897 15.9768 24.1157 15.5121C23.7881 15.9637 24.1043 16.3397 24.1895 16.7377C24.1632 17.1374 24.1895 17.5407 24.1166 17.9369C24.0859 18.1029 24.0815 18.2857 23.9304 18.4069V18.4078Z"
            fill="#A9A88A" />
        <path
            d="M23.8495 19.456C23.889 19.0299 23.7001 18.8489 23.3321 18.7514C22.5784 18.552 21.8088 18.4501 21.0446 18.3121C21.0015 18.2322 20.7898 18.2928 20.8741 18.1066C20.991 18.0363 21.1131 17.9818 21.2536 17.9836C21.4487 18.0415 21.6823 17.9528 21.8431 18.1408C22.3175 18.4018 22.8375 18.4483 23.3584 18.4114C23.5982 18.3947 23.7291 18.4738 23.8706 18.6407C24.1438 18.9623 24.4284 19.275 24.7271 19.5729C24.843 19.688 24.9713 19.8312 25.1751 19.7908V19.789C24.9739 19.9902 24.7956 19.7916 24.619 19.7442C24.3555 19.673 24.0849 19.6089 23.8504 19.456H23.8495Z"
            fill="#A88657" />
        <path
            d="M25.184 27.2541C24.6315 27.5098 24.1922 27.942 23.6608 28.231C23.449 28.2196 23.2382 28.2082 22.9229 28.1915C24.2678 27.4711 25.4177 26.6479 26.5386 25.7676C26.0765 26.2552 25.719 26.8333 25.184 27.2541Z"
            fill="#AB895A" />
        <path
            d="M24.6972 13.6496C24.7314 12.9415 24.7692 12.2334 24.7999 11.5253C24.8122 11.2371 25.1865 10.9621 25.4447 11.0588C25.5124 11.0843 25.5352 11.1343 25.5176 11.1941C25.2813 12.0217 25.0424 12.8484 24.8043 13.6751C24.7683 13.6663 24.7323 13.6584 24.6963 13.6496H24.6972Z"
            fill="#EEECC2" />
        <path
            d="M23.9307 18.4079C24.0475 17.8562 23.943 17.2702 24.1889 16.7386C24.4463 17.5531 24.6967 18.3692 24.7503 19.297C24.384 19.029 24.1512 18.7251 23.9307 18.4079Z"
            fill="#F0EEC4" />
        <path
            d="M18.7611 15.1519C18.7901 15.1519 18.8191 15.1519 18.8472 15.1528C18.5872 15.296 18.3272 15.4392 18.0671 15.5815C18.0074 15.4779 17.9187 15.506 17.8396 15.5411C17.2335 15.8126 16.5931 15.781 15.9536 15.7608C15.6944 15.5218 15.3492 15.585 15.047 15.5279C14.4909 15.4234 14.0016 15.2038 13.5703 14.8242C13.9112 14.9437 14.252 15.0632 14.5928 15.1818C15.9281 15.6483 17.2598 15.6993 18.5898 15.1589C18.6399 15.1387 18.7031 15.1537 18.7602 15.1519H18.7611Z"
            fill="#A28154" />
        <path
            d="M12.3548 22.6979C12.0798 22.6689 12.1159 22.8639 12.0983 23.037C12.0192 23.847 12.2019 24.6061 12.5349 25.3379C11.8453 24.4067 11.4166 23.4209 11.891 22.2076C11.9296 22.3122 11.9569 22.3851 11.9823 22.4545C12.1475 22.4396 12.0254 22.1409 12.2125 22.2033C12.4593 22.2858 12.3188 22.5274 12.3539 22.6979H12.3548Z"
            fill="#BD1E21" />
        <path
            d="M23.1471 15.4208C22.4434 15.6659 21.8663 15.3531 21.297 15.0026C21.2039 14.9455 21.1451 14.8198 20.965 14.8524C20.965 15.0008 20.965 15.1555 20.965 15.3092C20.6285 15.1186 20.8262 14.7812 20.7647 14.5176C20.7445 14.4315 20.9342 14.4148 21.0098 14.4965C21.7082 15.2512 22.5374 15.3549 23.4818 15.0307C23.3447 15.1309 23.1945 15.2178 23.075 15.3356C22.9898 15.419 23.1207 15.3918 23.1479 15.4199L23.1471 15.4208Z"
            fill="#A88657" />
        <path
            d="M25.4195 22.6082C24.8494 22.6012 24.8389 22.6266 24.9627 23.1898C25.0277 23.4868 25.127 23.7661 25.2614 24.0359C25.1885 24.0815 25.1209 24.1465 25.0418 24.1694C24.9223 24.2037 24.7958 24.339 24.6799 24.2397C24.5876 24.1606 24.6632 24.0192 24.6843 23.9085C24.7818 23.405 24.578 22.9429 24.4629 22.407C24.7976 22.5449 25.1674 22.1988 25.4195 22.6091V22.6082Z"
            fill="#33903C" />
        <path
            d="M14.9675 25.2474C14.884 25.2281 14.7953 25.2202 14.718 25.1868C14.3291 25.0193 14.0433 25.1274 13.8606 25.511C13.8255 25.6182 13.7965 25.728 13.7552 25.8325C13.6946 25.9845 13.5988 25.894 13.5083 25.8651C13.3555 25.815 13.446 25.7377 13.4873 25.6744C13.793 25.2079 13.952 24.6887 14.0618 24.0623C14.3069 24.5551 14.6477 24.8934 14.9683 25.2474H14.9675Z"
            fill="#B40F6A" />
        <path
            d="M27.2717 11.469C27.6239 11.3337 27.898 11.5094 28.2889 11.7404C27.3244 11.7633 26.5874 12.1252 25.8714 12.5443C25.8196 12.5004 25.8073 12.4424 25.8143 12.3774C25.9601 12.0348 26.315 11.9302 26.5715 11.7132C26.6032 11.6895 26.6365 11.6684 26.6717 11.6499C26.8588 11.5472 27.0538 11.4681 27.2726 11.469H27.2717Z"
            fill="#ECEAC1" />
        <path
            d="M13.7808 24.3741C13.7457 23.3866 13.4101 22.9289 12.5501 22.697C12.5106 22.5072 12.4754 22.3271 12.7794 22.4457C12.8857 22.4879 12.9981 22.5169 13.1097 22.545C13.7123 22.6943 13.866 22.8788 13.8695 23.5254C13.8713 23.8092 13.9266 24.1035 13.7808 24.3741Z"
            fill="#BB1E21" />
        <path
            d="M21.9228 14.6265C22.3884 14.8093 22.8329 14.7864 23.2282 14.4614C23.4091 14.3129 23.5998 14.254 23.8246 14.2856C23.5075 15.151 22.0159 15.1783 21.4062 14.6116C21.5863 14.341 21.7506 14.5879 21.9219 14.6265H21.9228Z"
            fill="#F0F0F1" />
        <path
            d="M24.3653 22.783C24.1676 22.5124 23.9006 22.552 23.6274 22.6161C23.3024 22.6925 22.9791 22.8138 22.6435 22.7769C22.1402 22.7215 21.8494 22.957 21.6754 23.3954C21.6719 23.3234 21.6552 23.2496 21.6667 23.1793C21.7027 22.9508 21.5595 22.6653 21.7141 22.5054C21.8792 22.3341 22.0866 22.61 22.3009 22.6161C22.8122 22.6311 23.3147 22.5898 23.796 22.429C24.1615 22.3077 24.3451 22.3886 24.3644 22.7813L24.3653 22.783Z"
            fill="#CCC21F" />
        <path
            d="M6.83427 13.5934C5.5605 12.3977 4.0109 12.6727 3.26596 14.2268C3.24312 14.2752 3.24488 14.3463 3.16406 14.3446C3.28002 13.6286 3.88791 12.9178 4.56433 12.7851C5.43488 12.6147 6.22813 12.7737 6.84744 13.4748C6.84305 13.5143 6.83954 13.5539 6.83514 13.5934H6.83427Z"
            fill="#28241D" />
        <path
            d="M19.0243 22.7866C18.2284 22.9228 17.8225 23.4446 17.6389 24.1861C17.6126 23.811 17.6222 23.4394 17.7074 23.0695C17.7698 22.798 17.9104 22.6654 18.1924 22.7093C18.4682 22.7515 18.7607 22.6153 19.0243 22.7875V22.7866Z"
            fill="#C6741F" />
        <path
            d="M11.1376 24.1888C10.9039 24.1492 10.8626 24.4901 10.5508 24.4409C10.7695 24.1132 11.0137 23.8821 11.3396 23.7328C11.5145 23.6528 11.5557 23.7495 11.6041 23.8971C11.7244 24.2678 11.8377 24.643 12.0793 25.0067C11.915 25.0102 11.8131 24.9962 11.7358 24.9004C11.547 24.6553 11.2773 24.4769 11.1385 24.1888H11.1376Z"
            fill="#BD1849" />
        <path
            d="M15.9867 14.7846C15.6951 14.9639 15.3709 14.8602 15.0626 14.8909C14.8965 14.9076 14.7173 14.8338 14.5671 14.9612C14.2342 14.8514 13.9021 14.7425 13.4541 14.5949C14.2974 14.5949 15.0081 14.5958 15.7188 14.594C15.8584 14.594 15.9032 14.7144 15.9876 14.7855L15.9867 14.7846Z"
            fill="#CFCED2" />
        <path
            d="M25.878 12.3625C25.8762 12.4231 25.8736 12.4837 25.8718 12.5443C25.6803 12.6823 25.488 12.8193 25.2227 13.01C25.3755 12.0295 26.0256 11.6253 26.7345 11.2739C26.8109 11.5884 26.4982 11.6666 26.3787 11.8626C26.2619 12.0796 25.9105 12.0611 25.878 12.3625Z"
            fill="#A8A689" />
        <path
            d="M27.0035 25.1376C26.8533 24.9601 26.711 25.236 26.5625 25.1446C26.8585 24.9179 27.1511 24.6869 27.4497 24.4646C28.0515 24.0174 28.4327 23.4314 28.5865 22.6969C28.6119 22.6952 28.6374 22.6934 28.6629 22.6917C28.6014 23.3936 28.2887 23.9559 27.7467 24.4066C27.4805 24.628 27.2495 24.8924 27.0035 25.1376Z"
            fill="#9E7E52" />
        <path
            d="M20.8098 15.4937C19.9112 15.325 19.0617 15.3971 18.2412 15.745C18.5838 15.1396 20.1352 14.9745 20.8098 15.4937Z"
            fill="#B09267" />
        <path
            d="M8.93719 17.0154C8.90381 16.9372 8.87131 16.8581 8.81596 16.7272C8.40309 17.7033 7.82067 18.4799 6.79199 18.8726C6.82713 18.6776 6.97647 18.675 7.06431 18.6047C7.16534 18.5239 7.28832 18.4694 7.39022 18.3894C7.86196 18.0161 8.26078 17.582 8.50411 17.0224C8.56736 16.8783 8.62182 16.729 8.76677 16.6411C9.01362 16.6789 8.94422 16.8616 8.93719 17.0154Z"
            fill="#302B22" />
        <path
            d="M8.58819 14.7144C8.33783 14.3761 8.07956 14.044 7.84238 13.6979C7.74224 13.552 7.63419 13.4615 7.4541 13.4773C7.9232 13.3236 8.35716 13.5503 8.50737 14.0361C8.57502 14.2557 8.61982 14.4815 8.58819 14.7144Z"
            fill="#A98859" />
        <path
            d="M21.3282 24.0367C21.2658 23.6976 21.2087 23.3576 21.1384 23.0202C21.0901 22.7892 20.9399 22.6767 20.6992 22.6952C20.8529 22.4439 21.1358 22.5388 21.3537 22.4659C21.4635 22.429 21.4775 22.5889 21.4881 22.6881C21.5355 23.1494 21.4898 23.5992 21.3282 24.0359V24.0367Z"
            fill="#C6751E" />
        <path
            d="M17.446 23.7468C17.3133 23.3884 17.0902 23.1573 16.6738 23.1977C16.7432 22.8621 16.9822 22.7752 17.2554 22.885C17.5347 22.9974 17.5646 23.2654 17.5005 23.5395C17.4838 23.6098 17.4644 23.6783 17.446 23.7477V23.7468Z"
            fill="#BB511F" />
        <path
            d="M19.3895 15.6043C20.073 15.5604 20.7555 15.5244 21.3406 16.0041C20.694 15.8644 20.0493 15.7177 19.3887 15.6658C19.3535 15.6518 19.3421 15.6377 19.3544 15.6245C19.3658 15.6114 19.3772 15.6043 19.3895 15.6043Z"
            fill="#B09063" />
        <path
            d="M21.8446 18.1408C21.639 18.0995 21.4106 18.2085 21.2227 18.0494C21.2437 17.9739 21.2982 17.9071 21.365 17.8983C21.9289 17.8254 22.4903 17.7094 23.0639 17.7876C23.0639 17.8166 23.0639 17.8465 23.0639 17.8755C22.687 18.0995 22.2566 18.0758 21.8446 18.1399V18.1408Z"
            fill="#C5AB87" />
        <path
            d="M11.1375 24.1887C11.3922 24.3794 11.676 24.5454 11.7348 24.9004C11.5872 24.8538 11.4414 24.8002 11.2921 24.7633C10.8889 24.6631 10.8072 24.483 11.1375 24.1887Z"
            fill="#DB1F56" />
        <path
            d="M1.93471 20.4329C1.77922 20.7061 1.61144 20.9732 1.5192 21.2789C1.41203 21.6348 1.46913 21.9089 1.89782 22.0424C1.4296 22.1215 1.36898 21.8122 1.36723 21.5205C1.36371 21.0206 1.59738 20.6068 1.94086 20.2537C1.98566 20.3152 1.976 20.3749 1.93383 20.4329H1.93471Z"
            fill="#8B8A86" />
        <path
            d="M8.40192 20.309C8.44145 20.1386 8.4476 20.0164 8.20251 20.1025C7.75274 20.2616 7.28979 20.3459 6.80664 20.3055C7.31878 20.1614 7.85025 20.0955 8.34834 19.9066C8.56092 20.0147 8.60221 20.1456 8.40192 20.309Z"
            fill="#6D6B59" />
        <path
            d="M26.3076 11.8327C26.4499 11.6465 26.5922 11.4602 26.7345 11.274C26.9015 11.115 27.0859 11.1712 27.2484 11.2608C27.4092 11.3495 27.252 11.3724 27.1949 11.4093C27.0376 11.556 26.8145 11.5938 26.6546 11.7361L26.6625 11.7299C26.551 11.7862 26.4587 11.9118 26.3085 11.8327H26.3076Z"
            fill="#E7E5BC" />
        <path
            d="M23.3184 19.6413C23.3746 19.6105 23.4299 19.5807 23.4861 19.5499C23.9649 19.701 24.4428 19.8513 24.9215 20.0024C24.3523 20.0217 23.8375 19.8249 23.3184 19.6422V19.6413Z"
            fill="#9B7C4F" />
        <path
            d="M14.4616 23.0449C14.2859 22.9069 14.1945 23.1591 14.0434 23.1354C14.0399 22.9166 13.9521 22.588 14.2121 22.552C14.4897 22.5134 14.3535 22.8832 14.4607 23.0449H14.4616Z"
            fill="#C1531F" />
        <path
            d="M19.211 14.2777C19.2154 14.3972 19.2154 14.5184 19.291 14.6212C19.0775 14.7135 18.9229 14.9314 18.626 14.9322C18.8359 14.6977 19.023 14.4877 19.211 14.2777Z"
            fill="#96784D" />
        <path
            d="M18.7002 14.5422C18.5105 14.536 18.3207 14.5299 18.1318 14.5246C18.3172 14.232 18.6343 14.3339 18.9145 14.2329C18.8961 14.406 18.8047 14.478 18.7002 14.5422Z"
            fill="#C6C5C7" />
        <path
            d="M2.4541 19.7959C2.67987 19.636 2.91968 19.5271 3.25613 19.5614C3.02774 19.7687 2.75453 19.759 2.54458 19.8829C2.51032 19.8583 2.45937 19.8495 2.4541 19.7951V19.7959Z"
            fill="#92918E" />
        <path
            d="M19.3886 15.6044C19.386 15.6246 19.386 15.6448 19.3877 15.6659C19.0996 15.7317 18.8115 15.7976 18.5225 15.8635C18.7895 15.6913 19.0697 15.5771 19.3886 15.6044Z"
            fill="#836842" />
        <path
            d="M2.45374 19.796C2.48361 19.825 2.51435 19.8549 2.54422 19.8839C2.3413 20.0666 2.13749 20.2494 1.93457 20.4321C1.93721 20.3724 1.93896 20.3126 1.9416 20.2529C2.0883 20.0736 2.2473 19.9085 2.45374 19.796Z"
            fill="#CBCBCF" />
        <path
            d="M21.9223 14.6266C21.7493 14.6723 21.5832 14.4649 21.4067 14.6117C21.3452 14.5756 21.1616 14.5185 21.3302 14.4702C21.5112 14.4184 21.7879 14.3463 21.9223 14.6266Z"
            fill="#BDBDC3" />
        <path
            d="M26.6543 11.7361C26.7667 11.5147 27.0004 11.4954 27.1945 11.4093C27.22 11.4295 27.2455 11.4488 27.2719 11.469C27.0768 11.5833 26.8959 11.73 26.6543 11.7352V11.7361Z"
            fill="#47463B" />
        <path
            d="M20.8758 18.0994C20.9329 18.1706 20.9891 18.2417 21.0462 18.3129C20.8696 18.3059 20.6931 18.2997 20.5156 18.2927C20.5455 18.2409 20.5745 18.189 20.6044 18.1363C20.6957 18.11 20.7862 18.0836 20.8776 18.0573L20.8758 18.0994Z"
            fill="#655136" />
        <path
            d="M12.57 26.9035C12.3416 26.9246 12.2072 26.7445 12.0368 26.6461C11.2699 26.2042 10.4898 25.7833 9.67721 25.4363C8.862 25.0884 8.27871 24.5279 7.90185 23.7363C7.85968 23.0862 8.21282 22.6592 8.72321 22.3455C9.96359 21.5847 11.3375 21.1516 12.7272 20.765C13.0031 20.6886 13.2745 20.5761 13.6285 20.5823C13.473 20.7079 13.3351 20.7325 13.1998 20.7773C11.8338 21.2315 10.4643 21.6822 9.18352 22.3517C7.88604 23.0299 7.71298 23.8979 9.06229 24.9013C9.89156 25.518 10.9062 25.822 11.7811 26.372C12.0499 26.5406 12.3504 26.6628 12.57 26.9035Z"
            fill="#16140F" />
        <path
            d="M18.649 18.2479C17.9928 17.8148 17.377 17.893 16.7911 18.3903C16.7506 18.4245 16.6918 18.4368 16.6417 18.4597C16.4001 18.6363 16.1146 18.6916 15.8309 18.7461C15.5375 18.8023 15.245 18.7637 15.1299 18.4535C15.0104 18.1346 15.2441 17.9361 15.4857 17.7805C15.8704 17.5319 16.3018 17.4994 16.7471 17.5179C17.2742 17.5389 17.7943 17.5802 18.2607 17.8614C18.4215 17.958 18.6042 18.0336 18.6481 18.2479H18.649Z"
            fill="#070302" />
        <path
            d="M18.6494 18.2479C17.8386 17.5196 16.4541 17.3518 15.559 17.8754C15.3543 17.9949 15.1224 18.1328 15.2067 18.4078C15.2902 18.6811 15.5625 18.6863 15.7962 18.6512C16.0817 18.6081 16.361 18.5255 16.643 18.4605C16.4594 18.6705 16.2134 18.7601 15.9534 18.826C15.7268 18.7795 15.4993 18.8735 15.2717 18.8225C14.7886 18.7144 14.6665 18.4271 14.93 18.0072C14.9757 17.9343 15.0363 17.8701 15.0802 17.7955C15.7224 17.3448 16.4462 17.4133 17.1657 17.4757C17.3221 17.4897 17.4749 17.5679 17.6216 17.452C17.7569 17.3755 17.8931 17.2964 17.9756 17.5152C17.9625 17.5196 17.9458 17.5205 17.9352 17.5293C17.9168 17.5451 17.9018 17.5644 17.8852 17.5829C18.0239 17.6496 18.1698 17.705 18.3007 17.7849C18.4764 17.8921 18.6758 17.9826 18.7206 18.2181C18.7214 18.2251 18.703 18.2383 18.6907 18.2435C18.6784 18.2488 18.6626 18.247 18.6485 18.2479H18.6494Z"
            fill="#A78658" />
        <path
            d="M8.67676 25.4126C9.26445 25.7306 9.85126 26.0478 10.4389 26.3658C11.5906 27.0783 12.7879 27.7214 13.7938 28.6553C13.0471 28.1915 12.303 27.7241 11.5537 27.2646C10.7736 26.7867 9.98478 26.3219 9.20823 25.8387C9.01672 25.7201 8.79184 25.6314 8.67676 25.4126Z"
            fill="#181611" />
        <path
            d="M10.6982 21.1164C11.0567 20.816 11.5345 20.7993 11.9334 20.5937C12.4007 20.5102 12.8645 20.403 13.3521 20.454C12.4437 20.5858 11.596 20.9451 10.6991 21.1164H10.6982Z"
            fill="#382F22" />
        <path
            d="M15.0794 17.7947C14.7772 18.682 14.7799 18.6864 15.7681 18.7462C15.8402 18.7505 15.9113 18.7497 15.9526 18.8243C15.7672 18.8569 15.5801 18.9236 15.3974 18.9131C15.104 18.8964 14.7825 18.8296 14.6999 18.4958C14.6226 18.183 14.7983 17.9449 15.0794 17.7947Z"
            fill="#2F271C" />
        <path
            d="M17.9753 17.5152C17.8708 17.4204 17.7452 17.4379 17.6213 17.452C17.5115 17.4371 17.4017 17.4221 17.2559 17.4019C17.7794 17.1339 18.917 17.5038 19.4722 18.1548C18.9364 17.8447 18.5024 17.56 17.9762 17.5161L17.9753 17.5152Z"
            fill="#2E2820" />
        <path
            d="M15.8789 19.5719C16.5404 19.282 17.2317 19.0852 17.9591 18.9929C17.2827 19.2293 16.6071 19.4665 15.9307 19.7028C15.9132 19.6589 15.8965 19.6158 15.8789 19.5719Z"
            fill="#2E2A22" />
        <path
            d="M20.6239 29.0234C20.7592 28.9663 20.8901 29.0234 20.8761 29.1499C20.8409 29.4767 21.028 29.7842 20.9455 30.1567C20.7496 29.9002 20.7311 29.627 20.6652 29.3713C20.573 29.265 20.472 29.1596 20.6239 29.0243V29.0234Z"
            fill="#282219" />
        <path
            d="M20.6238 29.0235C20.6379 29.1395 20.6519 29.2546 20.666 29.3705C20.5913 29.3688 20.5175 29.367 20.4429 29.3653C20.3401 29.3117 20.3102 29.4285 20.2408 29.4522C20.1231 29.3477 19.9817 29.3582 19.8402 29.3705C19.7348 29.2519 19.8429 29.1825 19.9017 29.1017C20.1442 29.0859 20.3761 28.9778 20.6247 29.0235H20.6238Z"
            fill="#A78659" />
        <path
            d="M8.69145 25.3256C8.68705 25.3564 8.68266 25.3871 8.67915 25.417C8.32074 25.337 8.20039 24.9979 8.00098 24.7396C8.23113 24.9347 8.46129 25.1306 8.69232 25.3256H8.69145Z"
            fill="#5B4E3F" />
        <path
            d="M19.9014 29.1007C19.8812 29.1903 19.8601 29.2799 19.8399 29.3695C19.8189 29.4671 19.7907 29.5611 19.7064 29.6261C19.6338 29.3449 19.6991 29.1698 19.9023 29.1007H19.9014Z"
            fill="#312921" />
        <path
            d="M19.4228 17.7683C19.1066 17.539 18.8949 17.3852 18.6445 17.2042C18.9986 17.2306 19.0715 17.2815 19.4228 17.7683Z"
            fill="#312B23" />
        <path
            d="M20.2406 29.4522C20.2634 29.3468 20.1624 29.1825 20.2977 29.1447C20.4251 29.1087 20.4075 29.2791 20.4435 29.3652C20.4233 29.4408 20.454 29.5453 20.3565 29.5769C20.2538 29.6103 20.2652 29.5075 20.2415 29.4522H20.2406Z"
            fill="#3F372A" />
        <path
            d="M21.002 29.0375C21.2485 29.0486 21.4002 29.1634 21.457 29.3819C21.2752 29.3379 21.2233 29.1798 21.002 29.0375Z"
            fill="#3B3124" />
        <path
            d="M14.3604 28.9918C14.5352 29.0683 14.71 29.1447 14.9349 29.2431C14.6432 29.309 14.4605 29.2308 14.3604 28.9918Z"
            fill="#494134" />
        <path
            d="M20.4406 11.8995C17.3888 13.0812 14.6032 12.1991 11.8896 10.7679C14.6234 12.0375 17.4222 12.7913 20.4406 11.8995Z"
            fill="#47483D" />
        <path
            d="M13.21 10.2021C14.1684 10.6019 15.1461 10.9559 16.1554 11.18C17.1788 11.4075 18.2339 11.4058 19.3504 11.3794C18.0854 11.8802 14.7912 11.2125 13.21 10.203V10.2021Z"
            fill="#505245" />
        <path
            d="M13.7709 7.61133C12.9153 7.68337 12.1036 7.95748 11.277 8.16043C10.8843 8.25707 10.496 8.37304 10.1025 8.46792C9.98123 8.49691 9.84155 8.53733 9.74316 8.40291C11.0363 7.94606 12.3733 7.65613 13.7068 7.3583C16.2236 6.79603 18.7579 6.3506 21.3379 6.1828C22.2006 6.12657 23.0588 6.1336 23.9197 6.12569C24.0278 6.12481 24.1446 6.1046 24.2588 6.1951C24.1587 6.32424 24.0357 6.29086 23.9312 6.29262C22.4 6.32249 20.868 6.37169 19.3474 6.56497C17.5702 6.79164 15.801 7.0675 14.0696 7.54719C13.9712 7.57443 13.8702 7.58936 13.7709 7.61045V7.61133Z"
            fill="#0E0D0A" />
        <path
            d="M12.3486 9.45361C15.9468 8.41077 19.6486 8.03562 23.3724 7.80017C21.5505 8.10327 19.7084 8.26756 17.8829 8.54782C16.0346 8.83072 14.1864 9.11361 12.3495 9.45449L12.3486 9.45361Z"
            fill="#0E0E0B" />
        <path
            d="M18.7734 20.9373C19.0704 21.1095 19.2171 21.3704 19.2171 21.72C19.0695 21.4591 18.9219 21.1982 18.7734 20.9373Z"
            fill="#332A20" />
        <path
            d="M4.99433 10.3111C5.87454 10.2364 6.66691 10.3999 7.24669 11.1405C7.28183 11.1862 7.31961 11.2301 7.34772 11.2802C7.35826 11.2986 7.34508 11.3302 7.33981 11.3865C6.97525 11.0965 6.67043 10.7451 6.22417 10.6028C5.07251 10.1934 4.12026 10.5808 3.24707 11.3258C3.67576 10.7258 4.28717 10.4376 4.99433 10.312V10.3111Z"
            fill="#1D1E19" />
        <path
            d="M2.6215 17.4169C2.14098 16.6763 1.93718 15.8627 2.00482 14.9789C2.13922 15.81 2.30525 16.6323 2.6215 17.4169Z"
            fill="#26261F" />
        <path
            d="M13.0483 23.7266C12.8664 23.5456 12.7742 23.3787 12.7962 23.0739C12.9754 23.297 13.1027 23.449 13.0483 23.7266Z"
            fill="#541311" />
        <path
            d="M20.8759 18.0995C20.8882 18.0863 20.8882 18.0722 20.8776 18.0573C21.3871 17.792 21.8843 17.5038 22.422 17.2921C22.5493 17.242 22.6741 17.2306 22.8041 17.2262C22.9666 17.2218 23.1353 17.2165 23.2275 17.3835C23.3347 17.5776 23.1599 17.669 23.0632 17.7867C22.5862 17.8755 22.118 18.0345 21.6208 17.9238C21.4741 17.8913 21.3397 17.9563 21.222 18.0485C21.0972 18.0037 21.0024 18.1654 20.875 18.0977L20.8759 18.0995Z"
            fill="#0C0906" />
        <path
            d="M26.3074 11.8328C26.4382 11.8416 26.5164 11.672 26.6614 11.73C26.4005 11.9409 26.1387 12.1517 25.8778 12.3626C25.8031 12.4003 25.7276 12.4381 25.6055 12.5005C25.7513 12.1359 26.115 12.0726 26.3074 11.8328Z"
            fill="#47463B" />
    </g>
    <defs>
        <clipPath id="clip0_487_20769">
            <rect width="30.3997" height="32" fill="white" />
        </clipPath>
    </defs>
</svg>