<svg width="16" height="14" viewBox="0 0 16 14" fill="none" xmlns="http://www.w3.org/2000/svg">
<path fill-rule="evenodd" clip-rule="evenodd" d="M9.69629 0.114648C9.79297 0.0496094 9.89844 0.0214844 10.0021 0.0214844C10.2957 0.0214844 10.5664 0.255273 10.5664 0.585742V13.4143C10.5664 13.7447 10.2957 13.9785 10.0021 13.9785C9.9002 13.9785 9.79297 13.9486 9.69629 13.8854L3.46484 9.8125H0.582031C0.427344 9.8125 0.300781 9.68594 0.300781 9.53125V4.46875C0.300781 4.31406 0.427344 4.1875 0.582031 4.1875H3.46484L9.69629 0.114648ZM12.602 4.1875C12.5053 4.1875 12.4104 4.13652 12.3594 4.04688L12.0113 3.44219C11.934 3.30859 11.9797 3.13633 12.1133 3.05898L14.0521 1.93926C14.0961 1.91465 14.1436 1.90234 14.191 1.90234C14.2877 1.90234 14.3826 1.95332 14.4336 2.04297L14.7816 2.64766C14.859 2.78125 14.8133 2.95352 14.6797 3.03086L12.7408 4.15059C12.6969 4.1752 12.6494 4.1875 12.602 4.1875ZM12.7426 9.84941L14.6814 10.9691C14.8133 11.0465 14.8607 11.2188 14.7834 11.3523L14.4336 11.9588C14.3826 12.0484 14.2877 12.0994 14.191 12.0994C14.1436 12.0994 14.0961 12.0871 14.0521 12.0625L12.1133 10.9428C11.9797 10.8654 11.934 10.6932 12.0113 10.5596L12.3611 9.95312C12.4121 9.86348 12.507 9.8125 12.6037 9.8125C12.6512 9.8125 12.6986 9.8248 12.7426 9.84941ZM15.418 6.36719H13.168C13.0133 6.36719 12.8867 6.49375 12.8867 6.64844V7.35156C12.8867 7.50625 13.0133 7.63281 13.168 7.63281H15.418C15.5727 7.63281 15.6992 7.50625 15.6992 7.35156V6.64844C15.6992 6.49375 15.5727 6.36719 15.418 6.36719Z" fill="#838791"/>
</svg>
