<svg width="14" height="13" viewBox="0 0 14 13" fill="none" xmlns="http://www.w3.org/2000/svg">
<path fill-rule="evenodd" clip-rule="evenodd" d="M2 0C0.895431 0 0 0.89543 0 2V8.5147C0 9.61927 0.89543 10.5147 2 10.5147H3.8773L2.29546 8.26664C1.82925 7.60409 2.30315 6.69118 3.11328 6.69118L10.0221 6.69118C10.8323 6.69118 11.3062 7.60408 10.84 8.26664L9.25812 10.5147H11.3824C12.4869 10.5147 13.3824 9.61928 13.3824 8.51471V2C13.3824 0.895431 12.4869 0 11.3824 0H2Z" fill="#999999"/>
<path d="M7.0122 12.3893C6.81386 12.682 6.38275 12.682 6.18441 12.3893L3.40213 8.2842C3.1771 7.95219 3.41494 7.50368 3.81602 7.50368L9.38059 7.50368C9.78167 7.50368 10.0195 7.95219 9.79448 8.2842L7.0122 12.3893Z" fill="#999999"/>
</svg>
