<svg width="1em" height="1em" viewBox="0 0 14 14" fill="none" xmlns="http://www.w3.org/2000/svg">
<path fill-rule="evenodd" clip-rule="evenodd" d="M1.50859 7.70312H0.390625C0.313281 7.70312 0.25 7.63984 0.25 7.5625V2.93594C0.25 2.23984 0.816016 1.67383 1.51035 1.67383H10.9393V0.397656C10.9393 0.316797 11.0061 0.25 11.0869 0.25C11.1203 0.25 11.152 0.260547 11.1783 0.281641L13.6973 2.25742C13.7605 2.3084 13.7729 2.40156 13.6973 2.48945L11.1783 4.46699C11.115 4.51797 11.0236 4.50566 10.9727 4.44238C10.9516 4.41602 10.941 4.38438 10.941 4.35098V3.0748H1.64922V7.5625C1.64922 7.63984 1.58594 7.70312 1.50859 7.70312ZM12.4914 6.29688H13.6094C13.6867 6.29688 13.75 6.36016 13.7535 6.4375V11.0641C13.7535 11.7602 13.1875 12.3262 12.4932 12.3262H3.06074V13.6023C3.06074 13.6832 2.99395 13.75 2.91309 13.75C2.87969 13.75 2.84805 13.7395 2.82168 13.7184L0.302734 11.7426C0.239453 11.6916 0.227148 11.5984 0.302734 11.5105L2.82168 9.53301C2.88496 9.48203 2.97637 9.49434 3.02734 9.55762C3.04844 9.58398 3.05898 9.61563 3.05898 9.64902V10.9252H12.3508V6.4375C12.3508 6.36016 12.4141 6.29688 12.4914 6.29688Z" fill="currentColor"/>
</svg>
