<?xml version="1.0" encoding="UTF-8"?>
<svg width="16px" height="16px" viewBox="0 0 16 16" version="1.1" xmlns="http://www.w3.org/2000/svg" xmlns:xlink="http://www.w3.org/1999/xlink">
    <title>menu-Notification2</title>
    <g id="list" stroke="none" stroke-width="1" fill="none" fill-rule="evenodd">
        <g id="menu" transform="translate(-710.000000, -243.000000)" fill-rule="nonzero">
            <g id="group-14" transform="translate(696.000000, 108.000000)">
                <g id="menu-Notification2" transform="translate(14.000000, 135.000000)">
                    <rect id="rect" fill="#000000" opacity="0" x="0" y="0" width="16" height="16"></rect>
                    <path d="M3.62476409,7.629 L13.1397641,13.122 L13.125,13.125 L9.75,13.125 C9.75,14.090625 8.965625,14.875 8,14.875 C7.034375,14.875 6.25,14.090625 6.25,13.125 L6.25,13.125 L2.875,13.125 C2.80625,13.125 2.75,13.06875 2.75,13 L2.75,13 L2.75,12.5 C2.75,12.2234375 2.9734375,12 3.25,12 L3.25,12 L3.625,12 L3.62476409,7.629 Z M8.75,13.125 L7.25,13.125 C7.25,13.5390625 7.5859375,13.875 8,13.875 C8.4140625,13.875 8.75,13.5390625 8.75,13.125 L8.75,13.125 Z M8,1.125 C8.3453125,1.125 8.625,1.4046875 8.625,1.75 L8.625,1.75 L8.625,2.35625 C10.7453125,2.659375 12.375,4.4828125 12.375,6.6875 L12.375,6.6875 L12.3747641,10.37 L3.80975119,5.42518611 C4.27379223,3.88186214 5.56678315,2.69778239 7.17137831,2.39029248 L7.375,2.35625 L7.375,1.75 C7.375,1.4046875 7.6546875,1.125 8,1.125 Z M0.620834875,5.375 C0.758906063,5.13585369 1.06470127,5.05391611 1.30384758,5.1919873 L15.160254,13.1919873 C15.3994003,13.3300585 15.4813379,13.6358537 15.3432667,13.875 C15.2051956,14.1141463 14.8994003,14.1960839 14.660254,14.0580127 L0.803847577,6.0580127 C0.564701266,5.91994151 0.482763688,5.61414631 0.620834875,5.375 Z" id="shape" fill="#999999"></path>
                </g>
            </g>
        </g>
    </g>
</svg>