<?xml version="1.0" encoding="UTF-8"?>
<svg width="16px" height="16px" viewBox="0 0 16 16" version="1.1" xmlns="http://www.w3.org/2000/svg" xmlns:xlink="http://www.w3.org/1999/xlink">
    <title>menuSys-appearance</title>
    <g id="list" stroke="none" stroke-width="1" fill="none" fill-rule="evenodd">
        <g id="系统快捷管理" transform="translate(-317.000000, -237.000000)" fill-rule="nonzero">
            <g id="编组-14备份" transform="translate(301.000000, 59.000000)">
                <g id="menuSys-appearance" transform="translate(16.000000, 178.000000)">
                    <rect id="矩形" fill="#000000" opacity="0" x="0" y="0" width="16" height="16"></rect>
                    <path d="M13.59375,1.96875 L10.371875,1.96875 C10.1,1.96875 9.8578125,2.1546875 9.79375,2.4265625 C9.5984375,3.2515625 8.859375,3.84375 8,3.84375 C7.140625,3.84375 6.4015625,3.2515625 6.20625,2.4265625 C6.1421875,2.1546875 5.9015625,1.96875 5.628125,1.96875 L2.40625,1.96875 C2.0265625,1.96875 1.71875,2.2765625 1.71875,2.65625 L1.71875,6.59375 C1.71875,6.9734375 2.0265625,7.28125 2.40625,7.28125 L3.578125,7.28125 L3.578125,13.34375 C3.578125,13.7234375 3.8859375,14.03125 4.265625,14.03125 L11.734375,14.03125 C12.1140625,14.03125 12.421875,13.7234375 12.421875,13.34375 L12.421875,7.28125 L13.59375,7.28125 C13.9734375,7.28125 14.28125,6.9734375 14.28125,6.59375 L14.28125,2.65625 C14.28125,2.2765625 13.9734375,1.96875 13.59375,1.96875 Z" id="路径" fill="#999999"></path>
                </g>
            </g>
        </g>
    </g>
</svg>