<svg xmlns="http://www.w3.org/2000/svg" width="15" height="15" viewBox="0 0 15 15" fill="none">
    <path fill-rule="evenodd" clip-rule="evenodd"
        d="M14.3274 0.0732422H0.667633C0.339131 0.0732422 0.0737305 0.338642 0.0737305 0.667145V14.3269C0.0737305 14.6554 0.339131 14.9208 0.667633 14.9208H14.3274C14.6559 14.9208 14.9213 14.6554 14.9213 14.3269V0.667145C14.9213 0.338642 14.6559 0.0732422 14.3274 0.0732422ZM13.7335 7.49705C13.7335 8.15306 13.2017 8.68486 12.5457 8.68486H8.98227C8.32626 8.68486 7.79446 8.15306 7.79446 7.49705C7.79446 6.84105 8.32626 6.30925 8.98227 6.30925H12.5457C13.2017 6.30925 13.7335 6.84105 13.7335 7.49705ZM9.50196 8.23914C9.09202 8.23914 8.7597 7.90681 8.7597 7.49687C8.7597 7.08693 9.09202 6.75461 9.50196 6.75461C9.91191 6.75461 10.2442 7.08693 10.2442 7.49687C10.2442 7.90681 9.91191 8.23914 9.50196 8.23914Z"
        fill="#838791" />
</svg>