<?xml version="1.0" encoding="UTF-8"?>
<svg width="16px" height="16px" viewBox="0 0 16 16" version="1.1" xmlns="http://www.w3.org/2000/svg" xmlns:xlink="http://www.w3.org/1999/xlink">
    <title>menuSys-genral</title>
    <g id="list" stroke="none" stroke-width="1" fill="none" fill-rule="evenodd">
        <g id="系统快捷管理" transform="translate(-318.000000, -195.000000)" fill-rule="nonzero">
            <g id="编组-14备份" transform="translate(301.000000, 59.000000)">
                <g id="menuSys-genral" transform="translate(17.000000, 136.000000)">
                    <rect id="矩形" fill="#000000" opacity="0" x="0" y="0" width="16" height="16"></rect>
                    <path d="M7.84654545,0.603636359 C5.79854545,0.603636359 4.13527273,2.23127272 4.13527273,4.24 C4.13527273,6.24872728 5.79781819,7.87636364 7.84654545,7.87636364 C9.896,7.87636364 11.5585455,6.24872728 11.5585455,4.24 C11.5585455,2.23127272 9.89745455,0.603636359 7.84654545,0.603636359 Z M7.84654545,0.603636359 C5.79854545,0.603636359 4.13527273,2.23127272 4.13527273,4.24 C4.13527273,6.24872728 5.79781819,7.87636364 7.84654545,7.87636364 C9.896,7.87636364 11.5585455,6.24872728 11.5585455,4.24 C11.5585455,2.23127272 9.89745455,0.603636359 7.84654545,0.603636359 Z M6.456,9.08872727 C3.808,9.08872727 1.66109091,11.192 1.66109091,13.7854545 L1.66109091,14.0872727 C1.66109091,15.1483636 3.808,15.1490909 6.456,15.1490909 L9.54909091,15.1490909 C12.1963636,15.1490909 14.3425455,15.1098182 14.3425455,14.0872727 L14.3425455,13.7854545 C14.3425455,11.192 12.1963636,9.08872727 9.54909091,9.08872727 L6.456,9.08872727 Z" id="形状" fill="#999999"></path>
                </g>
            </g>
        </g>
    </g>
</svg>