<svg width="16" height="16" viewBox="0 0 16 16" fill="none" xmlns="http://www.w3.org/2000/svg">
<path d="M12.0202 6.33334C11.396 6.33334 10.7974 6.0854 10.3561 5.64407C9.91477 5.20273 9.66683 4.60415 9.66683 3.98001V2.00001C9.66683 1.63334 9.36683 1.33334 9.00016 1.33334H4.66683C2.82683 1.33334 1.3335 2.82001 1.3335 4.65334V9.30001C1.3335 11.14 2.82683 12.6333 4.66683 12.6333H5.66683C5.8535 12.6333 6.0935 12.7533 6.20016 12.9L7.20016 14.2267C7.64016 14.8133 8.36016 14.8133 8.80016 14.2267L9.80016 12.9C9.92683 12.7333 10.1268 12.6333 10.3335 12.6333H11.3402C13.1802 12.6333 14.6668 11.1467 14.6668 9.30668V7.00001C14.6668 6.63334 14.3668 6.33334 14.0002 6.33334H12.0202ZM5.3335 8.00001C4.96016 8.00001 4.66683 7.70001 4.66683 7.33334C4.66683 6.96668 4.96016 6.66668 5.3335 6.66668C5.70016 6.66668 6.00016 6.96668 6.00016 7.33334C6.00016 7.70001 5.70683 8.00001 5.3335 8.00001ZM8.00016 8.00001C7.62683 8.00001 7.3335 7.70001 7.3335 7.33334C7.3335 6.96668 7.62683 6.66668 8.00016 6.66668C8.36683 6.66668 8.66683 6.96668 8.66683 7.33334C8.66683 7.70001 8.3735 8.00001 8.00016 8.00001Z" fill="#999999"/>
<path d="M15 2L12.25 4.5L11 3.36364" stroke="#999999" stroke-width="1.5" stroke-linecap="round" stroke-linejoin="round"/>
</svg>
