<svg width="26" height="27" viewBox="0 0 26 27" fill="none" xmlns="http://www.w3.org/2000/svg">
<rect opacity="0.01" y="0.493164" width="26" height="26" fill="black"/>
<path fill-rule="evenodd" clip-rule="evenodd" d="M16.7657 12.4131C16.367 12.4131 16.0446 12.7355 16.0446 13.1342V13.8375C16.0446 14.2361 16.367 14.5586 16.7657 14.5586C17.1643 14.5586 17.4868 14.2361 17.4868 13.8375V13.1342C17.4868 12.7355 17.1643 12.4131 16.7657 12.4131ZM11.1312 12.4133C10.7326 12.4133 10.4102 12.7357 10.4102 13.1344V13.8377C10.4102 14.2363 10.7326 14.5588 11.1312 14.5588C11.5299 14.5588 11.8523 14.2363 11.8523 13.8377V13.1344C11.8523 12.7357 11.5299 12.4133 11.1312 12.4133ZM14.7319 16.5953C14.9528 16.2677 15.3996 16.1738 15.7297 16.3922C16.0598 16.6105 16.1563 17.0472 15.9405 17.3824C15.6764 17.7963 14.9553 18.497 13.9397 18.497C12.919 18.497 12.208 17.7912 11.9491 17.3748C11.7409 17.0345 11.845 16.5902 12.1827 16.3795C12.5203 16.1713 12.9621 16.2728 13.1729 16.6054C13.1734 16.6062 13.1742 16.6072 13.1751 16.6085C13.2086 16.6553 13.4924 17.0523 13.9422 17.0523C14.417 17.0523 14.7293 16.6004 14.7319 16.5953Z" fill="white"/>
<path fill-rule="evenodd" clip-rule="evenodd" d="M5.09355 22.7493H18.0504C20.3813 22.7493 22.3947 21.0888 22.8416 18.7986L23.8242 13.7179C24.101 12.3874 23.9105 11.3185 23.258 10.5364C22.3059 9.39387 20.724 9.37609 20.5463 9.37863H18.7334C18.3932 9.37863 18.1393 9.27707 17.9311 9.05617C17.3344 8.42648 17.2684 7.04777 17.2938 6.57043V6.52727C17.2938 4.94035 16.8748 3.76223 16.0471 3.0259C15.1355 2.2134 14.0844 2.26164 13.8686 2.28195C12.9469 2.33781 12.2055 2.67805 11.6672 3.28996C10.7404 4.34367 10.8039 5.7884 10.8166 5.99406C10.8852 7.31691 10.3063 8.20559 8.99609 8.79465C7.76677 9.34999 6.16102 9.50882 4.9822 9.62541L4.96152 9.62746L4.91649 9.63203C4.28768 9.69586 3.78767 9.74661 3.43301 9.84582C2.50879 10.1048 1.86133 10.9605 1.86133 11.9253V19.5171C1.86133 21.2995 3.31113 22.7493 5.09355 22.7493ZM12.34 5.91023V5.89499C12.3375 5.84421 12.2943 4.88191 12.8148 4.29538C13.0789 3.99577 13.4572 3.83581 13.9676 3.80788L13.9904 3.80534L14.0133 3.8028C14.0135 3.8028 14.0142 3.80277 14.0154 3.8027C14.0538 3.80063 14.5856 3.77186 15.0314 4.16843C15.5113 4.59245 15.7652 5.40495 15.7678 6.51452C15.7627 6.6364 15.7475 7.15691 15.8363 7.78405C15.9811 8.78698 16.3111 9.56648 16.8189 10.1048C17.3141 10.6278 17.9742 10.9046 18.7283 10.9046H20.5666C20.5768 10.9046 21.5772 10.9071 22.085 11.5139C22.4252 11.9202 22.5064 12.56 22.3287 13.4132L21.341 18.5091C21.0363 20.0833 19.6525 21.2259 18.0504 21.2259H5.09355C4.15156 21.2259 3.38477 20.4591 3.38477 19.5171V11.9253C3.38477 11.6409 3.5752 11.387 3.84688 11.3108C4.07032 11.2477 4.53769 11.2008 5.04233 11.1502C5.06526 11.1479 5.08826 11.1455 5.11133 11.1432L5.1179 11.1426C6.40461 11.0157 8.16069 10.8425 9.6207 10.1885C10.4814 9.80007 11.1518 9.2821 11.6063 8.6448C12.1496 7.88816 12.3959 6.96901 12.34 5.91023Z" fill="white"/>
<path d="M6.9624 22.7492C6.54092 22.7492 6.20068 22.409 6.20068 21.9875V10.1504C6.20068 9.72891 6.54092 9.38867 6.9624 9.38867C7.38389 9.38867 7.72412 9.72891 7.72412 10.1504V21.99C7.72412 22.409 7.38389 22.7492 6.9624 22.7492Z" fill="white"/>
</svg>
