<svg width="13" height="14" viewBox="0 0 13 14" fill="none" xmlns="http://www.w3.org/2000/svg">
<path fill-rule="evenodd" clip-rule="evenodd" d="M2 0C0.895431 0 0 0.895429 0 2V8.21429C0 9.31886 0.89543 10.2143 2 10.2143H2.43449L5.65218 5.0698C6.0439 4.44351 6.9561 4.44351 7.34782 5.0698L10.5655 10.2143H11C12.1046 10.2143 13 9.31886 13 8.21429V2C13 0.895431 12.1046 0 11 0H2Z" fill="#999999"/>
<path d="M5.63396 7.07143C6.01886 6.40476 6.98111 6.40476 7.36601 7.07143L9.25271 10.3393C9.63761 11.006 9.15648 11.8393 8.38668 11.8393H4.61328C3.84348 11.8393 3.36236 11.0059 3.74726 10.3393L5.63396 7.07143Z" fill="#999999"/>
</svg>
