<svg width="16" height="16" viewBox="0 0 16 16" fill="none" xmlns="http://www.w3.org/2000/svg">
<path d="M12.0199 6.33334C11.3958 6.33334 10.7972 6.0854 10.3559 5.64406C9.91453 5.20273 9.66659 4.60415 9.66659 3.98V2C9.66659 1.63334 9.36659 1.33334 8.99992 1.33334H4.66659C2.82659 1.33334 1.33325 2.82 1.33325 4.65334V9.3C1.33325 11.14 2.82659 12.6333 4.66659 12.6333H5.66659C5.85325 12.6333 6.09325 12.7533 6.19992 12.9L7.19992 14.2267C7.63992 14.8133 8.35992 14.8133 8.79992 14.2267L9.79992 12.9C9.92659 12.7333 10.1266 12.6333 10.3333 12.6333H11.3399C13.1799 12.6333 14.6666 11.1467 14.6666 9.30667V7C14.6666 6.63334 14.3666 6.33334 13.9999 6.33334H12.0199ZM5.33325 8C4.95992 8 4.66659 7.7 4.66659 7.33334C4.66659 6.96667 4.95992 6.66667 5.33325 6.66667C5.69992 6.66667 5.99992 6.96667 5.99992 7.33334C5.99992 7.7 5.70659 8 5.33325 8ZM7.99992 8C7.62659 8 7.33325 7.7 7.33325 7.33334C7.33325 6.96667 7.62659 6.66667 7.99992 6.66667C8.36659 6.66667 8.66659 6.96667 8.66659 7.33334C8.66659 7.7 8.37325 8 7.99992 8Z" fill="#999999"/>
<circle cx="13" cy="3" r="2" fill="#999999"/>
</svg>
