<svg width="14" height="14" viewBox="0 0 14 14" fill="none" xmlns="http://www.w3.org/2000/svg">
<path fill-rule="evenodd" clip-rule="evenodd" d="M12.6762 0.662677L13.3387 1.32518C13.3871 1.37361 13.3871 1.4533 13.3387 1.5033L12.1496 2.69236C12.9731 3.90799 12.8465 5.57518 11.7699 6.6533L10.1778 8.24549C10.1528 8.26893 10.1199 8.28143 10.0887 8.28143C10.0559 8.28143 10.0246 8.27049 9.99963 8.24549L5.75432 4.00018C5.70588 3.95174 5.70588 3.87205 5.75432 3.82361L7.34651 2.23143C7.95744 1.62049 8.75744 1.3158 9.55744 1.3158C10.1699 1.3158 10.7824 1.49393 11.309 1.85174L12.4981 0.662677C12.5231 0.63924 12.5543 0.62674 12.5871 0.62674C12.6199 0.62674 12.6512 0.637677 12.6762 0.662677ZM7.86856 7.5431C7.91699 7.49466 7.99668 7.49466 8.04512 7.5431L8.61699 8.10873C8.66543 8.15717 8.66543 8.23685 8.61699 8.28529L7.5748 9.32748L8.24668 9.99935C8.29512 10.0478 8.29512 10.1275 8.24668 10.1759L6.65449 11.7681C6.04356 12.379 5.24356 12.6837 4.44355 12.6837C3.83105 12.6837 3.21855 12.5056 2.69199 12.1478L1.50293 13.3369C1.47793 13.3603 1.44668 13.3728 1.41387 13.3728C1.38105 13.3728 1.3498 13.3619 1.3248 13.3369L0.662305 12.6744C0.613867 12.6259 0.613867 12.5462 0.662305 12.4978L1.85137 11.3087C1.02793 10.0931 1.15449 8.42435 2.23105 7.34779L3.82168 5.7556C3.84668 5.73216 3.87949 5.71967 3.91074 5.71967C3.94355 5.71967 3.9748 5.7306 3.9998 5.7556L4.67168 6.42748L5.71387 5.38529C5.7623 5.33685 5.84199 5.33685 5.89043 5.38529L6.45918 5.95404C6.50762 6.00248 6.50762 6.08216 6.45918 6.1306L5.41699 7.17279L6.82793 8.58373L7.86856 7.5431Z" fill="#E7E8EC"/>
</svg>
