<svg width="14" height="14" viewBox="0 0 14 14" fill="none" xmlns="http://www.w3.org/2000/svg">
<g clip-path="url(#clip0_6615_114390)">
<path d="M13.0292 8.55602C13.2133 8.55622 13.3904 8.62672 13.5243 8.7531C13.6581 8.87948 13.7387 9.05221 13.7495 9.236C13.7603 9.41979 13.7005 9.60076 13.5823 9.74193C13.4642 9.88311 13.2965 9.97384 13.1137 9.99559L13.0292 10.0006H3.2159L4.87216 11.6569C5.00171 11.7869 5.07692 11.9613 5.08252 12.1447C5.08812 12.3282 5.02369 12.5069 4.90232 12.6445C4.78095 12.7821 4.61173 12.8684 4.42904 12.8858C4.24635 12.9032 4.06389 12.8505 3.91871 12.7382L3.85081 12.6782L1.08436 9.9118C0.604025 9.43218 0.91173 8.62392 1.56325 8.56035L1.64632 8.55602H13.0292ZM9.6293 1.54454C9.75368 1.42018 9.91916 1.34547 10.0947 1.33443C10.2702 1.32339 10.4438 1.37679 10.5828 1.48459L10.6507 1.54454L13.4171 4.311C13.8974 4.79061 13.5897 5.59888 12.9382 5.66244L12.8551 5.66677H1.47224C1.28814 5.66657 1.11106 5.59608 0.977194 5.46969C0.843324 5.34331 0.762764 5.17058 0.751975 4.98679C0.741186 4.80301 0.800981 4.62204 0.919144 4.48086C1.03731 4.33968 1.20492 4.24895 1.38773 4.22721L1.47224 4.22215H11.2856L9.6293 2.56589C9.49389 2.43044 9.41782 2.24675 9.41782 2.05522C9.41782 1.86369 9.49389 1.68 9.6293 1.54454Z" fill="#FC774B"/>
</g>
<defs>
<clipPath id="clip0_6615_114390">
<rect width="14" height="14" fill="white"/>
</clipPath>
</defs>
</svg>
