<?xml version="1.0" encoding="UTF-8"?>
<svg width="16px" height="16px" viewBox="0 0 16 16" version="1.1" xmlns="http://www.w3.org/2000/svg" xmlns:xlink="http://www.w3.org/1999/xlink">
    <title>side-share</title>
    <g id="list" stroke="none" stroke-width="1" fill="none" fill-rule="evenodd">
        <g id="timeline3-1" transform="translate(-1227.000000, -320.000000)">
            <g id="group-33" transform="translate(1040.000000, 82.000000)">
                <g id="group-27" transform="translate(145.438871, 227.000000)">
                    <g id="side-share" transform="translate(41.561129, 11.000000)">
                        <rect id="rectangle" x="0" y="0" width="16" height="16"></rect>
                        <g id="Share" transform="translate(1.000000, 1.000000)" fill-rule="nonzero">
                            <rect id="rectangle-2" fill="#000000" opacity="0" x="0" y="0" width="14" height="14"></rect>
                            <path d="M13.6000378,13.2666754 C13.5343183,13.4140111 13.4400271,13.5468479 13.3226227,13.6574963 C13.2088423,13.7655749 13.0756175,13.8511209 12.9299946,13.9096097 C12.7775457,13.9704346 12.6147489,14.0011221 12.4506177,14.000004 L1.54739221,14.000004 C1.38385807,14.0010026 1.2216755,13.9703153 1.06982261,13.9096097 C0.922725173,13.8506652 0.788235983,13.764175 0.673579908,13.6547854 C0.433178021,13.4286496 0.296765166,13.1132784 0.296765166,12.7832322 L0.296765166,6.69004062 C0.296765166,6.52372493 0.331310339,6.35922242 0.398423922,6.20704923 C0.46429929,6.05980249 0.558569955,5.92699447 0.675838994,5.81622833 C0.789619434,5.70814971 0.92284423,5.62260375 1.06846716,5.56411496 C1.22061798,5.5025635 1.38326328,5.47110851 1.54739221,5.47149266 L4.27319858,5.47149266 L4.27319858,6.69139607 L1.54739221,6.69139607 L1.51531326,8.82396793 L1.51531326,12.7850395 L12.4492623,12.7850395 L12.481793,12.4800636 L12.481793,6.69004062 L9.72345589,6.69004062 L9.72345589,5.47010926 L12.4492623,5.47010926 C12.6129482,5.46904899 12.7752898,5.49973738 12.9272837,5.56050044 C13.0742975,5.6193466 13.2086562,5.70585155 13.3230746,5.8153247 C13.5638686,6.0412239 13.7003602,6.35670793 13.7003602,6.6868779 L13.7003602,12.7805213 C13.7012886,12.9478055 13.6671177,13.1134266 13.6000378,13.2666754 L13.6000378,13.2666754 Z M7.60986029,10.9542807 L6.38995689,10.9542807 L6.38995689,2.74207176 L4.56190905,2.74207176 L7.00171586,0 L9.43881176,2.74207176 L7.60986029,2.74207176 L7.60986029,10.9542807 Z" id="shape" fill="#E7E8EC"></path>
                        </g>
                    </g>
                </g>
            </g>
        </g>
    </g>
</svg>