<?xml version="1.0" encoding="UTF-8"?>
<svg width="12px" height="15px" viewBox="0 0 12 15" version="1.1" xmlns="http://www.w3.org/2000/svg" xmlns:xlink="http://www.w3.org/1999/xlink">
    <title>side-shield</title>
    <g id="list" stroke="none" stroke-width="1" fill="none" fill-rule="evenodd">
        <g id="right-side-roominfo" transform="translate(-340.000000, -206.000000)" fill="#7E84AA" fill-rule="nonzero">
            <g id="group-33" transform="translate(66.000000, 63.000000)">
                <g id="safety-certificate-f" transform="translate(274.000000, 143.000000)">
                    <path d="M11.7581792,1.91238699 L6.246482,0.0340628725 C6.1799783,0.0113542908 6.09076602,0 6.00155373,0 C5.91234144,0 5.82312916,0.0113542908 5.75662546,0.0340628725 L0.244928274,1.91238699 C0.110298825,1.95780415 0,2.11352014 0,2.25625979 L0,10.0809882 C0,10.2237279 0.0924563683,10.4118847 0.204377235,10.501097 L5.79555445,14.8579006 C5.85232591,14.9016957 5.92531778,14.9244043 5.99993169,14.9244043 C6.0745456,14.9244043 6.14915951,14.9016957 6.20430892,14.8579006 L11.7954861,10.501097 C11.907407,10.4135067 11.9999332,10.2253499 11.9999332,10.0809882 L11.9999332,2.25625979 C12.0031075,2.11352014 11.8928086,1.95942619 11.7581792,1.91238699 Z M8.96177956,4.68283395 L5.51331922,9.43054956 C5.40950856,9.57328922 5.19539908,9.57328922 5.09158842,9.43054956 L3.0413279,6.60819727 C2.97969032,6.52222907 3.0413279,6.40219799 3.1467606,6.40219799 L4.04212754,6.40219799 C4.12485166,6.40219799 4.20433169,6.44274903 4.25299294,6.50925273 L5.30245382,7.95286971 L7.75011452,4.58226737 C7.79877577,4.51576367 7.87663376,4.47521263 7.96097992,4.47521263 L8.85634686,4.47521263 C8.96177956,4.47683467 9.02341714,4.59686575 8.96177956,4.68283395 Z" id="shape"></path>
                </g>
            </g>
        </g>
    </g>
</svg>