<?xml version="1.0" encoding="UTF-8"?>
<svg width="16px" height="16px" viewBox="0 0 16 16" version="1.1" xmlns="http://www.w3.org/2000/svg" xmlns:xlink="http://www.w3.org/1999/xlink">
    <title>side-invite</title>
    <g id="list" stroke="none" stroke-width="1" fill="none" fill-rule="evenodd">
        <g id="timeline3-1" transform="translate(-1107.000000, -322.000000)" fill-rule="nonzero">
            <g id="group-33" transform="translate(1040.000000, 82.000000)">
                <g id="group-26" transform="translate(25.000000, 227.000000)">
                    <g id="side-invite" transform="translate(42.000000, 13.000000)">
                        <rect id="rectangle" fill="#000000" opacity="0" x="0" y="0" width="16" height="16"></rect>
                        <path d="M13.6977967,14.015625 C13.725815,14.015625 13.668363,12.5590886 13.157322,11.3250123 C12.7848852,10.4256413 11.920741,9.64442368 11.90625,9.63125 C11.425,9.2 10.88125,8.8546875 10.2859375,8.603125 C10.2796875,8.6 10.2734375,8.5984375 10.2671875,8.5953125 C11.2375,7.890625 11.86875,6.7453125 11.86875,5.453125 C11.86875,3.3125 10.1375,1.578125 8.0015625,1.578125 C5.865625,1.578125 4.1359375,3.3125 4.1359375,5.453125 C4.1359375,6.7453125 4.7671875,7.890625 5.7390625,8.5953125 C5.7328125,8.5984375 5.7265625,8.6 5.7203125,8.603125 C5.021875,8.8984375 4.3953125,9.321875 3.85625,9.8625 C3.3171875,10.4015625 2.8953125,11.0296875 2.6,11.7296875 C2.3109375,12.4140625 2.15625,13.140625 2.14059322,13.8875 C2.1390625,13.9578125 2.1953125,14.015625 2.265625,14.015625 L3.2015625,14.015625 C3.26875,14.015625 13.2368592,14.015625 13.6977967,14.015625 Z" id="shape" fill="#E7E8EC"></path>
                        <path d="M15.75,7.859375 L14.4375,7.859375 L14.4375,6.546875 C14.4375,6.478125 14.38125,6.421875 14.3125,6.421875 L13.4375,6.421875 C13.36875,6.421875 13.3125,6.478125 13.3125,6.546875 L13.3125,7.859375 L12,7.859375 C11.93125,7.859375 11.875,7.915625 11.875,7.984375 L11.875,8.859375 C11.875,8.928125 11.93125,8.984375 12,8.984375 L13.3125,8.984375 L13.3125,10.296875 C13.3125,10.365625 13.36875,10.421875 13.4375,10.421875 L14.3125,10.421875 C14.38125,10.421875 14.4375,10.365625 14.4375,10.296875 L14.4375,8.984375 L15.75,8.984375 C15.81875,8.984375 15.875,8.928125 15.875,8.859375 L15.875,7.984375 C15.875,7.915625 15.81875,7.859375 15.75,7.859375 Z" id="path" fill="#E7E8EC"></path>
                    </g>
                </g>
            </g>
        </g>
    </g>
</svg>