<?xml version="1.0" encoding="UTF-8"?>
<svg width="18px" height="18px" viewBox="0 0 18 18" version="1.1" xmlns="http://www.w3.org/2000/svg" xmlns:xlink="http://www.w3.org/1999/xlink">
    <title>back</title>
    <g id="list" stroke="none" stroke-width="1" fill="none" fill-rule="evenodd">
        <g id="right-side-roominfo" transform="translate(-547.000000, -80.000000)" fill-rule="nonzero">
            <g id="shape" transform="translate(525.000000, 63.000000)">
                <g id="back" transform="translate(22.000000, 17.000000)">
                    <rect id="rectangle" fill="#000000" opacity="0" x="0" y="0" width="18" height="18"></rect>
                    <path d="M9,1.125 C4.65117188,1.125 1.125,4.65117188 1.125,9 C1.125,13.3488281 4.65117188,16.875 9,16.875 C13.3488281,16.875 16.875,13.3488281 16.875,9 C16.875,4.65117188 13.3488281,1.125 9,1.125 Z M10.828125,6.69550781 C10.828125,6.87480469 10.7419922,7.0453125 10.5960937,7.15078125 L8.04023438,9 L10.5960937,10.8492188 C10.7419922,10.9546875 10.828125,11.1234375 10.828125,11.3044922 L10.828125,12.1289062 C10.828125,12.2431641 10.6980469,12.3099609 10.6048828,12.2431641 L6.28066406,9.11425781 C6.20332031,9.05800781 6.20332031,8.94375 6.28066406,8.8875 L10.6048828,5.75859375 C10.6980469,5.69179687 10.828125,5.75683594 10.828125,5.87285156 L10.828125,6.69550781 Z" id="shape1" fill="#999999"></path>
                </g>
            </g>
        </g>
    </g>
</svg>