<?xml version="1.0" encoding="UTF-8"?>
<svg width="17px" height="17px" viewBox="0 0 17 17" version="1.1" xmlns="http://www.w3.org/2000/svg" xmlns:xlink="http://www.w3.org/1999/xlink">
    <title>close-circle-fill</title>
    <g id="list" stroke="none" stroke-width="1" fill="none" fill-rule="evenodd">
        <g id="3-userpopup" transform="translate(-1165.000000, -172.000000)" fill-rule="nonzero">
            <g id="编组-8备份" transform="translate(474.000000, 140.000000)">
                <g id="close-circle-fill" transform="translate(691.000000, 32.000000)">
                    <rect id="矩形" fill="#000000" opacity="0" x="0" y="0" width="18" height="18"></rect>
                    <path d="M8.83125,0.95625 C4.48242188,0.95625 0.95625,4.48242188 0.95625,8.83125 C0.95625,13.1800781 4.48242188,16.70625 8.83125,16.70625 C13.1800781,16.70625 16.70625,13.1800781 16.70625,8.83125 C16.70625,4.48242188 13.1800781,0.95625 8.83125,0.95625 Z M11.7386719,11.8230469 L10.5785156,11.8177734 L8.83125,9.73476562 L7.08574219,11.8160156 L5.92382812,11.8212891 C5.84648437,11.8212891 5.78320312,11.7597656 5.78320312,11.6806641 C5.78320312,11.6472656 5.79550781,11.615625 5.81660156,11.5892578 L8.10351562,8.86464844 L5.81660156,6.14179687 C5.79550781,6.11542969 5.78320312,6.08378906 5.78320312,6.05039062 C5.78320312,5.97304687 5.84648437,5.90976562 5.92382812,5.90976562 L7.08574219,5.91503906 L8.83125,7.99804687 L10.5767578,5.91679687 L11.7369141,5.91152344 C11.8142578,5.91152344 11.8775391,5.97304687 11.8775391,6.05214844 C11.8775391,6.08554687 11.8652344,6.1171875 11.8441406,6.14355469 L9.56074219,8.86640625 L11.8458984,11.5910156 C11.8669922,11.6173828 11.8792969,11.6490234 11.8792969,11.6824219 C11.8792969,11.7597656 11.8160156,11.8230469 11.7386719,11.8230469 Z" id="形状" fill="#999999"></path>
                </g>
            </g>
        </g>
    </g>
</svg>