<?xml version="1.0" encoding="UTF-8"?>
<svg width="22px" height="22px" viewBox="0 0 22 22" version="1.1" xmlns="http://www.w3.org/2000/svg" xmlns:xlink="http://www.w3.org/1999/xlink">
    <title>3</title>
    <g id="avatar" stroke="none" stroke-width="1" fill="none" fill-rule="evenodd">
        <g id="input" transform="translate(-1308.000000, -937.000000)" fill-rule="nonzero">
            <g id="编组-21" transform="translate(1205.000000, 911.000000)">
                <g id="3" transform="translate(103.000000, 26.000000)">
                    <rect id="矩形" fill="#000000" opacity="0" x="0" y="0" width="22" height="22"></rect>
                    <path d="M10.2915547,1.30723566 C8.67260305,1.54009857 7.10539875,2.19802867 5.77475358,3.29581093 L8.63564068,6.15669803 C9.66319444,4.83344534 10.2361111,3.15535394 10.2915547,1.30723566 Z M11.6111111,9.13216846 L17.4474686,3.29581093 C15.8802643,2.00212814 13.9877912,1.31832437 12.0694444,1.22222222 C12.0250896,3.58411738 11.2747536,5.74271953 9.89975358,7.42081093 L11.6111111,9.13216846 Z M4.51803315,4.55253136 C3.4202509,5.88317652 2.76232079,7.45038082 2.52945789,9.06933244 C4.37757616,9.01388889 6.0593638,8.44097222 7.37892025,7.41341846 L4.51803315,4.55253136 Z M14.5791891,12.1002464 C16.2535842,10.7289427 18.4121864,9.97860663 20.7777778,9.93055556 C20.6816756,8.01220878 19.9978719,6.11973566 18.7041891,4.55253136 L12.8678315,10.3888889 L14.5791891,12.1002464 L14.5791891,12.1002464 Z M11.6111111,11.6456093 L5.77475358,17.4819668 C7.34195789,18.7719534 9.234431,19.4594534 11.1527778,19.5555556 C11.2008289,17.1899642 11.9511649,15.031362 13.3224686,13.3569668 L11.6111111,11.6456093 Z M18.7041891,16.2252464 C19.8019713,14.8946013 20.4599014,13.327397 20.6927643,11.7084453 C18.8409498,11.7675851 17.1628584,12.3405018 15.843302,13.3643593 L18.7041891,16.2252464 Z M8.64303315,8.67753136 C6.96494176,10.0525314 4.80633961,10.8065636 2.44444444,10.8472222 C2.54054659,12.765569 3.22435036,14.6580421 4.51803315,16.2252464 L10.3543907,10.3888889 L8.64303315,8.67753136 Z M12.9306676,19.4705421 C14.5496192,19.2376792 16.1168235,18.5797491 17.4474686,17.4819668 L14.5865815,14.6210797 C13.562724,15.9406362 12.9898073,17.6224238 12.9306676,19.4705421 Z" id="形状" fill="#666666"></path>
                </g>
            </g>
        </g>
    </g>
</svg>