<svg width="19" height="19" viewBox="0 0 19 19" fill="none" xmlns="http://www.w3.org/2000/svg">
<path fill-rule="evenodd" clip-rule="evenodd" d="M0.125 9.125C0.125 4.15491 4.15491 0.125 9.125 0.125C14.0951 0.125 18.125 4.15491 18.125 9.125C18.125 14.0951 14.0951 18.125 9.125 18.125C4.15491 18.125 0.125 14.0951 0.125 9.125ZM10.9493 7.01171C11.116 6.89118 11.2144 6.69631 11.2144 6.4914V5.55122C11.2144 5.41863 11.0658 5.3443 10.9593 5.42064L6.01734 8.99654C5.92895 9.06082 5.92895 9.1914 6.01734 9.25569L10.9593 12.8316C11.0658 12.9079 11.2144 12.8316 11.2144 12.701V11.7588C11.2144 11.5519 11.116 11.359 10.9493 11.2385L8.02828 9.12511L10.9493 7.01171Z" fill="#838791"/>
</svg>
