<svg width="20" height="20" viewBox="0 0 20 20" fill="none" xmlns="http://www.w3.org/2000/svg">
<path d="M18.1472 7.38676L12.7512 6.60253L10.339 1.71229C10.2731 1.5784 10.1647 1.47001 10.0308 1.40413C9.69503 1.23836 9.28698 1.3765 9.11908 1.71229L6.7069 6.60253L1.31085 7.38676C1.16208 7.40801 1.02606 7.47814 0.921923 7.58441C0.660515 7.85432 0.664766 8.28362 0.934675 8.54715L4.83879 12.3535L3.91643 17.7283C3.89092 17.875 3.9143 18.028 3.98443 18.1597C4.15871 18.4913 4.57101 18.6209 4.90255 18.4445L9.72904 15.907L14.5555 18.4445C14.6873 18.5147 14.8403 18.538 14.9869 18.5125C15.3567 18.4488 15.6054 18.0981 15.5416 17.7283L14.6193 12.3535L18.5234 8.54715C18.6297 8.44302 18.6998 8.307 18.721 8.15823C18.7784 7.78631 18.5191 7.44201 18.1472 7.38676Z" fill="black" fill-opacity="0.3" stroke="white"/>
</svg>
