<svg width="20" height="19" viewBox="0 0 20 19" fill="none" xmlns="http://www.w3.org/2000/svg">
<path d="M18.4182 7.05277L13.0222 6.26855L10.61 1.37831C10.5441 1.24441 10.4357 1.13603 10.3018 1.07014C9.96603 0.904371 9.55798 1.04251 9.39008 1.37831L6.9779 6.26855L1.58184 7.05277C1.43307 7.07403 1.29706 7.14416 1.19292 7.25042C0.931511 7.52033 0.935762 7.94964 1.20567 8.21317L5.10979 12.0195L4.18742 17.3943C4.16192 17.541 4.1853 17.694 4.25543 17.8258C4.4297 18.1573 4.842 18.2869 5.17355 18.1105L10 15.573L14.8265 18.1105C14.9583 18.1807 15.1113 18.2041 15.2579 18.1786C15.6277 18.1148 15.8764 17.7641 15.8126 17.3943L14.8903 12.0195L18.7944 8.21317C18.9007 8.10903 18.9708 7.97301 18.992 7.82424C19.0494 7.45232 18.7901 7.10803 18.4182 7.05277Z" fill="#F0C239" stroke="#F0C239"/>
</svg>