<?xml version="1.0" encoding="UTF-8"?>
<svg width="22px" height="22px" viewBox="0 0 22 22" version="1.1" xmlns="http://www.w3.org/2000/svg" xmlns:xlink="http://www.w3.org/1999/xlink">
    <title>5</title>
    <g id="avatar" stroke="none" stroke-width="1" fill="none" fill-rule="evenodd">
        <g id="input" transform="translate(-1391.000000, -937.000000)" fill-rule="nonzero">
            <g id="编组-21" transform="translate(1205.000000, 911.000000)">
                <g id="5" transform="translate(186.000000, 26.000000)">
                    <rect id="矩形" fill="#000000" opacity="0" x="0" y="0" width="22" height="22"></rect>
                    <path d="M15.4936709,5.19103962 C16.5387198,5.37896331 17.3958449,5.94233195 18.0658512,6.88114555 C18.6553762,7.71291911 19.05738,8.75917515 19.2714601,10.0199137 C19.4593838,11.1736122 19.4452996,12.3269083 19.2312195,13.4806068 C18.9096969,15.3851952 18.2666519,16.9815405 17.3020843,18.2692402 C16.149593,19.8253449 14.7029428,20.603196 12.9613289,20.603196 C12.5323639,20.603196 12.0639631,20.4691948 11.5545169,20.2007899 C11.2060332,19.9863074 10.8177112,19.8788649 10.3887462,19.8788649 C9.95978127,19.8788649 9.57186172,19.9863074 9.22297557,20.2007899 C8.71352935,20.4691948 8.24512857,20.603196 7.81616359,20.603196 C6.07454967,20.603196 4.62789948,19.8253449 3.47540821,18.2692402 C2.51084061,16.9815405 1.86779555,15.3851952 1.54627302,13.4806068 C1.33219293,12.3269083 1.31810872,11.1736122 1.5060324,10.0199137 C1.72011248,8.75917515 2.12211625,7.71291911 2.71164129,6.88114555 C3.38164757,5.94233195 4.23877272,5.37896331 5.28382154,5.19103962 C5.92686661,5.08359718 6.81095297,5.17776022 7.93648303,5.47272394 C8.90105063,5.74112886 9.71833756,6.0630538 10.3883438,6.43849876 C11.0583501,6.0630538 11.8756371,5.74112886 12.8402046,5.47272394 C13.9661371,5.17776022 14.8506259,5.08359718 15.4936709,5.19103962 L15.4936709,5.19103962 Z M13.2828514,3.54117432 C12.9078089,3.89006047 12.4116421,4.14478358 11.7955582,4.30574604 C11.3665932,4.4397473 10.8981925,4.50694913 10.3887462,4.50694913 L9.7859418,4.46670851 C9.73242178,4.09126355 9.73242178,3.66189617 9.7859418,3.17900876 C9.89338425,2.21323395 10.201225,1.47562343 10.7102688,0.965774814 C11.0853113,0.616888662 11.5814781,0.362165555 12.197562,0.201203086 C12.626527,0.0672018308 13.0949278,1.10726243e-13 13.604374,1.10726243e-13 L14.2071784,0.0402406172 L14.247419,0.643849876 C14.247419,1.1536985 14.1802172,1.62290409 14.0466184,2.05227148 C13.8860583,2.66916014 13.6317376,3.16572936 13.2828514,3.54117432 L13.2828514,3.54117432 Z" id="形状" fill="#666666"></path>
                </g>
            </g>
        </g>
    </g>
</svg>