<?xml version="1.0" encoding="UTF-8"?>
<svg width="22px" height="22px" viewBox="0 0 22 22" version="1.1" xmlns="http://www.w3.org/2000/svg" xmlns:xlink="http://www.w3.org/1999/xlink">
    <title>4</title>
    <g id="avatar" stroke="none" stroke-width="1" fill="none" fill-rule="evenodd">
        <g id="input" transform="translate(-1350.000000, -937.000000)" fill-rule="nonzero">
            <g id="编组-21" transform="translate(1205.000000, 911.000000)">
                <g id="4" transform="translate(145.000000, 26.000000)">
                    <rect id="矩形" fill="#000000" opacity="0" x="0" y="0" width="22" height="22"></rect>
                    <path d="M20.1666667,3.66661241 L17.7222222,3.66661241 L17.44875,3.12004991 C17.2417345,2.7059887 16.8185527,2.44442039 16.355625,2.44439019 L14.3076389,2.44439019 L13.2656944,1.40244574 C12.8803125,1.01744574 12.2222222,1.29015408 12.2222222,1.83442491 L12.2222222,7.55748046 L17.1111111,9.30334852 L17.1111111,7.94439019 L18.3333333,7.94439019 C19.6835069,7.94439019 20.7777778,6.85011935 20.7777778,5.49994574 L20.7777778,4.27772352 C20.7777778,3.94008463 20.5043056,3.66661241 20.1666667,3.66661241 Z M15.8888889,5.49994574 C15.55125,5.49994574 15.2777778,5.22647352 15.2777778,4.88883463 C15.2777778,4.55119574 15.55125,4.27772352 15.8888889,4.27772352 C16.2265278,4.27772352 16.5,4.55119574 16.5,4.88883463 C16.5,5.22647352 16.2265278,5.49994574 15.8888889,5.49994574 Z M4.88888889,8.5555013 C4.21513889,8.5555013 3.66666667,8.00702908 3.66666667,7.33327908 C3.66666667,6.65838324 3.11934028,6.11105685 2.44444444,6.11105685 C1.76954861,6.11105685 1.22222222,6.65838324 1.22222222,7.33327908 C1.22222222,8.92445963 2.24697917,10.2685221 3.66666667,10.7745985 L3.66666667,18.9443902 C3.66666667,19.2820291 3.94013889,19.5555013 4.27777778,19.5555013 L6.72222222,19.5555013 C7.05986111,19.5555013 7.33333333,19.2820291 7.33333333,18.9443902 L7.33333333,14.6666124 L13.4444444,14.6666124 L13.4444444,18.9443902 C13.4444444,19.2820291 13.7179167,19.5555013 14.0555556,19.5555013 L16.5,19.5555013 C16.8376389,19.5555013 17.1111111,19.2820291 17.1111111,18.9443902 L17.1111111,10.6008138 L11.3838542,8.5555013 L4.88888889,8.5555013 Z" id="形状" fill="#666666"></path>
                </g>
            </g>
        </g>
    </g>
</svg>