<?xml version="1.0" encoding="UTF-8"?>
<svg width="22px" height="22px" viewBox="0 0 22 22" version="1.1" xmlns="http://www.w3.org/2000/svg" xmlns:xlink="http://www.w3.org/1999/xlink">
    <title>2</title>
    <g id="avatar" stroke="none" stroke-width="1" fill="none" fill-rule="evenodd">
        <g id="input" transform="translate(-1267.000000, -937.000000)" fill-rule="nonzero">
            <g id="编组-21" transform="translate(1205.000000, 911.000000)">
                <g id="2" transform="translate(62.000000, 26.000000)">
                    <rect id="矩形" fill="#000000" opacity="0" x="0" y="0" width="22" height="22"></rect>
                    <path d="M11,1.375 C5.68476563,1.375 1.375,5.68476563 1.375,11 C1.375,16.3152344 5.68476563,20.625 11,20.625 C16.3152344,20.625 20.625,16.3152344 20.625,11 C20.625,5.68476563 16.3152344,1.375 11,1.375 Z M6.1875,9.04492188 C6.1875,8.47558594 6.64941406,8.01367188 7.21875,8.01367188 C7.78808594,8.01367188 8.25,8.47558594 8.25,9.04492188 C8.25,9.61425781 7.78808594,10.0761719 7.21875,10.0761719 C6.64941406,10.0761719 6.1875,9.61425781 6.1875,9.04492188 Z M11,14.8886719 C9.16308594,14.8886719 7.65703125,13.4427734 7.5625,11.6316406 C7.55820312,11.5328125 7.63554687,11.4511719 7.734375,11.4511719 L8.76777344,11.4511719 C8.85800781,11.4511719 8.93535156,11.5199219 8.94179687,11.6101562 C9.0234375,12.6736328 9.91503906,13.5136719 11,13.5136719 C12.0849609,13.5136719 12.9787109,12.6736328 13.0582031,11.6101562 C13.0646484,11.5199219 13.1419922,11.4511719 13.2322266,11.4511719 L14.265625,11.4511719 C14.3644531,11.4511719 14.4417969,11.5328125 14.4375,11.6316406 C14.3429687,13.4427734 12.8369141,14.8886719 11,14.8886719 Z M14.78125,10.0761719 C14.2119141,10.0761719 13.75,9.61425781 13.75,9.04492188 C13.75,8.47558594 14.2119141,8.01367188 14.78125,8.01367188 C15.3505859,8.01367188 15.8125,8.47558594 15.8125,9.04492188 C15.8125,9.61425781 15.3505859,10.0761719 14.78125,10.0761719 Z" id="形状" fill="#FC774B"></path>
                </g>
            </g>
        </g>
    </g>
</svg>