<?xml version="1.0" encoding="UTF-8"?>
<svg width="22px" height="22px" viewBox="0 0 22 22" version="1.1" xmlns="http://www.w3.org/2000/svg" xmlns:xlink="http://www.w3.org/1999/xlink">
    <title>6</title>
    <g id="avatar" stroke="none" stroke-width="1" fill="none" fill-rule="evenodd">
        <g id="input" transform="translate(-1433.000000, -937.000000)" fill-rule="nonzero">
            <g id="编组-21" transform="translate(1205.000000, 911.000000)">
                <g id="6" transform="translate(228.000000, 26.000000)">
                    <rect id="矩形" fill="#000000" opacity="0" x="0" y="0" width="22" height="22"></rect>
                    <path d="M21.8243725,9.2571439 L21.2828665,8.31122207 C21.2326002,8.22439832 21.1206432,8.19469546 21.0338195,8.24496184 L19.875408,8.9212731 L18.0863819,3.98145908 C17.8921709,3.37597771 17.3301014,2.96699219 16.6949172,2.96699219 L6.79472559,2.96699219 C6.00188772,2.96699219 5.29815844,3.47879531 5.05368105,4.23507581 L3.34919388,8.92355794 L2.18849753,8.24724668 C2.10167378,8.1969803 1.98971685,8.22668316 1.93945047,8.3135069 L1.3979445,9.2571439 C1.34767812,9.34396764 1.37738098,9.45363974 1.46420472,9.50390612 L2.84424527,10.3081682 L2.51294415,11.2221023 C2.48552612,11.295217 2.47181711,11.3729014 2.47181711,11.4505858 L2.47181711,19.4063825 C2.47181711,19.7651017 2.74142768,20.0552758 3.07272881,20.0552758 L4.6172775,20.0552758 C4.89831225,20.0552758 5.14278963,19.8427861 5.20219535,19.5457575 L5.37812767,18.6843745 L17.8441893,18.6843745 L18.0201217,19.5457575 C18.0818122,19.8427861 18.3240048,20.0552758 18.6050395,20.0552758 L20.1495882,20.0552758 C20.4808893,20.0552758 20.7504999,19.7651017 20.7504999,19.4063825 L20.7504999,11.4505858 C20.7504999,11.3729014 20.7367909,11.295217 20.7093729,11.2221023 L20.3780717,10.3081682 L21.7558274,9.50390612 C21.8426512,9.45363974 21.872354,9.34396764 21.8243725,9.2571439 Z M5.94476684,14.0004621 C5.43981823,14.0004621 5.0308327,13.5914766 5.0308327,13.0865279 C5.0308327,12.5815793 5.43981823,12.1725938 5.94476684,12.1725938 C6.44971545,12.1725938 6.85870098,12.5815793 6.85870098,13.0865279 C6.85870098,13.5914766 6.44971545,14.0004621 5.94476684,14.0004621 Z M14.809928,15.7140886 C14.809928,15.8146213 14.7276739,15.8968754 14.6271412,15.8968754 L8.59517584,15.8968754 C8.49464309,15.8968754 8.41238901,15.8146213 8.41238901,15.7140886 L8.41238901,13.7948269 C8.41238901,13.6942941 8.49464309,13.6120401 8.59517584,13.6120401 L9.50910998,13.6120401 C9.60964274,13.6120401 9.69189681,13.6942941 9.69189681,13.7948269 L9.69189681,14.6173676 L13.5304202,14.6173676 L13.5304202,13.7948269 C13.5304202,13.6942941 13.6126743,13.6120401 13.713207,13.6120401 L14.6271412,13.6120401 C14.7276739,13.6120401 14.809928,13.6942941 14.809928,13.7948269 L14.809928,15.7140886 Z M17.2775502,14.0004621 C16.7726016,14.0004621 16.363616,13.5914766 16.363616,13.0865279 C16.363616,12.5815793 16.7726016,12.1725938 17.2775502,12.1725938 C17.7824988,12.1725938 18.1914843,12.5815793 18.1914843,13.0865279 C18.1914843,13.5914766 17.7824988,14.0004621 17.2775502,14.0004621 Z M4.93943929,9.36224633 L6.60051458,4.79486047 L6.61193876,4.76515761 L6.6210781,4.73545475 C6.64621129,4.66005518 6.71475635,4.6097888 6.79472559,4.6097888 L16.5646815,4.6097888 L18.2874474,9.36224633 L4.93943929,9.36224633 Z" id="形状" fill="#666666"></path>
                </g>
            </g>
        </g>
    </g>
</svg>