<?xml version="1.0" encoding="UTF-8"?>
<svg width="22px" height="22px" viewBox="0 0 22 22" version="1.1" xmlns="http://www.w3.org/2000/svg" xmlns:xlink="http://www.w3.org/1999/xlink">
    <title>1</title>
    <g id="avatar" stroke="none" stroke-width="1" fill="none" fill-rule="evenodd">
        <g id="input" transform="translate(-1225.000000, -937.000000)" fill-rule="nonzero">
            <g id="编组-21" transform="translate(1205.000000, 911.000000)">
                <g id="1" transform="translate(20.000000, 26.000000)">
                    <rect id="矩形" fill="#000000" opacity="0" x="0" y="0" width="22" height="22"></rect>
                    <path d="M11,1.375 C5.68476563,1.375 1.375,5.68476563 1.375,11 C1.375,16.3152344 5.68476563,20.625 11,20.625 C16.3152344,20.625 20.625,16.3152344 20.625,11 C20.625,5.68476563 16.3152344,1.375 11,1.375 Z M14.7919922,13.9583984 L14.1775391,14.7962891 C14.1216797,14.8736328 14.0142578,14.8886719 13.9369141,14.8328125 L10.3833984,12.2417969 C10.3382812,12.2095703 10.3125,12.1580078 10.3125,12.1021484 L10.3125,6.1875 C10.3125,6.09296875 10.3898438,6.015625 10.484375,6.015625 L11.5177734,6.015625 C11.6123047,6.015625 11.6896484,6.09296875 11.6896484,6.1875 L11.6896484,11.5048828 L14.7533203,13.7199219 C14.8306641,13.7736328 14.8478516,13.8810547 14.7919922,13.9583984 Z" id="形状" fill="#666666"></path>
                </g>
            </g>
        </g>
    </g>
</svg>