<?xml version="1.0" encoding="UTF-8"?>
<svg width="22px" height="22px" viewBox="0 0 22 22" version="1.1" xmlns="http://www.w3.org/2000/svg" xmlns:xlink="http://www.w3.org/1999/xlink">
    <title>7</title>
    <g id="avatar" stroke="none" stroke-width="1" fill="none" fill-rule="evenodd">
        <g id="input" transform="translate(-1474.000000, -937.000000)" fill-rule="nonzero">
            <g id="编组-21" transform="translate(1205.000000, 911.000000)">
                <g id="7" transform="translate(269.000000, 26.000000)">
                    <rect id="矩形" fill="#000000" opacity="0" x="0" y="0" width="22" height="22"></rect>
                    <path d="M7.19703806,12.4144744 L16.8468359,2.76467652 C17.2519492,2.35956327 17.6570624,2.35956327 18.0621757,2.76467652 L18.0621757,2.76467652 C18.467289,3.16978977 18.467289,3.57490303 18.0621757,3.9800163 L8.41237784,13.6298142 C8.00726459,14.0349274 7.60215133,14.0349274 7.19703806,13.6298142 L7.19703806,13.6298142 C6.79192481,13.2247009 6.79192481,12.8195876 7.19703806,12.4144744 Z M7.70763908,3.22743057 L11.7180557,3.22743057 C12.2909724,3.22743057 12.5774307,3.5138889 12.5774307,4.08680557 L12.5774307,4.08680557 C12.5774307,4.65972223 12.2909724,4.94618057 11.7180557,4.94618057 L7.70763908,4.94618057 C7.13472242,4.94618057 6.84826408,4.65972223 6.84826408,4.08680557 L6.84826408,4.08680557 C6.84826408,3.5138889 7.13472242,3.22743057 7.70763908,3.22743057 Z M8.85347242,6.0920139 L8.85347242,2.08159723 C8.85347242,1.50868057 9.13993075,1.22222223 9.71284742,1.22222223 L9.71284742,1.22222223 C10.2857641,1.22222223 10.5722224,1.50868057 10.5722224,2.08159723 L10.5722224,6.0920139 C10.5722224,6.66493057 10.2857641,6.9513889 9.71284742,6.9513889 L9.71284742,6.9513889 C9.13993075,6.9513889 8.85347242,6.66493057 8.85347242,6.0920139 Z M14.6857641,10.2055556 L18.6961807,10.2055556 C19.2690974,10.2055556 19.5555557,10.4920139 19.5555557,11.0649306 L19.5555557,11.0649306 C19.5555557,11.6378472 19.2690974,11.9243056 18.6961807,11.9243056 L14.6857641,11.9243056 C14.1128474,11.9243056 13.8263891,11.6378472 13.8263891,11.0649306 L13.8263891,11.0649306 C13.8263891,10.4920139 14.1128474,10.2055556 14.6857641,10.2055556 Z M18.5930557,14.6628472 C18.0551534,14.6628472 17.6190974,15.0989032 17.6190974,15.6368056 L17.6190974,17.6190972 L3.15868075,17.6190972 L3.15868075,3.15868057 L3.99513908,3.15868057 C4.53045678,3.15249131 4.96290815,2.72003993 4.96909742,2.18472223 C4.96913477,1.65759096 4.54514967,1.22849761 4.01805575,1.22222223 L2.18472242,1.22222223 C1.65573255,1.22840988 1.22841006,1.65573237 1.22222223,2.18472223 L1.22222223,18.5930556 C1.22222223,18.8479281 1.32545485,19.0919297 1.50868075,19.2690972 C1.68584825,19.4523231 1.92984984,19.5555557 2.18472242,19.5555557 L18.5930557,19.5555557 C19.1220456,19.5493679 19.5493681,19.1220454 19.5555557,18.5930556 L19.5555557,15.6368056 C19.5555557,15.1033464 19.126478,14.6691232 18.5930557,14.6628472 L18.5930557,14.6628472 Z" id="形状" fill="#666666"></path>
                </g>
            </g>
        </g>
    </g>
</svg>