<svg width="28" height="28" viewBox="0 0 28 28" fill="none" xmlns="http://www.w3.org/2000/svg">
<circle opacity="0.4" cx="14" cy="14" r="13.5" stroke="white"/>
<path fill-rule="evenodd" clip-rule="evenodd" d="M12.0245 19.5141C12.2637 19.5141 12.4593 19.3184 12.4593 19.0792V9.49346C12.4593 9.25428 12.2637 9.05859 12.0245 9.05859H10.3167C10.0775 9.05859 9.88184 9.25428 9.88184 9.49346V19.0792C9.88184 19.3184 10.0775 19.5141 10.3167 19.5141H12.0245ZM16.9946 19.5141C17.2338 19.5141 17.4295 19.3184 17.4295 19.0792V9.49346C17.4295 9.25428 17.2338 9.05859 16.9946 9.05859H15.2868C15.0477 9.05859 14.852 9.25428 14.852 9.49346V19.0792C14.852 19.3184 15.0477 19.5141 15.2868 19.5141H16.9946Z" fill="white"/>
</svg>
