<svg width="20" height="20" viewBox="0 0 20 20" fill="none" xmlns="http://www.w3.org/2000/svg">
<path fill-rule="evenodd" clip-rule="evenodd" d="M8.88889 3.61111C8.88889 2.99746 9.38635 2.5 10 2.5C10.6137 2.5 11.1111 2.99746 11.1111 3.61111V8.05556C11.1111 8.66921 10.6137 9.16667 10 9.16667C9.38635 9.16667 8.88889 8.66921 8.88889 8.05556V3.61111ZM5.55556 6.38889C4.94191 6.38889 4.44444 6.88635 4.44444 7.5V13.0556C4.44444 13.6692 4.94191 14.1667 5.55556 14.1667C6.16921 14.1667 6.66667 13.6692 6.66667 13.0556V7.5C6.66667 6.88635 6.16921 6.38889 5.55556 6.38889ZM14.4444 6.38889C13.8308 6.38889 13.3333 6.88635 13.3333 7.5V13.0556C13.3333 13.6692 13.8308 14.1667 14.4444 14.1667C15.0581 14.1667 15.5556 13.6692 15.5556 13.0556V7.5C15.5556 6.88635 15.0581 6.38889 14.4444 6.38889ZM17.7778 9.16667C17.7778 8.55302 18.2752 8.05556 18.8889 8.05556C19.5025 8.05556 20 8.55302 20 9.16667V11.3889C20 12.0025 19.5025 12.5 18.8889 12.5C18.2752 12.5 17.7778 12.0025 17.7778 11.3889V9.16667ZM1.11111 8.05556C0.497462 8.05556 0 8.55302 0 9.16667V11.3889C0 12.0025 0.497462 12.5 1.11111 12.5C1.72476 12.5 2.22222 12.0025 2.22222 11.3889V9.16667C2.22222 8.55302 1.72476 8.05556 1.11111 8.05556ZM10 11.3889C9.38635 11.3889 8.88889 11.8863 8.88889 12.5V16.9444C8.88889 17.5581 9.38635 18.0556 10 18.0556C10.6137 18.0556 11.1111 17.5581 11.1111 16.9444V12.5C11.1111 11.8864 10.6137 11.3889 10 11.3889Z" fill="white"/>
</svg>
