<svg width="16" height="16" viewBox="0 0 16 16" fill="none" xmlns="http://www.w3.org/2000/svg">
<path d="M1.33337 6.6535V6.00016C1.33337 2.66683 2.66671 1.3335 6.00004 1.3335H10C13.3334 1.3335 14.6667 2.66683 14.6667 6.00016V10.0002C14.6667 13.3335 13.3334 14.6668 10 14.6668H9.33337" stroke="#9A9A9A" stroke-linecap="round" stroke-linejoin="round"/>
<path d="M8.66663 7.33348L12.0066 3.98682H9.33329" stroke="#9A9A9A" stroke-linecap="round" stroke-linejoin="round"/>
<path d="M12.0067 3.98682V6.66015" stroke="#9A9A9A" stroke-linecap="round" stroke-linejoin="round"/>
<path d="M7.33337 12.5665C7.33337 14.0665 6.73337 14.6665 5.23337 14.6665H3.43337C1.93337 14.6665 1.33337 14.0665 1.33337 12.5665V10.7665C1.33337 9.2665 1.93337 8.6665 3.43337 8.6665H5.23337C6.73337 8.6665 7.33337 9.2665 7.33337 10.7665V12.5665Z" stroke="#9A9A9A" stroke-linecap="round" stroke-linejoin="round"/>
</svg>
