<svg width="24" height="24" viewBox="0 0 24 24" fill="none" xmlns="http://www.w3.org/2000/svg">
<path fill-rule="evenodd" clip-rule="evenodd" d="M7.96039 19.6402L16.2504 14.8602C17.2804 14.2602 17.9004 13.1902 17.9004 12.0002C17.9004 10.8102 17.2804 9.74019 16.2504 9.14019L7.96039 4.36016C6.93039 3.76016 5.7004 3.76016 4.6604 4.36016C3.6204 4.96016 3.01041 6.02017 3.01041 7.22017V16.7902C3.01041 17.9802 3.6304 19.0502 4.6604 19.6502C5.1804 19.9402 5.74039 20.0902 6.31039 20.0902C6.88039 20.0902 7.44039 19.9402 7.96039 19.6402ZM7.21039 5.65016L15.5004 10.4302C16.0604 10.7602 16.4004 11.3402 16.4004 11.9902C16.4004 12.6402 16.0604 13.2202 15.5004 13.5502L7.21039 18.3302C6.65039 18.6602 5.9704 18.6602 5.4104 18.3302C4.8504 18.0002 4.51041 17.4202 4.51041 16.7702V7.20018C4.51041 6.55018 4.8504 5.97019 5.4104 5.64019C5.6904 5.50019 6.00039 5.41017 6.31039 5.41017C6.62039 5.41017 6.93039 5.49016 7.21039 5.65016Z" fill="#C2C2C2"/>
<path d="M20.9902 18.1798V5.81982C20.9902 5.40982 20.6502 5.06982 20.2402 5.06982C19.8302 5.06982 19.4902 5.40982 19.4902 5.81982V18.1798C19.4902 18.5898 19.8302 18.9298 20.2402 18.9298C20.6502 18.9298 20.9902 18.5898 20.9902 18.1798Z" fill="#C2C2C2"/>
</svg>
