<svg width="24" height="24" viewBox="0 0 24 24" fill="none" xmlns="http://www.w3.org/2000/svg">
    <g opacity="0.6">
        <path d="M15 22C20 22 22 20 22 15V9C22 4 20 2 15 2H9C4 2 2 4 2 9V15C2 20 4 22 9 22H15Z" stroke="white"
            stroke-linecap="round" stroke-linejoin="round" />
    </g>
    <path fill-rule="evenodd" clip-rule="evenodd"
        d="M10.9541 17C11.0606 17 11.1478 16.8273 11.1478 16.6162V8.15602C11.1478 7.94492 11.0606 7.77222 10.9541 7.77222H10.1936C10.0871 7.77222 10 7.94492 10 8.15602V16.6162C10 16.8273 10.0871 17 10.1936 17H10.9541ZM13.8064 17C13.9129 17 14 16.8273 14 16.6162V8.15602C14 7.94492 13.9129 7.77222 13.8064 7.77222H13.0459C12.9394 7.77222 12.8522 7.94492 12.8522 8.15602V16.6162C12.8522 16.8273 12.9394 17 13.0459 17H13.8064Z"
        fill="white" />
</svg>