<svg width="32" height="32" viewBox="0 0 32 32" fill="none" xmlns="http://www.w3.org/2000/svg">
<path fill-rule="evenodd" clip-rule="evenodd" d="M1.62744 15.9998C1.62744 8.09317 8.06744 1.6665 15.9608 1.6665C23.8541 1.6665 30.2941 8.09317 30.2941 15.9998C30.2941 23.9065 23.8674 30.3332 15.9608 30.3332C8.06744 30.3332 1.62744 23.9065 1.62744 15.9998ZM3.62744 15.9998C3.62744 22.7998 9.16078 28.3332 15.9608 28.3332C22.7608 28.3332 28.2941 22.7998 28.2941 15.9998C28.2941 9.19984 22.7608 3.6665 15.9608 3.6665C9.16078 3.6665 3.62744 9.19984 3.62744 15.9998Z" fill="#C2C2C2"/>
<path fill-rule="evenodd" clip-rule="evenodd" d="M12.4405 22.2267C11.2938 21.56 10.6538 20.2533 10.6538 18.5467V14.08C10.6538 12.3733 11.2805 11.0667 12.4271 10.4C13.5738 9.73332 15.0271 9.83999 16.5071 10.6933L20.3738 12.92C21.8538 13.7733 22.6671 14.9733 22.6671 16.3067C22.6671 17.6267 21.8538 18.84 20.3738 19.6933L16.5071 21.92C15.6805 22.4133 14.8405 22.6533 14.0805 22.6533C13.4938 22.6533 12.9338 22.5067 12.4405 22.2267ZM13.4405 12.12C12.9338 12.4133 12.6538 13.12 12.6538 14.08V18.5467C12.6538 19.4933 12.9338 20.2133 13.4405 20.4933C13.9338 20.7867 14.6938 20.6667 15.5205 20.2L19.3871 17.9733C20.2138 17.4933 20.6805 16.8933 20.6805 16.32C20.6805 15.7467 20.2005 15.1467 19.3871 14.6667L15.5205 12.44C14.9871 12.12 14.4938 11.96 14.0805 11.96C13.8405 11.96 13.6138 12.0133 13.4405 12.12Z" fill="#C2C2C2"/>
</svg>
