<svg width="18" height="18" viewBox="0 0 18 18" fill="none" xmlns="http://www.w3.org/2000/svg">
<path d="M1 7.985V7.25C1 3.5 2.5 2 6.25 2H10.75C14.5 2 16 3.5 16 7.25V11.75C16 15.5 14.5 17 10.75 17H10" stroke="#9A9A9A" stroke-width="1.5" stroke-linecap="round" stroke-linejoin="round"/>
<path d="M12.5076 4.99965L8.75007 8.76465H11.7576" stroke="#9A9A9A" stroke-width="1.5" stroke-linecap="round" stroke-linejoin="round"/>
<path d="M8.75 8.76465V5.75715" stroke="#9A9A9A" stroke-width="1.5" stroke-linecap="round" stroke-linejoin="round"/>
<path d="M0.75 12.6125C0.75 10.925 1.425 10.25 3.1125 10.25H5.1375C6.825 10.25 7.5 10.925 7.5 12.6125V14.6375C7.5 16.325 6.825 17 5.1375 17H3.1125C1.425 17 0.75 16.325 0.75 14.6375V12.6125Z" stroke="#9A9A9A" stroke-width="1.5" stroke-linecap="round" stroke-linejoin="round"/>
</svg>
