<svg xmlns="http://www.w3.org/2000/svg" width="19" height="18" viewBox="0 0 19 18" fill="none">
  <rect opacity="0.01" x="0.25" width="18" height="18" fill="black"/>
  <path fill-rule="evenodd" clip-rule="evenodd" d="M5.25 1C3.04086 1 1.25 2.79086 1.25 5V13C1.25 15.2091 3.04086 17 5.25 17H13.25C15.4591 17 17.25 15.2091 17.25 13V5C17.25 2.79086 15.4591 1 13.25 1H5.25ZM13.0684 6.13625C13.332 5.87265 13.332 5.44526 13.0684 5.18166C12.8048 4.91805 12.3774 4.91805 12.1138 5.18166L9.24992 8.04552L6.38614 5.18174C6.12254 4.91813 5.69515 4.91813 5.43155 5.18174C5.16794 5.44534 5.16794 5.87273 5.43155 6.13633L8.29533 9.00011L5.43162 11.8638C5.16802 12.1274 5.16802 12.5548 5.43162 12.8184C5.69523 13.082 6.12261 13.082 6.38622 12.8184L9.24992 9.95471L12.1137 12.8185C12.3773 13.0821 12.8047 13.0821 13.0683 12.8185C13.3319 12.5549 13.3319 12.1275 13.0683 11.8639L10.2045 9.00011L13.0684 6.13625Z" fill="#FF543D"/>
</svg>