<svg width="18" height="18" viewBox="0 0 18 18" fill="none" xmlns="http://www.w3.org/2000/svg">
<path d="M12.0378 1.12638C12.216 1.20321 12.3781 1.31289 12.5153 1.44961L16.5496 5.46576C16.7263 5.64174 16.8572 5.85786 16.9312 6.09545C17.0051 6.33304 17.0197 6.58496 16.9738 6.82944C16.9279 7.07392 16.8229 7.30361 16.6677 7.49867C16.5126 7.69372 16.312 7.84828 16.0833 7.94898L14.6539 8.5786L11.9721 11.2487L11.7595 14.1859C11.7383 14.4787 11.6328 14.7594 11.4558 14.9943C11.2787 15.2293 11.0375 15.4087 10.7608 15.5112C10.4842 15.6137 10.1837 15.635 9.89522 15.5725C9.60674 15.5099 9.34241 15.3663 9.13368 15.1586L6.52943 12.5662L2.09161 17L1 15.919L5.44038 11.4826L2.74627 8.80123C2.53789 8.59381 2.39375 8.33127 2.33096 8.04479C2.26817 7.75831 2.28936 7.45992 2.39203 7.18507C2.4947 6.91021 2.67452 6.67043 2.91015 6.4942C3.14578 6.31797 3.42732 6.21269 3.72133 6.19086L6.75894 5.96516L9.39298 3.34254L10.0117 1.92297C10.0921 1.73835 10.2083 1.57128 10.3537 1.43133C10.499 1.29137 10.6707 1.18126 10.8588 1.10729C11.047 1.03331 11.2479 0.996927 11.4502 1.0002C11.6525 1.00348 11.8522 1.04635 12.0378 1.12638ZM11.4252 2.53216L10.69 4.21879L7.44492 7.45111L3.83531 7.71818L10.2232 14.0756L10.4769 10.5696L13.7671 7.29333L15.46 6.5478L11.4252 2.53216Z" fill="#848790"/>
</svg>
