<svg width="16" height="16" viewBox="0 0 16 16" fill="none" xmlns="http://www.w3.org/2000/svg">
<path d="M1.38867 6.61993V5.97746C1.38867 2.69958 2.69982 1.38843 5.97771 1.38843H9.91116C13.189 1.38843 14.5002 2.69958 14.5002 5.97746V9.91092C14.5002 13.1888 13.189 14.5 9.91116 14.5H9.25559" stroke="#848790" stroke-linecap="round" stroke-linejoin="round"/>
<path d="M11.4475 4.01064L8.16307 7.30164H10.7919" stroke="#848790" stroke-linecap="round" stroke-linejoin="round"/>
<path d="M8.16284 7.30164V4.67277" stroke="#848790" stroke-linecap="round" stroke-linejoin="round"/>
<path d="M1.17012 10.6648C1.17012 9.18971 1.76014 8.59969 3.23519 8.59969H5.00525C6.48029 8.59969 7.07031 9.18971 7.07031 10.6648V12.4348C7.07031 13.9099 6.48029 14.4999 5.00525 14.4999H3.23519C1.76014 14.4999 1.17012 13.9099 1.17012 12.4348V10.6648Z" stroke="#848790" stroke-linecap="round" stroke-linejoin="round"/>
</svg>
