<svg width="16" height="16" viewBox="0 0 16 16" fill="none" xmlns="http://www.w3.org/2000/svg">
<path d="M9.81995 10.3169C9.81995 11.9129 9.18295 12.5499 7.58695 12.5499H5.68295C4.09395 12.5499 3.44995 11.9129 3.44995 10.3169V8.40593C3.44995 6.81693 4.08695 6.17993 5.68295 6.17993H7.59395C9.18295 6.17993 9.81995 6.81693 9.81995 8.40593V10.3169Z" stroke="#848790" stroke-linecap="round" stroke-linejoin="round"/>
<path d="M12.5499 7.58707C12.5499 9.18307 11.9129 9.82007 10.3169 9.82007H9.81993V8.40607C9.81993 6.81707 9.18293 6.18007 7.58693 6.18007H6.17993V5.67607C6.17993 4.08007 6.81693 3.45007 8.41293 3.45007H10.3239C11.9129 3.45007 12.5499 4.08707 12.5499 5.67607V7.58707Z" stroke="#848790" stroke-linecap="round" stroke-linejoin="round"/>
<path d="M14.9999 10.1C14.9999 12.809 12.8089 15 10.0999 15L10.8349 13.775" stroke="#848790" stroke-linecap="round" stroke-linejoin="round"/>
<path d="M1 5.9C1 3.191 3.191 1 5.9 1L5.165 2.225" stroke="#848790" stroke-linecap="round" stroke-linejoin="round"/>
</svg>
