<svg width="16" height="16" viewBox="0 0 16 16" fill="none" xmlns="http://www.w3.org/2000/svg">
<g clip-path="url(#clip0_727_806)">
<path fill-rule="evenodd" clip-rule="evenodd" d="M11.6515 2.61969C11.3587 2.3268 10.8838 2.3268 10.5909 2.61969L2.71967 10.4909C2.42678 10.7838 2.42678 11.2587 2.71967 11.5516C3.01256 11.8445 3.48744 11.8445 3.78033 11.5516L11.6515 3.68035C11.9444 3.38746 11.9444 2.91259 11.6515 2.61969ZM12.9239 7.66305C12.631 7.37016 12.1562 7.37016 11.8633 7.66305L7.18559 12.3407C6.8927 12.6336 6.8927 13.1085 7.18559 13.4014C7.47848 13.6943 7.95336 13.6943 8.24625 13.4014L12.9239 8.72371C13.2168 8.43082 13.2168 7.95595 12.9239 7.66305Z" fill="#D9D9D9"/>
</g>
<defs>
<clipPath id="clip0_727_806">
<rect width="16" height="16" fill="white"/>
</clipPath>
</defs>
</svg>
