<?xml version="1.0" encoding="UTF-8"?>
<svg width="16px" height="16px" viewBox="0 0 16 16" version="1.1" xmlns="http://www.w3.org/2000/svg" xmlns:xlink="http://www.w3.org/1999/xlink">
    <title>backup</title>
    <g id="backup" stroke="none" stroke-width="1" fill="none" fill-rule="evenodd">
        <g id="group">
            <polygon id="Fill-1" points="0 15.99968 16 15.99968 16 0 0 0"></polygon>
            <g transform="translate(1.919936, 0.319824)" fill="#999999" id="Fill">
                <path d="M8.736096,2.879984 C8.960096,2.591984 9.344096,2.527664 9.632096,2.751984 C11.232096,3.903664 12.160096,5.727664 12.160096,7.679984 C12.160096,10.559984 10.144096,12.959984 7.456096,13.599984 L7.456096,13.599984 L8.128096,14.271984 C8.384096,14.527664 8.384096,14.911984 8.128096,15.167664 C8.000096,15.295984 7.840096,15.359984 7.680096,15.359984 C7.520096,15.359984 7.360096,15.295984 7.232096,15.167664 L7.232096,15.167664 L5.632096,13.567664 C5.472096,13.375984 5.408096,13.087664 5.504096,12.863664 C5.600096,12.639984 5.824096,12.479984 6.080096,12.479984 C8.736096,12.479984 10.880096,10.335984 10.880096,7.679984 C10.880096,6.143664 10.144096,4.671984 8.864096,3.775984 C8.608096,3.551984 8.544096,3.167664 8.736096,2.879984 Z M4.032,0.19176 C4.288,-0.06392 4.672,-0.06392 4.928,0.19176 L4.928,0.19176 L6.528,1.79176 C6.72,1.98376 6.784,2.24008 6.656,2.49608 C6.56,2.72008 6.336,2.88008 6.08,2.88008 C3.424,2.88008 1.28,5.02376 1.28,7.68008 C1.28,9.21608 2.016,10.68776 3.264,11.58376 C3.552,11.80776 3.616,12.19176 3.424,12.48008 C3.296,12.64008 3.104,12.73608 2.912,12.73608 C2.784,12.73608 2.656,12.70376 2.528,12.60776 C0.928,11.45608 0,9.63176 0,7.68008 C0,4.80008 2.016,2.40008 4.704,1.76008 L4.704,1.76008 L4.032,1.08776 C3.776,0.83176 3.776,0.44776 4.032,0.19176 Z M6.080096,5.119984 C7.488096,5.119984 8.640096,6.271984 8.640096,7.679984 C8.640096,9.087664 7.488096,10.239984 6.080096,10.239984 C4.672096,10.239984 3.520096,9.087664 3.520096,7.679984 C3.520096,6.271984 4.672096,5.119984 6.080096,5.119984 Z"></path>
            </g>
        </g>
    </g>
</svg>
