<svg width="16" height="16" viewBox="0 0 16 16" fill="none" xmlns="http://www.w3.org/2000/svg">
<path fill-rule="evenodd" clip-rule="evenodd" d="M3.85165 8.04584C3.85045 8.03854 3.84941 8.03118 3.84851 8.02377L3.21984 2.8188C3.2049 2.72654 3.12709 2.65754 3.0337 2.65373H1.32681C1.03585 2.65373 0.799988 2.41787 0.799988 2.12692C0.799988 1.83596 1.03585 1.6001 1.32681 1.6001H3.0337C3.6554 1.6049 4.17913 2.06578 4.26294 2.68183L4.44687 4.20233C4.56466 4.16563 4.68844 4.14641 4.81434 4.14639H13.9704C14.3192 4.15574 14.648 4.31122 14.8766 4.57487C15.1164 4.84316 15.2312 5.2005 15.1927 5.55826L14.6342 10.6544C14.5695 11.2891 14.036 11.7726 13.398 11.7747H5.36926C4.73317 11.7692 4.20259 11.287 4.1365 10.6544L3.85165 8.04584ZM7.19258 12.432C6.48873 12.432 5.91815 13.0026 5.91815 13.7064C5.91815 14.4103 6.48873 14.9809 7.19258 14.9809C7.89643 14.9809 8.46701 14.4103 8.46701 13.7064C8.46701 13.3685 8.33274 13.0443 8.09374 12.8053C7.85474 12.5663 7.53058 12.432 7.19258 12.432ZM10.2511 13.7064C10.2511 13.0026 10.8217 12.432 11.5256 12.432C11.8636 12.432 12.1877 12.5663 12.4267 12.8053C12.6657 13.0443 12.8 13.3685 12.8 13.7064C12.8 14.4103 12.2294 14.9809 11.5256 14.9809C10.8217 14.9809 10.2511 14.4103 10.2511 13.7064Z" fill="#999999"/>
</svg>
