<svg width="124" height="130" viewBox="0 0 124 130" fill="none" xmlns="http://www.w3.org/2000/svg">
    <path d="M62 29.6719L62 77.2194" stroke="#FC774B" stroke-width="4" stroke-linecap="round" />
    <ellipse cx="62" cy="95.4293" rx="5" ry="5.05825" fill="#FC774B" />
    <path
        d="M64.7423 127.553L65.4278 128.888L64.7423 127.553ZM59.2577 127.553L59.9433 126.219L59.2577 127.553ZM59.5395 2.89L58.9244 1.52193L59.5395 2.89ZM64.4605 2.89L65.0756 1.52193L64.4605 2.89ZM5.25774 99.8053L4.57218 101.139L5.25774 99.8053ZM118.742 99.8053L118.057 98.4711L118.742 99.8053ZM118.46 27.1696L117.845 28.5377L118.46 27.1696ZM5.53953 27.1696L6.15465 28.5377L5.53953 27.1696ZM120.5 32.6419V94.4686H123.5V32.6419H120.5ZM3.5 94.4686V32.6419H0.5V94.4686H3.5ZM6.15465 28.5377L60.1547 4.25808L58.9244 1.52193L4.92442 25.8015L6.15465 28.5377ZM63.8453 4.25808L117.845 28.5377L119.076 25.8015L65.0756 1.52193L63.8453 4.25808ZM118.057 98.4711L64.0567 126.219L65.4278 128.888L119.428 101.139L118.057 98.4711ZM59.9433 126.219L5.94331 98.4711L4.57218 101.139L58.5722 128.888L59.9433 126.219ZM64.0567 126.219C62.7658 126.883 61.2342 126.883 59.9433 126.219L58.5722 128.888C60.7237 129.993 63.2763 129.993 65.4278 128.888L64.0567 126.219ZM60.1547 4.25808C61.3283 3.73038 62.6717 3.73038 63.8453 4.25808L65.0756 1.52193C63.1195 0.642431 60.8805 0.642431 58.9244 1.52193L60.1547 4.25808ZM0.5 94.4686C0.5 97.2796 2.07192 99.8547 4.57218 101.139L5.94331 98.4711C4.44315 97.7002 3.5 96.1552 3.5 94.4686H0.5ZM120.5 94.4686C120.5 96.1552 119.557 97.7002 118.057 98.4711L119.428 101.139C121.928 99.8546 123.5 97.2796 123.5 94.4686H120.5ZM123.5 32.6419C123.5 29.6897 121.768 27.0121 119.076 25.8015L117.845 28.5377C119.461 29.264 120.5 30.8706 120.5 32.6419H123.5ZM3.5 32.6419C3.5 30.8706 4.53913 29.264 6.15465 28.5377L4.92442 25.8015C2.23187 27.0121 0.5 29.6897 0.5 32.6419H3.5Z"
        fill="#FC774B" />
</svg>
    