<?xml version="1.0" encoding="UTF-8"?>
<svg width="16px" height="16px" viewBox="0 0 16 16" version="1.1" xmlns="http://www.w3.org/2000/svg" xmlns:xlink="http://www.w3.org/1999/xlink">
    <title>restore</title>
    <g id="restore" stroke="none" stroke-width="1" fill="none" fill-rule="evenodd">
        <g id="Group2">
            <polygon id="Fill-1" points="0 16 16 16 16 0 0 0"></polygon>
            <g id="Group" transform="translate(0.000200, 0.603100)" fill="#999999">
                <path d="M14.586,13.381 C14.708,13.259 14.768,13.114 14.768,12.947 C14.768,12.781 14.708,12.635 14.586,12.515 C14.464,12.395 14.32,12.332 14.154,12.332 C13.988,12.332 13.842,12.393 13.722,12.515 C13.602,12.637 13.54,12.781 13.54,12.947 C13.54,13.114 13.6,13.26 13.722,13.381 C13.844,13.501 13.986,13.563 14.154,13.563 C14.32,13.565 14.464,13.503 14.586,13.381 M12.124,13.381 C12.246,13.259 12.306,13.114 12.306,12.947 C12.306,12.781 12.246,12.635 12.124,12.515 C12.002,12.395 11.858,12.332 11.692,12.332 C11.525,12.332 11.38,12.393 11.26,12.515 C11.14,12.637 11.078,12.781 11.078,12.947 C11.078,13.114 11.138,13.26 11.26,13.381 C11.382,13.501 11.523,13.563 11.692,13.563 C11.858,13.565 12.004,13.503 12.124,13.381 M12.876,5.307 C12.986,5.569 12.94,5.796 12.74,5.983 L8.432,10.299 C8.316,10.421 8.174,10.481 8,10.481 C7.826,10.481 7.682,10.421 7.568,10.299 L3.258,5.983 C3.06,5.796 3.014,5.571 3.122,5.307 C3.232,5.057 3.42,4.932 3.69,4.932 L6.152,4.932 L6.152,0.615 C6.152,0.449 6.212,0.303 6.334,0.183 C6.456,0.063 6.598,0 6.766,0 L9.228,0 C9.394,0 9.54,0.061 9.66,0.183 C9.78,0.305 9.842,0.449 9.842,0.615 L9.842,4.932 L12.306,4.932 C12.576,4.932 12.766,5.057 12.876,5.307 M16,10.787 L16,13.869 C16,14.126 15.912,14.347 15.732,14.525 C15.552,14.705 15.334,14.793 15.078,14.793 L0.922,14.793 C0.666,14.793 0.446,14.705 0.268,14.525 C0.088,14.344 0,14.126 0,13.869 L0,10.787 C0,10.531 0.088,10.311 0.268,10.132 C0.448,9.952 0.666,9.863 0.922,9.863 L5.394,9.863 L6.691,11.174 C7.064,11.535 7.498,11.713 8,11.713 C8.502,11.713 8.936,11.533 9.308,11.174 L10.616,9.863 L15.08,9.863 C15.336,9.863 15.556,9.952 15.734,10.132 C15.908,10.315 16,10.533 16,10.787" id="Fill-2"></path>
            </g>
        </g>
    </g>
</svg>