<svg width="14" height="18" viewBox="0 0 14 18" fill="none" xmlns="http://www.w3.org/2000/svg">
    <path fill-rule="evenodd" clip-rule="evenodd"
        d="M4.75 0C5.16421 0 5.5 0.335786 5.5 0.75V17.25C5.5 17.6642 5.16421 18 4.75 18C4.33579 18 4 17.6642 4 17.25V0.75C4 0.335786 4.33579 0 4.75 0ZM9 3C9.41421 3 9.75 3.33579 9.75 3.75V14.25C9.75 14.6642 9.41421 15 9 15C8.58579 15 8.25 14.6642 8.25 14.25V3.75C8.25 3.33579 8.58579 3 9 3ZM0.75 6C1.16421 6 1.5 6.33579 1.5 6.75V11.25C1.5 11.6642 1.16421 12 0.75 12C0.335786 12 0 11.6642 0 11.25V6.75C0 6.33579 0.335786 6 0.75 6ZM13.25 7C13.6642 7 14 7.33579 14 7.75V10.25C14 10.6642 13.6642 11 13.25 11C12.8358 11 12.5 10.6642 12.5 10.25V7.75C12.5 7.33579 12.8358 7 13.25 7Z"
        fill="#838791" />
</svg>