<svg width="24" height="24" viewBox="0 0 24 24" fill="none" xmlns="http://www.w3.org/2000/svg">
<g id="Group">
<path id="Path" fill-rule="evenodd" clip-rule="evenodd" d="M7 15C7 16.1046 7.44772 17 8 17H16C16.5523 17 17 16.1046 17 15" fill="#FC774B"/>
<path id="Path_2" fill-rule="evenodd" clip-rule="evenodd" d="M7 15L5 8.75215C5 8.54138 5.14211 8.34773 5.36971 8.24829C5.59732 8.14884 5.8735 8.15974 6.08829 8.27665L9.2 9.9703L11.4176 7.2545C11.5474 7.0955 11.766 7 12 7C12.2341 7 12.4527 7.0955 12.5825 7.2545L14.8 9.9703L17.9117 8.27663C18.1265 8.15972 18.4027 8.14882 18.6303 8.24827C18.8579 8.34772 19 8.54138 19 8.75215L17 15" fill="#FC774B"/>
</g>
</svg>
