<svg width="14" height="26" viewBox="0 0 14 26" fill="none" xmlns="http://www.w3.org/2000/svg">
<path d="M7 6C5.14348 6 3.36301 6.7375 2.05025 8.05025C0.737498 9.36301 0 11.1435 0 13C0 15.38 1.19 17.47 3 18.74V21C3 21.2652 3.10536 21.5196 3.29289 21.7071C3.48043 21.8946 3.73478 22 4 22H10C10.2652 22 10.5196 21.8946 10.7071 21.7071C10.8946 21.5196 11 21.2652 11 21V18.74C12.81 17.47 14 15.38 14 13C14 11.1435 13.2625 9.36301 11.9497 8.05025C10.637 6.7375 8.85652 6 7 6ZM4 25C4 25.2652 4.10536 25.5196 4.29289 25.7071C4.48043 25.8946 4.73478 26 5 26H9C9.26522 26 9.51957 25.8946 9.70711 25.7071C9.89464 25.5196 10 25.2652 10 25V24H4V25Z" fill="white"/>
<rect x="6" width="2" height="4" rx="1" fill="white"/>
<rect x="0.322266" y="1.89893" width="2" height="4.0299" rx="1" transform="rotate(-26.7615 0.322266 1.89893)" fill="white"/>
<rect x="12.0322" y="1.07812" width="2" height="4.06491" rx="1" transform="rotate(30 12.0322 1.07812)" fill="white"/>
</svg>
