<?xml version="1.0" encoding="UTF-8"?>
<svg width="18px" height="18px" viewBox="0 0 18 18" version="1.1" xmlns="http://www.w3.org/2000/svg" xmlns:xlink="http://www.w3.org/1999/xlink">
    <title>jump</title>
    <g id="ENS/CLEAR-ROOM" stroke="none" stroke-width="1" fill="none" fill-rule="evenodd">
        <g id="p10" transform="translate(-1364.000000, -206.000000)" fill-rule="nonzero">
            <g id="jump" transform="translate(1364.000000, 206.000000)">
                <rect id="矩形" fill="#000000" opacity="0" x="0" y="0" width="18" height="18"></rect>
                <path d="M15.2753906,8.57460937 L8.634375,2.81074219 C8.58339844,2.76679688 8.51835937,2.7421875 8.44980469,2.7421875 L6.89414062,2.7421875 C6.7640625,2.7421875 6.70429687,2.90390625 6.80273438,2.98828125 L12.9585938,8.33203125 L2.671875,8.33203125 C2.59453125,8.33203125 2.53125,8.3953125 2.53125,8.47265625 L2.53125,9.52734375 C2.53125,9.6046875 2.59453125,9.66796875 2.671875,9.66796875 L12.9568359,9.66796875 L6.80097656,15.0117188 C6.70253906,15.0978516 6.76230469,15.2578125 6.89238281,15.2578125 L8.50078125,15.2578125 C8.53417969,15.2578125 8.56757812,15.2455078 8.5921875,15.2226562 L15.2753906,9.42539063 C15.5337891,9.20039063 15.5337891,8.79960937 15.2753906,8.57460937 Z" id="路径" fill="#BABBBE"></path>
            </g>
        </g>
    </g>
</svg>