<?xml version="1.0" encoding="UTF-8"?>
<svg width="18px" height="18px" viewBox="0 0 18 18" version="1.1" xmlns="http://www.w3.org/2000/svg" xmlns:xlink="http://www.w3.org/1999/xlink">
    <title>notification</title>
    <g id="控件" stroke="none" stroke-width="1" fill="none" fill-rule="evenodd">
        <g id="ellipsis" transform="translate(-120.000000, 0.000000)" fill-rule="nonzero">
            <g id="notification" transform="translate(120.000000, 0.000000)">
                <rect id="矩形" fill="#000000" opacity="0" x="0" y="0" width="18" height="18"></rect>
                <path d="M13.5225,1.49999999 C14.1784969,1.49999999 14.7584349,1.92616019 14.95425,2.55225001 L16.3635,7.06275 C16.4539882,7.35238049 16.5,7.65406312 16.5,7.95749999 L16.5,15 C16.5,15.3978247 16.3419648,15.7793556 16.0606602,16.0606602 C15.7793556,16.3419648 15.3978247,16.5 15,16.5 L3.75,16.5 C3.35217526,16.5 2.97064439,16.3419647 2.68933982,16.0606602 C2.40803525,15.7793556 2.25,15.3978247 2.25,15 L2.25,7.95749999 C2.25,7.65406312 2.29601181,7.35238049 2.38649999,7.06275 L3.79650001,2.55225001 C3.99223239,1.92642441 4.57177996,1.50026862 5.22750001,1.49999999 L13.5225,1.49999999 Z M11.625,9.75000001 L7.12499999,9.75000001 C6.71083127,9.75006341 6.37511481,10.0858313 6.37511481,10.5 C6.37511481,10.9141687 6.71083127,11.2499366 7.12499999,11.25 L11.625,11.25 C12.0391687,11.2499366 12.3748852,10.9141687 12.3748852,10.5 C12.3748852,10.0858313 12.0391687,9.75006341 11.625,9.75000001 L11.625,9.75000001 Z M13.04175,3.37499994 L5.70825,3.37499994 C5.46720919,3.37489512 5.24950591,3.51904601 5.15550001,3.74099999 L5.12924999,3.81749999 L4.12500001,7.50000001 L14.625,7.50000001 L13.62,3.81749999 C13.5490071,3.55653415 13.3121998,3.37531972 13.04175,3.37499994 L13.04175,3.37499994 Z" id="形状" fill="#999999"></path>
            </g>
        </g>
    </g>
</svg>