<?xml version="1.0" encoding="UTF-8"?>
<svg width="22px" height="22px" viewBox="0 0 22 22" version="1.1" xmlns="http://www.w3.org/2000/svg" xmlns:xlink="http://www.w3.org/1999/xlink">
    <title>P2P_logo2</title>
    <defs>
        <path d="M12.8989937,10.7715982 L9.23026439,10.7715982 L9.07212951,11.9899244 L12.7422339,11.9899244 L12.6102256,12.8672292 L7.99818739,12.8672292 C7.82767673,12.8672292 7.68329271,12.8149759 7.57878617,12.6857179 C7.47427964,12.5674605 7.43440215,12.4217014 7.46052878,12.2388149 L7.78779924,9.89291831 L11.2736421,9.89291831 L11.4840303,8.50545659 L9.72667042,8.50545659 L9.63591474,9.19849991 L7.89230577,9.19849991 L8.11506969,7.62677667 L12.7504844,7.62677667 C13.064004,7.62677667 13.304644,7.90454403 13.2620164,8.21668854 L12.8989937,10.7715982 Z M9.42965185,5.79928746 C7.65579099,6.13618351 6.20507532,7.58689918 5.86817926,9.36076005 C5.26039127,12.5523345 8.01193825,15.3025064 11.2062629,14.6960935 C12.9801238,14.3591974 14.4294643,12.9084818 14.7663604,11.135996 C15.3741484,7.94167135 12.6226014,5.19149947 9.42965185,5.79928746 L9.42965185,5.79928746 Z M18.7202825,10.2265142 L17.0399275,10.2265142 L17.2049378,8.71116945 L18.9581724,8.71116945 L18.7202825,10.2265142 Z M15.7143446,7.91911994 L15.6909682,8.15563473 L15.1354335,12.6164135 L16.6494031,12.6164135 L16.8859179,11.0199387 L19.6787174,11.0199387 C19.7983499,11.0199387 19.927608,10.9718107 20.0582411,10.8659291 C20.1874992,10.7600475 20.2713795,10.6294143 20.3181324,10.464404 L20.6261516,7.91911994 L15.7143446,7.91911994 Z M3.58622414,10.2265142 L1.90449403,10.2265142 L2.07087943,8.71116945 L3.82273892,8.71116945 L3.58622414,10.2265142 Z M4.92418276,10.8659291 C5.05344084,10.7600475 5.135946,10.6294143 5.184074,10.464404 L5.49209326,7.91911994 L0.578911182,7.91911994 L0.556909807,8.15563473 L0,12.6164135 L1.51534471,12.6164135 L1.75185949,11.0199387 L4.54465904,11.0199387 C4.66291643,11.0199387 4.7935496,10.9718107 4.92418276,10.8659291 L4.92418276,10.8659291 Z M11.471517,0.886930433 C11.8496656,0.932308269 12.2250641,1.00243765 12.5867117,1.09044315 C12.6197137,1.09869367 12.6527158,1.10281893 12.6857179,1.10281893 C12.8713545,1.10281893 13.04049,0.977686105 13.0858679,0.790674417 C13.1408713,0.56928558 13.0047378,0.345146572 12.784724,0.290143134 C12.3914495,0.192512032 11.9830489,0.118257391 11.5705232,0.0673792112 C11.3477592,0.048128008 11.1401213,0.202137634 11.1112445,0.427651728 C11.0837427,0.653165823 11.2446278,0.858053628 11.471517,0.886930433 M5.38951184,4.47122945 C5.56139759,4.32272017 5.824039,4.34059629 5.9711732,4.5152322 C6.11830739,4.68711794 6.10043128,4.94700919 5.92717045,5.09689356 C5.78966185,5.21515095 5.65627852,5.33890868 5.52839552,5.46541659 C5.44726545,5.54654666 5.34275892,5.58642415 5.2368773,5.58642415 C5.13099569,5.58642415 5.02648916,5.54654666 4.94535908,5.46541659 C4.78447403,5.30453153 4.78447403,5.04464029 4.94535908,4.88375523 C5.08699294,4.73937121 5.2368773,4.60186262 5.38951184,4.47122945 Z M6.76968561,3.5775611 C7.00070004,3.5775611 7.18908682,3.76594787 7.18908682,3.9983374 C7.18908682,4.22935183 7.00070004,4.41773861 6.76968561,4.41773861 C6.53729608,4.41773861 6.35028439,4.22935183 6.35028439,3.9983374 C6.35028439,3.76594787 6.53729608,3.5775611 6.76968561,3.5775611 Z M10.3152072,2.65776611 L10.4843428,2.6591412 C10.7098569,2.66464154 10.9174948,2.85165323 10.9147717,3.07716732 C10.9119945,3.30268142 10.7538596,3.48556785 10.5283455,3.48556785 L10.506516,3.48539596 L10.4857179,3.48419276 L10.3152072,3.48281768 C9.61253828,3.48281768 8.92087005,3.59007438 8.2608288,3.80046253 C8.21957622,3.81421339 8.17694856,3.81971373 8.13569598,3.81971373 C7.96106007,3.81971373 7.79879992,3.70833177 7.7424214,3.53232077 C7.6736671,3.31643228 7.79329958,3.08404275 8.01056316,3.01391337 C8.75173448,2.77739859 9.52728296,2.65776611 10.3152072,2.65776611 Z M9.87009188,0 C10.1409838,0.0275017189 10.2894931,0.167760485 10.3004938,0.394649666 C10.3114945,0.622913932 10.1341084,0.814050878 9.9072192,0.825051566 C9.79171198,0.830551909 9.67895493,0.837427339 9.5648228,0.845677855 C9.35718482,0.8608038 9.15504719,0.884180261 8.95565973,0.913057066 C7.46781674,1.12757047 6.03635227,1.70510657 4.81390087,2.58378649 C4.74102131,2.63466467 4.65714107,2.6607913 4.57326083,2.6607913 C4.44537784,2.6607913 4.31749484,2.6016626 4.23773986,2.48890556 C4.10573161,2.30326895 4.14698419,2.04612788 4.33262079,1.91274455 C5.66370398,0.958434902 7.22167635,0.330020626 8.83602725,0.0976311019 C9.056041,0.0646290393 9.27742984,0.0398774923 9.50156885,0.023376461 C9.62257641,0.0123757735 9.74633415,0.00550034377 9.87009188,0 Z M15.7188824,2.5184699 C15.791762,2.56934808 15.8742671,2.59409963 15.9567723,2.59409963 C16.0860304,2.59409963 16.2139134,2.53359585 16.2936684,2.41946372 C16.4256766,2.23245203 16.3789237,1.97393587 16.1946622,1.84467779 C15.663879,1.47065442 15.0918432,1.14750922 14.4936809,0.87936746 C14.2846678,0.781736359 14.0412776,0.877992375 13.9491468,1.08563035 C13.855641,1.29326833 13.9477717,1.53803363 14.1554097,1.63016439 C14.7068192,1.87767985 15.232102,2.17744859 15.7188824,2.5184699 M11.7198575,3.19528721 C11.6621039,3.41530096 11.7941121,3.63943996 12.015501,3.69719357 C12.3111444,3.77557347 12.5999125,3.8704544 12.8790549,3.98596162 C13.7137321,4.32835802 14.4604038,4.82751422 15.0998187,5.4655541 C15.1809488,5.54668417 15.2854553,5.58656166 15.391337,5.58656166 C15.4972186,5.58656166 15.6017251,5.54668417 15.6828552,5.4655541 C15.8437402,5.30604413 15.8437402,5.0447778 15.6828552,4.88389274 C14.9664354,4.16609788 14.1290081,3.60781299 13.1925745,3.22416401 C12.8818051,3.09490593 12.5545347,2.98627414 12.2217639,2.89964373 C12.0031252,2.83776486 11.776236,2.97389837 11.7198575,3.19528721 M3.34984687,3.69884368 C3.58223639,3.69884368 3.76924808,3.5104569 3.76924808,3.27944247 C3.76924808,3.04705294 3.58223639,2.86141634 3.34984687,2.86141634 C3.11883243,2.86141634 2.93044565,3.04705294 2.93044565,3.27944247 C2.93044565,3.5104569 3.11883243,3.69884368 3.34984687,3.69884368 M17.2753422,3.68935558 C17.5063566,3.68935558 17.6947434,3.50096881 17.6947434,3.26995437 C17.6947434,3.03756485 17.5063566,2.85192825 17.2753422,2.85192825 C17.0443278,2.85192825 16.855941,3.03756485 16.855941,3.26995437 C16.855941,3.50096881 17.0443278,3.68935558 17.2753422,3.68935558 M9.1536721,19.6090006 C8.77552347,19.5636227 8.40012501,19.4934933 8.0384774,19.4054878 C8.00547534,19.3972373 7.97247328,19.3931121 7.93947122,19.3931121 C7.75383461,19.3931121 7.58469904,19.5182449 7.53932121,19.7052566 C7.48431777,19.9266454 7.62045128,20.1507844 7.84046503,20.2057879 C8.23373961,20.303419 8.64214013,20.3776736 9.05466592,20.4285518 C9.27742984,20.447803 9.48506782,20.2937934 9.51394462,20.0682793 C9.54144634,19.8427652 9.38056129,19.6378774 9.1536721,19.6090006 M16.0519282,17.8351397 C16.1798112,17.8351397 16.3076942,17.8942684 16.3874492,18.0070254 C16.5194575,18.192662 16.4782049,18.4498031 16.2925683,18.5831864 C14.9614851,19.5374961 13.4035127,20.1659104 11.7891618,20.3982999 C11.5691481,20.431302 11.3477592,20.4560535 11.1236202,20.4725545 C11.0026127,20.4835552 10.8788549,20.4904307 10.7550972,20.495931 C10.4842053,20.4684293 10.335696,20.3281705 10.3246953,20.1012813 C10.3136946,19.8730171 10.4910807,19.6818801 10.7179699,19.6708794 C10.8334771,19.6653791 10.9462341,19.6585037 11.0603663,19.6502531 C11.2680043,19.6351272 11.4701419,19.6117507 11.6695293,19.5828739 C13.1573723,19.3683605 14.5888368,18.7908244 15.8112882,17.9121445 C15.8841678,17.8612663 15.968048,17.8351397 16.0519282,17.8351397 Z M12.4894931,16.6762173 C12.664129,16.6762173 12.8263891,16.7875992 12.8827677,16.9636102 C12.951522,17.1794987 12.8318895,17.4118882 12.6146259,17.4820176 C11.9793362,17.6847446 11.3187898,17.8015988 10.6468418,17.8308485 L10.3099819,17.8381649 L10.1408463,17.8367898 C9.91533221,17.8312895 9.70769423,17.6442778 9.71041739,17.4187637 C9.71319457,17.1932496 9.87132946,17.0103631 10.0968436,17.0103631 L10.118673,17.010535 L10.1394712,17.0117382 L10.3099819,17.0131133 C11.0126508,17.0131133 11.704319,16.9058566 12.3643603,16.6954685 C12.4056129,16.6817176 12.4482405,16.6762173 12.4894931,16.6762173 Z M13.8568786,16.0781924 C14.087893,16.0781924 14.2749047,16.2665792 14.2749047,16.4975936 C14.2749047,16.728608 14.087893,16.9169948 13.8568786,16.9169948 C13.624489,16.9169948 13.4361023,16.728608 13.4361023,16.4975936 C13.4361023,16.2665792 13.624489,16.0781924 13.8568786,16.0781924 Z M15.3881743,14.9084068 C15.4940559,14.9084068 15.5999375,14.9496594 15.6796925,15.0294143 C15.8405775,15.1916745 15.8405775,15.4515657 15.6796925,15.6124508 C15.5380586,15.7568348 15.3881743,15.8929683 15.2355397,16.0249766 C15.063654,16.1721108 14.8023876,16.1556097 14.6538784,15.9809738 C14.5067442,15.8090881 14.5246203,15.5478217 14.6978811,15.3993125 C14.8353897,15.2810551 14.968773,15.1572973 15.096656,15.0294143 C15.1777861,14.9496594 15.2822926,14.9084068 15.3881743,14.9084068 Z M4.90630664,17.9774611 C4.83342709,17.9265829 4.75092193,17.9018314 4.66841678,17.9018314 C4.5391587,17.9018314 4.4112757,17.9623351 4.33152072,18.0764673 C4.19951247,18.263479 4.24626539,18.5219951 4.43052691,18.6512532 C4.96131008,19.0252766 5.53334583,19.3484218 6.13150822,19.6165635 C6.34052128,19.7141946 6.58391149,19.6179386 6.67604225,19.4103006 C6.7695481,19.2026627 6.67741734,18.9578974 6.46977936,18.8657666 C5.9183699,18.6182511 5.39308707,18.3184824 4.90630664,17.9774611 M8.90533158,17.3006438 C8.96308519,17.08063 8.83107694,16.856491 8.60968811,16.7987374 C8.31404463,16.7203575 8.02527658,16.6254766 7.74613413,16.5099694 C6.91145697,16.167573 6.1647853,15.6684168 5.52537034,15.0303769 C5.44424027,14.9492468 5.33973373,14.9093693 5.23385212,14.9093693 C5.1279705,14.9093693 5.02346397,14.9492468 4.9423339,15.0303769 C4.78144884,15.1898869 4.78144884,15.4511532 4.9423339,15.6120383 C5.65875367,16.3298331 6.49618101,16.888118 7.43261454,17.271767 C7.74338396,17.4010251 8.07065442,17.5096569 8.40342521,17.5962873 C8.62206388,17.6581661 8.84895306,17.5220326 8.90533158,17.3006438 M17.2753422,16.7970873 C17.0443278,16.7970873 16.855941,16.9854741 16.855941,17.2164885 C16.855941,17.447503 17.0443278,17.6345147 17.2753422,17.6345147 C17.5063566,17.6345147 17.6947434,17.447503 17.6947434,17.2164885 C17.6947434,16.9854741 17.5063566,16.7970873 17.2753422,16.7970873 M3.34984687,16.8064379 C3.11883243,16.8064379 2.93044565,16.9934496 2.93044565,17.2258391 C2.93044565,17.4568536 3.11883243,17.6438652 3.34984687,17.6438652 C3.5808613,17.6438652 3.76924808,17.4568536 3.76924808,17.2258391 C3.76924808,16.9934496 3.5808613,16.8064379 3.34984687,16.8064379" id="path-1"></path>
    </defs>
    <g id="P2P_logo2" stroke="none" stroke-width="1" fill="none" fill-rule="evenodd">
        <g id="icon/P2P备份">
            <circle id="椭圆形" fill-rule="nonzero" cx="11" cy="11" r="11"></circle>
            <g id="编组">
                <polygon id="Fill-1" points="0 22.0013751 22 22.0013751 22 0 0 0"></polygon>
                <g transform="translate(0.687543, 0.751072)" id="color/#B1B5C1">
                    <mask id="mask-2" fill="white">
                        <use xlink:href="#path-1"></use>
                    </mask>
                    <use id="蒙版" fill="#B1B5C1" xlink:href="#path-1"></use>
                    <g id="编组" mask="url(#mask-2)">
                        <g transform="translate(-0.687543, -0.751072)" id="color/#B1B5C1">
                            <rect id="矩形" fill="#38CA6A" x="0" y="0" width="22" height="22"></rect>
                        </g>
                    </g>
                </g>
            </g>
        </g>
    </g>
</svg>