<?xml version="1.0" encoding="UTF-8"?>
<svg width="18px" height="18px" viewBox="0 0 18 18" version="1.1" xmlns="http://www.w3.org/2000/svg" xmlns:xlink="http://www.w3.org/1999/xlink">
    <title>roominfo</title>
    <g id="控件" stroke="none" stroke-width="1" fill="none" fill-rule="evenodd">
        <g id="ellipsis" transform="translate(-82.000000, 0.000000)" fill-rule="nonzero">
            <g id="roominfo" transform="translate(82.000000, 0.000000)">
                <rect id="矩形" fill="#000000" opacity="0" x="0" y="0" width="18" height="18"></rect>
                <path d="M9.84375,9.00351563 C9.81738281,10.4220703 15.0626953,10.9054688 15.0644531,13.9253906 L15.0802734,13.9253906 L15.0802734,15.8554688 C15.0802734,16.1173828 14.8675781,16.3300781 14.6056641,16.3300781 L1.29902344,16.3300781 C1.03710937,16.3300781 0.824414062,16.1173828 0.824414062,15.8554688 L0.824414062,13.9253906 L0.840234375,13.9253906 C0.852539062,10.6699219 6.03632812,10.3675781 6.0609375,9.00351563 C6.06796875,8.93320313 6.06972656,8.18613281 5.81484375,7.7765625 C5.54414062,7.34238281 4.6265625,5.97128906 4.6265625,4.68808594 C4.6265625,2.71933594 5.98535156,1.12324219 7.95410156,1.12324219 C9.92285156,1.12324219 11.2816406,2.71933594 11.2816406,4.68808594 C11.2816406,5.97128906 10.2304688,7.40742188 10.0933594,7.7765625 C9.9421875,8.17734375 9.85078125,8.90859375 9.84375,9.00351563 Z" id="路径" fill="#999999"></path>
                <path d="M17.1228516,12.3785156 C17.1210938,9.93339844 12.8742188,9.54140625 12.8953125,8.39355469 C12.9005859,8.31621094 12.9744141,7.72558594 13.0957031,7.40039063 C13.2064453,7.1015625 14.0572266,5.93789063 14.0572266,4.89902344 C14.0572266,3.32050781 12.9779297,2.0390625 11.4099609,2.01445313 C11.9460938,2.78085938 12.2361328,3.72480469 12.2361328,4.72675781 C12.2361328,5.27871094 12.0990234,5.87285156 11.8177734,6.54257813 C11.6015625,7.05761719 11.3449219,7.50585938 11.1585938,7.83457031 C11.0935547,7.95058594 11.0109375,8.09296875 10.9880859,8.14394531 C10.9177734,8.34082031 10.8492188,8.72753906 10.8175781,8.95957031 C10.8703125,9.00878906 10.9722656,9.08789063 11.1638672,9.20214844 C11.4380859,9.365625 11.7949219,9.53964844 12.1728516,9.72421875 C12.9603516,10.1091797 13.8533203,10.5451172 14.5863281,11.1568359 C15.0257812,11.5224609 15.3544922,11.9074219 15.5935547,12.3310547 C15.8449219,12.7775391 15.9873047,13.2591797 16.0171875,13.7654297 C16.03125,13.8304688 16.0400391,13.8972656 16.0400391,13.9675781 L16.0400391,14.3261719 L16.7537109,14.3261719 C16.9664062,14.3261719 17.1386719,14.1539063 17.1386719,13.9412109 L17.1386719,12.3785156 L17.1228516,12.3785156 L17.1228516,12.3785156 Z" id="路径" fill="#999999"></path>
            </g>
        </g>
    </g>
</svg>