<svg width="132" height="130" viewBox="0 0 132 130" fill="none" xmlns="http://www.w3.org/2000/svg">
<path d="M121.021 45.4989C117.831 44.1809 115.563 48.379 115.563 48.379C115.563 48.379 105.882 63.2537 105.301 64.0421C104.72 64.8304 103.796 66.574 101.597 66.574C99.3978 66.574 97.6985 63.3625 97.6985 63.3625L85.1501 42.5341C85.1501 42.5341 83.3071 38.7471 80.6833 38.7471C78.0595 38.7471 76.2874 42.2874 76.2874 42.2874L66.2919 58.5865C66.2919 58.5865 64.449 61.5464 62.7602 61.5464C61.0714 61.5464 59.2285 58.5865 59.2285 58.5865L49.233 42.2874C49.233 42.2874 47.4609 38.7471 44.8371 38.7471C42.2133 38.7471 40.3703 42.5341 40.3703 42.5341L27.8219 63.3625C27.8219 63.3625 26.1205 66.574 23.9236 66.574C21.7267 66.574 20.8084 65.2319 19.9983 64.1461C19.1883 63.0603 9.95911 48.3814 9.95911 48.3814C9.95911 48.3814 7.69139 44.1833 4.50117 45.5013C1.31095 46.8192 3.01226 54.311 3.01226 54.311L10.8816 99.0125H28.6054C30.7232 104.715 34.3111 114.315 35.8375 118.03C38.0698 123.464 39.2943 125.686 42.4824 125.686C45.6706 125.686 47.0554 121.611 47.0554 121.611L57.0675 99.0125H114.637L122.506 54.311C122.506 54.311 124.207 46.8192 121.017 45.5013L121.021 45.4989Z" stroke="#E8E8E8"/>
<path d="M119.772 0.192383L122.24 11.1132L131.027 13.8797L122.202 16.5374L119.772 27.4873L117.54 16.5374L108.517 13.8797L117.032 11.1132L119.772 0.192383Z" fill="#B27AFF"/>
<path d="M68.0367 89.535C67.3599 89.535 66.7706 89.2303 66.2854 88.6282C64.3425 86.2147 64.6924 79.7532 64.709 79.4799L65.1255 79.5113C65.1214 79.5766 64.7715 86.0382 66.5915 88.2969C66.9997 88.8023 67.4724 89.0489 68.0367 89.0489C68.601 89.0489 69.0633 88.8047 69.4527 88.3041C71.2082 86.0503 70.6688 79.5839 70.6647 79.5186L71.0791 79.4702C71.102 79.7435 71.6413 86.2147 69.763 88.6282C69.2945 89.2279 68.7156 89.5326 68.0367 89.5326V89.535Z" fill="#E8E8E8" stroke="#E8E8E8" stroke-width="0.645562" stroke-linejoin="round"/>
<path d="M91.191 89.535C90.5142 89.535 89.9249 89.2303 89.4397 88.6282C87.4968 86.2147 87.8467 79.7532 87.8633 79.4799L88.2798 79.5113C88.2757 79.5766 87.9258 86.0382 89.7458 88.2969C90.154 88.8023 90.6267 89.0489 91.191 89.0489C91.7553 89.0489 92.2176 88.8047 92.607 88.3041C94.3625 86.0503 93.8252 79.5839 93.819 79.5186L94.2334 79.4702C94.2563 79.7435 94.7956 86.2147 92.9173 88.6282C92.4488 89.2279 91.8699 89.5326 91.191 89.5326V89.535Z" fill="#E8E8E8" stroke="#E8E8E8" stroke-width="0.645562" stroke-linejoin="round"/>
<path d="M82.2138 92.7568H76.8975V93.2405H82.2138V92.7568Z" fill="#E8E8E8" stroke="#E8E8E8" stroke-width="0.645562" stroke-linejoin="round"/>
</svg>
