<?xml version="1.0" encoding="UTF-8"?>
<svg width="18px" height="18px" viewBox="0 0 18 18" version="1.1" xmlns="http://www.w3.org/2000/svg" xmlns:xlink="http://www.w3.org/1999/xlink">
    <title>unpin</title>
    <g id="ENS/CLEAR-ROOM" stroke="none" stroke-width="1" fill="none" fill-rule="evenodd">
        <g id="p10" transform="translate(-1401.000000, -207.000000)">
            <g id="编组-9备份" transform="translate(1057.500000, 200.000000)">
                <g id="编组-7备份" transform="translate(6.000000, 7.000000)">
                    <g id="unpin" transform="translate(337.500000, 0.000000)">
                        <rect id="矩形" fill="#000000" fill-rule="nonzero" opacity="0" x="0" y="0" width="18" height="18"></rect>
                        <path d="M3.84014794,6.168409 L11.8332772,14.1604618 C11.6970516,14.3901134 11.5436415,14.6123746 11.3730469,14.8253906 C11.2570312,14.9695312 11.0882812,15.0433594 10.9177734,15.0433594 C10.7683594,15.0433594 10.6189453,14.9871094 10.5046875,14.8728516 L7.31074219,11.6789063 L3.52441406,15.4652344 C3.47871094,15.5109375 3.4171875,15.5408203 3.35214844,15.5460938 L2.69824219,15.6058594 C2.68945312,15.6076172 2.68066406,15.6076172 2.671875,15.6076172 C2.50839844,15.6076172 2.3765625,15.4669922 2.39238281,15.3017578 L2.45214844,14.6478516 C2.45742187,14.5828125 2.48730469,14.5212891 2.53300781,14.4755859 L6.31933594,10.6927734 L3.12539062,7.49882813 C2.88105469,7.25273437 2.90214844,6.84667969 3.17285156,6.63046875 C3.3865007,6.45912285 3.6095677,6.30510293 3.84014794,6.168409 Z M10.6945312,2.390625 C10.8439453,2.390625 10.9933594,2.446875 11.1076172,2.56113281 L15.4388672,6.89238281 C15.665625,7.12089844 15.665625,7.49003906 15.4388672,7.71503906 L13.2410931,9.912625 L8.08609311,4.757625 L10.2814453,2.56113281 C10.3728516,2.46972656 10.4867578,2.41544531 10.6051641,2.39738906 Z" id="形状结合" fill="#BABBBE" fill-rule="nonzero"></path>
                        <rect id="矩形" fill="#BABBBE" transform="translate(9.424621, 8.924621) rotate(-45.000000) translate(-9.424621, -8.924621) " x="8.4246212" y="-0.575378798" width="2" height="19" rx="1"></rect>
                    </g>
                </g>
            </g>
        </g>
    </g>
</svg>