<svg width="1em" height="1em" viewBox="0 0 12 10" fill="none" xmlns="http://www.w3.org/2000/svg">
<mask id="path-2-outside-1_372_25143" maskUnits="userSpaceOnUse" x="1.58057" y="0.09375" width="9" height="10" fill="black">
<rect fill="white" x="1.58057" y="0.09375" width="9" height="10"/>
<path fill-rule="evenodd" clip-rule="evenodd" d="M9.39463 4.53125H8.70511V2.34375C8.70511 1.65332 8.12409 1.09375 7.40719 1.09375H4.89248C4.17558 1.09375 3.59456 1.65332 3.59456 2.34375V4.53125H2.90505C2.72557 4.53125 2.58057 4.6709 2.58057 4.84375V8.59375C2.58057 8.7666 2.72557 8.90625 2.90505 8.90625H9.39463C9.57411 8.90625 9.71911 8.7666 9.71911 8.59375V4.84375C9.71911 4.6709 9.57411 4.53125 9.39463 4.53125ZM6.43392 6.8457V7.36328C6.43392 7.40625 6.39742 7.44141 6.3528 7.44141H5.9472C5.90258 7.44141 5.86608 7.40625 5.86608 7.36328V6.8457C5.74339 6.76074 5.66328 6.62207 5.66328 6.46484C5.66328 6.20605 5.88129 5.99609 6.15 5.99609C6.41871 5.99609 6.63672 6.20605 6.63672 6.46484C6.63672 6.62207 6.55661 6.76074 6.43392 6.8457ZM4.3248 4.53125H7.9752V2.34375C7.9752 2.04199 7.72068 1.79688 7.40736 1.79688H4.89264C4.57932 1.79688 4.3248 2.04199 4.3248 2.34375V4.53125Z"/>
</mask>
<path fill-rule="evenodd" clip-rule="evenodd" d="M9.39463 4.53125H8.70511V2.34375C8.70511 1.65332 8.12409 1.09375 7.40719 1.09375H4.89248C4.17558 1.09375 3.59456 1.65332 3.59456 2.34375V4.53125H2.90505C2.72557 4.53125 2.58057 4.6709 2.58057 4.84375V8.59375C2.58057 8.7666 2.72557 8.90625 2.90505 8.90625H9.39463C9.57411 8.90625 9.71911 8.7666 9.71911 8.59375V4.84375C9.71911 4.6709 9.57411 4.53125 9.39463 4.53125ZM6.43392 6.8457V7.36328C6.43392 7.40625 6.39742 7.44141 6.3528 7.44141H5.9472C5.90258 7.44141 5.86608 7.40625 5.86608 7.36328V6.8457C5.74339 6.76074 5.66328 6.62207 5.66328 6.46484C5.66328 6.20605 5.88129 5.99609 6.15 5.99609C6.41871 5.99609 6.63672 6.20605 6.63672 6.46484C6.63672 6.62207 6.55661 6.76074 6.43392 6.8457ZM4.3248 4.53125H7.9752V2.34375C7.9752 2.04199 7.72068 1.79688 7.40736 1.79688H4.89264C4.57932 1.79688 4.3248 2.04199 4.3248 2.34375V4.53125Z" fill="#838791"/>
<path d="M8.70511 4.53125H7.90511V5.33125H8.70511V4.53125ZM3.59456 4.53125V5.33125H4.39456V4.53125H3.59456ZM6.43392 6.8457L5.97848 6.188L5.63392 6.42659V6.8457H6.43392ZM5.86608 6.8457H6.66608V6.42659L6.32152 6.188L5.86608 6.8457ZM7.9752 4.53125V5.33125H8.7752V4.53125H7.9752ZM4.3248 4.53125H3.5248V5.33125H4.3248V4.53125ZM8.70511 5.33125H9.39463V3.73125H8.70511V5.33125ZM7.90511 2.34375V4.53125H9.50511V2.34375H7.90511ZM7.40719 1.89375C7.71089 1.89375 7.90511 2.12325 7.90511 2.34375H9.50511C9.50511 1.1834 8.53729 0.29375 7.40719 0.29375V1.89375ZM4.89248 1.89375H7.40719V0.29375H4.89248V1.89375ZM4.39456 2.34375C4.39456 2.12325 4.58878 1.89375 4.89248 1.89375V0.29375C3.76239 0.29375 2.79456 1.1834 2.79456 2.34375H4.39456ZM4.39456 4.53125V2.34375H2.79456V4.53125H4.39456ZM2.90505 5.33125H3.59456V3.73125H2.90505V5.33125ZM3.38057 4.84375C3.38057 5.14082 3.13877 5.33125 2.90505 5.33125V3.73125C2.31237 3.73125 1.78057 4.20097 1.78057 4.84375H3.38057ZM3.38057 8.59375V4.84375H1.78057V8.59375H3.38057ZM2.90505 8.10625C3.13877 8.10625 3.38057 8.29668 3.38057 8.59375H1.78057C1.78057 9.23653 2.31237 9.70625 2.90505 9.70625V8.10625ZM9.39463 8.10625H2.90505V9.70625H9.39463V8.10625ZM8.91911 8.59375C8.91911 8.29668 9.16091 8.10625 9.39463 8.10625V9.70625C9.9873 9.70625 10.5191 9.23653 10.5191 8.59375H8.91911ZM8.91911 4.84375V8.59375H10.5191V4.84375H8.91911ZM9.39463 5.33125C9.16091 5.33125 8.91911 5.14082 8.91911 4.84375H10.5191C10.5191 4.20097 9.9873 3.73125 9.39463 3.73125V5.33125ZM7.23392 7.36328V6.8457H5.63392V7.36328H7.23392ZM6.3528 8.24141C6.81061 8.24141 7.23392 7.87617 7.23392 7.36328H5.63392C5.63392 6.93633 5.98422 6.64141 6.3528 6.64141V8.24141ZM5.9472 8.24141H6.3528V6.64141H5.9472V8.24141ZM5.06608 7.36328C5.06608 7.87617 5.48939 8.24141 5.9472 8.24141V6.64141C6.31578 6.64141 6.66608 6.93633 6.66608 7.36328H5.06608ZM5.06608 6.8457V7.36328H6.66608V6.8457H5.06608ZM4.86328 6.46484C4.86328 6.90361 5.0883 7.2802 5.41064 7.50341L6.32152 6.188C6.39847 6.24129 6.46328 6.34053 6.46328 6.46484H4.86328ZM6.15 5.19609C5.46809 5.19609 4.86328 5.73613 4.86328 6.46484H6.46328C6.46328 6.67598 6.29449 6.79609 6.15 6.79609V5.19609ZM7.43672 6.46484C7.43672 5.73613 6.83191 5.19609 6.15 5.19609V6.79609C6.00551 6.79609 5.83672 6.67598 5.83672 6.46484H7.43672ZM6.88936 7.50341C7.2117 7.2802 7.43672 6.90361 7.43672 6.46484H5.83672C5.83672 6.34053 5.90153 6.24129 5.97848 6.188L6.88936 7.50341ZM7.9752 3.73125H4.3248V5.33125H7.9752V3.73125ZM7.1752 2.34375V4.53125H8.7752V2.34375H7.1752ZM7.40736 2.59687C7.30749 2.59687 7.1752 2.51192 7.1752 2.34375H8.7752C8.7752 1.57207 8.13388 0.996875 7.40736 0.996875V2.59687ZM4.89264 2.59687H7.40736V0.996875H4.89264V2.59687ZM5.1248 2.34375C5.1248 2.51192 4.99252 2.59687 4.89264 2.59687V0.996875C4.16612 0.996875 3.5248 1.57207 3.5248 2.34375H5.1248ZM5.1248 4.53125V2.34375H3.5248V4.53125H5.1248Z" fill="#15181E" mask="url(#path-2-outside-1_372_25143)"/>
</svg>
