<?xml version="1.0" encoding="UTF-8"?>
<svg width="1em" height="1em" viewBox="0 0 20 16" version="1.1" xmlns="http://www.w3.org/2000/svg" xmlns:xlink="http://www.w3.org/1999/xlink">
    <title>pinBox</title>
    <g id="ENS/CLEAR-ROOM" stroke="none" stroke-width="1" fill="none" fill-rule="evenodd">
        <g id="p10" transform="translate(-985.000000, -106.000000)" fill="currentColor">
            <g id="编组-22" transform="translate(368.000000, 83.000000)">
                <g id="pinBox" transform="translate(617.000000, 23.000000)">
                    <path d="M13.5114628,6.1966959 L9.80404415,2.48927722 C9.70624293,2.39147599 9.57834902,2.3433277 9.45045511,2.3433277 C9.3225612,2.3433277 9.19466729,2.39147599 9.09686607,2.48927722 L6.67290036,4.91474756 C6.48933499,4.89368268 6.30426498,4.88465487 6.11919497,4.88465487 C5.01780273,4.88465487 3.9164105,5.24727172 3.01212534,5.97250541 C2.78041167,6.15757541 2.76235606,6.50514591 2.97150021,6.7157947 L5.70542057,9.44971506 L2.46443848,12.6876879 C2.425318,12.7268084 2.39973921,12.7794706 2.39522531,12.835142 L2.34406775,13.394866 C2.33052604,13.5363016 2.44337361,13.6566723 2.58330459,13.6566723 C2.59082776,13.6566723 2.59835093,13.6566723 2.6058741,13.6551677 L3.16559803,13.6040101 C3.22126949,13.5994962 3.27393169,13.5739174 3.31305218,13.5347969 L6.55403426,10.2938148 L9.28795462,13.0277352 C9.38575584,13.1255364 9.51364975,13.1736847 9.64154365,13.1736847 C9.78749317,13.1736847 9.93193806,13.1104901 10.0312439,12.9871101 C10.878353,11.9293522 11.2304374,10.6052741 11.0874971,9.32483042 L13.5114628,6.90086471 C13.7055606,6.70827153 13.7055606,6.39229835 13.5114628,6.1966959 Z" id="路径" fill-rule="nonzero" transform="translate(8.000000, 8.000000) rotate(-45.000000) translate(-8.000000, -8.000000) "></path>
                    <rect id="矩形" x="13.339381" y="6.1954746" width="5.99178778" height="1.28395452" rx="0.641977262"></rect>
                    <rect id="矩形备份-2" x="14.1953507" y="10.0473382" width="5.13581809" height="1.28395452" rx="0.641977262"></rect>
                    <rect id="矩形备份-3" x="11.6274416" y="13.8992017" width="7.70372714" height="1.28395452" rx="0.641977262"></rect>
                </g>
            </g>
        </g>
    </g>
</svg>