<?xml version="1.0" encoding="UTF-8"?>
<svg width="20px" height="20px" viewBox="0 0 20 20" version="1.1" xmlns="http://www.w3.org/2000/svg" xmlns:xlink="http://www.w3.org/1999/xlink">
    <title>Successfully</title>
    <g id="Successfully" stroke="none" stroke-width="1" fill="none" fill-rule="evenodd">
        <g id="编组" transform="translate(0.000000, 0.000000)">
            <polygon id="Fill-1" points="0.000249996876 19.99975 20 19.99975 20 0 0.000249996876 0"></polygon>
            <g transform="translate(0.000000, 0.000375)" fill="#FC774B" id="Fill-2">
                <path d="M9.999875,20.001 C4.48619392,20.001 0,15.5148061 0,9.999875 C0,4.48619392 4.48619392,0 9.999875,0 C11.9123511,0 13.7723278,0.542493219 15.3785578,1.56998038 C15.5348058,1.66872914 15.6435545,1.82247722 15.682304,2.00372495 C15.7223035,2.1837227 15.6898039,2.36997038 15.5898051,2.52746841 C15.4610567,2.72621592 15.2423095,2.84371445 15.0035625,2.84371445 C14.8723141,2.84371445 14.7448157,2.80621492 14.6335671,2.73496581 C13.2523343,1.85122686 11.6498544,1.3837327 9.999875,1.3837327 C5.24993438,1.3837327 1.3837327,5.24868439 1.3837327,9.999875 C1.3837327,14.7523156 5.24993438,18.6172673 9.999875,18.6172673 C14.7510656,18.6172673 18.6172673,14.7523156 18.6172673,9.999875 C18.6172673,8.77364033 18.3335208,7.52240597 17.7947776,6.36992038 L11.3786078,12.80234 C10.9148636,13.2660842 10.2986213,13.521081 9.64237947,13.521081 C8.97738778,13.521081 8.35614555,13.2610842 7.88990138,12.7873402 L5.72242847,10.5786178 C5.42618217,10.2811215 5.42868214,9.79487756 5.72742841,9.49863127 C5.88117649,9.34738316 6.06992413,9.26738416 6.27617155,9.26738416 C6.48116899,9.26738416 6.67366658,9.34738316 6.81991475,9.49113136 L8.76239047,11.4348571 C9.00488744,11.676104 9.32613342,11.8098524 9.66862914,11.8098524 C10.0098749,11.8098524 10.3323708,11.676104 10.5736178,11.4348571 L17.3085336,4.68369145 C17.4535318,4.53744328 17.6460294,4.45744428 17.8497769,4.45744428 C18.0547743,4.45744428 18.2485219,4.53744328 18.3935201,4.68244147 C18.4660192,4.74619067 18.5510181,4.81243984 18.6110174,4.91243859 C19.519756,6.44491944 19.99975,8.20364745 19.99975,9.999875 C19.99975,15.5148061 15.5135561,20.001 9.999875,20.001"></path>
            </g>
        </g>
    </g>
</svg>