<?xml version="1.0" encoding="UTF-8"?>
<svg width="20px" height="20px" viewBox="0 0 20 20" version="1.1" xmlns="http://www.w3.org/2000/svg" xmlns:xlink="http://www.w3.org/1999/xlink">
    <title>Failed</title>
    <g id="Failed" stroke="none" stroke-width="1" fill="none" fill-rule="evenodd">
        <g id="shibai-2" fill="#F83347" fill-rule="nonzero">
            <path d="M18.58,15.13925 C18.3668181,15.4944381 17.9060631,15.6095569 17.550875,15.396375 C17.1956869,15.1831931 17.0805681,14.7224381 17.29375,14.36725 C18.085608,13.0483269 18.5026628,11.5383726 18.5,10 C18.5,5.3055 14.6945,1.5 10,1.5 C5.3055,1.5 1.5,5.3055 1.5,10 C1.5,14.6945 5.3055,18.5 10,18.5 C11.5381557,18.5027228 13.0479219,18.0858451 14.36675,17.29425 C14.5965164,17.1563901 14.8823767,17.1515813 15.1166501,17.2816349 C15.3509234,17.4116886 15.4980182,17.6568464 15.5025251,17.9247599 C15.507032,18.1926734 15.3682664,18.4426401 15.1385,18.5805 C13.5865507,19.5119772 11.8100246,20.0027389 10,20.0000114 C4.47725001,20.0000114 0,15.52275 0,10 C0,4.47725001 4.47725001,0 10,0 C15.52275,0 20,4.47724999 20,10 C20,11.835 19.50425,13.59925 18.58,15.13925 Z M11.01325,10 L13.04,12.02675 C13.2234805,12.2072475 13.2960524,12.4722887 13.230117,12.7210796 C13.1641816,12.9698706 12.9698706,13.1641816 12.7210796,13.230117 C12.4722887,13.2960524 12.2072475,13.2234805 12.02675,13.04 L10,11.01325 L7.97324999,13.04 C7.79275255,13.2234805 7.52771132,13.2960524 7.27892038,13.230117 C7.03012944,13.1641816 6.83581843,12.9698706 6.76988301,12.7210796 C6.7039476,12.4722887 6.77651953,12.2072475 6.95999999,12.02675 L8.98675,10 L6.95999999,7.97324999 C6.77651953,7.79275255 6.7039476,7.52771132 6.76988301,7.27892038 C6.83581843,7.03012944 7.03012944,6.83581843 7.27892038,6.76988301 C7.52771132,6.7039476 7.79275255,6.77651953 7.97324999,6.95999999 L10,8.98675 L12.02675,6.95999999 C12.2072475,6.77651953 12.4722887,6.7039476 12.7210796,6.76988301 C12.9698706,6.83581843 13.1641816,7.03012944 13.230117,7.27892038 C13.2960524,7.52771132 13.2234805,7.79275255 13.04,7.97324999 L11.01325,10 Z" id="形状"></path>
        </g>
    </g>
</svg>