<?xml version="1.0" encoding="UTF-8"?>
<svg width="48px" height="48px" viewBox="0 0 48 48" version="1.1" xmlns="http://www.w3.org/2000/svg" xmlns:xlink="http://www.w3.org/1999/xlink">
    <title>Icon-48</title>
    <defs>
        <linearGradient x1="0%" y1="0%" x2="100%" y2="100%" id="linearGradient-1">
            <stop stop-color="#FC774B" offset="0%"></stop>
            <stop stop-color="#37B8AF" offset="100%"></stop>
        </linearGradient>
    </defs>
    <g id="Page-1" stroke="none" stroke-width="1" fill="none" fill-rule="evenodd">
        <g id="方案一-copy-2备份-2" transform="translate(-1820.000000, -992.000000)">
            <g id="编组-14" transform="translate(1820.000000, 992.000000)">
                <rect id="矩形" fill="url(#linearGradient-1)" x="0" y="0" width="48" height="48" rx="8"></rect>
                <path d="M9.49104661,29.72588 C8.38647711,29.72588 7.49104661,28.8304495 7.49104661,27.72588 L7.49104661,26.60014 C7.49104661,25.4955705 8.38647711,24.60014 9.49104661,24.60014 L12.4337245,24.60014 L12.4337245,16.34866 C12.4337245,15.2440905 13.329155,14.34866 14.4337245,14.34866 L15.3764023,14.34866 C16.4809718,14.34866 17.3764023,15.2440905 17.3764023,16.34866 L17.3764023,29.72588 L9.49104661,29.72588 Z" id="形状结合" fill="#FFFFFF" transform="translate(12.433724, 22.037270) rotate(-45.000000) translate(-12.433724, -22.037270) "></path>
                <path d="M24.0137888,26.6199965 L27.7635017,30.3697094 L17.9285766,40.2046344 C17.147528,40.985683 15.8811981,40.985683 15.1001495,40.2046344 L14.1788637,39.2833487 C13.3978152,38.5023001 13.3978152,37.2359701 14.1788637,36.4549216 L24.0137888,26.6199965 Z M27.7635017,30.3697094 L30.099001,32.7052087 C30.8800496,33.4862573 30.8800496,34.7525872 30.099001,35.5336358 L29.1777153,36.4549216 C28.3966667,37.2359701 27.1303367,37.2359701 26.3492881,36.4549216 L24.0137888,34.1194222 L27.7635017,30.3697094 Z" id="形状结合备份" fill="#FFFFFF"></path>
                <path d="M32.5568766,33.570185 C31.4523071,33.570185 30.5568766,32.6747545 30.5568766,31.570185 L30.5568766,30.444445 C30.5568766,29.3398755 31.4523071,28.444445 32.5568766,28.444445 L35.4995544,28.444445 L35.4995544,20.192965 C35.4995544,19.0883955 36.3949849,18.192965 37.4995544,18.192965 L38.4422323,18.192965 C39.5468018,18.192965 40.4422323,19.0883955 40.4422323,20.192965 L40.4422323,33.570185 L32.5568766,33.570185 Z" id="形状结合" fill="#FFFFFF" transform="translate(35.499554, 25.881575) scale(-1, -1) rotate(-45.000000) translate(-35.499554, -25.881575) "></path>
                <path d="M17.9285766,14.6423783 C17.147528,13.8613298 17.147528,12.5949998 17.9285766,11.8139512 L18.8498624,10.8926655 C19.630911,10.1116169 20.8972409,10.1116169 21.6782895,10.8926655 L24.0137888,13.2281648 L30.099001,7.14295259 C30.8800496,6.36190401 32.1463795,6.36190401 32.9274281,7.14295259 L33.8487139,8.06423835 C34.6297625,8.84528693 34.6297625,10.1116169 33.8487139,10.8926655 L24.0137888,20.7275905 L20.2640759,16.9778777 L17.9285766,14.6423783 Z" id="形状结合" fill="#FFFFFF"></path>
            </g>
        </g>
    </g>
</svg>