<svg width="149" height="161" viewBox="0 0 149 161" fill="none" xmlns="http://www.w3.org/2000/svg">
    <path fill-rule="evenodd" clip-rule="evenodd"
        d="M70.0692 67.518L81.4395 67.518L81.4395 65.8125L70.0692 65.8125L70.0692 67.518Z" fill="black" />
    <path fill-rule="evenodd" clip-rule="evenodd"
        d="M50.0291 67.518L61.3994 67.518L61.3994 65.8125L50.0291 65.8125L50.0291 67.518Z" fill="black" />
    <path fill-rule="evenodd" clip-rule="evenodd"
        d="M7.96949 148.662L7.96949 126.934C7.96949 121.337 12.6869 116.659 18.6977 116.601C18.7678 116.601 18.8298 116.601 18.9176 116.601C20.9044 116.613 48.8981 116.769 52.0462 116.598C52.9422 116.549 53.7075 116.138 54.2662 115.749C54.8539 115.339 55.4164 114.808 55.9359 114.247C56.9772 113.122 58.0317 111.668 58.9829 110.225C59.0011 110.198 59.0154 110.185 59.0556 110.173C59.1131 110.155 59.212 110.146 59.325 110.176C59.4186 110.201 59.4727 110.239 59.4951 110.258L59.4951 148.662C59.4951 154.294 54.7185 158.995 48.6547 158.995L18.8099 158.995C12.7461 158.995 7.96949 154.294 7.96949 148.662ZM57.3132 109.124C58.4703 107.369 61.4951 108.152 61.4951 110.254L61.4951 148.662C61.4951 155.474 55.7463 160.995 48.6547 160.995L18.8099 160.995C11.7183 160.995 5.96949 155.474 5.96949 148.662L5.96949 126.934C5.96949 120.165 11.6474 114.669 18.6784 114.601C18.7657 114.601 18.8417 114.601 18.929 114.601C20.9795 114.613 48.8689 114.768 51.9374 114.601C53.3737 114.523 55.4576 111.939 57.3132 109.124Z"
        fill="white" />
    <path
        d="M69.0811 34.5927C69.0811 32.4901 72.0647 31.7297 73.1526 33.529C76.1619 38.5065 80.1653 44.2333 82.7265 44.373C87.1073 44.6119 126.922 44.3906 129.852 44.3739C129.977 44.3732 130.086 44.3727 130.211 44.3739C140.249 44.4709 148.355 52.3261 148.355 62.002V87.5757C148.355 97.3119 140.147 105.205 130.023 105.205H87.4133C77.2887 105.205 69.0811 97.3119 69.0811 87.5757V34.5927Z"
        fill="#AA7CF7" />
    <rect x="104.172" y="83.1719" width="12.8342" height="2.75019" rx="1.37509" fill="black" />
    <rect x="124.34" y="83.1719" width="12.8342" height="2.75019" rx="1.37509" fill="black" />
    <rect x="20.8926" y="143.84" width="7.67495" height="1.70554" rx="0.852772" fill="white" />
    <rect x="34.9639" y="143.84" width="7.67495" height="1.70554" rx="0.852772" fill="white" />
    <path
        d="M75.5363 1L68.2217 13.2645L75.5363 17.7653L82.9634 13.6021L75.5363 1ZM75.5363 1V17.6527M75.5363 19.453L68.2217 14.7273L75.5363 25.304M75.5363 19.453L82.9634 14.9523L75.5363 25.304M75.5363 19.453V25.304"
        stroke="#D6C3F7" stroke-width="0.3" />
    <g clip-path="url(#clip0_7427_31138)">
        <path
            d="M19.6138 4.95312L21.4578 12.0264L28.0263 13.8184L21.4291 15.5388L19.6138 22.6306L17.9442 15.5388L11.2002 13.8184L17.5634 12.0264L19.6138 4.95312Z"
            fill="#B27AFF" />
        <path
            d="M19.6142 22.7441C19.5615 22.7441 19.5156 22.7072 19.5041 22.6553L17.8517 15.6316L11.1719 13.9285C11.1215 13.9158 11.0859 13.8708 11.0859 13.8177C11.0859 13.7658 11.1192 13.7197 11.1696 13.7047L17.4721 11.93L19.5041 4.91902C19.5179 4.8694 19.5638 4.83594 19.6142 4.83594H19.6154C19.667 4.83594 19.7117 4.87171 19.7243 4.92248L21.5522 11.9311L28.0565 13.7058C28.107 13.7197 28.1414 13.7658 28.1414 13.8177C28.1414 13.8697 28.1058 13.9158 28.0554 13.9285L21.5224 15.6316L19.7243 22.6576C19.7117 22.7084 19.6658 22.7441 19.6131 22.7441H19.6142ZM11.6455 13.8108L17.9732 15.4251C18.0145 15.4355 18.0466 15.4689 18.057 15.5105L19.6188 22.1487L21.3183 15.5093C21.3286 15.4689 21.3607 15.4366 21.4008 15.4262L27.5795 13.8154L21.4284 12.1365C21.3882 12.1261 21.3584 12.095 21.347 12.0546L19.6073 5.38403L17.6739 12.0569C17.6625 12.095 17.6327 12.125 17.5948 12.1354L11.6455 13.8108Z"
            fill="#B27AFF" />
    </g>
    <path
        d="M118.576 32.9782L118.525 32.8445C118.522 32.8346 118.146 31.8527 117.185 30.8843C116.3 29.9917 114.723 28.9276 112.234 28.9276H112.14L112.183 28.8423C113.899 25.4846 112.933 23.6341 112.355 22.5285C112.293 22.4089 112.234 22.2956 112.183 22.19L112.142 22.1059H112.234C114.725 22.1059 116.304 21.04 117.188 20.1457C118.148 19.1767 118.522 18.1983 118.525 18.1884L118.575 18.0547L118.631 18.186C119.599 20.4539 121.109 21.4299 122.206 21.849C123.394 22.3032 124.362 22.2209 124.372 22.2197L124.504 22.2075L124.422 22.3137C124.416 22.3219 123.799 23.1339 123.494 24.3253C123.214 25.421 123.147 27.0724 124.422 28.7186L124.505 28.8248L124.372 28.8126C124.363 28.8114 123.39 28.7303 122.202 29.1856C121.106 29.6053 119.598 30.5813 118.632 32.8469L118.576 32.9782ZM112.328 28.8114C114.805 28.8377 116.38 29.9065 117.269 30.8049C118.044 31.5871 118.444 32.3787 118.579 32.6782C119.564 30.4599 121.068 29.4944 122.166 29.0747C123.126 28.7075 123.95 28.6841 124.256 28.6912C123.029 27.0391 123.102 25.3924 123.384 24.292C123.634 23.3207 124.087 22.5968 124.261 22.3417C123.959 22.3487 123.131 22.3271 122.166 21.9582C121.068 21.5385 119.564 20.573 118.579 18.3547C118.444 18.6542 118.044 19.4458 117.269 20.228C116.38 21.1264 114.803 22.1958 112.327 22.2215C112.367 22.3015 112.41 22.3855 112.456 22.4731C113.039 23.5898 114.012 25.4519 112.328 28.8108V28.8114Z"
        fill="#E8E8E8" />
    <path
        d="M80.6275 125.931L80.577 125.798C80.5736 125.788 80.1974 124.806 79.2368 123.837C78.3519 122.945 76.7743 121.881 74.2855 121.881H74.1914L74.235 121.795C75.9508 118.438 74.9845 116.587 74.407 115.482C74.3445 115.362 74.2855 115.249 74.2344 115.143L74.1937 115.059H74.2855C76.7772 115.059 78.3554 113.993 79.2402 113.099C80.1997 112.13 80.5736 111.151 80.577 111.141L80.6269 111.008L80.6831 111.139C81.6505 113.407 83.1611 114.383 84.2581 114.802C85.4458 115.256 86.4138 115.174 86.4236 115.173L86.5555 115.161L86.474 115.267C86.4677 115.275 85.8512 116.087 85.5461 117.278C85.2657 118.374 85.1986 120.026 86.474 121.672L86.5566 121.778L86.4241 121.766C86.4144 121.765 85.4418 121.683 84.2535 122.139C83.1582 122.558 81.65 123.534 80.6837 125.8L80.6275 125.931ZM74.3795 121.765C76.8563 121.791 78.4322 122.86 79.3211 123.758C80.0953 124.54 80.4962 125.332 80.6309 125.631C81.6161 123.413 83.1198 122.448 84.2174 122.028C85.178 121.661 86.0021 121.637 86.3077 121.644C85.0811 119.992 85.1533 118.346 85.436 117.245C85.6855 116.274 86.1385 115.55 86.3123 115.295C86.0112 115.302 85.1831 115.28 84.2174 114.911C83.1198 114.492 81.6161 113.526 80.6309 111.308C80.4962 111.607 80.0953 112.399 79.3211 113.181C78.4317 114.079 76.8552 115.149 74.3784 115.175C74.4185 115.255 74.4621 115.339 74.508 115.426C75.0912 116.543 76.0638 118.405 74.3795 121.764V121.765Z"
        fill="#E8E8E8" />
    <g clip-path="url(#clip1_7427_31138)">
        <path d="M11.1822 50.6094L9.26953 57.1895H12.9025L11.1822 50.6094Z" fill="#FC774B" />
        <path
            d="M12.9028 57.3402H9.26837C9.22216 57.3402 9.17744 57.3177 9.14911 57.2804C9.12079 57.243 9.11184 57.1936 9.12526 57.1487L11.0394 50.5686C11.0573 50.5043 11.1169 50.4609 11.1825 50.4609H11.184C11.2511 50.4609 11.3092 50.5073 11.3256 50.5731L13.0474 57.1532C13.0594 57.1981 13.0489 57.246 13.0206 57.2818C12.9923 57.3192 12.9491 57.3402 12.9028 57.3402ZM9.46814 57.0411H12.7105L11.1751 51.1698L9.46814 57.0411Z"
            fill="#FC774B" />
        <path d="M11.1822 72.4825L9.26953 65.9023H12.9025L11.1822 72.4825Z" fill="#FC774B" />
        <path
            d="M11.182 72.6331C11.1164 72.6331 11.0568 72.5898 11.0389 72.5255L9.12624 65.9453C9.11282 65.9005 9.12177 65.8511 9.15009 65.8137C9.17841 65.7763 9.22165 65.7539 9.26935 65.7539H12.9038C12.95 65.7539 12.9933 65.7748 13.0216 65.8122C13.0499 65.8496 13.0589 65.896 13.0484 65.9408L11.3266 72.521C11.3102 72.5853 11.2521 72.6316 11.185 72.6331H11.1835H11.182ZM9.46762 66.053L11.1745 71.9243L12.71 66.053H9.46762Z"
            fill="#FC774B" />
        <path d="M22.0237 61.7202L16.5049 60.2188V63.1544L22.0237 61.7202Z" fill="#FC774B" />
        <path
            d="M16.5045 63.3042C16.4717 63.3042 16.439 63.2938 16.4136 63.2728C16.3763 63.2444 16.3555 63.201 16.3555 63.1547V60.219C16.3555 60.1727 16.3778 60.1278 16.4136 60.1009C16.4509 60.0725 16.4986 60.0635 16.5433 60.0755L22.0621 61.5769C22.1277 61.5949 22.1724 61.6547 22.1724 61.722C22.1724 61.7893 22.1262 61.8491 22.0606 61.8656L16.5418 63.2997C16.5299 63.3027 16.5165 63.3042 16.5045 63.3042ZM16.6536 60.4135V62.9603L21.4419 61.716L16.6536 60.4135Z"
            fill="#FC774B" />
        <path d="M0.149414 61.7188L5.66821 63.1216V60.168L0.149414 61.7188Z" fill="#FC774B" />
        <path
            d="M5.66787 63.272C5.65594 63.272 5.64402 63.272 5.6306 63.2676L0.111807 61.8648C0.0462136 61.8483 0 61.79 0 61.7212C0 61.6539 0.043232 61.5941 0.108825 61.5747L5.62762 60.0253C5.67234 60.0119 5.72004 60.0224 5.75731 60.0508C5.79458 60.0792 5.81694 60.1226 5.81694 60.1704V63.124C5.81694 63.1704 5.79607 63.2137 5.7588 63.2421C5.73197 63.2631 5.70066 63.2735 5.66787 63.2735V63.272ZM0.727491 61.7123L5.51879 62.9311V60.3663L0.727491 61.7123Z"
            fill="#FC774B" />
    </g>
    <g clip-path="url(#clip2_7427_31138)">
        <path
            d="M141.626 136.227L137.41 143.743L141.303 150.814L134.547 146.674L127.34 151.107L131.714 143.724L127.621 136.563L134.243 140.443L141.626 136.227Z"
            fill="#DAC2FB" />
        <path
            d="M127.339 151.245C127.305 151.245 127.271 151.231 127.246 151.204C127.204 151.159 127.196 151.09 127.227 151.035L131.559 143.722L127.507 136.634C127.477 136.581 127.485 136.512 127.525 136.468C127.566 136.424 127.632 136.413 127.685 136.445L134.244 140.288L141.563 136.107C141.616 136.077 141.68 136.088 141.722 136.132C141.763 136.176 141.771 136.243 141.742 136.296L137.564 143.744L141.418 150.746C141.449 150.8 141.44 150.869 141.397 150.913C141.355 150.957 141.289 150.965 141.238 150.933L134.549 146.835L127.408 151.226C127.387 151.238 127.364 151.245 127.341 151.245H127.339ZM127.986 136.937L131.826 143.655C131.851 143.699 131.851 143.754 131.826 143.798L127.731 150.708L134.479 146.558C134.52 146.534 134.571 146.532 134.614 146.558L140.941 150.436L137.296 143.814C137.272 143.771 137.272 143.719 137.296 143.677L141.272 136.589L134.306 140.568C134.267 140.592 134.218 140.59 134.178 140.568L127.986 136.937Z"
            fill="#DAC2FB" />
        <path
            d="M134.483 133.145L136.604 141.565L144.158 143.698L136.57 145.746L134.483 154.188L132.563 145.746L124.808 143.698L132.125 141.565L134.483 133.145Z"
            fill="#DAC2FB" />
        <path
            d="M134.483 154.327C134.423 154.327 134.37 154.283 134.357 154.221L132.456 145.86L124.775 143.832C124.717 143.816 124.676 143.763 124.676 143.7C124.676 143.638 124.714 143.583 124.772 143.565L132.02 141.453L134.357 133.107C134.373 133.048 134.425 133.008 134.483 133.008H134.485C134.544 133.008 134.595 133.05 134.61 133.111L136.712 141.454L144.192 143.567C144.25 143.583 144.29 143.638 144.29 143.7C144.29 143.762 144.249 143.816 144.191 143.832L136.679 145.859L134.611 154.223C134.597 154.283 134.544 154.326 134.483 154.326V154.327ZM125.319 143.691L132.596 145.613C132.644 145.625 132.681 145.665 132.692 145.715L134.489 153.617L136.443 145.713C136.455 145.665 136.492 145.627 136.538 145.615L143.643 143.697L136.57 141.698C136.523 141.686 136.489 141.649 136.476 141.601L134.475 133.66L132.252 141.604C132.239 141.649 132.205 141.685 132.161 141.697L125.319 143.691Z"
            fill="#DAC2FB" />
    </g>
    <defs>
        <clipPath id="clip0_7427_31138">
            <rect width="17.0554" height="17.9082" fill="white" transform="translate(11.0859 4.83594)" />
        </clipPath>
        <clipPath id="clip1_7427_31138">
            <rect width="22.1721" height="22.1721" fill="white" transform="translate(0 50.4609)" />
        </clipPath>
        <clipPath id="clip2_7427_31138">
            <rect width="19.6138" height="21.3193" fill="white" transform="translate(124.676 133.008)" />
        </clipPath>
    </defs>
</svg>