<svg width="14" height="13" viewBox="0 0 14 13" fill="none" xmlns="http://www.w3.org/2000/svg">
<g clip-path="url(#clip0_9_10496)">
<path d="M10.0269 2.51367C9.93687 2.70138 9.74504 2.831 9.52295 2.831C9.30086 2.831 9.10903 2.70138 9.019 2.51367H5.10112C5.01109 2.70138 4.81926 2.831 4.59717 2.831C4.37508 2.831 4.18325 2.70138 4.09321 2.51367H2.33105C2.02256 2.51367 1.77246 2.76377 1.77246 3.07227V4.46418C1.81483 4.45436 1.8582 4.4495 1.90169 4.44971L12.4873 4.49274V3.07227C12.4873 2.76377 12.2372 2.51367 11.9287 2.51367H10.0269ZM10.0815 1.39648H11.9287C12.8542 1.39648 13.6045 2.14675 13.6045 3.07227V10.6133C13.6045 11.5388 12.8542 12.2891 11.9287 12.2891H2.33105C1.40554 12.2891 0.655273 11.5388 0.655273 10.6133V3.07227C0.655273 2.14675 1.40554 1.39648 2.33105 1.39648H4.03857V0.571289C4.03857 0.262793 4.28867 0.0126953 4.59717 0.0126953C4.90566 0.0126953 5.15576 0.262793 5.15576 0.571289V1.39648H8.96436V0.571289C8.96436 0.262793 9.21445 0.0126953 9.52295 0.0126953C9.83145 0.0126953 10.0815 0.262793 10.0815 0.571289V1.39648ZM1.77246 5.5524V10.6133C1.77246 10.9218 2.02256 11.1719 2.33105 11.1719H11.9287C12.2372 11.1719 12.4873 10.9218 12.4873 10.6133V5.60994L1.89714 5.56689C1.85517 5.56675 1.81335 5.56188 1.77246 5.5524ZM4.12109 9.15967C3.8126 9.15967 3.5625 8.90957 3.5625 8.60107C3.5625 8.29258 3.8126 8.04248 4.12109 8.04248H10.102C10.4105 8.04248 10.6606 8.29258 10.6606 8.60107C10.6606 8.90957 10.4105 9.15967 10.102 9.15967H4.12109Z" fill="#878787"/>
</g>
<defs>
<clipPath id="clip0_9_10496">
<rect width="13" height="13" fill="white" transform="translate(0.642578)"/>
</clipPath>
</defs>
</svg>
