<?xml version="1.0" encoding="UTF-8"?>
<svg width="18px" height="18px" viewBox="0 0 18 18" version="1.1" xmlns="http://www.w3.org/2000/svg" xmlns:xlink="http://www.w3.org/1999/xlink">
    <title>Loading</title>
    <g id="Loading" stroke="none" stroke-width="1" fill="none" fill-rule="evenodd">
        <g id="icon/loading" fill="#FC774B" fill-rule="nonzero">
            <path d="M9,0 C8.64878048,0 8.34146341,0.307317067 8.34146341,0.658536586 L8.34146341,3.73170731 C8.34146341,4.08292683 8.64878048,4.3902439 9,4.3902439 C9.35121952,4.3902439 9.65853659,4.08292683 9.65853659,3.73170731 L9.65853659,0.658536586 C9.65853659,0.307317067 9.35121952,0 9,0 Z M12.7317073,5.92682927 C12.9073171,5.92682927 13.0829268,5.88292684 13.2146341,5.7512195 L15.3658537,3.6 C15.6292683,3.33658536 15.6292683,2.94146341 15.3658537,2.67804878 C15.102439,2.41463414 14.7073171,2.41463414 14.4439024,2.67804878 L12.2926829,4.82926828 C12.0292683,5.09268292 12.0292683,5.48780487 12.2926829,5.7512195 C12.3804878,5.88292682 12.5560976,5.92682927 12.7317073,5.92682927 L12.7317073,5.92682927 Z M17.3414634,8.34146341 L14.2682927,8.34146341 C13.9170732,8.34146341 13.6097561,8.64878048 13.6097561,9 C13.6097561,9.35121952 13.9170732,9.65853659 14.2682927,9.65853659 L17.3414634,9.65853659 C17.6926829,9.65853659 18,9.35121952 18,9 C18,8.64878048 17.6926829,8.34146341 17.3414634,8.34146341 Z M13.1707317,12.2487805 C12.9073171,11.9853659 12.5121951,11.9853659 12.2487805,12.2487805 C11.9853659,12.5121951 11.9853659,12.9073171 12.2487805,13.1707317 L14.4,15.3219512 C14.5317073,15.4536585 14.7073171,15.497561 14.8829268,15.497561 C15.0585366,15.497561 15.2341464,15.4536585 15.3658537,15.3219512 C15.6292683,15.0585366 15.6292683,14.6634146 15.3658537,14.4 L13.1707317,12.2487805 L13.1707317,12.2487805 Z M9,13.6097561 C8.64878048,13.6097561 8.34146341,13.9170732 8.34146341,14.2682927 L8.34146341,17.3414634 C8.34146341,17.6926829 8.64878048,18 9,18 C9.35121952,18 9.65853659,17.6926829 9.65853659,17.3414634 L9.65853659,14.2682927 C9.65853659,13.9170732 9.35121952,13.6097561 9,13.6097561 Z M4.82926828,12.2487805 L2.67804878,14.4 C2.41463414,14.6634146 2.41463414,15.0585366 2.67804878,15.3219512 C2.80975609,15.4536585 2.98536584,15.497561 3.16097561,15.497561 C3.33658538,15.497561 3.51219513,15.4536585 3.64390243,15.3219512 L5.79512196,13.1707317 C6.05853659,12.9073171 6.05853659,12.5121951 5.79512196,12.2487805 C5.53170732,11.9853659 5.04878048,11.9853659 4.82926828,12.2487805 Z M4.3902439,9 C4.3902439,8.64878048 4.08292683,8.34146341 3.73170731,8.34146341 L0.658536586,8.34146341 C0.307317067,8.34146341 0,8.64878048 0,9 C0,9.35121952 0.307317067,9.65853659 0.658536586,9.65853659 L3.73170731,9.65853659 C4.08292683,9.65853659 4.3902439,9.35121952 4.3902439,9 Z M3.55609756,2.63414634 C3.29268293,2.37073171 2.89756098,2.37073171 2.63414634,2.63414634 C2.37073171,2.89756098 2.37073171,3.29268293 2.63414634,3.55609756 L4.78536585,5.70731707 C4.91707317,5.83902439 5.09268292,5.88292682 5.26829269,5.88292682 C5.44390246,5.88292682 5.61951221,5.83902439 5.7512195,5.70731707 C6.01463414,5.44390244 6.01463414,5.04878048 5.7512195,4.78536585 L3.55609756,2.63414634 Z" id="形状"></path>
        </g>
    </g>
</svg>