<svg width="15" height="14" viewBox="0 0 15 14" fill="none" xmlns="http://www.w3.org/2000/svg">
<path d="M11.7498 11.458C12.1394 11.458 12.473 11.3192 12.7507 11.0415C13.0284 10.7638 13.167 10.4305 13.1665 10.0413C13.1665 9.65176 13.0277 9.31813 12.75 9.04047C12.4723 8.7628 12.1389 8.6242 11.7498 8.62468C11.3603 8.62468 11.0266 8.76351 10.749 9.04118C10.4713 9.31884 10.3327 9.65223 10.3332 10.0413C10.3332 10.4309 10.472 10.7646 10.7497 11.0422C11.0273 11.3199 11.3607 11.4585 11.7498 11.458ZM11.6082 13.583C11.4429 13.583 11.2982 13.5299 11.174 13.4236C11.0498 13.3174 10.9702 13.1816 10.9353 13.0163L10.829 12.5205C10.6873 12.4615 10.5546 12.3996 10.4309 12.3349C10.3072 12.2702 10.1802 12.1904 10.0498 12.0955L9.5363 12.2549C9.38282 12.3021 9.23242 12.2962 9.08509 12.2372C8.93775 12.1781 8.82253 12.0837 8.73942 11.9538L8.59776 11.7059C8.51512 11.5643 8.4856 11.4108 8.50921 11.2455C8.53282 11.0802 8.60956 10.9445 8.73942 10.8382L9.12901 10.5018C9.10539 10.3601 9.09359 10.2066 9.09359 10.0413C9.09359 9.87606 9.10539 9.72259 9.12901 9.58093L8.73942 9.24447C8.60956 9.13822 8.53282 9.00552 8.50921 8.84638C8.4856 8.68724 8.51512 8.53661 8.59776 8.39447L8.75713 8.12884C8.83977 7.99898 8.95192 7.90454 9.09359 7.84551C9.23526 7.78648 9.38282 7.78058 9.5363 7.8278L10.0498 7.98718C10.1797 7.89273 10.3065 7.81316 10.4302 7.74847C10.5539 7.68377 10.6869 7.62168 10.829 7.56218L10.9353 7.04863C10.9707 6.88336 11.0502 6.75043 11.174 6.64984C11.2977 6.54926 11.4424 6.4992 11.6082 6.49968H11.8915C12.0568 6.49968 12.2015 6.5528 12.3257 6.65905C12.4499 6.7653 12.5295 6.90106 12.5644 7.06634L12.6707 7.56218C12.8123 7.6212 12.945 7.68306 13.0688 7.74776C13.1925 7.81245 13.3195 7.89226 13.4498 7.98718L13.9634 7.8278C14.1169 7.78058 14.2675 7.78648 14.4153 7.84551C14.5631 7.90454 14.6781 7.99898 14.7603 8.12884L14.9019 8.37676C14.9846 8.51843 15.0141 8.6719 14.9905 8.83718C14.9669 9.00245 14.8901 9.13822 14.7603 9.24447L14.3707 9.58093C14.3943 9.72259 14.4061 9.87606 14.4061 10.0413C14.4061 10.2066 14.3943 10.3601 14.3707 10.5018L14.7603 10.8382C14.8901 10.9445 14.9669 11.0774 14.9905 11.237C15.0141 11.3966 14.9846 11.547 14.9019 11.6882L14.7425 11.9538C14.6599 12.0837 14.5478 12.1781 14.4061 12.2372C14.2644 12.2962 14.1169 12.3021 13.9634 12.2549L13.4498 12.0955C13.32 12.19 13.1932 12.2695 13.0695 12.3342C12.9457 12.3989 12.8128 12.461 12.6707 12.5205L12.5644 13.0341C12.529 13.1993 12.4494 13.3323 12.3257 13.4328C12.202 13.5334 12.0573 13.5835 11.8915 13.583H11.6082ZM1.83317 12.1663C1.44359 12.1663 1.10996 12.0275 0.832297 11.7498C0.55463 11.4722 0.416033 11.1388 0.416505 10.7497V2.24968C0.416505 1.86009 0.555338 1.52647 0.833005 1.2488C1.11067 0.971134 1.44406 0.832537 1.83317 0.833009H5.4988C5.68769 0.833009 5.86784 0.868426 6.03926 0.939259C6.21067 1.01009 6.36107 1.11044 6.49046 1.2403L7.49984 2.24968H13.1665C13.5561 2.24968 13.8897 2.38851 14.1674 2.66618C14.445 2.94384 14.5836 3.27723 14.5832 3.66634V5.96843C14.17 5.67329 13.7214 5.45181 13.2373 5.30401C12.7533 5.1562 12.2575 5.08254 11.7498 5.08301C10.3686 5.08301 9.19677 5.5642 8.23438 6.52659C7.27199 7.48898 6.79103 8.66056 6.7915 10.0413C6.7915 10.4191 6.82999 10.7851 6.90696 11.1393C6.98394 11.4934 7.10482 11.8358 7.26963 12.1663H1.83317Z" fill="#E7E8EC"/>
</svg>
