<svg width="48" height="48" viewBox="0 0 48 48" fill="none" xmlns="http://www.w3.org/2000/svg">
    <rect width="48" height="48" fill="#979797" fill-opacity="0.2" />
    <mask id="mask0_4498_143258" style="mask-type:luminance" maskUnits="userSpaceOnUse" x="0" y="0" width="48"
        height="48">
        <rect width="48" height="48" fill="white" />
    </mask>
    <g mask="url(#mask0_4498_143258)">
    </g>
    <path
        d="M10 11.3353C10 10.6814 10.8289 10.3955 11.2318 10.9107C12.7492 12.8509 15.145 15.8858 15.2843 15.8858C15.4892 15.8858 31.0991 15.8858 31.0991 15.8858V15.8858C31.0991 15.8858 31.0991 15.8858 31.0991 15.8858C34.6044 15.8858 37.4461 18.6184 37.4461 21.9893V30.8434C37.4461 34.2143 34.6044 36.9469 31.0991 36.9469H16.347C12.8416 36.9469 10 34.2143 10 30.8434V11.3353Z"
        fill="#979797" fill-opacity="0.25" />
    <path
        d="M15.8125 36.8647C15.8125 34.465 17.521 32.6555 19.9635 32.6555C22.4061 32.6555 35.7777 32.6555 35.7777 32.6555V32.6555C35.7777 32.6555 35.7777 32.6555 35.7777 32.6555C35.9998 32.6555 37.266 31.7584 37.266 31.9766C37.266 34.1581 34.3797 37.0005 32.1592 37.0005L15.8125 36.8647Z"
        fill="#979797" fill-opacity="0.15" />
    <g filter="url(#filter0_d_4498_143258)">
        <path
            d="M30.1883 22.9652C30.4694 22.9652 30.7032 23.1964 30.6344 23.4689C30.6036 23.5906 30.5617 23.7101 30.5088 23.8261C30.3845 24.099 30.2022 24.347 29.9724 24.5559C29.7426 24.7648 29.4698 24.9305 29.1696 25.0436C28.8693 25.1567 28.5475 25.2148 28.2226 25.2148C27.8976 25.2148 27.5758 25.1567 27.2756 25.0436C26.9753 24.9305 26.7025 24.7648 26.4727 24.5559C26.2429 24.347 26.0606 24.099 25.9363 23.8261C25.8834 23.7101 25.8415 23.5906 25.8107 23.4689C25.7419 23.1964 25.9758 22.9652 26.2568 22.9652V22.9652C26.5379 22.9652 26.7572 23.2023 26.8709 23.4593C26.8728 23.4635 26.8747 23.4678 26.8766 23.472C26.9498 23.6327 27.0571 23.7787 27.1924 23.9017C27.3277 24.0246 27.4883 24.1222 27.665 24.1888C27.8418 24.2553 28.0312 24.2896 28.2226 24.2896C28.4139 24.2896 28.6033 24.2553 28.7801 24.1888C28.9568 24.1222 29.1174 24.0246 29.2527 23.9017C29.388 23.7787 29.4953 23.6327 29.5685 23.472C29.5704 23.4678 29.5723 23.4635 29.5742 23.4593C29.6879 23.2023 29.9072 22.9652 30.1883 22.9652V22.9652Z"
            fill="black" fill-opacity="0.4" shape-rendering="crispEdges" />
    </g>
    <path
        d="M30 11.9759C30 10.8846 30.9888 10 32.2086 10H34.7914C36.0112 10 37 10.8846 37 11.9759V16.6538C37 16.9612 36.5535 17.1148 36.3081 16.8997C35.8472 16.496 35.2131 16.004 34.5862 15.7225C34.0595 15.486 33.105 15.3531 32.2026 15.2784C30.989 15.178 30 14.2995 30 13.2092V11.9759Z"
        fill="#979797" fill-opacity="0.25" />
    <defs>
        <filter id="filter0_d_4498_143258" x="21.7986" y="22.9648" width="12.8479" height="10.25"
            filterUnits="userSpaceOnUse" color-interpolation-filters="sRGB">
            <feFlood flood-opacity="0" result="BackgroundImageFix" />
            <feColorMatrix in="SourceAlpha" type="matrix" values="0 0 0 0 0 0 0 0 0 0 0 0 0 0 0 0 0 0 127 0"
                result="hardAlpha" />
            <feOffset dy="4" />
            <feGaussianBlur stdDeviation="2" />
            <feComposite in2="hardAlpha" operator="out" />
            <feColorMatrix type="matrix" values="0 0 0 0 0 0 0 0 0 0 0 0 0 0 0 0 0 0 0.25 0" />
            <feBlend mode="normal" in2="BackgroundImageFix" result="effect1_dropShadow_4498_143258" />
            <feBlend mode="normal" in="SourceGraphic" in2="effect1_dropShadow_4498_143258" result="shape" />
        </filter>
    </defs>
</svg>