<svg width="14" height="14" viewBox="0 0 14 14" fill="none" xmlns="http://www.w3.org/2000/svg">
    <mask id="path-1-inside-1_21829_14155" fill="white">
        <path fill-rule="evenodd" clip-rule="evenodd"
            d="M2.14443 10.2315C2.14443 10.9967 3.18569 11.617 4.47016 11.617C5.75463 11.617 6.7959 10.9967 6.7959 10.2315C6.7959 10.2267 6.79586 10.2219 6.79578 10.2171L6.79578 9.53868L6.48472 9.53868C6.08258 9.12456 5.33099 8.84595 4.47016 8.84595C3.60934 8.84595 2.85775 9.12456 2.45561 9.53868L2.14431 9.53868L2.14431 10.2315L2.14443 10.2315C2.14443 10.2315 2.14443 10.2315 2.14443 10.2315Z" />
    </mask>
    <path fill-rule="evenodd" clip-rule="evenodd"
        d="M2.14443 10.2315C2.14443 10.9967 3.18569 11.617 4.47016 11.617C5.75463 11.617 6.7959 10.9967 6.7959 10.2315C6.7959 10.2267 6.79586 10.2219 6.79578 10.2171L6.79578 9.53868L6.48472 9.53868C6.08258 9.12456 5.33099 8.84595 4.47016 8.84595C3.60934 8.84595 2.85775 9.12456 2.45561 9.53868L2.14431 9.53868L2.14431 10.2315L2.14443 10.2315C2.14443 10.2315 2.14443 10.2315 2.14443 10.2315Z"
        fill="#FFAB90" />
    <path
        d="M6.79578 10.2171L6.49573 10.2171L6.49582 10.2223L6.79578 10.2171ZM6.79578 9.53868L7.09578 9.53868L7.09578 9.23868L6.79578 9.23868L6.79578 9.53868ZM6.48472 9.53868L6.2695 9.74768L6.35787 9.83868L6.48472 9.83868L6.48472 9.53868ZM2.45561 9.53868L2.45561 9.83868L2.58246 9.83868L2.67083 9.74768L2.45561 9.53868ZM2.14431 9.53868L2.14431 9.23868L1.84431 9.23868L1.84431 9.53868L2.14431 9.53868ZM2.14431 10.2315L1.84431 10.2315L1.84431 10.5315L2.14431 10.5315L2.14431 10.2315ZM2.14443 10.2315L2.44443 10.2315L2.44443 9.93145L2.14443 9.93145L2.14443 10.2315ZM4.47016 11.317C3.87258 11.317 3.34614 11.1721 2.97916 10.9535C2.60588 10.7311 2.44443 10.4663 2.44443 10.2315L1.84443 10.2315C1.84443 10.7619 2.20361 11.1899 2.67208 11.4689C3.14685 11.7518 3.78328 11.917 4.47016 11.917L4.47016 11.317ZM6.4959 10.2315C6.4959 10.4663 6.33445 10.7311 5.96116 10.9535C5.59419 11.1721 5.06775 11.317 4.47016 11.317L4.47016 11.917C5.15705 11.917 5.79347 11.7518 6.26825 11.4689C6.73671 11.1899 7.0959 10.7619 7.0959 10.2315L6.4959 10.2315ZM6.49582 10.2223C6.49587 10.2253 6.4959 10.2284 6.4959 10.2315L7.0959 10.2315C7.0959 10.225 7.09584 10.2185 7.09573 10.212L6.49582 10.2223ZM6.49578 9.53868L6.49578 10.2171L7.09578 10.2171L7.09578 9.53868L6.49578 9.53868ZM6.48472 9.83868L6.79578 9.83868L6.79578 9.23868L6.48472 9.23868L6.48472 9.83868ZM4.47016 9.14595C5.27894 9.14595 5.94131 9.40971 6.2695 9.74768L6.69994 9.32968C6.22385 8.83941 5.38303 8.54595 4.47016 8.54595L4.47016 9.14595ZM2.67083 9.74768C2.99902 9.40971 3.66138 9.14595 4.47016 9.14595L4.47016 8.54595C3.5573 8.54595 2.71647 8.83941 2.24039 9.32968L2.67083 9.74768ZM2.14431 9.83868L2.45561 9.83868L2.45561 9.23868L2.14431 9.23868L2.14431 9.83868ZM2.44431 10.2315L2.44431 9.53868L1.84431 9.53868L1.84431 10.2315L2.44431 10.2315ZM2.14443 9.93145L2.14431 9.93145L2.14431 10.5315L2.14443 10.5315L2.14443 9.93145ZM2.44443 10.2315C2.44443 10.2315 2.44443 10.2315 2.44443 10.2315L2.44443 10.2315C2.44443 10.2315 2.44443 10.2315 2.44443 10.2315L2.44443 10.2315C2.44443 10.2315 2.44443 10.2315 2.44443 10.2315C2.44443 10.2315 2.44443 10.2315 2.44443 10.2315L2.44443 10.2315C2.44443 10.2315 2.44443 10.2315 2.44443 10.2315L2.44443 10.2315C2.44443 10.2315 2.44443 10.2315 2.44443 10.2315C2.44443 10.2315 2.44443 10.2315 2.44443 10.2315L2.44443 10.2315C2.44443 10.2315 2.44443 10.2315 2.44443 10.2315L2.44443 10.2315C2.44443 10.2315 2.44443 10.2315 2.44443 10.2315C2.44443 10.2315 2.44443 10.2315 2.44443 10.2315C2.44443 10.2315 2.44443 10.2315 2.44443 10.2315C2.44443 10.2315 2.44443 10.2315 2.44443 10.2315L2.44443 10.2315C2.44443 10.2315 2.44443 10.2315 2.44443 10.2315C2.44443 10.2315 2.44443 10.2315 2.44443 10.2315C2.44443 10.2315 2.44443 10.2315 2.44443 10.2315C2.44443 10.2315 2.44443 10.2315 2.44443 10.2315L2.44443 10.2315C2.44443 10.2315 2.44443 10.2315 2.44443 10.2315L2.44443 10.2315C2.44443 10.2315 2.44443 10.2315 2.44443 10.2315C2.44443 10.2315 2.44443 10.2315 2.44443 10.2315L2.44443 10.2315C2.44443 10.2315 2.44443 10.2315 2.44443 10.2315L2.44443 10.2315C2.44443 10.2315 2.44443 10.2315 2.44443 10.2315C2.44443 10.2315 2.44443 10.2315 2.44443 10.2315L2.44443 10.2315C2.44443 10.2315 2.44443 10.2315 2.44443 10.2315L2.44443 10.2315C2.44443 10.2315 2.44443 10.2315 2.44443 10.2315C2.44443 10.2315 2.44443 10.2315 2.44443 10.2315L2.44443 10.2315C2.44443 10.2315 2.44443 10.2315 2.44443 10.2315L2.44443 10.2315C2.44443 10.2315 2.44443 10.2315 2.44443 10.2315C2.44443 10.2315 2.44443 10.2315 2.44443 10.2315C2.44443 10.2315 2.44443 10.2315 2.44443 10.2315C2.44443 10.2315 2.44443 10.2315 2.44443 10.2315L2.44443 10.2315C2.44443 10.2315 2.44443 10.2315 2.44443 10.2315C2.44443 10.2315 2.44443 10.2315 2.44443 10.2315C2.44443 10.2315 2.44443 10.2315 2.44443 10.2315C2.44443 10.2315 2.44443 10.2315 2.44443 10.2315L2.44443 10.2315C2.44443 10.2315 2.44443 10.2315 2.44443 10.2315L2.44443 10.2315C2.44443 10.2315 2.44443 10.2315 2.44443 10.2315C2.44443 10.2315 2.44443 10.2315 2.44443 10.2315L2.44443 10.2315C2.44443 10.2315 2.44443 10.2315 2.44443 10.2315L2.44443 10.2315C2.44443 10.2315 2.44443 10.2315 2.44443 10.2315C2.44443 10.2315 2.44443 10.2315 2.44443 10.2315L2.44443 10.2315C2.44443 10.2315 2.44443 10.2315 2.44443 10.2315L2.44443 10.2315C2.44443 10.2315 2.44443 10.2315 2.44443 10.2315C2.44443 10.2315 2.44443 10.2315 2.44443 10.2315C2.44443 10.2315 2.44443 10.2315 2.44443 10.2315C2.44443 10.2315 2.44443 10.2315 2.44443 10.2315L2.44443 10.2315C2.44443 10.2315 2.44443 10.2315 2.44443 10.2315L2.44443 10.2315C2.44443 10.2315 2.44443 10.2315 2.44443 10.2315C2.44443 10.2315 2.44443 10.2315 2.44443 10.2315L2.44443 10.2315C2.44443 10.2315 2.44443 10.2315 2.44443 10.2315L2.44443 10.2315C2.44443 10.2315 2.44443 10.2315 2.44443 10.2315C2.44443 10.2315 2.44443 10.2315 2.44443 10.2315L2.44443 10.2315C2.44443 10.2315 2.44443 10.2315 2.44443 10.2315L2.44443 10.2315C2.44443 10.2315 2.44443 10.2315 2.44443 10.2315C2.44443 10.2315 2.44443 10.2315 2.44443 10.2315C2.44443 10.2315 2.44443 10.2315 2.44443 10.2315C2.44443 10.2315 2.44443 10.2315 2.44443 10.2315L2.44443 10.2315C2.44443 10.2315 2.44443 10.2315 2.44443 10.2315C2.44443 10.2315 2.44443 10.2315 2.44443 10.2315C2.44443 10.2315 2.44443 10.2315 2.44443 10.2315C2.44443 10.2315 2.44443 10.2315 2.44443 10.2315L2.44443 10.2315C2.44443 10.2315 2.44443 10.2315 2.44443 10.2315L2.44443 10.2315C2.44443 10.2315 2.44443 10.2315 2.44443 10.2315C2.44443 10.2315 2.44443 10.2315 2.44443 10.2315L2.44443 10.2315C2.44443 10.2315 2.44443 10.2315 2.44443 10.2315L2.44443 10.2315C2.44443 10.2315 2.44443 10.2315 2.44443 10.2315C2.44443 10.2315 2.44443 10.2315 2.44443 10.2315L2.44443 10.2315C2.44443 10.2315 2.44443 10.2315 2.44443 10.2315L2.44443 10.2315C2.44443 10.2315 2.44443 10.2315 2.44443 10.2315C2.44443 10.2315 2.44443 10.2315 2.44443 10.2315C2.44443 10.2315 2.44443 10.2315 2.44443 10.2315C2.44443 10.2315 2.44443 10.2315 2.44443 10.2315L2.44443 10.2315C2.44443 10.2315 2.44443 10.2315 2.44443 10.2315L2.44443 10.2315C2.44443 10.2315 2.44443 10.2315 2.44443 10.2315C2.44443 10.2315 2.44443 10.2315 2.44443 10.2315L2.44443 10.2315C2.44443 10.2315 2.44443 10.2315 2.44443 10.2315L2.44443 10.2315C2.44443 10.2315 2.44443 10.2315 2.44443 10.2315C2.44443 10.2315 2.44443 10.2315 2.44443 10.2315L2.44443 10.2315C2.44443 10.2315 2.44443 10.2315 2.44443 10.2315L2.44443 10.2315C2.44443 10.2315 2.44443 10.2315 2.44443 10.2315C2.44443 10.2315 2.44443 10.2315 2.44443 10.2315C2.44443 10.2315 2.44443 10.2315 2.44443 10.2315C2.44443 10.2315 2.44443 10.2315 2.44443 10.2315L2.44443 10.2315C2.44443 10.2315 2.44443 10.2315 2.44443 10.2315L2.44443 10.2315C2.44443 10.2315 2.44443 10.2315 2.44443 10.2315C2.44443 10.2315 2.44443 10.2315 2.44443 10.2315L2.44443 10.2315C2.44443 10.2315 2.44443 10.2315 2.44443 10.2315L2.44443 10.2315C2.44443 10.2315 2.44443 10.2315 2.44443 10.2315C2.44443 10.2315 2.44443 10.2315 2.44443 10.2315L2.44443 10.2315C2.44443 10.2315 2.44443 10.2315 2.44443 10.2315L2.44443 10.2315C2.44443 10.2315 2.44443 10.2315 2.44443 10.2315C2.44443 10.2315 2.44443 10.2315 2.44443 10.2315C2.44443 10.2315 2.44443 10.2315 2.44443 10.2315C2.44443 10.2315 2.44443 10.2315 2.44443 10.2315L2.44443 10.2315C2.44443 10.2315 2.44443 10.2315 2.44443 10.2315L2.44443 10.2315C2.44443 10.2315 2.44443 10.2315 2.44443 10.2315C2.44443 10.2315 2.44443 10.2315 2.44443 10.2315L2.44443 10.2315C2.44443 10.2315 2.44443 10.2315 2.44443 10.2315L2.44443 10.2315C2.44443 10.2315 2.44443 10.2315 2.44443 10.2315C2.44443 10.2315 2.44443 10.2315 2.44443 10.2315C2.44443 10.2315 2.44443 10.2315 2.44443 10.2315C2.44443 10.2315 2.44443 10.2315 2.44443 10.2315L2.44443 10.2315C2.44443 10.2315 2.44443 10.2315 2.44443 10.2315C2.44443 10.2315 2.44443 10.2315 2.44443 10.2315C2.44443 10.2315 2.44443 10.2315 2.44443 10.2315C2.44443 10.2315 2.44443 10.2315 2.44443 10.2315L2.44443 10.2315C2.44443 10.2315 2.44443 10.2315 2.44443 10.2315L2.44443 10.2315C2.44443 10.2315 2.44443 10.2315 2.44443 10.2315C2.44443 10.2315 2.44443 10.2315 2.44443 10.2315L2.44443 10.2315C2.44443 10.2315 2.44443 10.2315 2.44443 10.2315L2.44443 10.2315C2.44443 10.2315 2.44443 10.2315 2.44443 10.2315C2.44443 10.2315 2.44443 10.2315 2.44443 10.2315C2.44443 10.2315 2.44443 10.2315 2.44443 10.2315C2.44443 10.2315 2.44443 10.2315 2.44443 10.2315L2.44443 10.2315C2.44443 10.2315 2.44443 10.2315 2.44443 10.2315C2.44443 10.2315 2.44443 10.2315 2.44443 10.2315C2.44443 10.2315 2.44443 10.2315 2.44443 10.2315C2.44443 10.2315 2.44443 10.2315 2.44443 10.2315L2.44443 10.2315C2.44443 10.2315 2.44443 10.2315 2.44443 10.2315L2.44443 10.2315C2.44443 10.2315 2.44443 10.2315 2.44443 10.2315C2.44443 10.2315 2.44443 10.2315 2.44443 10.2315L2.44443 10.2315C2.44443 10.2315 2.44443 10.2315 2.44443 10.2315L2.44443 10.2315C2.44443 10.2315 2.44443 10.2315 2.44443 10.2315C2.44443 10.2315 2.44443 10.2315 2.44443 10.2315C2.44443 10.2315 2.44443 10.2315 2.44443 10.2315C2.44443 10.2315 2.44443 10.2315 2.44443 10.2315L2.44443 10.2315C2.44443 10.2315 2.44443 10.2315 2.44443 10.2315L2.44443 10.2315C2.44443 10.2315 2.44443 10.2315 2.44443 10.2315C2.44443 10.2315 2.44443 10.2315 2.44443 10.2315L2.44443 10.2315C2.44443 10.2315 2.44443 10.2315 2.44443 10.2315L2.44443 10.2315C2.44443 10.2315 2.44443 10.2315 2.44443 10.2315C2.44443 10.2315 2.44443 10.2315 2.44443 10.2315L2.44443 10.2315C2.44443 10.2315 2.44443 10.2315 2.44443 10.2315L2.44443 10.2315C2.44443 10.2315 2.44443 10.2315 2.44443 10.2315C2.44443 10.2315 2.44443 10.2315 2.44443 10.2315C2.44443 10.2315 2.44443 10.2315 2.44443 10.2315C2.44443 10.2315 2.44443 10.2315 2.44443 10.2315L2.44443 10.2315C2.44443 10.2315 2.44443 10.2315 2.44443 10.2315L2.44443 10.2315C2.44443 10.2315 2.44443 10.2315 2.44443 10.2315C2.44443 10.2315 2.44443 10.2315 2.44443 10.2315L2.44443 10.2315C2.44443 10.2315 2.44443 10.2315 2.44443 10.2315L2.44443 10.2315C2.44443 10.2315 2.44443 10.2315 2.44443 10.2315C2.44443 10.2315 2.44443 10.2315 2.44443 10.2315L2.44443 10.2315C2.44443 10.2315 2.44443 10.2315 2.44443 10.2315L2.44443 10.2315C2.44443 10.2315 2.44443 10.2315 2.44443 10.2315C2.44443 10.2315 2.44443 10.2315 2.44443 10.2315C2.44443 10.2315 2.44443 10.2315 2.44443 10.2315C2.44443 10.2315 2.44443 10.2315 2.44443 10.2315L2.44443 10.2315C2.44443 10.2315 2.44443 10.2315 2.44443 10.2315L2.44443 10.2315C2.44443 10.2315 2.44443 10.2315 2.44443 10.2315C2.44443 10.2315 2.44443 10.2315 2.44443 10.2315L2.44443 10.2315C2.44443 10.2315 2.44443 10.2315 2.44443 10.2315L2.44443 10.2315C2.44443 10.2315 2.44443 10.2315 2.44443 10.2315C2.44443 10.2315 2.44443 10.2315 2.44443 10.2315L2.44443 10.2315C2.44443 10.2315 2.44443 10.2315 2.44443 10.2315L2.44443 10.2315C2.44443 10.2315 2.44443 10.2315 2.44443 10.2315C2.44443 10.2315 2.44443 10.2315 2.44443 10.2315C2.44443 10.2315 2.44443 10.2315 2.44443 10.2315C2.44443 10.2315 2.44443 10.2315 2.44443 10.2315L2.44443 10.2315C2.44443 10.2315 2.44443 10.2315 2.44443 10.2315C2.44443 10.2315 2.44443 10.2315 2.44443 10.2315C2.44443 10.2315 2.44443 10.2315 2.44443 10.2315C2.44443 10.2315 2.44443 10.2315 2.44443 10.2315L2.44443 10.2315C2.44443 10.2315 2.44443 10.2315 2.44443 10.2315L2.44443 10.2315C2.44443 10.2315 2.44443 10.2315 2.44443 10.2315C2.44443 10.2315 2.44443 10.2315 2.44443 10.2315L2.44443 10.2315C2.44443 10.2315 2.44443 10.2315 2.44443 10.2315L2.44443 10.2315C2.44443 10.2315 2.44443 10.2315 2.44443 10.2315C2.44443 10.2315 2.44443 10.2315 2.44443 10.2315L2.44443 10.2315C2.44443 10.2315 2.44443 10.2315 2.44443 10.2315L2.44443 10.2315C2.44443 10.2315 2.44443 10.2315 2.44443 10.2315C2.44443 10.2315 2.44443 10.2315 2.44443 10.2315C2.44443 10.2315 2.44443 10.2315 2.44443 10.2315C2.44443 10.2315 2.44443 10.2315 2.44443 10.2315L2.44443 10.2315C2.44443 10.2315 2.44443 10.2315 2.44443 10.2315L2.44443 10.2315C2.44443 10.2315 2.44443 10.2315 2.44443 10.2315C2.44443 10.2315 2.44443 10.2315 2.44443 10.2315L2.44443 10.2315C2.44443 10.2315 2.44443 10.2315 2.44443 10.2315L2.44443 10.2315C2.44443 10.2315 2.44443 10.2315 2.44443 10.2315C2.44443 10.2315 2.44443 10.2315 2.44443 10.2315L2.44443 10.2315C2.44443 10.2315 2.44443 10.2315 2.44443 10.2315L2.44443 10.2315C2.44443 10.2315 2.44443 10.2315 2.44443 10.2315C2.44443 10.2315 2.44443 10.2315 2.44443 10.2315C2.44443 10.2315 2.44443 10.2315 2.44443 10.2315C2.44443 10.2315 2.44443 10.2315 2.44443 10.2315L2.44443 10.2315C2.44443 10.2315 2.44443 10.2315 2.44443 10.2315C2.44443 10.2315 2.44443 10.2315 2.44443 10.2315C2.44443 10.2315 2.44443 10.2315 2.44443 10.2315C2.44443 10.2315 2.44443 10.2315 2.44443 10.2315L2.44443 10.2315C2.44443 10.2315 2.44443 10.2315 2.44443 10.2315L2.44443 10.2315C2.44443 10.2315 2.44443 10.2315 2.44443 10.2315C2.44443 10.2315 2.44443 10.2315 2.44443 10.2315L2.44443 10.2315C2.44443 10.2315 2.44443 10.2315 2.44443 10.2315L2.44443 10.2315C2.44443 10.2315 2.44443 10.2315 2.44443 10.2315C2.44443 10.2315 2.44443 10.2315 2.44443 10.2315L2.44443 10.2315C2.44443 10.2315 2.44443 10.2315 2.44443 10.2315L2.44443 10.2315C2.44443 10.2315 2.44443 10.2315 2.44443 10.2315C2.44443 10.2315 2.44443 10.2315 2.44443 10.2315L2.44443 10.2315C2.44443 10.2315 2.44443 10.2315 2.44443 10.2315L2.44443 10.2315C2.44443 10.2315 2.44443 10.2315 2.44443 10.2315C2.44443 10.2315 2.44443 10.2315 2.44443 10.2315C2.44443 10.2315 2.44443 10.2315 2.44443 10.2315C2.44443 10.2315 2.44443 10.2315 2.44443 10.2315L2.44443 10.2315C2.44443 10.2315 2.44443 10.2315 2.44443 10.2315C2.44443 10.2315 2.44443 10.2315 2.44443 10.2315C2.44443 10.2315 2.44443 10.2315 2.44443 10.2315C2.44443 10.2315 2.44443 10.2315 2.44443 10.2315L2.44443 10.2315C2.44443 10.2315 2.44443 10.2315 2.44443 10.2315L2.44443 10.2315C2.44443 10.2315 2.44443 10.2315 2.44443 10.2315C2.44443 10.2315 2.44443 10.2315 2.44443 10.2315L2.44443 10.2315C2.44443 10.2315 2.44443 10.2315 2.44443 10.2315L2.44443 10.2315C2.44443 10.2315 2.44443 10.2315 2.44443 10.2315C2.44443 10.2315 2.44443 10.2315 2.44443 10.2315L2.44443 10.2315C2.44443 10.2315 2.44443 10.2315 2.44443 10.2315L2.44443 10.2315C2.44443 10.2315 2.44443 10.2315 2.44443 10.2315L1.84443 10.2315C1.84443 10.2315 1.84443 10.2315 1.84443 10.2315L1.84443 10.2315C1.84443 10.2315 1.84443 10.2315 1.84443 10.2315L1.84443 10.2315C1.84443 10.2315 1.84443 10.2315 1.84443 10.2315C1.84443 10.2315 1.84443 10.2315 1.84443 10.2315L1.84443 10.2315C1.84443 10.2315 1.84443 10.2315 1.84443 10.2315L1.84443 10.2315C1.84443 10.2315 1.84443 10.2315 1.84443 10.2315C1.84443 10.2315 1.84443 10.2315 1.84443 10.2315L1.84443 10.2315C1.84443 10.2315 1.84443 10.2315 1.84443 10.2315L1.84443 10.2315C1.84443 10.2315 1.84443 10.2315 1.84443 10.2315C1.84443 10.2315 1.84443 10.2315 1.84443 10.2315C1.84443 10.2315 1.84443 10.2315 1.84443 10.2315C1.84443 10.2315 1.84443 10.2315 1.84443 10.2315L1.84443 10.2315C1.84443 10.2315 1.84443 10.2315 1.84443 10.2315C1.84443 10.2315 1.84443 10.2315 1.84443 10.2315C1.84443 10.2315 1.84443 10.2315 1.84443 10.2315C1.84443 10.2315 1.84443 10.2315 1.84443 10.2315L1.84443 10.2315C1.84443 10.2315 1.84443 10.2315 1.84443 10.2315L1.84443 10.2315C1.84443 10.2315 1.84443 10.2315 1.84443 10.2315C1.84443 10.2315 1.84443 10.2315 1.84443 10.2315L1.84443 10.2315C1.84443 10.2315 1.84443 10.2315 1.84443 10.2315L1.84443 10.2315C1.84443 10.2315 1.84443 10.2315 1.84443 10.2315C1.84443 10.2315 1.84443 10.2315 1.84443 10.2315L1.84443 10.2315C1.84443 10.2315 1.84443 10.2315 1.84443 10.2315L1.84443 10.2315C1.84443 10.2315 1.84443 10.2315 1.84443 10.2315C1.84443 10.2315 1.84443 10.2315 1.84443 10.2315L1.84443 10.2315C1.84443 10.2315 1.84443 10.2315 1.84443 10.2315L1.84443 10.2315C1.84443 10.2315 1.84443 10.2315 1.84443 10.2315C1.84443 10.2315 1.84443 10.2315 1.84443 10.2315C1.84443 10.2315 1.84443 10.2315 1.84443 10.2315C1.84443 10.2315 1.84443 10.2315 1.84443 10.2315L1.84443 10.2315C1.84443 10.2315 1.84443 10.2315 1.84443 10.2315C1.84443 10.2315 1.84443 10.2315 1.84443 10.2315C1.84443 10.2315 1.84443 10.2315 1.84443 10.2315C1.84443 10.2315 1.84443 10.2315 1.84443 10.2315L1.84443 10.2315C1.84443 10.2315 1.84443 10.2315 1.84443 10.2315L1.84443 10.2315C1.84443 10.2315 1.84443 10.2315 1.84443 10.2315C1.84443 10.2315 1.84443 10.2315 1.84443 10.2315L1.84443 10.2315C1.84443 10.2315 1.84443 10.2315 1.84443 10.2315L1.84443 10.2315C1.84443 10.2315 1.84443 10.2315 1.84443 10.2315C1.84443 10.2315 1.84443 10.2315 1.84443 10.2315L1.84443 10.2315C1.84443 10.2315 1.84443 10.2315 1.84443 10.2315L1.84443 10.2315C1.84443 10.2315 1.84443 10.2315 1.84443 10.2315C1.84443 10.2315 1.84443 10.2315 1.84443 10.2315C1.84443 10.2315 1.84443 10.2315 1.84443 10.2315C1.84443 10.2315 1.84443 10.2315 1.84443 10.2315L1.84443 10.2315C1.84443 10.2315 1.84443 10.2315 1.84443 10.2315L1.84443 10.2315C1.84443 10.2315 1.84443 10.2315 1.84443 10.2315C1.84443 10.2315 1.84443 10.2315 1.84443 10.2315L1.84443 10.2315C1.84443 10.2315 1.84443 10.2315 1.84443 10.2315L1.84443 10.2315C1.84443 10.2315 1.84443 10.2315 1.84443 10.2315C1.84443 10.2315 1.84443 10.2315 1.84443 10.2315L1.84443 10.2315C1.84443 10.2315 1.84443 10.2315 1.84443 10.2315L1.84443 10.2315C1.84443 10.2315 1.84443 10.2315 1.84443 10.2315C1.84443 10.2315 1.84443 10.2315 1.84443 10.2315C1.84443 10.2315 1.84443 10.2315 1.84443 10.2315C1.84443 10.2315 1.84443 10.2315 1.84443 10.2315L1.84443 10.2315C1.84443 10.2315 1.84443 10.2315 1.84443 10.2315C1.84443 10.2315 1.84443 10.2315 1.84443 10.2315C1.84443 10.2315 1.84443 10.2315 1.84443 10.2315C1.84443 10.2315 1.84443 10.2315 1.84443 10.2315L1.84443 10.2315C1.84443 10.2315 1.84443 10.2315 1.84443 10.2315L1.84443 10.2315C1.84443 10.2315 1.84443 10.2315 1.84443 10.2315C1.84443 10.2315 1.84443 10.2315 1.84443 10.2315L1.84443 10.2315C1.84443 10.2315 1.84443 10.2315 1.84443 10.2315L1.84443 10.2315C1.84443 10.2315 1.84443 10.2315 1.84443 10.2315C1.84443 10.2315 1.84443 10.2315 1.84443 10.2315L1.84443 10.2315C1.84443 10.2315 1.84443 10.2315 1.84443 10.2315L1.84443 10.2315C1.84443 10.2315 1.84443 10.2315 1.84443 10.2315C1.84443 10.2315 1.84443 10.2315 1.84443 10.2315C1.84443 10.2315 1.84443 10.2315 1.84443 10.2315C1.84443 10.2315 1.84443 10.2315 1.84443 10.2315L1.84443 10.2315C1.84443 10.2315 1.84443 10.2315 1.84443 10.2315L1.84443 10.2315C1.84443 10.2315 1.84443 10.2315 1.84443 10.2315C1.84443 10.2315 1.84443 10.2315 1.84443 10.2315L1.84443 10.2315C1.84443 10.2315 1.84443 10.2315 1.84443 10.2315L1.84443 10.2315C1.84443 10.2315 1.84443 10.2315 1.84443 10.2315C1.84443 10.2315 1.84443 10.2315 1.84443 10.2315L1.84443 10.2315C1.84443 10.2315 1.84443 10.2315 1.84443 10.2315L1.84443 10.2315C1.84443 10.2315 1.84443 10.2315 1.84443 10.2315C1.84443 10.2315 1.84443 10.2315 1.84443 10.2315C1.84443 10.2315 1.84443 10.2315 1.84443 10.2315C1.84443 10.2315 1.84443 10.2315 1.84443 10.2315L1.84443 10.2315C1.84443 10.2315 1.84443 10.2315 1.84443 10.2315L1.84443 10.2315C1.84443 10.2315 1.84443 10.2315 1.84443 10.2315C1.84443 10.2315 1.84443 10.2315 1.84443 10.2315L1.84443 10.2315C1.84443 10.2315 1.84443 10.2315 1.84443 10.2315L1.84443 10.2315C1.84443 10.2315 1.84443 10.2315 1.84443 10.2315C1.84443 10.2315 1.84443 10.2315 1.84443 10.2315L1.84443 10.2315C1.84443 10.2315 1.84443 10.2315 1.84443 10.2315L1.84443 10.2315C1.84443 10.2315 1.84443 10.2315 1.84443 10.2315C1.84443 10.2315 1.84443 10.2315 1.84443 10.2315C1.84443 10.2315 1.84443 10.2315 1.84443 10.2315C1.84443 10.2315 1.84443 10.2315 1.84443 10.2315L1.84443 10.2315C1.84443 10.2315 1.84443 10.2315 1.84443 10.2315L1.84443 10.2315C1.84443 10.2315 1.84443 10.2315 1.84443 10.2315C1.84443 10.2315 1.84443 10.2315 1.84443 10.2315L1.84443 10.2315C1.84443 10.2315 1.84443 10.2315 1.84443 10.2315L1.84443 10.2315C1.84443 10.2315 1.84443 10.2315 1.84443 10.2315C1.84443 10.2315 1.84443 10.2315 1.84443 10.2315C1.84443 10.2315 1.84443 10.2315 1.84443 10.2315C1.84443 10.2315 1.84443 10.2315 1.84443 10.2315L1.84443 10.2315C1.84443 10.2315 1.84443 10.2315 1.84443 10.2315C1.84443 10.2315 1.84443 10.2315 1.84443 10.2315C1.84443 10.2315 1.84443 10.2315 1.84443 10.2315C1.84443 10.2315 1.84443 10.2315 1.84443 10.2315L1.84443 10.2315C1.84443 10.2315 1.84443 10.2315 1.84443 10.2315L1.84443 10.2315C1.84443 10.2315 1.84443 10.2315 1.84443 10.2315C1.84443 10.2315 1.84443 10.2315 1.84443 10.2315L1.84443 10.2315C1.84443 10.2315 1.84443 10.2315 1.84443 10.2315L1.84443 10.2315C1.84443 10.2315 1.84443 10.2315 1.84443 10.2315C1.84443 10.2315 1.84443 10.2315 1.84443 10.2315C1.84443 10.2315 1.84443 10.2315 1.84443 10.2315C1.84443 10.2315 1.84443 10.2315 1.84443 10.2315L1.84443 10.2315C1.84443 10.2315 1.84443 10.2315 1.84443 10.2315C1.84443 10.2315 1.84443 10.2315 1.84443 10.2315C1.84443 10.2315 1.84443 10.2315 1.84443 10.2315C1.84443 10.2315 1.84443 10.2315 1.84443 10.2315L1.84443 10.2315C1.84443 10.2315 1.84443 10.2315 1.84443 10.2315L1.84443 10.2315C1.84443 10.2315 1.84443 10.2315 1.84443 10.2315C1.84443 10.2315 1.84443 10.2315 1.84443 10.2315L1.84443 10.2315C1.84443 10.2315 1.84443 10.2315 1.84443 10.2315L1.84443 10.2315C1.84443 10.2315 1.84443 10.2315 1.84443 10.2315C1.84443 10.2315 1.84443 10.2315 1.84443 10.2315C1.84443 10.2315 1.84443 10.2315 1.84443 10.2315C1.84443 10.2315 1.84443 10.2315 1.84443 10.2315L1.84443 10.2315C1.84443 10.2315 1.84443 10.2315 1.84443 10.2315L1.84443 10.2315C1.84443 10.2315 1.84443 10.2315 1.84443 10.2315C1.84443 10.2315 1.84443 10.2315 1.84443 10.2315L1.84443 10.2315C1.84443 10.2315 1.84443 10.2315 1.84443 10.2315L1.84443 10.2315C1.84443 10.2315 1.84443 10.2315 1.84443 10.2315C1.84443 10.2315 1.84443 10.2315 1.84443 10.2315L1.84443 10.2315C1.84443 10.2315 1.84443 10.2315 1.84443 10.2315L1.84443 10.2315C1.84443 10.2315 1.84443 10.2315 1.84443 10.2315C1.84443 10.2315 1.84443 10.2315 1.84443 10.2315C1.84443 10.2315 1.84443 10.2315 1.84443 10.2315C1.84443 10.2315 1.84443 10.2315 1.84443 10.2315L1.84443 10.2315C1.84443 10.2315 1.84443 10.2315 1.84443 10.2315L1.84443 10.2315C1.84443 10.2315 1.84443 10.2315 1.84443 10.2315C1.84443 10.2315 1.84443 10.2315 1.84443 10.2315L1.84443 10.2315C1.84443 10.2315 1.84443 10.2315 1.84443 10.2315L1.84443 10.2315C1.84443 10.2315 1.84443 10.2315 1.84443 10.2315C1.84443 10.2315 1.84443 10.2315 1.84443 10.2315L1.84443 10.2315C1.84443 10.2315 1.84443 10.2315 1.84443 10.2315L1.84443 10.2315C1.84443 10.2315 1.84443 10.2315 1.84443 10.2315C1.84443 10.2315 1.84443 10.2315 1.84443 10.2315C1.84443 10.2315 1.84443 10.2315 1.84443 10.2315C1.84443 10.2315 1.84443 10.2315 1.84443 10.2315L1.84443 10.2315C1.84443 10.2315 1.84443 10.2315 1.84443 10.2315L1.84443 10.2315C1.84443 10.2315 1.84443 10.2315 1.84443 10.2315C1.84443 10.2315 1.84443 10.2315 1.84443 10.2315L1.84443 10.2315C1.84443 10.2315 1.84443 10.2315 1.84443 10.2315L1.84443 10.2315C1.84443 10.2315 1.84443 10.2315 1.84443 10.2315C1.84443 10.2315 1.84443 10.2315 1.84443 10.2315L1.84443 10.2315C1.84443 10.2315 1.84443 10.2315 1.84443 10.2315L1.84443 10.2315C1.84443 10.2315 1.84443 10.2315 1.84443 10.2315C1.84443 10.2315 1.84443 10.2315 1.84443 10.2315C1.84443 10.2315 1.84443 10.2315 1.84443 10.2315C1.84443 10.2315 1.84443 10.2315 1.84443 10.2315L1.84443 10.2315C1.84443 10.2315 1.84443 10.2315 1.84443 10.2315C1.84443 10.2315 1.84443 10.2315 1.84443 10.2315C1.84443 10.2315 1.84443 10.2315 1.84443 10.2315C1.84443 10.2315 1.84443 10.2315 1.84443 10.2315L1.84443 10.2315C1.84443 10.2315 1.84443 10.2315 1.84443 10.2315L1.84443 10.2315C1.84443 10.2315 1.84443 10.2315 1.84443 10.2315C1.84443 10.2315 1.84443 10.2315 1.84443 10.2315L1.84443 10.2315C1.84443 10.2315 1.84443 10.2315 1.84443 10.2315L1.84443 10.2315C1.84443 10.2315 1.84443 10.2315 1.84443 10.2315C1.84443 10.2315 1.84443 10.2315 1.84443 10.2315L1.84443 10.2315C1.84443 10.2315 1.84443 10.2315 1.84443 10.2315L1.84443 10.2315C1.84443 10.2315 1.84443 10.2315 1.84443 10.2315C1.84443 10.2315 1.84443 10.2315 1.84443 10.2315C1.84443 10.2315 1.84443 10.2315 1.84443 10.2315C1.84443 10.2315 1.84443 10.2315 1.84443 10.2315L1.84443 10.2315C1.84443 10.2315 1.84443 10.2315 1.84443 10.2315L1.84443 10.2315C1.84443 10.2315 1.84443 10.2315 1.84443 10.2315C1.84443 10.2315 1.84443 10.2315 1.84443 10.2315L1.84443 10.2315C1.84443 10.2315 1.84443 10.2315 1.84443 10.2315L1.84443 10.2315C1.84443 10.2315 1.84443 10.2315 1.84443 10.2315C1.84443 10.2315 1.84443 10.2315 1.84443 10.2315L1.84443 10.2315C1.84443 10.2315 1.84443 10.2315 1.84443 10.2315L1.84443 10.2315C1.84443 10.2315 1.84443 10.2315 1.84443 10.2315C1.84443 10.2315 1.84443 10.2315 1.84443 10.2315C1.84443 10.2315 1.84443 10.2315 1.84443 10.2315C1.84443 10.2315 1.84443 10.2315 1.84443 10.2315L1.84443 10.2315C1.84443 10.2315 1.84443 10.2315 1.84443 10.2315C1.84443 10.2315 1.84443 10.2315 1.84443 10.2315C1.84443 10.2315 1.84443 10.2315 1.84443 10.2315C1.84443 10.2315 1.84443 10.2315 1.84443 10.2315L1.84443 10.2315C1.84443 10.2315 1.84443 10.2315 1.84443 10.2315L1.84443 10.2315C1.84443 10.2315 1.84443 10.2315 1.84443 10.2315C1.84443 10.2315 1.84443 10.2315 1.84443 10.2315L1.84443 10.2315C1.84443 10.2315 1.84443 10.2315 1.84443 10.2315L1.84443 10.2315C1.84443 10.2315 1.84443 10.2315 1.84443 10.2315C1.84443 10.2315 1.84443 10.2315 1.84443 10.2315L1.84443 10.2315C1.84443 10.2315 1.84443 10.2315 1.84443 10.2315L1.84443 10.2315C1.84443 10.2315 1.84443 10.2315 1.84443 10.2315C1.84443 10.2315 1.84443 10.2315 1.84443 10.2315L1.84443 10.2315C1.84443 10.2315 1.84443 10.2315 1.84443 10.2315L1.84443 10.2315C1.84443 10.2315 1.84443 10.2315 1.84443 10.2315C1.84443 10.2315 1.84443 10.2315 1.84443 10.2315C1.84443 10.2315 1.84443 10.2315 1.84443 10.2315C1.84443 10.2315 1.84443 10.2315 1.84443 10.2315L1.84443 10.2315C1.84443 10.2315 1.84443 10.2315 1.84443 10.2315C1.84443 10.2315 1.84443 10.2315 1.84443 10.2315C1.84443 10.2315 1.84443 10.2315 1.84443 10.2315C1.84443 10.2315 1.84443 10.2315 1.84443 10.2315L1.84443 10.2315C1.84443 10.2315 1.84443 10.2315 1.84443 10.2315L1.84443 10.2315C1.84443 10.2315 1.84443 10.2315 1.84443 10.2315C1.84443 10.2315 1.84443 10.2315 1.84443 10.2315L1.84443 10.2315C1.84443 10.2315 1.84443 10.2315 1.84443 10.2315L1.84443 10.2315C1.84443 10.2315 1.84443 10.2315 1.84443 10.2315C1.84443 10.2315 1.84443 10.2315 1.84443 10.2315L1.84443 10.2315C1.84443 10.2315 1.84443 10.2315 1.84443 10.2315L1.84443 10.2315C1.84443 10.2315 1.84443 10.2315 1.84443 10.2315L2.44443 10.2315Z"
        fill="black" mask="url(#path-1-inside-1_21829_14155)" />
    <path
        d="M4.47016 10.7743C3.85025 10.7743 3.29632 10.6243 2.90239 10.3896C2.50531 10.153 2.29443 9.84743 2.29443 9.53874C2.29443 9.23005 2.50531 8.92444 2.90239 8.68788C3.29632 8.4532 3.85025 8.3032 4.47016 8.3032C5.09007 8.3032 5.64401 8.4532 6.03794 8.68788C6.43501 8.92444 6.6459 9.23005 6.6459 9.53874C6.6459 9.84743 6.43501 10.153 6.03794 10.3896C5.64401 10.6243 5.09007 10.7743 4.47016 10.7743Z"
        fill="#FFAB90" stroke="black" stroke-width="0.3" />
    <mask id="path-4-inside-2_21829_14155" fill="white">
        <path fill-rule="evenodd" clip-rule="evenodd"
            d="M6.59766 9.53881L6.59766 3.00696L2.34205 3.00696L2.34205 9.47698C2.34197 9.48107 2.34193 9.48517 2.34193 9.48928C2.34193 9.49338 2.34197 9.49748 2.34205 9.50157L2.34205 9.53881L2.34391 9.53881C2.3924 10.1444 3.32561 10.6274 4.46973 10.6274C5.61386 10.6274 6.54707 10.1444 6.59556 9.53881L6.59766 9.53881Z" />
    </mask>
    <path fill-rule="evenodd" clip-rule="evenodd"
        d="M6.59766 9.53881L6.59766 3.00696L2.34205 3.00696L2.34205 9.47698C2.34197 9.48107 2.34193 9.48517 2.34193 9.48928C2.34193 9.49338 2.34197 9.49748 2.34205 9.50157L2.34205 9.53881L2.34391 9.53881C2.3924 10.1444 3.32561 10.6274 4.46973 10.6274C5.61386 10.6274 6.54707 10.1444 6.59556 9.53881L6.59766 9.53881Z"
        fill="#FC774C" />
    <path
        d="M6.59766 3.00696L6.89766 3.00696L6.89766 2.70696L6.59766 2.70696L6.59766 3.00696ZM6.59766 9.53881L6.59766 9.83881L6.89766 9.83881L6.89766 9.53881L6.59766 9.53881ZM2.34205 3.00696L2.34205 2.70696L2.04205 2.70696L2.04205 3.00696L2.34205 3.00696ZM2.34205 9.47698L2.64205 9.48292L2.64205 9.47698L2.34205 9.47698ZM2.34205 9.50157L2.64211 9.50157L2.642 9.49563L2.34205 9.50157ZM2.34205 9.53881L2.04205 9.53881L2.04205 9.83881L2.34205 9.83881L2.34205 9.53881ZM2.34391 9.53881L2.64296 9.51487L2.62085 9.23881L2.34391 9.23881L2.34391 9.53881ZM6.59556 9.53881L6.59556 9.23881L6.31861 9.23881L6.29651 9.51487L6.59556 9.53881ZM6.29766 3.00696L6.29766 9.53881L6.89766 9.53881L6.89766 3.00696L6.29766 3.00696ZM2.34205 3.30696L6.59766 3.30696L6.59766 2.70696L2.34205 2.70696L2.34205 3.30696ZM2.64205 9.47698L2.64205 3.00696L2.04205 3.00696L2.04205 9.47698L2.64205 9.47698ZM2.64193 9.48928C2.64193 9.48715 2.64195 9.48503 2.642 9.48292L2.04211 9.47104C2.04199 9.47712 2.04193 9.4832 2.04193 9.48928L2.64193 9.48928ZM2.642 9.49563C2.64195 9.49352 2.64193 9.4914 2.64193 9.48928L2.04193 9.48928C2.04193 9.49535 2.04199 9.50143 2.04211 9.50751L2.642 9.49563ZM2.64205 9.53881L2.64205 9.50157L2.04205 9.50157L2.04205 9.53881L2.64205 9.53881ZM2.34391 9.23881L2.34205 9.23881L2.34205 9.83881L2.34391 9.83881L2.34391 9.23881ZM4.46973 10.3274C3.93634 10.3274 3.46566 10.2142 3.13305 10.0434C2.78795 9.86606 2.65494 9.66458 2.64296 9.51487L2.04487 9.56275C2.08137 10.0186 2.4392 10.3614 2.85887 10.577C3.29101 10.7991 3.85901 10.9274 4.46973 10.9274L4.46973 10.3274ZM6.29651 9.51487C6.28453 9.66458 6.15151 9.86606 5.80642 10.0434C5.4738 10.2142 5.00313 10.3274 4.46973 10.3274L4.46973 10.9274C5.08046 10.9274 5.64846 10.7991 6.0806 10.577C6.50026 10.3614 6.8581 10.0186 6.8946 9.56275L6.29651 9.51487ZM6.59766 9.23881L6.59556 9.23881L6.59556 9.83881L6.59766 9.83881L6.59766 9.23881Z"
        fill="black" mask="url(#path-4-inside-2_21829_14155)" />
    <mask id="path-6-inside-3_21829_14155" fill="white">
        <path fill-rule="evenodd" clip-rule="evenodd"
            d="M6.59766 9.53881L6.59766 3.00696L2.34205 3.00696L2.34205 9.47698C2.34197 9.48107 2.34193 9.48517 2.34193 9.48928C2.34193 9.49338 2.34197 9.49748 2.34205 9.50157L2.34205 9.53881L2.34391 9.53881C2.39239 10.1444 3.32561 10.6274 4.46973 10.6274C5.61386 10.6274 6.54707 10.1444 6.59555 9.53881L6.59766 9.53881Z" />
    </mask>
    <path fill-rule="evenodd" clip-rule="evenodd"
        d="M6.59766 9.53881L6.59766 3.00696L2.34205 3.00696L2.34205 9.47698C2.34197 9.48107 2.34193 9.48517 2.34193 9.48928C2.34193 9.49338 2.34197 9.49748 2.34205 9.50157L2.34205 9.53881L2.34391 9.53881C2.39239 10.1444 3.32561 10.6274 4.46973 10.6274C5.61386 10.6274 6.54707 10.1444 6.59555 9.53881L6.59766 9.53881Z"
        fill="#FC774C" />
    <path
        d="M6.59766 3.00696L6.89766 3.00696L6.89766 2.70696L6.59766 2.70696L6.59766 3.00696ZM6.59766 9.53881L6.59766 9.83881L6.89766 9.83881L6.89766 9.53881L6.59766 9.53881ZM2.34205 3.00696L2.34205 2.70696L2.04205 2.70696L2.04205 3.00696L2.34205 3.00696ZM2.34205 9.47698L2.64205 9.48292L2.64205 9.47698L2.34205 9.47698ZM2.34205 9.50157L2.64211 9.50157L2.642 9.49563L2.34205 9.50157ZM2.34205 9.53881L2.04205 9.53881L2.04205 9.83881L2.34205 9.83881L2.34205 9.53881ZM2.34391 9.53881L2.64295 9.51487L2.62085 9.23881L2.34391 9.23881L2.34391 9.53881ZM6.59555 9.53881L6.59555 9.23881L6.31861 9.23881L6.29651 9.51487L6.59555 9.53881ZM6.29766 3.00696L6.29766 9.53881L6.89766 9.53881L6.89766 3.00696L6.29766 3.00696ZM2.34205 3.30696L6.59766 3.30696L6.59766 2.70696L2.34205 2.70696L2.34205 3.30696ZM2.64205 9.47698L2.64205 3.00696L2.04205 3.00696L2.04205 9.47698L2.64205 9.47698ZM2.64193 9.48928C2.64193 9.48715 2.64195 9.48503 2.642 9.48292L2.04211 9.47104C2.04199 9.47712 2.04193 9.4832 2.04193 9.48928L2.64193 9.48928ZM2.642 9.49563C2.64195 9.49352 2.64193 9.4914 2.64193 9.48928L2.04193 9.48928C2.04193 9.49536 2.04199 9.50143 2.04211 9.50751L2.642 9.49563ZM2.64205 9.53881L2.64205 9.50157L2.04205 9.50157L2.04205 9.53881L2.64205 9.53881ZM2.34391 9.23881L2.34205 9.23881L2.34205 9.83881L2.34391 9.83881L2.34391 9.23881ZM4.46973 10.3274C3.93634 10.3274 3.46566 10.2142 3.13305 10.0434C2.78795 9.86606 2.65494 9.66458 2.64295 9.51487L2.04487 9.56275C2.08137 10.0186 2.4392 10.3614 2.85886 10.577C3.29101 10.7991 3.85901 10.9274 4.46973 10.9274L4.46973 10.3274ZM6.29651 9.51487C6.28453 9.66458 6.15151 9.86606 5.80642 10.0434C5.4738 10.2142 5.00313 10.3274 4.46973 10.3274L4.46973 10.9274C5.08046 10.9274 5.64846 10.7991 6.0806 10.577C6.50026 10.3614 6.8581 10.0186 6.8946 9.56275L6.29651 9.51487ZM6.59766 9.23881L6.59555 9.23881L6.59555 9.83881L6.59766 9.83881L6.59766 9.23881Z"
        fill="black" mask="url(#path-6-inside-3_21829_14155)" />
    <mask id="path-8-inside-4_21829_14155" fill="white">
        <path fill-rule="evenodd" clip-rule="evenodd"
            d="M2.14443 3.20488C2.14443 3.97009 3.18569 4.59042 4.47016 4.59042C5.75463 4.59042 6.7959 3.9701 6.7959 3.20488C6.7959 3.20009 6.79586 3.19531 6.79578 3.19054L6.79578 2.51208L6.48473 2.51208C6.0826 2.09796 5.331 1.81934 4.47016 1.81934C3.60933 1.81934 2.85773 2.09796 2.45559 2.51208L2.14431 2.51208L2.14431 3.20486L2.14443 3.20486C2.14443 3.20486 2.14443 3.20487 2.14443 3.20488Z" />
    </mask>
    <path fill-rule="evenodd" clip-rule="evenodd"
        d="M2.14443 3.20488C2.14443 3.97009 3.18569 4.59042 4.47016 4.59042C5.75463 4.59042 6.7959 3.9701 6.7959 3.20488C6.7959 3.20009 6.79586 3.19531 6.79578 3.19054L6.79578 2.51208L6.48473 2.51208C6.0826 2.09796 5.331 1.81934 4.47016 1.81934C3.60933 1.81934 2.85773 2.09796 2.45559 2.51208L2.14431 2.51208L2.14431 3.20486L2.14443 3.20486C2.14443 3.20486 2.14443 3.20487 2.14443 3.20488Z"
        fill="#FFAB90" />
    <path
        d="M6.79578 3.19054L6.49573 3.19054L6.49582 3.19564L6.79578 3.19054ZM6.79578 2.51208L7.09578 2.51208L7.09578 2.21208L6.79578 2.21208L6.79578 2.51208ZM6.48473 2.51208L6.26951 2.72108L6.35788 2.81208L6.48473 2.81208L6.48473 2.51208ZM2.45559 2.51208L2.45559 2.81208L2.58245 2.81208L2.67082 2.72108L2.45559 2.51208ZM2.14431 2.51208L2.14431 2.21208L1.84431 2.21208L1.84431 2.51208L2.14431 2.51208ZM2.14431 3.20486L1.84431 3.20486L1.84431 3.50486L2.14431 3.50486L2.14431 3.20486ZM2.14443 3.20486L2.44443 3.20486L2.44443 2.90486L2.14443 2.90486L2.14443 3.20486ZM4.47016 4.29042C3.87258 4.29042 3.34614 4.1455 2.97916 3.92688C2.60588 3.7045 2.44443 3.43965 2.44443 3.20488L1.84443 3.20488C1.84443 3.73533 2.20361 4.16325 2.67208 4.44234C3.14685 4.72518 3.78328 4.89042 4.47016 4.89042L4.47016 4.29042ZM6.4959 3.20488C6.4959 3.43965 6.33445 3.7045 5.96116 3.92688C5.59419 4.1455 5.06775 4.29042 4.47016 4.29042L4.47016 4.89042C5.15705 4.89042 5.79347 4.72518 6.26825 4.44234C6.73671 4.16325 7.0959 3.73533 7.0959 3.20488L6.4959 3.20488ZM6.49582 3.19564C6.49587 3.19872 6.4959 3.2018 6.4959 3.20488L7.0959 3.20488C7.0959 3.19839 7.09584 3.19191 7.09573 3.18543L6.49582 3.19564ZM6.49578 2.51208L6.49578 3.19054L7.09578 3.19054L7.09578 2.51208L6.49578 2.51208ZM6.48473 2.81208L6.79578 2.81208L6.79578 2.21208L6.48473 2.21208L6.48473 2.81208ZM4.47016 2.11934C5.27895 2.11934 5.94132 2.38311 6.26951 2.72108L6.69996 2.30309C6.22387 1.81281 5.38304 1.51934 4.47016 1.51934L4.47016 2.11934ZM2.67082 2.72108C2.999 2.38311 3.66137 2.11934 4.47016 2.11934L4.47016 1.51934C3.55728 1.51934 2.71645 1.81281 2.24037 2.30309L2.67082 2.72108ZM2.14431 2.81208L2.45559 2.81208L2.45559 2.21208L2.14431 2.21208L2.14431 2.81208ZM2.44431 3.20486L2.44431 2.51208L1.84431 2.51208L1.84431 3.20486L2.44431 3.20486ZM2.14443 2.90486L2.14431 2.90486L2.14431 3.50486L2.14443 3.50486L2.14443 2.90486ZM2.44443 3.20488C2.44443 3.20488 2.44443 3.20487 2.44443 3.20487C2.44443 3.20486 2.44443 3.20486 2.44443 3.20486L1.84443 3.20486C1.84443 3.20486 1.84443 3.20486 1.84443 3.20487C1.84443 3.20487 1.84443 3.20488 1.84443 3.20488L2.44443 3.20488Z"
        fill="black" mask="url(#path-8-inside-4_21829_14155)" />
    <path
        d="M4.47016 3.74768C3.85025 3.74768 3.29632 3.59767 2.90239 3.36299C2.50531 3.12644 2.29443 2.82082 2.29443 2.51213C2.29443 2.20344 2.50531 1.89783 2.90239 1.66127C3.29632 1.42659 3.85025 1.27659 4.47016 1.27659C5.09007 1.27659 5.64401 1.42659 6.03794 1.66127C6.43501 1.89783 6.6459 2.20344 6.6459 2.51213C6.6459 2.82082 6.43501 3.12644 6.03794 3.36299C5.64401 3.59767 5.09007 3.74768 4.47016 3.74768Z"
        fill="#FFAB90" stroke="black" stroke-width="0.3" />
    <path
        d="M2.77865 9.3627V4.77291C2.78016 4.7738 2.78166 4.77469 2.78316 4.77558C2.87047 4.82697 2.96992 4.87226 3.06942 4.90846C3.18539 4.95065 3.31192 4.98425 3.42673 4.99771V9.58806C3.17304 9.60592 2.94554 9.52706 2.77865 9.3627Z"
        fill="#D9D9D9" stroke="black" stroke-width="0.3" />
    <path
        d="M2.77865 9.38384V5.93156C2.78237 5.93359 2.78607 5.9356 2.78976 5.93758C2.87452 5.98302 2.97167 6.02524 3.06942 6.0608C3.18617 6.10329 3.31292 6.13958 3.42673 6.15886V9.60994C3.17837 9.60004 2.9494 9.52172 2.77865 9.38384Z"
        fill="url(#paint0_linear_21829_14155)" fill-opacity="0.6" stroke="black" stroke-width="0.3" />
    <mask id="path-13-inside-5_21829_14155" fill="white">
        <path fill-rule="evenodd" clip-rule="evenodd"
            d="M3.56769 6.45146C3.01242 6.30699 2.6377 6.03308 2.6377 5.71896C2.6377 5.40484 3.01242 5.13093 3.56769 4.98645V6.45146Z" />
    </mask>
    <path fill-rule="evenodd" clip-rule="evenodd"
        d="M3.56769 6.45146C3.01242 6.30699 2.6377 6.03308 2.6377 5.71896C2.6377 5.40484 3.01242 5.13093 3.56769 4.98645V6.45146Z"
        fill="#3CC17F" />
    <path
        d="M3.56769 6.45146L3.49214 6.7418L3.86769 6.83951V6.45146H3.56769ZM3.56769 4.98645H3.86769V4.5984L3.49214 4.69612L3.56769 4.98645ZM3.64323 6.16113C3.39047 6.09537 3.19894 6.00481 3.0777 5.91129C2.95402 5.81589 2.9377 5.74698 2.9377 5.71896H2.3377C2.3377 6.00506 2.50873 6.23016 2.71123 6.38637C2.91617 6.54445 3.18963 6.66308 3.49214 6.7418L3.64323 6.16113ZM2.9377 5.71896C2.9377 5.69094 2.95402 5.62203 3.0777 5.52663C3.19894 5.43311 3.39047 5.34255 3.64323 5.27678L3.49214 4.69612C3.18963 4.77483 2.91617 4.89346 2.71123 5.05155C2.50873 5.20775 2.3377 5.43286 2.3377 5.71896H2.9377ZM3.26769 4.98645V6.45146H3.86769V4.98645H3.26769Z"
        fill="black" mask="url(#path-13-inside-5_21829_14155)" />
    <path opacity="0.25" d="M5.01172 4.59045H5.30862V10.3801H5.01172V4.59045Z" fill="#FFF2EE" />
    <path opacity="0.23" d="M5.50781 4.49164L6.00265 4.2937V10.0833L5.50781 10.2812V4.49164Z" fill="#FFF0EB" />
    <path
        d="M4.36949 5.83952C4.99928 6.07593 5.56854 5.9712 6.16134 5.50273C6.25437 5.44335 6.33948 5.51164 6.34839 5.65613C6.34905 5.65745 6.34938 5.65811 6.34938 5.65811C6.35828 5.80558 6.28604 5.98471 6.19103 6.04805C5.59089 6.46496 4.95854 6.56652 4.29976 6.38058C4.19486 6.34495 4.11469 6.1866 4.12261 6.03815C4.13152 5.89366 4.27052 5.81082 4.36949 5.83952Z"
        fill="#CEABFF" stroke="black" stroke-width="0.3" />
    <path
        d="M4.36949 6.73003C4.99928 6.96643 5.56854 6.8617 6.16134 6.39324C6.25437 6.33386 6.33948 6.40214 6.34839 6.54664C6.34905 6.54796 6.34938 6.54862 6.34938 6.54862C6.35828 6.69608 6.28604 6.87521 6.19103 6.93855C5.59089 7.35547 4.95854 7.45702 4.29976 7.27108C4.19486 7.23545 4.11469 7.0771 4.12261 6.92865C4.13152 6.78416 4.27052 6.70133 4.36949 6.73003Z"
        fill="#CEABFF" stroke="black" stroke-width="0.3" />
    <mask id="path-19-inside-6_21829_14155" fill="white">
        <path fill-rule="evenodd" clip-rule="evenodd"
            d="M12.8423 8.57881C13.4623 8.13073 13.3558 6.92366 12.6042 5.88238C11.8524 4.84088 10.74 4.35964 10.1195 4.80749C10.1121 4.81284 10.1048 4.81829 10.0977 4.82384L9.55847 5.21303L9.74004 5.46458C9.63931 6.03308 9.85325 6.80592 10.3573 7.50421C10.8613 8.20249 11.5274 8.64893 12.0987 8.73236L12.2808 8.98463L12.8426 8.57917L12.8423 8.57881Z" />
    </mask>
    <path fill-rule="evenodd" clip-rule="evenodd"
        d="M12.8423 8.57881C13.4623 8.13073 13.3558 6.92366 12.6042 5.88238C11.8524 4.84088 10.74 4.35964 10.1195 4.80749C10.1121 4.81284 10.1048 4.81829 10.0977 4.82384L9.55847 5.21303L9.74004 5.46458C9.63931 6.03308 9.85325 6.80592 10.3573 7.50421C10.8613 8.20249 11.5274 8.64893 12.0987 8.73236L12.2808 8.98463L12.8426 8.57917L12.8423 8.57881Z"
        fill="#FFAB90" />
    <path
        d="M12.8423 8.57881L12.6666 8.33566L12.4236 8.51128L12.599 8.75439L12.8423 8.57881ZM10.0977 4.82384L10.2733 5.06722L10.281 5.06127L10.0977 4.82384ZM9.55847 5.21303L9.38289 4.96978L9.13964 5.14536L9.31522 5.38861L9.55847 5.21303ZM9.74004 5.46458L10.0354 5.51692L10.0576 5.39192L9.98329 5.28899L9.74004 5.46458ZM12.0987 8.73236L12.342 8.55678L12.2677 8.45385L12.1421 8.43551L12.0987 8.73236ZM12.2808 8.98463L12.0376 9.16021L12.2132 9.40346L12.4564 9.22788L12.2808 8.98463ZM12.8426 8.57917L13.0181 8.82242L13.2614 8.64684L13.0858 8.40359L12.8426 8.57917ZM12.3609 6.05796C12.7106 6.5424 12.9012 7.05397 12.9388 7.47943C12.977 7.91221 12.8568 8.19817 12.6666 8.33566L13.018 8.82196C13.4478 8.51137 13.5844 7.96975 13.5364 7.42666C13.4878 6.87624 13.2494 6.26364 12.8474 5.7068L12.3609 6.05796ZM10.2951 5.05075C10.4855 4.91334 10.7947 4.88925 11.1935 5.06177C11.5856 5.23137 12.0112 5.57341 12.3609 6.05796L12.8474 5.7068C12.4454 5.14984 11.939 4.73052 11.4317 4.51109C10.9313 4.29458 10.3741 4.25379 9.94397 4.56424L10.2951 5.05075ZM10.281 5.06127C10.2857 5.0577 10.2904 5.05419 10.2951 5.05075L9.94397 4.56424C9.93393 4.57148 9.92404 4.57888 9.91427 4.58642L10.281 5.06127ZM9.73405 5.45628L10.2732 5.0671L9.92207 4.58059L9.38289 4.96978L9.73405 5.45628ZM9.98329 5.28899L9.80172 5.03745L9.31522 5.38861L9.49679 5.64016L9.98329 5.28899ZM10.6005 7.32863C10.127 6.67255 9.95324 5.98081 10.0354 5.51692L9.44464 5.41224C9.32537 6.08536 9.57953 6.9393 10.114 7.67979L10.6005 7.32863ZM12.1421 8.43551C11.6759 8.36743 11.0741 7.98471 10.6005 7.32863L10.114 7.67979C10.6485 8.42027 11.379 8.93043 12.0554 9.02921L12.1421 8.43551ZM12.5241 8.80905L12.342 8.55678L11.8555 8.90794L12.0376 9.16021L12.5241 8.80905ZM12.667 8.33592L12.1052 8.74137L12.4564 9.22788L13.0181 8.82242L12.667 8.33592ZM12.599 8.75439L12.5993 8.75475L13.0858 8.40359L13.0855 8.40323L12.599 8.75439Z"
        fill="black" mask="url(#path-19-inside-6_21829_14155)" />
    <path
        d="M11.9201 6.37569C12.2829 6.87833 12.4854 7.41528 12.5257 7.87204C12.5663 8.33246 12.4419 8.68232 12.1916 8.86298C11.9413 9.04365 11.5701 9.05152 11.1459 8.86801C10.725 8.68595 10.2792 8.32458 9.9164 7.82193C9.55359 7.31929 9.35101 6.78234 9.31075 6.32558C9.27016 5.86516 9.39454 5.5153 9.64484 5.33464C9.89514 5.15397 10.2664 5.1461 10.6906 5.32962C11.1114 5.51168 11.5572 5.87304 11.9201 6.37569Z"
        fill="#FFAB90" stroke="black" stroke-width="0.3" />
    <mask id="path-22-inside-7_21829_14155" fill="white">
        <path fill-rule="evenodd" clip-rule="evenodd"
            d="M12.1618 8.82265C12.6243 8.42882 12.4697 7.38955 11.8001 6.46194C11.1306 5.53433 10.1929 5.06033 9.67343 5.37527L9.67234 5.37376L9.64239 5.39537C9.63889 5.39779 9.63542 5.40025 9.63196 5.40274C9.6285 5.40524 9.62507 5.40777 9.62167 5.41033L4.37605 9.19664L6.86672 12.6473L12.163 8.82437L12.1618 8.82265Z" />
    </mask>
    <path fill-rule="evenodd" clip-rule="evenodd"
        d="M12.1618 8.82265C12.6243 8.42882 12.4697 7.38955 11.8001 6.46194C11.1306 5.53433 10.1929 5.06033 9.67343 5.37527L9.67234 5.37376L9.64239 5.39537C9.63889 5.39779 9.63542 5.40025 9.63196 5.40274C9.6285 5.40524 9.62507 5.40777 9.62167 5.41033L4.37605 9.19664L6.86672 12.6473L12.163 8.82437L12.1618 8.82265Z"
        fill="#FC774C" />
    <path
        d="M12.1618 8.82265L11.9673 8.59424L11.7565 8.77373L11.9185 8.99823L12.1618 8.82265ZM9.67343 5.37527L9.43018 5.55085L9.59222 5.77534L9.82896 5.6318L9.67343 5.37527ZM9.67234 5.37376L9.91559 5.19818L9.74001 4.95492L9.49676 5.13051L9.67234 5.37376ZM9.64239 5.39537L9.81297 5.64224L9.81797 5.63862L9.64239 5.39537ZM9.62167 5.41033L9.79729 5.65363L9.80222 5.64992L9.62167 5.41033ZM4.37605 9.19664L4.20047 8.95339L3.95722 9.12897L4.1328 9.37222L4.37605 9.19664ZM6.86672 12.6473L6.62347 12.8228L6.79905 13.0661L7.0423 12.8905L6.86672 12.6473ZM12.163 8.82437L12.3386 9.06762L12.5818 8.89204L12.4063 8.64879L12.163 8.82437ZM11.5569 6.63752C11.869 7.06998 12.0527 7.51781 12.1089 7.88749C12.1671 8.27106 12.0816 8.49686 11.9673 8.59424L12.3563 9.05106C12.7044 8.7546 12.7729 8.26386 12.7021 7.79743C12.6291 7.31713 12.4008 6.78152 12.0434 6.28636L11.5569 6.63752ZM9.82896 5.6318C9.9574 5.55393 10.1986 5.54391 10.5443 5.71998C10.8775 5.88967 11.2447 6.20507 11.5569 6.63752L12.0434 6.28636C11.686 5.79121 11.2495 5.40579 10.8166 5.18532C10.3962 4.97122 9.9089 4.88167 9.5179 5.11873L9.82896 5.6318ZM9.42909 5.54934L9.43018 5.55085L9.91668 5.19969L9.91559 5.19818L9.42909 5.54934ZM9.81797 5.63862L9.84792 5.61701L9.49676 5.13051L9.46681 5.15212L9.81797 5.63862ZM9.80754 5.646C9.80933 5.6447 9.81113 5.64343 9.81294 5.64218L9.47185 5.14856C9.46666 5.15215 9.4615 5.15579 9.45638 5.15949L9.80754 5.646ZM9.80222 5.64992C9.80397 5.6486 9.80575 5.64729 9.80754 5.646L9.45638 5.15949C9.45125 5.16319 9.44617 5.16694 9.44113 5.17074L9.80222 5.64992ZM4.55163 9.43989L9.79725 5.65358L9.44609 5.16708L4.20047 8.95339L4.55163 9.43989ZM7.10997 12.4717L4.61931 9.02106L4.1328 9.37222L6.62347 12.8228L7.10997 12.4717ZM11.9874 8.58112L6.69114 12.404L7.0423 12.8905L12.3386 9.06762L11.9874 8.58112ZM11.9185 8.99823L11.9198 8.99995L12.4063 8.64879L12.405 8.64707L11.9185 8.99823Z"
        fill="black" mask="url(#path-22-inside-7_21829_14155)" />
    <mask id="path-24-inside-8_21829_14155" fill="white">
        <path fill-rule="evenodd" clip-rule="evenodd"
            d="M12.1618 8.82265C12.6243 8.42882 12.4697 7.38955 11.8001 6.46194C11.1306 5.53433 10.1929 5.06033 9.67343 5.37527L9.67234 5.37376L9.64239 5.39537C9.63889 5.39779 9.63542 5.40025 9.63196 5.40274C9.6285 5.40524 9.62507 5.40777 9.62167 5.41033L4.37605 9.19664L6.86672 12.6473L12.163 8.82437L12.1618 8.82265Z" />
    </mask>
    <path fill-rule="evenodd" clip-rule="evenodd"
        d="M12.1618 8.82265C12.6243 8.42882 12.4697 7.38955 11.8001 6.46194C11.1306 5.53433 10.1929 5.06033 9.67343 5.37527L9.67234 5.37376L9.64239 5.39537C9.63889 5.39779 9.63542 5.40025 9.63196 5.40274C9.6285 5.40524 9.62507 5.40777 9.62167 5.41033L4.37605 9.19664L6.86672 12.6473L12.163 8.82437L12.1618 8.82265Z"
        fill="#FC774C" />
    <path
        d="M12.1618 8.82265L11.9673 8.59424L11.7565 8.77373L11.9185 8.99823L12.1618 8.82265ZM9.67343 5.37527L9.43018 5.55085L9.59222 5.77534L9.82896 5.6318L9.67343 5.37527ZM9.67234 5.37376L9.91559 5.19818L9.74001 4.95492L9.49676 5.13051L9.67234 5.37376ZM9.64239 5.39537L9.81297 5.64224L9.81797 5.63862L9.64239 5.39537ZM9.62167 5.41033L9.79729 5.65363L9.80222 5.64992L9.62167 5.41033ZM4.37605 9.19664L4.20047 8.95339L3.95722 9.12897L4.1328 9.37222L4.37605 9.19664ZM6.86672 12.6473L6.62347 12.8228L6.79905 13.0661L7.0423 12.8905L6.86672 12.6473ZM12.163 8.82437L12.3386 9.06762L12.5818 8.89204L12.4063 8.64879L12.163 8.82437ZM11.5569 6.63752C11.869 7.06998 12.0527 7.51781 12.1089 7.88749C12.1671 8.27106 12.0816 8.49686 11.9673 8.59424L12.3563 9.05106C12.7044 8.7546 12.7729 8.26386 12.7021 7.79743C12.6291 7.31713 12.4008 6.78152 12.0434 6.28636L11.5569 6.63752ZM9.82896 5.6318C9.9574 5.55393 10.1986 5.54391 10.5443 5.71998C10.8775 5.88967 11.2447 6.20507 11.5569 6.63752L12.0434 6.28636C11.686 5.79121 11.2495 5.40579 10.8166 5.18532C10.3962 4.97122 9.9089 4.88167 9.5179 5.11873L9.82896 5.6318ZM9.42909 5.54934L9.43018 5.55085L9.91668 5.19969L9.91559 5.19818L9.42909 5.54934ZM9.81797 5.63862L9.84792 5.61701L9.49676 5.13051L9.46681 5.15212L9.81797 5.63862ZM9.80754 5.646C9.80933 5.6447 9.81113 5.64343 9.81294 5.64218L9.47185 5.14856C9.46666 5.15215 9.4615 5.15579 9.45638 5.15949L9.80754 5.646ZM9.80222 5.64992C9.80397 5.6486 9.80575 5.64729 9.80754 5.646L9.45638 5.15949C9.45125 5.16319 9.44617 5.16694 9.44113 5.17074L9.80222 5.64992ZM4.55163 9.43989L9.79725 5.65358L9.44609 5.16708L4.20047 8.95339L4.55163 9.43989ZM7.10997 12.4717L4.61931 9.02106L4.1328 9.37222L6.62347 12.8228L7.10997 12.4717ZM11.9874 8.58112L6.69114 12.404L7.0423 12.8905L12.3386 9.06762L11.9874 8.58112ZM11.9185 8.99823L11.9198 8.99995L12.4063 8.64879L12.405 8.64707L11.9185 8.99823Z"
        fill="black" mask="url(#path-24-inside-8_21829_14155)" />
    <mask id="path-26-inside-9_21829_14155" fill="white">
        <path fill-rule="evenodd" clip-rule="evenodd"
            d="M4.42012 8.92008L3.85839 9.32553L4.04075 9.57818C3.94046 10.1466 4.15444 10.9189 4.65816 11.6168C5.16188 12.3147 5.82753 12.761 6.3986 12.8448L6.58074 13.0971L7.12817 12.702C7.13307 12.6986 7.13795 12.6952 7.1428 12.6917C7.76326 12.2438 7.65683 11.0365 6.90507 9.99496C6.15332 8.95346 5.04091 8.47222 4.42044 8.92007C4.42037 8.92013 4.4203 8.92018 4.42023 8.92023L4.42012 8.92008Z" />
    </mask>
    <path fill-rule="evenodd" clip-rule="evenodd"
        d="M4.42012 8.92008L3.85839 9.32553L4.04075 9.57818C3.94046 10.1466 4.15444 10.9189 4.65816 11.6168C5.16188 12.3147 5.82753 12.761 6.3986 12.8448L6.58074 13.0971L7.12817 12.702C7.13307 12.6986 7.13795 12.6952 7.1428 12.6917C7.76326 12.2438 7.65683 11.0365 6.90507 9.99496C6.15332 8.95346 5.04091 8.47222 4.42044 8.92007C4.42037 8.92013 4.4203 8.92018 4.42023 8.92023L4.42012 8.92008Z"
        fill="#FFAB90" />
    <path
        d="M3.85839 9.32553L3.68281 9.08228L3.43956 9.25786L3.61514 9.50111L3.85839 9.32553ZM4.42012 8.92008L4.66337 8.7445L4.48779 8.50124L4.24453 8.67682L4.42012 8.92008ZM4.04075 9.57818L4.33619 9.63031L4.35822 9.50543L4.284 9.4026L4.04075 9.57818ZM6.3986 12.8448L6.64186 12.6692L6.56764 12.5664L6.44217 12.548L6.3986 12.8448ZM6.58074 13.0971L6.33749 13.2727L6.51307 13.516L6.75632 13.3404L6.58074 13.0971ZM7.12817 12.702L6.95776 12.455L6.95259 12.4587L7.12817 12.702ZM4.42023 8.92023L4.17697 9.09581L4.35261 9.33914L4.59588 9.16343L4.42023 8.92023ZM4.03397 9.56878L4.5957 9.16333L4.24453 8.67682L3.68281 9.08228L4.03397 9.56878ZM4.284 9.4026L4.10164 9.14995L3.61514 9.50111L3.7975 9.75376L4.284 9.4026ZM4.90142 11.4412C4.42815 10.7855 4.25433 10.0942 4.33619 9.63031L3.74531 9.52605C3.62659 10.199 3.88073 11.0523 4.41491 11.7924L4.90142 11.4412ZM6.44217 12.548C5.97608 12.4796 5.37468 12.0969 4.90142 11.4412L4.41491 11.7924C4.94909 12.5324 5.67898 13.0424 6.35504 13.1416L6.44217 12.548ZM6.824 12.9216L6.64186 12.6692L6.15535 13.0204L6.33749 13.2727L6.824 12.9216ZM6.95259 12.4587L6.40516 12.8539L6.75632 13.3404L7.30375 12.9453L6.95259 12.4587ZM6.96722 12.4484C6.96409 12.4507 6.96095 12.4529 6.9578 12.4551L7.29853 12.9489C7.30519 12.9443 7.31181 12.9397 7.31838 12.9349L6.96722 12.4484ZM6.66182 10.1705C7.01157 10.6551 7.20217 11.1668 7.23968 11.5923C7.27783 12.0251 7.15758 12.311 6.96722 12.4484L7.31838 12.9349C7.74848 12.6245 7.88524 12.0828 7.83736 11.5396C7.78883 10.9891 7.55034 10.3763 7.14833 9.81938L6.66182 10.1705ZM4.59602 9.16333C4.78638 9.02592 5.09562 9.00183 5.49441 9.17435C5.88646 9.34395 6.31208 9.686 6.66182 10.1705L7.14833 9.81938C6.74631 9.26243 6.23985 8.8431 5.73264 8.62367C5.23217 8.40716 4.67497 8.36637 4.24486 8.67682L4.59602 9.16333ZM4.59588 9.16343C4.59593 9.16339 4.59598 9.16336 4.59602 9.16333L4.24486 8.67682C4.24476 8.67689 4.24467 8.67696 4.24457 8.67703L4.59588 9.16343ZM4.17686 9.09566L4.17697 9.09581L4.66348 8.74465L4.66337 8.7445L4.17686 9.09566Z"
        fill="black" mask="url(#path-26-inside-9_21829_14155)" />
    <path
        d="M6.22181 10.4882C6.58463 10.9909 6.7872 11.5278 6.82746 11.9846C6.86805 12.445 6.74367 12.7949 6.49337 12.9755C6.24308 13.1562 5.87185 13.1641 5.44764 12.9806C5.0268 12.7985 4.58097 12.4371 4.21816 11.9345C3.85534 11.4318 3.65277 10.8949 3.6125 10.4381C3.57192 9.97771 3.6963 9.62785 3.9466 9.44719C4.19689 9.26652 4.56812 9.25865 4.99233 9.44216C5.41317 9.62422 5.859 9.98559 6.22181 10.4882Z"
        fill="#FFAB90" stroke="black" stroke-width="0.3" />
    <path
        d="M11.7642 8.57233L8.04261 11.2586C8.04245 11.2568 8.04229 11.2551 8.04213 11.2534C8.0327 11.1525 8.01122 11.0454 7.98234 10.9435C7.94868 10.8248 7.90186 10.7025 7.84558 10.6015L11.5676 7.91494C11.7306 8.11019 11.7998 8.34081 11.7642 8.57233Z"
        fill="#D9D9D9" stroke="black" stroke-width="0.3" />
    <path
        d="M11.7642 8.57235L8.04549 11.2565C8.04533 11.2548 8.04517 11.253 8.04501 11.2513C8.03557 11.1504 8.01408 11.0433 7.98521 10.9415C7.95155 10.8227 7.90474 10.7005 7.84847 10.5995L11.5676 7.91496C11.7305 8.11025 11.7997 8.34087 11.7642 8.57235Z"
        fill="url(#paint1_linear_21829_14155)" fill-opacity="0.6" stroke="black" stroke-width="0.3" />
    <path opacity="0.25" d="M6.58691 9.55371L6.41315 9.31297L11.1076 5.92451L11.2814 6.16525L6.58691 9.55371Z"
        fill="#FFF2EE" />
    <path opacity="0.23" d="M6.21713 9.21045L5.76703 8.92506L10.4615 5.5366L10.9116 5.82198L6.21713 9.21045Z"
        fill="#FFF0EB" />
    <path
        d="M7.97572 9.34426C7.7988 8.69523 7.38072 8.29495 6.65392 8.08846C6.55133 8.04779 6.55688 7.93881 6.66883 7.84702C6.66951 7.84571 6.66986 7.84506 6.66986 7.84506C6.78421 7.75153 6.97174 7.70527 7.0787 7.74524C7.768 7.98784 8.22044 8.44114 8.45523 9.08413C8.48774 9.19005 8.40626 9.34772 8.28126 9.42819C8.15889 9.50553 8.01037 9.4413 7.97572 9.34426Z"
        fill="#CEABFF" stroke="black" stroke-width="0.3" />
    <path
        d="M8.69837 8.82302C8.52146 8.17399 8.10337 7.77371 7.37658 7.56722C7.27398 7.52654 7.27954 7.41757 7.39149 7.32578C7.39217 7.32447 7.39251 7.32382 7.39251 7.32382C7.50687 7.23029 7.6944 7.18403 7.80136 7.224C8.49065 7.4666 8.9431 7.9199 9.17789 8.56289C9.2104 8.66881 9.12892 8.82648 9.00392 8.90695C8.88154 8.98429 8.73302 8.92006 8.69837 8.82302Z"
        fill="#CEABFF" stroke="black" stroke-width="0.3" />
    <defs>
        <linearGradient id="paint0_linear_21829_14155" x1="3.10269" y1="5.84478" x2="1.86184" y2="9.25398"
            gradientUnits="userSpaceOnUse">
            <stop offset="0.285" stop-color="#36FF9B" />
            <stop offset="0.75" stop-color="#74BDCD" />
            <stop offset="1" stop-color="#B27AFF" />
        </linearGradient>
        <linearGradient id="paint1_linear_21829_14155" x1="7.77133" y1="11.0548" x2="12.322" y2="9.76521"
            gradientUnits="userSpaceOnUse">
            <stop offset="0.285" stop-color="#36FF9B" />
            <stop offset="0.75" stop-color="#74BDCD" />
            <stop offset="1" stop-color="#B27AFF" />
        </linearGradient>
    </defs>
</svg>
