<svg width="14" height="14" viewBox="0 0 14 14" fill="none" xmlns="http://www.w3.org/2000/svg">
<path fill-rule="evenodd" clip-rule="evenodd" d="M1.71502 4.76996C1.43335 5.43495 1.28336 6.14161 1.26669 6.86994C1.26502 6.9416 1.20669 6.99993 1.13336 6.99993H0.133366C0.0583667 6.99993 -0.00163275 6.93827 3.38995e-05 6.86327C0.0716999 3.05997 3.17834 0 6.99663 0C9.23661 0 11.2299 1.05166 12.5116 2.69164L13.4516 1.95665C13.5382 1.88665 13.6666 1.94998 13.6666 2.06165L13.6532 5.07662C13.6532 5.16162 13.5716 5.22495 13.4882 5.20495L10.5599 4.48829C10.4516 4.46162 10.4216 4.32163 10.5099 4.25329L11.5133 3.46997C11.3699 3.28664 11.2149 3.11164 11.0499 2.94664C10.5233 2.41831 9.90994 2.00498 9.22828 1.71665C8.52329 1.41832 7.77329 1.26665 6.9983 1.26665C6.22331 1.26665 5.47332 1.41832 4.76666 1.71665C4.08333 2.00498 3.47 2.41831 2.94334 2.94664C2.41668 3.47497 2.00335 4.08663 1.71502 4.76996ZM12.8665 6.99993H13.8665C13.9415 6.99993 14.0015 7.0616 13.9998 7.1366C13.9282 10.9382 10.8232 13.9999 7.00323 13.9999C4.76325 13.9999 2.76994 12.9482 1.48828 11.3099L0.548294 12.0449C0.461628 12.1149 0.333296 12.0516 0.333296 11.9399L0.344962 8.92325C0.344962 8.83825 0.426628 8.77492 0.509961 8.79492L3.43827 9.51158C3.5466 9.53824 3.5766 9.67824 3.48827 9.74657L2.48494 10.5299C2.62827 10.7132 2.78327 10.8882 2.94827 11.0532C3.47493 11.5816 4.08826 11.9949 4.76992 12.2832C5.47658 12.5815 6.22657 12.7332 7.00157 12.7332C7.77656 12.7332 8.52655 12.5815 9.23321 12.2832C9.91654 11.9949 10.5299 11.5799 11.0565 11.0532C11.5832 10.5266 11.9965 9.91324 12.2848 9.22991C12.5665 8.56492 12.7165 7.85826 12.7332 7.12993C12.7348 7.05827 12.7932 6.99993 12.8665 6.99993Z" fill="#838791"/>
</svg>
