<svg width="92" height="90" viewBox="0 0 92 90" fill="none" xmlns="http://www.w3.org/2000/svg">
    <path
        d="M9.36685 43.7201L13.1469 39.0534C11.2926 38.5849 9.35794 38.5303 7.48019 38.8934C5.40019 39.4067 5.07352 43.3334 5.04019 45.1934C5.03786 45.2966 5.06314 45.3986 5.11341 45.4888C5.16368 45.579 5.23711 45.6541 5.32613 45.7065C5.41516 45.7588 5.51653 45.7864 5.61979 45.7865C5.72305 45.7865 5.82445 45.759 5.91352 45.7067L9.36685 43.7201Z"
        fill="#FC774C" />
    <path
        d="M7.49343 40.6666C8.94682 40.3677 10.4428 40.3383 11.9068 40.58L13.1468 39.06C11.2925 38.5915 9.35785 38.5369 7.4801 38.9C5.4001 39.4066 5.07343 43.3333 5.0401 45.1933C5.03843 45.3069 5.07094 45.4184 5.13343 45.5133C5.33343 43.5533 5.8601 41.0733 7.49343 40.6666Z"
        fill="#FCB096" />
    <path
        d="M9.36685 43.7201L13.1469 39.0534C11.2926 38.5849 9.35794 38.5303 7.48019 38.8934C5.40019 39.4067 5.07352 43.3334 5.04019 45.1934C5.03786 45.2966 5.06314 45.3986 5.11341 45.4888C5.16368 45.579 5.23711 45.6541 5.32613 45.7065C5.41516 45.7588 5.51653 45.7864 5.61979 45.7865C5.72305 45.7865 5.82445 45.759 5.91352 45.7067L9.36685 43.7201Z"
        stroke="#45413C" stroke-linecap="round" stroke-linejoin="round" />
    <path
        d="M13.9069 48.2667L18.5736 44.4867C19.0417 46.3387 19.0963 48.2712 18.7336 50.1467C18.2469 52.2267 14.3469 52.5534 12.4603 52.5867C12.357 52.589 12.255 52.5637 12.1648 52.5135C12.0746 52.4632 11.9995 52.3898 11.9472 52.3007C11.8948 52.2117 11.8672 52.1103 11.8672 52.0071C11.8671 51.9038 11.8947 51.8024 11.9469 51.7134L13.9069 48.2667Z"
        fill="#FC774C" />
    <path
        d="M16.9399 50.14C17.2423 48.6848 17.2717 47.186 17.0266 45.72L18.5466 44.4867C19.0147 46.3387 19.0694 48.2712 18.7066 50.1467C18.2199 52.2267 14.3199 52.5534 12.4333 52.5867C12.3198 52.5876 12.2085 52.5551 12.1133 52.4934C14.0733 52.32 16.5533 51.7667 16.9399 50.14Z"
        fill="#FCB096" />
    <path
        d="M13.9069 48.2667L18.5736 44.4867C19.0417 46.3387 19.0963 48.2712 18.7336 50.1467C18.2469 52.2267 14.3469 52.5534 12.4603 52.5867C12.357 52.589 12.255 52.5637 12.1648 52.5135C12.0746 52.4632 11.9995 52.3898 11.9472 52.3007C11.8948 52.2117 11.8672 52.1103 11.8672 52.0071C11.8671 51.9038 11.8947 51.8024 11.9469 51.7134L13.9069 48.2667Z"
        stroke="#45413C" stroke-linecap="round" stroke-linejoin="round" />
    <path
        d="M26.3197 40.3733C29.933 36.5733 28.793 31.8867 28.2263 30.24C28.1613 30.0443 28.0518 29.8663 27.9063 29.72C27.7602 29.5777 27.5851 29.4686 27.393 29.4C25.7463 28.8333 21.053 27.6933 17.253 31.3333C12.5597 35.7733 9.33301 43.6667 9.33301 43.6667L13.9997 48.3333C13.9997 48.3333 21.853 45.0667 26.3197 40.3733Z"
        fill="#F8F1FF" />
    <path
        d="M18.6997 33.9133C22.3863 30.4 26.9063 31.38 28.6997 31.9533C28.5971 31.3718 28.45 30.799 28.2597 30.24C28.1915 30.0417 28.0774 29.8623 27.9268 29.7163C27.7762 29.5704 27.5934 29.462 27.393 29.4C25.7463 28.8333 21.053 27.6933 17.253 31.3333C12.5597 35.7733 9.33301 43.6667 9.33301 43.6667L11.1263 45.46C12.0797 43.3333 14.913 37.5133 18.6997 33.9133Z"
        fill="white" />
    <path
        d="M26.3197 40.3733C29.933 36.5733 28.793 31.8867 28.2263 30.24C28.1613 30.0443 28.0518 29.8663 27.9063 29.72C27.7602 29.5777 27.5851 29.4686 27.393 29.4C25.7463 28.8333 21.053 27.6933 17.253 31.3333C12.5597 35.7733 9.33301 43.6667 9.33301 43.6667L13.9997 48.3333C13.9997 48.3333 21.853 45.0667 26.3197 40.3733Z"
        stroke="#45413C" stroke-linecap="round" stroke-linejoin="round" />
    <path opacity="0.15"
        d="M12.1465 55.4734C12.1465 55.7386 12.8489 55.993 14.0991 56.1805C15.3493 56.368 17.045 56.4734 18.8132 56.4734C20.5813 56.4734 22.277 56.368 23.5272 56.1805C24.7774 55.993 25.4798 55.7386 25.4798 55.4734C25.4798 55.2082 24.7774 54.9538 23.5272 54.7663C22.277 54.5787 20.5813 54.4734 18.8132 54.4734C17.045 54.4734 15.3493 54.5787 14.0991 54.7663C12.8489 54.9538 12.1465 55.2082 12.1465 55.4734Z"
        fill="#45413C" />
    <path
        d="M15.1338 43.1C15.1823 43.0141 15.2014 42.9148 15.1883 42.817C15.1752 42.7193 15.1306 42.6285 15.0613 42.5583C14.9919 42.4882 14.9016 42.4427 14.804 42.4285C14.7064 42.4144 14.6069 42.4324 14.5205 42.48C13.2217 43.1447 12.0287 43.9985 10.9805 45.0133C9.87012 46.1317 8.99314 47.4597 8.40047 48.92C8.3826 48.9613 8.37743 49.007 8.38562 49.0512C8.3938 49.0955 8.41497 49.1363 8.44643 49.1684C8.47789 49.2006 8.51822 49.2227 8.56227 49.2319C8.60632 49.2411 8.65211 49.2369 8.6938 49.22C10.1519 48.6352 11.4797 47.7674 12.6005 46.6666C13.6192 45.6117 14.4732 44.4093 15.1338 43.1Z"
        fill="#FC774C" stroke="#45413C" stroke-linecap="round" stroke-linejoin="round" />
    <path
        d="M18.8271 35.1467C18.8271 36.1174 19.2128 37.0483 19.8991 37.7347C20.5855 38.4211 21.5165 38.8067 22.4871 38.8067C23.4578 38.8067 24.3888 38.4211 25.0752 37.7347C25.7615 37.0483 26.1472 36.1174 26.1472 35.1467C26.1472 34.176 25.7615 33.2451 25.0752 32.5587C24.3888 31.8723 23.4578 31.4867 22.4871 31.4867C21.5165 31.4867 20.5855 31.8723 19.8991 32.5587C19.2128 33.2451 18.8271 34.176 18.8271 35.1467Z"
        fill="#FFE2D8" stroke="#45413C" stroke-width="0.7" stroke-linecap="round" stroke-linejoin="round" />
    <path
        d="M19.9736 35.1267C19.9736 35.4594 20.0392 35.7888 20.1665 36.0962C20.2938 36.4035 20.4804 36.6828 20.7156 36.9181C20.9509 37.1533 21.2301 37.3399 21.5375 37.4672C21.8449 37.5945 22.1743 37.6601 22.507 37.6601C22.8396 37.6601 23.1691 37.5945 23.4764 37.4672C23.7838 37.3399 24.0631 37.1533 24.2983 36.9181C24.5335 36.6828 24.7201 36.4035 24.8475 36.0962C24.9748 35.7888 25.0403 35.4594 25.0403 35.1267C25.0403 34.794 24.9748 34.4646 24.8475 34.1573C24.7201 33.8499 24.5335 33.5706 24.2983 33.3354C24.0631 33.1001 23.7838 32.9135 23.4764 32.7862C23.1691 32.6589 22.8396 32.5934 22.507 32.5934C22.1743 32.5934 21.8449 32.6589 21.5375 32.7862C21.2301 32.9135 20.9509 33.1001 20.7156 33.3354C20.4804 33.5706 20.2938 33.8499 20.1665 34.1573C20.0392 34.4646 19.9736 34.794 19.9736 35.1267Z"
        fill="#B27AFF" />
    <path
        d="M20.7137 33.3333C20.4779 33.5686 20.2908 33.8482 20.1631 34.1559C20.0354 34.4636 19.9697 34.7935 19.9697 35.1266C19.9697 35.4598 20.0354 35.7897 20.1631 36.0974C20.2908 36.4051 20.4779 36.6847 20.7137 36.92C20.8833 37.0825 21.0739 37.2215 21.2804 37.3333L23.6471 32.8733C23.1726 32.6285 22.6326 32.5411 22.1052 32.6239C21.5778 32.7066 21.0904 32.9551 20.7137 33.3333Z"
        fill="#E0C9FE" />
    <path
        d="M19.9736 35.1267C19.9736 35.4594 20.0392 35.7888 20.1665 36.0962C20.2938 36.4035 20.4804 36.6828 20.7156 36.9181C20.9509 37.1533 21.2301 37.3399 21.5375 37.4672C21.8449 37.5945 22.1743 37.6601 22.507 37.6601C22.8396 37.6601 23.1691 37.5945 23.4764 37.4672C23.7838 37.3399 24.0631 37.1533 24.2983 36.9181C24.5335 36.6828 24.7201 36.4035 24.8475 36.0962C24.9748 35.7888 25.0403 35.4594 25.0403 35.1267C25.0403 34.794 24.9748 34.4646 24.8475 34.1573C24.7201 33.8499 24.5335 33.5706 24.2983 33.3354C24.0631 33.1001 23.7838 32.9135 23.4764 32.7862C23.1691 32.6589 22.8396 32.5934 22.507 32.5934C22.1743 32.5934 21.8449 32.6589 21.5375 32.7862C21.2301 32.9135 20.9509 33.1001 20.7156 33.3354C20.4804 33.5706 20.2938 33.8499 20.1665 34.1573C20.0392 34.4646 19.9736 34.794 19.9736 35.1267Z"
        stroke="#45413C" stroke-width="0.7" stroke-linecap="round" stroke-linejoin="round" />
    <path
        d="M7.55982 53.6467C7.09315 54.1134 4.11982 55.12 2.61315 55.6067C2.33315 55.7 1.94649 55.2934 2.01982 55.0134C2.50649 53.5134 3.51315 50.54 4.01982 50.0667C4.65315 49.4 6.30649 49.4 7.29315 50.3734C8.27982 51.3467 8.19315 53.0134 7.55982 53.6467Z"
        fill="#FC774C" stroke="#45413C" stroke-linecap="round" stroke-linejoin="round" />
    <path
        d="M6.75336 52.5267C6.42002 52.8533 5.04002 53.1933 4.75336 52.9C4.46669 52.6066 4.80002 51.2066 5.13335 50.9C5.35421 50.7492 5.62438 50.6887 5.88844 50.7309C6.1525 50.773 6.39041 50.9146 6.55336 51.1266C6.75706 51.2918 6.89085 51.5278 6.92794 51.7874C6.96503 52.047 6.90267 52.3111 6.75336 52.5267Z"
        fill="#FFE500" stroke="#45413C" stroke-linecap="round" stroke-linejoin="round" />
    <path
        d="M28.8795 41.7933L29.4129 42.8C29.434 42.8398 29.4644 42.8739 29.5016 42.8994C29.5387 42.925 29.5815 42.9412 29.6262 42.9466L30.7529 43.08C30.8047 43.0863 30.8537 43.107 30.8943 43.1396C30.935 43.1723 30.9658 43.2157 30.9831 43.2649C31.0004 43.3141 31.0036 43.3672 30.9924 43.4182C30.9812 43.4691 30.9559 43.5159 30.9195 43.5533L30.1262 44.3666C30.0936 44.3979 30.0697 44.437 30.0569 44.4803C30.044 44.5235 30.0426 44.5694 30.0529 44.6133L30.2729 45.7266C30.2826 45.7773 30.2782 45.8297 30.26 45.878C30.2419 45.9263 30.2108 45.9687 30.1701 46.0004C30.1294 46.0321 30.0807 46.052 30.0294 46.0578C29.9782 46.0636 29.9263 46.0551 29.8795 46.0333L28.8595 45.5266C28.8191 45.5067 28.7746 45.4963 28.7295 45.4963C28.6844 45.4963 28.64 45.5067 28.5995 45.5266L27.6062 46.0866C27.5602 46.1097 27.5088 46.1199 27.4575 46.1162C27.4062 46.1126 27.3568 46.0951 27.3146 46.0658C27.2723 46.0365 27.2387 45.9964 27.2173 45.9496C27.1959 45.9028 27.1874 45.8511 27.1929 45.8L27.3329 44.6666C27.339 44.6226 27.3344 44.5777 27.3193 44.5359C27.3042 44.4941 27.2791 44.4566 27.2462 44.4266L26.4395 43.6666C26.4016 43.6313 26.3743 43.5861 26.3606 43.5361C26.3469 43.4861 26.3473 43.4333 26.3618 43.3835C26.3763 43.3338 26.4043 43.289 26.4428 43.2543C26.4812 43.2195 26.5286 43.1961 26.5795 43.1866L27.6995 42.9933C27.7439 42.9867 27.786 42.9692 27.822 42.9425C27.8581 42.9157 27.887 42.8805 27.9062 42.84L28.3862 41.8066C28.4071 41.7594 28.441 41.7191 28.484 41.6904C28.5269 41.6617 28.577 41.6457 28.6287 41.6443C28.6803 41.6429 28.7313 41.6561 28.7757 41.6825C28.8201 41.7089 28.8561 41.7473 28.8795 41.7933Z"
        fill="#FF9900" />
    <path
        d="M27.0195 44.2067L27.7262 44.08C27.7708 44.074 27.8131 44.0568 27.8493 44.0299C27.8854 44.0031 27.9142 43.9676 27.9329 43.9267L28.4129 42.8934C28.4362 42.8471 28.4719 42.8082 28.5161 42.781C28.5602 42.7538 28.611 42.7395 28.6629 42.7395C28.7147 42.7395 28.7655 42.7538 28.8097 42.781C28.8538 42.8082 28.8895 42.8471 28.9129 42.8934L29.4395 43.9C29.4607 43.9398 29.4911 43.974 29.5282 43.9995C29.5654 44.025 29.6081 44.0412 29.6529 44.0467L30.3662 44.1334L30.9195 43.5667C30.9559 43.5293 30.9812 43.4825 30.9924 43.4316C31.0036 43.3806 31.0004 43.3275 30.9831 43.2783C30.9658 43.2291 30.935 43.1857 30.8943 43.153C30.8537 43.1203 30.8047 43.0997 30.7529 43.0934L29.6262 42.96C29.5815 42.9546 29.5387 42.9384 29.5016 42.9128C29.4644 42.8873 29.434 42.8532 29.4129 42.8134L28.8795 41.8067C28.8573 41.7601 28.8223 41.7208 28.7787 41.6933C28.735 41.6657 28.6845 41.6511 28.6329 41.6511C28.5813 41.6511 28.5307 41.6657 28.4871 41.6933C28.4434 41.7208 28.4084 41.7601 28.3862 41.8067L27.9062 42.84C27.887 42.8806 27.8581 42.9158 27.822 42.9425C27.786 42.9693 27.7439 42.9867 27.6995 42.9934L26.5795 43.1867C26.5286 43.1962 26.4812 43.2196 26.4428 43.2543C26.4043 43.2891 26.3763 43.3338 26.3618 43.3836C26.3473 43.4334 26.3469 43.4862 26.3606 43.5362C26.3743 43.5861 26.4016 43.6313 26.4395 43.6667L27.0195 44.2067Z"
        fill="#FCCE88" />
    <path
        d="M28.8795 41.7933L29.4129 42.8C29.434 42.8398 29.4644 42.8739 29.5016 42.8994C29.5387 42.925 29.5815 42.9412 29.6262 42.9466L30.7529 43.08C30.8047 43.0863 30.8537 43.107 30.8943 43.1396C30.935 43.1723 30.9658 43.2157 30.9831 43.2649C31.0004 43.3141 31.0036 43.3672 30.9924 43.4182C30.9812 43.4691 30.9559 43.5159 30.9195 43.5533L30.1262 44.3666C30.0936 44.3979 30.0697 44.437 30.0569 44.4803C30.044 44.5235 30.0426 44.5694 30.0529 44.6133L30.2729 45.7266C30.2826 45.7773 30.2782 45.8297 30.26 45.878C30.2419 45.9263 30.2108 45.9687 30.1701 46.0004C30.1294 46.0321 30.0807 46.052 30.0294 46.0578C29.9782 46.0636 29.9263 46.0551 29.8795 46.0333L28.8595 45.5266C28.8191 45.5067 28.7746 45.4963 28.7295 45.4963C28.6844 45.4963 28.64 45.5067 28.5995 45.5266L27.6062 46.0866C27.5602 46.1097 27.5088 46.1199 27.4575 46.1162C27.4062 46.1126 27.3568 46.0951 27.3146 46.0658C27.2723 46.0365 27.2387 45.9964 27.2173 45.9496C27.1959 45.9028 27.1874 45.8511 27.1929 45.8L27.3329 44.6666C27.339 44.6226 27.3344 44.5777 27.3193 44.5359C27.3042 44.4941 27.2791 44.4566 27.2462 44.4266L26.4395 43.6666C26.4016 43.6313 26.3743 43.5861 26.3606 43.5361C26.3469 43.4861 26.3473 43.4333 26.3618 43.3835C26.3763 43.3338 26.4043 43.289 26.4428 43.2543C26.4812 43.2195 26.5286 43.1961 26.5795 43.1866L27.6995 42.9933C27.7439 42.9867 27.786 42.9692 27.822 42.9425C27.8581 42.9157 27.887 42.8805 27.9062 42.84L28.3862 41.8066C28.4071 41.7594 28.441 41.7191 28.484 41.6904C28.5269 41.6617 28.577 41.6457 28.6287 41.6443C28.6803 41.6429 28.7313 41.6561 28.7757 41.6825C28.8201 41.7089 28.8561 41.7473 28.8795 41.7933Z"
        stroke="#45413C" stroke-width="0.8" stroke-linecap="round" stroke-linejoin="round" />
    <path
        d="M21.1604 53.06L21.3337 53.96C21.3421 53.9952 21.3584 54.028 21.3816 54.0557C21.4047 54.0835 21.434 54.1055 21.4671 54.12L22.3137 54.48C22.35 54.4994 22.3803 54.5282 22.4014 54.5634C22.4226 54.5987 22.4337 54.639 22.4337 54.68C22.4337 54.7211 22.4226 54.7614 22.4014 54.7967C22.3803 54.8319 22.35 54.8607 22.3137 54.88L21.5137 55.3334C21.4817 55.3503 21.4545 55.375 21.4346 55.4054C21.4148 55.4357 21.403 55.4706 21.4004 55.5067L21.3337 56.42C21.3301 56.4623 21.3146 56.5028 21.2891 56.5367C21.2636 56.5706 21.2291 56.5967 21.1895 56.612C21.1499 56.6273 21.1068 56.6312 21.0651 56.6231C21.0235 56.6151 20.9849 56.5956 20.9537 56.5667L20.2871 55.9467C20.2618 55.9204 20.2298 55.9016 20.1945 55.8922C20.1593 55.8828 20.1221 55.8832 20.0871 55.8934L19.1937 56.0934C19.153 56.1018 19.1107 56.0988 19.0715 56.0848C19.0323 56.0708 18.9978 56.0463 18.9716 56.0139C18.9454 55.9816 18.9287 55.9426 18.9232 55.9014C18.9177 55.8601 18.9236 55.8181 18.9404 55.78L19.3337 54.9467C19.3519 54.9153 19.3614 54.8797 19.3614 54.8434C19.3614 54.8071 19.3519 54.7715 19.3337 54.74L18.8671 53.9534C18.8458 53.9171 18.8351 53.8757 18.836 53.8337C18.8369 53.7918 18.8495 53.7508 18.8723 53.7156C18.8951 53.6803 18.9273 53.6521 18.9652 53.634C19.0031 53.616 19.0453 53.6088 19.0871 53.6134L19.9937 53.72C20.0304 53.7231 20.0673 53.7181 20.1018 53.7054C20.1364 53.6928 20.1677 53.6727 20.1937 53.6467L20.7937 52.98C20.8206 52.9545 20.8532 52.936 20.8889 52.926C20.9246 52.916 20.9621 52.9149 20.9983 52.9228C21.0345 52.9307 21.0682 52.9473 21.0964 52.9713C21.1247 52.9952 21.1467 53.0257 21.1604 53.06Z"
        fill="#FFE500" />
    <path
        d="M19.1737 54.5L19.7471 54.5667C19.7838 54.5712 19.8212 54.5669 19.8559 54.5542C19.8907 54.5414 19.922 54.5206 19.9471 54.4934L20.5471 53.8267C20.5746 53.7948 20.6105 53.7711 20.6507 53.7584C20.6909 53.7457 20.7338 53.7445 20.7747 53.7549C20.8156 53.7653 20.8527 53.7869 20.882 53.8172C20.9113 53.8476 20.9315 53.8855 20.9404 53.9267L21.1204 54.8267C21.1259 54.8621 21.1404 54.8954 21.1626 54.9234C21.1848 54.9515 21.2139 54.9733 21.2471 54.9867L21.7804 55.2134L22.3404 54.9C22.3767 54.8807 22.407 54.8519 22.4281 54.8167C22.4492 54.7814 22.4604 54.7411 22.4604 54.7C22.4604 54.659 22.4492 54.6186 22.4281 54.5834C22.407 54.5482 22.3767 54.5194 22.3404 54.5L21.4937 54.14C21.4606 54.1255 21.4314 54.1035 21.4082 54.0757C21.3851 54.048 21.3687 54.0152 21.3604 53.98L21.1804 53.08C21.1716 53.0397 21.1519 53.0026 21.1235 52.9726C21.0951 52.9426 21.0591 52.921 21.0193 52.91C20.9795 52.899 20.9374 52.8991 20.8977 52.9103C20.8579 52.9215 20.822 52.9433 20.7937 52.9734L20.1937 53.64C20.1677 53.6661 20.1364 53.6861 20.1018 53.6987C20.0673 53.7114 20.0304 53.7164 19.9937 53.7134L19.0871 53.6067C19.0453 53.6022 19.0031 53.6093 18.9652 53.6274C18.9273 53.6454 18.8951 53.6737 18.8723 53.7089C18.8495 53.7442 18.8369 53.7851 18.836 53.8271C18.8351 53.8691 18.8458 53.9105 18.8671 53.9467L19.1737 54.5Z"
        fill="#FFF48C" />
    <path
        d="M21.1604 53.06L21.3337 53.96C21.3421 53.9952 21.3584 54.028 21.3816 54.0557C21.4047 54.0835 21.434 54.1055 21.4671 54.12L22.3137 54.48C22.35 54.4994 22.3803 54.5282 22.4014 54.5634C22.4226 54.5987 22.4337 54.639 22.4337 54.68C22.4337 54.7211 22.4226 54.7614 22.4014 54.7967C22.3803 54.8319 22.35 54.8607 22.3137 54.88L21.5137 55.3334C21.4817 55.3503 21.4545 55.375 21.4346 55.4054C21.4148 55.4357 21.403 55.4706 21.4004 55.5067L21.3337 56.42C21.3301 56.4623 21.3146 56.5028 21.2891 56.5367C21.2636 56.5706 21.2291 56.5967 21.1895 56.612C21.1499 56.6273 21.1068 56.6312 21.0651 56.6231C21.0235 56.6151 20.9849 56.5956 20.9537 56.5667L20.2871 55.9467C20.2618 55.9204 20.2298 55.9016 20.1945 55.8922C20.1593 55.8828 20.1221 55.8832 20.0871 55.8934L19.1937 56.0934C19.153 56.1018 19.1107 56.0988 19.0715 56.0848C19.0323 56.0708 18.9978 56.0463 18.9716 56.0139C18.9454 55.9816 18.9287 55.9426 18.9232 55.9014C18.9177 55.8601 18.9236 55.8181 18.9404 55.78L19.3337 54.9467C19.3519 54.9153 19.3614 54.8797 19.3614 54.8434C19.3614 54.8071 19.3519 54.7715 19.3337 54.74L18.8671 53.9534C18.8458 53.9171 18.8351 53.8757 18.836 53.8337C18.8369 53.7918 18.8495 53.7508 18.8723 53.7156C18.8951 53.6803 18.9273 53.6521 18.9652 53.634C19.0031 53.616 19.0453 53.6088 19.0871 53.6134L19.9937 53.72C20.0304 53.7231 20.0673 53.7181 20.1018 53.7054C20.1364 53.6928 20.1677 53.6727 20.1937 53.6467L20.7937 52.98C20.8206 52.9545 20.8532 52.936 20.8889 52.926C20.9246 52.916 20.9621 52.9149 20.9983 52.9228C21.0345 52.9307 21.0682 52.9473 21.0964 52.9713C21.1247 52.9952 21.1467 53.0257 21.1604 53.06Z"
        stroke="#45413C" stroke-width="0.8" stroke-linecap="round" stroke-linejoin="round" />
    <path
        d="M37.3669 75.7201L41.1469 71.0534C39.2926 70.5849 37.3579 70.5303 35.4802 70.8934C33.4002 71.4067 33.0735 75.3334 33.0402 77.1934C33.0379 77.2966 33.0631 77.3986 33.1134 77.4888C33.1637 77.579 33.2371 77.6541 33.3261 77.7065C33.4152 77.7588 33.5165 77.7864 33.6198 77.7865C33.7231 77.7865 33.8245 77.759 33.9135 77.7067L37.3669 75.7201Z"
        fill="#FC774C" />
    <path
        d="M35.4934 72.6666C36.9468 72.3677 38.4428 72.3383 39.9068 72.58L41.1468 71.06C39.2925 70.5915 37.3579 70.5369 35.4801 70.9C33.4001 71.4066 33.0734 75.3333 33.0401 77.1933C33.0384 77.3069 33.0709 77.4184 33.1334 77.5133C33.3334 75.5533 33.8601 73.0733 35.4934 72.6666Z"
        fill="#FCB096" />
    <path
        d="M37.3669 75.7201L41.1469 71.0534C39.2926 70.5849 37.3579 70.5303 35.4802 70.8934C33.4002 71.4067 33.0735 75.3334 33.0402 77.1934C33.0379 77.2966 33.0631 77.3986 33.1134 77.4888C33.1637 77.579 33.2371 77.6541 33.3261 77.7065C33.4152 77.7588 33.5165 77.7864 33.6198 77.7865C33.7231 77.7865 33.8245 77.759 33.9135 77.7067L37.3669 75.7201Z"
        stroke="#45413C" stroke-linecap="round" stroke-linejoin="round" />
    <path
        d="M41.9069 80.2667L46.5736 76.4867C47.0417 78.3387 47.0963 80.2712 46.7336 82.1467C46.2469 84.2267 42.3469 84.5534 40.4603 84.5867C40.357 84.589 40.255 84.5637 40.1648 84.5135C40.0746 84.4632 39.9995 84.3898 39.9472 84.3007C39.8948 84.2117 39.8672 84.1103 39.8672 84.0071C39.8671 83.9038 39.8947 83.8024 39.9469 83.7134L41.9069 80.2667Z"
        fill="#FC774C" />
    <path
        d="M44.9399 82.14C45.2423 80.6848 45.2717 79.186 45.0266 77.72L46.5466 76.4867C47.0147 78.3387 47.0694 80.2712 46.7066 82.1467C46.2199 84.2267 42.3199 84.5534 40.4333 84.5867C40.3198 84.5876 40.2085 84.5551 40.1133 84.4934C42.0733 84.32 44.5533 83.7667 44.9399 82.14Z"
        fill="#FCB096" />
    <path
        d="M41.9069 80.2667L46.5736 76.4867C47.0417 78.3387 47.0963 80.2712 46.7336 82.1467C46.2469 84.2267 42.3469 84.5534 40.4603 84.5867C40.357 84.589 40.255 84.5637 40.1648 84.5135C40.0746 84.4632 39.9995 84.3898 39.9472 84.3007C39.8948 84.2117 39.8672 84.1103 39.8672 84.0071C39.8671 83.9038 39.8947 83.8024 39.9469 83.7134L41.9069 80.2667Z"
        stroke="#45413C" stroke-linecap="round" stroke-linejoin="round" />
    <path
        d="M54.3197 72.3733C57.933 68.5733 56.793 63.8867 56.2263 62.24C56.1613 62.0443 56.0518 61.8663 55.9063 61.72C55.7602 61.5777 55.5851 61.4686 55.393 61.4C53.7463 60.8333 49.053 59.6933 45.253 63.3333C40.5597 67.7733 37.333 75.6667 37.333 75.6667L41.9997 80.3333C41.9997 80.3333 49.853 77.0667 54.3197 72.3733Z"
        fill="#F8F1FF" />
    <path
        d="M46.6997 65.9133C50.3863 62.4 54.9063 63.38 56.6997 63.9533C56.5971 63.3718 56.45 62.799 56.2597 62.24C56.1915 62.0417 56.0774 61.8623 55.9268 61.7163C55.7762 61.5704 55.5934 61.462 55.393 61.4C53.7463 60.8333 49.053 59.6933 45.253 63.3333C40.5597 67.7733 37.333 75.6667 37.333 75.6667L39.1263 77.46C40.0797 75.3333 42.913 69.5133 46.6997 65.9133Z"
        fill="white" />
    <path
        d="M54.3197 72.3733C57.933 68.5733 56.793 63.8867 56.2263 62.24C56.1613 62.0443 56.0518 61.8663 55.9063 61.72C55.7602 61.5777 55.5851 61.4686 55.393 61.4C53.7463 60.8333 49.053 59.6933 45.253 63.3333C40.5597 67.7733 37.333 75.6667 37.333 75.6667L41.9997 80.3333C41.9997 80.3333 49.853 77.0667 54.3197 72.3733Z"
        stroke="#45413C" stroke-linecap="round" stroke-linejoin="round" />
    <path opacity="0.15"
        d="M40.1465 87.4734C40.1465 87.7386 40.8489 87.993 42.0991 88.1805C43.3493 88.368 45.045 88.4734 46.8132 88.4734C48.5813 88.4734 50.277 88.368 51.5272 88.1805C52.7774 87.993 53.4798 87.7386 53.4798 87.4734C53.4798 87.2082 52.7774 86.9538 51.5272 86.7663C50.277 86.5787 48.5813 86.4734 46.8132 86.4734C45.045 86.4734 43.3493 86.5787 42.0991 86.7663C40.8489 86.9538 40.1465 87.2082 40.1465 87.4734Z"
        fill="#45413C" />
    <path
        d="M43.1338 75.1C43.1823 75.0141 43.2014 74.9148 43.1883 74.817C43.1752 74.7193 43.1306 74.6285 43.0613 74.5583C42.9919 74.4882 42.9016 74.4427 42.804 74.4285C42.7064 74.4144 42.6069 74.4324 42.5205 74.48C41.2217 75.1447 40.0287 75.9985 38.9805 77.0133C37.8701 78.1317 36.9931 79.4597 36.4005 80.92C36.3826 80.9613 36.3774 81.007 36.3856 81.0512C36.3938 81.0955 36.415 81.1363 36.4464 81.1684C36.4779 81.2006 36.5182 81.2227 36.5623 81.2319C36.6063 81.2411 36.6521 81.2369 36.6938 81.22C38.1519 80.6352 39.4797 79.7674 40.6005 78.6666C41.6192 77.6117 42.4732 76.4093 43.1338 75.1Z"
        fill="#FC774C" stroke="#45413C" stroke-linecap="round" stroke-linejoin="round" />
    <path
        d="M46.8271 67.1467C46.8271 68.1174 47.2128 69.0483 47.8991 69.7347C48.5855 70.4211 49.5165 70.8067 50.4871 70.8067C51.4578 70.8067 52.3888 70.4211 53.0752 69.7347C53.7615 69.0483 54.1472 68.1174 54.1472 67.1467C54.1472 66.176 53.7615 65.2451 53.0752 64.5587C52.3888 63.8723 51.4578 63.4867 50.4871 63.4867C49.5165 63.4867 48.5855 63.8723 47.8991 64.5587C47.2128 65.2451 46.8271 66.176 46.8271 67.1467Z"
        fill="#FFE2D8" stroke="#45413C" stroke-width="0.7" stroke-linecap="round" stroke-linejoin="round" />
    <path
        d="M47.9736 67.1267C47.9736 67.4594 48.0392 67.7888 48.1665 68.0962C48.2938 68.4035 48.4804 68.6828 48.7156 68.9181C48.9509 69.1533 49.2301 69.3399 49.5375 69.4672C49.8449 69.5945 50.1743 69.6601 50.507 69.6601C50.8396 69.6601 51.1691 69.5945 51.4764 69.4672C51.7838 69.3399 52.0631 69.1533 52.2983 68.9181C52.5335 68.6828 52.7201 68.4035 52.8475 68.0962C52.9748 67.7888 53.0403 67.4594 53.0403 67.1267C53.0403 66.794 52.9748 66.4646 52.8475 66.1573C52.7201 65.8499 52.5335 65.5706 52.2983 65.3354C52.0631 65.1001 51.7838 64.9135 51.4764 64.7862C51.1691 64.6589 50.8396 64.5934 50.507 64.5934C50.1743 64.5934 49.8449 64.6589 49.5375 64.7862C49.2301 64.9135 48.9509 65.1001 48.7156 65.3354C48.4804 65.5706 48.2938 65.8499 48.1665 66.1573C48.0392 66.4646 47.9736 66.794 47.9736 67.1267Z"
        fill="#B27AFF" />
    <path
        d="M48.7137 65.3333C48.4779 65.5686 48.2908 65.8482 48.1631 66.1559C48.0354 66.4636 47.9697 66.7935 47.9697 67.1266C47.9697 67.4598 48.0354 67.7897 48.1631 68.0974C48.2908 68.4051 48.4779 68.6847 48.7137 68.92C48.8833 69.0825 49.0739 69.2215 49.2804 69.3333L51.6471 64.8733C51.1726 64.6285 50.6326 64.5411 50.1052 64.6239C49.5778 64.7066 49.0904 64.9551 48.7137 65.3333Z"
        fill="#E0C9FE" />
    <path
        d="M47.9736 67.1267C47.9736 67.4594 48.0392 67.7888 48.1665 68.0962C48.2938 68.4035 48.4804 68.6828 48.7156 68.9181C48.9509 69.1533 49.2301 69.3399 49.5375 69.4672C49.8449 69.5945 50.1743 69.6601 50.507 69.6601C50.8396 69.6601 51.1691 69.5945 51.4764 69.4672C51.7838 69.3399 52.0631 69.1533 52.2983 68.9181C52.5335 68.6828 52.7201 68.4035 52.8475 68.0962C52.9748 67.7888 53.0403 67.4594 53.0403 67.1267C53.0403 66.794 52.9748 66.4646 52.8475 66.1573C52.7201 65.8499 52.5335 65.5706 52.2983 65.3354C52.0631 65.1001 51.7838 64.9135 51.4764 64.7862C51.1691 64.6589 50.8396 64.5934 50.507 64.5934C50.1743 64.5934 49.8449 64.6589 49.5375 64.7862C49.2301 64.9135 48.9509 65.1001 48.7156 65.3354C48.4804 65.5706 48.2938 65.8499 48.1665 66.1573C48.0392 66.4646 47.9736 66.794 47.9736 67.1267Z"
        stroke="#45413C" stroke-width="0.7" stroke-linecap="round" stroke-linejoin="round" />
    <path
        d="M35.5598 85.6467C35.0932 86.1134 32.1198 87.12 30.6132 87.6067C30.3332 87.7 29.9465 87.2934 30.0198 87.0134C30.5065 85.5134 31.5132 82.54 32.0198 82.0667C32.6532 81.4 34.3065 81.4 35.2932 82.3734C36.2798 83.3467 36.1932 85.0134 35.5598 85.6467Z"
        fill="#FC774C" stroke="#45413C" stroke-linecap="round" stroke-linejoin="round" />
    <path
        d="M34.7534 84.5267C34.42 84.8533 33.04 85.1933 32.7534 84.9C32.4667 84.6066 32.8 83.2066 33.1334 82.9C33.3542 82.7492 33.6244 82.6887 33.8884 82.7309C34.1525 82.773 34.3904 82.9146 34.5534 83.1266C34.7571 83.2918 34.8909 83.5278 34.9279 83.7874C34.965 84.047 34.9027 84.3111 34.7534 84.5267Z"
        fill="#FFE500" stroke="#45413C" stroke-linecap="round" stroke-linejoin="round" />
    <path
        d="M56.8795 73.7933L57.4129 74.8C57.434 74.8398 57.4644 74.8739 57.5016 74.8994C57.5387 74.925 57.5815 74.9412 57.6262 74.9466L58.7529 75.08C58.8047 75.0863 58.8537 75.107 58.8943 75.1396C58.935 75.1723 58.9658 75.2157 58.9831 75.2649C59.0004 75.3141 59.0036 75.3672 58.9924 75.4182C58.9812 75.4691 58.9559 75.5159 58.9195 75.5533L58.1262 76.3666C58.0936 76.3979 58.0697 76.437 58.0569 76.4803C58.044 76.5235 58.0426 76.5694 58.0529 76.6133L58.2729 77.7266C58.2826 77.7773 58.2782 77.8297 58.26 77.878C58.2419 77.9263 58.2108 77.9687 58.1701 78.0004C58.1294 78.0321 58.0807 78.052 58.0294 78.0578C57.9782 78.0636 57.9263 78.0551 57.8795 78.0333L56.8595 77.5266C56.8191 77.5067 56.7746 77.4963 56.7295 77.4963C56.6844 77.4963 56.64 77.5067 56.5995 77.5266L55.6062 78.0866C55.5602 78.1097 55.5088 78.1199 55.4575 78.1162C55.4062 78.1126 55.3568 78.0951 55.3146 78.0658C55.2723 78.0365 55.2387 77.9964 55.2173 77.9496C55.1959 77.9028 55.1874 77.8511 55.1929 77.8L55.3329 76.6666C55.339 76.6226 55.3344 76.5777 55.3193 76.5359C55.3042 76.4941 55.2791 76.4566 55.2462 76.4266L54.4395 75.6666C54.4016 75.6313 54.3743 75.5861 54.3606 75.5361C54.3469 75.4861 54.3473 75.4333 54.3618 75.3835C54.3763 75.3338 54.4043 75.289 54.4428 75.2543C54.4812 75.2195 54.5286 75.1961 54.5795 75.1866L55.6995 74.9933C55.7439 74.9867 55.786 74.9692 55.822 74.9425C55.8581 74.9157 55.887 74.8805 55.9062 74.84L56.3862 73.8066C56.4071 73.7594 56.441 73.7191 56.484 73.6904C56.5269 73.6617 56.577 73.6457 56.6287 73.6443C56.6803 73.6429 56.7313 73.6561 56.7757 73.6825C56.8201 73.7089 56.8561 73.7473 56.8795 73.7933Z"
        fill="#FF9900" />
    <path
        d="M55.0195 76.2067L55.7262 76.08C55.7708 76.074 55.8131 76.0568 55.8493 76.0299C55.8854 76.0031 55.9142 75.9676 55.9329 75.9267L56.4129 74.8934C56.4362 74.8471 56.4719 74.8082 56.5161 74.781C56.5602 74.7538 56.611 74.7395 56.6629 74.7395C56.7147 74.7395 56.7655 74.7538 56.8097 74.781C56.8538 74.8082 56.8895 74.8471 56.9129 74.8934L57.4395 75.9C57.4607 75.9398 57.4911 75.974 57.5282 75.9995C57.5654 76.025 57.6081 76.0412 57.6529 76.0467L58.3662 76.1334L58.9195 75.5667C58.9559 75.5293 58.9812 75.4825 58.9924 75.4316C59.0036 75.3806 59.0004 75.3275 58.9831 75.2783C58.9658 75.2291 58.935 75.1857 58.8943 75.153C58.8537 75.1203 58.8047 75.0997 58.7529 75.0934L57.6262 74.96C57.5815 74.9546 57.5387 74.9384 57.5016 74.9128C57.4644 74.8873 57.434 74.8532 57.4129 74.8134L56.8795 73.8067C56.8573 73.7601 56.8223 73.7208 56.7787 73.6933C56.735 73.6657 56.6845 73.6511 56.6329 73.6511C56.5813 73.6511 56.5307 73.6657 56.4871 73.6933C56.4434 73.7208 56.4084 73.7601 56.3862 73.8067L55.9062 74.84C55.887 74.8806 55.8581 74.9158 55.822 74.9425C55.786 74.9693 55.7439 74.9867 55.6995 74.9934L54.5795 75.1867C54.5286 75.1962 54.4812 75.2196 54.4428 75.2543C54.4043 75.2891 54.3763 75.3338 54.3618 75.3836C54.3473 75.4334 54.3469 75.4862 54.3606 75.5362C54.3743 75.5861 54.4016 75.6313 54.4395 75.6667L55.0195 76.2067Z"
        fill="#FCCE88" />
    <path
        d="M56.8795 73.7933L57.4129 74.8C57.434 74.8398 57.4644 74.8739 57.5016 74.8994C57.5387 74.925 57.5815 74.9412 57.6262 74.9466L58.7529 75.08C58.8047 75.0863 58.8537 75.107 58.8943 75.1396C58.935 75.1723 58.9658 75.2157 58.9831 75.2649C59.0004 75.3141 59.0036 75.3672 58.9924 75.4182C58.9812 75.4691 58.9559 75.5159 58.9195 75.5533L58.1262 76.3666C58.0936 76.3979 58.0697 76.437 58.0569 76.4803C58.044 76.5235 58.0426 76.5694 58.0529 76.6133L58.2729 77.7266C58.2826 77.7773 58.2782 77.8297 58.26 77.878C58.2419 77.9263 58.2108 77.9687 58.1701 78.0004C58.1294 78.0321 58.0807 78.052 58.0294 78.0578C57.9782 78.0636 57.9263 78.0551 57.8795 78.0333L56.8595 77.5266C56.8191 77.5067 56.7746 77.4963 56.7295 77.4963C56.6844 77.4963 56.64 77.5067 56.5995 77.5266L55.6062 78.0866C55.5602 78.1097 55.5088 78.1199 55.4575 78.1162C55.4062 78.1126 55.3568 78.0951 55.3146 78.0658C55.2723 78.0365 55.2387 77.9964 55.2173 77.9496C55.1959 77.9028 55.1874 77.8511 55.1929 77.8L55.3329 76.6666C55.339 76.6226 55.3344 76.5777 55.3193 76.5359C55.3042 76.4941 55.2791 76.4566 55.2462 76.4266L54.4395 75.6666C54.4016 75.6313 54.3743 75.5861 54.3606 75.5361C54.3469 75.4861 54.3473 75.4333 54.3618 75.3835C54.3763 75.3338 54.4043 75.289 54.4428 75.2543C54.4812 75.2195 54.5286 75.1961 54.5795 75.1866L55.6995 74.9933C55.7439 74.9867 55.786 74.9692 55.822 74.9425C55.8581 74.9157 55.887 74.8805 55.9062 74.84L56.3862 73.8066C56.4071 73.7594 56.441 73.7191 56.484 73.6904C56.5269 73.6617 56.577 73.6457 56.6287 73.6443C56.6803 73.6429 56.7313 73.6561 56.7757 73.6825C56.8201 73.7089 56.8561 73.7473 56.8795 73.7933Z"
        stroke="#45413C" stroke-width="0.8" stroke-linecap="round" stroke-linejoin="round" />
    <path
        d="M49.1604 85.06L49.3337 85.96C49.3421 85.9952 49.3584 86.028 49.3816 86.0557C49.4047 86.0835 49.434 86.1055 49.4671 86.12L50.3137 86.48C50.35 86.4994 50.3803 86.5282 50.4014 86.5634C50.4226 86.5987 50.4337 86.639 50.4337 86.68C50.4337 86.7211 50.4226 86.7614 50.4014 86.7967C50.3803 86.8319 50.35 86.8607 50.3137 86.88L49.5137 87.3334C49.4817 87.3503 49.4545 87.375 49.4346 87.4054C49.4148 87.4357 49.403 87.4706 49.4004 87.5067L49.3337 88.42C49.3301 88.4623 49.3146 88.5028 49.2891 88.5367C49.2636 88.5706 49.2291 88.5967 49.1895 88.612C49.1499 88.6273 49.1068 88.6312 49.0651 88.6231C49.0235 88.6151 48.9849 88.5956 48.9537 88.5667L48.2871 87.9467C48.2618 87.9204 48.2298 87.9016 48.1945 87.8922C48.1593 87.8828 48.1221 87.8832 48.0871 87.8934L47.1937 88.0934C47.153 88.1018 47.1107 88.0988 47.0715 88.0848C47.0323 88.0708 46.9978 88.0463 46.9716 88.0139C46.9454 87.9816 46.9287 87.9426 46.9232 87.9014C46.9177 87.8601 46.9236 87.8181 46.9404 87.78L47.3337 86.9467C47.3519 86.9153 47.3614 86.8797 47.3614 86.8434C47.3614 86.8071 47.3519 86.7715 47.3337 86.74L46.8671 85.9534C46.8458 85.9171 46.8351 85.8757 46.836 85.8337C46.8369 85.7918 46.8495 85.7508 46.8723 85.7156C46.8951 85.6803 46.9273 85.6521 46.9652 85.634C47.0031 85.616 47.0453 85.6088 47.0871 85.6134L47.9937 85.72C48.0304 85.7231 48.0673 85.7181 48.1018 85.7054C48.1364 85.6928 48.1677 85.6727 48.1937 85.6467L48.7937 84.98C48.8206 84.9545 48.8532 84.936 48.8889 84.926C48.9246 84.916 48.9621 84.9149 48.9983 84.9228C49.0345 84.9307 49.0682 84.9473 49.0964 84.9713C49.1247 84.9952 49.1467 85.0257 49.1604 85.06Z"
        fill="#FFE500" />
    <path
        d="M47.1737 86.5L47.7471 86.5667C47.7838 86.5712 47.8212 86.5669 47.8559 86.5542C47.8907 86.5414 47.922 86.5206 47.9471 86.4934L48.5471 85.8267C48.5746 85.7948 48.6105 85.7711 48.6507 85.7584C48.6909 85.7457 48.7338 85.7445 48.7747 85.7549C48.8156 85.7653 48.8527 85.7869 48.882 85.8172C48.9113 85.8476 48.9315 85.8855 48.9404 85.9267L49.1204 86.8267C49.1259 86.8621 49.1404 86.8954 49.1626 86.9234C49.1848 86.9515 49.2139 86.9733 49.2471 86.9867L49.7804 87.2134L50.3404 86.9C50.3767 86.8807 50.407 86.8519 50.4281 86.8167C50.4492 86.7814 50.4604 86.7411 50.4604 86.7C50.4604 86.659 50.4492 86.6186 50.4281 86.5834C50.407 86.5482 50.3767 86.5194 50.3404 86.5L49.4937 86.14C49.4606 86.1255 49.4314 86.1035 49.4082 86.0757C49.3851 86.048 49.3687 86.0152 49.3604 85.98L49.1804 85.08C49.1716 85.0397 49.1519 85.0026 49.1235 84.9726C49.0951 84.9426 49.0591 84.921 49.0193 84.91C48.9795 84.899 48.9374 84.8991 48.8977 84.9103C48.8579 84.9215 48.822 84.9433 48.7937 84.9734L48.1937 85.64C48.1677 85.6661 48.1364 85.6861 48.1018 85.6987C48.0673 85.7114 48.0304 85.7164 47.9937 85.7134L47.0871 85.6067C47.0453 85.6022 47.0031 85.6093 46.9652 85.6274C46.9273 85.6454 46.8951 85.6737 46.8723 85.7089C46.8495 85.7442 46.8369 85.7851 46.836 85.8271C46.8351 85.8691 46.8458 85.9105 46.8671 85.9467L47.1737 86.5Z"
        fill="#FFF48C" />
    <path
        d="M49.1604 85.06L49.3337 85.96C49.3421 85.9952 49.3584 86.028 49.3816 86.0557C49.4047 86.0835 49.434 86.1055 49.4671 86.12L50.3137 86.48C50.35 86.4994 50.3803 86.5282 50.4014 86.5634C50.4226 86.5987 50.4337 86.639 50.4337 86.68C50.4337 86.7211 50.4226 86.7614 50.4014 86.7967C50.3803 86.8319 50.35 86.8607 50.3137 86.88L49.5137 87.3334C49.4817 87.3503 49.4545 87.375 49.4346 87.4054C49.4148 87.4357 49.403 87.4706 49.4004 87.5067L49.3337 88.42C49.3301 88.4623 49.3146 88.5028 49.2891 88.5367C49.2636 88.5706 49.2291 88.5967 49.1895 88.612C49.1499 88.6273 49.1068 88.6312 49.0651 88.6231C49.0235 88.6151 48.9849 88.5956 48.9537 88.5667L48.2871 87.9467C48.2618 87.9204 48.2298 87.9016 48.1945 87.8922C48.1593 87.8828 48.1221 87.8832 48.0871 87.8934L47.1937 88.0934C47.153 88.1018 47.1107 88.0988 47.0715 88.0848C47.0323 88.0708 46.9978 88.0463 46.9716 88.0139C46.9454 87.9816 46.9287 87.9426 46.9232 87.9014C46.9177 87.8601 46.9236 87.8181 46.9404 87.78L47.3337 86.9467C47.3519 86.9153 47.3614 86.8797 47.3614 86.8434C47.3614 86.8071 47.3519 86.7715 47.3337 86.74L46.8671 85.9534C46.8458 85.9171 46.8351 85.8757 46.836 85.8337C46.8369 85.7918 46.8495 85.7508 46.8723 85.7156C46.8951 85.6803 46.9273 85.6521 46.9652 85.634C47.0031 85.616 47.0453 85.6088 47.0871 85.6134L47.9937 85.72C48.0304 85.7231 48.0673 85.7181 48.1018 85.7054C48.1364 85.6928 48.1677 85.6727 48.1937 85.6467L48.7937 84.98C48.8206 84.9545 48.8532 84.936 48.8889 84.926C48.9246 84.916 48.9621 84.9149 48.9983 84.9228C49.0345 84.9307 49.0682 84.9473 49.0964 84.9713C49.1247 84.9952 49.1467 85.0257 49.1604 85.06Z"
        stroke="#45413C" stroke-width="0.8" stroke-linecap="round" stroke-linejoin="round" />
    <path
        d="M49.563 33.225L56.6505 24.475C53.1737 23.5966 49.5463 23.4942 46.0255 24.175C42.1255 25.1375 41.513 32.5 41.4505 35.9875C41.4461 36.1811 41.4935 36.3723 41.5878 36.5414C41.682 36.7105 41.8197 36.8514 41.9866 36.9495C42.1535 37.0476 42.3436 37.0994 42.5372 37.0995C42.7308 37.0996 42.921 37.048 43.088 36.95L49.563 33.225Z"
        fill="#FC774C" />
    <path
        d="M46.0503 27.4999C48.7754 26.9394 51.5803 26.8843 54.3253 27.3375L56.6503 24.4875C53.1736 23.6091 49.5461 23.5067 46.0253 24.1875C42.1253 25.1375 41.5128 32.5 41.4503 35.9875C41.4472 36.2005 41.5081 36.4095 41.6253 36.5874C42.0003 32.9124 42.9878 28.2624 46.0503 27.4999Z"
        fill="#FCB096" />
    <path
        d="M49.563 33.225L56.6505 24.475C53.1737 23.5966 49.5463 23.4942 46.0255 24.175C42.1255 25.1375 41.513 32.5 41.4505 35.9875C41.4461 36.1811 41.4935 36.3723 41.5878 36.5414C41.682 36.7105 41.8197 36.8514 41.9866 36.9495C42.1535 37.0476 42.3436 37.0994 42.5372 37.0995C42.7308 37.0996 42.921 37.048 43.088 36.95L49.563 33.225Z"
        stroke="#45413C" stroke-linecap="round" stroke-linejoin="round" />
    <path
        d="M58.0755 41.75L66.8255 34.6625C67.7032 38.1351 67.8056 41.7583 67.1255 45.275C66.213 49.175 58.9005 49.7875 55.363 49.85C55.1694 49.8543 54.9782 49.8069 54.8091 49.7127C54.6399 49.6184 54.499 49.4807 54.4009 49.3138C54.3028 49.1469 54.2511 48.9568 54.251 48.7632C54.2509 48.5696 54.3025 48.3795 54.4005 48.2125L58.0755 41.75Z"
        fill="#FC774C" />
    <path
        d="M63.7629 45.2625C64.3298 42.5339 64.3849 39.7237 63.9254 36.975L66.7754 34.6625C67.6531 38.1351 67.7555 41.7583 67.0754 45.275C66.1629 49.175 58.8504 49.7875 55.3129 49.85C55.1001 49.8516 54.8915 49.7908 54.7129 49.675C58.3879 49.35 63.0379 48.3125 63.7629 45.2625Z"
        fill="#FCB096" />
    <path
        d="M58.0755 41.75L66.8255 34.6625C67.7032 38.1351 67.8056 41.7583 67.1255 45.275C66.213 49.175 58.9005 49.7875 55.363 49.85C55.1694 49.8543 54.9782 49.8069 54.8091 49.7127C54.6399 49.6184 54.499 49.4807 54.4009 49.3138C54.3028 49.1469 54.2511 48.9568 54.251 48.7632C54.2509 48.5696 54.3025 48.3795 54.4005 48.2125L58.0755 41.75Z"
        stroke="#45413C" stroke-linecap="round" stroke-linejoin="round" />
    <path
        d="M81.35 26.95C88.125 19.825 85.9875 11.0375 84.925 7.95004C84.8031 7.58301 84.5977 7.24926 84.325 6.97504C84.051 6.70823 83.7227 6.50359 83.3625 6.37504C80.275 5.31254 71.475 3.17504 64.35 10C55.55 18.325 49.5 33.125 49.5 33.125L58.25 41.875C58.25 41.875 72.975 35.75 81.35 26.95Z"
        fill="#F8F1FF" />
    <path
        d="M67.0625 14.8375C73.975 8.25004 82.45 10.0875 85.8125 11.1625C85.6202 10.0722 85.3444 8.99816 84.9875 7.95004C84.8596 7.57822 84.6458 7.24181 84.3634 6.96815C84.0811 6.69448 83.7381 6.49128 83.3625 6.37504C80.275 5.31254 71.475 3.17504 64.35 10C55.55 18.325 49.5 33.125 49.5 33.125L52.8625 36.4875C54.65 32.5 59.9625 21.5875 67.0625 14.8375Z"
        fill="white" />
    <path
        d="M81.35 26.95C88.125 19.825 85.9875 11.0375 84.925 7.95004C84.8031 7.58301 84.5977 7.24926 84.325 6.97504C84.051 6.70823 83.7227 6.50359 83.3625 6.37504C80.275 5.31254 71.475 3.17504 64.35 10C55.55 18.325 49.5 33.125 49.5 33.125L58.25 41.875C58.25 41.875 72.975 35.75 81.35 26.95Z"
        stroke="#45413C" stroke-linecap="round" stroke-linejoin="round" />
    <path opacity="0.15"
        d="M54.7754 55.2625C54.7754 55.7597 56.0924 56.2366 58.4366 56.5883C60.7808 56.9399 63.9602 57.1375 67.2754 57.1375C70.5906 57.1375 73.77 56.9399 76.1142 56.5883C78.4584 56.2366 79.7754 55.7597 79.7754 55.2625C79.7754 54.7652 78.4584 54.2883 76.1142 53.9366C73.77 53.585 70.5906 53.3875 67.2754 53.3875C63.9602 53.3875 60.7808 53.585 58.4366 53.9366C56.0924 54.2883 54.7754 54.7652 54.7754 55.2625Z"
        fill="#45413C" />
    <path
        d="M60.6599 32.2678C60.7508 32.1068 60.7867 31.9205 60.7622 31.7372C60.7376 31.5539 60.654 31.3837 60.524 31.2522C60.3939 31.1208 60.2246 31.0353 60.0416 31.0088C59.8586 30.9823 59.6719 31.0161 59.5099 31.1053C57.0747 32.3517 54.8379 33.9525 52.8724 35.8553C50.7905 37.9523 49.1462 40.4422 48.0349 43.1803C48.0014 43.2577 47.9917 43.3434 48.0071 43.4263C48.0224 43.5093 48.0621 43.5858 48.1211 43.6462C48.1801 43.7065 48.2557 43.7479 48.3383 43.7651C48.4209 43.7823 48.5068 43.7745 48.5849 43.7428C51.3188 42.6464 53.8084 41.0192 55.9099 38.9553C57.82 36.9772 59.4213 34.7228 60.6599 32.2678Z"
        fill="#FC774C" stroke="#45413C" stroke-linecap="round" stroke-linejoin="round" />
    <path
        d="M67.2998 17.15C67.2998 18.97 68.0228 20.7155 69.3098 22.0025C70.5968 23.2895 72.3423 24.0125 74.1623 24.0125C75.9824 24.0125 77.7279 23.2895 79.0148 22.0025C80.3018 20.7155 81.0248 18.97 81.0248 17.15C81.0248 15.3299 80.3018 13.5844 79.0148 12.2975C77.7279 11.0105 75.9824 10.2875 74.1623 10.2875C72.3423 10.2875 70.5968 11.0105 69.3098 12.2975C68.0228 13.5844 67.2998 15.3299 67.2998 17.15Z"
        fill="#FFE2D8" stroke="#45413C" stroke-linecap="round" stroke-linejoin="round" />
    <path
        d="M69.4502 17.1125C69.4502 17.7363 69.5731 18.354 69.8118 18.9303C70.0505 19.5066 70.4004 20.0302 70.8414 20.4713C71.2825 20.9124 71.8062 21.2623 72.3824 21.501C72.9587 21.7397 73.5764 21.8625 74.2002 21.8625C74.824 21.8625 75.4416 21.7397 76.0179 21.501C76.5942 21.2623 77.1179 20.9124 77.559 20.4713C78 20.0302 78.3499 19.5066 78.5886 18.9303C78.8273 18.354 78.9502 17.7363 78.9502 17.1125C78.9502 16.4888 78.8273 15.8711 78.5886 15.2948C78.3499 14.7185 78 14.1949 77.559 13.7538C77.1179 13.3127 76.5942 12.9628 76.0179 12.7241C75.4416 12.4854 74.824 12.3625 74.2002 12.3625C73.5764 12.3625 72.9587 12.4854 72.3824 12.7241C71.8062 12.9628 71.2825 13.3127 70.8414 13.7538C70.4004 14.1949 70.0505 14.7185 69.8118 15.2948C69.5731 15.8711 69.4502 16.4888 69.4502 17.1125Z"
        fill="#B27AFF" />
    <path
        d="M70.8374 13.7501C70.3952 14.1913 70.0443 14.7154 69.805 15.2924C69.5656 15.8694 69.4424 16.4879 69.4424 17.1126C69.4424 17.7372 69.5656 18.3558 69.805 18.9328C70.0443 19.5097 70.3952 20.0338 70.8374 20.4751C71.1553 20.7797 71.5127 21.0404 71.8999 21.2501L76.3374 12.8876C75.4478 12.4286 74.4353 12.2647 73.4464 12.4198C72.4575 12.5749 71.5437 13.0408 70.8374 13.7501Z"
        fill="#E0C9FE" />
    <path
        d="M69.4502 17.1125C69.4502 17.7363 69.5731 18.354 69.8118 18.9303C70.0505 19.5066 70.4004 20.0302 70.8414 20.4713C71.2825 20.9124 71.8062 21.2623 72.3824 21.501C72.9587 21.7397 73.5764 21.8625 74.2002 21.8625C74.824 21.8625 75.4416 21.7397 76.0179 21.501C76.5942 21.2623 77.1179 20.9124 77.559 20.4713C78 20.0302 78.3499 19.5066 78.5886 18.9303C78.8273 18.354 78.9502 17.7363 78.9502 17.1125C78.9502 16.4888 78.8273 15.8711 78.5886 15.2948C78.3499 14.7185 78 14.1949 77.559 13.7538C77.1179 13.3127 76.5942 12.9628 76.0179 12.7241C75.4416 12.4854 74.824 12.3625 74.2002 12.3625C73.5764 12.3625 72.9587 12.4854 72.3824 12.7241C71.8062 12.9628 71.2825 13.3127 70.8414 13.7538C70.4004 14.1949 70.0505 14.7185 69.8118 15.2948C69.5731 15.8711 69.4502 16.4888 69.4502 17.1125Z"
        stroke="#45413C" stroke-linecap="round" stroke-linejoin="round" />
    <path
        d="M46.175 51.8375C45.3 52.7125 39.725 54.6 36.9 55.5125C36.375 55.6875 35.65 54.925 35.7875 54.4C36.7 51.5875 38.5875 46.0125 39.5375 45.125C40.725 43.875 43.825 43.875 45.675 45.7C47.525 47.525 47.3625 50.65 46.175 51.8375Z"
        fill="#FC774C" stroke="#45413C" stroke-linecap="round" stroke-linejoin="round" />
    <path
        d="M44.6621 49.7375C44.0371 50.35 41.4496 50.9875 40.9121 50.4375C40.3746 49.8875 40.9996 47.2625 41.6246 46.6875C42.0386 46.4048 42.5452 46.2913 43.0403 46.3704C43.5354 46.4494 43.9815 46.7149 44.2871 47.1125C44.669 47.4221 44.9199 47.8647 44.9894 48.3514C45.0589 48.8382 44.942 49.3332 44.6621 49.7375Z"
        fill="#FFE500" stroke="#45413C" stroke-linecap="round" stroke-linejoin="round" />
    <path
        d="M86.15 29.6125L87.15 31.5C87.1896 31.5747 87.2467 31.6387 87.3163 31.6865C87.3859 31.7344 87.4661 31.7648 87.55 31.775L89.6625 32.025C89.7596 32.0369 89.8515 32.0756 89.9277 32.1369C90.004 32.1982 90.0616 32.2795 90.0941 32.3718C90.1266 32.4641 90.1327 32.5636 90.1116 32.6592C90.0906 32.7547 90.0433 32.8425 89.975 32.9125L88.4875 34.4375C88.4264 34.4961 88.3816 34.5695 88.3575 34.6506C88.3334 34.7317 88.3308 34.8176 88.35 34.9L88.7625 36.9875C88.7808 37.0825 88.7724 37.1807 88.7384 37.2713C88.7044 37.3619 88.646 37.4413 88.5698 37.5008C88.4935 37.5603 88.4022 37.5975 88.3061 37.6084C88.2099 37.6193 88.1127 37.6034 88.025 37.5625L86.1125 36.6125C86.0367 36.5751 85.9533 36.5556 85.8687 36.5556C85.7842 36.5556 85.7008 36.5751 85.625 36.6125L83.7625 37.6625C83.6762 37.7057 83.5799 37.7248 83.4837 37.718C83.3875 37.7111 83.2949 37.6785 83.2157 37.6235C83.1364 37.5685 83.0734 37.4933 83.0332 37.4055C82.9931 37.3178 82.9773 37.2209 82.9875 37.125L83.25 35C83.2615 34.9175 83.2528 34.8333 83.2245 34.7549C83.1962 34.6765 83.1491 34.6062 83.0875 34.55L81.575 33.125C81.5039 33.0587 81.4527 32.974 81.4269 32.8803C81.4012 32.7865 81.402 32.6875 81.4292 32.5942C81.4564 32.5009 81.509 32.417 81.5811 32.3518C81.6532 32.2866 81.7419 32.2427 81.8375 32.225L83.9375 31.8625C84.0207 31.8501 84.0996 31.8174 84.1672 31.7672C84.2348 31.7171 84.289 31.6511 84.325 31.575L85.225 29.6375C85.2643 29.549 85.3278 29.4734 85.4083 29.4196C85.4887 29.3657 85.5828 29.3357 85.6796 29.3331C85.7764 29.3305 85.8719 29.3553 85.9552 29.4048C86.0385 29.4542 86.106 29.5263 86.15 29.6125Z"
        fill="#FF9900" />
    <path
        d="M82.6625 34.1375L83.9875 33.9C84.0711 33.8887 84.1505 33.8564 84.2182 33.8061C84.286 33.7558 84.3399 33.6893 84.375 33.6125L85.275 31.675C85.3187 31.5883 85.3857 31.5153 85.4685 31.4644C85.5513 31.4134 85.6465 31.3865 85.7437 31.3865C85.8409 31.3865 85.9362 31.4134 86.019 31.4644C86.1017 31.5153 86.1687 31.5883 86.2125 31.675L87.2 33.5625C87.2396 33.6372 87.2967 33.7012 87.3663 33.749C87.4359 33.7969 87.5161 33.8273 87.6 33.8375L88.9375 34L89.975 32.9375C90.0433 32.8675 90.0906 32.7797 90.1116 32.6842C90.1327 32.5886 90.1266 32.4891 90.0941 32.3968C90.0616 32.3045 90.004 32.2232 89.9277 32.1619C89.8515 32.1006 89.7596 32.0619 89.6625 32.05L87.55 31.8C87.4661 31.7898 87.3859 31.7594 87.3163 31.7115C87.2467 31.6637 87.1896 31.5997 87.15 31.525L86.15 29.6375C86.1083 29.5502 86.0427 29.4765 85.9609 29.4248C85.879 29.3732 85.7843 29.3458 85.6875 29.3458C85.5907 29.3458 85.4959 29.3732 85.4141 29.4248C85.3322 29.4765 85.2667 29.5502 85.225 29.6375L84.325 31.575C84.289 31.6511 84.2348 31.7171 84.1672 31.7672C84.0996 31.8174 84.0207 31.8501 83.9375 31.8625L81.8375 32.225C81.7419 32.2428 81.6532 32.2866 81.5811 32.3518C81.509 32.417 81.4564 32.5009 81.4292 32.5942C81.402 32.6875 81.4012 32.7866 81.4269 32.8803C81.4527 32.974 81.5039 33.0587 81.575 33.125L82.6625 34.1375Z"
        fill="#FCCE88" />
    <path
        d="M86.15 29.6125L87.15 31.5C87.1896 31.5747 87.2467 31.6387 87.3163 31.6865C87.3859 31.7344 87.4661 31.7648 87.55 31.775L89.6625 32.025C89.7596 32.0369 89.8515 32.0756 89.9277 32.1369C90.004 32.1982 90.0616 32.2795 90.0941 32.3718C90.1266 32.4641 90.1327 32.5636 90.1116 32.6592C90.0906 32.7547 90.0433 32.8425 89.975 32.9125L88.4875 34.4375C88.4264 34.4961 88.3816 34.5695 88.3575 34.6506C88.3334 34.7317 88.3308 34.8176 88.35 34.9L88.7625 36.9875C88.7808 37.0825 88.7724 37.1807 88.7384 37.2713C88.7044 37.3619 88.646 37.4413 88.5698 37.5008C88.4935 37.5603 88.4022 37.5975 88.3061 37.6084C88.2099 37.6193 88.1127 37.6034 88.025 37.5625L86.1125 36.6125C86.0367 36.5751 85.9533 36.5556 85.8687 36.5556C85.7842 36.5556 85.7008 36.5751 85.625 36.6125L83.7625 37.6625C83.6762 37.7057 83.5799 37.7248 83.4837 37.718C83.3875 37.7111 83.2949 37.6785 83.2157 37.6235C83.1364 37.5685 83.0734 37.4933 83.0332 37.4055C82.9931 37.3178 82.9773 37.2209 82.9875 37.125L83.25 35C83.2615 34.9175 83.2528 34.8333 83.2245 34.7549C83.1962 34.6765 83.1491 34.6062 83.0875 34.55L81.575 33.125C81.5039 33.0587 81.4527 32.974 81.4269 32.8803C81.4012 32.7865 81.402 32.6875 81.4292 32.5942C81.4564 32.5009 81.509 32.417 81.5811 32.3518C81.6532 32.2866 81.7419 32.2427 81.8375 32.225L83.9375 31.8625C84.0207 31.8501 84.0996 31.8174 84.1672 31.7672C84.2348 31.7171 84.289 31.6511 84.325 31.575L85.225 29.6375C85.2643 29.549 85.3278 29.4734 85.4083 29.4196C85.4887 29.3657 85.5828 29.3357 85.6796 29.3331C85.7764 29.3305 85.8719 29.3553 85.9552 29.4048C86.0385 29.4542 86.106 29.5263 86.15 29.6125Z"
        stroke="#45413C" stroke-width="0.8" stroke-linecap="round" stroke-linejoin="round" />
    <path
        d="M71.6748 50.7375L71.9998 52.425C72.0154 52.491 72.0461 52.5524 72.0895 52.6045C72.1328 52.6565 72.1877 52.6978 72.2498 52.725L73.8373 53.4C73.9053 53.4363 73.9621 53.4903 74.0017 53.5564C74.0414 53.6224 74.0623 53.698 74.0623 53.775C74.0623 53.8521 74.0414 53.9276 74.0017 53.9937C73.9621 54.0597 73.9053 54.1138 73.8373 54.15L72.3373 55C72.2772 55.0317 72.2261 55.0782 72.189 55.135C72.1518 55.1919 72.1297 55.2573 72.1248 55.325L71.9998 57.0375C71.9929 57.1168 71.964 57.1926 71.9162 57.2563C71.8684 57.3199 71.8037 57.3688 71.7294 57.3975C71.6551 57.4261 71.5743 57.4334 71.4962 57.4184C71.418 57.4033 71.3456 57.3667 71.2873 57.3125L70.0373 56.15C69.9899 56.1007 69.9298 56.0654 69.8637 56.0478C69.7976 56.0301 69.728 56.0309 69.6623 56.05L67.9873 56.425C67.9109 56.4408 67.8316 56.4353 67.7581 56.409C67.6846 56.3827 67.6198 56.3367 67.5707 56.276C67.5217 56.2154 67.4903 56.1423 67.48 56.065C67.4697 55.9876 67.4808 55.909 67.5123 55.8375L68.2498 54.275C68.2838 54.2161 68.3017 54.1493 68.3017 54.0813C68.3017 54.0133 68.2838 53.9464 68.2498 53.8875L67.3748 52.4125C67.335 52.3446 67.3148 52.2669 67.3165 52.1882C67.3182 52.1095 67.3418 52.0328 67.3846 51.9667C67.4274 51.9006 67.4877 51.8476 67.5588 51.8138C67.6299 51.78 67.709 51.7665 67.7873 51.775L69.4873 51.975C69.556 51.9807 69.6252 51.9714 69.6899 51.9476C69.7547 51.9239 69.8135 51.8863 69.8623 51.8375L70.9873 50.5875C71.0376 50.5397 71.0989 50.5049 71.1657 50.4862C71.2326 50.4675 71.303 50.4654 71.3708 50.4802C71.4386 50.495 71.5018 50.5262 71.5548 50.5711C71.6078 50.6159 71.649 50.6731 71.6748 50.7375Z"
        fill="#FFE500" />
    <path
        d="M67.9498 53.4375L69.0248 53.5625C69.0937 53.571 69.1637 53.563 69.2289 53.5391C69.2941 53.5151 69.3527 53.4761 69.3998 53.425L70.5248 52.175C70.5764 52.1151 70.6436 52.0708 70.719 52.047C70.7944 52.0232 70.875 52.0209 70.9516 52.0404C71.0282 52.0599 71.0979 52.1003 71.1528 52.1572C71.2077 52.2142 71.2456 52.2852 71.2623 52.3625L71.5998 54.05C71.61 54.1163 71.6373 54.1788 71.6789 54.2314C71.7206 54.284 71.7751 54.3248 71.8373 54.35L72.8373 54.775L73.8873 54.1875C73.9553 54.1513 74.0121 54.0972 74.0517 54.0312C74.0914 53.9651 74.1123 53.8895 74.1123 53.8125C74.1123 53.7355 74.0914 53.6599 74.0517 53.5939C74.0121 53.5278 73.9553 53.4738 73.8873 53.4375L72.2998 52.7625C72.2377 52.7353 72.1828 52.694 72.1395 52.642C72.0961 52.5899 72.0654 52.5285 72.0498 52.4625L71.7123 50.775C71.6957 50.6994 71.6588 50.6297 71.6056 50.5736C71.5523 50.5174 71.4848 50.4768 71.4101 50.4562C71.3355 50.4356 71.2567 50.4358 71.1822 50.4568C71.1077 50.4777 71.0403 50.5186 70.9873 50.575L69.8623 51.825C69.8135 51.8738 69.7547 51.9113 69.6899 51.9351C69.6252 51.9588 69.556 51.9682 69.4873 51.9625L67.7873 51.7625C67.709 51.754 67.6299 51.7674 67.5588 51.8013C67.4877 51.8351 67.4274 51.888 67.3846 51.9541C67.3418 52.0203 67.3182 52.097 67.3165 52.1757C67.3148 52.2544 67.335 52.3321 67.3748 52.4L67.9498 53.4375Z"
        fill="#FFF48C" />
    <path
        d="M71.6748 50.7375L71.9998 52.425C72.0154 52.491 72.0461 52.5524 72.0895 52.6045C72.1328 52.6565 72.1877 52.6978 72.2498 52.725L73.8373 53.4C73.9053 53.4363 73.9621 53.4903 74.0017 53.5564C74.0414 53.6224 74.0623 53.698 74.0623 53.775C74.0623 53.8521 74.0414 53.9276 74.0017 53.9937C73.9621 54.0597 73.9053 54.1138 73.8373 54.15L72.3373 55C72.2772 55.0317 72.2261 55.0782 72.189 55.135C72.1518 55.1919 72.1297 55.2573 72.1248 55.325L71.9998 57.0375C71.9929 57.1168 71.964 57.1926 71.9162 57.2563C71.8684 57.3199 71.8037 57.3688 71.7294 57.3975C71.6551 57.4261 71.5743 57.4334 71.4962 57.4184C71.418 57.4033 71.3456 57.3667 71.2873 57.3125L70.0373 56.15C69.9899 56.1007 69.9298 56.0654 69.8637 56.0478C69.7976 56.0301 69.728 56.0309 69.6623 56.05L67.9873 56.425C67.9109 56.4408 67.8316 56.4353 67.7581 56.409C67.6846 56.3827 67.6198 56.3367 67.5707 56.276C67.5217 56.2154 67.4903 56.1423 67.48 56.065C67.4697 55.9876 67.4808 55.909 67.5123 55.8375L68.2498 54.275C68.2838 54.2161 68.3017 54.1493 68.3017 54.0813C68.3017 54.0133 68.2838 53.9464 68.2498 53.8875L67.3748 52.4125C67.335 52.3446 67.3148 52.2669 67.3165 52.1882C67.3182 52.1095 67.3418 52.0328 67.3846 51.9667C67.4274 51.9006 67.4877 51.8476 67.5588 51.8138C67.6299 51.78 67.709 51.7665 67.7873 51.775L69.4873 51.975C69.556 51.9807 69.6252 51.9714 69.6899 51.9476C69.7547 51.9239 69.8135 51.8863 69.8623 51.8375L70.9873 50.5875C71.0376 50.5397 71.0989 50.5049 71.1657 50.4862C71.2326 50.4675 71.303 50.4654 71.3708 50.4802C71.4386 50.495 71.5018 50.5262 71.5548 50.5711C71.6078 50.6159 71.649 50.6731 71.6748 50.7375Z"
        stroke="#45413C" stroke-width="0.8" stroke-linecap="round" stroke-linejoin="round" />
    <path
        d="M46.8251 8.75005C46.723 9.50127 46.4 10.2052 45.897 10.7725C45.3941 11.3397 44.7339 11.7448 44.0003 11.9361C43.2667 12.1274 42.4928 12.0964 41.7769 11.8471C41.0609 11.5977 40.4352 11.1413 39.9792 10.5356C39.5232 9.92994 39.2575 9.20244 39.2158 8.44546C39.174 7.68848 39.3582 6.93618 39.7449 6.28407C40.1315 5.63196 40.7032 5.10946 41.3874 4.78291C42.0716 4.45637 42.8374 4.34051 43.5876 4.45005C44.5849 4.59567 45.4845 5.12905 46.0907 5.93423C46.6969 6.73942 46.9609 7.75134 46.8251 8.75005Z"
        fill="#9CEB60" />
    <path
        d="M43.5879 7.17495C44.2687 7.28167 44.908 7.5703 45.4382 8.01035C45.9685 8.45041 46.37 9.02553 46.6004 9.67495C46.7162 9.37798 46.7919 9.06691 46.8254 8.74995C46.9501 7.75313 46.6777 6.74726 46.067 5.94965C45.4562 5.15203 44.5562 4.62671 43.5613 4.48717C42.5665 4.34763 41.5567 4.60507 40.75 5.20388C39.9434 5.80268 39.4048 6.69479 39.2504 7.68745C39.1801 8.33167 39.2658 8.98336 39.5004 9.58745C39.8143 8.78646 40.3873 8.11366 41.1282 7.6764C41.8691 7.23913 42.735 7.06259 43.5879 7.17495Z"
        fill="#C8FFA1" />
    <path
        d="M46.8251 8.75005C46.723 9.50127 46.4 10.2052 45.897 10.7725C45.3941 11.3397 44.7339 11.7448 44.0003 11.9361C43.2667 12.1274 42.4928 12.0964 41.7769 11.8471C41.0609 11.5977 40.4352 11.1413 39.9792 10.5356C39.5232 9.92994 39.2575 9.20244 39.2158 8.44546C39.174 7.68848 39.3582 6.93618 39.7449 6.28407C40.1315 5.63196 40.7032 5.10946 41.3874 4.78291C42.0716 4.45637 42.8374 4.34051 43.5876 4.45005C44.5849 4.59567 45.4845 5.12905 46.0907 5.93423C46.6969 6.73942 46.9609 7.75134 46.8251 8.75005Z"
        stroke="#45413C" stroke-width="0.8" stroke-linecap="round" stroke-linejoin="round" />
    <path
        d="M39.3248 9.12499C38.3748 9.77499 36.4623 11.25 36.9998 12.325C37.5373 13.4 50.1123 5.88749 49.6748 4.82499C49.2373 3.76249 46.5498 4.97499 45.5998 5.42499"
        stroke="#45413C" stroke-width="0.8" stroke-linecap="round" stroke-linejoin="round" />
</svg>
