<svg width="22" height="22" viewBox="0 0 22 22" fill="none" xmlns="http://www.w3.org/2000/svg">
<rect opacity="0.01" x="0.0999756" y="0.0999985" width="21.6" height="21.6" fill="black"/>
<path fill-rule="evenodd" clip-rule="evenodd" d="M14.9743 6.0517C13.8943 5.1877 12.52 4.6603 10.999 4.6603C8.16579 4.6603 5.77899 6.4504 4.94199 8.9398L1.30599 6.2218C3.06279 2.7298 6.73119 0.340298 10.999 0.340298C13.7476 0.340298 16.2019 1.3483 18.1162 2.98L14.9743 6.0517ZM1.30599 6.2218L4.94019 8.9398C4.73319 9.5563 4.61619 10.2142 4.61619 10.9C4.61658 11.5638 4.72479 12.223 4.93659 12.8521L1.30419 15.5746C0.596785 14.167 0.198985 12.5812 0.198985 10.9C0.196637 9.27544 0.575815 7.67302 1.30599 6.2218ZM10.999 17.1397C8.16489 17.1397 5.77809 15.3496 4.94019 12.8602L1.30599 15.5782C3.06189 19.0702 6.73029 21.4597 10.999 21.4597C13.6324 21.4597 16.147 20.5444 18.0352 18.8281C20.0179 17.0263 21.3076 14.3425 21.3076 10.9C21.3076 10.2763 21.2086 9.604 21.0619 8.9803H10.9981V13.06H16.7905C16.5016 14.4514 15.7132 15.5206 14.5855 16.2163L18.0352 18.8281L14.5846 16.2163C13.6117 16.8166 12.3859 17.1397 10.9981 17.1397H10.999Z" fill="white" fill-opacity="0.695642"/>
</svg>
