<svg width="90" height="90" viewBox="0 0 90 90" fill="none" xmlns="http://www.w3.org/2000/svg">
<path fill-rule="evenodd" clip-rule="evenodd" d="M45 7.5C24.2893 7.5 7.5 24.2893 7.5 45C7.5 65.7107 24.2893 82.5 45 82.5C65.7107 82.5 82.5 65.7107 82.5 45C82.5 24.2893 65.7107 7.5 45 7.5ZM0 45C0 20.1472 20.1472 0 45 0C69.8528 0 90 20.1472 90 45C90 69.8528 69.8528 90 45 90C20.1472 90 0 69.8528 0 45ZM63.5429 28.2827C65.1817 29.549 65.4837 31.9041 64.2173 33.5429L42.9673 61.0429C42.2873 61.9229 41.2518 62.4557 40.1404 62.4974C39.0291 62.539 37.9566 62.0852 37.2126 61.2586L25.9626 48.7586C24.5772 47.2192 24.702 44.8481 26.2414 43.4626C27.7808 42.0772 30.1519 42.202 31.5374 43.7414L39.7808 52.9007L58.2827 28.9571C59.549 27.3183 61.9041 27.0163 63.5429 28.2827Z" fill="#00B36B"/>
</svg>
