<svg width="16" height="17" viewBox="0 0 16 17" fill="none" xmlns="http://www.w3.org/2000/svg">
<g id="Group 1000007808">
<path id="Union" fill-rule="evenodd" clip-rule="evenodd" d="M14.7303 2.78909C14.6468 2.78872 14.5661 2.75936 14.5018 2.70601C13.7719 2.01813 12.882 1.52317 11.9125 1.26596C10.9128 1.00083 9.87065 0.934957 8.84549 1.0721C8.75368 1.08679 8.65979 1.06441 8.58449 1.00988C8.50918 0.955346 8.45862 0.873132 8.44394 0.781323C8.42925 0.689514 8.45163 0.59563 8.50616 0.520324C8.56069 0.445018 8.64291 0.39446 8.73471 0.37977C9.85671 0.22632 10.998 0.296916 12.0925 0.58747C13.1623 0.879573 14.1456 1.42587 14.9588 2.17984C15.0275 2.24109 15.0696 2.32676 15.076 2.41858C15.0825 2.5104 15.0528 2.60111 14.9934 2.67139C14.96 2.70807 14.9194 2.73746 14.8742 2.75772C14.8289 2.77797 14.7799 2.78865 14.7303 2.78909ZM4.14843 16.3004C4.09275 16.2998 4.03806 16.2856 3.98919 16.2588C2.99373 15.7483 2.12173 15.0265 1.43414 14.144C0.746542 13.2615 0.259925 12.2395 0.00827955 11.1494C-0.0119184 11.0576 0.00518185 10.9615 0.0558186 10.8823C0.106455 10.8031 0.18648 10.7473 0.278289 10.7271C0.370098 10.7069 0.466171 10.724 0.545372 10.7746C0.624573 10.8253 0.680414 10.9053 0.700612 10.9971C0.925468 11.9901 1.36654 12.9212 1.99241 13.7241C2.61827 14.5271 3.41353 15.1822 4.32151 15.6427C4.40184 15.6854 4.46212 15.758 4.48933 15.8448C4.51654 15.9316 4.50848 16.0256 4.4669 16.1065C4.43929 16.167 4.39418 16.2178 4.33741 16.2523C4.28064 16.2869 4.21481 16.3036 4.14843 16.3004ZM4.85069 4.19149C4.67279 4.34884 4.5637 4.56969 4.54687 4.80659C4.53004 5.0435 4.60681 5.27755 4.76069 5.45846L7.39155 8.67781L4.78838 6.68389C4.60454 6.53571 4.3695 6.46636 4.13467 6.49102C3.89984 6.51567 3.68432 6.63231 3.53526 6.81544V6.85698C3.4561 6.94811 3.39578 7.05402 3.35778 7.16859C3.31978 7.28317 3.30485 7.40414 3.31386 7.52451C3.32287 7.64489 3.35564 7.76228 3.41028 7.86992C3.46492 7.97756 3.54034 8.07331 3.63218 8.15164L6.62999 10.7617L4.55299 9.68862C4.45127 9.63266 4.33948 9.5974 4.22407 9.58487C4.10866 9.57234 3.99191 9.5828 3.88056 9.61562C3.7692 9.64845 3.66545 9.703 3.57529 9.77613C3.48513 9.84926 3.41035 9.93952 3.35525 10.0417L3.32064 10.0971C3.21109 10.307 3.18592 10.5508 3.25028 10.7786C3.31463 11.0064 3.46364 11.201 3.6668 11.3225L8.43697 14.2649C9.05826 14.6776 9.81229 14.8407 10.5486 14.7219C11.6702 14.5903 13.8302 12.8872 14.0103 11.1564C14.0759 10.3793 14.062 9.59748 13.9687 8.8232L13.6779 5.5C13.6555 5.25268 13.5416 5.02263 13.3585 4.85488C13.1754 4.68713 12.9362 4.59376 12.6879 4.59305C12.4449 4.59304 12.2117 4.6891 12.0392 4.86029C11.8667 5.03148 11.7689 5.26392 11.7671 5.50693L11.7325 7.84009L8.9493 3.49916C8.88683 3.39615 8.8046 3.3065 8.70735 3.23538C8.6101 3.16426 8.49975 3.11307 8.38264 3.08476C8.26553 3.05645 8.14398 3.05157 8.02499 3.07041C7.90599 3.08925 7.79189 3.13144 7.68925 3.19454H7.64079C7.43957 3.31806 7.29445 3.51518 7.23627 3.74401C7.17809 3.97284 7.21145 4.21534 7.32924 4.41996L8.9493 7.27238L6.15228 4.24688C5.99627 4.07891 5.78243 3.97625 5.5538 3.95955C5.32516 3.94285 5.09868 4.01336 4.91992 4.15688H4.87838L4.85069 4.19149ZM12.9077 3.6548C12.8244 3.65334 12.744 3.6241 12.6792 3.57172C12.268 3.21146 11.7826 2.94597 11.2574 2.79403C10.7322 2.64209 10.18 2.60742 9.63989 2.69246C9.59443 2.69973 9.54798 2.69798 9.5032 2.68731C9.45842 2.67663 9.41617 2.65724 9.37889 2.63023C9.3416 2.60323 9.30999 2.56915 9.28588 2.52994C9.26176 2.49072 9.24561 2.44714 9.23833 2.40168C9.23106 2.35622 9.23281 2.30977 9.24349 2.26499C9.25416 2.22021 9.27356 2.17797 9.30056 2.14068C9.32756 2.10339 9.36164 2.07179 9.40086 2.04767C9.44007 2.02356 9.48365 2.0074 9.52911 2.00013C10.1424 1.89855 10.7703 1.92924 11.3707 2.09013C12.024 2.26709 12.628 2.59158 13.1362 3.03863C13.1708 3.06784 13.1992 3.10369 13.2197 3.14405C13.2402 3.18441 13.2524 3.22848 13.2557 3.27364C13.2589 3.31881 13.253 3.36417 13.2385 3.40704C13.2239 3.44991 13.2009 3.48942 13.1708 3.52326C13.14 3.56391 13.1002 3.59691 13.0546 3.61972C13.009 3.64253 12.9587 3.65454 12.9077 3.6548ZM4.53215 14.2275C4.58022 14.2488 4.63194 14.2605 4.68446 14.2621H4.69831C4.77739 14.2641 4.85477 14.2389 4.91754 14.1908C4.98031 14.1426 5.0247 14.0744 5.04332 13.9975C5.06193 13.9206 5.05365 13.8397 5.01985 13.7682C4.98605 13.6967 4.92877 13.6389 4.85754 13.6044C4.38843 13.3696 3.97524 13.0367 3.64596 12.6282C3.2874 12.1838 3.03626 11.6625 2.91209 11.1051C2.89189 11.0133 2.83605 10.9333 2.75685 10.8826C2.67765 10.832 2.58158 10.8149 2.48977 10.8351C2.39796 10.8553 2.31793 10.9111 2.2673 10.9903C2.21666 11.0695 2.19956 11.1656 2.21976 11.2574C2.3682 11.92 2.66928 12.5387 3.09902 13.0644C3.48919 13.549 3.97763 13.9454 4.53215 14.2275Z" fill="#E7E8EC"/>
</g>
</svg>
