<svg width="14" height="14" viewBox="0 0 14 14" fill="none" xmlns="http://www.w3.org/2000/svg">
<path fill-rule="evenodd" clip-rule="evenodd" d="M12.75 0.75H1.25C0.973438 0.75 0.75 0.973438 0.75 1.25V12.75C0.75 13.0266 0.973438 13.25 1.25 13.25H12.75C13.0266 13.25 13.25 13.0266 13.25 12.75V1.25C13.25 0.973438 13.0266 0.75 12.75 0.75ZM12.25 8H7.25V6H12.25V8ZM8.6875 7.625C8.34232 7.625 8.0625 7.34518 8.0625 7C8.0625 6.65482 8.34232 6.375 8.6875 6.375C9.03268 6.375 9.3125 6.65482 9.3125 7C9.3125 7.34518 9.03268 7.625 8.6875 7.625Z" fill="#E7E8EC"/>
</svg>
