<svg width="18" height="18" viewBox="0 0 18 18" fill="none" xmlns="http://www.w3.org/2000/svg">
<rect opacity="0.01" width="18" height="18" fill="#4BB093"/>
<path fill-rule="evenodd" clip-rule="evenodd" d="M1.49962 1.49962V6.75H6.75V1.49962H1.49962ZM0 0H8.2485V8.2485H0V0ZM2.99925 2.99925H5.24925V5.24925H2.99925V2.99925ZM0 9.74925H8.2485V17.9978H0V9.74925ZM1.49962 11.2489V16.4981H6.75V11.2489H1.49962ZM2.99925 12.7485H5.24925V14.9985H2.99925V12.7485ZM9.74925 0H17.9978V8.2485H9.74925V0ZM11.2489 1.49962V6.75H16.4981V1.49962H11.2489ZM17.9977 13.4978H18V14.9985H12.7485V11.2489H11.2489V17.9978H9.74925V9.74925H14.2481V13.4978H16.4981V9.74925H17.9977V13.4978ZM12.7485 2.99925H14.9985V5.24925H12.7485V2.99925ZM17.9977 17.9977H16.4981V16.4981H17.9977V17.9977ZM14.2481 17.9977H12.7485V16.4981H14.2481V17.9977Z" fill="white"/>
</svg>
