<?xml version="1.0" standalone="no"?><!DOCTYPE svg PUBLIC "-//W3C//DTD SVG 1.1//EN" "http://www.w3.org/Graphics/SVG/1.1/DTD/svg11.dtd"><svg t="1661485182214" class="icon" viewBox="0 0 1024 1024" version="1.1" xmlns="http://www.w3.org/2000/svg" p-id="10322" xmlns:xlink="http://www.w3.org/1999/xlink" width="200" height="200"><path d="M512 60.8c246.4 0 448 201.6 448 448s-201.6 448-448 448-448-201.6-448-448 201.6-448 448-448z m0 64c-211.2 0-384 172.8-384 384s172.8 384 384 384 384-169.6 384-384c0-211.2-172.8-384-384-384z m192 419.2c12.8 0 25.6 9.6 28.8 22.4 3.2 12.8-3.2 25.6-12.8 35.2l-128 96c-6.4 3.2-12.8 6.4-19.2 6.4-9.6 0-19.2-3.2-25.6-12.8-9.6-12.8-6.4-35.2 6.4-44.8l51.2-38.4H320c-19.2 0-32-12.8-32-32s12.8-32 32-32zM432 326.4c12.8-9.6 35.2-6.4 44.8 6.4 9.6 12.8 6.4 35.2-6.4 44.8l-51.2 38.4H704c19.2 0 32 12.8 32 32s-12.8 32-32 32H320c-12.8 0-25.6-9.6-28.8-22.4-3.2-12.8 3.2-25.6 12.8-35.2z" p-id="10323"></path></svg>