<svg width="26" height="16" viewBox="0 0 26 16" fill="none" xmlns="http://www.w3.org/2000/svg">
<path fill-rule="evenodd" clip-rule="evenodd" d="M12.5772 3.12608C10.0832 3.12608 8.16061 4.53691 7.08884 5.52503C6.92919 5.67225 6.68174 5.67241 6.52679 5.52025L4.84453 3.8681C4.68551 3.71195 4.68408 3.4563 4.847 3.30429C6.12893 2.10785 8.83189 0 12.5772 0C16.3226 0 19.0255 2.10785 20.3075 3.30429C20.4704 3.4563 20.4689 3.71195 20.3099 3.8681L18.6277 5.52025C18.4727 5.67241 18.2253 5.67225 18.0656 5.52503C16.9938 4.53691 15.0713 3.12608 12.5772 3.12608ZM0.13187 8.71771C-0.0337585 8.56865 -0.044912 8.31276 0.107173 8.14992L1.71439 6.42798C1.86257 6.2692 2.11065 6.25845 2.27206 6.40376L7.01778 10.676C7.16827 10.8115 7.39644 10.8126 7.54813 10.6785L12.3134 6.46654C12.4641 6.33334 12.6904 6.33334 12.841 6.46654L17.6063 10.6785C17.758 10.8126 17.9862 10.8115 18.1367 10.676L22.8824 6.40376C23.0438 6.25845 23.2919 6.2692 23.4401 6.42798L25.0473 8.14992C25.1994 8.31276 25.1882 8.56865 25.0226 8.71771L18.1563 14.8991C18.0059 15.0346 17.7777 15.0356 17.626 14.9015L12.841 10.6722C12.6904 10.5391 12.4641 10.5391 12.3134 10.6722L7.52845 14.9015C7.37676 15.0356 7.1486 15.0346 6.99818 14.8991L0.13187 8.71771Z" fill="#278FFC"/>
</svg>
